0
SECTION
2
HEADER
9
$INSUNITS
70
4
9
$ACADVER
1
AC1014
9
$HANDSEED
5
FFFF
0
ENDSEC
0
SECTION
2
TABLES
0
TABLE
2
VPORT
5
8
100
AcDbSymbolTable
0
ENDTAB
0
TABLE
2
LTYPE
5
5
100
AcDbSymbolTable
0
LTYPE
5
14
100
AcDbSymbolTableRecord
100
AcDbLinetypeTableRecord
2
BYBLOCK
70
0
0
LTYPE
5
15
100
AcDbSymbolTableRecord
100
AcDbLinetypeTableRecord
2
BYLAYER
70
0
0
ENDTAB
0
TABLE
2
LAYER
5
2
100
AcDbSymbolTable
70
2
0
LAYER
5
50
100
AcDbSymbolTableRecord
100
AcDbLayerTableRecord
2
0
70
0
6
CONTINUOUS
0
ENDTAB
0
TABLE
2
STYLE
5
3
100
AcDbSymbolTable
70
1
0
STYLE
5
11
100
AcDbSymbolTableRecord
100
AcDbTextStyleTableRecord
2
STANDARD
70
0
0
ENDTAB
0
TABLE
2
VIEW
5
6
100
AcDbSymbolTable
70
0
0
ENDTAB
0
TABLE
2
UCS
5
7
100
AcDbSymbolTable
70
0
0
ENDTAB
0
TABLE
2
APPID
5
9
100
AcDbSymbolTable
70
2
0
APPID
5
12
100
AcDbSymbolTableRecord
100
AcDbRegAppTableRecord
2
ACAD
70
0
0
ENDTAB
0
TABLE
2
DIMSTYLE
5
A
100
AcDbSymbolTable
70
1
0
ENDTAB
0
TABLE
2
BLOCK_RECORD
5
1
100
AcDbSymbolTable
70
1
0
BLOCK_RECORD
5
1F
100
AcDbSymbolTableRecord
100
AcDbBlockTableRecord
2
*MODEL_SPACE
0
BLOCK_RECORD
5
1B
100
AcDbSymbolTableRecord
100
AcDbBlockTableRecord
2
*PAPER_SPACE
0
ENDTAB
0
ENDSEC
0
SECTION
2
BLOCKS
0
BLOCK
5
20
100
AcDbEntity
100
AcDbBlockBegin
2
*MODEL_SPACE
0
ENDBLK
5
21
100
AcDbEntity
100
AcDbBlockEnd
0
BLOCK
5
1C
100
AcDbEntity
100
AcDbBlockBegin
2
*PAPER_SPACE
0
ENDBLK
5
1D
100
AcDbEntity
100
AcDbBlockEnd
0
ENDSEC
0
SECTION
2
ENTITIES
0
LWPOLYLINE
5
100
100
AcDbEntity
8
0
100
AcDbPolyline
90
72
70
1
43
0.0
10
4.3999999899999986
20
22.5
42
0.41421356237309503
10
4.099999989999997
20
22.199999999999996
10
4.0999999900000006
20
18.5
42
0.41421356237309503
10
4.5999999900000033
20
18
10
6.4999999900000027
20
18.000000000000004
42
-0.41421356237309503
10
6.7999999900000052
20
17.699999999999999
10
6.7999999900000008
20
9.1999999999999993
10
4.7999999900000034
20
7.1999999999999975
10
-4.8000000100000006
20
7.1999999999999975
10
-6.8000000099999998
20
9.1999999999999993
10
-6.8000000098999998
20
17.699999999999999
42
-0.41421356217783506
10
-6.5000000099999999
20
17.999999999899998
10
-4.6000000100000005
20
18
42
0.41421356237309503
10
-4.1000000099999996
20
18.5
10
-4.1000000100000022
20
22.200000000000003
42
0.41421356237309503
10
-4.4000000099999976
20
22.5
10
-20.000000010000001
20
22.5
42
0.41421356237309503
10
-22.500000010000001
20
20
10
-22.500000010000001
20
4.3999999999999968
42
0.41421356237309503
10
-22.200000009999997
20
4.0999999999999952
10
-18.500000010000001
20
4.1000000000000014
42
0.41421356237309503
10
-18.000000010000001
20
4.5999999999999996
10
-18.000000010000004
20
6.4999999999999991
42
-0.41421356237309503
10
-17.70000001
20
6.8000000000000016
10
-9.2000000100000001
20
6.7999999999999989
10
-7.2000000099999983
20
4.7999999999999998
10
-7.2000000099999983
20
-4.8000000000000043
10
-9.2000000100000001
20
-6.8000000000000016
10
-17.70000001
20
-6.7999999999000016
42
-0.41421356217783289
10
-18.000000009899999
20
-6.5000000000000036
10
-18.000000010000001
20
-4.6000000000000041
42
0.41421356237309503
10
-18.500000010000001
20
-4.1000000000000032
10
-22.200000010000004
20
-4.1000000000000014
42
0.41421356237309503
10
-22.500000010000001
20
-4.3999999999999995
10
-22.500000010000001
20
-20
42
0.41421356237309609
10
-20.000000010000001
20
-22.499999999999993
10
-4.4000000099999976
20
-22.5
42
0.41421356237309503
10
-4.100000009999996
20
-22.200000000000006
10
-4.1000000100000022
20
-18.500000000000007
42
0.41421356237309503
10
-4.6000000100000005
20
-18.000000000000004
10
-6.5000000099999999
20
-18.000000000000007
42
-0.41421356237309503
10
-6.8000000100000024
20
-17.700000000000003
10
-6.8000000099999998
20
-9.1999999999999993
10
-4.8000000100000006
20
-7.200000000000002
10
4.7999999900000034
20
-7.200000000000002
10
6.7999999900000008
20
-9.1999999999999993
10
6.7999999899000008
20
-17.700000000000003
42
-0.41421356217783289
10
6.4999999900000027
20
-17.999999999900002
10
4.5999999900000033
20
-18
42
0.41421356237309503
10
4.0999999900000024
20
-18.500000000000007
10
4.0999999900000006
20
-22.200000000000006
42
0.41421356237309503
10
4.3999999899999986
20
-22.500000000000004
10
19.999999989999999
20
-22.5
42
0.41421356237309503
10
22.499999989999992
20
-20
10
22.499999989999999
20
-4.3999999999999995
42
0.41421356237309503
10
22.199999990000006
20
-4.0999999999999979
10
18.499999990000006
20
-4.1000000000000014
42
0.41421356237309503
10
17.999999990000003
20
-4.6000000000000041
10
17.999999990000006
20
-6.5000000000000036
42
-0.41421356237309503
10
17.699999990000002
20
-6.800000000000006
10
9.1999999899999985
20
-6.8000000000000016
10
7.1999999900000011
20
-4.8000000000000043
10
7.1999999900000011
20
4.7999999999999998
10
9.1999999899999985
20
6.7999999999999989
10
17.699999990000002
20
6.7999999998999989
42
-0.41421356217783506
10
17.999999989900001
20
6.4999999999999991
10
17.999999989999999
20
4.5999999999999996
42
0.41421356237309503
10
18.499999990000006
20
4.0999999999999988
10
22.199999990000006
20
4.1000000000000014
42
0.41421356237309503
10
22.499999990000003
20
4.3999999999999968
10
22.499999989999999
20
20
42
0.41421356237309503
10
19.999999989999999
20
22.5
0
LWPOLYLINE
5
101
100
AcDbEntity
8
0
100
AcDbPolyline
90
32
70
1
43
0.0
10
4.3840620299999999
20
2.9698484799999991
10
3.4193475394864414
20
2.0051339905133636
42
0.32143713254002809
10
3.36248108599123
20
1.6601869980209698
42
-0.23341882753592869
10
3.3624810899610971
20
-1.6601869899805473
42
0.32143714311244637
10
3.4193475400280997
20
-2.0051339799719043
10
4.3840620249718052
20
-2.9698484750280048
42
-0.41421356927678693
10
4.3840620299719006
20
-3.394112539971899
10
3.3941125349720016
20
-4.3840620249718034
42
-0.41421356927679304
10
2.9698484700280972
20
-4.3840620299719033
10
2.0051339805133628
20
-3.4193475394864459
42
0.32143713254281753
10
1.6601869919382106
20
-3.3624810939319101
42
-0.23341882753571538
10
-1.6601869999805441
20
-3.3624810899610984
42
0.32143714311245031
10
-2.0051339899719052
20
-3.4193475400280997
10
-2.969848485027998
20
-4.3840620249718052
42
-0.41421356927679148
10
-3.3941125499719016
20
-4.3840620299719024
10
-4.3840620349718042
20
-3.3941125349720034
42
-0.41421356927679304
10
-4.3840620399718997
20
-2.9698484700280989
10
-3.4193475494864423
20
-2.0051339805133628
42
0.3214371325428193
10
-3.3624811039319011
20
-1.6601869919382066
42
-0.23341882691326518
10
-3.3624810999610899
20
1.6601869999805401
42
0.3214371431124497
10
-3.4193475500280943
20
2.0051339899719043
10
-4.3840620349718042
20
2.969848485027998
42
-0.41421356927679148
10
-4.3840620399719015
20
3.3941125499719016
10
-3.3941125449720015
20
4.3840620349718034
42
-0.41421356927679304
10
-2.9698484800280984
20
4.3840620399718997
10
-2.0051339905133547
20
3.4193475494864356
42
0.32143713254281298
10
-1.6601869980182449
20
3.3624810959925644
42
-0.23341882691326518
10
1.6601869899805435
20
3.362481099961089
42
0.32143714311244598
10
2.0051339799719035
20
3.4193475500280943
10
2.9698484750280003
20
4.3840620349718034
42
-0.41421356927678998
10
3.3941125399719012
20
4.3840620399719015
10
4.3840620249999018
20
3.3941125450000942
42
-0.41421356927678998
0
CIRCLE
5
102
100
AcDbEntity
8
0
100
AcDbCircle
10
14.650000009999999
20
-14.649999999999999
30
0
40
6.0000000000000009
210
0
220
0
230
-1
0
CIRCLE
5
103
100
AcDbEntity
8
0
100
AcDbCircle
10
-14.649999989999998
20
-14.649999999999999
30
0
40
6.0000000000000009
210
0
220
0
230
-1
0
CIRCLE
5
104
100
AcDbEntity
8
0
100
AcDbCircle
10
-14.649999989999998
20
14.649999999999999
30
0
40
6.0000000000000009
210
0
220
0
230
-1
0
CIRCLE
5
105
100
AcDbEntity
8
0
100
AcDbCircle
10
14.650000009999999
20
14.649999999999999
30
0
40
6.0000000000000009
210
0
220
0
230
-1
0
LWPOLYLINE
5
106
100
AcDbEntity
8
0
100
AcDbPolyline
90
72
70
1
43
0.0
10
4.3999999899999986
20
22.5
42
0.41421356237309503
10
4.099999989999997
20
22.199999999999996
10
4.0999999900000006
20
18.5
42
0.41421356237309503
10
4.5999999900000033
20
18
10
6.4999999900000027
20
18.000000000000004
42
-0.41421356237308965
10
6.7999999900000052
20
17.699999999999999
10
6.7999999900000008
20
9.1999999999999993
10
4.7999999900000034
20
7.1999999999999975
10
-4.8000000100000006
20
7.1999999999999975
10
-6.8000000099999998
20
9.1999999999999993
10
-6.8000000098999998
20
17.699999999999999
42
-0.41421356217783073
10
-6.5000000099999999
20
17.999999999899998
10
-4.6000000100000005
20
18
42
0.41421356237309503
10
-4.1000000099999996
20
18.5
10
-4.1000000100000022
20
22.200000000000003
42
0.41421356237309503
10
-4.4000000099999976
20
22.5
10
-20.000000010000001
20
22.5
42
0.41421356237309503
10
-22.500000010000001
20
20
10
-22.500000010000001
20
4.3999999999999968
42
0.41421356237309503
10
-22.200000009999997
20
4.0999999999999952
10
-18.500000010000001
20
4.1000000000000014
42
0.41421356237309503
10
-18.000000010000001
20
4.5999999999999996
10
-18.000000010000004
20
6.4999999999999991
42
-0.41421356237308965
10
-17.70000001
20
6.8000000000000016
10
-9.2000000100000001
20
6.7999999999999989
10
-7.2000000099999983
20
4.7999999999999998
10
-7.2000000099999983
20
-4.8000000000000043
10
-9.2000000100000001
20
-6.8000000000000016
10
-17.70000001
20
-6.7999999999000016
42
-0.41421356217783289
10
-18.000000009899999
20
-6.5000000000000036
10
-18.000000010000001
20
-4.6000000000000041
42
0.41421356237309503
10
-18.500000010000001
20
-4.1000000000000032
10
-22.200000010000004
20
-4.1000000000000014
42
0.41421356237309503
10
-22.500000010000001
20
-4.3999999999999995
10
-22.500000010000001
20
-20
42
0.41421356237309476
10
-20.000000010000001
20
-22.499999999999993
10
-4.4000000099999976
20
-22.5
42
0.41421356237309503
10
-4.100000009999996
20
-22.200000000000006
10
-4.1000000100000022
20
-18.500000000000007
42
0.41421356237309503
10
-4.6000000100000005
20
-18.000000000000004
10
-6.5000000099999999
20
-18.000000000000007
42
-0.41421356237308965
10
-6.8000000100000024
20
-17.700000000000003
10
-6.8000000099999998
20
-9.1999999999999993
10
-4.8000000100000006
20
-7.200000000000002
10
4.7999999900000034
20
-7.200000000000002
10
6.7999999900000008
20
-9.1999999999999993
10
6.7999999899000008
20
-17.700000000000003
42
-0.41421356217783289
10
6.4999999900000027
20
-17.999999999900002
10
4.5999999900000033
20
-18
42
0.41421356237309503
10
4.0999999900000024
20
-18.500000000000007
10
4.0999999900000006
20
-22.200000000000006
42
0.41421356237309503
10
4.3999999899999986
20
-22.500000000000004
10
19.999999989999999
20
-22.5
42
0.41421356237309503
10
22.499999989999992
20
-20
10
22.499999989999999
20
-4.3999999999999995
42
0.41421356237309503
10
22.199999990000006
20
-4.0999999999999979
10
18.499999990000006
20
-4.1000000000000014
42
0.41421356237309503
10
17.999999990000003
20
-4.6000000000000041
10
17.999999990000006
20
-6.5000000000000036
42
-0.41421356237308965
10
17.699999990000002
20
-6.800000000000006
10
9.1999999899999985
20
-6.8000000000000016
10
7.1999999900000011
20
-4.8000000000000043
10
7.1999999900000011
20
4.7999999999999998
10
9.1999999899999985
20
6.7999999999999989
10
17.699999990000002
20
6.7999999998999989
42
-0.41421356217783073
10
17.999999989900001
20
6.4999999999999991
10
17.999999989999999
20
4.5999999999999996
42
0.41421356237309503
10
18.499999990000006
20
4.0999999999999988
10
22.199999990000006
20
4.1000000000000014
42
0.41421356237309503
10
22.499999990000003
20
4.3999999999999968
10
22.499999989999999
20
20
42
0.41421356237309503
10
19.999999989999999
20
22.5
0
LWPOLYLINE
5
107
100
AcDbEntity
8
0
100
AcDbPolyline
90
32
70
1
43
0.0
10
4.3840620299999999
20
2.9698484799999991
10
3.4193475394864414
20
2.0051339905133636
42
0.32143713254002815
10
3.362481093930568
20
1.6601870019409275
42
-0.23341882691347873
10
3.3624810899610953
20
-1.6601869899805473
42
0.32143714311244576
10
3.4193475400280997
20
-2.0051339799719043
10
4.3840620249718052
20
-2.9698484750280048
42
-0.41421356927678615
10
4.3840620299719006
20
-3.394112539971899
10
3.3941125349720016
20
-4.3840620249718034
42
-0.41421356927679304
10
2.9698484700280972
20
-4.3840620299719033
10
2.0051339805133628
20
-3.4193475394864459
42
0.32143713254281753
10
1.6601869919382102
20
-3.3624810939319083
42
-0.23341882691326518
10
-1.6601869999805443
20
-3.3624810899610975
42
0.3214371431124492
10
-2.0051339899719052
20
-3.4193475400280993
10
-2.969848485027998
20
-4.3840620249718052
42
-0.41421356927679148
10
-3.3941125499719016
20
-4.3840620299719024
10
-4.3840620349718042
20
-3.3941125349720034
42
-0.41421356927679304
10
-4.3840620399718997
20
-2.9698484700280989
10
-3.4193475494864423
20
-2.0051339805133628
42
0.3214371325428193
10
-3.3624811039319011
20
-1.6601869919382044
42
-0.23341882691326496
10
-3.3624810999610908
20
1.6601869999805379
42
0.32143714311245197
10
-3.4193475500280943
20
2.0051339899719043
10
-4.3840620349718042
20
2.969848485027998
42
-0.41421356927679226
10
-4.3840620399719015
20
3.3941125499719016
10
-3.3941125449720015
20
4.3840620349718034
42
-0.41421356927679304
10
-2.9698484800280984
20
4.3840620399718997
10
-2.0051339905133547
20
3.4193475494864356
42
0.3214371325428127
10
-1.660187001938203
20
3.3624811039319047
42
-0.23341882691326496
10
1.6601869899805415
20
3.3624810999610899
42
0.3214371431124477
10
2.005133979971903
20
3.4193475500280943
10
2.9698484750280003
20
4.3840620349718034
42
-0.41421356927679071
10
3.3941125399719012
20
4.3840620399719015
10
4.3840620249999018
20
3.3941125450000942
42
-0.41421356927678998
0
CIRCLE
5
108
100
AcDbEntity
8
0
100
AcDbCircle
10
-14.650000009999999
20
-14.649999999999999
30
0
40
6.0000000000000009
210
0
220
-0
230
1
0
CIRCLE
5
109
100
AcDbEntity
8
0
100
AcDbCircle
10
14.649999989999998
20
-14.649999999999999
30
0
40
6.0000000000000009
210
0
220
-0
230
1
0
CIRCLE
5
110
100
AcDbEntity
8
0
100
AcDbCircle
10
14.649999989999998
20
14.649999999999999
30
0
40
6.0000000000000009
210
0
220
-0
230
1
0
CIRCLE
5
111
100
AcDbEntity
8
0
100
AcDbCircle
10
-14.650000009999999
20
14.649999999999999
30
0
40
6.0000000000000009
210
0
220
0
230
1
0
ENDSEC
0
SECTION
2
OBJECTS
0
DICTIONARY
5
C
100
AcDbDictionary
3
ACAD_GROUP
350
D
3
ACAD_MLINESTYLE
350
17
0
DICTIONARY
5
D
100
AcDbDictionary
0
DICTIONARY
5
1A
330
C
100
AcDbDictionary
0
DICTIONARY
5
17
100
AcDbDictionary
0
ENDSEC
0
EOF
