0
SECTION
2
HEADER
9
$INSUNITS
70
4
9
$ACADVER
1
AC1014
9
$HANDSEED
5
FFFF
0
ENDSEC
0
SECTION
2
TABLES
0
TABLE
2
VPORT
5
8
100
AcDbSymbolTable
0
ENDTAB
0
TABLE
2
LTYPE
5
5
100
AcDbSymbolTable
0
LTYPE
5
14
100
AcDbSymbolTableRecord
100
AcDbLinetypeTableRecord
2
BYBLOCK
70
0
0
LTYPE
5
15
100
AcDbSymbolTableRecord
100
AcDbLinetypeTableRecord
2
BYLAYER
70
0
0
ENDTAB
0
TABLE
2
LAYER
5
2
100
AcDbSymbolTable
70
2
0
LAYER
5
50
100
AcDbSymbolTableRecord
100
AcDbLayerTableRecord
2
0
70
0
6
CONTINUOUS
0
ENDTAB
0
TABLE
2
STYLE
5
3
100
AcDbSymbolTable
70
1
0
STYLE
5
11
100
AcDbSymbolTableRecord
100
AcDbTextStyleTableRecord
2
STANDARD
70
0
0
ENDTAB
0
TABLE
2
VIEW
5
6
100
AcDbSymbolTable
70
0
0
ENDTAB
0
TABLE
2
UCS
5
7
100
AcDbSymbolTable
70
0
0
ENDTAB
0
TABLE
2
APPID
5
9
100
AcDbSymbolTable
70
2
0
APPID
5
12
100
AcDbSymbolTableRecord
100
AcDbRegAppTableRecord
2
ACAD
70
0
0
ENDTAB
0
TABLE
2
DIMSTYLE
5
A
100
AcDbSymbolTable
70
1
0
ENDTAB
0
TABLE
2
BLOCK_RECORD
5
1
100
AcDbSymbolTable
70
1
0
BLOCK_RECORD
5
1F
100
AcDbSymbolTableRecord
100
AcDbBlockTableRecord
2
*MODEL_SPACE
0
BLOCK_RECORD
5
1B
100
AcDbSymbolTableRecord
100
AcDbBlockTableRecord
2
*PAPER_SPACE
0
ENDTAB
0
ENDSEC
0
SECTION
2
BLOCKS
0
BLOCK
5
20
100
AcDbEntity
100
AcDbBlockBegin
2
*MODEL_SPACE
0
ENDBLK
5
21
100
AcDbEntity
100
AcDbBlockEnd
0
BLOCK
5
1C
100
AcDbEntity
100
AcDbBlockBegin
2
*PAPER_SPACE
0
ENDBLK
5
1D
100
AcDbEntity
100
AcDbBlockEnd
0
ENDSEC
0
SECTION
2
ENTITIES
0
LWPOLYLINE
5
100
100
AcDbEntity
8
0
100
AcDbPolyline
90
104
70
1
43
0.0
10
40.600000000000009
20
-22.500000000000007
42
0.41421356237309503
10
40.900000000000006
20
-22.200000000000006
10
40.899999999999999
20
-18.500000000000007
42
0.41421356237309503
10
40.399999999999999
20
-18.000000000000004
10
38.500000000000007
20
-18.000000000000007
42
-0.41421356237309503
10
38.200000000000003
20
-17.700000000000003
10
38.200000000000003
20
-9.1999999999999993
10
40.200000000000003
20
-7.200000000000002
10
49.800000000000004
20
-7.200000000000002
10
51.799999999999997
20
-9.1999999999999993
10
51.79999999990001
20
-17.700000000000003
42
-0.41421356217783289
10
51.5
20
-17.999999999900002
10
49.600000000000001
20
-18
42
0.41421356237309503
10
49.100000000000001
20
-18.500000000000007
10
49.100000000000001
20
-22.200000000000006
42
0.41421356237309503
10
49.400000000000013
20
-22.500000000000004
10
65
20
-22.5
42
0.41421356237309503
10
67.500000000000028
20
-20
10
67.5
20
-4.3999999999999995
42
0.41421356237309503
10
67.200000000000003
20
-4.0999999999999979
10
63.5
20
-4.1000000000000014
42
0.41421356237309503
10
63
20
-4.6000000000000041
10
63.000000000000014
20
-6.5000000000000036
42
-0.41421356237309503
10
62.700000000000017
20
-6.800000000000006
10
54.20000000000001
20
-6.8000000000000016
10
52.200000000000003
20
-4.8000000000000043
10
52.200000000000003
20
4.7999999999999998
10
54.20000000000001
20
6.7999999999999989
10
62.700000000000017
20
6.7999999998999954
42
-0.41421356217782634
10
62.999999999899998
20
6.4999999999999991
10
63.000000000000007
20
4.5999999999999996
42
0.41421356237309503
10
63.5
20
4.0999999999999988
10
67.200000000000003
20
4.1000000000000014
42
0.41421356237309503
10
67.500000000000014
20
4.3999999999999968
10
67.5
20
20
42
0.41421356237309503
10
65
20
22.5
10
49.400000000000013
20
22.5
42
0.41421356237309503
10
49.100000000000009
20
22.199999999999996
10
49.100000000000001
20
18.5
42
0.41421356237309503
10
49.600000000000001
20
18
10
51.5
20
18.000000000000004
42
-0.41421356237309503
10
51.800000000000004
20
17.699999999999999
10
51.799999999999997
20
9.1999999999999993
10
49.800000000000004
20
7.1999999999999975
10
40.200000000000003
20
7.1999999999999975
10
38.200000000000003
20
9.1999999999999993
10
38.200000000100005
20
17.699999999999999
42
-0.41421356217783289
10
38.500000000000007
20
17.999999999899998
10
40.399999999999999
20
18
42
0.41421356237309503
10
40.899999999999999
20
18.5
10
40.899999999999999
20
22.200000000000003
42
0.41421356237309503
10
40.600000000000009
20
22.5
10
4.3999999999999995
20
22.5
42
0.41421356237309503
10
4.0999999999999979
20
22.199999999999996
10
4.1000000000000014
20
18.5
42
0.41421356237309503
10
4.6000000000000041
20
18
10
6.5000000000000036
20
18.000000000000004
42
-0.41421356237309503
10
6.800000000000006
20
17.699999999999999
10
6.8000000000000016
20
9.1999999999999993
10
4.8000000000000043
20
7.1999999999999975
10
-4.7999999999999998
20
7.1999999999999975
10
-6.7999999999999989
20
9.1999999999999993
10
-6.7999999998999989
20
17.699999999999999
42
-0.41421356217783506
10
-6.4999999999999991
20
17.999999999899998
10
-4.5999999999999996
20
18
42
0.41421356237309503
10
-4.0999999999999988
20
18.5
10
-4.1000000000000014
20
22.200000000000003
42
0.41421356237309503
10
-4.3999999999999968
20
22.5
10
-20
20
22.5
42
0.41421356237309503
10
-22.5
20
20
10
-22.5
20
4.3999999999999968
42
0.41421356237309503
10
-22.199999999999996
20
4.0999999999999952
10
-18.5
20
4.1000000000000014
42
0.41421356237309503
10
-18
20
4.5999999999999996
10
-18.000000000000004
20
6.4999999999999991
42
-0.41421356237309503
10
-17.699999999999999
20
6.8000000000000016
10
-9.1999999999999993
20
6.7999999999999989
10
-7.1999999999999975
20
4.7999999999999998
10
-7.1999999999999975
20
-4.8000000000000043
10
-9.1999999999999993
20
-6.8000000000000016
10
-17.699999999999999
20
-6.7999999999000016
42
-0.41421356217783289
10
-17.999999999899998
20
-6.5000000000000036
10
-18
20
-4.6000000000000041
42
0.41421356237309503
10
-18.5
20
-4.1000000000000032
10
-22.200000000000003
20
-4.1000000000000014
42
0.41421356237309503
10
-22.5
20
-4.3999999999999995
10
-22.5
20
-20
42
0.41421356237309609
10
-20
20
-22.499999999999993
10
-4.3999999999999968
20
-22.5
42
0.41421356237309503
10
-4.0999999999999952
20
-22.200000000000006
10
-4.1000000000000014
20
-18.500000000000007
42
0.41421356237309503
10
-4.5999999999999996
20
-18.000000000000004
10
-6.4999999999999991
20
-18.000000000000007
42
-0.41421356237309503
10
-6.8000000000000016
20
-17.700000000000003
10
-6.7999999999999989
20
-9.1999999999999993
10
-4.7999999999999998
20
-7.200000000000002
10
4.8000000000000043
20
-7.200000000000002
10
6.8000000000000016
20
-9.1999999999999993
10
6.7999999999000016
20
-17.700000000000003
42
-0.41421356217783289
10
6.5000000000000036
20
-17.999999999900002
10
4.6000000000000041
20
-18
42
0.41421356237309503
10
4.1000000000000032
20
-18.500000000000007
10
4.1000000000000014
20
-22.200000000000006
42
0.41421356237309503
10
4.3999999999999995
20
-22.500000000000004
0
LWPOLYLINE
5
101
100
AcDbEntity
8
0
100
AcDbPolyline
90
32
70
1
43
0.0
10
-4.3840620372065082
20
3.3941125472067069
10
-3.3941125499718976
20
4.3840620399718997
42
-0.41421356927679315
10
-2.9698484850279989
20
4.3840620349717989
10
-2.0051339900000009
20
3.4193475500000003
42
0.32143714311245147
10
-1.660186996072629
20
3.3624810920461519
42
-0.23341882691326765
10
1.6601869880303259
20
3.362481096016948
42
0.32143713254278528
10
2.0051339807700774
20
3.4193475492297254
10
2.969848470028102
20
4.384062039971897
42
-0.4142135692767962
10
3.3941125349720029
20
4.3840620349717989
10
4.3840620299718998
20
3.3941125499718989
42
-0.41421356927679009
10
4.3840620249718034
20
2.969848485028002
10
3.419347540000004
20
2.0051339900000009
42
0.32143714311245081
10
3.3624810820461004
20
1.6601869960726032
42
-0.23341882753571808
10
3.3624810860168948
20
-1.6601869880303042
42
0.3214371325427815
10
3.4193475392297303
20
-2.0051339807700783
10
4.3840620299718989
20
-2.969848470028102
42
-0.41421356927679315
10
4.3840620249718025
20
-3.3941125349720007
10
3.394112539971899
20
-4.3840620299719006
42
-0.41421356927678699
10
2.9698484750280048
20
-4.3840620249718052
10
2.0051339800000001
20
-3.419347540000004
42
0.32143714311244692
10
1.6601869899925785
20
-3.3624810899854642
42
-0.23341882753571772
10
-1.660186998030309
20
-3.3624810860169245
42
0.32143713254278483
10
-2.0051339907700747
20
-3.4193475392297263
10
-2.9698484800280984
20
-4.3840620299719006
42
-0.41421356927678854
10
-3.394112544971994
20
-4.3840620249718034
10
-4.3840620399718997
20
-3.394112539971899
42
-0.41421356927678543
10
-4.3840620349718042
20
-2.9698484750280056
10
-3.4193475500000003
20
-2.0051339800000001
42
0.32143714311244653
10
-3.3624810999854637
20
-1.6601869899925816
42
-0.23341882691326787
10
-3.3624810960169249
20
1.6601869980303126
42
0.32143713254278183
10
-3.419347549229721
20
2.0051339907700738
10
-4.384062042206609
20
2.9698484777933887
42
-0.41421356927679304
0
LWPOLYLINE
5
102
100
AcDbEntity
8
0
100
AcDbPolyline
90
32
70
1
43
0.0
10
40.615937962793495
20
3.3941125472067069
10
41.605887450028106
20
4.3840620399719041
42
-0.41421356927679887
10
42.030151514972012
20
4.38406203497179
10
42.994866009999996
20
3.4193475500000003
42
0.32143714311245913
10
43.339813000007425
20
3.3624810999854922
42
-0.23341882691327431
10
46.660186988030347
20
3.3624810960169449
42
0.32143713254276757
10
47.005133980770076
20
3.419347549229721
10
47.969848470028097
20
4.3840620399719104
42
-0.41421356927680192
10
48.39411253497201
20
4.38406203497179
10
49.384062029971901
20
3.3941125499719065
42
-0.41421356927679964
10
49.384062024971811
20
2.9698484850280011
10
48.419347540000004
20
2.0051339900000009
42
0.32143714311246258
10
48.362481082046187
20
1.6601869960726412
42
-0.2334188269132666
10
48.362481086016913
20
-1.6601869880302949
42
0.32143713254279777
10
48.41934753922974
20
-2.0051339807700765
10
49.384062029971901
20
-2.969848470028094
42
-0.41421356927680114
10
49.384062024971811
20
-3.3941125349720007
10
48.394112539971907
20
-4.3840620299719033
42
-0.41421356927678965
10
47.969848475028002
20
-4.3840620249718008
10
47.005133979999997
20
-3.419347540000004
42
0.32143714311244409
10
46.660186986072631
20
-3.3624810820461306
42
-0.23341882753571117
10
43.339813001969702
20
-3.3624810860169294
42
0.32143713254280004
10
42.994866009229924
20
-3.4193475392297321
10
42.030151519971909
20
-4.3840620299718998
42
-0.4142135692767942
10
41.605887455028004
20
-4.3840620249718025
10
40.615937960028106
20
-3.3941125399718968
42
-0.41421356927678427
10
40.615937965028202
20
-2.9698484750280048
10
41.580652450000002
20
-2.0051339800000001
42
0.32143714311245303
10
41.637518900014612
20
-1.6601869899925414
42
-0.23341882753571749
10
41.637518903983079
20
1.6601869980303126
42
0.32143713254278766
10
41.580652450770287
20
2.0051339907700747
10
40.615937957793392
20
2.9698484777933887
42
-0.41421356927678687
0
LWPOLYLINE
5
103
100
AcDbEntity
8
0
100
AcDbPolyline
90
8
70
1
43
0.0
10
8.9999999999999893
20
-18.500000000000007
42
0.41421356237309503
10
10
20
-19.500000000000014
10
35
20
-19.500000000000014
42
0.41421356237309503
10
36.000000000000007
20
-18.500000000000007
10
36
20
18.5
42
0.41421356237309503
10
35
20
19.5
10
9.9999999999999982
20
19.5
42
0.41421356237309731
10
9.0000000000000036
20
18.5
0
CIRCLE
5
104
100
AcDbEntity
8
0
100
AcDbCircle
10
14.649999999999999
20
14.649999999999999
30
0
40
5.8499999999999996
210
0
220
0
230
-1
0
CIRCLE
5
105
100
AcDbEntity
8
0
100
AcDbCircle
10
14.649999999999999
20
-14.649999999999999
30
0
40
5.8499999999999996
210
0
220
0
230
-1
0
CIRCLE
5
106
100
AcDbEntity
8
0
100
AcDbCircle
10
-59.65000000000002
20
14.649999999999999
30
0
40
5.8499999999999996
210
0
220
0
230
-1
0
CIRCLE
5
107
100
AcDbEntity
8
0
100
AcDbCircle
10
-59.65000000000002
20
-14.649999999999999
30
0
40
5.8499999999999996
210
0
220
0
230
-1
0
LWPOLYLINE
5
108
100
AcDbEntity
8
0
100
AcDbPolyline
90
104
70
1
43
0.0
10
40.600000000000009
20
-22.500000000000007
42
0.41421356237309503
10
40.900000000000006
20
-22.200000000000006
10
40.899999999999999
20
-18.500000000000007
42
0.41421356237309503
10
40.399999999999999
20
-18.000000000000004
10
38.500000000000007
20
-18.000000000000011
42
-0.41421356237309725
10
38.200000000000003
20
-17.700000000000003
10
38.200000000000003
20
-9.1999999999999993
10
40.200000000000003
20
-7.200000000000002
10
49.800000000000004
20
-7.200000000000002
10
51.799999999999997
20
-9.1999999999999993
10
51.799999999899988
20
-17.700000000000003
42
-0.41421356217784155
10
51.5
20
-17.999999999900002
10
49.600000000000001
20
-18
42
0.41421356237309503
10
49.100000000000001
20
-18.500000000000007
10
49.100000000000001
20
-22.200000000000006
42
0.41421356237309503
10
49.400000000000013
20
-22.500000000000004
10
65
20
-22.5
42
0.41421356237309398
10
67.500000000000014
20
-20
10
67.5
20
-4.3999999999999995
42
0.41421356237309503
10
67.200000000000003
20
-4.0999999999999979
10
63.5
20
-4.1000000000000014
42
0.41421356237309503
10
63
20
-4.6000000000000041
10
63.000000000000014
20
-6.5000000000000036
42
-0.41421356237309398
10
62.700000000000017
20
-6.800000000000006
10
54.20000000000001
20
-6.8000000000000016
10
52.200000000000003
20
-4.8000000000000043
10
52.200000000000003
20
4.7999999999999998
10
54.20000000000001
20
6.7999999999999989
10
62.700000000000017
20
6.7999999999000007
42
-0.41421356217783184
10
62.999999999899998
20
6.4999999999999991
10
63.000000000000007
20
4.5999999999999996
42
0.41421356237309503
10
63.5
20
4.0999999999999988
10
67.200000000000003
20
4.1000000000000014
42
0.41421356237309503
10
67.500000000000014
20
4.3999999999999968
10
67.5
20
20
42
0.41421356237309426
10
65
20
22.499999999999993
10
49.400000000000013
20
22.5
42
0.41421356237309503
10
49.100000000000009
20
22.199999999999996
10
49.100000000000001
20
18.5
42
0.41421356237309503
10
49.600000000000001
20
18
10
51.5
20
18.000000000000004
42
-0.41421356237309503
10
51.800000000000004
20
17.699999999999999
10
51.799999999999997
20
9.1999999999999993
10
49.800000000000004
20
7.1999999999999975
10
40.200000000000003
20
7.1999999999999975
10
38.200000000000003
20
9.1999999999999993
10
38.200000000100012
20
17.699999999999999
42
-0.41421356217782856
10
38.500000000000007
20
17.999999999899998
10
40.399999999999999
20
18
42
0.41421356237309503
10
40.899999999999999
20
18.5
10
40.899999999999999
20
22.200000000000003
42
0.41421356237309503
10
40.600000000000009
20
22.5
10
4.3999999999999995
20
22.5
42
0.41421356237309503
10
4.0999999999999979
20
22.199999999999996
10
4.1000000000000014
20
18.5
42
0.41421356237309503
10
4.6000000000000041
20
18
10
6.5000000000000036
20
18.000000000000004
42
-0.41421356237308965
10
6.800000000000006
20
17.699999999999999
10
6.8000000000000016
20
9.1999999999999993
10
4.8000000000000043
20
7.1999999999999975
10
-4.7999999999999998
20
7.1999999999999975
10
-6.7999999999999989
20
9.1999999999999993
10
-6.7999999998999989
20
17.699999999999999
42
-0.41421356217783073
10
-6.4999999999999991
20
17.999999999899998
10
-4.5999999999999996
20
18
42
0.41421356237309503
10
-4.0999999999999988
20
18.5
10
-4.1000000000000014
20
22.200000000000003
42
0.41421356237309503
10
-4.3999999999999968
20
22.5
10
-20
20
22.5
42
0.41421356237309503
10
-22.5
20
20
10
-22.5
20
4.3999999999999968
42
0.41421356237309503
10
-22.199999999999996
20
4.0999999999999952
10
-18.5
20
4.1000000000000014
42
0.41421356237309503
10
-18
20
4.5999999999999996
10
-18.000000000000004
20
6.4999999999999991
42
-0.41421356237308965
10
-17.699999999999999
20
6.8000000000000016
10
-9.1999999999999993
20
6.7999999999999989
10
-7.1999999999999975
20
4.7999999999999998
10
-7.1999999999999975
20
-4.8000000000000043
10
-9.1999999999999993
20
-6.8000000000000016
10
-17.699999999999999
20
-6.7999999999000016
42
-0.41421356217783289
10
-17.999999999899998
20
-6.5000000000000036
10
-18
20
-4.6000000000000041
42
0.41421356237309503
10
-18.5
20
-4.1000000000000032
10
-22.200000000000003
20
-4.1000000000000014
42
0.41421356237309503
10
-22.5
20
-4.3999999999999995
10
-22.5
20
-20
42
0.41421356237309476
10
-20
20
-22.499999999999993
10
-4.3999999999999968
20
-22.5
42
0.41421356237309503
10
-4.0999999999999952
20
-22.200000000000006
10
-4.1000000000000014
20
-18.500000000000007
42
0.41421356237309503
10
-4.5999999999999996
20
-18.000000000000004
10
-6.4999999999999991
20
-18.000000000000007
42
-0.41421356237308965
10
-6.8000000000000016
20
-17.700000000000003
10
-6.7999999999999989
20
-9.1999999999999993
10
-4.7999999999999998
20
-7.200000000000002
10
4.8000000000000043
20
-7.200000000000002
10
6.8000000000000016
20
-9.1999999999999993
10
6.7999999999000016
20
-17.700000000000003
42
-0.41421356217783289
10
6.5000000000000036
20
-17.999999999900002
10
4.6000000000000041
20
-18
42
0.41421356237309503
10
4.1000000000000032
20
-18.500000000000007
10
4.1000000000000014
20
-22.200000000000006
42
0.41421356237309503
10
4.3999999999999995
20
-22.500000000000004
0
LWPOLYLINE
5
109
100
AcDbEntity
8
0
100
AcDbPolyline
90
32
70
1
43
0.0
10
-4.3840620372065082
20
3.3941125472067069
10
-3.3941125499718976
20
4.3840620399718997
42
-0.41421356927679315
10
-2.9698484850279989
20
4.3840620349717989
10
-2.0051339900000009
20
3.4193475500000003
42
0.32143714311245147
10
-1.660186999992588
20
3.3624810999854922
42
-0.23341882691327373
10
1.6601869880303273
20
3.362481096016948
42
0.32143713254278433
10
2.0051339807700774
20
3.4193475492297254
10
2.969848470028102
20
4.384062039971897
42
-0.4142135692767962
10
3.3941125349720029
20
4.3840620349717989
10
4.3840620299718989
20
3.394112549971898
42
-0.41421356927679009
10
4.3840620249718034
20
2.969848485028002
10
3.419347540000004
20
2.0051339900000009
42
0.32143714311245081
10
3.3624810899854394
20
1.6601869999925616
42
-0.23341882691326765
10
3.3624810860168957
20
-1.6601869880303031
42
0.32143713254278283
10
3.4193475392297303
20
-2.0051339807700783
10
4.3840620299718989
20
-2.969848470028102
42
-0.41421356927679231
10
4.3840620249718025
20
-3.3941125349720007
10
3.394112539971899
20
-4.3840620299719006
42
-0.41421356927678621
10
2.9698484750280048
20
-4.3840620249718052
10
2.0051339800000001
20
-3.419347540000004
42
0.32143714311244714
10
1.6601869899925781
20
-3.3624810899854634
42
-0.23341882691326751
10
-1.6601869980303097
20
-3.3624810860169241
42
0.32143713254278417
10
-2.0051339907700747
20
-3.4193475392297263
10
-2.9698484800280984
20
-4.3840620299719006
42
-0.41421356927678854
10
-3.394112544971994
20
-4.3840620249718034
10
-4.3840620399718997
20
-3.394112539971899
42
-0.41421356927678543
10
-4.3840620349718042
20
-2.9698484750280056
10
-3.4193475500000003
20
-2.0051339800000001
42
0.32143714311244653
10
-3.3624810999854624
20
-1.6601869899925814
42
-0.23341882691326798
10
-3.3624810960169249
20
1.6601869980303119
42
0.32143713254278233
10
-3.419347549229721
20
2.0051339907700738
10
-4.384062042206609
20
2.9698484777933887
42
-0.41421356927679304
0
LWPOLYLINE
5
110
100
AcDbEntity
8
0
100
AcDbPolyline
90
32
70
1
43
0.0
10
40.615937962793495
20
3.3941125472067069
10
41.605887450028114
20
4.3840620399719032
42
-0.41421356927679542
10
42.030151514972012
20
4.3840620349717891
10
42.994866009999996
20
3.4193475500000003
42
0.32143714311245913
10
43.339813000007425
20
3.362481099985493
42
-0.23341882691327409
10
46.660186988030347
20
3.3624810960169453
42
0.32143713254276779
10
47.005133980770076
20
3.419347549229721
10
47.969848470028097
20
4.3840620399719104
42
-0.41421356927678932
10
48.39411253497201
20
4.3840620349717891
10
49.384062029971901
20
3.3941125499719051
42
-0.4142135692767755
10
49.384062024971811
20
2.9698484850280007
10
48.419347540000004
20
2.0051339900000009
42
0.3214371431124628
10
48.362481089985451
20
1.6601869999925578
42
-0.23341882691326588
10
48.362481086016913
20
-1.6601869880302933
42
0.32143713254279949
10
48.41934753922974
20
-2.005133980770077
10
49.384062029971901
20
-2.9698484700280945
42
-0.41421356927677699
10
49.384062024971811
20
-3.3941125349720016
10
48.3941125399719
20
-4.3840620299719033
42
-0.4142135692767801
10
47.969848475028002
20
-4.3840620249718008
10
47.005133979999997
20
-3.419347540000004
42
0.32143714311244409
10
46.660186989992589
20
-3.3624810899854625
42
-0.2334188269132666
10
43.339813001969702
20
-3.3624810860169303
42
0.3214371325428006
10
42.994866009229924
20
-3.419347539229733
10
42.030151519971909
20
-4.3840620299718998
42
-0.41421356927679964
10
41.605887455028004
20
-4.3840620249718025
10
40.615937960028106
20
-3.3941125399718968
42
-0.41421356927675324
10
40.615937965028195
20
-2.9698484750280052
10
41.580652450000002
20
-2.0051339800000001
42
0.32143714311245353
10
41.637518900014534
20
-1.6601869899925803
42
-0.23341882691326554
10
41.637518903983079
20
1.6601869980303126
42
0.32143713254278822
10
41.580652450770287
20
2.0051339907700756
10
40.615937957793392
20
2.9698484777933896
42
-0.41421356927677466
0
LWPOLYLINE
5
111
100
AcDbEntity
8
0
100
AcDbPolyline
90
8
70
1
43
0.0
10
8.9999999999999893
20
-18.500000000000007
42
0.41421356237309631
10
10
20
-19.500000000000014
10
35
20
-19.500000000000014
42
0.41421356237309698
10
36.000000000000007
20
-18.500000000000007
10
36
20
18.5
42
0.41421356237309243
10
35
20
19.5
10
9.9999999999999982
20
19.5
42
0.41421356237309764
10
9.0000000000000036
20
18.5
0
CIRCLE
5
112
100
AcDbEntity
8
0
100
AcDbCircle
10
-14.649999999999999
20
14.649999999999999
30
0
40
5.8499999999999996
210
0
220
0
230
1
0
CIRCLE
5
113
100
AcDbEntity
8
0
100
AcDbCircle
10
-14.649999999999999
20
-14.649999999999999
30
0
40
5.8499999999999996
210
0
220
0
230
1
0
CIRCLE
5
114
100
AcDbEntity
8
0
100
AcDbCircle
10
59.65000000000002
20
14.649999999999999
30
0
40
5.8499999999999996
210
0
220
0
230
1
0
CIRCLE
5
115
100
AcDbEntity
8
0
100
AcDbCircle
10
59.65000000000002
20
-14.649999999999999
30
0
40
5.8499999999999996
210
0
220
0
230
1
0
ENDSEC
0
SECTION
2
OBJECTS
0
DICTIONARY
5
C
100
AcDbDictionary
3
ACAD_GROUP
350
D
3
ACAD_MLINESTYLE
350
17
0
DICTIONARY
5
D
100
AcDbDictionary
0
DICTIONARY
5
1A
330
C
100
AcDbDictionary
0
DICTIONARY
5
17
100
AcDbDictionary
0
ENDSEC
0
EOF
