0
SECTION
2
HEADER
9
$INSUNITS
70
4
9
$ACADVER
1
AC1014
9
$HANDSEED
5
FFFF
0
ENDSEC
0
SECTION
2
TABLES
0
TABLE
2
VPORT
5
8
100
AcDbSymbolTable
0
ENDTAB
0
TABLE
2
LTYPE
5
5
100
AcDbSymbolTable
0
LTYPE
5
14
100
AcDbSymbolTableRecord
100
AcDbLinetypeTableRecord
2
BYBLOCK
70
0
0
LTYPE
5
15
100
AcDbSymbolTableRecord
100
AcDbLinetypeTableRecord
2
BYLAYER
70
0
0
LTYPE
5
16
100
AcDbSymbolTableRecord
100
AcDbLinetypeTableRecord
2
DASHED
70
0
3
Dashed __ __ __ __ __ __ __ __ __ __ __ __ __ _
72
65
73
2
40
0.75
49
0.5
74
0
49
-0.25
74
0
0
ENDTAB
0
TABLE
2
LAYER
5
2
100
AcDbSymbolTable
70
3
0
LAYER
5
50
100
AcDbSymbolTableRecord
100
AcDbLayerTableRecord
2
1
70
0
62
7
6
DASHED
0
LAYER
5
51
100
AcDbSymbolTableRecord
100
AcDbLayerTableRecord
2
0
70
0
62
7
6
CONTINUOUS
0
ENDTAB
0
TABLE
2
STYLE
5
3
100
AcDbSymbolTable
70
1
0
STYLE
5
11
100
AcDbSymbolTableRecord
100
AcDbTextStyleTableRecord
2
STANDARD
70
0
0
ENDTAB
0
TABLE
2
VIEW
5
6
100
AcDbSymbolTable
70
0
0
ENDTAB
0
TABLE
2
UCS
5
7
100
AcDbSymbolTable
70
0
0
ENDTAB
0
TABLE
2
APPID
5
9
100
AcDbSymbolTable
70
2
0
APPID
5
12
100
AcDbSymbolTableRecord
100
AcDbRegAppTableRecord
2
ACAD
70
0
0
ENDTAB
0
TABLE
2
DIMSTYLE
5
A
100
AcDbSymbolTable
70
1
0
ENDTAB
0
TABLE
2
BLOCK_RECORD
5
1
100
AcDbSymbolTable
70
1
0
BLOCK_RECORD
5
1F
100
AcDbSymbolTableRecord
100
AcDbBlockTableRecord
2
*MODEL_SPACE
0
BLOCK_RECORD
5
1B
100
AcDbSymbolTableRecord
100
AcDbBlockTableRecord
2
*PAPER_SPACE
0
ENDTAB
0
ENDSEC
0
SECTION
2
BLOCKS
0
BLOCK
5
20
100
AcDbEntity
100
AcDbBlockBegin
2
*MODEL_SPACE
0
ENDBLK
5
21
100
AcDbEntity
100
AcDbBlockEnd
0
BLOCK
5
1C
100
AcDbEntity
100
AcDbBlockBegin
2
*PAPER_SPACE
0
ENDBLK
5
1D
100
AcDbEntity
100
AcDbBlockEnd
0
ENDSEC
0
SECTION
2
ENTITIES
0
LWPOLYLINE
5
100
100
AcDbEntity
8
0
100
AcDbPolyline
90
184
70
1
43
0.0
10
74.52867966019781
20
11.255887432551166
42
0.19891236737965898
10
73.650000005231874
20
9.1345670925511495
10
73.650000001875796
20
6.8654328825511515
42
0.19891236737968504
10
74.52867965831679
20
4.7441125389917094
10
76.778984500293774
20
2.4938077009691684
42
0.66817863791929599
10
78.1999999943978
20
3.0824115909691718
10
78.199999998328778
20
5.1999999909691708
42
-0.41421356237309503
10
78.499999998328775
20
5.4999999909691732
10
79.199999998328806
20
5.499999985784001
42
-0.41421355778015329
10
79.999999999999829
20
4.7000000000000108
10
79.999999999999801
20
1.00000000000001
42
-0.41421356237309509
10
78.999999999999801
20
8.8817841970012523e-15
10
-78.999999999999801
20
1.3322676295501878e-14
42
-0.41421356237309503
10
-79.999999999999787
20
0.99999999999999201
10
-79.999999999999801
20
4.6999999999999931
42
-0.41421356237309503
10
-79.199999999999804
20
5.4999999999999938
10
-78.499999999999801
20
5.5000000000000027
42
-0.41421356237309503
10
-78.19999999999979
20
5.1999999999999913
10
-78.199999999999818
20
3.0824115999999924
42
0.6681786379193031
10
-76.7789844958304
20
2.4938077058305819
10
-74.528679658146743
20
4.7441125481469149
42
0.19891236737965656
10
-73.650000003180793
20
6.8654328881469118
10
-73.649999999824743
20
9.1345670981469116
42
0.19891236737965873
10
-74.528679656265098
20
11.255887441706562
10
-76.778984498242679
20
13.50619227972896
42
0.66817863791930032
10
-78.19999999234625
20
12.917588389728962
10
-78.199999996277199
20
10.799999989728963
42
-0.41421356237309503
10
-78.499999996277197
20
10.499999989728961
10
-79.199999996277199
20
10.499999994914146
42
-0.41421356237309503
10
-79.999999996277211
20
11.299999994914165
10
-79.999999996277197
20
14.999999994914162
42
-0.41421356237309503
10
-78.999999996277211
20
15.999999994914162
10
-65.499999996277225
20
15.999999994914184
42
-0.41421356237309503
10
-63.999999996277204
20
14.499999994914162
10
-63.999999996277225
20
12.499999994914162
42
-0.41421356237309503
10
-64.999999996277211
20
11.499999994914161
10
-66.499999996277211
20
11.499999994914155
42
-0.41421356237309503
10
-66.999999996277211
20
11.999999994914162
10
-66.999999996277225
20
13.499999994914162
42
0.41421356237309503
10
-67.499999996277211
20
13.999999994914161
42
0.40904958288109478
10
-69.999610026277367
20
11.544155354926822
42
0.1956684318376104
10
-68.535533907030015
20
8.071067794161312
10
-65.678931906277199
20
5.2144657949141502
42
0.19891236734472328
10
-62.143397996949332
20
3.7499996989059614
10
-57.856601996949308
20
3.7499997027406264
42
0.19891236737965989
10
-54.321068091016507
20
5.2144657968078878
10
-51.464466088756907
20
8.071067794548263
42
0.19566843170062337
10
-50.000389962884206
20
11.544155354777066
42
0.40904958285879023
10
-52.49999999288061
20
13.999999994151967
42
0.41421356237309503
10
-52.999999992880618
20
13.499999994151965
10
-52.999999992880589
20
11.999999994151963
42
-0.41421356237309503
10
-53.499999992880589
20
11.499999994151967
10
-54.99999999288061
20
11.499999994151986
42
-0.41421356237309503
10
-55.999999992880589
20
12.499999994151965
10
-55.999999992880603
20
14.499999994151967
42
-0.41421356237309503
10
-54.499999992880603
20
15.999999994151965
10
-43.299999992880629
20
15.999999994151985
42
-0.41421356237309503
10
-42.49999999288061
20
15.199999994151966
10
-42.499999992880582
20
14.499999994151969
42
-0.41421356237309503
10
-42.799999992880586
20
14.199999994151966
10
-44.917588392880603
20
14.199999994151968
42
0.66817863791929211
10
-45.506192287050027
20
12.778984489982566
10
-43.25588744473373
20
10.528679652298955
42
0.19891236737965831
10
-41.134567104733719
20
9.6499999973330155
10
-38.865432894733729
20
9.6499999939769765
42
0.19891236737965204
10
-36.744112551174126
20
10.528679650417265
10
-34.493807713151618
20
12.778984492394869
42
0.66817863791929677
10
-35.08241160315162
20
14.199999986498465
10
-37.200000003151601
20
14.199999990429355
42
-0.41421356237309503
10
-37.500000003151612
20
14.499999990429366
10
-37.499999997966412
20
15.199999990429367
42
-0.41421356237309503
10
-36.699999997966408
20
15.999999990429368
10
-25.499999997966398
20
15.999999990429355
42
-0.41421356237309503
10
-23.999999997966412
20
14.499999990429369
10
-23.99999999796642
20
12.499999990429369
42
-0.41421356237309503
10
-24.999999997966427
20
11.499999990429366
10
-26.499999997966412
20
11.499999990429362
42
-0.41421356237309503
10
-26.99999999796642
20
11.999999990429369
10
-26.999999997966423
20
13.499999990429368
42
0.41421356237309503
10
-27.499999997966427
20
13.999999990429366
42
0.40904958288256565
10
-29.99961002838775
20
11.544155350436863
42
0.19566843183761393
10
-28.535533909140405
20
8.0710677896712788
10
-25.678931908638496
20
5.2144657901731861
42
0.19891236737965948
10
-22.143397998638505
20
3.7499996944211977
10
-17.856601998638514
20
3.7499996982558583
42
0.19891236737965592
10
-14.321068092705822
20
5.2144657923231197
10
-11.4644660904462
20
8.071067790063486
42
0.19566843167982623
10
-10.000389964566406
20
11.544155349891572
42
0.40904958290557203
10
-12.49999999456989
20
13.99999998966727
42
0.41421356237309503
10
-12.999999994569897
20
13.499999989667268
10
-12.999999994569901
20
11.999999989667272
42
-0.41421356237309503
10
-13.499999994569905
20
11.49999998966727
10
-14.99999999456989
20
11.499999989667256
42
-0.41421356237309503
10
-15.999999994569905
20
12.49999998966727
10
-15.999999994569919
20
14.49999998966727
42
-0.41421356237309503
10
-14.499999994569919
20
15.999999989667268
10
-3.2999999945698022
20
15.999999989667181
42
-0.41421356237309503
10
-2.4999999945698903
20
15.199999989667269
10
-2.4999999945698304
20
14.499999989667272
42
-0.41421356237309503
10
-2.7999999945698306
20
14.199999989667271
10
-4.9175883945699184
20
14.199999989667273
42
0.6681786379193031
10
-5.5061922887393067
20
12.778984485497871
10
-3.2558874464229088
20
10.528679647814165
42
0.19891236737965864
10
-1.1345671064228924
20
9.6499999928482705
10
1.1345671035770797
20
9.6499999894921817
42
0.19891236737965803
10
3.2558874471366828
20
10.528679645932568
10
5.506192285159182
20
12.778984487910181
42
0.66817863791929277
10
4.9175883951591715
20
14.199999982013672
10
2.7999999951591725
20
14.199999985944679
42
-0.41421356237309503
10
2.4999999951591789
20
14.499999985944672
10
2.5000000003442779
20
15.199999985944672
42
-0.41421356237309503
10
3.3000000003442764
20
15.999999985944671
10
14.500000000344286
20
15.99999998594466
42
-0.41421356237309503
10
16.000000000344272
20
14.499999985944674
10
16.000000000344382
20
12.499999985944672
42
-0.41421356237309503
10
15.000000000344382
20
11.499999985944672
10
13.500000000344272
20
11.499999985944683
42
-0.41421356237309503
10
13.000000000344283
20
11.999999985944672
10
13.000000000344382
20
13.499999985944672
42
0.41421356237309503
10
12.500000000344382
20
13.999999985944672
42
0.40904958288257787
10
10.000389969923038
20
11.544155345952067
42
0.19566843183761204
10
11.464466089170386
20
8.071067785186532
10
14.321068089672286
20
5.2144657856884447
42
0.19891236737965995
10
17.856601999672286
20
3.7499996899364518
10
22.143397999671812
20
3.7499996937711155
42
0.19891236737967152
10
25.678931905604792
20
5.2144657878385159
10
28.535533907864771
20
8.0710677855788564
42
0.19566843167982798
10
29.999610033744275
20
11.544155345406965
42
0.40904958290556137
10
27.500000003740794
20
13.999999985182576
42
0.41421356237309631
10
27.000000003740787
20
13.499999985182573
10
27.000000003740819
20
11.999999985182574
42
-0.41421356237309503
10
26.500000003740816
20
11.499999985182573
10
25.000000003740794
20
11.499999985182594
42
-0.41421356237309503
10
24.000000003740816
20
12.499999985182573
10
24.000000003740798
20
14.499999985182573
42
-0.41421356237309503
10
25.500000003740801
20
15.999999985182573
10
36.700000003740776
20
15.999999985182596
42
-0.41421356237309503
10
37.500000003740794
20
15.199999985182577
10
37.50000000374078
20
14.499999985182574
42
-0.41421356237309503
10
37.200000003740783
20
14.199999985182576
10
35.082411603740802
20
14.199999985182576
42
0.66817863791948373
10
34.493807709571804
20
12.778984481012976
10
36.744112551887781
20
10.528679643329365
42
0.19891236737965801
10
38.865432891887792
20
9.6499999883634757
10
41.134567101887782
20
9.649999985007387
42
0.19891236737969445
10
43.255887445447776
20
10.528679641447978
10
45.50619228346978
20
12.778984483425473
42
0.66817863791930165
10
44.917588393469785
20
14.199999977528977
10
42.799999993469804
20
14.199999981459966
42
-0.41421356237309503
10
42.499999993469793
20
14.499999981459977
10
42.499999998654786
20
15.199999981459975
42
-0.41421356237309503
10
43.299999998654783
20
15.999999981459975
10
54.499999998654793
20
15.99999998146
42
-0.41421356237309503
10
55.999999998654815
20
14.499999981459979
10
55.9999999986548
20
12.499999981459979
42
-0.41421356237309503
10
54.9999999986548
20
11.499999981459981
10
53.499999998654815
20
11.499999981459972
42
-0.41421356237309503
10
52.999999998654808
20
11.999999981459979
10
52.9999999986548
20
13.499999981459979
42
0.41421356237309503
10
52.4999999986548
20
13.999999981459981
42
0.40904958288257748
10
50.000389968233648
20
11.544155341467375
42
0.1956684318376001
10
51.464466087480787
20
8.0710677807019504
10
54.321068087982795
20
5.2144657812038382
42
0.19891236737965987
10
57.856601997982793
20
3.749999685451848
10
62.143397997982781
20
3.7499996892865073
42
0.19891236737967305
10
65.678931903915796
20
5.2144657833539121
10
68.535533906174777
20
8.0710677810942588
42
0.19566843167982975
10
69.999610032055287
20
11.544155340922389
42
0.40904958290555932
10
67.500000002051792
20
13.999999980697982
42
0.41421356237309503
10
67.000000002051792
20
13.49999998069798
10
67.000000002051792
20
11.999999980697979
42
-0.41421356237309503
10
66.500000002051792
20
11.499999980697977
10
65.000000002051792
20
11.499999980697966
42
-0.41421356237309503
10
64.000000002051792
20
12.49999998069798
10
64.000000002051806
20
14.499999980697979
42
-0.41421356237309503
10
65.500000002051806
20
15.99999998069798
10
79.000000002051792
20
15.999999980697995
42
-0.41421356237309503
10
80.000000002051792
20
14.99999998069798
10
80.000000002051777
20
11.299999980697981
42
-0.41421356237309503
10
79.20000000205178
20
10.49999998069798
10
78.50000000205182
20
10.499999980697968
42
-0.41421356237309503
10
78.200000002051809
20
10.799999980697979
10
78.200000002051809
20
12.91758838069798
42
0.66817863791941967
10
76.778984497881808
20
13.50619227486758
0
LWPOLYLINE
5
101
100
AcDbEntity
8
0
100
AcDbPolyline
90
48
70
1
43
0.0
10
46.058577269282814
20
4.941420551290876
10
47.492892269678677
20
3.5071065516860593
42
-0.66817863791911714
10
46.785785488491776
20
1.7999997704998689
10
43.767326488491811
20
1.799999767265178
42
-0.33945425781223432
10
42.801400658491808
20
2.5411807221172324
10
42.204444666122782
20
4.7690517241620567
42
0.63971732995976327
10
41.646886104676796
20
4.8652034410948222
42
-0.52535711487278358
10
38.35311277467671
20
4.8652034410949438
42
0.6397173264712861
10
37.795554219699817
20
4.7690517176657812
10
37.1985982165751
20
2.541180718503131
42
-0.33945425781226768
10
36.232672391261787
20
1.7999997672472086
10
33.21421239126181
20
1.799999767806546
42
-0.66817863791929377
10
32.5071056112618
20
3.5071065461285067
10
33.941419608753804
20
4.9414205486368656
42
0.19891236738008647
10
33.999998252516789
20
5.0828419048743356
10
33.999998252872778
20
5.8091089048743338
42
0.38779457992369826
10
33.818180071803823
20
6.0082807448743525
42
-0.44904214989840474
10
32.043299521602783
20
8.4139194526703207
42
0.25370880173014831
10
31.989051001500787
20
8.59673284269196
10
31.525123998722805
20
9.0606588399141881
42
-0.41421355201772436
10
31.525124003722809
20
9.3435015549141696
10
32.656495000389796
20
10.474872558247466
42
-0.4142135520177555
10
32.939337715389797
20
10.474872553247486
10
33.403263716717788
20
10.010945554575379
42
0.25370881389107874
10
33.586077103938401
20
9.956697036305787
42
-0.54232646877394908
10
35.956696164725813
20
7.5860779725836771
42
0.25370880173016586
10
36.010944684827777
20
7.4032645825620325
10
36.355632686918788
20
7.0585775846523457
42
0.19891236737922957
10
36.497054043155792
20
6.9999989408898138
10
38.156089043155781
20
6.9999989412670161
42
0.25370880311212812
10
38.32371923557627
20
7.0909066561461067
42
-0.5423261454812327
10
41.676278746130819
20
7.0909080354614247
42
0.25370880311182459
10
41.843906826446791
20
6.9999989456672376
10
43.502941826446779
20
6.9999989421197384
42
0.19891236737967025
10
43.644363186446782
20
7.0585775874409995
10
43.989051185118804
20
7.4032645887688187
42
0.25370881389166239
10
44.043299707110791
20
7.5860779767771191
42
-0.54232614723068728
10
46.413918767110758
20
9.9566970367771237
42
0.25370880173062593
10
46.596732157132799
20
10.010945556879275
10
47.060659154354802
20
10.474872559657083
42
-0.41421355201775084
10
47.343501869354796
20
10.474872554657072
10
48.474872872132366
20
9.343501557434374
42
-0.41421354010881839
10
48.474872871753369
20
9.0606588481845147
10
48.010945873081816
20
8.5967328468562343
42
0.25370881389164474
10
47.956696219190427
20
8.4139192194053294
42
-0.44904223152498968
10
46.181816807606815
20
6.008280750226568
42
0.38779457992350658
10
45.999998627509797
20
5.8091089112908856
10
45.99999862396178
20
5.0828419112908874
42
0.19891236737969883
0
LWPOLYLINE
5
102
100
AcDbEntity
8
0
100
AcDbPolyline
90
48
70
1
43
0.0
10
-1.6468872253235851
20
4.8652034410948977
42
0.63971732647106538
10
-2.2044457803000048
20
4.7690517176658522
10
-2.8014017834245371
20
2.5411807185030644
42
-0.3394542578122357
10
-3.7673276087378227
20
1.799999767247253
10
-6.7857876087377988
20
1.7999997678065902
42
-0.66817863791929855
10
-7.4928943887378008
20
3.5071065461285604
10
-6.0585803912463021
20
4.94142054863703
42
0.19891236737963761
10
-6.0000017474836351
20
5.0828419048743312
10
-6.0000017471273281
20
5.8091089048743294
42
0.38779457992369826
10
-6.1818199281961128
20
6.0082807448743312
42
-0.44904214989843655
10
-7.9567004783973143
20
8.4139194526703509
42
0.25370880173007893
10
-8.0109489984993942
20
8.5967328426919511
10
-8.4748760012772166
20
9.060658839914165
42
-0.41421355201778415
10
-8.4748759962772162
20
9.3435015549141767
10
-7.3435049996105217
20
10.474872558247458
42
-0.41421355201776811
10
-7.0606622846105163
20
10.474872553247476
10
-6.5967362832827092
20
10.01094555457537
42
0.25370881389138339
10
-6.4139228960618491
20
9.9566970363055525
42
-0.54232646877400126
10
-4.0433038352745152
20
7.5860779725835794
42
0.25370880173006166
10
-3.9890553151723274
20
7.4032645825619703
10
-3.6443673130819221
20
7.0585775846523502
42
0.19891236737966206
10
-3.5029459568445986
20
6.9999989408896663
10
-1.8439109568446099
20
6.9999989412668828
42
0.25370880311203842
10
-1.676282876844627
20
7.0909080308896808
42
-0.54232614560193082
10
1.6762787461305593
20
7.0909080354613536
42
0.25370880311201022
10
1.843906826446684
20
6.9999989456670999
10
3.5029418264467793
20
6.9999989421196007
42
0.19891236737956672
10
3.6443631864467267
20
7.0585775874407952
10
3.9890511851188926
20
7.4032645887687032
42
0.25370881389137073
10
4.0432997071106795
20
7.5860779767769104
42
-0.54232614723069383
10
6.4139187671106868
20
9.9566970367769123
42
0.25370880173005345
10
6.5967321571322843
20
10.010945556879065
10
7.0606591543544734
20
10.474872559656866
42
-0.41421355201775895
10
7.3435018693544754
20
10.474872554656866
10
8.474872872132245
20
9.3435015574345766
42
-0.41421354011018419
10
8.4748728717531741
20
9.0606588481840618
10
8.0109458730810701
20
8.596732846856181
42
0.25370881389137862
10
7.9566962191899844
20
8.4139192194053685
42
-0.44904223152509665
10
6.1818168076062818
20
6.0082807502266009
42
0.38779457992363464
10
5.999998627509175
20
5.8091089112909122
10
5.9999986239616732
20
5.082841911290914
42
0.19891236737975748
10
6.0585772692829423
20
4.94142055129086
10
7.492892269678487
20
3.5071065516863618
42
-0.66817863791926935
10
6.7857854884918822
20
1.7999997704998734
10
3.7673264884918822
20
1.7999997672651822
42
-0.33945425781223187
10
2.8014006584918789
20
2.541180722117228
10
2.2044446661228889
20
4.7690517241619723
42
0.63971732996007435
10
1.6468840656886718
20
4.8652048460682851
42
-0.52535711475589542
0
LWPOLYLINE
5
103
100
AcDbEntity
8
0
100
AcDbPolyline
90
48
70
1
43
0.0
10
-38.323721253869444
20
7.090908035461343
42
0.54232614560193293
10
-41.67628287684461
20
7.0909080308896382
42
-0.25370880311201666
10
-41.84391095684461
20
6.9999989412668562
10
-43.502945956844599
20
6.9999989408896717
42
-0.19891236737963758
10
-43.644367313081887
20
7.0585775846523457
10
-43.989055315172358
20
7.4032645825619348
42
-0.2537088017300807
10
-44.043303835274514
20
7.5860779725835847
42
0.5423264687740037
10
-46.413922895274531
20
9.9566970325835804
42
-0.25370881389134992
10
-46.596736283282709
20
10.010945554575365
10
-47.060662284610508
20
10.474872553247463
42
0.41421355201777615
10
-47.343504999610531
20
10.474872558247466
10
-48.474875996277227
20
9.343501554914166
42
0.41421355201776694
10
-48.47487600127721
20
9.0606588399141685
10
-48.010948998499444
20
8.5967328426918961
42
-0.2537088017300797
10
-47.956700478397316
20
8.4139194526703438
42
0.4490421498984401
10
-46.181819928196091
20
6.0082807448743303
42
-0.3877945799237239
10
-46.000001747127328
20
5.8091089048743161
10
-46.000001747483608
20
5.0828419048743267
42
-0.19891236737964577
10
-46.058580391246302
20
4.9414205486370166
10
-47.492894388737824
20
3.5071065461285551
42
0.66817863791930276
10
-46.785787608737834
20
1.7999997678065771
10
-43.767327608737787
20
1.7999997672472352
42
0.33945425781223548
10
-42.801401783424495
20
2.5411807185030444
10
-42.204445780299963
20
4.7690517176658274
42
-0.63971732647105672
10
-41.646887225323624
20
4.8652034410948639
42
0.52535711475590052
10
-38.353113895323631
20
4.8652034410948968
42
-0.63971732996006103
10
-37.795555333877111
20
4.7690517241619679
10
-37.198599341508121
20
2.541180722117228
42
0.33945425781223315
10
-36.232673511508118
20
1.7999997672651791
10
-33.214214511508118
20
1.7999997704998689
42
0.66817863791930909
10
-32.507107730321607
20
3.5071065516864186
10
-33.941422730717086
20
4.9414205512909142
42
-0.19891236737966816
10
-34.000001376038327
20
5.0828419112908962
10
-34.000001372490807
20
5.8091089112908989
42
-0.38779457992377392
10
-33.818183192393604
20
6.0082807502265831
42
0.44904223152508693
10
-32.043302648910725
20
8.4139194588479498
42
-0.25370881389137667
10
-31.98905412691893
20
8.5967328468561597
10
-31.525127128246851
20
9.0606588481840404
42
0.41421354011022443
10
-31.525127127867734
20
9.343501557434589
10
-32.656498130645524
20
10.474872554656764
42
0.41421355201764049
10
-32.939340845645511
20
10.474872559656866
10
-33.403267842867685
20
10.010945556879047
42
-0.25370880173004395
10
-33.586081232889299
20
9.9566970367768874
42
0.5423261472306905
10
-35.95670029288928
20
7.5860779767768882
42
-0.25370881389136968
10
-36.01094881488109
20
7.4032645887686765
10
-36.355636813553318
20
7.0585775874408316
42
-0.19891236737966619
10
-36.497058173553327
20
6.9999989421195785
10
-38.156093173553316
20
6.999998945667115
42
-0.25370880311202398
0
LWPOLYLINE
5
104
100
AcDbEntity
8
0
100
AcDbPolyline
90
184
70
1
43
0.0
10
74.52867966019781
20
11.255887432551166
42
0.19891236737965873
10
73.650000005231874
20
9.1345670925511531
10
73.650000001875796
20
6.8654328825511515
42
0.19891236737968504
10
74.52867965831679
20
4.7441125389917094
10
76.778984500293774
20
2.4938077009691675
42
0.66817863791929577
10
78.1999999943978
20
3.0824115909691718
10
78.199999998328778
20
5.1999999909691708
42
-0.41421356237309503
10
78.499999998328775
20
5.4999999909691732
10
79.199999998328806
20
5.4999999857839938
42
-0.4142135577801509
10
79.999999999999829
20
4.7000000000000108
10
79.999999999999801
20
1.0000000000000102
42
-0.41421356237309548
10
78.999999999999801
20
8.8817841970012523e-15
10
-78.999999999999801
20
1.1934897514720433e-14
42
-0.41421356237309548
10
-79.999999999999787
20
0.99999999999999201
10
-79.999999999999801
20
4.6999999999999931
42
-0.41421356237309609
10
-79.199999999999804
20
5.4999999999999938
10
-78.499999999999801
20
5.5000000000000027
42
-0.41421356237309503
10
-78.19999999999979
20
5.1999999999999913
10
-78.199999999999818
20
3.0824115999999924
42
0.6681786379193031
10
-76.7789844958304
20
2.4938077058305819
10
-74.528679658146743
20
4.7441125481469157
42
0.19891236737965654
10
-73.650000003180793
20
6.8654328881469118
10
-73.649999999824743
20
9.1345670981469116
42
0.19891236737965873
10
-74.528679656265098
20
11.255887441706562
10
-76.778984498242679
20
13.506192279728959
42
0.66817863791930077
10
-78.19999999234625
20
12.917588389728962
10
-78.199999996277199
20
10.799999989728963
42
-0.41421356237309725
10
-78.499999996277197
20
10.499999989728961
10
-79.199999996277199
20
10.499999994914152
42
-0.41421356237309992
10
-79.999999996277211
20
11.299999994914165
10
-79.999999996277197
20
14.999999994914162
42
-0.41421356237309503
10
-78.999999996277211
20
15.999999994914162
10
-65.499999996277225
20
15.99999999491418
42
-0.4142135623730942
10
-63.999999996277204
20
14.499999994914162
10
-63.999999996277225
20
12.499999994914162
42
-0.41421356237309503
10
-64.999999996277211
20
11.499999994914161
10
-66.499999996277211
20
11.499999994914154
42
-0.41421356237309631
10
-66.999999996277211
20
11.999999994914162
10
-66.999999996277225
20
13.499999994914162
42
0.41421356237309503
10
-67.499999996277211
20
13.999999994914161
42
0.40904958288109478
10
-69.999610026277367
20
11.544155354926822
42
0.1956684318376104
10
-68.535533907030015
20
8.071067794161312
10
-65.678931906277199
20
5.2144657949141511
42
0.19891236734472331
10
-62.143397996949332
20
3.7499996989059614
10
-57.856601996949308
20
3.7499997027406264
42
0.19891236737965989
10
-54.321068091016507
20
5.2144657968078878
10
-51.464466088756907
20
8.0710677945482594
42
0.19566843170062354
10
-50.000389962884206
20
11.544155354777066
42
0.40904958285879023
10
-52.49999999288061
20
13.999999994151967
42
0.41421356237309503
10
-52.999999992880618
20
13.499999994151965
10
-52.999999992880589
20
11.999999994151963
42
-0.41421356237309631
10
-53.499999992880589
20
11.499999994151967
10
-54.99999999288061
20
11.499999994151986
42
-0.41421356237309503
10
-55.999999992880589
20
12.499999994151965
10
-55.999999992880603
20
14.499999994151967
42
-0.41421356237309159
10
-54.499999992880603
20
15.999999994151965
10
-43.299999992880629
20
15.99999999415199
42
-0.41421356237309664
10
-42.49999999288061
20
15.199999994151966
10
-42.499999992880582
20
14.499999994151969
42
-0.41421356237309725
10
-42.799999992880586
20
14.199999994151966
10
-44.917588392880603
20
14.199999994151968
42
0.66817863791929211
10
-45.506192287050027
20
12.778984489982566
10
-43.25588744473373
20
10.528679652298958
42
0.19891236737965839
10
-41.134567104733719
20
9.6499999973330155
10
-38.865432894733729
20
9.6499999939769765
42
0.19891236737965204
10
-36.744112551174126
20
10.528679650417265
10
-34.493807713151618
20
12.778984492394869
42
0.66817863791929677
10
-35.08241160315162
20
14.199999986498465
10
-37.200000003151601
20
14.199999990429355
42
-0.41421356237309503
10
-37.500000003151612
20
14.499999990429366
10
-37.499999997966412
20
15.199999990429367
42
-0.41421356237309426
10
-36.699999997966408
20
15.999999990429368
10
-25.499999997966398
20
15.999999990429355
42
-0.41421356237309681
10
-23.999999997966412
20
14.499999990429369
10
-23.99999999796642
20
12.499999990429369
42
-0.41421356237309503
10
-24.999999997966427
20
11.499999990429366
10
-26.499999997966412
20
11.499999990429364
42
-0.41421356237308854
10
-26.99999999796642
20
11.999999990429369
10
-26.999999997966423
20
13.499999990429368
42
0.41421356237309503
10
-27.499999997966427
20
13.999999990429366
42
0.40904958288256565
10
-29.99961002838775
20
11.544155350436863
42
0.19566843183761393
10
-28.535533909140405
20
8.0710677896712788
10
-25.678931908638496
20
5.2144657901731861
42
0.19891236737965948
10
-22.143397998638505
20
3.7499996944211977
10
-17.856601998638514
20
3.7499996982558583
42
0.19891236737965592
10
-14.321068092705822
20
5.2144657923231197
10
-11.4644660904462
20
8.071067790063486
42
0.19566843167982623
10
-10.000389964566406
20
11.544155349891572
42
0.40904958290557203
10
-12.49999999456989
20
13.99999998966727
42
0.41421356237309503
10
-12.999999994569897
20
13.499999989667268
10
-12.999999994569901
20
11.999999989667272
42
-0.41421356237309764
10
-13.499999994569905
20
11.49999998966727
10
-14.99999999456989
20
11.499999989667256
42
-0.4142135623730937
10
-15.999999994569905
20
12.49999998966727
10
-15.999999994569913
20
14.49999998966727
42
-0.41421356237309503
10
-14.499999994569919
20
15.999999989667268
10
-3.2999999945698022
20
15.999999989667181
42
-0.41421356237309481
10
-2.4999999945698903
20
15.199999989667269
10
-2.4999999945698308
20
14.499999989667272
42
-0.41421356237309886
10
-2.7999999945698306
20
14.199999989667271
10
-4.9175883945699184
20
14.199999989667273
42
0.6681786379193031
10
-5.5061922887393067
20
12.778984485497871
10
-3.2558874464229093
20
10.528679647814165
42
0.1989123673796587
10
-1.1345671064228924
20
9.6499999928482705
10
1.134567103577079
20
9.6499999894921817
42
0.19891236737965809
10
3.2558874471366828
20
10.528679645932568
10
5.506192285159182
20
12.778984487910181
42
0.66817863791929277
10
4.9175883951591715
20
14.199999982013672
10
2.7999999951591725
20
14.199999985944679
42
-0.41421356237309825
10
2.4999999951591789
20
14.499999985944672
10
2.5000000003442762
20
15.199999985944672
42
-0.4142135623730957
10
3.3000000003442764
20
15.999999985944671
10
14.500000000344286
20
15.999999985944664
42
-0.41421356237309503
10
16.000000000344272
20
14.499999985944674
10
16.000000000344379
20
12.499999985944672
42
-0.4142135623730957
10
15.000000000344382
20
11.499999985944672
10
13.500000000344272
20
11.499999985944683
42
-0.41421356237309764
10
13.000000000344283
20
11.999999985944672
10
13.000000000344382
20
13.499999985944672
42
0.41421356237309503
10
12.500000000344382
20
13.999999985944672
42
0.40904958288257787
10
10.000389969923038
20
11.544155345952067
42
0.19566843183761204
10
11.464466089170386
20
8.071067785186532
10
14.321068089672286
20
5.2144657856884464
42
0.19891236737965995
10
17.856601999672286
20
3.7499996899364518
10
22.143397999671812
20
3.7499996937711155
42
0.19891236737967152
10
25.678931905604792
20
5.2144657878385159
10
28.535533907864771
20
8.0710677855788564
42
0.19566843167982798
10
29.999610033744275
20
11.544155345406965
42
0.40904958290556137
10
27.500000003740794
20
13.999999985182576
42
0.41421356237309631
10
27.000000003740787
20
13.499999985182573
10
27.000000003740823
20
11.999999985182574
42
-0.41421356237308854
10
26.500000003740816
20
11.499999985182573
10
25.000000003740794
20
11.499999985182594
42
-0.41421356237309243
10
24.000000003740816
20
12.499999985182573
10
24.000000003740809
20
14.499999985182573
42
-0.41421356237309592
10
25.500000003740801
20
15.999999985182573
10
36.700000003740776
20
15.999999985182596
42
-0.41421356237309176
10
37.500000003740794
20
15.199999985182577
10
37.500000003740787
20
14.499999985182574
42
-0.41421356237309287
10
37.200000003740783
20
14.199999985182576
10
35.082411603740802
20
14.199999985182576
42
0.66817863791948373
10
34.493807709571804
20
12.778984481012976
10
36.744112551887781
20
10.528679643329365
42
0.19891236737965801
10
38.865432891887792
20
9.6499999883634757
10
41.134567101887782
20
9.649999985007387
42
0.19891236737969445
10
43.255887445447776
20
10.528679641447978
10
45.50619228346978
20
12.778984483425473
42
0.66817863791930165
10
44.917588393469785
20
14.199999977528977
10
42.799999993469804
20
14.199999981459966
42
-0.41421356237309503
10
42.499999993469793
20
14.499999981459977
10
42.499999998654772
20
15.199999981459975
42
-0.41421356237309914
10
43.299999998654783
20
15.999999981459975
10
54.499999998654793
20
15.999999981459997
42
-0.4142135623730942
10
55.999999998654815
20
14.499999981459979
10
55.9999999986548
20
12.499999981459979
42
-0.41421356237309503
10
54.9999999986548
20
11.499999981459981
10
53.499999998654815
20
11.49999998145997
42
-0.41421356237309631
10
52.999999998654808
20
11.999999981459979
10
52.9999999986548
20
13.499999981459979
42
0.41421356237309503
10
52.4999999986548
20
13.999999981459981
42
0.40904958288257748
10
50.000389968233648
20
11.544155341467375
42
0.1956684318376001
10
51.464466087480787
20
8.0710677807019504
10
54.321068087982795
20
5.2144657812038417
42
0.19891236737965998
10
57.856601997982793
20
3.749999685451848
10
62.143397997982781
20
3.7499996892865073
42
0.19891236737967305
10
65.678931903915796
20
5.2144657833539121
10
68.535533906174777
20
8.0710677810942588
42
0.19566843167982975
10
69.999610032055287
20
11.544155340922389
42
0.40904958290555932
10
67.500000002051792
20
13.999999980697982
42
0.41421356237309503
10
67.000000002051792
20
13.49999998069798
10
67.000000002051777
20
11.999999980697979
42
-0.41421356237309631
10
66.500000002051792
20
11.499999980697977
10
65.000000002051792
20
11.499999980697966
42
-0.41421356237309503
10
64.000000002051792
20
12.49999998069798
10
64.000000002051806
20
14.499999980697979
42
-0.4142135623730942
10
65.500000002051806
20
15.99999998069798
10
79.000000002051792
20
15.999999980697996
42
-0.4142135623730957
10
80.000000002051792
20
14.99999998069798
10
80.000000002051777
20
11.299999980697981
42
-0.41421356237309664
10
79.20000000205178
20
10.49999998069798
10
78.50000000205182
20
10.499999980697964
42
-0.41421356237309725
10
78.200000002051809
20
10.799999980697979
10
78.200000002051809
20
12.91758838069798
42
0.66817863791941967
10
76.778984497881808
20
13.50619227486758
0
LWPOLYLINE
5
105
100
AcDbEntity
8
0
100
AcDbPolyline
90
48
70
1
43
0.0
10
46.058577269282814
20
4.941420551290876
10
47.492892269678677
20
3.5071065516860593
42
-0.66817863791911714
10
46.785785488491776
20
1.7999997704998689
10
43.767326488491811
20
1.799999767265178
42
-0.33945425781223432
10
42.801400658491808
20
2.5411807221172324
10
42.204444666122782
20
4.7690517241620567
42
0.63971732995976516
10
41.64688610467681
20
4.8652034410948257
42
-0.52535711487278414
10
38.35311277467671
20
4.8652034410949438
42
0.63971732647128277
10
37.795554219699817
20
4.7690517176657803
10
37.1985982165751
20
2.541180718503131
42
-0.33945425781226768
10
36.232672391261787
20
1.7999997672472086
10
33.21421239126181
20
1.799999767806546
42
-0.66817863791929377
10
32.5071056112618
20
3.5071065461285067
10
33.941419608753804
20
4.9414205486368656
42
0.19891236738007576
10
33.999998252516789
20
5.0828419048743356
10
33.999998252872778
20
5.8091089048743338
42
0.38779457992371358
10
33.818180071803816
20
6.0082807448743525
42
-0.44904214989840407
10
32.043299521602783
20
8.4139194526703207
42
0.25370880173013816
10
31.989051001500787
20
8.59673284269196
10
31.525123998722805
20
9.0606588399141881
42
-0.41421355201772558
10
31.525124003722809
20
9.3435015549141713
10
32.656495000389796
20
10.474872558247466
42
-0.4142135520177555
10
32.939337715389797
20
10.474872553247486
10
33.403263716717788
20
10.010945554575379
42
0.25370881389108113
10
33.586077104725788
20
9.9566970325836408
42
-0.54232614723068995
10
35.956696164725813
20
7.5860779725836771
42
0.25370880173014276
10
36.010944684827777
20
7.4032645825620325
10
36.355632686918788
20
7.0585775846523457
42
0.1989123673792306
10
36.497054043155792
20
6.9999989408898147
10
38.156089043155781
20
6.9999989412670161
42
0.25370880311211425
10
38.323717123155681
20
7.0909080308899632
42
-0.5423261456019165
10
41.676278746130819
20
7.0909080354614229
42
0.253708803111792
10
41.843906826446791
20
6.9999989456672385
10
43.502941826446779
20
6.9999989421197384
42
0.19891236737967466
10
43.644363186446782
20
7.0585775874409942
10
43.989051185118804
20
7.4032645887688187
42
0.25370881389166966
10
44.043299707110783
20
7.5860779767771183
42
-0.54232614723068751
10
46.413918767110758
20
9.9566970367771237
42
0.25370880173065014
10
46.596732157132799
20
10.010945556879276
10
47.060659154354802
20
10.474872559657083
42
-0.41421355201774851
10
47.343501869354796
20
10.474872554657074
10
48.474872872132366
20
9.343501557434374
42
-0.41421354010881722
10
48.474872871753369
20
9.0606588481845165
10
48.010945873081816
20
8.5967328468562343
42
0.25370881389163291
10
47.956697351089758
20
8.4139194588479373
42
-0.44904214809173598
10
46.181816807606815
20
6.008280750226568
42
0.38779457992350369
10
45.999998627509797
20
5.8091089112908856
10
45.99999862396178
20
5.0828419112908874
42
0.19891236737970827
0
LWPOLYLINE
5
106
100
AcDbEntity
8
0
100
AcDbPolyline
90
48
70
1
43
0.0
10
-1.6468872253235851
20
4.8652034410948977
42
0.63971732647106538
10
-2.2044457803000048
20
4.7690517176658513
10
-2.8014017834245371
20
2.5411807185030644
42
-0.3394542578122357
10
-3.7673276087378227
20
1.799999767247253
10
-6.7857876087377988
20
1.7999997678065904
42
-0.66817863791929821
10
-7.4928943887378008
20
3.50710654612856
10
-6.0585803912463021
20
4.94142054863703
42
0.19891236737963411
10
-6.0000017474836369
20
5.0828419048743312
10
-6.0000017471273281
20
5.8091089048743294
42
0.38779457992370286
10
-6.1818199281961128
20
6.0082807448743312
42
-0.44904214989843655
10
-7.9567004783973143
20
8.4139194526703509
42
0.25370880173007582
10
-8.0109489984993942
20
8.5967328426919511
10
-8.4748760012772166
20
9.060658839914165
42
-0.41421355201778415
10
-8.4748759962772162
20
9.3435015549141767
10
-7.3435049996105217
20
10.474872558247458
42
-0.41421355201776811
10
-7.0606622846105163
20
10.474872553247476
10
-6.5967362832827092
20
10.01094555457537
42
0.25370881389138844
10
-6.4139228952744984
20
9.9566970325835751
42
-0.54232614723068762
10
-4.0433038352745143
20
7.5860779725835794
42
0.25370880173006383
10
-3.9890553151723274
20
7.4032645825619703
10
-3.6443673130819221
20
7.0585775846523502
42
0.1989123673796592
10
-3.5029459568445986
20
6.9999989408896663
10
-1.8439109568446099
20
6.9999989412668828
42
0.25370880311204363
10
-1.6762828768446278
20
7.0909080308896799
42
-0.54232614560193071
10
1.6762787461305597
20
7.0909080354613554
42
0.25370880311201094
10
1.843906826446684
20
6.9999989456670999
10
3.5029418264467793
20
6.9999989421196007
42
0.19891236737956397
10
3.6443631864467263
20
7.0585775874407952
10
3.9890511851188926
20
7.4032645887687032
42
0.25370881389137256
10
4.0432997071106804
20
7.5860779767769104
42
-0.54232614723069394
10
6.4139187671106868
20
9.9566970367769123
42
0.25370880173005655
10
6.5967321571322843
20
10.010945556879065
10
7.0606591543544734
20
10.474872559656866
42
-0.41421355201775895
10
7.3435018693544754
20
10.474872554656866
10
8.474872872132245
20
9.3435015574345766
42
-0.41421354011018419
10
8.4748728717531741
20
9.0606588481840618
10
8.0109458730810701
20
8.596732846856181
42
0.25370881389137756
10
7.9566973510892467
20
8.4139194588479622
42
-0.44904214809173698
10
6.1818168076062818
20
6.0082807502266009
42
0.38779457992363159
10
5.999998627509175
20
5.8091089112909122
10
5.9999986239616732
20
5.082841911290914
42
0.19891236737975002
10
6.0585772692829405
20
4.9414205512908609
10
7.492892269678487
20
3.5071065516863618
42
-0.66817863791926935
10
6.7857854884918822
20
1.7999997704998734
10
3.7673264884918822
20
1.7999997672651822
42
-0.33945425781223187
10
2.8014006584918789
20
2.541180722117228
10
2.2044446661228889
20
4.7690517241619723
42
0.63971732996007469
10
1.6468861046763354
20
4.8652034410949065
42
-0.52535711487275871
0
LWPOLYLINE
5
107
100
AcDbEntity
8
0
100
AcDbPolyline
90
48
70
1
43
0.0
10
-38.323721253869444
20
7.090908035461343
42
0.54232614560193293
10
-41.67628287684461
20
7.0909080308896364
42
-0.25370880311201166
10
-41.84391095684461
20
6.9999989412668562
10
-43.502945956844599
20
6.9999989408896681
42
-0.19891236737960225
10
-43.644367313081887
20
7.0585775846523457
10
-43.989055315172365
20
7.4032645825619312
42
-0.2537088017300535
10
-44.043303835274514
20
7.5860779725835847
42
0.54232614723069339
10
-46.413922895274531
20
9.9566970325835786
42
-0.25370881389135741
10
-46.596736283282709
20
10.010945554575365
10
-47.060662284610508
20
10.474872553247462
42
0.41421355201777843
10
-47.343504999610531
20
10.474872558247466
10
-48.474875996277227
20
9.3435015549141642
42
0.41421355201776466
10
-48.47487600127721
20
9.0606588399141685
10
-48.010948998499437
20
8.5967328426918996
42
-0.25370880173008009
10
-47.956700478397316
20
8.4139194526703438
42
0.44904214989844005
10
-46.181819928196091
20
6.0082807448743427
42
-0.38779457992374078
10
-46.000001747127328
20
5.8091089048743161
10
-46.000001747483623
20
5.0828419048743267
42
-0.19891236737963769
10
-46.058580391246302
20
4.9414205486370166
10
-47.492894388737824
20
3.5071065461285555
42
0.66817863791930288
10
-46.785787608737834
20
1.7999997678065771
10
-43.767327608737787
20
1.7999997672472352
42
0.33945425781223548
10
-42.801401783424495
20
2.5411807185030444
10
-42.204445780299942
20
4.7690517176658229
42
-0.63971732647105128
10
-41.646887225323624
20
4.8652034410948639
42
0.52535711487276149
10
-38.353113895323631
20
4.8652034410948977
42
-0.63971732996006869
10
-37.795555333877111
20
4.7690517241619679
10
-37.198599341508121
20
2.541180722117228
42
0.33945425781223315
10
-36.232673511508118
20
1.7999997672651791
10
-33.214214511508118
20
1.7999997704998689
42
0.66817863791930909
10
-32.507107730321607
20
3.5071065516864186
10
-33.941422730717086
20
4.9414205512909124
42
-0.19891236737966955
10
-34.000001376038327
20
5.0828419112908962
10
-34.000001372490807
20
5.8091089112908989
42
-0.38779457992377686
10
-33.818183192393604
20
6.0082807502265831
42
0.44904214809172427
10
-32.043302648910725
20
8.4139194588479516
42
-0.25370881389136968
10
-31.98905412691893
20
8.5967328468561597
10
-31.525127128246851
20
9.0606588481840404
42
0.41421354011022554
10
-31.525127127867734
20
9.343501557434589
10
-32.656498130645524
20
10.474872554656764
42
0.41421355201764049
10
-32.939340845645511
20
10.474872559656866
10
-33.403267842867677
20
10.010945556879046
42
-0.25370880173004828
10
-33.586081232889299
20
9.9566970367768874
42
0.54232614723069028
10
-35.95670029288928
20
7.5860779767768891
42
-0.25370881389136696
10
-36.01094881488109
20
7.4032645887686765
10
-36.355636813553325
20
7.0585775874408334
42
-0.19891236737965048
10
-36.497058173553327
20
6.9999989421195785
10
-38.156093173553316
20
6.9999989456671159
42
-0.25370880311203048
0
ENDSEC
0
SECTION
2
OBJECTS
0
DICTIONARY
5
C
100
AcDbDictionary
3
ACAD_GROUP
350
D
3
ACAD_MLINESTYLE
350
17
0
DICTIONARY
5
D
100
AcDbDictionary
0
DICTIONARY
5
1A
330
C
100
AcDbDictionary
0
DICTIONARY
5
17
100
AcDbDictionary
0
ENDSEC
0
EOF
