0
SECTION
2
HEADER
9
$INSUNITS
70
4
9
$ACADVER
1
AC1014
9
$HANDSEED
5
FFFF
0
ENDSEC
0
SECTION
2
TABLES
0
TABLE
2
VPORT
5
8
100
AcDbSymbolTable
0
ENDTAB
0
TABLE
2
LTYPE
5
5
100
AcDbSymbolTable
0
LTYPE
5
14
100
AcDbSymbolTableRecord
100
AcDbLinetypeTableRecord
2
BYBLOCK
70
0
0
LTYPE
5
15
100
AcDbSymbolTableRecord
100
AcDbLinetypeTableRecord
2
BYLAYER
70
0
0
LTYPE
5
16
100
AcDbSymbolTableRecord
100
AcDbLinetypeTableRecord
2
DASHED
70
0
3
Dashed __ __ __ __ __ __ __ __ __ __ __ __ __ _
72
65
73
2
40
0.75
49
0.5
74
0
49
-0.25
74
0
0
ENDTAB
0
TABLE
2
LAYER
5
2
100
AcDbSymbolTable
70
3
0
LAYER
5
50
100
AcDbSymbolTableRecord
100
AcDbLayerTableRecord
2
1
70
0
62
7
6
DASHED
0
LAYER
5
51
100
AcDbSymbolTableRecord
100
AcDbLayerTableRecord
2
0
70
0
62
7
6
CONTINUOUS
0
ENDTAB
0
TABLE
2
STYLE
5
3
100
AcDbSymbolTable
70
1
0
STYLE
5
11
100
AcDbSymbolTableRecord
100
AcDbTextStyleTableRecord
2
STANDARD
70
0
0
ENDTAB
0
TABLE
2
VIEW
5
6
100
AcDbSymbolTable
70
0
0
ENDTAB
0
TABLE
2
UCS
5
7
100
AcDbSymbolTable
70
0
0
ENDTAB
0
TABLE
2
APPID
5
9
100
AcDbSymbolTable
70
2
0
APPID
5
12
100
AcDbSymbolTableRecord
100
AcDbRegAppTableRecord
2
ACAD
70
0
0
ENDTAB
0
TABLE
2
DIMSTYLE
5
A
100
AcDbSymbolTable
70
1
0
ENDTAB
0
TABLE
2
BLOCK_RECORD
5
1
100
AcDbSymbolTable
70
1
0
BLOCK_RECORD
5
1F
100
AcDbSymbolTableRecord
100
AcDbBlockTableRecord
2
*MODEL_SPACE
0
BLOCK_RECORD
5
1B
100
AcDbSymbolTableRecord
100
AcDbBlockTableRecord
2
*PAPER_SPACE
0
ENDTAB
0
ENDSEC
0
SECTION
2
BLOCKS
0
BLOCK
5
20
100
AcDbEntity
100
AcDbBlockBegin
2
*MODEL_SPACE
0
ENDBLK
5
21
100
AcDbEntity
100
AcDbBlockEnd
0
BLOCK
5
1C
100
AcDbEntity
100
AcDbBlockBegin
2
*PAPER_SPACE
0
ENDBLK
5
1D
100
AcDbEntity
100
AcDbBlockEnd
0
ENDSEC
0
SECTION
2
ENTITIES
0
LWPOLYLINE
5
100
100
AcDbEntity
8
0
100
AcDbPolyline
90
136
70
1
43
0.0
10
50.000000000000711
20
7.9999999999995453
42
0.41421356237309503
10
48.000000000001819
20
9.9999999999984368
10
43.375000000000909
20
10
42
0.4142135623697652
10
42.574999999995669
20
9.2000000000007276
10
42.575000000001637
20
8.5000007629309948
42
0.41421345684474831
10
42.874999891910193
20
8.2000007629317135
10
45.044121477676526
20
8.1999999814174842
42
-0.66817850762687991
10
45.595664485978759
20
6.8684566921007377
10
43.255887455184748
20
4.5286796613112115
42
-0.1989123668397158
10
41.134567117869665
20
3.6500000048704351
10
38.865432899337975
20
3.6500000001463215
42
-0.1989123679204598
10
36.744112549540496
20
4.5286796565913559
10
34.404335520067107
20
6.8684566860616929
42
-0.66817850663291278
10
34.955878526197921
20
8.1999999753898063
10
37.125000108917448
20
8.2000007629380889
42
0.41421345603671439
10
37.424999999996658
20
8.5000007629309948
10
37.424999999998363
20
9.1999999999916326
42
0.41421356237642482
10
36.624999999999091
20
10.000000000002416
10
23.375000000000909
20
10
42
0.4142135623697652
10
22.574999999995669
20
9.2000000000007276
10
22.575000000001637
20
8.5000007629309948
42
0.41421345685362781
10
22.874999891919288
20
8.2000007629317135
10
25.044121477676526
20
8.1999999814174842
42
-0.66817850762687991
10
25.595664485978755
20
6.8684566921007377
10
23.25588745518224
20
4.5286796613137223
42
-0.19891236683971569
10
21.134567117869665
20
3.6500000048739878
10
18.865432899342522
20
3.6500000001463215
42
-0.19891236792085393
10
16.744112549540493
20
4.5286796565913567
10
14.404335520069383
20
6.8684566860594192
42
-0.66817850663440359
10
14.955878526197921
20
8.1999999753898063
10
17.125000108917448
20
8.2000007629380889
42
0.41421345603671439
10
17.424999999996658
20
8.5000007629309948
10
17.424999999998363
20
9.1999999999916326
42
0.41421356237642482
10
16.624999999999091
20
9.9999999999988631
10
3.3750000000009095
20
10.000000000002274
42
0.41421356237642482
10
2.5749999999956685
20
9.1999999999916326
10
2.5750000000016371
20
8.5000007629309948
42
0.41421345603671439
10
2.8749998910825525
20
8.2000007629317135
10
5.0441214737975315
20
8.1999999753898063
42
-0.66817850662782308
10
5.5956644799283426
20
6.8684566860662413
10
3.2558874504623851
20
4.5286796565930239
42
-0.19891236792231418
10
1.134567100662025
20
3.6500000001529997
10
-1.1345671178651175
20
3.6500000048688714
42
-0.19891236683999408
10
-3.2558874551900141
20
4.5286796613150413
10
-5.5956644859767213
20
6.8684566920982268
42
-0.66817850762266284
10
-5.0441214776810739
20
8.1999999814210351
10
-2.8749998919056452
20
8.2000007629312677
42
0.41421345684030858
10
-2.5749999999997897
20
8.5000007629309948
10
-2.5750000000016371
20
9.2000000000007276
42
0.4142135623697652
10
-3.3750000000009095
20
9.9999999999933209
10
-8.000000000001819
20
10
42
0.41421356237309503
10
-9.9999999999971561
20
7.9999999999995453
10
-10
20
3.3749999999986358
42
0.41421356237559237
10
-9.2000000000007276
20
2.5749999999936795
10
-8.500000762937816
20
2.5749999999993634
42
0.41421345603227461
10
-8.200000762934982
20
2.874999891078005
10
-8.1999999753989012
20
5.0441214737975315
42
-0.6681785066322945
10
-6.8684566860685159
20
5.5956644799215223
10
-4.5286796566027245
20
3.255887450459507
42
-0.19891236792141093
10
-3.6500000001531423
20
1.1345671006529301
10
-3.6500000048765457
20
-1.1345671178719381
42
-0.19891236684041222
10
-4.5286796613198845
20
-3.2558874551851744
10
-6.8684566921121073
20
-5.5956644859742086
42
-0.66817850763494968
10
-8.1999999814379478
20
-5.0441214776765264
10
-8.2000007629358151
20
-2.8749998919192876
42
0.41421345685140792
10
-8.500000762937816
20
-2.5750000000020634
10
-9.2000000000007276
20
-2.5750000000084583
42
0.41421356237808937
10
-10.000000000000853
20
-3.3750000000009086
10
-10
20
-8.000000000001819
42
0.41421356237309503
10
-8.000000000001819
20
-10.000000000004263
10
-3.3750000000009095
20
-10
42
0.41421356237309503
10
-2.5750000000027744
20
-9.2000000000098225
10
-2.5750000000016371
20
-8.500000762946911
42
0.41421345603671439
10
-2.8749998910825525
20
-8.200000762944077
10
-5.044121473802079
20
-8.1999999753908011
42
-0.66817850663216727
10
-5.5956644799315161
20
-6.8684566860698908
10
-3.2558874504593232
20
-4.5286796566006329
42
-0.19891236791960018
10
-1.1345671006574776
20
-3.6500000001616684
10
1.1345671178696646
20
-3.6500000048776826
42
-0.19891236683837077
10
3.2558874551836716
20
-4.5286796613191136
10
5.5956644859742086
20
-6.8684566921189276
42
-0.66817850762986097
10
5.0441214776765264
20
-8.1999999814402216
10
2.8749998919192876
20
-8.2000007629471838
42
0.41421345685362781
10
2.5749999999962374
20
-8.500000762946911
10
2.5750000000016371
20
-9.2000000000098225
42
0.41421356237309503
10
3.3750000000009095
20
-10.000000000011511
10
16.624999999999091
20
-10
42
0.41421356237309503
10
17.425000000000779
20
-9.2000000000098225
10
17.424999999998363
20
-8.500000762946911
42
0.41421345682698935
10
17.125000108094355
20
-8.200000762944077
10
14.955878522332569
20
-8.199999981447327
42
-0.66817850763196951
10
14.404335514025314
20
-6.8684566921139032
10
16.744112544808793
20
-4.5286796613206723
42
-0.19891236683860147
10
18.865432882134883
20
-3.6500000048806664
10
21.134567100662025
20
-3.6500000001608166
42
-0.19891236792205932
10
23.255887450461486
20
-4.5286796566030176
10
25.5956644799363
20
-6.8684566860696519
42
-0.66817850663278477
10
25.044121473797532
20
-8.1999999753943538
10
22.874999891082552
20
-8.2000007629471838
42
0.41421345603671439
10
22.574999999996237
20
-8.500000762946911
10
22.575000000001637
20
-9.2000000000098225
42
0.41421356237309503
10
23.375000000000909
20
-10.000000000011511
10
36.624999999999091
20
-10
42
0.41421356237309503
10
37.424999999997226
20
-9.2000000000098225
10
37.424999999998363
20
-8.500000762946911
42
0.41421345682698935
10
37.125000108094355
20
-8.200000762944077
10
34.955878522332569
20
-8.1999999814437743
42
-0.66817850763196895
10
34.404335514027828
20
-6.8684566921164159
10
36.744112544808793
20
-4.5286796613206723
42
-0.19891236683860147
10
38.865432882134883
20
-3.6500000048806664
10
41.134567100662025
20
-3.6500000001608135
42
-0.19891236792161798
10
43.255887450459213
20
-4.5286796565961964
10
45.595664479936303
20
-6.8684566860696519
42
-0.66817850663278477
10
45.044121473797532
20
-8.1999999753943538
10
42.874999891082552
20
-8.2000007629471838
42
0.41421345603671439
10
42.574999999992684
20
-8.500000762946911
10
42.575000000001637
20
-9.2000000000098225
42
0.41421356237309503
10
43.375000000000909
20
-10.000000000011511
10
48.000000000001819
20
-10
42
0.41421356237309503
10
50.000000000000711
20
-8.000000000001819
10
50
20
-3.3750000000009086
42
0.41421356237475954
10
49.200000000000728
20
-2.5750000000053319
10
48.500000762937816
20
-2.5750000000084583
42
0.41421345685140792
10
48.200000762942082
20
-2.8749998919192876
10
48.199999981436946
20
-5.0441214776765264
42
-0.66817850763196895
10
46.868456692109596
20
-5.595664485981267
10
44.528679661318932
20
-3.2558874551861283
42
-0.19891236683929789
10
43.650000004880525
20
-1.1345671178719394
10
43.6500000001557
20
1.1345671006529301
42
-0.19891236792088754
10
44.528679656594107
20
3.2558874504522084
10
46.868456686070786
20
5.5956644799237942
42
-0.66817850663080458
10
48.199999975398896
20
5.0441214737975315
10
48.200000762940363
20
2.874999891078005
42
0.41421345602339515
10
48.500000762937816
20
2.5749999999926843
10
49.200000000000728
20
2.5749999999925421
42
0.41421356237559237
10
49.999999999998863
20
3.3749999999986358
0
LWPOLYLINE
5
101
100
AcDbEntity
8
0
100
AcDbPolyline
90
12
70
1
43
0.0
10
23.650000004880525
20
-1.1345671178719385
42
0.19891236683929792
10
24.528679661318932
20
-3.2558874551861283
10
28.585786419616284
20
-7.3129942314955088
42
0.41421356237356594
10
31.41421354436261
20
-7.3129942314994878
10
35.471320338680115
20
-3.2558874551851744
42
0.19891236684041219
10
36.349999995122744
20
-1.1345671178719385
10
36.349999999848279
20
1.1345671006529301
42
0.19891236792255898
10
35.471320343394837
20
3.2558874504502455
10
31.414213587850909
20
7.3129942314889274
42
0.41421356237215323
10
28.585786463104341
20
7.3129942314881191
10
24.528679656596619
20
3.2558874504496957
42
0.19891236792088762
10
23.650000000161526
20
1.1345671006529301
0
LWPOLYLINE
5
102
100
AcDbEntity
8
0
100
AcDbPolyline
90
12
70
1
43
0.0
10
3.6500000048840775
20
-1.134567117871939
42
0.19891236683929789
10
4.5286796613214424
20
-3.2558874551836157
10
8.5857864196162836
20
-7.3129942314955105
42
0.41421356237356571
10
11.41421354436261
20
-7.3129942314994878
10
15.471320338680115
20
-3.2558874551851744
42
0.19891236684041219
10
16.349999995122744
20
-1.1345671178719385
10
16.349999999848279
20
1.1345671006529301
42
0.19891236792255898
10
15.471320343394837
20
3.2558874504502455
10
11.414213587850908
20
7.3129942314889256
42
0.41421356237215345
10
8.5857864631043412
20
7.3129942314881191
10
4.5286796565941057
20
3.2558874504522075
42
0.19891236792088751
10
3.6500000001524313
20
1.1345671006529301
0
CIRCLE
5
103
100
AcDbEntity
8
0
100
AcDbCircle
10
-40
20
0
30
0
40
2.1500000000003179
210
0
220
0
230
-1
0
CIRCLE
5
104
100
AcDbEntity
8
0
100
AcDbCircle
10
0
20
0
30
0
40
2.1500000000003179
210
0
220
0
230
-1
0
CIRCLE
5
105
100
AcDbEntity
8
0
100
AcDbCircle
10
-20
20
0
30
0
40
2.1500000000003179
210
0
220
0
230
-1
0
LWPOLYLINE
5
106
100
AcDbEntity
8
0
100
AcDbPolyline
90
136
70
1
43
0.0
10
50.000000000000711
20
7.9999999999995453
42
0.41421356237309492
10
48.000000000001819
20
9.999999999998435
10
43.375000000000909
20
10
42
0.4142135623697657
10
42.574999999995669
20
9.2000000000007276
10
42.575000000001637
20
8.5000007629309948
42
0.41421345684474503
10
42.874999891910193
20
8.2000007629317171
10
45.044121477676526
20
8.1999999814174842
42
-0.66817850762687991
10
45.595664485978759
20
6.8684566921007377
10
43.255887455184748
20
4.5286796613112115
42
-0.1989123668397158
10
41.134567117869665
20
3.6500000048704351
10
38.865432899337975
20
3.6500000001463215
42
-0.1989123679204598
10
36.744112549540496
20
4.5286796565913559
10
34.404335520067107
20
6.8684566860616929
42
-0.66817850663291278
10
34.955878526197921
20
8.1999999753898063
10
37.125000108917448
20
8.2000007629380889
42
0.4142134560367155
10
37.424999999996658
20
8.5000007629309948
10
37.424999999998363
20
9.1999999999916326
42
0.41421356237642404
10
36.624999999999091
20
10.000000000002414
10
23.375000000000909
20
10
42
0.4142135623697657
10
22.574999999995669
20
9.2000000000007276
10
22.575000000001637
20
8.5000007629309948
42
0.41421345685362021
10
22.874999891919288
20
8.2000007629317135
10
25.044121477676526
20
8.1999999814174842
42
-0.66817850762688036
10
25.595664485978755
20
6.8684566921007359
10
23.25588745518224
20
4.5286796613137223
42
-0.19891236683971569
10
21.134567117869665
20
3.6500000048739878
10
18.865432899342522
20
3.6500000001463215
42
-0.19891236792085393
10
16.744112549540493
20
4.5286796565913567
10
14.404335520069383
20
6.8684566860594192
42
-0.66817850663440359
10
14.955878526197921
20
8.1999999753898063
10
17.125000108917448
20
8.2000007629380889
42
0.41421345603671222
10
17.424999999996661
20
8.5000007629309948
10
17.424999999998363
20
9.1999999999916326
42
0.41421356237642443
10
16.624999999999087
20
9.9999999999988649
10
3.3750000000009095
20
10.000000000002274
42
0.4142135623764257
10
2.5749999999956685
20
9.1999999999916326
10
2.5750000000016371
20
8.5000007629309948
42
0.41421345603671489
10
2.8749998910825525
20
8.2000007629317135
10
5.0441214737975315
20
8.1999999753898063
42
-0.66817850662782308
10
5.5956644799283426
20
6.8684566860662413
10
3.255887450462386
20
4.5286796565930239
42
-0.19891236792231429
10
1.1345671006620246
20
3.6500000001529997
10
-1.1345671178651169
20
3.650000004868871
42
-0.19891236683999419
10
-3.2558874551900145
20
4.5286796613150413
10
-5.5956644859767213
20
6.8684566920982268
42
-0.66817850762266284
10
-5.0441214776810739
20
8.1999999814210351
10
-2.8749998919056452
20
8.2000007629312677
42
0.41421345684030697
10
-2.5749999999997897
20
8.500000762930993
10
-2.5750000000016371
20
9.2000000000007276
42
0.41421356236976381
10
-3.3750000000009095
20
9.9999999999933209
10
-8.000000000001819
20
10
42
0.4142135623730947
10
-9.9999999999971561
20
7.9999999999995453
10
-10
20
3.3749999999986358
42
0.4142135623755922
10
-9.2000000000007276
20
2.5749999999936795
10
-8.500000762937816
20
2.5749999999993634
42
0.41421345603227622
10
-8.200000762934982
20
2.874999891078005
10
-8.1999999753989012
20
5.0441214737975315
42
-0.6681785066322945
10
-6.8684566860685159
20
5.5956644799215223
10
-4.5286796566027245
20
3.2558874504595066
42
-0.19891236792141093
10
-3.6500000001531423
20
1.1345671006529296
10
-3.6500000048765457
20
-1.1345671178719381
42
-0.19891236684041222
10
-4.5286796613198845
20
-3.2558874551851744
10
-6.8684566921121073
20
-5.5956644859742086
42
-0.66817850763494968
10
-8.1999999814379478
20
-5.0441214776765264
10
-8.2000007629358151
20
-2.8749998919192876
42
0.41421345685140576
10
-8.500000762937816
20
-2.575000000002063
10
-9.2000000000007276
20
-2.5750000000084583
42
0.41421356237808915
10
-10.000000000000853
20
-3.3750000000009086
10
-10
20
-8.000000000001819
42
0.41421356237309503
10
-8.000000000001819
20
-10.000000000004263
10
-3.3750000000009095
20
-10
42
0.41421356237309465
10
-2.5750000000027748
20
-9.2000000000098225
10
-2.5750000000016371
20
-8.500000762946911
42
0.41421345603671222
10
-2.8749998910825525
20
-8.200000762944077
10
-5.044121473802079
20
-8.1999999753908011
42
-0.66817850663216805
10
-5.5956644799315143
20
-6.868456686069889
10
-3.2558874504593227
20
-4.5286796566006329
42
-0.19891236791960018
10
-1.1345671006574771
20
-3.6500000001616684
10
1.1345671178696646
20
-3.6500000048776822
42
-0.19891236683837077
10
3.2558874551836721
20
-4.5286796613191136
10
5.5956644859742086
20
-6.8684566921189276
42
-0.66817850762986097
10
5.0441214776765264
20
-8.1999999814402216
10
2.8749998919192876
20
-8.2000007629471838
42
0.41421345685362998
10
2.5749999999962374
20
-8.500000762946911
10
2.5750000000016371
20
-9.2000000000098225
42
0.41421356237309465
10
3.3750000000009095
20
-10.000000000011511
10
16.624999999999091
20
-10
42
0.41421356237309342
10
17.425000000000779
20
-9.2000000000098225
10
17.424999999998363
20
-8.500000762946911
42
0.41421345682698824
10
17.125000108094355
20
-8.2000007629440788
10
14.955878522332569
20
-8.199999981447327
42
-0.66817850763196951
10
14.404335514025314
20
-6.8684566921139032
10
16.744112544808793
20
-4.5286796613206723
42
-0.19891236683860147
10
18.865432882134883
20
-3.6500000048806664
10
21.134567100662025
20
-3.6500000001608166
42
-0.19891236792205932
10
23.255887450461486
20
-4.5286796566030176
10
25.5956644799363
20
-6.8684566860696519
42
-0.66817850663278477
10
25.044121473797532
20
-8.1999999753943538
10
22.874999891082552
20
-8.2000007629471838
42
0.414213456036709
10
22.574999999996241
20
-8.500000762946911
10
22.575000000001637
20
-9.2000000000098225
42
0.41421356237309426
10
23.375000000000909
20
-10.000000000011509
10
36.624999999999091
20
-10
42
0.41421356237309176
10
37.424999999997226
20
-9.2000000000098225
10
37.424999999998363
20
-8.500000762946911
42
0.41421345682698824
10
37.125000108094355
20
-8.2000007629440788
10
34.955878522332569
20
-8.1999999814437743
42
-0.66817850763196895
10
34.404335514027828
20
-6.8684566921164159
10
36.744112544808793
20
-4.5286796613206723
42
-0.19891236683860147
10
38.865432882134883
20
-3.6500000048806664
10
41.134567100662025
20
-3.6500000001608148
42
-0.19891236792161809
10
43.255887450459213
20
-4.5286796565961982
10
45.595664479936303
20
-6.8684566860696519
42
-0.66817850663278477
10
45.044121473797532
20
-8.1999999753943538
10
42.874999891082552
20
-8.2000007629471838
42
0.41421345603670789
10
42.574999999992684
20
-8.500000762946911
10
42.575000000001637
20
-9.2000000000098225
42
0.41421356237309426
10
43.375000000000909
20
-10.000000000011509
10
48.000000000001819
20
-10
42
0.41421356237309492
10
50.000000000000711
20
-8.000000000001819
10
50
20
-3.3750000000009086
42
0.41421356237476203
10
49.200000000000728
20
-2.5750000000053253
10
48.500000762937816
20
-2.5750000000084583
42
0.41421345685141064
10
48.200000762942096
20
-2.8749998919192876
10
48.199999981436946
20
-5.0441214776765264
42
-0.66817850763196929
10
46.868456692109596
20
-5.5956644859812652
10
44.528679661318932
20
-3.2558874551861292
42
-0.198912366839298
10
43.650000004880525
20
-1.1345671178719388
10
43.6500000001557
20
1.1345671006529301
42
-0.19891236792088754
10
44.528679656594107
20
3.2558874504522084
10
46.868456686070786
20
5.5956644799237942
42
-0.66817850663080458
10
48.199999975398896
20
5.0441214737975315
10
48.200000762940363
20
2.874999891078005
42
0.41421345602339027
10
48.500000762937816
20
2.5749999999926878
10
49.200000000000728
20
2.5749999999925421
42
0.41421356237559342
10
49.999999999998863
20
3.3749999999986358
0
LWPOLYLINE
5
107
100
AcDbEntity
8
0
100
AcDbPolyline
90
12
70
1
43
0.0
10
23.650000004880525
20
-1.1345671178719388
42
0.19891236683929542
10
24.528679661318932
20
-3.2558874551861288
10
28.585786419616284
20
-7.3129942314955088
42
0.4142135623735666
10
31.41421354436261
20
-7.3129942314994878
10
35.471320338680115
20
-3.255887455185174
42
0.19891236684041347
10
36.349999995122744
20
-1.1345671178719385
10
36.349999999848279
20
1.1345671006529301
42
0.19891236792255765
10
35.471320343394837
20
3.2558874504502455
10
31.414213587850909
20
7.3129942314889274
42
0.41421356237215279
10
28.585786463104341
20
7.3129942314881191
10
24.528679656596619
20
3.2558874504496957
42
0.19891236792088851
10
23.650000000161526
20
1.1345671006529301
0
LWPOLYLINE
5
108
100
AcDbEntity
8
0
100
AcDbPolyline
90
12
70
1
43
0.0
10
3.6500000048840784
20
-1.1345671178719403
42
0.19891236683929805
10
4.5286796613214424
20
-3.2558874551836157
10
8.5857864196162819
20
-7.3129942314955096
42
0.41421356237356621
10
11.41421354436261
20
-7.3129942314994878
10
15.471320338680117
20
-3.2558874551851744
42
0.19891236684041158
10
16.349999995122744
20
-1.1345671178719385
10
16.349999999848279
20
1.1345671006529301
42
0.19891236792255781
10
15.471320343394837
20
3.2558874504502455
10
11.414213587850908
20
7.3129942314889265
42
0.4142135623721529
10
8.5857864631043412
20
7.3129942314881191
10
4.5286796565941057
20
3.2558874504522075
42
0.19891236792088762
10
3.6500000001524313
20
1.1345671006529301
0
CIRCLE
5
109
100
AcDbEntity
8
0
100
AcDbCircle
10
40
20
0
30
0
40
2.1500000000003179
210
0
220
-0
230
1
0
CIRCLE
5
110
100
AcDbEntity
8
0
100
AcDbCircle
10
0
20
0
30
0
40
2.1500000000003179
210
0
220
-0
230
1
0
CIRCLE
5
111
100
AcDbEntity
8
0
100
AcDbCircle
10
20
20
0
30
0
40
2.1500000000003179
210
0
220
-0
230
1
0
ENDSEC
0
SECTION
2
OBJECTS
0
DICTIONARY
5
C
100
AcDbDictionary
3
ACAD_GROUP
350
D
3
ACAD_MLINESTYLE
350
17
0
DICTIONARY
5
D
100
AcDbDictionary
0
DICTIONARY
5
1A
330
C
100
AcDbDictionary
0
DICTIONARY
5
17
100
AcDbDictionary
0
ENDSEC
0
EOF
