0
SECTION
2
HEADER
9
$INSUNITS
70
4
9
$ACADVER
1
AC1014
9
$HANDSEED
5
FFFF
0
ENDSEC
0
SECTION
2
TABLES
0
TABLE
2
VPORT
5
8
100
AcDbSymbolTable
0
ENDTAB
0
TABLE
2
LTYPE
5
5
100
AcDbSymbolTable
0
LTYPE
5
14
100
AcDbSymbolTableRecord
100
AcDbLinetypeTableRecord
2
BYBLOCK
70
0
0
LTYPE
5
15
100
AcDbSymbolTableRecord
100
AcDbLinetypeTableRecord
2
BYLAYER
70
0
0
LTYPE
5
16
100
AcDbSymbolTableRecord
100
AcDbLinetypeTableRecord
2
DASHED
70
0
3
Dashed __ __ __ __ __ __ __ __ __ __ __ __ __ _
72
65
73
2
40
0.75
49
0.5
74
0
49
-0.25
74
0
0
ENDTAB
0
TABLE
2
LAYER
5
2
100
AcDbSymbolTable
70
3
0
LAYER
5
50
100
AcDbSymbolTableRecord
100
AcDbLayerTableRecord
2
1
70
0
62
7
6
DASHED
0
LAYER
5
51
100
AcDbSymbolTableRecord
100
AcDbLayerTableRecord
2
0
70
0
62
7
6
CONTINUOUS
0
ENDTAB
0
TABLE
2
STYLE
5
3
100
AcDbSymbolTable
70
1
0
STYLE
5
11
100
AcDbSymbolTableRecord
100
AcDbTextStyleTableRecord
2
STANDARD
70
0
0
ENDTAB
0
TABLE
2
VIEW
5
6
100
AcDbSymbolTable
70
0
0
ENDTAB
0
TABLE
2
UCS
5
7
100
AcDbSymbolTable
70
0
0
ENDTAB
0
TABLE
2
APPID
5
9
100
AcDbSymbolTable
70
2
0
APPID
5
12
100
AcDbSymbolTableRecord
100
AcDbRegAppTableRecord
2
ACAD
70
0
0
ENDTAB
0
TABLE
2
DIMSTYLE
5
A
100
AcDbSymbolTable
70
1
0
ENDTAB
0
TABLE
2
BLOCK_RECORD
5
1
100
AcDbSymbolTable
70
1
0
BLOCK_RECORD
5
1F
100
AcDbSymbolTableRecord
100
AcDbBlockTableRecord
2
*MODEL_SPACE
0
BLOCK_RECORD
5
1B
100
AcDbSymbolTableRecord
100
AcDbBlockTableRecord
2
*PAPER_SPACE
0
ENDTAB
0
ENDSEC
0
SECTION
2
BLOCKS
0
BLOCK
5
20
100
AcDbEntity
100
AcDbBlockBegin
2
*MODEL_SPACE
0
ENDBLK
5
21
100
AcDbEntity
100
AcDbBlockEnd
0
BLOCK
5
1C
100
AcDbEntity
100
AcDbBlockBegin
2
*PAPER_SPACE
0
ENDBLK
5
1D
100
AcDbEntity
100
AcDbBlockEnd
0
ENDSEC
0
SECTION
2
ENTITIES
0
LWPOLYLINE
5
100
100
AcDbEntity
8
0
100
AcDbPolyline
90
52
70
1
43
0.0
10
-26.925772925136499
20
-9.7356339898687079
42
0.029264800471422783
10
-24.683508429260748
20
-11.612302533641646
42
0.16095814186584825
10
-22.299999999998413
20
-12.400000000000182
10
-17.699999999999115
20
-12.399999999999473
42
0.16095814186582755
10
-15.316491570736947
20
-11.612302533641135
42
0.074004911122371148
10
-10.115700369079708
20
-6.4042279134630808
42
0.6157756564086766
10
-10.999999999999815
20
-4.6499999999994373
10
-14.899999999999917
20
-4.6500000000002846
42
-0.41421356237309437
10
-15.900000000000068
20
-3.6500000000002397
10
-15.900000000000141
20
-1.5000000000008096
42
-0.4142135623730967
10
-14.400000000000155
20
-6.6835426082434424e-13
10
14.400000000000155
20
7.5939254884360707e-13
42
-0.41421356237309287
10
15.900000000000221
20
-1.4999999999991531
10
15.900000000000231
20
-3.6499999999985837
42
-0.41421356237309687
10
14.900000000000384
20
-4.649999999998526
10
11.000000000000284
20
-4.6499999999978412
42
0.6157756564086746
10
10.115700369080599
20
-6.4042279134614049
42
0.074004911122384387
10
15.316491570739741
20
-11.612302533639445
42
0.1609581418658276
10
17.700000000001587
20
-12.399999999998064
10
22.300000000000686
20
-12.399999999997393
42
0.16095814186585486
10
24.683508429262986
20
-11.612302533638514
42
0.029264800471411841
10
26.925772925140045
20
-9.7356339898685391
42
-0.65737870078439475
10
27.600000000000271
20
-10.026837546532263
10
27.600000000000794
20
-15.80829037686353
42
-0.57735026918987553
10
26.700000000000095
20
-16.327905619134206
10
24.700000000001047
20
-15.173205080753734
42
0.57735026919027654
10
24.100000000000257
20
-15.5196152422672
10
24.100000000000719
20
-17.799999999998491
42
-0.41421356237309503
10
22.600000000000755
20
-19.299999999998619
10
5.6000000000008576
20
-19.299999999999454
42
-0.41421356237309548
10
4.1000000000007786
20
-17.799999999999532
10
4.1000000000009607
20
-15.999999999998389
42
-0.41421356237309309
10
5.1000000000007928
20
-14.999999999998447
10
9.0000000000004299
20
-14.999999999998256
42
0.61577565640863241
10
9.8842996309207098
20
-13.245772086534089
42
0.074004911122359948
10
4.6835084292636262
20
-8.0376974663571943
42
0.16095814186583274
10
2.3000000000017589
20
-7.2499999999985327
10
-2.2999999999998528
20
-7.2499999999986917
42
0.16095814186583324
10
-4.6835084292609626
20
-8.0376974663586012
42
0.07400491112237087
10
-9.8842996309195481
20
-13.245772086535652
42
0.61577565640865584
10
-8.9999999999994742
20
-14.99999999999908
10
-5.0999999999981949
20
-14.999999999998867
42
-0.41421356237309437
10
-4.0999999999981451
20
-15.999999999998817
10
-4.0999999999966104
20
-17.799999999999958
42
-0.41421356237309465
10
-5.599999999996581
20
-19.300000000000086
10
-22.59999999999885
20
-19.300000000000921
42
-0.41421356237309548
10
-24.099999999998932
20
-17.800000000000999
10
-24.099999999999437
20
-15.519615242269706
42
0.57735026918991184
10
-24.69999999999947
20
-15.173205080755308
10
-26.699999999999356
20
-16.327905619135652
42
-0.57735026918966192
10
-27.59999999999944
20
-15.808290376865068
10
-27.600000000002268
20
-10.026837546534246
42
-0.65737870078498473
0
LWPOLYLINE
5
101
100
AcDbEntity
8
0
100
AcDbPolyline
90
52
70
1
43
0.0
10
-26.925772925136503
20
-9.7356339898687043
42
0.029264800471423019
10
-24.683508429260741
20
-11.612302533641646
42
0.16095814186584778
10
-22.299999999998413
20
-12.400000000000182
10
-17.699999999999115
20
-12.399999999999473
42
0.16095814186582738
10
-15.31649157073695
20
-11.612302533641135
42
0.074004911122370953
10
-10.115700369079708
20
-6.4042279134630808
42
0.6157756564086766
10
-10.999999999999815
20
-4.6499999999994373
10
-14.899999999999917
20
-4.6500000000002828
42
-0.41421356237309503
10
-15.900000000000068
20
-3.6500000000002397
10
-15.900000000000139
20
-1.5000000000008098
42
-0.41421356237309803
10
-14.400000000000155
20
-6.6835426082434424e-13
10
14.400000000000155
20
7.6105788338054481e-13
42
-0.4142135623730932
10
15.900000000000221
20
-1.4999999999991531
10
15.90000000000023
20
-3.6499999999985837
42
-0.41421356237309731
10
14.900000000000384
20
-4.649999999998526
10
11.000000000000284
20
-4.6499999999978412
42
0.61577565640867293
10
10.115700369080596
20
-6.4042279134614022
42
0.074004911122384179
10
15.316491570739741
20
-11.612302533639445
42
0.1609581418658276
10
17.700000000001587
20
-12.399999999998064
10
22.300000000000686
20
-12.399999999997393
42
0.16095814186585458
10
24.683508429262986
20
-11.61230253363852
42
0.029264800471412316
10
26.925772925140041
20
-9.7356339898685356
42
-0.65737870078440086
10
27.600000000000271
20
-10.026837546532263
10
27.600000000000783
20
-15.80829037686353
42
-0.57735026918987931
10
26.700000000000095
20
-16.327905619134206
10
24.700000000001047
20
-15.173205080753734
42
0.57735026919027654
10
24.100000000000257
20
-15.5196152422672
10
24.100000000000719
20
-17.799999999998487
42
-0.41421356237309548
10
22.600000000000755
20
-19.299999999998619
10
5.6000000000008576
20
-19.299999999999457
42
-0.41421356237309503
10
4.1000000000007786
20
-17.799999999999532
10
4.1000000000009607
20
-15.999999999998389
42
-0.41421356237309309
10
5.1000000000007928
20
-14.999999999998447
10
9.0000000000004299
20
-14.999999999998256
42
0.61577565640863152
10
9.8842996309207152
20
-13.245772086534091
42
0.074004911122359948
10
4.6835084292636271
20
-8.0376974663571925
42
0.16095814186583277
10
2.3000000000017584
20
-7.2499999999985327
10
-2.2999999999998524
20
-7.2499999999986917
42
0.16095814186583288
10
-4.683508429260959
20
-8.0376974663585976
42
0.07400491112237087
10
-9.8842996309195481
20
-13.245772086535652
42
0.61577565640865606
10
-8.9999999999994742
20
-14.99999999999908
10
-5.0999999999981949
20
-14.999999999998867
42
-0.41421356237309404
10
-4.0999999999981451
20
-15.999999999998817
10
-4.0999999999966095
20
-17.799999999999958
42
-0.41421356237309481
10
-5.599999999996581
20
-19.300000000000086
10
-22.59999999999885
20
-19.300000000000924
42
-0.41421356237309592
10
-24.099999999998932
20
-17.800000000000999
10
-24.099999999999437
20
-15.519615242269706
42
0.57735026918991184
10
-24.69999999999947
20
-15.173205080755308
10
-26.69999999999936
20
-16.327905619135649
42
-0.57735026918966315
10
-27.59999999999944
20
-15.808290376865068
10
-27.600000000002268
20
-10.026837546534246
42
-0.65737870078498184
0
ENDSEC
0
SECTION
2
OBJECTS
0
DICTIONARY
5
C
100
AcDbDictionary
3
ACAD_GROUP
350
D
3
ACAD_MLINESTYLE
350
17
0
DICTIONARY
5
D
100
AcDbDictionary
0
DICTIONARY
5
1A
330
C
100
AcDbDictionary
0
DICTIONARY
5
17
100
AcDbDictionary
0
ENDSEC
0
EOF
