0
SECTION
2
HEADER
9
$INSUNITS
70
4
9
$ACADVER
1
AC1014
9
$HANDSEED
5
FFFF
0
ENDSEC
0
SECTION
2
TABLES
0
TABLE
2
VPORT
5
8
100
AcDbSymbolTable
0
ENDTAB
0
TABLE
2
LTYPE
5
5
100
AcDbSymbolTable
0
LTYPE
5
14
100
AcDbSymbolTableRecord
100
AcDbLinetypeTableRecord
2
BYBLOCK
70
0
0
LTYPE
5
15
100
AcDbSymbolTableRecord
100
AcDbLinetypeTableRecord
2
BYLAYER
70
0
0
LTYPE
5
16
100
AcDbSymbolTableRecord
100
AcDbLinetypeTableRecord
2
DASHED
70
0
3
Dashed __ __ __ __ __ __ __ __ __ __ __ __ __ _
72
65
73
2
40
0.75
49
0.5
74
0
49
-0.25
74
0
0
ENDTAB
0
TABLE
2
LAYER
5
2
100
AcDbSymbolTable
70
3
0
LAYER
5
50
100
AcDbSymbolTableRecord
100
AcDbLayerTableRecord
2
1
70
0
62
7
6
DASHED
0
LAYER
5
51
100
AcDbSymbolTableRecord
100
AcDbLayerTableRecord
2
0
70
0
62
7
6
CONTINUOUS
0
ENDTAB
0
TABLE
2
STYLE
5
3
100
AcDbSymbolTable
70
1
0
STYLE
5
11
100
AcDbSymbolTableRecord
100
AcDbTextStyleTableRecord
2
STANDARD
70
0
0
ENDTAB
0
TABLE
2
VIEW
5
6
100
AcDbSymbolTable
70
0
0
ENDTAB
0
TABLE
2
UCS
5
7
100
AcDbSymbolTable
70
0
0
ENDTAB
0
TABLE
2
APPID
5
9
100
AcDbSymbolTable
70
2
0
APPID
5
12
100
AcDbSymbolTableRecord
100
AcDbRegAppTableRecord
2
ACAD
70
0
0
ENDTAB
0
TABLE
2
DIMSTYLE
5
A
100
AcDbSymbolTable
70
1
0
ENDTAB
0
TABLE
2
BLOCK_RECORD
5
1
100
AcDbSymbolTable
70
1
0
BLOCK_RECORD
5
1F
100
AcDbSymbolTableRecord
100
AcDbBlockTableRecord
2
*MODEL_SPACE
0
BLOCK_RECORD
5
1B
100
AcDbSymbolTableRecord
100
AcDbBlockTableRecord
2
*PAPER_SPACE
0
ENDTAB
0
ENDSEC
0
SECTION
2
BLOCKS
0
BLOCK
5
20
100
AcDbEntity
100
AcDbBlockBegin
2
*MODEL_SPACE
0
ENDBLK
5
21
100
AcDbEntity
100
AcDbBlockEnd
0
BLOCK
5
1C
100
AcDbEntity
100
AcDbBlockBegin
2
*PAPER_SPACE
0
ENDBLK
5
1D
100
AcDbEntity
100
AcDbBlockEnd
0
ENDSEC
0
SECTION
2
ENTITIES
0
LWPOLYLINE
5
100
100
AcDbEntity
8
0
100
AcDbPolyline
90
72
70
1
43
0.0
10
3.6500000001552015
20
-1.1345671006552038
42
0.19891236792164158
10
4.5286796565976335
20
-3.255887450460047
10
6.8684566860696519
20
-5.5956644799317532
42
0.66817850662496847
10
8.1999999753884367
20
-5.0441214738043527
10
8.2000007629403839
20
-2.874999891078005
42
-0.41421345603227572
10
8.5000007629400898
20
-2.5749999999993634
10
9.2000000000007276
20
-2.5749999999970896
42
-0.41421356237392748
10
10
20
-3.3749999999986358
10
10.000000000000002
20
-7.9999999999995453
42
-0.41421356237309503
10
7.999999999999547
20
-10
10
3.3749999999986362
20
-10.000000000002274
42
-0.41421356236726786
10
2.5749999999993642
20
-9.2000000000007276
10
2.5749999999925235
20
-8.5000007629400898
42
-0.41421345686694649
10
2.8749998919147401
20
-8.2000007629380889
10
5.0441214776674324
20
-8.1999999814311266
42
0.66817850763916753
10
5.5956644859747939
20
-6.8684566921047008
10
3.2558874551812798
20
-4.5286796613192335
42
0.19891236683882249
10
1.134567117862844
20
-3.6500000048818038
10
-1.1345671006597511
20
-3.6500000001574051
42
0.19891236791973943
10
-3.2558874504570672
20
-4.5286796565960676
10
-5.5956644799330091
20
-6.8684566860683951
42
0.6681785066285687
10
-5.044121473802079
20
-8.1999999753952579
10
-2.8749998910757308
20
-8.2000007629358347
42
-0.41421345602783488
10
-2.5749999999970892
20
-8.5000007629400898
10
-2.5750000000016366
20
-9.2000000000007276
42
-0.41421356237309503
10
-3.3750000000009091
20
-10
10
-7.9999999999995453
20
-10
42
-0.41421356237309503
10
-10
20
-7.9999999999995453
10
-9.9999999999977263
20
-3.3749999999986358
42
-0.41421356237309503
10
-9.1999999999984539
20
-2.5749999999993634
10
-8.5000007629400898
20
-2.5749999999947963
42
-0.41421345684918803
10
-8.2000007629403626
20
-2.8749998919101927
10
-8.1999999814311266
20
-5.0441214776697052
42
0.66817850763451403
10
-6.8684566921069745
20
-5.5956644859725202
10
-4.5286796613188116
20
-3.2558874551839745
42
0.19891236683932192
10
-3.6500000048795296
20
-1.1345671178696648
10
-3.6500000001538533
20
1.1345671006597515
42
0.19891236791962416
10
-4.5286796565937957
20
3.2558874504593405
10
-6.8684566860662413
20
5.5956644799351638
42
0.66817850662738643
10
-8.1999999753907105
20
5.0441214737998052
10
-8.2000007629426559
20
2.8749998910757313
42
-0.41421345603227461
10
-8.5000007629400898
20
2.5749999999993634
10
-9.1999999999984539
20
2.5750000000016371
42
-0.41421356237725732
10
-10
20
3.3750000000009095
10
-9.9999999999977263
20
8.000000000001819
42
-0.41421356237309503
10
-7.9999999999995453
20
10
10
-3.3750000000009091
20
10
42
-0.41421356237143014
10
-2.5750000000016366
20
9.2000000000007276
10
-2.5750000000038908
20
8.5000007629400898
42
-0.41421345684474831
10
-2.8749998919147397
20
8.2000007629403626
10
-5.0441214776719789
20
8.1999999814311266
42
0.66817850763600473
10
-5.5956644859702465
20
6.8684566921069745
10
-3.2558874551826533
20
4.5286796613178577
42
0.19891236683828925
10
-1.1345671178673906
20
3.65000000487953
10
1.1345671006574776
20
3.6500000001561261
42
0.19891236792007577
10
3.2558874504616142
20
4.5286796565960685
10
5.5956644799317541
20
6.8684566860673772
42
0.66817850662602429
10
5.044121473802079
20
8.1999999753907105
10
2.8749998910780055
20
8.2000007629403822
42
-0.41421345603227411
10
2.5749999999993642
20
8.5000007629400898
10
2.5749999999948163
20
9.2000000000007276
42
-0.41421356237808976
10
3.3749999999986362
20
10
10
7.999999999999547
20
10.000000000002272
42
-0.41421356237309503
10
10
20
8.000000000001819
10
10.000000000002274
20
3.3750000000009095
42
-0.41421356237309503
10
9.2000000000007276
20
2.5749999999993634
10
8.5000007629400898
20
2.5749999999970701
42
-0.41421345684918803
10
8.2000007629380889
20
2.8749998919101927
10
8.1999999814306292
20
5.0441214776697052
42
0.66817850763196862
10
6.8684566921069754
20
5.5956644859725202
10
4.5286796613219842
20
3.2558874551830765
42
0.19891236683918262
10
3.6500000048772572
20
1.1345671178673911
0
CIRCLE
5
101
100
AcDbEntity
8
0
100
AcDbCircle
10
0
20
0
30
0
40
2.1500000000003179
210
0
220
0
230
-1
0
LWPOLYLINE
5
102
100
AcDbEntity
8
0
100
AcDbPolyline
90
72
70
1
43
0.0
10
3.6500000001552015
20
-1.1345671006552034
42
0.19891236792164171
10
4.5286796565976344
20
-3.2558874504600475
10
6.8684566860696519
20
-5.5956644799317532
42
0.66817850662496847
10
8.1999999753884367
20
-5.0441214738043527
10
8.2000007629403839
20
-2.874999891078005
42
-0.41421345603227572
10
8.5000007629400898
20
-2.5749999999993634
10
9.2000000000007276
20
-2.5749999999970905
42
-0.41421356237392792
10
10
20
-3.3749999999986358
10
10.000000000000002
20
-7.9999999999995453
42
-0.41421356237309537
10
7.999999999999547
20
-10
10
3.3749999999986362
20
-10.000000000002274
42
-0.41421356236726725
10
2.5749999999993642
20
-9.2000000000007276
10
2.5749999999925239
20
-8.5000007629400898
42
-0.41421345686694594
10
2.8749998919147401
20
-8.2000007629380889
10
5.0441214776674324
20
-8.1999999814311266
42
0.66817850763916753
10
5.5956644859747939
20
-6.8684566921047008
10
3.2558874551812798
20
-4.5286796613192335
42
0.19891236683882249
10
1.134567117862844
20
-3.6500000048818038
10
-1.1345671006597504
20
-3.6500000001574051
42
0.19891236791973951
10
-3.2558874504570672
20
-4.5286796565960676
10
-5.5956644799330091
20
-6.8684566860683951
42
0.6681785066285687
10
-5.044121473802079
20
-8.1999999753952579
10
-2.8749998910757308
20
-8.2000007629358347
42
-0.41421345602783655
10
-2.5749999999970892
20
-8.5000007629400898
10
-2.5750000000016366
20
-9.2000000000007276
42
-0.41421356237309587
10
-3.3750000000009091
20
-10
10
-7.9999999999995453
20
-10
42
-0.41421356237309537
10
-10
20
-7.9999999999995453
10
-9.9999999999977263
20
-3.3749999999986358
42
-0.41421356237309587
10
-9.1999999999984539
20
-2.5749999999993634
10
-8.5000007629400898
20
-2.5749999999947963
42
-0.41421345684918592
10
-8.2000007629403626
20
-2.8749998919101927
10
-8.1999999814311266
20
-5.0441214776697052
42
0.66817850763451403
10
-6.8684566921069745
20
-5.5956644859725202
10
-4.5286796613188116
20
-3.2558874551839749
42
0.19891236683932192
10
-3.6500000048795296
20
-1.1345671178696648
10
-3.6500000001538533
20
1.1345671006597511
42
0.19891236791962419
10
-4.5286796565937957
20
3.2558874504593405
10
-6.8684566860662413
20
5.5956644799351638
42
0.66817850662738643
10
-8.1999999753907105
20
5.0441214737998052
10
-8.2000007629426559
20
2.8749998910757313
42
-0.41421345603227572
10
-8.5000007629400898
20
2.5749999999993634
10
-9.1999999999984539
20
2.575000000001638
42
-0.41421356237725693
10
-10
20
3.3750000000009095
10
-9.9999999999977263
20
8.000000000001819
42
-0.41421356237309503
10
-7.9999999999995453
20
10
10
-3.3750000000009091
20
9.9999999999999982
42
-0.41421356237142976
10
-2.5750000000016366
20
9.2000000000007276
10
-2.5750000000038913
20
8.5000007629400898
42
-0.41421345684474775
10
-2.8749998919147397
20
8.2000007629403626
10
-5.0441214776719789
20
8.1999999814311266
42
0.66817850763600473
10
-5.5956644859702465
20
6.8684566921069745
10
-3.2558874551826533
20
4.5286796613178586
42
0.19891236683828925
10
-1.1345671178673906
20
3.65000000487953
10
1.1345671006574771
20
3.6500000001561266
42
0.19891236792007588
10
3.2558874504616142
20
4.5286796565960685
10
5.5956644799317541
20
6.8684566860673772
42
0.66817850662602429
10
5.044121473802079
20
8.1999999753907105
10
2.8749998910780055
20
8.2000007629403822
42
-0.41421345603227622
10
2.5749999999993642
20
8.5000007629400898
10
2.5749999999948163
20
9.2000000000007276
42
-0.41421356237808976
10
3.3749999999986362
20
10
10
7.999999999999547
20
10.000000000002272
42
-0.41421356237309503
10
10
20
8.000000000001819
10
10.000000000002274
20
3.3750000000009095
42
-0.41421356237309587
10
9.2000000000007276
20
2.5749999999993634
10
8.5000007629400898
20
2.5749999999970701
42
-0.41421345684918803
10
8.2000007629380889
20
2.8749998919101927
10
8.1999999814306292
20
5.0441214776697052
42
0.66817850763196862
10
6.8684566921069754
20
5.5956644859725202
10
4.5286796613219842
20
3.2558874551830765
42
0.19891236683918262
10
3.6500000048772572
20
1.1345671178673911
0
CIRCLE
5
103
100
AcDbEntity
8
0
100
AcDbCircle
10
0
20
0
30
0
40
2.1500000000003179
210
0
220
-0
230
1
0
ENDSEC
0
SECTION
2
OBJECTS
0
DICTIONARY
5
C
100
AcDbDictionary
3
ACAD_GROUP
350
D
3
ACAD_MLINESTYLE
350
17
0
DICTIONARY
5
D
100
AcDbDictionary
0
DICTIONARY
5
1A
330
C
100
AcDbDictionary
0
DICTIONARY
5
17
100
AcDbDictionary
0
ENDSEC
0
EOF
