0
SECTION
2
HEADER
9
$INSUNITS
70
4
9
$ACADVER
1
AC1014
9
$HANDSEED
5
FFFF
0
ENDSEC
0
SECTION
2
TABLES
0
TABLE
2
VPORT
5
8
100
AcDbSymbolTable
0
ENDTAB
0
TABLE
2
LTYPE
5
5
100
AcDbSymbolTable
0
LTYPE
5
14
100
AcDbSymbolTableRecord
100
AcDbLinetypeTableRecord
2
BYBLOCK
70
0
0
LTYPE
5
15
100
AcDbSymbolTableRecord
100
AcDbLinetypeTableRecord
2
BYLAYER
70
0
0
LTYPE
5
16
100
AcDbSymbolTableRecord
100
AcDbLinetypeTableRecord
2
DASHED
70
0
3
Dashed __ __ __ __ __ __ __ __ __ __ __ __ __ _
72
65
73
2
40
0.75
49
0.5
74
0
49
-0.25
74
0
0
ENDTAB
0
TABLE
2
LAYER
5
2
100
AcDbSymbolTable
70
3
0
LAYER
5
50
100
AcDbSymbolTableRecord
100
AcDbLayerTableRecord
2
1
70
0
62
7
6
DASHED
0
LAYER
5
51
100
AcDbSymbolTableRecord
100
AcDbLayerTableRecord
2
0
70
0
62
7
6
CONTINUOUS
0
ENDTAB
0
TABLE
2
STYLE
5
3
100
AcDbSymbolTable
70
1
0
STYLE
5
11
100
AcDbSymbolTableRecord
100
AcDbTextStyleTableRecord
2
STANDARD
70
0
0
ENDTAB
0
TABLE
2
VIEW
5
6
100
AcDbSymbolTable
70
0
0
ENDTAB
0
TABLE
2
UCS
5
7
100
AcDbSymbolTable
70
0
0
ENDTAB
0
TABLE
2
APPID
5
9
100
AcDbSymbolTable
70
2
0
APPID
5
12
100
AcDbSymbolTableRecord
100
AcDbRegAppTableRecord
2
ACAD
70
0
0
ENDTAB
0
TABLE
2
DIMSTYLE
5
A
100
AcDbSymbolTable
70
1
0
ENDTAB
0
TABLE
2
BLOCK_RECORD
5
1
100
AcDbSymbolTable
70
1
0
BLOCK_RECORD
5
1F
100
AcDbSymbolTableRecord
100
AcDbBlockTableRecord
2
*MODEL_SPACE
0
BLOCK_RECORD
5
1B
100
AcDbSymbolTableRecord
100
AcDbBlockTableRecord
2
*PAPER_SPACE
0
ENDTAB
0
ENDSEC
0
SECTION
2
BLOCKS
0
BLOCK
5
20
100
AcDbEntity
100
AcDbBlockBegin
2
*MODEL_SPACE
0
ENDBLK
5
21
100
AcDbEntity
100
AcDbBlockEnd
0
BLOCK
5
1C
100
AcDbEntity
100
AcDbBlockBegin
2
*PAPER_SPACE
0
ENDBLK
5
1D
100
AcDbEntity
100
AcDbBlockEnd
0
ENDSEC
0
SECTION
2
ENTITIES
0
LWPOLYLINE
5
100
100
AcDbEntity
8
0
100
AcDbPolyline
90
168
70
1
43
0.0
10
62.499999979656749
20
9.1999999851095922
10
62.499999974471585
20
8.4999999851095946
42
0.41421356237309503
10
62.799999974471575
20
8.1999999851095939
10
64.917588374471592
20
8.1999999811786335
42
-0.66817863791929855
10
65.506192264471565
20
6.7789844870750642
10
63.255887426449121
20
4.5286796450974807
42
-0.1989123673796564
10
61.134567082889504
20
3.6499999886571395
10
58.8654328728895
20
3.6499999920131998
42
-0.1989123673796572
10
56.744112532889488
20
4.5286796469791044
10
54.493807690573171
20
6.7789844846627627
42
-0.66817863791930288
10
55.082411584742573
20
8.1999999888321824
10
57.199999984742576
20
8.1999999888321824
42
0.41421356237309503
10
57.49999998474258
20
8.4999999888321831
10
57.49999998474258
20
9.1999999888321842
42
0.41421356237309503
10
56.699999984742576
20
9.9999999888321849
10
43.29999998474257
20
9.9999999888321796
42
0.41421356237309503
10
42.499999984742573
20
9.1999999888321842
10
42.499999979557387
20
8.4999999888321831
42
0.41421356237309503
10
42.799999979557384
20
8.1999999888321824
10
44.917588379557372
20
8.1999999849012219
42
-0.66817863791929555
10
45.506192269557381
20
6.7789844907976722
10
43.25588743153493
20
4.5286796488200878
42
-0.19891236737965684
10
41.134567087975299
20
3.6499999923797422
10
38.865432877975302
20
3.6499999957358003
42
-0.19891236737965812
10
36.74411253797529
20
4.5286796507017106
10
34.493807695658973
20
6.7789844883853672
42
-0.66817863791930565
10
35.082411589828375
20
8.1999999925547922
10
37.199999989828385
20
8.1999999925547922
42
0.41421356237309503
10
37.499999989828382
20
8.4999999925547911
10
37.499999989828382
20
9.1999999925547904
42
0.41421356237309503
10
36.699999989828385
20
9.9999999925547911
10
23.299999989828372
20
9.9999999925547911
42
0.41421356237309503
10
22.499999989828371
20
9.1999999925547939
10
22.499999984643189
20
8.4999999925547964
42
0.41421356237309503
10
22.799999984643193
20
8.1999999925547957
10
24.917588384643192
20
8.1999999886238371
42
-0.66817863791929699
10
25.506192274643187
20
6.7789844945202766
10
23.255887436620732
20
4.528679652542694
42
-0.19891236737965673
10
21.134567093061104
20
3.6499999961023528
10
18.865432883061107
20
3.6499999994584109
42
-0.1989123673796579
10
16.7441125430611
20
4.5286796544243204
10
14.493807700744776
20
6.7789844921079823
42
-0.66817863791930021
10
15.082411594914188
20
8.1999999962773984
10
17.199999994914187
20
8.1999999962773966
42
0.41421356237309503
10
17.499999994914187
20
8.4999999962774009
10
17.499999994914184
20
9.1999999962773984
42
0.41421356237309503
10
16.699999994914183
20
9.9999999962773991
10
3.2999999949141845
20
9.9999999962773991
42
0.41421356237309503
10
2.4999999949141856
20
9.1999999962773984
10
2.4999999897290071
20
8.4999999962774027
42
0.41421356237309503
10
2.7999999897290007
20
8.1999999962774019
10
4.9175883897289996
20
8.1999999923464415
42
-0.66817863791929677
10
5.506192279729003
20
6.7789844982428837
10
3.2558874417065442
20
4.5286796562652958
42
-0.19891236737965592
10
1.1345670981469262
20
3.6499999998249577
10
-1.1345671118530736
20
3.6500000031810167
42
-0.19891236737965742
10
-3.2558874518530794
20
4.5286796581469213
10
-5.5061922941694164
20
6.7789844958305796
42
-0.6681786379193031
10
-4.9175884000000103
20
8.2000000000000011
10
-2.8000000000000025
20
8.2000000000000011
42
0.41421356237309503
10
-2.5000000000000004
20
8.5
10
-2.5
20
9.1999999999999993
42
0.41421356237309503
10
-3.3000000000000007
20
10
10
-7.9999999999999982
20
10
42
0.41421356237309503
10
-9.9999999999999982
20
8
10
-10
20
3.2999999999999918
42
0.41421356237309503
10
-9.1999999999999993
20
2.4999999999999929
10
-8.4999999999999964
20
2.4999999948148122
42
0.41421356237309287
10
-8.1999999999999957
20
2.799999994814808
10
-8.1999999960690495
20
4.9175883948148114
42
-0.66817863791930077
10
-6.7789845019654837
20
5.5061922848148086
10
-4.528679659987902
20
3.2558874467923853
42
-0.19891236737965914
10
-3.6500000035475462
20
1.1345671032327374
10
-3.650000006903598
20
-1.1345671067672543
42
-0.19891236737965731
10
-4.5286796618695018
20
-3.2558874467672592
10
-6.7789844995531663
20
-5.5061922890835868
42
-0.66817863791930465
10
-8.2000000037225895
20
-4.9175883949141843
10
-8.2000000037225895
20
-2.7999999949141854
42
0.41421356237309503
10
-8.500000003722592
20
-2.4999999949141833
10
-9.2000000037225949
20
-2.4999999949141829
42
0.41421356237309503
10
-10.000000003722596
20
-3.2999999949141836
10
-10.000000003722587
20
-7.9999999949141829
42
0.41421356237309503
10
-8.0000000037225938
20
-9.9999999949141838
10
-3.3000000037225963
20
-9.999999994914182
42
0.41421356237309503
10
-2.5000000037225973
20
-9.1999999949141849
10
-2.49999999853741
20
-8.4999999949141856
42
0.41421356237309503
10
-2.7999999985374036
20
-8.1999999949141849
10
-4.9175883985374016
20
-8.1999999909832404
42
-0.66817863791929721
10
-5.5061922885374051
20
-6.7789844968796835
10
-3.2558874505149986
20
-4.5286796549021275
42
-0.19891236737966009
10
-1.1345671069553462
20
-3.6499999984617566
10
1.1345671030446609
20
-3.6500000018178125
42
-0.19891236737965834
10
3.2558874430446743
20
-4.5286796567837246
10
5.5061922853610046
20
-6.7789844944673883
42
-0.66817863791930021
10
4.9175883911915941
20
-8.1999999986368053
10
2.7999999911915818
20
-8.1999999986368053
42
0.41421356237309503
10
2.4999999911915798
20
-8.499999998636806
10
2.4999999911915971
20
-9.1999999986368053
42
0.41421356237309503
10
3.2999999911915889
20
-9.999999998636806
10
16.699999991191593
20
-9.9999999986368042
42
0.41421356237309503
10
17.49999999119159
20
-9.1999999986368053
10
17.499999996376772
20
-8.499999998636806
42
0.41421356237309503
10
17.199999996376771
20
-8.1999999986368071
10
15.082411596376772
20
-8.1999999947058626
42
-0.66817863791930165
10
14.493807706376778
20
-6.7789845006022986
10
16.744112544399222
20
-4.5286796586247462
42
-0.1989123673796579
10
18.865432887958853
20
-3.6500000021843921
10
21.134567097958854
20
-3.6500000055404493
42
-0.19891236737965845
10
23.255887437958869
20
-4.5286796605063628
10
25.506192280275194
20
-6.7789844981900309
42
-0.66817863791930021
10
24.917588386105784
20
-8.200000002359447
10
22.799999986105778
20
-8.2000000023594453
42
0.41421356237309503
10
22.499999986105777
20
-8.5000000023594477
10
22.499999986105777
20
-9.200000002359447
42
0.41421356237309503
10
23.299999986105778
20
-10.000000002359446
10
36.699999986105787
20
-10.000000002359446
42
0.41421356237309503
10
37.499999986105784
20
-9.200000002359447
10
37.49999999129097
20
-8.5000000023594495
42
0.41421356237309503
10
37.199999991290973
20
-8.2000000023594488
10
35.082411591290978
20
-8.1999999984285026
42
-0.66817863791929888
10
34.493807701290976
20
-6.778984504324943
10
36.744112539313406
20
-4.5286796623473879
42
-0.19891236737965881
10
38.865432882873051
20
-3.6500000059070259
10
41.134567092873056
20
-3.6500000092630849
42
-0.19891236737965742
10
43.25588743287306
20
-4.5286796642289895
10
45.506192275189392
20
-6.7789845019126647
42
-0.66817863791929888
10
44.917588381019975
20
-8.2000000060820781
10
42.79999998101998
20
-8.2000000060820781
42
0.41421356237309503
10
42.499999981019975
20
-8.5000000060820806
10
42.499999981019975
20
-9.2000000060820781
42
0.41421356237309503
10
43.299999981019972
20
-10.000000006082079
10
56.699999981019985
20
-10.000000006082079
42
0.41421356237309503
10
57.499999981019982
20
-9.2000000060820799
10
57.499999986205168
20
-8.5000000060820824
42
0.41421356237309503
10
57.199999986205171
20
-8.2000000060820817
10
55.082411586205176
20
-8.200000002151139
42
-0.66817863791930276
10
54.493807696205181
20
-6.7789845080475706
10
56.744112534227618
20
-4.5286796660700208
42
-0.19891236737965914
10
58.865432877787271
20
-3.6500000096296636
10
61.134567087787268
20
-3.6500000129857204
42
-0.19891236737965742
10
63.255887427787272
20
-4.528679667951625
10
65.506192270103597
20
-6.7789845056352966
42
-0.66817863791929621
10
64.917588375934187
20
-8.2000000098047074
10
62.799999975934185
20
-8.2000000098047074
42
0.41421356237309503
10
62.499999975934188
20
-8.5000000098047082
10
62.499999975934188
20
-9.2000000098047074
42
0.41421356237309503
10
63.299999975934185
20
-10.000000009804708
10
67.999999975934188
20
-10.000000009804708
42
0.41421356237309503
10
69.999999975934216
20
-8.000000009804678
10
69.999999975934216
20
-3.3000000098046778
42
0.41421356237316331
10
69.199999975934134
20
-2.5000000098045989
10
68.499999975934131
20
-2.5000000046194151
42
0.41421356237309503
10
68.199999975934119
20
-2.800000004619414
10
68.199999972003184
20
-4.9175884046194138
42
-0.66817863791929999
10
66.778984477899613
20
-5.5061922946194137
10
64.52867963592206
20
-3.2558874565969682
42
-0.1989123673796579
10
63.649999979481713
20
-1.1345671130373336
10
63.64999998283777
20
1.1345670969626662
42
-0.19891236737965776
10
64.528679637803677
20
3.2558874369626722
10
66.778984475487349
20
5.5061922792790128
42
-0.6681786379192941
10
68.199999979656752
20
4.9175883851095925
10
68.199999979656752
20
2.7999999851095936
42
0.41421356237309503
10
68.499999979656764
20
2.4999999851095915
10
69.199999979656766
20
2.4999999851095911
42
0.41421356237309503
10
69.999999979656764
20
3.2999999851095918
10
69.999999979656764
20
7.9999999851095893
42
0.41421356237309503
10
67.999999979656764
20
9.9999999851095893
10
63.299999979656754
20
9.9999999851095911
42
0.41421356237309503
0
LWPOLYLINE
5
101
100
AcDbEntity
8
0
100
AcDbPolyline
90
12
70
1
43
0.0
10
3.6499993427967112
20
-1.1345673399999994
42
0.19891236737965862
10
4.5286789977626265
20
-3.2558876800000158
10
8.5857859977626223
20
-7.3129946800000099
42
0.41421356237309548
10
11.414213117762628
20
-7.312994680000009
10
15.471320119740204
20
-3.2558876819775859
42
0.19891236739973109
10
16.34999977578504
20
-1.1345673380224064
10
16.349999772988312
20
1.1345666619775923
42
0.19891236737965812
10
15.471320118022422
20
3.2558870019775821
10
11.414213118022412
20
7.312994001977577
42
0.41421356237309304
10
8.5857859980224163
20
7.3129940019775797
10
4.528678996440358
20
3.2558870035596406
42
0.19891236737965795
10
3.6499993399999964
20
1.1345666600000004
0
LWPOLYLINE
5
102
100
AcDbEntity
8
0
100
AcDbPolyline
90
12
70
1
43
0.0
10
23.649999342796715
20
-1.1345673400000003
42
0.19891236737965762
10
24.528678997762619
20
-3.2558876800000078
10
28.585785997762624
20
-7.3129946800000063
42
0.41421356237309503
10
31.414213117762628
20
-7.3129946800000045
10
35.471320119740206
20
-3.2558876819775806
42
0.19891236739972995
10
36.349999775785037
20
-1.1345673380224097
10
36.349999772988312
20
1.1345666619775905
42
0.19891236737965809
10
35.471320118022419
20
3.2558870019775754
10
31.414213118022417
20
7.3129940019775752
42
0.4142135623730932
10
28.585785998022423
20
7.3129940019775797
10
24.528678996440362
20
3.2558870035596357
42
0.19891236737965726
10
23.649999340000001
20
1.1345666600000004
0
LWPOLYLINE
5
103
100
AcDbEntity
8
0
100
AcDbPolyline
90
12
70
1
43
0.0
10
43.649999342796718
20
-1.1345673400000003
42
0.19891236737965759
10
44.528678997762626
20
-3.2558876800000078
10
48.585785997762642
20
-7.3129946800000081
42
0.41421356237309442
10
51.414213117762635
20
-7.3129946800000027
10
55.471320119740277
20
-3.2558876819775318
42
0.19891236739972393
10
56.349999775785051
20
-1.1345673380224086
10
56.349999772988312
20
1.134566661977592
42
0.19891236737965759
10
55.471320118022419
20
3.2558870019775776
10
51.414213118022417
20
7.312994001977577
42
0.41421356237309304
10
48.585785998022423
20
7.3129940019775841
10
44.52867899644037
20
3.2558870035596401
42
0.19891236737965784
10
43.649999340000001
20
1.1345666600000004
0
CIRCLE
5
104
100
AcDbEntity
8
0
100
AcDbCircle
10
-60
20
0
30
0
40
2.1499999999999999
210
0
220
0
230
-1
0
CIRCLE
5
105
100
AcDbEntity
8
0
100
AcDbCircle
10
-40
20
0
30
0
40
2.1499999999999999
210
0
220
0
230
-1
0
CIRCLE
5
106
100
AcDbEntity
8
0
100
AcDbCircle
10
-20
20
0
30
0
40
2.1499999999999999
210
0
220
0
230
-1
0
CIRCLE
5
107
100
AcDbEntity
8
0
100
AcDbCircle
10
0
20
0
30
0
40
2.1499999999999999
210
0
220
0
230
-1
0
LWPOLYLINE
5
108
100
AcDbEntity
8
0
100
AcDbPolyline
90
168
70
1
43
0.0
10
62.499999979656749
20
9.1999999851095922
10
62.499999974471585
20
8.4999999851095946
42
0.41421356237309503
10
62.799999974471575
20
8.1999999851095922
10
64.917588374471592
20
8.1999999811786335
42
-0.66817863791929921
10
65.506192264471565
20
6.7789844870750615
10
63.255887426449121
20
4.5286796450974807
42
-0.1989123673796564
10
61.134567082889504
20
3.6499999886571395
10
58.8654328728895
20
3.649999992013202
42
-0.19891236737965731
10
56.744112532889488
20
4.5286796469791053
10
54.493807690573171
20
6.7789844846627627
42
-0.66817863791930288
10
55.082411584742573
20
8.1999999888321824
10
57.199999984742576
20
8.1999999888321824
42
0.41421356237309398
10
57.49999998474258
20
8.4999999888321831
10
57.49999998474258
20
9.1999999888321842
42
0.41421356237309587
10
56.699999984742576
20
9.9999999888321867
10
43.29999998474257
20
9.9999999888321796
42
0.41421356237309992
10
42.499999984742573
20
9.1999999888321842
10
42.499999979557387
20
8.4999999888321831
42
0.41421356237310802
10
42.799999979557384
20
8.1999999888321859
10
44.917588379557372
20
8.1999999849012255
42
-0.66817863791929621
10
45.506192269557381
20
6.7789844907976704
10
43.25588743153493
20
4.5286796488200878
42
-0.19891236737965684
10
41.134567087975299
20
3.6499999923797422
10
38.865432877975302
20
3.6499999957358003
42
-0.19891236737965812
10
36.74411253797529
20
4.5286796507017106
10
34.493807695658973
20
6.7789844883853672
42
-0.66817863791930565
10
35.082411589828375
20
8.1999999925547922
10
37.199999989828385
20
8.1999999925547922
42
0.41421356237309614
10
37.499999989828382
20
8.4999999925547911
10
37.499999989828382
20
9.1999999925547904
42
0.41421356237309176
10
36.699999989828385
20
9.9999999925547911
10
23.299999989828372
20
9.9999999925547911
42
0.4142135623730922
10
22.499999989828375
20
9.1999999925547939
10
22.499999984643189
20
8.4999999925547964
42
0.41421356237309503
10
22.799999984643193
20
8.1999999925547975
10
24.917588384643192
20
8.1999999886238371
42
-0.66817863791929721
10
25.506192274643187
20
6.7789844945202757
10
23.255887436620732
20
4.528679652542694
42
-0.19891236737965673
10
21.134567093061104
20
3.6499999961023528
10
18.865432883061107
20
3.6499999994584109
42
-0.1989123673796579
10
16.7441125430611
20
4.5286796544243204
10
14.493807700744776
20
6.7789844921079823
42
-0.66817863791930021
10
15.082411594914188
20
8.1999999962773984
10
17.199999994914187
20
8.1999999962773966
42
0.41421356237308965
10
17.499999994914187
20
8.4999999962774009
10
17.499999994914184
20
9.1999999962773984
42
0.41421356237309465
10
16.699999994914183
20
9.9999999962773991
10
3.2999999949141845
20
9.9999999962773991
42
0.41421356237309442
10
2.4999999949141856
20
9.1999999962773984
10
2.4999999897290071
20
8.4999999962774027
42
0.41421356237309126
10
2.7999999897290007
20
8.1999999962774037
10
4.9175883897289996
20
8.1999999923464415
42
-0.66817863791929677
10
5.506192279729003
20
6.7789844982428837
10
3.2558874417065442
20
4.5286796562652949
42
-0.19891236737965592
10
1.1345670981469258
20
3.6499999998249577
10
-1.134567111853074
20
3.6500000031810158
42
-0.19891236737965742
10
-3.2558874518530798
20
4.5286796581469213
10
-5.5061922941694164
20
6.7789844958305796
42
-0.6681786379193031
10
-4.9175884000000103
20
8.2000000000000011
10
-2.8000000000000025
20
8.2000000000000011
42
0.41421356237309237
10
-2.5000000000000004
20
8.5
10
-2.5
20
9.1999999999999993
42
0.41421356237309481
10
-3.3000000000000007
20
10
10
-7.9999999999999982
20
10
42
0.41421356237309492
10
-9.9999999999999982
20
8
10
-10
20
3.2999999999999918
42
0.41421356237309442
10
-9.1999999999999993
20
2.4999999999999929
10
-8.4999999999999964
20
2.4999999948148122
42
0.41421356237309076
10
-8.1999999999999957
20
2.799999994814808
10
-8.1999999960690495
20
4.9175883948148114
42
-0.66817863791930077
10
-6.7789845019654837
20
5.5061922848148086
10
-4.5286796599879011
20
3.2558874467923848
42
-0.19891236737965914
10
-3.6500000035475462
20
1.1345671032327367
10
-3.6500000069035976
20
-1.1345671067672545
42
-0.19891236737965731
10
-4.5286796618695018
20
-3.2558874467672601
10
-6.7789844995531663
20
-5.5061922890835868
42
-0.66817863791930465
10
-8.2000000037225895
20
-4.9175883949141843
10
-8.2000000037225895
20
-2.7999999949141854
42
0.41421356237309237
10
-8.500000003722592
20
-2.4999999949141833
10
-9.2000000037225949
20
-2.4999999949141829
42
0.41421356237309481
10
-10.000000003722596
20
-3.2999999949141836
10
-10.000000003722587
20
-7.9999999949141829
42
0.4142135623730952
10
-8.0000000037225938
20
-9.9999999949141838
10
-3.3000000037225963
20
-9.999999994914182
42
0.41421356237309481
10
-2.5000000037225973
20
-9.1999999949141849
10
-2.49999999853741
20
-8.4999999949141856
42
0.41421356237309453
10
-2.7999999985374036
20
-8.1999999949141849
10
-4.9175883985374016
20
-8.1999999909832404
42
-0.66817863791929721
10
-5.5061922885374051
20
-6.7789844968796835
10
-3.2558874505149991
20
-4.5286796549021284
42
-0.1989123673796602
10
-1.1345671069553456
20
-3.6499999984617566
10
1.1345671030446609
20
-3.6500000018178111
42
-0.19891236737965834
10
3.2558874430446751
20
-4.5286796567837246
10
5.5061922853610046
20
-6.7789844944673883
42
-0.66817863791930021
10
4.9175883911915941
20
-8.1999999986368053
10
2.7999999911915818
20
-8.1999999986368053
42
0.41421356237309237
10
2.4999999911915798
20
-8.499999998636806
10
2.4999999911915971
20
-9.1999999986368053
42
0.41421356237309481
10
3.2999999911915889
20
-9.999999998636806
10
16.699999991191593
20
-9.9999999986368042
42
0.41421356237309664
10
17.49999999119159
20
-9.1999999986368053
10
17.499999996376772
20
-8.499999998636806
42
0.41421356237309725
10
17.199999996376771
20
-8.1999999986368088
10
15.082411596376772
20
-8.1999999947058626
42
-0.66817863791930188
10
14.493807706376778
20
-6.7789845006022977
10
16.744112544399222
20
-4.5286796586247462
42
-0.1989123673796579
10
18.865432887958853
20
-3.6500000021843921
10
21.134567097958854
20
-3.6500000055404493
42
-0.19891236737965845
10
23.255887437958869
20
-4.5286796605063628
10
25.506192280275194
20
-6.7789844981900309
42
-0.66817863791930021
10
24.917588386105784
20
-8.200000002359447
10
22.799999986105778
20
-8.2000000023594453
42
0.41421356237309614
10
22.499999986105777
20
-8.5000000023594477
10
22.499999986105777
20
-9.200000002359447
42
0.41421356237309176
10
23.299999986105778
20
-10.000000002359446
10
36.699999986105787
20
-10.000000002359446
42
0.4142135623730922
10
37.499999986105777
20
-9.200000002359447
10
37.49999999129097
20
-8.5000000023594495
42
0.41421356237309503
10
37.199999991290973
20
-8.2000000023594506
10
35.082411591290978
20
-8.1999999984285026
42
-0.66817863791929921
10
34.493807701290976
20
-6.7789845043249422
10
36.744112539313406
20
-4.5286796623473879
42
-0.19891236737965881
10
38.865432882873051
20
-3.6500000059070259
10
41.134567092873056
20
-3.6500000092630849
42
-0.19891236737965742
10
43.25588743287306
20
-4.5286796642289895
10
45.506192275189392
20
-6.7789845019126647
42
-0.66817863791929888
10
44.917588381019975
20
-8.2000000060820781
10
42.79999998101998
20
-8.2000000060820781
42
0.41421356237309398
10
42.499999981019975
20
-8.5000000060820806
10
42.499999981019975
20
-9.2000000060820781
42
0.41421356237309587
10
43.299999981019972
20
-10.000000006082082
10
56.699999981019985
20
-10.000000006082079
42
0.41421356237309587
10
57.499999981019982
20
-9.2000000060820799
10
57.499999986205168
20
-8.5000000060820824
42
0.41421356237309503
10
57.199999986205171
20
-8.2000000060820799
10
55.082411586205176
20
-8.200000002151139
42
-0.66817863791930221
10
54.493807696205181
20
-6.7789845080475715
10
56.744112534227618
20
-4.5286796660700208
42
-0.19891236737965914
10
58.865432877787271
20
-3.6500000096296636
10
61.134567087787268
20
-3.6500000129857204
42
-0.19891236737965742
10
63.255887427787272
20
-4.528679667951625
10
65.506192270103597
20
-6.7789845056352966
42
-0.66817863791929621
10
64.917588375934187
20
-8.2000000098047074
10
62.799999975934185
20
-8.2000000098047074
42
0.41421356237309825
10
62.499999975934188
20
-8.5000000098047082
10
62.499999975934188
20
-9.2000000098047074
42
0.41421356237309587
10
63.299999975934185
20
-10.00000000980471
10
67.999999975934188
20
-10.000000009804708
42
0.41421356237309698
10
69.99999997593423
20
-8.000000009804678
10
69.999999975934216
20
-3.3000000098046778
42
0.41421356237316315
10
69.199999975934134
20
-2.5000000098045976
10
68.499999975934131
20
-2.5000000046194151
42
0.41421356237309503
10
68.199999975934119
20
-2.800000004619414
10
68.199999972003184
20
-4.9175884046194138
42
-0.66817863791930066
10
66.778984477899613
20
-5.506192294619412
10
64.52867963592206
20
-3.2558874565969678
42
-0.1989123673796579
10
63.649999979481713
20
-1.1345671130373329
10
63.64999998283777
20
1.1345670969626664
42
-0.19891236737965776
10
64.528679637803677
20
3.2558874369626727
10
66.778984475487349
20
5.5061922792790128
42
-0.6681786379192941
10
68.199999979656752
20
4.9175883851095925
10
68.199999979656752
20
2.7999999851095936
42
0.41421356237309453
10
68.499999979656764
20
2.4999999851095915
10
69.199999979656766
20
2.4999999851095911
42
0.41421356237309626
10
69.999999979656764
20
3.2999999851095918
10
69.999999979656764
20
7.9999999851095893
42
0.4142135623730947
10
67.999999979656764
20
9.9999999851095893
10
63.299999979656754
20
9.9999999851095911
42
0.41421356237309992
0
LWPOLYLINE
5
109
100
AcDbEntity
8
0
100
AcDbPolyline
90
12
70
1
43
0.0
10
3.6499993427967126
20
-1.1345673399999987
42
0.19891236737965851
10
4.5286789977626265
20
-3.2558876800000158
10
8.5857859977626223
20
-7.3129946800000099
42
0.41421356237309548
10
11.414213117762628
20
-7.312994680000009
10
15.471320119740202
20
-3.2558876819775859
42
0.19891236739973062
10
16.34999977578504
20
-1.1345673380224064
10
16.349999772988312
20
1.1345666619775914
42
0.19891236737965823
10
15.471320118022422
20
3.2558870019775821
10
11.414213118022412
20
7.312994001977577
42
0.4142135623730932
10
8.5857859980224163
20
7.3129940019775797
10
4.5286789964403562
20
3.2558870035596401
42
0.1989123673796577
10
3.6499993399999964
20
1.1345666600000004
0
LWPOLYLINE
5
110
100
AcDbEntity
8
0
100
AcDbPolyline
90
12
70
1
43
0.0
10
23.649999342796715
20
-1.1345673399999994
42
0.19891236737965912
10
24.528678997762619
20
-3.2558876800000092
10
28.585785997762624
20
-7.3129946800000063
42
0.41421356237309481
10
31.414213117762628
20
-7.3129946800000045
10
35.471320119740206
20
-3.2558876819775806
42
0.19891236739972951
10
36.349999775785037
20
-1.1345673380224097
10
36.349999772988312
20
1.1345666619775927
42
0.19891236737965801
10
35.471320118022419
20
3.2558870019775754
10
31.41421311802242
20
7.3129940019775752
42
0.41421356237309437
10
28.585785998022423
20
7.3129940019775797
10
24.528678996440362
20
3.2558870035596343
42
0.19891236737965459
10
23.649999340000001
20
1.1345666600000004
0
LWPOLYLINE
5
111
100
AcDbEntity
8
0
100
AcDbPolyline
90
12
70
1
43
0.0
10
43.649999342796718
20
-1.1345673399999994
42
0.19891236737965154
10
44.528678997762626
20
-3.2558876800000069
10
48.585785997762642
20
-7.3129946800000063
42
0.41421356237309503
10
51.414213117762635
20
-7.3129946800000027
10
55.471320119740277
20
-3.2558876819775309
42
0.19891236739972962
10
56.349999775785051
20
-1.1345673380224086
10
56.349999772988312
20
1.134566661977594
42
0.19891236737965981
10
55.471320118022419
20
3.2558870019775776
10
51.41421311802241
20
7.3129940019775788
42
0.4142135623730947
10
48.585785998022423
20
7.3129940019775841
10
44.52867899644037
20
3.2558870035596383
42
0.19891236737965717
10
43.649999340000001
20
1.1345666600000004
0
CIRCLE
5
112
100
AcDbEntity
8
0
100
AcDbCircle
10
60
20
0
30
0
40
2.1499999999999999
210
0
220
-0
230
1
0
CIRCLE
5
113
100
AcDbEntity
8
0
100
AcDbCircle
10
40
20
0
30
0
40
2.1499999999999999
210
0
220
-0
230
1
0
CIRCLE
5
114
100
AcDbEntity
8
0
100
AcDbCircle
10
20
20
0
30
0
40
2.1499999999999999
210
0
220
-0
230
1
0
CIRCLE
5
115
100
AcDbEntity
8
0
100
AcDbCircle
10
0
20
0
30
0
40
2.1499999999999999
210
0
220
-0
230
1
0
ENDSEC
0
SECTION
2
OBJECTS
0
DICTIONARY
5
C
100
AcDbDictionary
3
ACAD_GROUP
350
D
3
ACAD_MLINESTYLE
350
17
0
DICTIONARY
5
D
100
AcDbDictionary
0
DICTIONARY
5
1A
330
C
100
AcDbDictionary
0
DICTIONARY
5
17
100
AcDbDictionary
0
ENDSEC
0
EOF
