0
SECTION
2
HEADER
9
$INSUNITS
70
4
9
$ACADVER
1
AC1014
9
$HANDSEED
5
FFFF
0
ENDSEC
0
SECTION
2
TABLES
0
TABLE
2
VPORT
5
8
100
AcDbSymbolTable
0
ENDTAB
0
TABLE
2
LTYPE
5
5
100
AcDbSymbolTable
0
LTYPE
5
14
100
AcDbSymbolTableRecord
100
AcDbLinetypeTableRecord
2
BYBLOCK
70
0
0
LTYPE
5
15
100
AcDbSymbolTableRecord
100
AcDbLinetypeTableRecord
2
BYLAYER
70
0
0
LTYPE
5
16
100
AcDbSymbolTableRecord
100
AcDbLinetypeTableRecord
2
DASHED
70
0
3
Dashed __ __ __ __ __ __ __ __ __ __ __ __ __ _
72
65
73
2
40
0.75
49
0.5
74
0
49
-0.25
74
0
0
ENDTAB
0
TABLE
2
LAYER
5
2
100
AcDbSymbolTable
70
3
0
LAYER
5
50
100
AcDbSymbolTableRecord
100
AcDbLayerTableRecord
2
1
70
0
62
7
6
DASHED
0
LAYER
5
51
100
AcDbSymbolTableRecord
100
AcDbLayerTableRecord
2
0
70
0
62
7
6
CONTINUOUS
0
ENDTAB
0
TABLE
2
STYLE
5
3
100
AcDbSymbolTable
70
1
0
STYLE
5
11
100
AcDbSymbolTableRecord
100
AcDbTextStyleTableRecord
2
STANDARD
70
0
0
ENDTAB
0
TABLE
2
VIEW
5
6
100
AcDbSymbolTable
70
0
0
ENDTAB
0
TABLE
2
UCS
5
7
100
AcDbSymbolTable
70
0
0
ENDTAB
0
TABLE
2
APPID
5
9
100
AcDbSymbolTable
70
2
0
APPID
5
12
100
AcDbSymbolTableRecord
100
AcDbRegAppTableRecord
2
ACAD
70
0
0
ENDTAB
0
TABLE
2
DIMSTYLE
5
A
100
AcDbSymbolTable
70
1
0
ENDTAB
0
TABLE
2
BLOCK_RECORD
5
1
100
AcDbSymbolTable
70
1
0
BLOCK_RECORD
5
1F
100
AcDbSymbolTableRecord
100
AcDbBlockTableRecord
2
*MODEL_SPACE
0
BLOCK_RECORD
5
1B
100
AcDbSymbolTableRecord
100
AcDbBlockTableRecord
2
*PAPER_SPACE
0
ENDTAB
0
ENDSEC
0
SECTION
2
BLOCKS
0
BLOCK
5
20
100
AcDbEntity
100
AcDbBlockBegin
2
*MODEL_SPACE
0
ENDBLK
5
21
100
AcDbEntity
100
AcDbBlockEnd
0
BLOCK
5
1C
100
AcDbEntity
100
AcDbBlockBegin
2
*PAPER_SPACE
0
ENDBLK
5
1D
100
AcDbEntity
100
AcDbBlockEnd
0
ENDSEC
0
SECTION
2
ENTITIES
0
LWPOLYLINE
5
100
100
AcDbEntity
8
0
100
AcDbPolyline
90
136
70
1
43
0.0
10
-9.9999999999979394
20
-8.4999999999973852
42
0.414213562373761
10
-8.4999999999985221
20
-9.9999999999979394
10
-3.8500002274992084
20
-9.9999999999977263
42
0.41421356237559404
10
-3.6500002274989809
20
-9.7999999999984766
10
-3.6500002274988219
20
-9.4999999999976126
10
-3.299999999998704
20
-9.4999999999976126
42
0.41421356237642482
10
-3.099999999999365
20
-9.2999999999989313
10
-3.0999999999983174
20
-8.9999996733979515
42
0.41421356237309503
10
-3.5999999999984311
20
-8.4999996733982286
10
-5.5000006859984296
20
-8.4999996733984595
42
-0.41421356237309503
10
-6.0000006859985966
20
-7.9999996733982925
10
-6.0000006859992361
20
-7.2677666262990215
42
-0.19891237999983238
10
-5.853554059398915
20
-6.9142132184991727
10
-3.5857872120650978
20
-4.6464465921771438
42
-0.19891235471664576
10
-3.2322338386984484
20
-4.4999999999984475
10
-0.95359031179953035
20
-4.4999999999976126
42
0.13165249125578293
10
-0.85359031599908419
20
-4.4732050831984171
10
-0.10000004457734457
20
-4.0381195615827581
42
-0.26794917942292579
10
0.10000004460082546
20
-4.0381195615989407
10
0.85359031602195046
20
-4.4732050831930792
42
0.13165249139418017
10
0.95359031180123566
20
-4.4999999999990701
10
3.2322338387012906
20
-4.4999999999985354
42
-0.19891235471033961
10
3.5857872121010272
20
-4.6464465921986262
10
5.8535540593675917
20
-6.9142132184782001
42
-0.1989123800420077
10
6.0000006860012611
20
-7.2677666262990215
10
6.0000006860014388
20
-7.9999996733982925
42
-0.41421356237309503
10
5.5000006860012718
20
-8.4999996733984595
10
3.6000000000012733
20
-8.4999996733978378
42
0.41421356237309503
10
3.1000000000015504
20
-8.9999996733979515
10
3.1000000000011596
20
-9.2999999999989313
42
0.41421356237725732
10
3.3000000000009777
20
-9.4999999999987139
10
3.6500002275005272
20
-9.4999999999976126
10
3.6500002275005272
20
-9.7999999999984766
42
0.41421356237642482
10
3.8500002275009138
20
-9.9999999999988276
10
8.5000000000013642
20
-9.9999999999977263
42
0.41421356237353901
10
10.000000000000533
20
-8.4999999999973852
10
10.000000000001705
20
-3.8499996045993612
42
0.41421356237475992
10
9.8000000000013188
20
-3.6499996045992589
10
9.4999997320013563
20
-3.6499996045984062
10
9.4999997320013563
20
-3.299999999998704
42
0.41421356237725732
10
9.2999997320004013
20
-3.099999999999365
10
8.9999997320001057
20
-3.0999999999994543
42
0.41421356237309503
10
8.4999997319999387
20
-3.599999999999568
10
8.4999997320017506
20
-5.4999996045995658
42
-0.41421356237309503
10
7.9999997320015837
20
-5.9999996045997328
10
7.2677666850012201
20
-5.9999996045990578
42
-0.19891236735510393
10
6.9142132944017263
20
-5.8535529951984913
10
4.6464463982076678
20
-3.5857860990912558
42
-0.1989123673792402
10
4.4999997888012011
20
-3.2322327084978042
10
4.4999997888015741
20
-0.95358930169822997
42
0.13165250404284176
10
4.4732048671009146
20
-0.85358929749827861
10
4.0381198410453942
20
-0.099999969077478462
42
-0.26794920523155508
10
4.0381198409999541
20
0.099999969102229136
10
4.4732048671215807
20
0.85358929748224455
42
0.13165250378293866
10
4.4999997888012357
20
0.95358930170220901
10
4.4999997888010412
20
3.2322327085006464
42
-0.19891236735393752
10
4.6464463982007898
20
3.5857860991015462
10
6.9142132944072294
20
5.853552995194125
42
-0.19891236737986689
10
7.2677666850012201
20
5.9999996046013138
10
7.9999997320015837
20
5.9999996046008697
42
-0.41421356237309503
10
8.4999997320017506
20
5.4999996046007027
10
8.4999997320016973
20
3.6000000000007049
42
0.41421356237309503
10
8.9999997320001057
20
3.1000000000005379
10
9.2999997320004013
20
3.1000000000011596
42
0.41421356237725732
10
9.4999997320003082
20
3.3000000000009777
10
9.4999997320013563
20
3.6499996046018168
10
9.8000000000013188
20
3.6499996046012484
42
0.41421356237392748
10
10.000000000001421
20
3.8499996046010665
10
10.000000000001705
20
8.5000000000025011
42
0.41421356237309503
10
8.5000000000013642
20
10.00000000000167
10
3.8500002275009138
20
10.000000000002274
42
0.41421356237559237
10
3.6500002275008114
20
9.8000000000013188
10
3.6500002275005272
20
9.50000000000216
10
3.3000000000009777
20
9.50000000000216
42
0.41421356237475992
10
3.1000000000014438
20
9.3000000000012051
10
3.1000000000011596
20
8.9999996734013621
42
0.41421356237309503
10
3.6000000000012733
20
8.4999996734016392
10
5.5000006860012718
20
8.4999996734018701
42
-0.41421356237309503
10
6.0000006860014388
20
7.9999996734017031
10
6.0000006860008881
20
7.2677666263012952
42
-0.19891237999920558
10
5.8535540594007696
20
6.9142132185007288
10
3.5857872120669088
20
4.6464465921810181
42
-0.19891235471739493
10
3.2322338387012906
20
4.5000000000016804
10
0.95359031180123566
20
4.50000000000216
42
0.1316524912478754
10
0.85359031600189883
20
4.4732050832008925
10
0.10000004458015709
20
4.0381195615846668
42
-0.2679491794207442
10
-0.10000004459837972
20
4.0381195616010954
10
-0.85359031601967672
20
4.4732050831953529
42
0.13165249139080459
10
-0.95359031179953035
20
4.5000000000023199
10
-3.2322338386984484
20
4.5000000000016263
42
-0.1989123547100087
10
-3.5857872120985288
20
4.6464465922011247
10
-5.8535540593653632
20
6.914213218480997
42
-0.19891238004334788
10
-6.0000006859994137
20
7.2677666263012952
10
-6.0000006859985966
20
7.9999996734017031
42
-0.41421356237309503
10
-5.5000006859984296
20
8.4999996734018701
10
-3.5999999999984311
20
8.4999996734012484
42
0.41421356237309503
10
-3.0999999999987082
20
8.9999996734013621
10
-3.0999999999983174
20
9.3000000000012051
42
0.41421356237642482
10
-3.299999999998704
20
9.5000000000014317
10
-3.6500002274988219
20
9.5000000000004547
10
-3.6500002274988219
20
9.8000000000013188
42
0.41421356237309503
10
-3.8500002274992084
20
10.000000000001297
10
-8.4999999999985221
20
10.000000000002274
42
0.41421356237309503
10
-9.9999999999981348
20
8.5000000000025011
10
-9.9999999999982947
20
3.8499996046010665
42
0.41421356237642321
10
-9.7999999999984784
20
3.6499996046019767
10
-9.4999997319979457
20
3.6499996046012484
10
-9.4999997319979457
20
3.3000000000009777
42
0.41421356237559237
10
-9.2999997319981276
20
3.1000000000014438
10
-8.9999997319984004
20
3.1000000000011596
42
0.41421356237309503
10
-8.4999997319982334
20
3.6000000000007049
10
-8.49999973199834
20
5.4999996046007027
42
-0.41421356237309503
10
-7.999999731998173
20
5.9999996046008697
10
-7.2677666849989464
20
5.9999996046007107
42
-0.19891236735376383
10
-6.9142132943998718
20
5.8535529952009142
10
-4.6464463982061277
20
3.5857860990950692
42
-0.19891236737903106
10
-4.4999997887994256
20
3.2322327085006464
10
-4.4999997887993004
20
0.95358930170220901
42
0.13165250404717954
10
-4.4732048670995432
20
0.85358929750092738
10
-4.038119841043434
20
0.099999969080139597
42
-0.26794920523574345
10
-4.038119840998629
20
-0.09999996909916721
10
-4.4732048671204439
20
-0.85358929747883394
42
0.13165250378667584
10
-4.4999997887996912
20
-0.95358930169822997
10
-4.4999997887992818
20
-3.2322327084978038
42
-0.19891236735444084
10
-4.6464463981986635
20
-3.5857860990979855
10
-6.9142132944052399
20
-5.853552995191567
42
-0.19891236737978035
10
-7.2677666849989464
20
-5.99999960459904
10
-7.999999731998173
20
-5.9999996045997328
42
-0.41421356237309503
10
-8.49999973199834
20
-5.4999996045995658
10
-8.4999997319982867
20
-3.599999999999568
42
0.41421356237309503
10
-8.9999997319984004
20
-3.099999999999401
10
-9.2999997319981276
20
-3.0999999999994543
42
0.41421356237892221
10
-9.4999997319991714
20
-3.299999999998704
10
-9.4999997319979457
20
-3.6499996045995431
10
-9.7999999999984766
20
-3.6499996045984062
42
0.41421356237309503
10
-9.9999999999988987
20
-3.8499996045993612
0
LWPOLYLINE
5
101
100
AcDbEntity
8
0
100
AcDbPolyline
90
16
70
1
43
0.0
10
-2.9921749534052577
20
-1.9099309615092888
42
0.10873711291487675
10
-1.9138950195101903
20
-2.9896409623584628
10
-1.2581854361473694
20
-2.4452953621731659
42
0.24217784522539565
10
1.2581854360996658
20
-2.4452953621977258
10
1.9138950195088431
20
-2.9896409623545801
42
0.10873711291524274
10
2.9921749534048558
20
-1.9099309615018001
10
2.4452954234871158
20
-1.258185317006417
42
0.24217781943834141
10
2.4452954234925528
20
1.2581853169962187
10
2.9921749534073405
20
1.9099309615118036
42
0.10873711291703679
10
1.9138950194854942
20
2.9896409623779618
10
1.258185436148592
20
2.4452953621750368
42
0.24217784522517044
10
-1.258185436098529
20
2.4452953622011364
10
-1.9138950195067264
20
2.9896409623564626
42
0.10873711291524964
10
-2.9921749534042874
20
1.9099309615046423
10
-2.4452954234843212
20
1.2581853170069945
42
0.24217781943849165
10
-2.4452954234908475
20
-1.2581853169950818
0
LWPOLYLINE
5
102
100
AcDbEntity
8
0
100
AcDbPolyline
90
136
70
1
43
0.0
10
-9.9999999999979394
20
-8.4999999999973852
42
0.41421356237375995
10
-8.4999999999985221
20
-9.9999999999979376
10
-3.8500002274992084
20
-9.9999999999977263
42
0.41421356237559487
10
-3.65000022749898
20
-9.7999999999984766
10
-3.6500002274988219
20
-9.4999999999976126
10
-3.299999999998704
20
-9.4999999999976126
42
0.41421356237642243
10
-3.099999999999365
20
-9.2999999999989313
10
-3.0999999999983174
20
-8.9999996733979515
42
0.4142135623730947
10
-3.5999999999984311
20
-8.4999996733982286
10
-5.5000006859984296
20
-8.4999996733984595
42
-0.41421356237309503
10
-6.0000006859985966
20
-7.9999996733982925
10
-6.0000006859992361
20
-7.2677666262990215
42
-0.19891237999983238
10
-5.853554059398915
20
-6.9142132184991727
10
-3.5857872120650978
20
-4.6464465921771438
42
-0.19891235471664576
10
-3.2322338386984484
20
-4.4999999999984475
10
-0.95359031179953035
20
-4.4999999999976126
42
0.1316524912557791
10
-0.85359031599908408
20
-4.4732050831984171
10
-0.10000004457734463
20
-4.038119561582759
42
-0.26794917942292606
10
0.10000004460082564
20
-4.0381195615989407
10
0.85359031602195046
20
-4.4732050831930792
42
0.13165249139417656
10
0.95359031180123555
20
-4.4999999999990701
10
3.2322338387012906
20
-4.4999999999985354
42
-0.19891235471033961
10
3.5857872121010272
20
-4.6464465921986262
10
5.8535540593675917
20
-6.9142132184782001
42
-0.1989123800420077
10
6.0000006860012611
20
-7.2677666262990215
10
6.0000006860014388
20
-7.9999996733982925
42
-0.41421356237309503
10
5.5000006860012718
20
-8.4999996733984595
10
3.6000000000012733
20
-8.4999996733978378
42
0.4142135623730947
10
3.1000000000015508
20
-8.9999996733979515
10
3.1000000000011596
20
-9.2999999999989313
42
0.41421356237725732
10
3.3000000000009777
20
-9.4999999999987139
10
3.6500002275005272
20
-9.4999999999976126
10
3.6500002275005272
20
-9.7999999999984766
42
0.41421356237642482
10
3.8500002275009138
20
-9.9999999999988276
10
8.5000000000013642
20
-9.9999999999977263
42
0.41421356237353885
10
10.000000000000533
20
-8.4999999999973852
10
10.000000000001705
20
-3.8499996045993612
42
0.41421356237476242
10
9.8000000000013188
20
-3.6499996045992593
10
9.4999997320013563
20
-3.6499996045984062
10
9.4999997320013563
20
-3.299999999998704
42
0.41421356237725326
10
9.2999997320004013
20
-3.0999999999993637
10
8.9999997320001057
20
-3.0999999999994543
42
0.4142135623730957
10
8.499999731999937
20
-3.599999999999568
10
8.4999997320017506
20
-5.4999996045995658
42
-0.41421356237309503
10
7.9999997320015837
20
-5.9999996045997328
10
7.2677666850012201
20
-5.9999996045990578
42
-0.19891236735510393
10
6.9142132944017263
20
-5.8535529951984913
10
4.6464463982076678
20
-3.5857860990912558
42
-0.1989123673792402
10
4.4999997888012011
20
-3.2322327084978042
10
4.4999997888015741
20
-0.95358930169822997
42
0.13165250404284251
10
4.4732048671009146
20
-0.85358929749827861
10
4.0381198410453942
20
-0.099999969077478532
42
-0.26794920523155524
10
4.0381198409999541
20
0.099999969102229164
10
4.4732048671215807
20
0.85358929748224455
42
0.13165250378294635
10
4.4999997888012357
20
0.95358930170220901
10
4.4999997888010412
20
3.2322327085006464
42
-0.19891236735393752
10
4.6464463982007898
20
3.5857860991015462
10
6.9142132944072294
20
5.853552995194125
42
-0.19891236737986689
10
7.2677666850012201
20
5.9999996046013138
10
7.9999997320015837
20
5.9999996046008697
42
-0.41421356237309503
10
8.4999997320017506
20
5.4999996046007027
10
8.4999997320016973
20
3.6000000000007049
42
0.4142135623730957
10
8.9999997320001057
20
3.1000000000005388
10
9.2999997320004013
20
3.1000000000011596
42
0.41421356237725326
10
9.4999997320003065
20
3.3000000000009777
10
9.4999997320013563
20
3.6499996046018168
10
9.8000000000013188
20
3.6499996046012484
42
0.41421356237393075
10
10.000000000001421
20
3.8499996046010665
10
10.000000000001705
20
8.5000000000025011
42
0.41421356237309437
10
8.5000000000013642
20
10.00000000000167
10
3.8500002275009138
20
10.000000000002274
42
0.41421356237559326
10
3.650000227500811
20
9.8000000000013188
10
3.6500002275005272
20
9.50000000000216
10
3.3000000000009777
20
9.50000000000216
42
0.41421356237476076
10
3.1000000000014434
20
9.3000000000012051
10
3.1000000000011596
20
8.9999996734013621
42
0.4142135623730947
10
3.6000000000012733
20
8.4999996734016392
10
5.5000006860012718
20
8.4999996734018701
42
-0.41421356237309503
10
6.0000006860014388
20
7.9999996734017031
10
6.0000006860008881
20
7.2677666263012952
42
-0.19891237999920558
10
5.8535540594007696
20
6.9142132185007288
10
3.5857872120669088
20
4.6464465921810181
42
-0.19891235471739493
10
3.2322338387012906
20
4.5000000000016804
10
0.95359031180123566
20
4.50000000000216
42
0.13165249124787351
10
0.85359031600189872
20
4.4732050832008925
10
0.10000004458015713
20
4.0381195615846677
42
-0.26794917942074442
10
-0.10000004459837991
20
4.0381195616010954
10
-0.85359031601967672
20
4.4732050831953529
42
0.13165249139080351
10
-0.95359031179953024
20
4.5000000000023199
10
-3.2322338386984484
20
4.5000000000016263
42
-0.1989123547100087
10
-3.5857872120985288
20
4.6464465922011247
10
-5.8535540593653632
20
6.914213218480997
42
-0.19891238004334788
10
-6.0000006859994137
20
7.2677666263012952
10
-6.0000006859985966
20
7.9999996734017031
42
-0.41421356237309503
10
-5.5000006859984296
20
8.4999996734018701
10
-3.5999999999984311
20
8.4999996734012484
42
0.4142135623730947
10
-3.0999999999987087
20
8.9999996734013621
10
-3.0999999999983174
20
9.3000000000012051
42
0.41421356237642809
10
-3.299999999998704
20
9.5000000000014317
10
-3.6500002274988219
20
9.5000000000004547
10
-3.6500002274988219
20
9.8000000000013188
42
0.41421356237309265
10
-3.8500002274992084
20
10.000000000001297
10
-8.4999999999985221
20
10.000000000002274
42
0.41421356237309614
10
-9.999999999998133
20
8.5000000000025011
10
-9.9999999999982947
20
3.8499996046010665
42
0.4142135623764216
10
-9.7999999999984784
20
3.6499996046019758
10
-9.4999997319979457
20
3.6499996046012484
10
-9.4999997319979457
20
3.3000000000009777
42
0.41421356237559159
10
-9.2999997319981276
20
3.1000000000014443
10
-8.9999997319984004
20
3.1000000000011596
42
0.4142135623730957
10
-8.4999997319982317
20
3.6000000000007049
10
-8.49999973199834
20
5.4999996046007027
42
-0.41421356237309503
10
-7.999999731998173
20
5.9999996046008697
10
-7.2677666849989464
20
5.9999996046007107
42
-0.19891236735376383
10
-6.9142132943998718
20
5.8535529952009142
10
-4.6464463982061277
20
3.5857860990950692
42
-0.19891236737903106
10
-4.4999997887994256
20
3.2322327085006464
10
-4.4999997887993004
20
0.95358930170220901
42
0.13165250404718101
10
-4.4732048670995432
20
0.85358929750092738
10
-4.038119841043434
20
0.099999969080139695
42
-0.26794920523574356
10
-4.038119840998629
20
-0.099999969099167238
10
-4.4732048671204439
20
-0.85358929747883394
42
0.1316525037866795
10
-4.4999997887996903
20
-0.95358930169822997
10
-4.4999997887992818
20
-3.2322327084978038
42
-0.19891236735444084
10
-4.6464463981986635
20
-3.5857860990979855
10
-6.9142132944052399
20
-5.853552995191567
42
-0.19891236737978035
10
-7.2677666849989464
20
-5.99999960459904
10
-7.999999731998173
20
-5.9999996045997328
42
-0.41421356237309503
10
-8.49999973199834
20
-5.4999996045995658
10
-8.4999997319982867
20
-3.599999999999568
42
0.4142135623730957
10
-8.9999997319984004
20
-3.0999999999994019
10
-9.2999997319981276
20
-3.0999999999994543
42
0.41421356237891976
10
-9.4999997319991714
20
-3.299999999998704
10
-9.4999997319979457
20
-3.6499996045995431
10
-9.7999999999984766
20
-3.6499996045984062
42
0.41421356237309176
10
-9.9999999999988987
20
-3.8499996045993612
0
LWPOLYLINE
5
103
100
AcDbEntity
8
0
100
AcDbPolyline
90
16
70
1
43
0.0
10
-2.9921749534052564
20
-1.9099309615092896
42
0.10873711291487696
10
-1.9138950195101905
20
-2.9896409623584637
10
-1.2581854361473688
20
-2.4452953621731659
42
0.24217784522539557
10
1.2581854360996658
20
-2.4452953621977258
10
1.9138950195088436
20
-2.9896409623545801
42
0.10873711291524354
10
2.9921749534048558
20
-1.9099309615018001
10
2.4452954234871158
20
-1.2581853170064154
42
0.24217781943834121
10
2.4452954234925528
20
1.2581853169962187
10
2.9921749534073423
20
1.9099309615118034
42
0.10873711291703633
10
1.9138950194854942
20
2.9896409623779618
10
1.25818543614859
20
2.4452953621750373
42
0.24217784522517002
10
-1.258185436098529
20
2.4452953622011364
10
-1.9138950195067281
20
2.9896409623564599
42
0.1087371129152499
10
-2.9921749534042874
20
1.9099309615046423
10
-2.4452954234843212
20
1.2581853170069941
42
0.24217781943849181
10
-2.4452954234908475
20
-1.2581853169950818
0
ENDSEC
0
SECTION
2
OBJECTS
0
DICTIONARY
5
C
100
AcDbDictionary
3
ACAD_GROUP
350
D
3
ACAD_MLINESTYLE
350
17
0
DICTIONARY
5
D
100
AcDbDictionary
0
DICTIONARY
5
1A
330
C
100
AcDbDictionary
0
DICTIONARY
5
17
100
AcDbDictionary
0
ENDSEC
0
EOF
