0
SECTION
2
HEADER
9
$INSUNITS
70
4
9
$ACADVER
1
AC1014
9
$HANDSEED
5
FFFF
0
ENDSEC
0
SECTION
2
TABLES
0
TABLE
2
VPORT
5
8
100
AcDbSymbolTable
0
ENDTAB
0
TABLE
2
LTYPE
5
5
100
AcDbSymbolTable
0
LTYPE
5
14
100
AcDbSymbolTableRecord
100
AcDbLinetypeTableRecord
2
BYBLOCK
70
0
0
LTYPE
5
15
100
AcDbSymbolTableRecord
100
AcDbLinetypeTableRecord
2
BYLAYER
70
0
0
LTYPE
5
16
100
AcDbSymbolTableRecord
100
AcDbLinetypeTableRecord
2
DASHED
70
0
3
Dashed __ __ __ __ __ __ __ __ __ __ __ __ __ _
72
65
73
2
40
0.75
49
0.5
74
0
49
-0.25
74
0
0
ENDTAB
0
TABLE
2
LAYER
5
2
100
AcDbSymbolTable
70
3
0
LAYER
5
50
100
AcDbSymbolTableRecord
100
AcDbLayerTableRecord
2
1
70
0
62
7
6
DASHED
0
LAYER
5
51
100
AcDbSymbolTableRecord
100
AcDbLayerTableRecord
2
0
70
0
62
7
6
CONTINUOUS
0
ENDTAB
0
TABLE
2
STYLE
5
3
100
AcDbSymbolTable
70
1
0
STYLE
5
11
100
AcDbSymbolTableRecord
100
AcDbTextStyleTableRecord
2
STANDARD
70
0
0
ENDTAB
0
TABLE
2
VIEW
5
6
100
AcDbSymbolTable
70
0
0
ENDTAB
0
TABLE
2
UCS
5
7
100
AcDbSymbolTable
70
0
0
ENDTAB
0
TABLE
2
APPID
5
9
100
AcDbSymbolTable
70
2
0
APPID
5
12
100
AcDbSymbolTableRecord
100
AcDbRegAppTableRecord
2
ACAD
70
0
0
ENDTAB
0
TABLE
2
DIMSTYLE
5
A
100
AcDbSymbolTable
70
1
0
ENDTAB
0
TABLE
2
BLOCK_RECORD
5
1
100
AcDbSymbolTable
70
1
0
BLOCK_RECORD
5
1F
100
AcDbSymbolTableRecord
100
AcDbBlockTableRecord
2
*MODEL_SPACE
0
BLOCK_RECORD
5
1B
100
AcDbSymbolTableRecord
100
AcDbBlockTableRecord
2
*PAPER_SPACE
0
ENDTAB
0
ENDSEC
0
SECTION
2
BLOCKS
0
BLOCK
5
20
100
AcDbEntity
100
AcDbBlockBegin
2
*MODEL_SPACE
0
ENDBLK
5
21
100
AcDbEntity
100
AcDbBlockEnd
0
BLOCK
5
1C
100
AcDbEntity
100
AcDbBlockBegin
2
*PAPER_SPACE
0
ENDBLK
5
1D
100
AcDbEntity
100
AcDbBlockEnd
0
ENDSEC
0
SECTION
2
ENTITIES
0
LWPOLYLINE
5
100
100
AcDbEntity
8
0
100
AcDbPolyline
90
200
70
1
43
0.0
10
-8.4999999999763531
20
9.9999999999713651
42
0.41421356237220708
10
-9.9999999999781863
20
8.4999999999740794
10
-9.9999999999772626
20
3.7000002274749022
42
0.4142135623697652
10
-9.7999999999797183
20
3.500000227473592
10
-9.4999999999777174
20
3.5000002274750841
10
-9.4999999999777174
20
3.1999999999743522
42
0.41421356237309503
10
-9.299999999980173
20
2.9999999999748184
10
-8.9999996733831722
20
2.9999999999745341
42
0.4142135623690999
10
-8.4999996733790084
20
3.4999999999740794
10
-8.4999996733773742
20
5.5000006859745554
42
-0.41421356236643475
10
-7.9999996733840817
20
6.0000006859746682
10
-7.2677666262802632
20
6.0000006859729638
42
-0.19891237999203704
10
-6.9142132184819882
20
5.8535540593757398
10
-4.646446592161972
20
3.5857872120393419
42
-0.19891235472076735
10
-4.4999999999845377
20
3.2322338386734373
10
-4.4999999999777174
20
0.95359031177395082
42
0.13165249126448259
10
-4.4732050831770218
20
0.85359031597371471
10
-4.0381195615620138
20
0.10000004455527359
42
-0.26794917943523949
10
-4.0381195615797765
20
-0.10000004462241947
10
-4.4732050831748893
20
-0.85359031604639313
42
0.13165249139955665
10
-4.4999999999791385
20
-0.95359031182624676
10
-4.4999999999781428
20
-3.2322338387257328
42
-0.19891235471298399
10
-4.6464465921797027
20
-3.5857872121284773
10
-6.9142132184545666
20
-5.8535540593895199
42
-0.19891238004292996
10
-7.2677666262802632
20
-6.0000006860254729
10
-7.9999996733840817
20
-6.0000006860219202
42
-0.41421356236377155
10
-8.4999996733791505
20
-5.5000006860245776
10
-8.4999996733836269
20
-3.5000000000263753
42
0.41421356237309503
10
-8.9999996733831722
20
-3.0000000000239884
10
-9.299999999980173
20
-3.0000000000268301
42
0.41421356236643542
10
-9.4999999999787121
20
-3.2000000000243745
10
-9.4999999999777174
20
-3.5000002275228326
10
-9.7999999999797183
20
-3.5000002275228326
42
0.41421356237309503
10
-9.9999999999792522
20
-3.7000002275226507
10
-9.9999999999795364
20
-8.5000000000263753
42
0.4142135623717631
10
-8.4999999999763531
20
-10.000000000023164
10
-3.699999604577898
20
-10.000000000027285
42
0.41421356237309503
10
-3.4999996045819168
20
-9.800000000025193
10
-3.4999996045803528
20
-9.4999997320269358
10
-3.1999999999788997
20
-9.4999997320269358
42
0.41421356234978635
10
-2.9999999999831317
20
-9.2999997320271177
10
-2.9999999999768079
20
-8.9999997320273906
42
0.41421356236643475
10
-3.4999999999786269
20
-8.4999997320277743
10
-5.4999996045808075
20
-8.4999997320233689
42
-0.41421356236643542
10
-5.9999996045826975
20
-7.9999997320283001
10
-5.9999996045839774
20
-7.2677666850267997
42
-0.19891236735585341
10
-5.8535529951810785
20
-6.914213294424254
10
-3.5857860990724215
20
-4.6464463982327544
42
-0.19891236737847615
10
-3.2322327084784774
20
-4.4999997888248089
10
-0.95358930168004119
20
-4.4999997888271537
42
0.1316525040164265
10
-0.85358929747917422
20
-4.4732048671267872
10
-0.099999969059796495
20
-4.0381198410728958
42
-0.26794920522345689
10
0.099999969119117668
20
-4.0381198410231285
10
0.8535892974964554
20
-4.4732048671448865
42
0.13165250378360968
10
0.95358930172096734
20
-4.4999997888261589
10
3.2322327085194043
20
-4.4999997888235299
42
-0.19891236735418175
10
3.5857860991196757
20
-4.6464463982241542
10
5.8535529952145424
20
-6.9142132944317183
42
-0.19891236737882229
10
5.9999996046213511
20
-7.2677666850267997
10
5.9999996046213511
20
-7.9999997320283001
42
-0.41421356236776735
10
5.4999996046171873
20
-8.4999997320233689
10
3.5000000000218274
20
-8.4999997320278453
42
0.41421356237043117
10
3.0000000000176632
20
-8.9999997320273906
10
3.0000000000222826
20
-9.2999997320271177
42
0.4142135623564468
10
3.2000000000198274
20
-9.4999997320251595
10
3.4999996046190063
20
-9.4999997320269358
10
3.4999996046190063
20
-9.800000000025193
42
0.41421356237309503
10
3.6999996046188244
20
-10.000000000022951
10
16.300000395422103
20
-10.000000000027285
42
0.41421356237309503
10
16.50000039541986
20
-9.800000000025193
10
16.500000395419647
20
-9.4999997320269358
10
16.8000000000211
20
-9.4999997320269358
42
0.41421356234978635
10
17.000000000016868
20
-9.2999997320271177
10
17.000000000023192
20
-8.9999997320273906
42
0.41421356236643542
10
16.500000000023647
20
-8.4999997320277743
10
14.500000395419193
20
-8.4999997320233689
42
-0.41421356236643542
10
14.000000395417302
20
-7.9999997320283001
10
14.000000395416023
20
-7.2677666850267997
42
-0.1989123673558526
10
14.146447004818921
20
-6.9142132944242549
10
16.414213900927578
20
-4.6464463982327544
42
-0.19891236737847615
10
16.767767291521523
20
-4.4999997888248089
10
19.04641069831996
20
-4.4999997888271537
42
0.13165250401642595
10
19.146410702520825
20
-4.4732048671267872
10
19.900000030940205
20
-4.0381198410728949
42
-0.267949205223457
10
20.099999969119118
20
-4.0381198410231285
10
20.853589297496455
20
-4.4732048671448865
42
0.13165250378071824
10
20.953589301718694
20
-4.4999997888261589
10
23.232232708519405
20
-4.499999788823529
42
-0.19891236735418211
10
23.585786099119677
20
-4.6464463982241542
10
25.853552995214542
20
-6.9142132944317183
42
-0.19891236737882229
10
25.999999604621351
20
-7.2677666850267997
10
25.999999604621351
20
-7.9999997320283001
42
-0.41421356236776735
10
25.499999604617187
20
-8.4999997320233689
10
23.500000000021828
20
-8.4999997320278453
42
0.41421356237043117
10
23.000000000017664
20
-8.9999997320273906
10
23.000000000022283
20
-9.2999997320271177
42
0.41421356235644596
10
23.200000000019827
20
-9.4999997320251595
10
23.499999604619006
20
-9.4999997320269358
10
23.499999604619006
20
-9.800000000025193
42
0.41421356237309503
10
23.699999604618824
20
-10.000000000024727
10
28.500000000021828
20
-10.00000000001819
42
0.4142135623708752
10
30.000000000019114
20
-8.5000000000263753
10
30.000000000020464
20
-3.7000002275226507
42
0.41421356237309503
10
29.800000000020646
20
-3.5000002275231168
10
29.500000000023192
20
-3.5000002275228326
10
29.500000000023192
20
-3.2000000000243745
42
0.4142135623597758
10
29.3000000000211
20
-3.0000000000195115
10
28.999999673424099
20
-3.0000000000268301
42
0.41421356237309503
10
28.499999673421712
20
-3.5000000000263753
10
28.499999673422352
20
-5.5000006860245776
42
-0.41421356236510348
10
27.999999673425009
20
-6.0000006860219202
10
27.267766626318917
20
-6.0000006860287414
42
-0.19891237999823275
10
26.914213218520338
20
-5.8535540594283386
10
24.646446592200029
20
-3.5857872120899597
42
-0.19891235471638608
10
24.500000000021132
20
-3.2322338387257332
10
24.500000000023192
20
-0.95359031182624676
42
0.1316524912499209
10
24.473205083218662
20
-0.85359031602559909
10
24.038119561602322
20
-0.10000004460206841
42
-0.26794917942305263
10
24.03811956161811
20
0.10000004457485304
10
24.473205083213543
20
0.85359031599864466
42
0.13165249137487564
10
24.500000000024258
20
0.95359031177395082
10
24.500000000021842
20
3.2322338386734368
42
-0.19891235470964053
10
24.646446592219373
20
3.5857872120728889
10
26.914213218499263
20
5.8535540593425495
42
-0.19891238004125819
10
27.267766626318917
20
6.0000006859746682
10
27.999999673425009
20
6.0000006859746682
42
-0.41421356236776669
10
28.499999673420575
20
5.5000006859745554
10
28.499999673424554
20
3.4999999999740794
42
0.4142135623690999
10
28.999999673424099
20
2.9999999999767359
10
29.3000000000211
20
2.9999999999745341
42
0.41421356237309503
10
29.500000000022411
20
3.1999999999743522
10
29.500000000023192
20
3.5000002274750841
10
29.800000000020646
20
3.5000002274750841
42
0.41421356236643703
10
30.000000000021956
20
3.7000002274749022
10
30.000000000022737
20
8.4999999999740794
42
0.41421356237131918
10
28.500000000021828
20
9.9999999999731415
10
23.699999604618824
20
9.9999999999727152
42
0.41421356235644435
10
23.499999604620285
20
9.7999999999751726
10
23.499999604619006
20
9.4999997319746399
10
23.200000000019827
20
9.4999997319746399
42
0.41421356236643542
10
23.000000000023064
20
9.2999997319748218
10
23.000000000022283
20
8.9999997319750946
42
0.4142135623717631
10
23.500000000021828
20
8.4999997319732046
10
25.499999604617187
20
8.4999997319733467
42
-0.41421356237043117
10
25.999999604621351
20
7.9999997319737304
10
25.999999604621138
20
7.2677666849745037
42
-0.19891236735132928
10
25.853552995221225
20
6.9142132943750116
10
23.585786099111495
20
4.6464463981823103
42
-0.19891236738216506
10
23.232232708519405
20
4.4999997887740752
10
20.953589301718694
20
4.4999997887748577
42
0.13165250404949866
10
20.853589297519232
20
4.4732048670759941
10
20.099999969099635
20
4.038119841019153
42
-0.2679492052467114
10
19.900000030919902
20
4.0381198409737404
10
19.146410702537651
20
4.473204867097138
42
0.13165250380405652
10
19.04641069831996
20
4.4999997887767034
10
16.767767291521523
20
4.4999997887770595
42
-0.19891236735487378
10
16.414213900921489
20
4.6464463981743691
10
14.146447004824587
20
6.9142132943844468
42
-0.19891236737882229
10
14.00000039541986
20
7.2677666849745037
10
14.000000395419079
20
7.9999997319737304
42
-0.41421356236909923
10
14.500000395419193
20
8.4999997319715703
10
16.500000000023647
20
8.4999997319755494
42
0.41421356236776735
10
17.000000000020989
20
8.9999997319750946
10
17.000000000023192
20
9.2999997319748218
42
0.41421356237309503
10
16.8000000000211
20
9.499999731976132
10
16.500000395419647
20
9.4999997319746399
10
16.500000395421921
20
9.7999999999751708
42
0.41421356237309503
10
16.300000395422103
20
9.9999999999782574
10
3.6999996046188244
20
9.9999999999727152
42
0.41421356235644435
10
3.4999996046202848
20
9.7999999999751726
10
3.4999996046190063
20
9.4999997319746399
10
3.2000000000198274
20
9.4999997319746399
42
0.41421356236643625
10
3.0000000000230642
20
9.2999997319748218
10
3.0000000000222826
20
8.9999997319750946
42
0.4142135623717631
10
3.5000000000218274
20
8.4999997319732046
10
5.4999996046171873
20
8.4999997319733467
42
-0.41421356237043117
10
5.9999996046213511
20
7.9999997319737304
10
5.9999996046229143
20
7.2677666849745037
42
-0.19891236735132892
10
5.8535529952224818
20
6.9142132943737558
10
3.5857860991114969
20
4.6464463981823103
42
-0.19891236738216528
10
3.2322327085194043
20
4.4999997887740752
10
0.95358930172096734
20
4.4999997887748577
42
0.13165250405238807
10
0.85358929751923451
20
4.4732048670759941
10
0.099999969099636501
20
4.0381198410191521
42
-0.26794920524671079
10
-0.099999969080097922
20
4.0381198409737404
10
-0.85358929746234935
20
4.473204867097138
42
0.13165250380405799
10
-0.95358930168004119
20
4.4999997887767034
10
-3.2322327084784774
20
4.4999997887770595
42
-0.19891236735487436
10
-3.5857860990785104
20
4.64644639817437
10
-5.8535529951754119
20
6.9142132943844468
42
-0.19891236737882229
10
-5.9999996045801396
20
7.2677666849745037
10
-5.9999996045809212
20
7.9999997319737304
42
-0.41421356236909923
10
-5.4999996045808075
20
8.4999997319715703
10
-3.4999999999786269
20
8.4999997319755494
42
0.41421356236776669
10
-2.9999999999812852
20
8.9999997319750946
10
-2.9999999999768079
20
9.2999997319748218
42
0.41421356237309503
10
-3.1999999999788997
20
9.4999997319779084
10
-3.4999996045803528
20
9.4999997319746399
10
-3.4999996045803528
20
9.7999999999751708
42
0.41421356237309503
10
-3.699999604577898
20
9.999999999976481
0
LWPOLYLINE
5
101
100
AcDbEntity
8
0
100
AcDbPolyline
90
36
70
1
43
0.0
10
7.353553407837941
20
6.2928942914939885
42
0.19891235471889321
10
7.5000000000202496
20
6.6464476648616255
10
7.5000000000181188
20
7.9999997881736817
42
-0.4142135623717631
10
8.0000000000222826
20
8.4999997881755718
10
12.000000000023192
20
8.4999997881755718
42
-0.41421356236776735
10
12.500000000020535
20
7.9999997881736817
10
12.500000000020464
20
6.6464476648798154
42
0.19891235471387908
10
12.646446592196945
20
6.2928942915152319
10
15.353553407838028
20
3.5857872120393419
42
-0.19891235472076735
10
15.500000000015461
20
3.2322338386734373
10
15.500000000022283
20
0.95359031177395082
42
0.13165249126448395
10
15.526794916822979
20
0.85359031597371415
10
15.961880438437985
20
0.10000004455527275
42
-0.26794917943523994
10
15.961880438420222
20
-0.1000000446224189
10
15.526794916825111
20
-0.85359031604639313
42
0.13165249139955665
10
15.500000000020862
20
-0.95359031182624676
10
15.500000000021856
20
-3.2322338387257332
42
-0.19891235471047683
10
15.353553407823707
20
-3.5857872121250667
10
12.646446871704029
20
-6.2928940120400512
42
0.19891235472174645
10
12.500000279521045
20
-6.6464473854102835
10
12.500000279517351
20
-7.9999997882259777
42
-0.41421356236643542
10
12.000000279522283
20
-8.4999997882278677
10
7.99999971852003
20
-8.4999997882260914
42
-0.41421356237043117
10
7.4999997185199163
20
-7.9999997882259777
10
7.4999997185204847
20
-6.646447383427585
42
0.19891235471304378
10
7.3535531263438845
20
-6.2928940100653925
10
4.6464465922000304
20
-3.5857872120899597
42
-0.19891235471638632
10
4.5000000000211324
20
-3.2322338387257332
10
4.5000000000231921
20
-0.95359031182624676
42
0.13165249124992176
10
4.4732050832186623
20
-0.85359031602559887
10
4.0381195616038585
20
-0.1000000446011793
42
-0.26794917942305385
10
4.0381195616196521
20
0.10000004457396565
10
4.4732050832135419
20
0.85359031599864466
42
0.13165249137487608
10
4.5000000000242579
20
0.95359031177395082
10
4.5000000000236176
20
3.2322338386734373
42
-0.19891235470964136
10
4.6464465922206308
20
3.5857872120716339
0
LWPOLYLINE
5
102
100
AcDbEntity
8
0
100
AcDbPolyline
90
16
70
1
43
0.0
10
-1.9099309614869417
20
2.9921749533858044
42
0.10873711291618517
10
-2.9896409623399145
20
1.9138950194864517
10
-2.4452953621624469
20
1.2581854361313194
42
0.24217784522737726
10
-2.4452953621675988
20
-1.2581854361178557
10
-2.9896409623381452
20
-1.9138950195353401
42
0.10873711291502554
10
-1.909930961480768
20
-2.9921749534241826
10
-1.258185316990525
20
-2.4452954235182651
42
0.24217781943612512
10
1.2581853170104296
20
-2.445295423508469
10
1.9099309615327393
20
-2.9921749534282216
42
0.10873711291596735
10
2.9896409623984255
20
-1.9138950195088
10
2.4452953621847606
20
-1.2581854361694909
42
0.24217784522355024
10
2.4452953622312634
20
1.2581854360792022
10
2.9896409623705997
20
1.9138950194813498
42
0.10873711291538636
10
1.9099309615262423
20
2.9921749533878028
10
1.2581853170237296
20
2.4452954234532354
42
0.24217781944060768
10
-1.2581853169785973
20
2.4452954234743629
0
LWPOLYLINE
5
103
100
AcDbEntity
8
0
100
AcDbPolyline
90
16
70
1
43
0.0
10
18.090069038513057
20
2.9921749533858035
42
0.1087371129162726
10
17.010359037659423
20
1.9138950194854178
10
17.55470463783913
20
1.2581854361305065
42
0.24217784522727712
10
17.554704637830127
20
-1.2581854361178557
10
17.010359037661193
20
-1.9138950195343065
42
0.10873711291511304
10
18.090069038519232
20
-2.9921749534241826
10
18.741814683009473
20
-2.4452954235182651
42
0.24217781943612518
10
21.25818531701043
20
-2.445295423508469
10
21.909930961527891
20
-2.9921749534313147
42
0.10873711291637722
10
22.989640962398425
20
-1.9138950195088
10
22.445295362184762
20
-1.2581854361694909
42
0.2421778452235501
10
22.445295362231263
20
1.2581854360792022
10
22.989640962370604
20
1.9138950194813498
42
0.10873711291538643
10
21.909930961526243
20
2.9921749533878028
10
21.258185317023731
20
2.4452954234532358
42
0.24217781944060773
10
18.741814683021403
20
2.4452954234743629
0
LWPOLYLINE
5
104
100
AcDbEntity
8
0
100
AcDbPolyline
90
200
70
1
43
0.0
10
-8.4999999999763531
20
9.9999999999713651
42
0.41421356237220708
10
-9.9999999999781863
20
8.4999999999740794
10
-9.9999999999772626
20
3.7000002274749022
42
0.41421356236976281
10
-9.7999999999797183
20
3.5000002274735915
10
-9.4999999999777174
20
3.5000002274750841
10
-9.4999999999777174
20
3.1999999999743522
42
0.41421356237309748
10
-9.299999999980173
20
2.9999999999748188
10
-8.9999996733831722
20
2.9999999999745341
42
0.41421356236910056
10
-8.4999996733790102
20
3.4999999999740794
10
-8.4999996733773742
20
5.5000006859745554
42
-0.41421356236643475
10
-7.9999996733840817
20
6.0000006859746682
10
-7.2677666262802632
20
6.0000006859729638
42
-0.19891237999203704
10
-6.9142132184819882
20
5.8535540593757398
10
-4.646446592161972
20
3.5857872120393419
42
-0.19891235472076735
10
-4.4999999999845377
20
3.2322338386734373
10
-4.4999999999777174
20
0.95359031177395082
42
0.13165249126448272
10
-4.4732050831770218
20
0.8535903159737146
10
-4.0381195615620138
20
0.10000004455527357
42
-0.26794917943523949
10
-4.0381195615797765
20
-0.10000004462241949
10
-4.4732050831748893
20
-0.85359031604639313
42
0.13165249139955823
10
-4.4999999999791385
20
-0.95359031182624676
10
-4.4999999999781428
20
-3.2322338387257328
42
-0.19891235471298399
10
-4.6464465921797027
20
-3.5857872121284773
10
-6.9142132184545666
20
-5.8535540593895199
42
-0.19891238004292996
10
-7.2677666262802632
20
-6.0000006860254729
10
-7.9999996733840817
20
-6.0000006860219202
42
-0.41421356236377155
10
-8.4999996733791505
20
-5.5000006860245776
10
-8.4999996733836269
20
-3.5000000000263753
42
0.41421356237309503
10
-8.9999996733831722
20
-3.0000000000239879
10
-9.299999999980173
20
-3.0000000000268301
42
0.41421356236643542
10
-9.4999999999787121
20
-3.2000000000243745
10
-9.4999999999777174
20
-3.5000002275228326
10
-9.7999999999797183
20
-3.5000002275228326
42
0.41421356237309748
10
-9.9999999999792522
20
-3.7000002275226507
10
-9.9999999999795364
20
-8.5000000000263753
42
0.41421356237176243
10
-8.4999999999763531
20
-10.000000000023164
10
-3.699999604577898
20
-10.000000000027285
42
0.41421356237309748
10
-3.4999996045819177
20
-9.800000000025193
10
-3.4999996045803528
20
-9.4999997320269358
10
-3.1999999999788997
20
-9.4999997320269358
42
0.41421356234978962
10
-2.9999999999831317
20
-9.2999997320271177
10
-2.9999999999768079
20
-8.9999997320273906
42
0.41421356236643475
10
-3.4999999999786269
20
-8.4999997320277743
10
-5.4999996045808075
20
-8.4999997320233689
42
-0.41421356236643542
10
-5.9999996045826975
20
-7.9999997320283001
10
-5.9999996045839774
20
-7.2677666850267997
42
-0.19891236735585341
10
-5.8535529951810785
20
-6.914213294424254
10
-3.5857860990724215
20
-4.6464463982327544
42
-0.19891236737847615
10
-3.2322327084784774
20
-4.4999997888248089
10
-0.95358930168004119
20
-4.4999997888271537
42
0.13165250401643191
10
-0.85358929747917422
20
-4.4732048671267872
10
-0.099999969059796467
20
-4.0381198410728958
42
-0.26794920522345678
10
0.099999969119117543
20
-4.0381198410231285
10
0.8535892974964554
20
-4.4732048671448865
42
0.13165250378360935
10
0.95358930172096734
20
-4.4999997888261589
10
3.2322327085194043
20
-4.4999997888235299
42
-0.19891236735418175
10
3.5857860991196757
20
-4.6464463982241542
10
5.8535529952145424
20
-6.9142132944317183
42
-0.19891236737882229
10
5.9999996046213511
20
-7.2677666850267997
10
5.9999996046213511
20
-7.9999997320283001
42
-0.41421356236776735
10
5.4999996046171873
20
-8.4999997320233689
10
3.5000000000218274
20
-8.4999997320278453
42
0.41421356237043083
10
3.0000000000176619
20
-8.9999997320273906
10
3.0000000000222826
20
-9.2999997320271177
42
0.4142135623564468
10
3.2000000000198274
20
-9.4999997320251595
10
3.4999996046190063
20
-9.4999997320269358
10
3.4999996046190063
20
-9.800000000025193
42
0.41421356237309992
10
3.6999996046188244
20
-10.000000000022951
10
16.300000395422103
20
-10.000000000027285
42
0.41421356237310314
10
16.500000395419857
20
-9.800000000025193
10
16.500000395419647
20
-9.4999997320269358
10
16.8000000000211
20
-9.4999997320269358
42
0.41421356234978474
10
17.000000000016868
20
-9.2999997320271177
10
17.000000000023192
20
-8.9999997320273906
42
0.41421356236643475
10
16.500000000023647
20
-8.499999732027776
10
14.500000395419193
20
-8.4999997320233689
42
-0.41421356236643542
10
14.000000395417302
20
-7.9999997320283001
10
14.000000395416023
20
-7.2677666850267997
42
-0.19891236735585227
10
14.146447004818921
20
-6.9142132944242558
10
16.414213900927578
20
-4.6464463982327544
42
-0.19891236737847615
10
16.767767291521523
20
-4.4999997888248089
10
19.04641069831996
20
-4.4999997888271537
42
0.13165250401642667
10
19.146410702520825
20
-4.4732048671267872
10
19.900000030940205
20
-4.0381198410728949
42
-0.267949205223457
10
20.099999969119118
20
-4.0381198410231285
10
20.853589297496455
20
-4.4732048671448865
42
0.13165250378071255
10
20.953589301718694
20
-4.4999997888261589
10
23.232232708519405
20
-4.499999788823529
42
-0.19891236735418211
10
23.585786099119677
20
-4.6464463982241542
10
25.853552995214542
20
-6.9142132944317183
42
-0.19891236737882229
10
25.999999604621351
20
-7.2677666850267997
10
25.999999604621351
20
-7.9999997320283001
42
-0.41421356236776735
10
25.499999604617187
20
-8.4999997320233689
10
23.500000000021828
20
-8.4999997320278453
42
0.41421356237042795
10
23.000000000017668
20
-8.9999997320273906
10
23.000000000022283
20
-9.2999997320271177
42
0.41421356235644435
10
23.200000000019827
20
-9.4999997320251577
10
23.499999604619006
20
-9.4999997320269358
10
23.499999604619006
20
-9.800000000025193
42
0.41421356237310802
10
23.699999604618824
20
-10.000000000024727
10
28.500000000021828
20
-10.00000000001819
42
0.41421356237087431
10
30.000000000019117
20
-8.5000000000263753
10
30.000000000020464
20
-3.7000002275226507
42
0.4142135623731048
10
29.800000000020646
20
-3.500000227523119
10
29.500000000023192
20
-3.5000002275228326
10
29.500000000023192
20
-3.2000000000243745
42
0.41421356235977252
10
29.3000000000211
20
-3.0000000000195137
10
28.999999673424099
20
-3.0000000000268301
42
0.4142135623730937
10
28.499999673421712
20
-3.5000000000263753
10
28.499999673422352
20
-5.5000006860245776
42
-0.41421356236510348
10
27.999999673425009
20
-6.0000006860219202
10
27.267766626318917
20
-6.0000006860287414
42
-0.19891237999823275
10
26.914213218520338
20
-5.8535540594283386
10
24.646446592200029
20
-3.5857872120899597
42
-0.19891235471638608
10
24.500000000021132
20
-3.2322338387257332
10
24.500000000023192
20
-0.95359031182624676
42
0.13165249124988154
10
24.473205083218662
20
-0.85359031602559932
10
24.038119561602322
20
-0.10000004460206821
42
-0.26794917942305196
10
24.03811956161811
20
0.10000004457485244
10
24.473205083213543
20
0.85359031599864466
42
0.1316524913748757
10
24.500000000024258
20
0.95359031177395082
10
24.500000000021842
20
3.2322338386734368
42
-0.19891235470964053
10
24.646446592219373
20
3.5857872120728889
10
26.914213218499263
20
5.8535540593425495
42
-0.19891238004125819
10
27.267766626318917
20
6.0000006859746682
10
27.999999673425009
20
6.0000006859746682
42
-0.41421356236776669
10
28.499999673420575
20
5.5000006859745554
10
28.499999673424554
20
3.4999999999740794
42
0.41421356236909956
10
28.999999673424099
20
2.9999999999767364
10
29.3000000000211
20
2.9999999999745341
42
0.41421356237308365
10
29.500000000022411
20
3.1999999999743522
10
29.500000000023192
20
3.5000002274750841
10
29.800000000020646
20
3.5000002274750841
42
0.41421356236644763
10
30.000000000021956
20
3.7000002274749022
10
30.000000000022737
20
8.4999999999740794
42
0.41421356237131851
10
28.500000000021828
20
9.9999999999731379
10
23.699999604618824
20
9.9999999999727152
42
0.41421356235644435
10
23.499999604620285
20
9.7999999999751726
10
23.499999604619006
20
9.4999997319746399
10
23.200000000019827
20
9.4999997319746399
42
0.41421356236643053
10
23.000000000023061
20
9.2999997319748218
10
23.000000000022283
20
8.9999997319750946
42
0.41421356237176243
10
23.500000000021828
20
8.4999997319732064
10
25.499999604617187
20
8.4999997319733467
42
-0.41421356237043117
10
25.999999604621351
20
7.9999997319737304
10
25.999999604621138
20
7.2677666849745037
42
-0.19891236735132928
10
25.853552995221225
20
6.9142132943750116
10
23.585786099111495
20
4.6464463981823103
42
-0.19891236738216506
10
23.232232708519405
20
4.4999997887740752
10
20.953589301718694
20
4.4999997887748577
42
0.13165250404949652
10
20.853589297519232
20
4.4732048670759932
10
20.099999969099635
20
4.038119841019153
42
-0.2679492052467114
10
19.900000030919902
20
4.0381198409737404
10
19.146410702537651
20
4.473204867097138
42
0.13165250380405413
10
19.04641069831996
20
4.4999997887767043
10
16.767767291521523
20
4.4999997887770595
42
-0.19891236735487378
10
16.414213900921489
20
4.6464463981743691
10
14.146447004824587
20
6.9142132943844468
42
-0.19891236737882229
10
14.00000039541986
20
7.2677666849745037
10
14.000000395419079
20
7.9999997319737304
42
-0.41421356236909923
10
14.500000395419193
20
8.4999997319715703
10
16.500000000023647
20
8.4999997319755494
42
0.41421356236776669
10
17.000000000020989
20
8.9999997319750946
10
17.000000000023192
20
9.2999997319748218
42
0.41421356237309825
10
16.8000000000211
20
9.4999997319761302
10
16.500000395419647
20
9.4999997319746399
10
16.500000395421921
20
9.7999999999751708
42
0.41421356237310153
10
16.300000395422103
20
9.9999999999782574
10
3.6999996046188244
20
9.9999999999727152
42
0.41421356235644519
10
3.4999996046202848
20
9.7999999999751726
10
3.4999996046190063
20
9.4999997319746399
10
3.2000000000198274
20
9.4999997319746399
42
0.41421356236643703
10
3.0000000000230638
20
9.2999997319748218
10
3.0000000000222826
20
8.9999997319750946
42
0.41421356237176277
10
3.5000000000218274
20
8.4999997319732064
10
5.4999996046171873
20
8.4999997319733467
42
-0.41421356237043117
10
5.9999996046213511
20
7.9999997319737304
10
5.9999996046229143
20
7.2677666849745037
42
-0.19891236735132892
10
5.8535529952224818
20
6.9142132943737558
10
3.5857860991114969
20
4.6464463981823103
42
-0.19891236738216528
10
3.2322327085194043
20
4.4999997887740752
10
0.95358930172096734
20
4.4999997887748577
42
0.1316525040523919
10
0.85358929751923451
20
4.4732048670759941
10
0.099999969099636585
20
4.0381198410191521
42
-0.26794920524671095
10
-0.099999969080097964
20
4.0381198409737404
10
-0.85358929746234935
20
4.473204867097138
42
0.13165250380406215
10
-0.95358930168004119
20
4.4999997887767034
10
-3.2322327084784774
20
4.4999997887770595
42
-0.19891236735487458
10
-3.5857860990785104
20
4.64644639817437
10
-5.8535529951754119
20
6.9142132943844468
42
-0.19891236737882229
10
-5.9999996045801396
20
7.2677666849745037
10
-5.9999996045809212
20
7.9999997319737304
42
-0.41421356236909923
10
-5.4999996045808075
20
8.4999997319715703
10
-3.4999999999786269
20
8.4999997319755494
42
0.41421356236776702
10
-2.9999999999812847
20
8.9999997319750946
10
-2.9999999999768079
20
9.2999997319748218
42
0.41421356237309914
10
-3.1999999999788997
20
9.4999997319779084
10
-3.4999996045803528
20
9.4999997319746399
10
-3.4999996045803528
20
9.7999999999751708
42
0.41421356237309503
10
-3.699999604577898
20
9.999999999976481
0
LWPOLYLINE
5
105
100
AcDbEntity
8
0
100
AcDbPolyline
90
36
70
1
43
0.0
10
7.353553407837941
20
6.2928942914939885
42
0.19891235471889321
10
7.5000000000202496
20
6.6464476648616255
10
7.5000000000181188
20
7.9999997881736817
42
-0.41421356237176243
10
8.0000000000222808
20
8.4999997881755718
10
12.000000000023192
20
8.49999978817557
42
-0.41421356236776669
10
12.500000000020535
20
7.9999997881736817
10
12.500000000020464
20
6.6464476648798154
42
0.19891235471387908
10
12.646446592196945
20
6.2928942915152319
10
15.353553407838028
20
3.5857872120393419
42
-0.19891235472076446
10
15.500000000015461
20
3.2322338386734373
10
15.500000000022283
20
0.95359031177395082
42
0.13165249126448395
10
15.526794916822979
20
0.85359031597371415
10
15.961880438437985
20
0.10000004455527317
42
-0.26794917943524826
10
15.961880438420222
20
-0.10000004462241849
10
15.526794916825111
20
-0.85359031604639313
42
0.13165249139955665
10
15.500000000020862
20
-0.95359031182624676
10
15.500000000021856
20
-3.2322338387257328
42
-0.19891235471047522
10
15.353553407823707
20
-3.5857872121250667
10
12.646446871704029
20
-6.2928940120400512
42
0.19891235472174645
10
12.500000279521046
20
-6.6464473854102835
10
12.500000279517351
20
-7.9999997882259777
42
-0.41421356236643281
10
12.000000279522283
20
-8.4999997882278677
10
7.99999971852003
20
-8.4999997882260914
42
-0.41421356237042989
10
7.4999997185199163
20
-7.9999997882259777
10
7.4999997185204847
20
-6.646447383427585
42
0.19891235471304339
10
7.3535531263438845
20
-6.2928940100653943
10
4.6464465922000304
20
-3.5857872120899597
42
-0.19891235471638355
10
4.5000000000211315
20
-3.2322338387257337
10
4.5000000000231921
20
-0.95359031182624676
42
0.13165249124992176
10
4.4732050832186623
20
-0.85359031602559887
10
4.0381195616038585
20
-0.10000004460117937
42
-0.26794917942305158
10
4.0381195616196521
20
0.10000004457396565
10
4.4732050832135419
20
0.85359031599864466
42
0.13165249137487586
10
4.5000000000242579
20
0.95359031177395071
10
4.5000000000236176
20
3.2322338386734373
42
-0.19891235470964191
10
4.6464465922206308
20
3.5857872120716339
0
LWPOLYLINE
5
106
100
AcDbEntity
8
0
100
AcDbPolyline
90
16
70
1
43
0.0
10
-1.9099309614869429
20
2.9921749533858053
42
0.10873711291618435
10
-2.9896409623399145
20
1.9138950194864524
10
-2.4452953621624465
20
1.2581854361313185
42
0.24217784522737726
10
-2.4452953621675988
20
-1.2581854361178557
10
-2.9896409623381448
20
-1.9138950195353397
42
0.1087371129150248
10
-1.909930961480768
20
-2.9921749534241826
10
-1.2581853169905246
20
-2.4452954235182665
42
0.2421778194361249
10
1.2581853170104296
20
-2.445295423508469
10
1.9099309615327387
20
-2.992174953428222
42
0.10873711291596735
10
2.9896409623984255
20
-1.9138950195088
10
2.4452953621847602
20
-1.25818543616949
42
0.24217784522354996
10
2.4452953622312634
20
1.2581854360792022
10
2.9896409623705997
20
1.9138950194813495
42
0.1087371129153855
10
1.9099309615262423
20
2.9921749533878028
10
1.2581853170237296
20
2.4452954234532358
42
0.24217781944060765
10
-1.2581853169785973
20
2.4452954234743629
0
LWPOLYLINE
5
107
100
AcDbEntity
8
0
100
AcDbPolyline
90
16
70
1
43
0.0
10
18.090069038513057
20
2.9921749533858035
42
0.10873711291627099
10
17.010359037659423
20
1.9138950194854176
10
17.55470463783913
20
1.2581854361305065
42
0.24217784522727667
10
17.554704637830127
20
-1.2581854361178557
10
17.010359037661193
20
-1.9138950195343061
42
0.10873711291511176
10
18.090069038519232
20
-2.9921749534241826
10
18.741814683009476
20
-2.4452954235182669
42
0.24217781943612515
10
21.25818531701043
20
-2.445295423508469
10
21.909930961527895
20
-2.9921749534313147
42
0.10873711291637582
10
22.989640962398425
20
-1.9138950195088
10
22.445295362184762
20
-1.25818543616949
42
0.24217784522354735
10
22.445295362231263
20
1.2581854360792022
10
22.989640962370604
20
1.9138950194813495
42
0.10873711291538356
10
21.909930961526243
20
2.9921749533878028
10
21.258185317023731
20
2.4452954234532371
42
0.24217781944060793
10
18.741814683021403
20
2.4452954234743629
0
ENDSEC
0
SECTION
2
OBJECTS
0
DICTIONARY
5
C
100
AcDbDictionary
3
ACAD_GROUP
350
D
3
ACAD_MLINESTYLE
350
17
0
DICTIONARY
5
D
100
AcDbDictionary
0
DICTIONARY
5
1A
330
C
100
AcDbDictionary
0
DICTIONARY
5
17
100
AcDbDictionary
0
ENDSEC
0
EOF
