0
SECTION
2
HEADER
9
$INSUNITS
70
4
9
$ACADVER
1
AC1014
9
$HANDSEED
5
FFFF
0
ENDSEC
0
SECTION
2
TABLES
0
TABLE
2
VPORT
5
8
100
AcDbSymbolTable
0
ENDTAB
0
TABLE
2
LTYPE
5
5
100
AcDbSymbolTable
0
LTYPE
5
14
100
AcDbSymbolTableRecord
100
AcDbLinetypeTableRecord
2
BYBLOCK
70
0
0
LTYPE
5
15
100
AcDbSymbolTableRecord
100
AcDbLinetypeTableRecord
2
BYLAYER
70
0
0
LTYPE
5
16
100
AcDbSymbolTableRecord
100
AcDbLinetypeTableRecord
2
DASHED
70
0
3
Dashed __ __ __ __ __ __ __ __ __ __ __ __ __ _
72
65
73
2
40
0.75
49
0.5
74
0
49
-0.25
74
0
0
ENDTAB
0
TABLE
2
LAYER
5
2
100
AcDbSymbolTable
70
3
0
LAYER
5
50
100
AcDbSymbolTableRecord
100
AcDbLayerTableRecord
2
1
70
0
62
7
6
DASHED
0
LAYER
5
51
100
AcDbSymbolTableRecord
100
AcDbLayerTableRecord
2
0
70
0
62
7
6
CONTINUOUS
0
ENDTAB
0
TABLE
2
STYLE
5
3
100
AcDbSymbolTable
70
1
0
STYLE
5
11
100
AcDbSymbolTableRecord
100
AcDbTextStyleTableRecord
2
STANDARD
70
0
0
ENDTAB
0
TABLE
2
VIEW
5
6
100
AcDbSymbolTable
70
0
0
ENDTAB
0
TABLE
2
UCS
5
7
100
AcDbSymbolTable
70
0
0
ENDTAB
0
TABLE
2
APPID
5
9
100
AcDbSymbolTable
70
2
0
APPID
5
12
100
AcDbSymbolTableRecord
100
AcDbRegAppTableRecord
2
ACAD
70
0
0
ENDTAB
0
TABLE
2
DIMSTYLE
5
A
100
AcDbSymbolTable
70
1
0
ENDTAB
0
TABLE
2
BLOCK_RECORD
5
1
100
AcDbSymbolTable
70
1
0
BLOCK_RECORD
5
1F
100
AcDbSymbolTableRecord
100
AcDbBlockTableRecord
2
*MODEL_SPACE
0
BLOCK_RECORD
5
1B
100
AcDbSymbolTableRecord
100
AcDbBlockTableRecord
2
*PAPER_SPACE
0
ENDTAB
0
ENDSEC
0
SECTION
2
BLOCKS
0
BLOCK
5
20
100
AcDbEntity
100
AcDbBlockBegin
2
*MODEL_SPACE
0
ENDBLK
5
21
100
AcDbEntity
100
AcDbBlockEnd
0
BLOCK
5
1C
100
AcDbEntity
100
AcDbBlockBegin
2
*PAPER_SPACE
0
ENDBLK
5
1D
100
AcDbEntity
100
AcDbBlockEnd
0
ENDSEC
0
SECTION
2
ENTITIES
0
LWPOLYLINE
5
100
100
AcDbEntity
8
0
100
AcDbPolyline
90
104
70
1
43
0.0
10
24.528679656598836
20
3.2558874504656665
42
0.19891236792063266
10
23.650000000155131
20
1.1345671006597524
10
23.650000004878962
20
-1.1345671178605699
42
0.19891236683901939
10
24.52867966131862
20
-3.255887455179618
10
26.868456692107561
20
-5.5956644859719358
42
0.66817850763302289
10
28.199999981429755
20
-5.0441214776674306
10
28.20000076294038
20
-2.8749998919147401
42
-0.4142134568469682
10
28.500000762942364
20
-2.5749999999993634
10
29.200000000000728
20
-2.5749999999993634
42
-0.41421356237559198
10
30
20
-3.3750000000009086
10
30
20
-8.000000000001819
42
-0.41421356237309503
10
28.000000000001819
20
-10
10
23.375000000000909
20
-9.9999999999977263
42
-0.41421356237309503
10
22.575000000003911
20
-9.2000000000007276
10
22.575000000006163
20
-8.5000007629400898
42
-0.41421345603671439
10
22.874999891080279
20
-8.2000007629403626
10
25.044121473804353
20
-8.1999999753915827
42
0.6681785066231698
10
25.595664479933475
20
-6.868456686065656
10
23.255887450461476
20
-4.5286796565939307
42
0.19891236791993636
10
21.134567100657478
20
-3.6500000001569788
10
18.865432882137156
20
-3.6500000048723527
42
0.19891236683834684
10
16.744112544820382
20
-4.5286796613140723
10
14.404335514024535
20
-6.8684566921063031
42
0.66817850763767672
10
14.955878522334842
20
-8.199999981432029
10
17.125000108087534
20
-8.2000007629381084
42
-0.4142134568469682
10
17.42500000000291
20
-8.5000007629400898
10
17.424999999998363
20
-9.2000000000007276
42
-0.41421356236893275
10
16.625000000001364
20
-10
10
3.3750000000031832
20
-9.9999999999954525
42
-0.41421356237143014
10
2.5750000000039113
20
-9.2000000000007276
10
2.575000000006165
20
-8.5000007629400915
42
-0.41421345685362887
10
2.8749998919170139
20
-8.2000007629403626
10
5.0441214776697052
20
-8.1999999814311266
42
0.66817850763736764
10
5.5956644859725202
20
-6.8684566921092483
10
3.2558874551825348
20
-4.5286796613179767
42
0.1989123668384285
10
1.1345671178673911
20
-3.6500000048772563
10
-1.1345671006552034
20
-3.6500000001564095
42
0.19891236792052747
10
-3.2558874504593405
20
-4.5286796565937948
10
-5.5956644799295985
20
-6.8684566860672582
42
0.66817850662317013
10
-5.044121473802079
20
-8.1999999753907105
10
-2.8749998910734575
20
-8.2000007629403822
42
-0.41421345603005477
10
-2.5749999999970896
20
-8.5000007629400898
10
-2.5749999999993634
20
-9.2000000000007276
42
-0.41421356237309503
10
-3.3749999999986358
20
-10
10
-7.9999999999995453
20
-10.000000000002274
42
-0.41421356237309503
10
-10
20
-8.000000000001819
10
-9.9999999999999982
20
-3.3750000000009086
42
-0.41421356237309503
10
-9.1999999999984539
20
-2.5749999999993634
10
-8.500000762937816
20
-2.5749999999970701
42
-0.41421345686028743
10
-8.2000007629380889
20
-2.8749998919147401
10
-8.199999981432903
20
-5.0441214776674306
42
0.66817850763451481
10
-6.8684566921069745
20
-5.5956644859702456
10
-4.5286796613159419
20
-3.2558874551777492
42
0.19891236683874089
10
-3.65000000487953
20
-1.1345671178605699
10
-3.6500000001528576
20
1.1345671006597515
42
0.19891236792049358
10
-4.5286796565960685
20
3.2558874504638879
10
-6.8684566860672591
20
5.595664479934146
42
0.66817850662527811
10
-8.1999999753952579
20
5.044121473802079
10
-8.2000007629335609
20
2.8749998910825525
42
-0.41421345604115417
10
-8.500000762937816
20
2.5749999999993634
10
-9.1999999999984539
20
2.5750000000016371
42
-0.41421356237559237
10
-10
20
3.3750000000009095
10
-10
20
7.9999999999995453
42
-0.41421356237309503
10
-7.9999999999995453
20
10
10
-3.3749999999986358
20
10.000000000002274
42
-0.41421356237309503
10
-2.5749999999970896
20
9.2000000000007276
10
-2.5749999999970701
20
8.5000007629423635
42
-0.4142134568469682
10
-2.8749998919124664
20
8.2000007629403626
10
-5.0441214776697052
20
8.1999999814379478
42
0.66817850763780418
10
-5.5956644859725202
20
6.8684566921092483
10
-3.2558874551769694
20
4.5286796613212692
42
0.19891236683767441
10
-1.1345671178673911
20
3.65000000487953
10
1.1345671006574773
20
3.650000000154348
42
0.19891236792021505
10
3.2558874504616142
20
4.5286796565983423
10
5.5956644799328901
20
6.8684566860685141
42
0.66817850662676948
10
5.0441214738043527
20
8.1999999753952579
10
2.8749998910802788
20
8.2000007629403822
42
-0.41421345603005477
10
2.5750000000016371
20
8.5000007629423635
10
2.5750000000061846
20
9.2000000000007276
42
-0.41421356237808976
10
3.3750000000009095
20
10
10
16.625000000001364
20
10.000000000002274
42
-0.41421356237475992
10
17.42500000000291
20
9.2000000000007276
10
17.425000000000658
20
8.5000007629423635
42
-0.41421345602783488
10
17.125000108919721
20
8.2000007629403626
10
14.955878526197921
20
8.1999999753938564
42
0.66817850662676903
10
14.404335520068798
20
6.8684566860679297
10
16.744112549540255
20
4.5286796565979373
42
0.1989123679206905
10
18.865432899344796
20
3.6500000001569788
10
21.134567117867391
20
3.6500000048799555
42
0.19891236683832292
10
23.255887455179618
20
4.5286796613186198
10
25.59566448596966
20
6.8684566921121064
42
0.66817850763600539
10
25.044121477669705
20
8.1999999814343028
10
22.874999891917014
20
8.2000007629381084
42
-0.41421345685584765
10
22.575000000003911
20
8.5000007629423635
10
22.575000000001637
20
9.2000000000007276
42
-0.41421356237309503
10
23.375000000000909
20
10
10
28.000000000001819
20
9.9999999999977263
42
-0.41421356237309503
10
30
20
7.9999999999995453
10
30.000000000006821
20
3.3750000000009095
42
-0.41421356237642482
10
29.200000000000728
20
2.5749999999993634
10
28.500000762942364
20
2.5749999999993438
42
-0.41421345603449455
10
28.200000762940363
20
2.8749998910825525
10
28.199999975394356
20
5.044121473802079
42
0.66817850662602352
10
26.868456686070203
20
5.5956644799334754
0
LWPOLYLINE
5
101
100
AcDbEntity
8
0
100
AcDbPolyline
90
12
70
1
43
0.0
10
16.349999999842595
20
1.1345671006597517
42
0.19891236792021497
10
15.471320343402301
20
3.2558874504622577
10
11.414213587848632
20
7.3129942314934748
42
0.41421356237285928
10
8.5857864630997955
20
7.3129942314926666
10
4.5286796565982943
20
3.2558874504662083
42
0.19891236792130529
10
3.6500000001569792
20
1.1345671006597513
10
3.6500000048784633
20
-1.1345671178605699
42
0.19891236683943719
10
4.5286796613186207
20
-3.2558874551841646
10
8.5857864196137701
20
-7.3129942314889265
42
0.41421356237333068
10
11.41421354436261
20
-7.3129942314881191
10
15.471320338684061
20
-3.2558874551777484
42
0.19891236683874072
10
16.34999999512047
20
-1.1345671178605699
0
CIRCLE
5
102
100
AcDbEntity
8
0
100
AcDbCircle
10
-20
20
0
30
0
40
2.1500000000003179
210
0
220
0
230
-1
0
CIRCLE
5
103
100
AcDbEntity
8
0
100
AcDbCircle
10
0
20
0
30
0
40
2.1500000000003179
210
0
220
0
230
-1
0
LWPOLYLINE
5
104
100
AcDbEntity
8
0
100
AcDbPolyline
90
104
70
1
43
0.0
10
24.528679656598836
20
3.255887450465667
42
0.19891236792063269
10
23.650000000155131
20
1.1345671006597531
10
23.650000004878962
20
-1.1345671178605694
42
0.19891236683901942
10
24.52867966131862
20
-3.255887455179618
10
26.868456692107561
20
-5.5956644859719376
42
0.66817850763302278
10
28.199999981429755
20
-5.0441214776674306
10
28.20000076294038
20
-2.8749998919147401
42
-0.41421345684696764
10
28.500000762942364
20
-2.5749999999993634
10
29.200000000000728
20
-2.5749999999993616
42
-0.41421356237559259
10
30
20
-3.3750000000009086
10
30
20
-8.000000000001819
42
-0.41421356237309492
10
28.000000000001819
20
-10
10
23.375000000000909
20
-9.999999999997728
42
-0.41421356237309587
10
22.575000000003911
20
-9.2000000000007276
10
22.575000000006167
20
-8.5000007629400898
42
-0.41421345603671655
10
22.874999891080279
20
-8.2000007629403626
10
25.044121473804353
20
-8.1999999753915827
42
0.6681785066231698
10
25.595664479933475
20
-6.868456686065656
10
23.255887450461476
20
-4.5286796565939307
42
0.19891236791993636
10
21.134567100657478
20
-3.6500000001569788
10
18.865432882137156
20
-3.6500000048723527
42
0.19891236683834684
10
16.744112544820382
20
-4.5286796613140723
10
14.404335514024535
20
-6.8684566921063031
42
0.66817850763767672
10
14.955878522334842
20
-8.199999981432029
10
17.125000108087534
20
-8.2000007629381084
42
-0.4142134568469682
10
17.42500000000291
20
-8.5000007629400898
10
17.424999999998363
20
-9.2000000000007276
42
-0.41421356236893275
10
16.625000000001364
20
-10
10
3.3750000000031832
20
-9.9999999999954508
42
-0.41421356237142976
10
2.5750000000039113
20
-9.2000000000007276
10
2.5750000000061659
20
-8.5000007629400915
42
-0.41421345685363159
10
2.8749998919170139
20
-8.2000007629403626
10
5.0441214776697052
20
-8.1999999814311266
42
0.66817850763736764
10
5.5956644859725202
20
-6.8684566921092483
10
3.2558874551825352
20
-4.5286796613179767
42
0.19891236683842858
10
1.1345671178673911
20
-3.6500000048772563
10
-1.1345671006552027
20
-3.6500000001564099
42
0.19891236792052749
10
-3.2558874504593405
20
-4.5286796565937948
10
-5.5956644799295976
20
-6.8684566860672565
42
0.66817850662317102
10
-5.044121473802079
20
-8.1999999753907105
10
-2.8749998910734575
20
-8.2000007629403822
42
-0.41421345603005638
10
-2.5749999999970896
20
-8.5000007629400898
10
-2.5749999999993625
20
-9.2000000000007276
42
-0.41421356237309465
10
-3.3749999999986358
20
-10
10
-7.9999999999995453
20
-10.000000000002274
42
-0.41421356237309537
10
-10
20
-8.000000000001819
10
-9.9999999999999982
20
-3.3750000000009086
42
-0.41421356237309587
10
-9.1999999999984539
20
-2.5749999999993634
10
-8.5000007629378143
20
-2.5749999999970696
42
-0.4142134568602891
10
-8.2000007629380889
20
-2.8749998919147401
10
-8.199999981432903
20
-5.0441214776674306
42
0.66817850763451481
10
-6.8684566921069745
20
-5.5956644859702456
10
-4.5286796613159419
20
-3.2558874551777492
42
0.19891236683874089
10
-3.65000000487953
20
-1.1345671178605699
10
-3.6500000001528576
20
1.1345671006597511
42
0.19891236792049366
10
-4.5286796565960685
20
3.2558874504638879
10
-6.8684566860672591
20
5.595664479934146
42
0.66817850662527811
10
-8.1999999753952579
20
5.044121473802079
10
-8.2000007629335609
20
2.8749998910825525
42
-0.41421345604115517
10
-8.500000762937816
20
2.5749999999993634
10
-9.1999999999984539
20
2.575000000001638
42
-0.41421356237559287
10
-10
20
3.3750000000009095
10
-10
20
7.9999999999995453
42
-0.41421356237309537
10
-7.9999999999995453
20
10
10
-3.3749999999986358
20
10.000000000002274
42
-0.41421356237309465
10
-2.5749999999970896
20
9.2000000000007276
10
-2.574999999997071
20
8.5000007629423617
42
-0.41421345684696659
10
-2.8749998919124664
20
8.2000007629403626
10
-5.0441214776697052
20
8.1999999814379478
42
0.66817850763780418
10
-5.5956644859725202
20
6.8684566921092483
10
-3.2558874551769703
20
4.5286796613212692
42
0.19891236683767444
10
-1.1345671178673911
20
3.65000000487953
10
1.1345671006574767
20
3.650000000154348
42
0.19891236792021508
10
3.2558874504616142
20
4.5286796565983423
10
5.5956644799328901
20
6.8684566860685141
42
0.66817850662676948
10
5.0441214738043527
20
8.1999999753952579
10
2.8749998910802788
20
8.2000007629403822
42
-0.41421345603005638
10
2.5750000000016371
20
8.5000007629423635
10
2.5750000000061841
20
9.2000000000007276
42
-0.41421356237809076
10
3.3750000000009095
20
10
10
16.625000000001361
20
10.000000000002274
42
-0.41421356237475954
10
17.42500000000291
20
9.2000000000007276
10
17.425000000000658
20
8.5000007629423635
42
-0.41421345602783594
10
17.125000108919721
20
8.2000007629403626
10
14.955878526197921
20
8.1999999753938564
42
0.66817850662676903
10
14.404335520068798
20
6.8684566860679297
10
16.744112549540255
20
4.5286796565979373
42
0.1989123679206905
10
18.865432899344796
20
3.6500000001569788
10
21.134567117867391
20
3.6500000048799555
42
0.19891236683832292
10
23.255887455179618
20
4.5286796613186198
10
25.59566448596966
20
6.8684566921121064
42
0.66817850763600539
10
25.044121477669705
20
8.1999999814343028
10
22.874999891917014
20
8.2000007629381084
42
-0.41421345685583905
10
22.575000000003911
20
8.5000007629423635
10
22.575000000001637
20
9.2000000000007276
42
-0.41421356237309265
10
23.375000000000909
20
10
10
28.000000000001819
20
9.9999999999977245
42
-0.41421356237309492
10
30
20
7.9999999999995453
10
30.000000000006821
20
3.3750000000009095
42
-0.41421356237642482
10
29.200000000000728
20
2.5749999999993634
10
28.500000762942364
20
2.5749999999993447
42
-0.41421345603449394
10
28.200000762940363
20
2.8749998910825525
10
28.199999975394356
20
5.044121473802079
42
0.66817850662602352
10
26.868456686070203
20
5.5956644799334754
0
LWPOLYLINE
5
105
100
AcDbEntity
8
0
100
AcDbPolyline
90
12
70
1
43
0.0
10
16.349999999842595
20
1.1345671006597513
42
0.19891236792021488
10
15.471320343402301
20
3.2558874504622572
10
11.414213587848632
20
7.3129942314934739
42
0.41421356237286033
10
8.5857864630997955
20
7.3129942314926666
10
4.5286796565982943
20
3.2558874504662079
42
0.19891236792130529
10
3.6500000001569792
20
1.1345671006597513
10
3.6500000048784642
20
-1.1345671178605716
42
0.19891236683943692
10
4.5286796613186207
20
-3.2558874551841646
10
8.5857864196137701
20
-7.3129942314889265
42
0.41421356237333112
10
11.41421354436261
20
-7.3129942314881191
10
15.471320338684061
20
-3.2558874551777479
42
0.19891236683874133
10
16.34999999512047
20
-1.1345671178605699
0
CIRCLE
5
106
100
AcDbEntity
8
0
100
AcDbCircle
10
20
20
0
30
0
40
2.1500000000003179
210
0
220
-0
230
1
0
CIRCLE
5
107
100
AcDbEntity
8
0
100
AcDbCircle
10
0
20
0
30
0
40
2.1500000000003179
210
0
220
-0
230
1
0
ENDSEC
0
SECTION
2
OBJECTS
0
DICTIONARY
5
C
100
AcDbDictionary
3
ACAD_GROUP
350
D
3
ACAD_MLINESTYLE
350
17
0
DICTIONARY
5
D
100
AcDbDictionary
0
DICTIONARY
5
1A
330
C
100
AcDbDictionary
0
DICTIONARY
5
17
100
AcDbDictionary
0
ENDSEC
0
EOF
