0
SECTION
2
HEADER
9
$INSUNITS
70
4
9
$ACADVER
1
AC1014
9
$HANDSEED
5
FFFF
0
ENDSEC
0
SECTION
2
TABLES
0
TABLE
2
VPORT
5
8
100
AcDbSymbolTable
0
ENDTAB
0
TABLE
2
LTYPE
5
5
100
AcDbSymbolTable
0
LTYPE
5
14
100
AcDbSymbolTableRecord
100
AcDbLinetypeTableRecord
2
BYBLOCK
70
0
0
LTYPE
5
15
100
AcDbSymbolTableRecord
100
AcDbLinetypeTableRecord
2
BYLAYER
70
0
0
LTYPE
5
16
100
AcDbSymbolTableRecord
100
AcDbLinetypeTableRecord
2
DASHED
70
0
3
Dashed __ __ __ __ __ __ __ __ __ __ __ __ __ _
72
65
73
2
40
0.75
49
0.5
74
0
49
-0.25
74
0
0
ENDTAB
0
TABLE
2
LAYER
5
2
100
AcDbSymbolTable
70
3
0
LAYER
5
50
100
AcDbSymbolTableRecord
100
AcDbLayerTableRecord
2
1
70
0
62
7
6
DASHED
0
LAYER
5
51
100
AcDbSymbolTableRecord
100
AcDbLayerTableRecord
2
0
70
0
62
7
6
CONTINUOUS
0
ENDTAB
0
TABLE
2
STYLE
5
3
100
AcDbSymbolTable
70
1
0
STYLE
5
11
100
AcDbSymbolTableRecord
100
AcDbTextStyleTableRecord
2
STANDARD
70
0
0
ENDTAB
0
TABLE
2
VIEW
5
6
100
AcDbSymbolTable
70
0
0
ENDTAB
0
TABLE
2
UCS
5
7
100
AcDbSymbolTable
70
0
0
ENDTAB
0
TABLE
2
APPID
5
9
100
AcDbSymbolTable
70
2
0
APPID
5
12
100
AcDbSymbolTableRecord
100
AcDbRegAppTableRecord
2
ACAD
70
0
0
ENDTAB
0
TABLE
2
DIMSTYLE
5
A
100
AcDbSymbolTable
70
1
0
ENDTAB
0
TABLE
2
BLOCK_RECORD
5
1
100
AcDbSymbolTable
70
1
0
BLOCK_RECORD
5
1F
100
AcDbSymbolTableRecord
100
AcDbBlockTableRecord
2
*MODEL_SPACE
0
BLOCK_RECORD
5
1B
100
AcDbSymbolTableRecord
100
AcDbBlockTableRecord
2
*PAPER_SPACE
0
ENDTAB
0
ENDSEC
0
SECTION
2
BLOCKS
0
BLOCK
5
20
100
AcDbEntity
100
AcDbBlockBegin
2
*MODEL_SPACE
0
ENDBLK
5
21
100
AcDbEntity
100
AcDbBlockEnd
0
BLOCK
5
1C
100
AcDbEntity
100
AcDbBlockBegin
2
*PAPER_SPACE
0
ENDBLK
5
1D
100
AcDbEntity
100
AcDbBlockEnd
0
ENDSEC
0
SECTION
2
ENTITIES
0
LWPOLYLINE
5
100
100
AcDbEntity
8
0
100
AcDbPolyline
90
152
70
1
43
0.0
10
4.0000000000011129
20
99.999999999999972
42
0.41421356237309503
10
1.1129985821867194e-12
20
95.999999999999957
10
8.5265128291212022e-13
20
65.599999999999937
42
0.41421356237309503
10
1.5000000000009517
20
64.099999999999881
10
3.6500000000010511
20
64.099999999999952
42
0.41421356237309503
10
4.6500000000010511
20
65.099999999999937
10
4.6500000000010342
20
68.999999999999943
42
-0.61577565640863796
10
6.404227913464398
20
69.88429963091987
42
-0.074004911122388967
10
11.612302533643138
20
64.683508429260641
42
-0.16095814186573887
10
12.400000000001071
20
62.299999999999955
10
12.400000000001075
20
57.699999999999953
42
-0.16095814186581109
10
11.612302533642247
20
55.316491570738506
42
-0.074004911122397571
10
6.4042279134629343
20
50.115700369078681
42
-0.61577565640801535
10
4.6500000000009321
20
50.99999999999995
10
4.6500000000009223
20
54.899999999999949
42
0.41421356237309503
10
3.6500000000010511
20
55.899999999999835
10
1.5000000000009517
20
55.899999999999949
42
0.41421356237309503
10
9.5146113210375916e-13
20
54.399999999999949
10
8.5265128291212022e-13
20
25.599999999999952
42
0.41421356237309503
10
1.5000000000009517
20
24.099999999999891
10
3.6500000000010511
20
24.099999999999937
42
0.41421356237309503
10
4.6500000000010511
20
25.099999999999937
10
4.6500000000010306
20
28.999999999999943
42
-0.61577565640860155
10
6.4042279134643731
20
29.884299630920026
42
-0.074004911122388523
10
11.612302533643016
20
24.683508429260812
42
-0.16095814186575197
10
12.400000000001071
20
22.299999999999951
10
12.399999999999963
20
17.699999999999925
42
-0.16095814186578136
10
11.612302533642094
20
15.316491570738348
42
-0.07400491112239857
10
6.4042279134622762
20
10.115700369079033
42
-0.61577565640804421
10
4.6500000000000439
20
10.999999999999943
10
4.6499999999998121
20
14.900000000000038
42
0.41421356237309503
10
3.6499999999999511
20
15.899999999999928
10
1.5000000000000513
20
15.899999999999945
42
0.41421356237309503
10
5.1070259132757201e-14
20
14.400000000000048
10
-4.8849813083506888e-14
20
-14.400000000000048
42
0.41421356237309503
10
1.5000000000000513
20
-15.900000000000109
10
3.6499999999999511
20
-15.90000000000007
42
0.41421356237309503
10
4.6499999999999506
20
-14.900000000000073
10
4.6500000000001442
20
-11.000000000000068
42
-0.61577565640882259
10
6.4042279134643598
20
-10.115700369079995
42
-0.074004911122383388
10
11.612302533641849
20
-15.316491570739428
42
-0.16095814186573318
10
12.399999999999732
20
-17.700000000000049
10
12.399999999999963
20
-22.300000000000075
42
-0.16095814186578125
10
11.61230253364208
20
-24.683508429261632
42
-0.074004911122400138
10
6.4042279134622495
20
-29.884299630921184
42
-0.61577565640809473
10
4.6500000000000439
20
-29.000000000000057
10
4.6499999999998121
20
-25.100000000000051
42
0.41421356237309503
10
3.6499999999999511
20
-24.100000000000161
10
1.5000000000000513
20
-24.100000000000055
42
0.41421356237309503
10
5.1070259132757201e-14
20
-25.600000000000076
10
-4.8849813083506888e-14
20
-54.400000000000063
42
0.41421356237309503
10
1.5000000000000513
20
-55.900000000000119
10
3.6499999999999511
20
-55.90000000000007
42
0.41421356237309503
10
4.6499999999999506
20
-54.900000000000077
10
4.650000000000146
20
-51.000000000000071
42
-0.61577565640883913
10
6.4042279134644016
20
-50.115700369080038
42
-0.074004911122382611
10
11.612302533641836
20
-55.316491570739416
42
-0.16095814186573457
10
12.399999999999732
20
-57.700000000000045
10
12.399999999999963
20
-62.300000000000054
42
-0.16095814186578489
10
11.612302533642074
20
-64.683508429261678
42
-0.074004911122398903
10
6.4042279134623223
20
-69.884299630921149
42
-0.61577565640812337
10
4.6500000000000439
20
-69.000000000000071
10
4.6499999999998121
20
-65.100000000000037
42
0.41421356237309503
10
3.6499999999999511
20
-64.100000000000136
10
1.5000000000000513
20
-64.100000000000051
42
0.41421356237309503
10
5.1070259132757201e-14
20
-65.600000000000037
10
1.1496359419993496e-12
20
-96.000000000000071
42
0.41421356237309503
10
4.0000000000011129
20
-100.00000000000007
10
24.000000000001155
20
-100.00000000000006
42
0.41421356237309503
10
28.000000000001151
20
-96.000000000000071
10
28.000000000001151
20
-85.60000000000008
42
0.41421356237309503
10
26.500000000001055
20
-84.100000000000023
10
24.350000000000055
20
-84.100000000000051
42
0.41421356237309503
10
23.350000000000051
20
-85.100000000000037
10
23.350000000000996
20
-89.000000000000071
42
-0.61577565640886933
10
21.595772086536734
20
-89.884299630919941
42
-0.074004911122380487
10
16.387697466359356
20
-84.683508429260783
42
-0.16095814186574139
10
15.600000000001394
20
-82.300000000000054
10
15.600000000001176
20
-77.700000000000045
42
-0.1609581418657629
10
16.387697466358802
20
-75.316491570738677
42
-0.074004911122404038
10
21.595772086538865
20
-70.11570036907878
42
-0.61577565640801113
10
23.350000000000861
20
-71.000000000000071
10
23.350000000000204
20
-74.900000000000105
42
0.41421356237309503
10
24.350000000000055
20
-75.900000000000006
10
26.500000000001055
20
-75.900000000000048
42
0.41421356237309503
10
28.000000000001055
20
-74.400000000000063
10
28.000000000001151
20
-45.600000000000058
42
0.41421356237309503
10
26.500000000001055
20
-44.100000000000001
10
24.350000000000055
20
-44.100000000000051
42
0.41421356237309503
10
23.350000000000051
20
-45.100000000000087
10
23.350000000000989
20
-49.000000000000057
42
-0.61577565640889609
10
21.595772086536705
20
-49.884299630919827
42
-0.074004911122380154
10
16.387697466359153
20
-44.683508429260826
42
-0.16095814186574356
10
15.600000000001174
20
-42.300000000000075
10
15.600000000001174
20
-37.700000000000045
42
-0.16095814186577523
10
16.387697466358865
20
-35.316491570738471
42
-0.074004911122401248
10
21.595772086538865
20
-30.115700369078951
42
-0.61577565640810161
10
23.350000000001092
20
-31.000000000000068
10
23.350000000000204
20
-34.900000000000077
42
0.41421356237309503
10
24.350000000000055
20
-35.899999999999963
10
26.500000000001055
20
-35.90000000000007
42
0.41421356237309503
10
28.000000000001055
20
-34.400000000000063
10
28.000000000001151
20
-5.600000000000076
42
0.41421356237309503
10
26.500000000001055
20
-4.1000000000000156
10
24.350000000000055
20
-4.1000000000000192
42
0.41421356237309503
10
23.350000000000051
20
-5.0999999999999979
10
23.350000000000989
20
-8.999999999999968
42
-0.61577565640887666
10
21.595772086536712
20
-9.8842996309198323
42
-0.074004911122380487
10
16.387697466359267
20
-4.6835084292607139
42
-0.16095814186574778
10
15.600000000001174
20
-2.2999999999999332
10
15.600000000001176
20
2.2999999999999514
42
-0.16095814186576976
10
16.387697466358862
20
4.6835084292614022
42
-0.074004911122402484
10
21.595772086538894
20
9.8842996309210829
42
-0.61577565640809162
10
23.350000000001092
20
8.9999999999999503
10
23.350000000000204
20
5.1000000000001044
42
0.41421356237309503
10
24.350000000000055
20
4.1000000000002146
10
26.500000000001055
20
4.100000000000108
42
0.41421356237309503
10
28.000000000001055
20
5.6000000000000938
10
28.000000000001151
20
34.399999999999935
42
0.41421356237309503
10
26.500000000001055
20
35.899999999999991
10
24.350000000001156
20
35.899999999999949
42
0.41421356237309503
10
23.350000000001153
20
34.899999999999949
10
23.350000000000989
20
30.999999999999943
42
-0.61577565640879861
10
21.595772086537018
20
30.115700369080088
42
-0.074004911122382611
10
16.387697466359185
20
35.316491570739146
42
-0.16095814186574697
10
15.600000000001174
20
37.699999999999946
10
15.600000000001174
20
42.29999999999994
42
-0.16095814186579252
10
16.387697466359036
20
44.683508429261742
42
-0.074004911122397238
10
21.595772086538751
20
49.884299630920964
42
-0.61577565640814658
10
23.350000000001092
20
48.999999999999943
10
23.350000000001316
20
45.099999999999952
42
0.41421356237309503
10
24.350000000001156
20
44.100000000000065
10
26.500000000001055
20
44.099999999999952
42
0.41421356237309503
10
28.000000000001055
20
45.599999999999952
10
28.000000000001151
20
74.399999999999963
42
0.41421356237309503
10
26.500000000001055
20
75.90000000000002
10
24.350000000001156
20
75.899999999999949
42
0.41421356237309503
10
23.350000000001153
20
74.899999999999963
10
23.350000000000989
20
70.999999999999957
42
-0.61577565640882037
10
21.595772086536968
20
70.11570036908013
42
-0.074004911122381598
10
16.387697466359203
20
75.316491570739117
42
-0.16095814186574914
10
15.600000000001174
20
77.699999999999946
10
15.600000000001168
20
82.299999999999926
42
-0.1609581418657923
10
16.387697466359079
20
84.683508429261693
42
-0.074004911122396225
10
21.595772086538666
20
89.884299630920907
42
-0.61577565640817977
10
23.350000000001092
20
88.999999999999943
10
23.350000000001316
20
85.099999999999937
42
0.41421356237309503
10
24.350000000001156
20
84.100000000000051
10
26.500000000001055
20
84.099999999999952
42
0.41421356237309503
10
28.000000000001055
20
85.599999999999952
10
28.000000000001151
20
95.999999999999957
42
0.41421356237309503
10
24.000000000001155
20
99.999999999999972
0
CIRCLE
5
101
100
AcDbEntity
8
0
100
AcDbCircle
10
-8.0000000000008935
20
-80.000000000000057
30
0
40
3.4000000000003205
210
0
220
0
230
-1
0
CIRCLE
5
102
100
AcDbEntity
8
0
100
AcDbCircle
10
-8.0000000000008935
20
79.999999999999943
30
0
40
3.4000000000003205
210
0
220
0
230
-1
0
CIRCLE
5
103
100
AcDbEntity
8
0
100
AcDbCircle
10
-20.000000000000902
20
59.999999999999943
30
0
40
3.4000000000003205
210
0
220
0
230
-1
0
CIRCLE
5
104
100
AcDbEntity
8
0
100
AcDbCircle
10
-8.0000000000008935
20
39.999999999999943
30
0
40
3.4000000000003205
210
0
220
0
230
-1
0
CIRCLE
5
105
100
AcDbEntity
8
0
100
AcDbCircle
10
-20.000000000000902
20
19.999999999999947
30
0
40
3.4000000000003205
210
0
220
0
230
-1
0
CIRCLE
5
106
100
AcDbEntity
8
0
100
AcDbCircle
10
-8.0000000000008935
20
0
30
0
40
3.4000000000003205
210
0
220
0
230
-1
0
CIRCLE
5
107
100
AcDbEntity
8
0
100
AcDbCircle
10
-20.000000000000902
20
-20.000000000000053
30
0
40
3.4000000000003205
210
0
220
0
230
-1
0
CIRCLE
5
108
100
AcDbEntity
8
0
100
AcDbCircle
10
-8.0000000000008935
20
-40.000000000000057
30
0
40
3.4000000000003205
210
0
220
0
230
-1
0
CIRCLE
5
109
100
AcDbEntity
8
0
100
AcDbCircle
10
-20.000000000000902
20
-60.000000000000057
30
0
40
3.4000000000003205
210
0
220
0
230
-1
0
LWPOLYLINE
5
110
100
AcDbEntity
8
0
100
AcDbPolyline
90
152
70
1
43
0.0
10
4.0000000000011129
20
99.999999999999972
42
0.41421356237309254
10
1.1080025785759062e-12
20
95.999999999999957
10
8.5265128291212022e-13
20
65.599999999999937
42
0.41421356237309576
10
1.5000000000009519
20
64.099999999999881
10
3.6500000000010511
20
64.099999999999952
42
0.41421356237309537
10
4.6500000000010484
20
65.099999999999937
10
4.6500000000010324
20
68.999999999999943
42
-0.61577565640863852
10
6.4042279134644069
20
69.88429963091987
42
-0.074004911122388967
10
11.612302533643138
20
64.683508429260641
42
-0.16095814186573887
10
12.400000000001071
20
62.299999999999955
10
12.400000000001075
20
57.699999999999953
42
-0.16095814186581109
10
11.612302533642247
20
55.316491570738506
42
-0.074004911122397682
10
6.4042279134629307
20
50.115700369078681
42
-0.61577565640801446
10
4.6500000000009321
20
50.99999999999995
10
4.6500000000009223
20
54.899999999999949
42
0.41421356237309459
10
3.6500000000010511
20
55.899999999999835
10
1.5000000000009517
20
55.899999999999949
42
0.41421356237309365
10
9.553469126899472e-13
20
54.399999999999949
10
8.5265128291212022e-13
20
25.599999999999952
42
0.41421356237309465
10
1.5000000000009519
20
24.099999999999891
10
3.6500000000010511
20
24.099999999999937
42
0.4142135623730947
10
4.6500000000010511
20
25.099999999999937
10
4.6500000000010306
20
28.999999999999943
42
-0.61577565640860155
10
6.4042279134643785
20
29.884299630920019
42
-0.074004911122388523
10
11.612302533643017
20
24.683508429260801
42
-0.16095814186575164
10
12.400000000001071
20
22.299999999999951
10
12.399999999999963
20
17.699999999999925
42
-0.16095814186578136
10
11.612302533642103
20
15.316491570738361
42
-0.074004911122398792
10
6.4042279134622717
20
10.115700369079029
42
-0.61577565640804233
10
4.6500000000000439
20
10.999999999999943
10
4.6499999999998121
20
14.900000000000038
42
0.41421356237309598
10
3.6499999999999511
20
15.899999999999928
10
1.5000000000000513
20
15.899999999999945
42
0.41421356237309453
10
5.0515147620444623e-14
20
14.400000000000048
10
-4.8849813083506888e-14
20
-14.400000000000048
42
0.41421356237309481
10
1.5000000000000515
20
-15.900000000000109
10
3.6499999999999511
20
-15.90000000000007
42
0.4142135623730937
10
4.6499999999999524
20
-14.900000000000073
10
4.6500000000001442
20
-11.000000000000068
42
-0.61577565640882237
10
6.4042279134643536
20
-10.115700369079983
42
-0.07400491112238361
10
11.612302533641849
20
-15.31649157073943
42
-0.16095814186573296
10
12.399999999999732
20
-17.700000000000049
10
12.399999999999963
20
-22.300000000000075
42
-0.16095814186578125
10
11.612302533642085
20
-24.683508429261622
42
-0.074004911122400249
10
6.4042279134622451
20
-29.884299630921184
42
-0.61577565640809306
10
4.6500000000000439
20
-29.000000000000057
10
4.6499999999998121
20
-25.100000000000051
42
0.41421356237309664
10
3.6499999999999511
20
-24.100000000000158
10
1.5000000000000513
20
-24.100000000000055
42
0.41421356237309576
10
4.8572257327350599e-14
20
-25.600000000000076
10
-4.8849813083506888e-14
20
-54.400000000000063
42
0.41421356237309576
10
1.5000000000000515
20
-55.900000000000119
10
3.6499999999999511
20
-55.90000000000007
42
0.41421356237309537
10
4.6499999999999488
20
-54.900000000000077
10
4.6500000000001442
20
-51.000000000000071
42
-0.6157756564088398
10
6.4042279134643865
20
-50.115700369080017
42
-0.074004911122382833
10
11.612302533641836
20
-55.316491570739416
42
-0.16095814186573443
10
12.399999999999732
20
-57.700000000000045
10
12.399999999999963
20
-62.300000000000054
42
-0.16095814186578478
10
11.61230253364208
20
-64.683508429261664
42
-0.074004911122399125
10
6.4042279134623206
20
-69.884299630921149
42
-0.6157756564081226
10
4.6500000000000439
20
-69.000000000000071
10
4.6499999999998121
20
-65.100000000000037
42
0.41421356237309459
10
3.6499999999999511
20
-64.100000000000136
10
1.5000000000000513
20
-64.100000000000051
42
0.41421356237309365
10
5.4956039718945249e-14
20
-65.600000000000037
10
1.1496359419993496e-12
20
-96.000000000000071
42
0.41421356237309237
10
4.0000000000011138
20
-100.00000000000007
10
24.000000000001155
20
-100.00000000000006
42
0.41421356237309404
10
28.000000000001144
20
-96.000000000000071
10
28.000000000001151
20
-85.60000000000008
42
0.41421356237310197
10
26.500000000001055
20
-84.100000000000023
10
24.350000000000055
20
-84.100000000000051
42
0.4142135623730937
10
23.350000000000062
20
-85.100000000000037
10
23.350000000000996
20
-89.000000000000071
42
-0.61577565640886933
10
21.595772086536734
20
-89.884299630919941
42
-0.074004911122380487
10
16.387697466359352
20
-84.683508429260783
42
-0.16095814186574128
10
15.600000000001394
20
-82.300000000000054
10
15.600000000001176
20
-77.700000000000045
42
-0.16095814186576279
10
16.387697466358805
20
-75.316491570738677
42
-0.074004911122404038
10
21.595772086538872
20
-70.11570036907878
42
-0.61577565640801002
10
23.350000000000861
20
-71.000000000000071
10
23.350000000000204
20
-74.900000000000105
42
0.41421356237309503
10
24.350000000000055
20
-75.900000000000006
10
26.500000000001055
20
-75.900000000000048
42
0.4142135623730942
10
28.000000000001055
20
-74.400000000000063
10
28.000000000001151
20
-45.600000000000058
42
0.41421356237309764
10
26.500000000001055
20
-44.099999999999994
10
24.350000000000055
20
-44.100000000000051
42
0.41421356237309243
10
23.350000000000048
20
-45.100000000000087
10
23.350000000000996
20
-49.000000000000057
42
-0.61577565640889709
10
21.595772086536698
20
-49.884299630919848
42
-0.074004911122380265
10
16.38769746635915
20
-44.683508429260819
42
-0.16095814186574298
10
15.600000000001174
20
-42.300000000000075
10
15.600000000001174
20
-37.700000000000045
42
-0.16095814186577523
10
16.387697466358865
20
-35.316491570738471
42
-0.074004911122401248
10
21.595772086538865
20
-30.115700369078951
42
-0.61577565640810161
10
23.350000000001092
20
-31.000000000000068
10
23.350000000000204
20
-34.900000000000077
42
0.41421356237309631
10
24.350000000000055
20
-35.89999999999997
10
26.500000000001055
20
-35.90000000000007
42
0.41421356237309936
10
28.000000000001059
20
-34.400000000000063
10
28.000000000001151
20
-5.600000000000076
42
0.41421356237309481
10
26.500000000001055
20
-4.1000000000000156
10
24.350000000000055
20
-4.1000000000000192
42
0.41421356237309404
10
23.350000000000051
20
-5.0999999999999979
10
23.350000000000989
20
-8.999999999999968
42
-0.61577565640887688
10
21.595772086536709
20
-9.8842996309198305
42
-0.074004911122380487
10
16.38769746635926
20
-4.6835084292607085
42
-0.16095814186574742
10
15.600000000001174
20
-2.2999999999999323
10
15.600000000001174
20
2.2999999999999505
42
-0.16095814186576987
10
16.38769746635888
20
4.6835084292614191
42
-0.074004911122402262
10
21.595772086538897
20
9.8842996309210864
42
-0.61577565640809007
10
23.350000000001092
20
8.9999999999999503
10
23.350000000000204
20
5.1000000000001044
42
0.41421356237309537
10
24.350000000000055
20
4.1000000000002137
10
26.500000000001055
20
4.100000000000108
42
0.41421356237309725
10
28.000000000001055
20
5.6000000000000938
10
28.000000000001151
20
34.399999999999935
42
0.41421356237309337
10
26.500000000001055
20
35.899999999999991
10
24.350000000001156
20
35.899999999999949
42
0.41421356237309115
10
23.350000000001149
20
34.899999999999949
10
23.350000000000989
20
30.999999999999943
42
-0.61577565640879861
10
21.595772086537025
20
30.115700369080077
42
-0.074004911122382722
10
16.387697466359182
20
35.316491570739153
42
-0.16095814186574675
10
15.600000000001174
20
37.699999999999946
10
15.600000000001174
20
42.29999999999994
42
-0.16095814186579252
10
16.387697466359029
20
44.683508429261742
42
-0.074004911122397349
10
21.595772086538755
20
49.884299630920978
42
-0.61577565640814491
10
23.350000000001092
20
48.999999999999943
10
23.350000000001316
20
45.099999999999952
42
0.41421356237308982
10
24.350000000001156
20
44.100000000000065
10
26.500000000001055
20
44.099999999999952
42
0.4142135623730942
10
28.000000000001055
20
45.599999999999952
10
28.000000000001151
20
74.399999999999963
42
0.41421356237309764
10
26.500000000001055
20
75.90000000000002
10
24.350000000001156
20
75.899999999999949
42
0.41421356237309243
10
23.350000000001149
20
74.899999999999963
10
23.350000000000989
20
70.999999999999957
42
-0.61577565640882137
10
21.595772086536957
20
70.11570036908013
42
-0.074004911122381598
10
16.387697466359203
20
75.316491570739117
42
-0.16095814186574903
10
15.600000000001174
20
77.699999999999946
10
15.60000000000117
20
82.299999999999955
42
-0.16095814186579241
10
16.387697466359093
20
84.683508429261707
42
-0.074004911122396114
10
21.595772086538673
20
89.884299630920907
42
-0.61577565640817866
10
23.350000000001092
20
88.999999999999943
10
23.350000000001316
20
85.099999999999937
42
0.41421356237310153
10
24.350000000001156
20
84.100000000000037
10
26.500000000001055
20
84.099999999999952
42
0.41421356237308982
10
28.000000000001069
20
85.599999999999952
10
28.000000000001151
20
95.999999999999957
42
0.41421356237309404
10
24.000000000001155
20
99.999999999999972
0
CIRCLE
5
111
100
AcDbEntity
8
0
100
AcDbCircle
10
8.0000000000008935
20
-80.000000000000057
30
0
40
3.4000000000003205
210
0
220
-0
230
1
0
CIRCLE
5
112
100
AcDbEntity
8
0
100
AcDbCircle
10
8.0000000000008935
20
79.999999999999943
30
0
40
3.4000000000003205
210
0
220
-0
230
1
0
CIRCLE
5
113
100
AcDbEntity
8
0
100
AcDbCircle
10
20.000000000000902
20
59.999999999999943
30
0
40
3.4000000000003205
210
0
220
-0
230
1
0
CIRCLE
5
114
100
AcDbEntity
8
0
100
AcDbCircle
10
8.0000000000008935
20
39.999999999999943
30
0
40
3.4000000000003205
210
0
220
-0
230
1
0
CIRCLE
5
115
100
AcDbEntity
8
0
100
AcDbCircle
10
20.000000000000902
20
19.999999999999947
30
0
40
3.4000000000003205
210
0
220
-0
230
1
0
CIRCLE
5
116
100
AcDbEntity
8
0
100
AcDbCircle
10
8.0000000000008935
20
0
30
0
40
3.4000000000003205
210
0
220
-0
230
1
0
CIRCLE
5
117
100
AcDbEntity
8
0
100
AcDbCircle
10
20.000000000000902
20
-20.000000000000053
30
0
40
3.4000000000003205
210
0
220
-0
230
1
0
CIRCLE
5
118
100
AcDbEntity
8
0
100
AcDbCircle
10
8.0000000000008935
20
-40.000000000000057
30
0
40
3.4000000000003205
210
0
220
-0
230
1
0
CIRCLE
5
119
100
AcDbEntity
8
0
100
AcDbCircle
10
20.000000000000902
20
-60.000000000000057
30
0
40
3.4000000000003205
210
0
220
-0
230
1
0
ENDSEC
0
SECTION
2
OBJECTS
0
DICTIONARY
5
C
100
AcDbDictionary
3
ACAD_GROUP
350
D
3
ACAD_MLINESTYLE
350
17
0
DICTIONARY
5
D
100
AcDbDictionary
0
DICTIONARY
5
1A
330
C
100
AcDbDictionary
0
DICTIONARY
5
17
100
AcDbDictionary
0
ENDSEC
0
EOF
