0
SECTION
2
HEADER
9
$INSUNITS
70
4
9
$ACADVER
1
AC1014
9
$HANDSEED
5
FFFF
0
ENDSEC
0
SECTION
2
TABLES
0
TABLE
2
VPORT
5
8
100
AcDbSymbolTable
0
ENDTAB
0
TABLE
2
LTYPE
5
5
100
AcDbSymbolTable
0
LTYPE
5
14
100
AcDbSymbolTableRecord
100
AcDbLinetypeTableRecord
2
BYBLOCK
70
0
0
LTYPE
5
15
100
AcDbSymbolTableRecord
100
AcDbLinetypeTableRecord
2
BYLAYER
70
0
0
LTYPE
5
16
100
AcDbSymbolTableRecord
100
AcDbLinetypeTableRecord
2
DASHED
70
0
3
Dashed __ __ __ __ __ __ __ __ __ __ __ __ __ _
72
65
73
2
40
0.75
49
0.5
74
0
49
-0.25
74
0
0
ENDTAB
0
TABLE
2
LAYER
5
2
100
AcDbSymbolTable
70
3
0
LAYER
5
50
100
AcDbSymbolTableRecord
100
AcDbLayerTableRecord
2
1
70
0
62
7
6
DASHED
0
LAYER
5
51
100
AcDbSymbolTableRecord
100
AcDbLayerTableRecord
2
0
70
0
62
7
6
CONTINUOUS
0
ENDTAB
0
TABLE
2
STYLE
5
3
100
AcDbSymbolTable
70
1
0
STYLE
5
11
100
AcDbSymbolTableRecord
100
AcDbTextStyleTableRecord
2
STANDARD
70
0
0
ENDTAB
0
TABLE
2
VIEW
5
6
100
AcDbSymbolTable
70
0
0
ENDTAB
0
TABLE
2
UCS
5
7
100
AcDbSymbolTable
70
0
0
ENDTAB
0
TABLE
2
APPID
5
9
100
AcDbSymbolTable
70
2
0
APPID
5
12
100
AcDbSymbolTableRecord
100
AcDbRegAppTableRecord
2
ACAD
70
0
0
ENDTAB
0
TABLE
2
DIMSTYLE
5
A
100
AcDbSymbolTable
70
1
0
ENDTAB
0
TABLE
2
BLOCK_RECORD
5
1
100
AcDbSymbolTable
70
1
0
BLOCK_RECORD
5
1F
100
AcDbSymbolTableRecord
100
AcDbBlockTableRecord
2
*MODEL_SPACE
0
BLOCK_RECORD
5
1B
100
AcDbSymbolTableRecord
100
AcDbBlockTableRecord
2
*PAPER_SPACE
0
ENDTAB
0
ENDSEC
0
SECTION
2
BLOCKS
0
BLOCK
5
20
100
AcDbEntity
100
AcDbBlockBegin
2
*MODEL_SPACE
0
ENDBLK
5
21
100
AcDbEntity
100
AcDbBlockEnd
0
BLOCK
5
1C
100
AcDbEntity
100
AcDbBlockBegin
2
*PAPER_SPACE
0
ENDBLK
5
1D
100
AcDbEntity
100
AcDbBlockEnd
0
ENDSEC
0
SECTION
2
ENTITIES
0
LWPOLYLINE
5
100
100
AcDbEntity
8
0
100
AcDbPolyline
90
120
70
1
43
0.0
10
-4.1078251911130792e-14
20
-76.000000000000114
42
0.41421356237309509
10
3.9999999999999596
20
-80.000000000000114
10
24
20
-80.000000000000114
42
0.41421356237309503
10
28
20
-76.000000000000114
10
28.000000000000256
20
-45.600000000000122
42
0.41421356237309503
10
26.500000000000156
20
-44.100000000000065
10
24.350000000000954
20
-44.100000000000101
42
0.41421356237309503
10
23.350000000000954
20
-45.100000000000129
10
23.35000000000008
20
-49.000000000000099
42
-0.61577565640859366
10
21.595772086536957
20
-49.884299630919898
42
-0.074004911122379488
10
16.387697466358581
20
-44.683508429261629
42
-0.16095814186580415
10
15.600000000000037
20
-42.300000000000118
10
15.600000000000033
20
-37.700000000000095
42
-0.16095814186586063
10
16.387697466359043
20
-35.31649157073781
42
-0.074004911122370107
10
21.595772086536531
20
-30.115700369080049
42
-0.61577565640865661
10
23.350000000000179
20
-31.000000000000114
10
23.350000000001067
20
-34.900000000000119
42
0.41421356237309503
10
24.350000000000954
20
-35.900000000000006
10
26.500000000000156
20
-35.900000000000112
42
0.41421356237309503
10
28.000000000000153
20
-34.400000000000091
10
28.000000000000252
20
-5.6000000000000316
42
0.41421356237309503
10
26.500000000000149
20
-4.0999999999999712
10
24.35000000000095
20
-4.1000000000000458
42
0.41421356237309503
10
23.35000000000095
20
-5.1000000000000245
10
23.350000000000072
20
-9.0000000000001013
42
-0.61577565640859599
10
21.595772086536989
20
-9.8842996309198874
42
-0.074004911122381042
10
16.387697466358716
20
-4.6835084292613267
42
-0.16095814186581964
10
15.600000000000032
20
-2.2999999999996232
10
15.600000000000918
20
2.3000000000000478
42
-0.16095814186584698
10
16.387697466359551
20
4.6835084292623375
42
-0.074004911122371106
10
21.595772086537384
20
9.8842996309197844
42
-0.61577565640862364
10
23.35000000000106
20
8.9999999999998881
10
23.35000000000106
20
5.0999999999997936
42
0.41421356237309503
10
24.35000000000095
20
4.0999999999999037
10
26.500000000001052
20
4.0999999999997794
42
0.41421356237309503
10
28.000000000001052
20
5.5999999999997829
10
28.000000000001148
20
34.399999999999878
42
0.41421356237309503
10
26.500000000001048
20
35.899999999999942
10
24.350000000000946
20
35.899999999999899
42
0.41421356237309503
10
23.350000000000946
20
34.899999999999906
10
23.350000000000961
20
30.999999999999901
42
-0.61577565640890408
10
21.595772086536723
20
30.115700369080272
42
-0.074004911122367095
10
16.38769746635986
20
35.316491570738144
42
-0.1609581418658235
10
15.600000000001138
20
37.699999999999896
10
15.600000000000918
20
42.299999999999898
42
-0.160958141865853
10
16.387697466359569
20
44.683508429262275
42
-0.074004911122371328
10
21.595772086537302
20
49.884299630919891
42
-0.61577565640869714
10
23.350000000001057
20
48.999999999999908
10
23.350000000001057
20
45.099999999999916
42
0.41421356237309503
10
24.350000000000946
20
44.10000000000003
10
26.500000000001048
20
44.099999999999902
42
0.41421356237309503
10
28.000000000001044
20
45.599999999999909
10
28.000000000000842
20
75.999999999999915
42
0.4142135623730937
10
24.000000000000842
20
79.999999999999901
10
3.9999999999999414
20
79.999999999999901
42
0.41421356237309503
10
-5.8841820305133297e-14
20
75.999999999999901
10
-6.2172489379008766e-14
20
65.599999999999895
42
0.41421356237309509
10
1.5000000000000393
20
64.099999999999838
10
3.6500000000010413
20
64.099999999999909
42
0.41421356237309503
10
4.6500000000010413
20
65.099999999999895
10
4.6500000000001034
20
68.999999999999901
42
-0.61577565640883491
10
6.4042279134643234
20
69.884299630919955
42
-0.074004911122369774
10
11.612302533641156
20
64.683508429261721
42
-0.16095814186582771
10
12.399999999999917
20
62.299999999999905
10
12.39999999999992
20
57.699999999999896
42
-0.16095814186580881
10
11.612302533641623
20
55.316491570738108
42
-0.074004911122373673
10
6.4042279134640072
20
50.115700369079931
42
-0.61577565640870535
10
4.6500000000002348
20
50.999999999999901
10
4.6500000000008939
20
54.899999999999906
42
0.41421356237309503
10
3.6500000000010457
20
55.899999999999793
10
1.5000000000000435
20
55.899999999999899
42
0.41421356237309503
10
4.3298697960381105e-14
20
54.399999999999899
10
-5.3290705182007514e-14
20
25.599999999999909
42
0.41421356237309509
10
1.5000000000000482
20
24.099999999999845
10
3.6500000000010502
20
24.099999999999902
42
0.41421356237309503
10
4.6500000000010502
20
25.099999999999881
10
4.6500000000001069
20
28.999999999999886
42
-0.61577565640885612
10
6.4042279134643927
20
29.88429963091988
42
-0.074004911122367761
10
11.612302533641101
20
24.683508429261792
42
-0.1609581418658341
10
12.399999999999922
20
22.299999999999905
10
12.399999999999924
20
17.700000000000287
42
-0.16095814186583227
10
11.612302533641596
20
15.316491570738071
42
-0.074004911122372785
10
6.4042279134639486
20
10.115700369080081
42
-0.61577565640868126
10
4.6500000000002393
20
11.000000000000094
10
4.6500000000009001
20
14.9000000000001
42
0.41421356237309503
10
3.6500000000010502
20
15.89999999999999
10
1.500000000000048
20
15.899999999999901
42
0.41421356237309503
10
4.7739590058881731e-14
20
14.399999999999915
10
-4.8849813083506888e-14
20
-14.399999999999915
42
0.41421356237309509
10
1.5000000000000526
20
-15.899999999999977
10
3.6499999999999533
20
-15.900000000000114
42
0.41421356237309503
10
4.6499999999999533
20
-14.899999999999904
10
4.6500000000001105
20
-11.000000000000094
42
-0.61577565640883303
10
6.4042279134644087
20
-10.115700369079978
42
-0.074004911122368316
10
11.612302533641166
20
-15.316491570738112
42
-0.1609581418658276
10
12.399999999999928
20
-17.699999999999918
10
12.399999999999931
20
-22.299999999999713
42
-0.16095814186583798
10
11.612302533641529
20
-24.683508429261977
42
-0.074004911122374353
10
6.4042279134637781
20
-29.884299630920076
42
-0.61577565640870302
10
4.6500000000000128
20
-29.000000000000099
10
4.6499999999997925
20
-25.100000000000094
42
0.41421356237309503
10
3.6499999999999533
20
-24.100000000000207
10
1.5000000000000524
20
-24.100000000000101
42
0.41421356237309503
10
5.2180482157382357e-14
20
-25.600000000000122
10
-4.4408920985006262e-14
20
-54.400000000000112
42
0.41421356237309509
10
1.5000000000000571
20
-55.900000000000169
10
3.6499999999999577
20
-55.900000000000112
42
0.41421356237309503
10
4.6499999999999577
20
-54.900000000000119
10
4.6500000000001123
20
-51.000000000000114
42
-0.61577565640882248
10
6.4042279134643731
20
-50.11570036907996
42
-0.074004911122368996
10
11.612302533641101
20
-55.316491570738187
42
-0.16095814186583546
10
12.399999999999935
20
-57.700000000000095
10
12.399999999999938
20
-62.300000000000118
42
-0.16095814186582796
10
11.612302533641433
20
-64.683508429262133
42
-0.074004911122372563
10
6.404227913463771
20
-69.884299630920083
42
-0.61577565640869858
10
4.6500000000000172
20
-69.000000000000099
10
4.6499999999997961
20
-65.100000000000094
42
0.41421356237309503
10
3.6499999999999577
20
-64.100000000000207
10
1.5000000000000568
20
-64.100000000000094
42
0.41421356237309503
10
5.6621374255882984e-14
20
-65.600000000000108
0
CIRCLE
5
101
100
AcDbEntity
8
0
100
AcDbCircle
10
-20.000000000000206
20
59.999999999999901
30
0
40
3.4000000000003205
210
0
220
0
230
-1
0
CIRCLE
5
102
100
AcDbEntity
8
0
100
AcDbCircle
10
-20.000000000000217
20
-60.000000000000099
30
0
40
3.4000000000003205
210
0
220
0
230
-1
0
CIRCLE
5
103
100
AcDbEntity
8
0
100
AcDbCircle
10
-8.0000000000002061
20
-40.000000000000099
30
0
40
3.4000000000003205
210
0
220
0
230
-1
0
CIRCLE
5
104
100
AcDbEntity
8
0
100
AcDbCircle
10
-20.000000000000213
20
-20.000000000000099
30
0
40
3.4000000000003205
210
0
220
0
230
-1
0
CIRCLE
5
105
100
AcDbEntity
8
0
100
AcDbCircle
10
-8.0000000000002007
20
8.8817841970012523e-15
30
0
40
3.4000000000003205
210
0
220
0
230
-1
0
CIRCLE
5
106
100
AcDbEntity
8
0
100
AcDbCircle
10
-20.00000000000021
20
19.999999999999901
30
0
40
3.4000000000003205
210
0
220
0
230
-1
0
CIRCLE
5
107
100
AcDbEntity
8
0
100
AcDbCircle
10
-8.0000000000001954
20
39.999999999999901
30
0
40
3.4000000000003205
210
0
220
0
230
-1
0
LWPOLYLINE
5
108
100
AcDbEntity
8
0
100
AcDbPolyline
90
120
70
1
43
0.0
10
-4.0523140398818214e-14
20
-76.000000000000114
42
0.41421356237309681
10
3.9999999999999609
20
-80.000000000000114
10
24
20
-80.000000000000114
42
0.41421356237309764
10
27.999999999999993
20
-76.000000000000114
10
28.000000000000256
20
-45.600000000000122
42
0.4142135623730942
10
26.500000000000156
20
-44.100000000000072
10
24.350000000000954
20
-44.100000000000101
42
0.41421356237309503
10
23.350000000000961
20
-45.100000000000129
10
23.35000000000008
20
-49.000000000000099
42
-0.61577565640859366
10
21.595772086536954
20
-49.884299630919898
42
-0.074004911122379488
10
16.387697466358574
20
-44.683508429261629
42
-0.16095814186580393
10
15.600000000000037
20
-42.300000000000118
10
15.600000000000033
20
-37.700000000000095
42
-0.16095814186586063
10
16.387697466359032
20
-35.316491570737831
42
-0.074004911122370329
10
21.595772086536535
20
-30.115700369080045
42
-0.6157756564086545
10
23.350000000000179
20
-31.000000000000114
10
23.350000000001067
20
-34.900000000000119
42
0.41421356237309764
10
24.350000000000954
20
-35.900000000000006
10
26.500000000000156
20
-35.900000000000112
42
0.41421356237309681
10
28.000000000000153
20
-34.400000000000091
10
28.000000000000252
20
-5.6000000000000316
42
0.41421356237309481
10
26.500000000000149
20
-4.0999999999999712
10
24.35000000000095
20
-4.1000000000000458
42
0.41421356237309404
10
23.35000000000095
20
-5.1000000000000245
10
23.350000000000072
20
-9.0000000000001013
42
-0.61577565640859633
10
21.595772086536989
20
-9.8842996309198945
42
-0.074004911122381153
10
16.387697466358716
20
-4.6835084292613214
42
-0.1609581418658193
10
15.600000000000032
20
-2.2999999999996228
10
15.600000000000918
20
2.3000000000000478
42
-0.16095814186584698
10
16.387697466359562
20
4.6835084292623357
42
-0.074004911122371106
10
21.595772086537387
20
9.8842996309197915
42
-0.61577565640862075
10
23.35000000000106
20
8.9999999999998881
10
23.35000000000106
20
5.0999999999997936
42
0.41421356237309537
10
24.35000000000095
20
4.0999999999999028
10
26.500000000001052
20
4.0999999999997794
42
0.41421356237309592
10
28.000000000001044
20
5.5999999999997829
10
28.000000000001148
20
34.399999999999878
42
0.41421356237309337
10
26.500000000001048
20
35.899999999999942
10
24.350000000000946
20
35.899999999999899
42
0.41421356237309243
10
23.350000000000946
20
34.899999999999906
10
23.350000000000961
20
30.999999999999901
42
-0.61577565640890408
10
21.595772086536726
20
30.115700369080262
42
-0.074004911122367206
10
16.38769746635986
20
35.316491570738144
42
-0.16095814186582327
10
15.600000000001138
20
37.699999999999896
10
15.600000000000914
20
42.299999999999912
42
-0.16095814186585278
10
16.387697466359569
20
44.683508429262275
42
-0.074004911122371328
10
21.595772086537302
20
49.884299630919891
42
-0.61577565640869714
10
23.350000000001057
20
48.999999999999908
10
23.350000000001057
20
45.099999999999916
42
0.41421356237309115
10
24.350000000000946
20
44.100000000000037
10
26.500000000001048
20
44.099999999999902
42
0.41421356237309592
10
28.000000000001044
20
45.599999999999916
10
28.000000000000842
20
75.999999999999915
42
0.4142135623730957
10
24.000000000000842
20
79.999999999999915
10
3.9999999999999414
20
79.999999999999901
42
0.4142135623730962
10
-5.9952043329758453e-14
20
75.999999999999901
10
-6.2172489379008766e-14
20
65.599999999999895
42
0.41421356237309404
10
1.5000000000000395
20
64.099999999999838
10
3.6500000000010413
20
64.099999999999909
42
0.41421356237309537
10
4.6500000000010386
20
65.099999999999895
10
4.6500000000001016
20
68.999999999999901
42
-0.61577565640883536
10
6.4042279134643234
20
69.884299630919955
42
-0.074004911122369774
10
11.612302533641159
20
64.683508429261707
42
-0.16095814186582749
10
12.399999999999917
20
62.299999999999905
10
12.39999999999992
20
57.699999999999896
42
-0.16095814186580881
10
11.612302533641623
20
55.316491570738108
42
-0.074004911122373673
10
6.4042279134640046
20
50.115700369079931
42
-0.61577565640870457
10
4.6500000000002348
20
50.999999999999901
10
4.6500000000008939
20
54.899999999999906
42
0.41421356237308937
10
3.6500000000010457
20
55.899999999999793
10
1.5000000000000435
20
55.899999999999899
42
0.41421356237309365
10
4.7184478546569153e-14
20
54.399999999999899
10
-5.3290705182007514e-14
20
25.599999999999909
42
0.41421356237309459
10
1.5000000000000484
20
24.099999999999845
10
3.6500000000010502
20
24.099999999999902
42
0.4142135623730947
10
4.6500000000010502
20
25.099999999999881
10
4.650000000000106
20
28.999999999999886
42
-0.61577565640885645
10
6.4042279134643909
20
29.884299630919877
42
-0.074004911122367761
10
11.612302533641106
20
24.683508429261785
42
-0.16095814186583365
10
12.399999999999922
20
22.299999999999905
10
12.399999999999924
20
17.700000000000287
42
-0.16095814186583227
10
11.612302533641596
20
15.316491570738066
42
-0.074004911122372785
10
6.404227913463945
20
10.115700369080079
42
-0.61577565640867959
10
4.6500000000002393
20
11.000000000000094
10
4.6500000000009001
20
14.9000000000001
42
0.41421356237309598
10
3.6500000000010502
20
15.89999999999999
10
1.500000000000048
20
15.899999999999901
42
0.41421356237309465
10
4.6351811278100286e-14
20
14.399999999999915
10
-4.8849813083506888e-14
20
-14.399999999999915
42
0.41421356237309476
10
1.5000000000000528
20
-15.899999999999977
10
3.6499999999999533
20
-15.900000000000114
42
0.4142135623730937
10
4.6499999999999542
20
-14.899999999999904
10
4.6500000000001105
20
-11.000000000000094
42
-0.61577565640883303
10
6.4042279134644016
20
-10.115700369079972
42
-0.074004911122368428
10
11.61230253364117
20
-15.316491570738116
42
-0.16095814186582727
10
12.399999999999928
20
-17.699999999999918
10
12.399999999999931
20
-22.299999999999713
42
-0.16095814186583798
10
11.612302533641529
20
-24.683508429261977
42
-0.074004911122374353
10
6.4042279134637763
20
-29.884299630920076
42
-0.61577565640870224
10
4.6500000000000128
20
-29.000000000000099
10
4.6499999999997925
20
-25.100000000000094
42
0.41421356237309664
10
3.6499999999999533
20
-24.1000000000002
10
1.5000000000000524
20
-24.100000000000101
42
0.41421356237309576
10
4.9682480351975755e-14
20
-25.600000000000122
10
-4.4408920985006262e-14
20
-54.400000000000112
42
0.41421356237309404
10
1.5000000000000573
20
-55.900000000000162
10
3.6499999999999577
20
-55.900000000000112
42
0.41421356237309537
10
4.6499999999999551
20
-54.900000000000119
10
4.6500000000001132
20
-51.000000000000114
42
-0.61577565640882237
10
6.4042279134643731
20
-50.11570036907996
42
-0.074004911122368996
10
11.612302533641101
20
-55.316491570738187
42
-0.16095814186583546
10
12.399999999999935
20
-57.700000000000095
10
12.399999999999938
20
-62.300000000000118
42
-0.16095814186582796
10
11.612302533641436
20
-64.683508429262147
42
-0.074004911122372674
10
6.4042279134637692
20
-69.884299630920083
42
-0.6157756564086978
10
4.6500000000000172
20
-69.000000000000099
10
4.6499999999997961
20
-65.100000000000094
42
0.41421356237308937
10
3.6499999999999577
20
-64.100000000000207
10
1.5000000000000568
20
-64.100000000000094
42
0.41421356237309365
10
6.0507154842071031e-14
20
-65.600000000000108
0
CIRCLE
5
109
100
AcDbEntity
8
0
100
AcDbCircle
10
20.000000000000206
20
59.999999999999901
30
0
40
3.4000000000003205
210
-0
220
0
230
1
0
CIRCLE
5
110
100
AcDbEntity
8
0
100
AcDbCircle
10
20.000000000000217
20
-60.000000000000099
30
0
40
3.4000000000003205
210
-0
220
0
230
1
0
CIRCLE
5
111
100
AcDbEntity
8
0
100
AcDbCircle
10
8.0000000000002061
20
-40.000000000000099
30
0
40
3.4000000000003205
210
-0
220
0
230
1
0
CIRCLE
5
112
100
AcDbEntity
8
0
100
AcDbCircle
10
20.000000000000213
20
-20.000000000000099
30
0
40
3.4000000000003205
210
-0
220
0
230
1
0
CIRCLE
5
113
100
AcDbEntity
8
0
100
AcDbCircle
10
8.0000000000002007
20
8.8817841970012523e-15
30
0
40
3.4000000000003205
210
-0
220
0
230
1
0
CIRCLE
5
114
100
AcDbEntity
8
0
100
AcDbCircle
10
20.00000000000021
20
19.999999999999901
30
0
40
3.4000000000003205
210
-0
220
0
230
1
0
CIRCLE
5
115
100
AcDbEntity
8
0
100
AcDbCircle
10
8.0000000000001954
20
39.999999999999901
30
0
40
3.4000000000003205
210
-0
220
0
230
1
0
ENDSEC
0
SECTION
2
OBJECTS
0
DICTIONARY
5
C
100
AcDbDictionary
3
ACAD_GROUP
350
D
3
ACAD_MLINESTYLE
350
17
0
DICTIONARY
5
D
100
AcDbDictionary
0
DICTIONARY
5
1A
330
C
100
AcDbDictionary
0
DICTIONARY
5
17
100
AcDbDictionary
0
ENDSEC
0
EOF
