0
SECTION
2
HEADER
9
$INSUNITS
70
4
9
$ACADVER
1
AC1014
9
$HANDSEED
5
FFFF
0
ENDSEC
0
SECTION
2
TABLES
0
TABLE
2
VPORT
5
8
100
AcDbSymbolTable
0
ENDTAB
0
TABLE
2
LTYPE
5
5
100
AcDbSymbolTable
0
LTYPE
5
14
100
AcDbSymbolTableRecord
100
AcDbLinetypeTableRecord
2
BYBLOCK
70
0
0
LTYPE
5
15
100
AcDbSymbolTableRecord
100
AcDbLinetypeTableRecord
2
BYLAYER
70
0
0
LTYPE
5
16
100
AcDbSymbolTableRecord
100
AcDbLinetypeTableRecord
2
DASHED
70
0
3
Dashed __ __ __ __ __ __ __ __ __ __ __ __ __ _
72
65
73
2
40
0.75
49
0.5
74
0
49
-0.25
74
0
0
ENDTAB
0
TABLE
2
LAYER
5
2
100
AcDbSymbolTable
70
3
0
LAYER
5
50
100
AcDbSymbolTableRecord
100
AcDbLayerTableRecord
2
1
70
0
62
7
6
DASHED
0
LAYER
5
51
100
AcDbSymbolTableRecord
100
AcDbLayerTableRecord
2
0
70
0
62
7
6
CONTINUOUS
0
ENDTAB
0
TABLE
2
STYLE
5
3
100
AcDbSymbolTable
70
1
0
STYLE
5
11
100
AcDbSymbolTableRecord
100
AcDbTextStyleTableRecord
2
STANDARD
70
0
0
ENDTAB
0
TABLE
2
VIEW
5
6
100
AcDbSymbolTable
70
0
0
ENDTAB
0
TABLE
2
UCS
5
7
100
AcDbSymbolTable
70
0
0
ENDTAB
0
TABLE
2
APPID
5
9
100
AcDbSymbolTable
70
2
0
APPID
5
12
100
AcDbSymbolTableRecord
100
AcDbRegAppTableRecord
2
ACAD
70
0
0
ENDTAB
0
TABLE
2
DIMSTYLE
5
A
100
AcDbSymbolTable
70
1
0
ENDTAB
0
TABLE
2
BLOCK_RECORD
5
1
100
AcDbSymbolTable
70
1
0
BLOCK_RECORD
5
1F
100
AcDbSymbolTableRecord
100
AcDbBlockTableRecord
2
*MODEL_SPACE
0
BLOCK_RECORD
5
1B
100
AcDbSymbolTableRecord
100
AcDbBlockTableRecord
2
*PAPER_SPACE
0
ENDTAB
0
ENDSEC
0
SECTION
2
BLOCKS
0
BLOCK
5
20
100
AcDbEntity
100
AcDbBlockBegin
2
*MODEL_SPACE
0
ENDBLK
5
21
100
AcDbEntity
100
AcDbBlockEnd
0
BLOCK
5
1C
100
AcDbEntity
100
AcDbBlockBegin
2
*PAPER_SPACE
0
ENDBLK
5
1D
100
AcDbEntity
100
AcDbBlockEnd
0
ENDSEC
0
SECTION
2
ENTITIES
0
LWPOLYLINE
5
100
100
AcDbEntity
8
0
100
AcDbPolyline
90
176
70
1
43
0.0
10
3.1749999999989598
20
-13.999999999998636
42
0.41421367410155707
10
4.1750003814695447
20
-14.999999999995238
10
25.824999618525908
20
-15
42
0.41421367410288901
10
26.825000000004593
20
-13.999999999998636
10
26.824999999998909
20
-12.899999237060911
42
0.41421328305114613
10
26.024999999999636
20
-12.099999999994679
10
24.624999809270776
20
-12.09999999999809
42
0.414213376163451
10
24.324999999997559
20
-12.400000000000091
10
24.32499999999574
20
-13.200000762938089
42
-0.41421281750802758
10
24.024999999999181
20
-13.499999999996888
10
22.774999904631841
20
-13.500000000001219
42
-0.4142135344406479
10
21.774999999997959
20
-12.5
10
21.775000005037697
20
-10.806854248041873
42
-0.19891236720897199
10
22.653679660002084
20
-8.6855339099997355
10
25.360533524104603
20
-5.978679656435423
42
-0.1989123673795764
10
27.481853867661812
20
-5.0999999999983459
10
32.518146132340462
20
-5.0999999999973493
42
-0.19891236738005202
10
34.63946647589971
20
-5.9786796564356592
10
37.346320151851693
20
-8.6855337147257252
42
-0.19891239086628221
10
38.225000000000264
20
-10.806854249997286
10
38.224999999996214
20
-12.5
42
-0.41421356237309503
10
37.224999999998545
20
-13.499999999997669
10
35.974999618526908
20
-13.49999999999487
42
-0.41421318994273221
10
35.675000000002797
20
-13.199999999994816
10
35.675000000001091
20
-12.399999237054544
42
0.41421281750802758
10
35.374999999999091
20
-12.099999999997522
10
33.974999618526454
20
-12.09999999999809
42
0.41421342271169748
10
33.175000000002228
20
-12.899999999999636
10
33.175000000001091
20
-13.999999999998636
42
0.41421356237309503
10
34.175000000000182
20
-14.999999999996305
10
41.999999999998181
20
-15
42
0.41421356237309503
10
45.000000000001847
20
-11.999999999993634
10
45
20
-4.1750003814672709
42
0.41421367410288901
10
43.999999999998636
20
-3.1749999999949092
10
42.899999237065458
20
-3.1749999999988177
42
0.41421328305031369
10
42.099999999997948
20
-3.9749999999980901
10
42.100000000000364
20
-5.3750001907337719
42
0.41421337615235171
10
42.399999999997817
20
-5.6749999999956202
10
43.20000076294491
20
-5.6749999999966612
42
-0.41421281750136796
10
43.500000000002217
20
-5.9749999999985448
10
43.500000000005763
20
-7.2250000953681592
42
-0.41421353444131387
10
42.5
20
-8.2249999999997669
10
40.806854248050968
20
-8.2249999949655006
42
-0.19891236721085037
10
38.685533910003322
20
-7.346320340001153
10
35.978679656441827
20
-4.6394664758935464
42
-0.19891236738046983
10
35.100000000002183
20
-2.5181461323359144
10
35.100000000002176
20
2.5181461323404619
42
-0.19891236738046994
10
35.978679656441827
20
4.6394664758980957
10
38.685533714728834
20
7.346320151850863
42
-0.19891239086725723
10
40.80685424999956
20
8.225000000003746
10
42.5
20
8.2250000000030354
42
-0.41421356237442697
10
43.500000000002217
20
7.225000000005366
10
43.500000000000199
20
5.9749996185314558
42
-0.41421318994051226
10
43.199999999999363
20
5.6749999999997414
10
42.399999237065913
20
5.6750000000010914
42
0.41421281751468719
10
42.099999999994964
20
5.3750000000013642
10
42.100000000000364
20
3.974999618531001
42
0.41421342271086503
10
42.899999999999636
20
3.1749999999986755
10
43.999999999998636
20
3.1750000000056389
42
0.41421356237509294
10
45.000000000003126
20
4.1750000000024556
10
45
20
12.000000000000455
42
0.41421356237309503
10
41.999999999998181
20
15.000000000004121
10
34.175000381469545
20
15
42
0.41421367410288901
10
33.17499999999896
20
14.000000000000909
10
33.175000000001091
20
12.899999237065458
42
0.41421328304948124
10
33.975000000000364
20
12.100000000003774
10
35.375000190740593
20
12.100000000000364
42
0.41421337615013176
10
35.674999999996615
20
12.400000000002365
10
35.675000000003763
20
13.20000076294491
42
-0.41421281750580774
10
35.974999999998545
20
13.499999999999659
10
37.225000095372707
20
13.499999999999442
42
-0.41421353443865006
10
38.224999999997991
20
12.5
10
38.224999994969117
20
10.80685424804642
42
-0.19891236720933253
10
37.34632034000019
20
8.6855339100020075
10
34.639466475902104
20
5.9786796564378157
42
-0.19891236738019122
10
32.518146132340462
20
5.0999999999978476
10
27.481853867661812
20
5.1000000000033907
42
-0.19891236737943721
10
25.360533524104483
20
5.9786796564398514
10
22.653679848155125
20
8.6855337147325464
42
-0.19891239086644541
10
21.775000000002009
20
10.806854250004108
10
21.774999999999736
20
12.5
42
-0.41421356237509294
10
22.774999999999181
20
13.500000000006267
10
24.025000381470818
20
13.499999999999417
42
-0.41421318994717188
10
24.325000000004025
20
13.200000000003911
10
24.324999999998909
20
12.399999237065913
42
0.41421281751024752
10
24.624999999998636
20
12.100000000003064
10
26.025000381468999
20
12.100000000000364
42
0.41421342271086503
10
26.824999999997772
20
12.90000000000191
10
26.824999999998909
20
14.000000000000909
42
0.41421356237442697
10
25.824999999999818
20
15.000000000003126
10
4.1750000000001819
20
15
42
0.41421383211257828
10
3.1750003814736494
20
14.000000000000909
10
3.1750000000010909
20
12.90000000000191
42
0.41421342270920009
10
3.9749996185264536
20
12.100000000003865
10
5.3749999999990905
20
12.100000000000364
42
0.41421191838363658
10
5.675000381474085
20
12.399999237065913
10
5.6750000000045722
20
13.200000000003911
42
-0.41421318994273215
10
5.9749996185269083
20
13.500000000002188
10
7.2249999999985448
20
13.499999999998344
42
-0.41421383211324403
10
8.2249996185273506
20
12.5
10
8.2250000000019501
20
10.806854250004108
42
-0.19891227312190224
10
7.3463203430175472
20
8.6855335235598741
10
4.6394664759021014
20
5.9786796564378157
42
-0.19891236738019122
10
2.5181461323404619
20
5.0999999999978476
10
-2.5181461323381877
20
5.1000000000033907
42
-0.1989123673793794
10
-4.6394664758943804
20
5.9786796564409874
10
-7.3463203399956578
20
8.6855339100019933
42
-0.1989123234826197
10
-8.2250000953643863
20
10.80685424804642
10
-8.224999999998488
20
12.5
42
-0.4142135344426458
10
-7.2250000953681592
20
13.500000000004487
10
-5.9750000000008185
20
13.500000000001526
42
-0.41421371664133355
10
-5.6750003814701913
20
13.200000762940363
10
-5.6750000000010914
20
12.400000000002365
42
0.41421337616123116
10
-5.3750001907292244
20
12.100000000003622
10
-3.9750000000003638
20
12.100000000000364
42
0.41421362022526892
10
-3.1750003814708885
20
12.899999237065458
10
-3.1750000000010914
20
14.000000000000909
42
0.41421367410422089
10
-4.1750003814740921
20
15.000000000003837
10
-12.000000000000455
20
15
42
0.41421356237220708
10
-14.999999999995026
20
12.000000000000455
10
-15
20
4.1750000000024556
42
0.41421383211324403
10
-14.000000000000909
20
3.1750003814731524
10
-12.899999999999636
20
3.1750000000010914
42
0.41421342270836764
10
-12.099999999996262
20
3.974999618531001
10
-12.100000000000364
20
5.3750000000013642
42
0.4142119183703174
10
-12.399999237054544
20
5.6750003814725929
10
-13.199999999999363
20
5.6750000000032932
42
-0.41421318994051226
10
-13.499999999996646
20
5.9749996185314558
10
-13.49999999999735
20
7.225000000005366
42
-0.41421383211124618
10
-12.5
20
8.2249996185354508
10
-10.806854249997288
20
8.2250000000014527
42
-0.19891227312128767
10
-8.6855335235574813
20
7.34632034301994
10
-5.9786796564411073
20
4.6394664758988098
42
-0.19891236737963411
10
-5.1000000000051671
20
2.5181461323404619
10
-5.1000000000033916
20
-2.5181461323359136
42
-0.19891236737963422
10
-5.9786796564398514
20
-4.6394664758955182
10
-8.6855339100008564
20
-7.3463203399967947
42
-0.19891232348220189
10
-10.806854248041873
20
-8.2250000953621125
10
-12.5
20
-8.2249999999962142
42
-0.41421353443998199
10
-13.499999999997666
20
-7.2250000953681592
10
-13.499999999996978
20
-5.9749999999985448
42
-0.41421371663911366
10
-13.200000762935815
20
-5.6750003814701913
10
-12.400000000000091
20
-5.6749999999942702
42
0.41421337615235171
10
-12.099999999999074
20
-5.3750001907337719
10
-12.100000000000364
20
-3.9749999999980901
42
0.41421362021944175
10
-12.899999237054089
20
-3.1750003814673349
10
-14.000000000000909
20
-3.1749999999988177
42
0.41421367410155707
10
-14.999999999997511
20
-4.1750003814672709
10
-15
20
-11.999999999993634
42
0.41421356237220708
10
-12.000000000000455
20
-14.9999999999973
10
-4.1750000000001819
20
-15
42
0.41421383211257806
10
-3.1750003814723708
20
-13.999999999998636
10
-3.1750000000010914
20
-12.899999999999636
42
0.41421342271336237
10
-3.974999618531001
20
-12.099999999996546
10
-5.3750000000013642
20
-12.09999999999809
42
0.41421191837253724
10
-5.6750003814713139
20
-12.399999237054544
10
-5.6749999999959746
20
-13.199999999994816
42
-0.41421318995161166
10
-5.974999618529182
20
-13.49999999999487
10
-7.2250000000008185
20
-13.500000000001897
42
-0.41421383211191215
10
-8.2249996185286296
20
-12.5
10
-8.2250000000014527
20
-10.806854249997286
42
-0.19891227312184465
10
-7.3463203430153934
20
-8.6855335235529321
10
-4.6394664758942614
20
-5.9786796564365581
42
-0.1989123673795187
10
-2.5181461323381882
20
-5.0999999999983459
10
2.518146132340461
20
-5.0999999999973493
42
-0.19891236738005191
10
4.6394664758997086
20
-5.9786796564356592
10
7.3463203400024764
20
-8.6855339099951721
42
-0.19891232348289842
10
8.2250000953734776
20
-10.806854248041873
10
8.2249999999979906
20
-12.5
42
-0.41421353443865006
10
7.2250000953727067
20
-13.499999999999442
10
5.9749999999985448
20
-13.499999999997476
42
-0.41421371664133355
10
5.6750003814719676
20
-13.200000762935815
10
5.6750000000010914
20
-12.400000000000091
42
0.41421337616123116
10
5.3750001907405931
20
-12.099999999995806
10
3.9750000000003638
20
-12.09999999999809
42
0.41421362022277153
10
3.1750003814749377
20
-12.899999237060911
0
LWPOLYLINE
5
101
100
AcDbEntity
8
0
100
AcDbPolyline
90
24
70
1
43
0.0
10
10.115000078296605
20
-11.109999887346476
42
0.4142135788706407
10
12.115000078297271
20
-13.109999999999431
10
17.88499992170955
20
-13.109999999997655
42
0.4142135788706407
10
19.884999921710005
20
-11.109999887346476
10
19.88499990689111
20
-10.846855006063834
42
-0.19891238201848851
10
21.349466000956454
20
-7.3113208185054646
10
24.021320343562422
20
-4.6394664758932436
42
0.19891236737935555
10
24.899999999997817
20
-2.5181461323359144
10
24.899999999996609
20
2.5181461323404628
42
0.19891236737935547
10
24.021320343563275
20
4.6394664758986437
10
21.34946635742546
20
7.3113200776190919
42
-0.19891244463009922
10
19.885000009014675
20
10.846855364404746
10
19.885000068298474
20
11.109999549396434
42
0.41421362836327874
10
17.885000068299632
20
13.110000000006039
10
12.114999931702641
20
13.110000000004478
42
0.41421362836327874
10
10.114999931702187
20
11.109999549396434
10
10.114999990988604
20
10.846855364402474
42
-0.19891244462981403
10
8.6505336425784662
20
7.3113200776174381
10
5.9786796564405655
20
4.6394664758993498
42
0.19891236738046977
10
5.0999999999999091
20
2.5181461323404619
10
5.1000000000004055
20
-2.5181461323359144
42
0.19891236738046977
10
5.9786796564412725
20
-4.6394664758940962
10
8.6505339990562078
20
-7.3113208185018994
42
-0.1989123820177853
10
10.115000093119306
20
-10.846855006063834
0
LWPOLYLINE
5
102
100
AcDbEntity
8
0
100
AcDbPolyline
90
8
70
1
43
0.0
10
43.199999999999363
20
9.6500000000028763
42
0.41421430723411506
10
43.500000000001251
20
9.9500007629399079
10
43.500000000001791
20
12.000000000000455
42
0.41421356237309503
10
41.999999999998181
20
13.500000000001364
10
39.949999999998909
20
13.500000000003212
42
0.41421356237309503
10
39.649999999999181
20
13.200000000003911
10
39.650000000003708
20
9.9500000000057298
42
0.41421247702417296
10
39.949999809268775
20
9.6499996185298187
0
LWPOLYLINE
5
103
100
AcDbEntity
8
0
100
AcDbPolyline
90
8
70
1
43
0.0
10
-13.500000000001247
20
9.9500007629399079
42
0.41421430723411506
10
-13.199999999999363
20
9.6500000000028763
10
-9.9499998092596798
20
9.650000000004713
42
0.41421337615235171
10
-9.6500000000014552
20
9.9500000000057298
10
-9.6499999999978314
20
13.200000000003911
42
0.4142135623708752
10
-9.9499999999989086
20
13.500000000001364
10
-12.000000000000455
20
13.500000000004064
42
0.41421356237131918
10
-13.500000000001364
20
12.000000000000455
0
LWPOLYLINE
5
104
100
AcDbEntity
8
0
100
AcDbPolyline
90
8
70
1
43
0.0
10
-13.200000047679623
20
-9.6499999999960586
42
0.41421351582234661
10
-13.500000000002217
20
-9.9499999999989086
10
-13.499999999994969
20
-11.999999999993634
42
0.41421356237131918
10
-12.000000000000455
20
-13.499999999999091
10
-9.9499999999989086
20
-13.499999999995893
42
0.41421356237309503
10
-9.6500000000014552
20
-13.199999999994816
10
-9.649999999997025
20
-9.9500007629353604
42
0.4142143072363349
10
-9.9499999999989086
20
-9.6499999999991815
0
LWPOLYLINE
5
105
100
AcDbEntity
8
0
100
AcDbPolyline
90
8
70
1
43
0.0
10
43.499999999999446
20
-9.9499999999989086
42
0.41421351580680754
10
43.200000047688718
20
-9.649999999996556
10
39.949999999998909
20
-9.6499999999991175
42
0.4142145320147374
10
39.65000009537107
20
-9.9500007629353604
10
39.650000000001384
20
-13.199999999994816
42
0.41421356237309503
10
39.949999999998909
20
-13.499999999994543
10
41.999999999998181
20
-13.499999999997243
42
0.41421356237309503
10
43.499999999999091
20
-11.999999999993634
0
CIRCLE
5
106
100
AcDbEntity
8
0
100
AcDbCircle
10
-30
20
0
30
0
40
2.4499999999996191
210
0
220
0
230
-1
0
CIRCLE
5
107
100
AcDbEntity
8
0
100
AcDbCircle
10
0
20
0
30
0
40
2.4499999999996191
210
0
220
0
230
-1
0
LWPOLYLINE
5
108
100
AcDbEntity
8
0
100
AcDbPolyline
90
176
70
1
43
0.0
10
3.1749999999989598
20
-13.999999999998636
42
0.41421367410155691
10
4.1750003814695447
20
-14.999999999995239
10
25.824999618525908
20
-15
42
0.41421367410288507
10
26.825000000004589
20
-13.999999999998636
10
26.824999999998909
20
-12.899999237060911
42
0.41421328305114696
10
26.024999999999636
20
-12.099999999994678
10
24.624999809270776
20
-12.09999999999809
42
0.4142133761634445
10
24.324999999997562
20
-12.400000000000091
10
24.32499999999574
20
-13.200000762938089
42
-0.41421281750802758
10
24.024999999999181
20
-13.499999999996888
10
22.774999904631841
20
-13.500000000001219
42
-0.4142135344406479
10
21.774999999997959
20
-12.5
10
21.775000005037697
20
-10.806854248041873
42
-0.19891236720897199
10
22.653679660002084
20
-8.6855339099997355
10
25.360533524104603
20
-5.978679656435423
42
-0.1989123673795764
10
27.481853867661812
20
-5.0999999999983459
10
32.518146132340462
20
-5.0999999999973493
42
-0.19891236738005202
10
34.63946647589971
20
-5.9786796564356592
10
37.346320151851693
20
-8.6855337147257252
42
-0.19891239086628221
10
38.225000000000264
20
-10.806854249997286
10
38.224999999996214
20
-12.5
42
-0.41421356237309503
10
37.224999999998545
20
-13.499999999997669
10
35.974999618526908
20
-13.49999999999487
42
-0.41421318994273221
10
35.675000000002797
20
-13.199999999994816
10
35.675000000001091
20
-12.399999237054544
42
0.4142128175080233
10
35.374999999999091
20
-12.099999999997523
10
33.974999618526454
20
-12.09999999999809
42
0.41421342271169748
10
33.175000000002228
20
-12.899999999999636
10
33.175000000001091
20
-13.999999999998636
42
0.41421356237309243
10
34.175000000000182
20
-14.999999999996305
10
41.999999999998181
20
-15
42
0.41421356237309337
10
45.000000000001847
20
-11.999999999993634
10
45
20
-4.1750003814672709
42
0.41421367410288379
10
43.999999999998636
20
-3.1749999999949079
10
42.899999237065458
20
-3.1749999999988177
42
0.41421328305031435
10
42.099999999997948
20
-3.9749999999980901
10
42.100000000000364
20
-5.3750001907337719
42
0.41421337615233866
10
42.399999999997817
20
-5.674999999995622
10
43.20000076294491
20
-5.6749999999966612
42
-0.41421281750136796
10
43.500000000002217
20
-5.9749999999985448
10
43.500000000005763
20
-7.2250000953681592
42
-0.41421353444131387
10
42.5
20
-8.2249999999997669
10
40.806854248050968
20
-8.2249999949655006
42
-0.19891236721085037
10
38.685533910003322
20
-7.346320340001153
10
35.978679656441827
20
-4.6394664758935464
42
-0.19891236738046983
10
35.100000000002183
20
-2.518146132335914
10
35.100000000002183
20
2.518146132340461
42
-0.19891236738047005
10
35.978679656441827
20
4.6394664758980966
10
38.685533714728834
20
7.346320151850863
42
-0.19891239086725723
10
40.80685424999956
20
8.225000000003746
10
42.5
20
8.2250000000030354
42
-0.41421356237442697
10
43.500000000002217
20
7.225000000005366
10
43.500000000000199
20
5.9749996185314558
42
-0.41421318994051226
10
43.199999999999363
20
5.6749999999997414
10
42.399999237065913
20
5.6750000000010914
42
0.41421281751468719
10
42.099999999994964
20
5.3750000000013642
10
42.100000000000364
20
3.974999618531001
42
0.41421342271085937
10
42.899999999999636
20
3.1749999999986711
10
43.999999999998636
20
3.1750000000056389
42
0.4142135623750926
10
45.000000000003126
20
4.1750000000024556
10
45
20
12.000000000000455
42
0.41421356237309337
10
41.999999999998181
20
15.000000000004121
10
34.175000381469545
20
15
42
0.41421367410288901
10
33.17499999999896
20
14.000000000000909
10
33.175000000001091
20
12.899999237065458
42
0.4142132830494788
10
33.975000000000364
20
12.100000000003773
10
35.375000190740593
20
12.100000000000364
42
0.41421337615013826
10
35.674999999996615
20
12.400000000002365
10
35.675000000003763
20
13.20000076294491
42
-0.41421281750580774
10
35.974999999998545
20
13.499999999999659
10
37.225000095372707
20
13.499999999999442
42
-0.41421353443865006
10
38.224999999997991
20
12.5
10
38.224999994969117
20
10.80685424804642
42
-0.19891236720933253
10
37.34632034000019
20
8.6855339100020075
10
34.639466475902104
20
5.9786796564378157
42
-0.19891236738019122
10
32.518146132340462
20
5.0999999999978476
10
27.481853867661812
20
5.1000000000033907
42
-0.19891236737943721
10
25.360533524104483
20
5.9786796564398514
10
22.653679848155125
20
8.6855337147325464
42
-0.19891239086644541
10
21.775000000002009
20
10.806854250004108
10
21.774999999999736
20
12.5
42
-0.41421356237509294
10
22.774999999999181
20
13.500000000006267
10
24.025000381470818
20
13.499999999999417
42
-0.41421318994717188
10
24.325000000004025
20
13.200000000003911
10
24.324999999998909
20
12.399999237065913
42
0.41421281751023664
10
24.624999999998636
20
12.100000000003064
10
26.025000381468999
20
12.100000000000364
42
0.41421342271086664
10
26.824999999997775
20
12.90000000000191
10
26.824999999998909
20
14.000000000000909
42
0.41421356237442564
10
25.824999999999818
20
15.000000000003123
10
4.1750000000001819
20
15
42
0.41421383211257612
10
3.1750003814736472
20
14.000000000000909
10
3.1750000000010909
20
12.90000000000191
42
0.41421342270920053
10
3.9749996185264536
20
12.100000000003865
10
5.3749999999990905
20
12.100000000000364
42
0.4142119183836388
10
5.6750003814740833
20
12.399999237065913
10
5.6750000000045722
20
13.200000000003911
42
-0.41421318994273215
10
5.9749996185269083
20
13.500000000002188
10
7.2249999999985448
20
13.499999999998344
42
-0.41421383211324403
10
8.2249996185273506
20
12.5
10
8.2250000000019483
20
10.806854250004108
42
-0.19891227312190238
10
7.3463203430175463
20
8.6855335235598741
10
4.6394664759021023
20
5.9786796564378157
42
-0.19891236738019133
10
2.5181461323404615
20
5.0999999999978476
10
-2.5181461323381886
20
5.1000000000033898
42
-0.1989123673793794
10
-4.6394664758943813
20
5.9786796564409874
10
-7.3463203399956578
20
8.6855339100019933
42
-0.1989123234826197
10
-8.2250000953643863
20
10.80685424804642
10
-8.224999999998488
20
12.5
42
-0.4142135344426458
10
-7.2250000953681592
20
13.500000000004487
10
-5.9750000000008185
20
13.500000000001526
42
-0.41421371664133355
10
-5.6750003814701913
20
13.200000762940363
10
-5.6750000000010914
20
12.400000000002365
42
0.41421337616123116
10
-5.3750001907292244
20
12.100000000003622
10
-3.9750000000003638
20
12.100000000000364
42
0.41421362022526731
10
-3.1750003814708871
20
12.899999237065458
10
-3.1750000000010914
20
14.000000000000909
42
0.41421367410422061
10
-4.1750003814740921
20
15.000000000003837
10
-12.000000000000455
20
15
42
0.41421356237220708
10
-14.999999999995026
20
12.000000000000455
10
-15
20
4.1750000000024556
42
0.41421383211324436
10
-14.000000000000909
20
3.1750003814731507
10
-12.899999999999636
20
3.1750000000010914
42
0.41421342270836764
10
-12.099999999996262
20
3.974999618531001
10
-12.100000000000364
20
5.3750000000013642
42
0.41421191837031301
10
-12.399999237054544
20
5.6750003814725938
10
-13.199999999999363
20
5.6750000000032932
42
-0.41421318994051226
10
-13.499999999996646
20
5.9749996185314558
10
-13.49999999999735
20
7.225000000005366
42
-0.41421383211124618
10
-12.5
20
8.2249996185354508
10
-10.806854249997288
20
8.2250000000014527
42
-0.19891227312128767
10
-8.6855335235574813
20
7.34632034301994
10
-5.9786796564411073
20
4.6394664758988107
42
-0.19891236737963422
10
-5.1000000000051671
20
2.5181461323404615
10
-5.1000000000033907
20
-2.5181461323359136
42
-0.19891236737963422
10
-5.9786796564398514
20
-4.6394664758955182
10
-8.6855339100008564
20
-7.3463203399967947
42
-0.19891232348220189
10
-10.806854248041873
20
-8.2250000953621125
10
-12.5
20
-8.2249999999962142
42
-0.41421353443998199
10
-13.499999999997666
20
-7.2250000953681592
10
-13.499999999996978
20
-5.9749999999985448
42
-0.41421371663911366
10
-13.200000762935815
20
-5.6750003814701913
10
-12.400000000000091
20
-5.6749999999942702
42
0.41421337615235171
10
-12.099999999999074
20
-5.3750001907337719
10
-12.100000000000364
20
-3.9749999999980901
42
0.41421362021944136
10
-12.899999237054089
20
-3.1750003814673358
10
-14.000000000000909
20
-3.1749999999988177
42
0.41421367410155691
10
-14.999999999997513
20
-4.1750003814672709
10
-15
20
-11.999999999993634
42
0.41421356237220708
10
-12.000000000000455
20
-14.9999999999973
10
-4.1750000000001819
20
-15
42
0.4142138321125784
10
-3.1750003814723691
20
-13.999999999998636
10
-3.1750000000010914
20
-12.899999999999636
42
0.41421342271336281
10
-3.974999618531001
20
-12.099999999996546
10
-5.3750000000013642
20
-12.09999999999809
42
0.41421191837253402
10
-5.6750003814713139
20
-12.399999237054542
10
-5.6749999999959746
20
-13.199999999994816
42
-0.41421318995161166
10
-5.974999618529182
20
-13.49999999999487
10
-7.2250000000008185
20
-13.500000000001897
42
-0.41421383211191215
10
-8.2249996185286296
20
-12.5
10
-8.2250000000014527
20
-10.806854249997286
42
-0.19891227312184465
10
-7.3463203430153934
20
-8.6855335235529321
10
-4.6394664758942632
20
-5.9786796564365607
42
-0.19891236737951881
10
-2.5181461323381877
20
-5.0999999999983459
10
2.518146132340461
20
-5.0999999999973493
42
-0.19891236738005191
10
4.6394664758997086
20
-5.9786796564356592
10
7.3463203400024764
20
-8.6855339099951721
42
-0.19891232348289842
10
8.2250000953734776
20
-10.806854248041873
10
8.2249999999979906
20
-12.5
42
-0.41421353443865006
10
7.2250000953727067
20
-13.499999999999442
10
5.9749999999985448
20
-13.499999999997476
42
-0.41421371664133355
10
5.6750003814719676
20
-13.200000762935815
10
5.6750000000010914
20
-12.400000000000091
42
0.41421337616122678
10
5.3750001907405931
20
-12.099999999995806
10
3.9750000000003638
20
-12.09999999999809
42
0.41421362022277058
10
3.1750003814749355
20
-12.899999237060911
0
LWPOLYLINE
5
109
100
AcDbEntity
8
0
100
AcDbPolyline
90
24
70
1
43
0.0
10
10.115000078296605
20
-11.109999887346476
42
0.41421357887064097
10
12.115000078297271
20
-13.109999999999431
10
17.88499992170955
20
-13.109999999997656
42
0.4142135788706397
10
19.884999921710005
20
-11.109999887346476
10
19.88499990689111
20
-10.846855006063834
42
-0.19891238201848851
10
21.349466000956454
20
-7.3113208185054646
10
24.021320343562422
20
-4.6394664758932427
42
0.1989123673793563
10
24.899999999997817
20
-2.5181461323359144
10
24.899999999996606
20
2.5181461323404641
42
0.19891236737935541
10
24.021320343563275
20
4.6394664758986437
10
21.34946635742546
20
7.3113200776190919
42
-0.19891244463009922
10
19.885000009014675
20
10.846855364404746
10
19.885000068298474
20
11.109999549396434
42
0.41421362836327841
10
17.885000068299632
20
13.110000000006039
10
12.114999931702641
20
13.110000000004478
42
0.41421362836327746
10
10.114999931702187
20
11.109999549396434
10
10.114999990988604
20
10.846855364402474
42
-0.19891244462981403
10
8.6505336425784662
20
7.3113200776174381
10
5.9786796564405664
20
4.6394664758993498
42
0.1989123673804703
10
5.0999999999999091
20
2.5181461323404619
10
5.1000000000004055
20
-2.5181461323359153
42
0.19891236738046994
10
5.9786796564412725
20
-4.6394664758940962
10
8.650533999056206
20
-7.3113208185018985
42
-0.19891238201778541
10
10.115000093119306
20
-10.846855006063834
0
CIRCLE
5
110
100
AcDbEntity
8
0
100
AcDbCircle
10
30
20
0
30
0
40
2.4499999999996187
210
0
220
-0
230
1
0
CIRCLE
5
111
100
AcDbEntity
8
0
100
AcDbCircle
10
0
20
0
30
0
40
2.4499999999996187
210
0
220
-0
230
1
0
LWPOLYLINE
5
112
100
AcDbEntity
8
0
100
AcDbPolyline
90
8
70
1
43
0.0
10
43.199999999999363
20
9.6500000000028763
42
0.41421430723409769
10
43.500000000001251
20
9.9500007629399079
10
43.500000000001791
20
12.000000000000455
42
0.41421356237309764
10
41.999999999998181
20
13.500000000001364
10
39.949999999998909
20
13.500000000003212
42
0.41421356237309503
10
39.649999999999181
20
13.200000000003911
10
39.650000000003708
20
9.9500000000057298
42
0.41421247702417402
10
39.949999809268775
20
9.6499996185298187
0
LWPOLYLINE
5
113
100
AcDbEntity
8
0
100
AcDbPolyline
90
8
70
1
43
0.0
10
-13.500000000001247
20
9.9500007629399079
42
0.41421430723411506
10
-13.199999999999363
20
9.6500000000028763
10
-9.9499998092596798
20
9.650000000004713
42
0.4142133761523506
10
-9.6500000000014552
20
9.9500000000057298
10
-9.6499999999978314
20
13.200000000003911
42
0.41421356237087625
10
-9.9499999999989086
20
13.500000000001364
10
-12.000000000000455
20
13.500000000004064
42
0.4142135623713179
10
-13.500000000001364
20
12.000000000000455
0
LWPOLYLINE
5
114
100
AcDbEntity
8
0
100
AcDbPolyline
90
8
70
1
43
0.0
10
-13.200000047679623
20
-9.6499999999960586
42
0.41421351582234661
10
-13.500000000002215
20
-9.9499999999989086
10
-13.499999999994969
20
-11.999999999993634
42
0.41421356237131823
10
-12.000000000000455
20
-13.499999999999091
10
-9.9499999999989086
20
-13.499999999995893
42
0.41421356237309614
10
-9.6500000000014552
20
-13.199999999994816
10
-9.649999999997025
20
-9.9500007629353604
42
0.4142143072363349
10
-9.9499999999989086
20
-9.6499999999991815
0
LWPOLYLINE
5
115
100
AcDbEntity
8
0
100
AcDbPolyline
90
8
70
1
43
0.0
10
43.499999999999446
20
-9.9499999999989086
42
0.41421351580679239
10
43.200000047688718
20
-9.6499999999965542
10
39.949999999998909
20
-9.6499999999991175
42
0.41421453201475472
10
39.65000009537107
20
-9.9500007629353604
10
39.650000000001384
20
-13.199999999994816
42
0.41421356237308854
10
39.949999999998909
20
-13.499999999994543
10
41.999999999998181
20
-13.499999999997243
42
0.41421356237309764
10
43.499999999999091
20
-11.999999999993634
0
ENDSEC
0
SECTION
2
OBJECTS
0
DICTIONARY
5
C
100
AcDbDictionary
3
ACAD_GROUP
350
D
3
ACAD_MLINESTYLE
350
17
0
DICTIONARY
5
D
100
AcDbDictionary
0
DICTIONARY
5
1A
330
C
100
AcDbDictionary
0
DICTIONARY
5
17
100
AcDbDictionary
0
ENDSEC
0
EOF
