0
SECTION
2
HEADER
9
$INSUNITS
70
4
9
$ACADVER
1
AC1014
9
$HANDSEED
5
FFFF
0
ENDSEC
0
SECTION
2
TABLES
0
TABLE
2
VPORT
5
8
100
AcDbSymbolTable
0
ENDTAB
0
TABLE
2
LTYPE
5
5
100
AcDbSymbolTable
0
LTYPE
5
14
100
AcDbSymbolTableRecord
100
AcDbLinetypeTableRecord
2
BYBLOCK
70
0
0
LTYPE
5
15
100
AcDbSymbolTableRecord
100
AcDbLinetypeTableRecord
2
BYLAYER
70
0
0
LTYPE
5
16
100
AcDbSymbolTableRecord
100
AcDbLinetypeTableRecord
2
DASHED
70
0
3
Dashed __ __ __ __ __ __ __ __ __ __ __ __ __ _
72
65
73
2
40
0.75
49
0.5
74
0
49
-0.25
74
0
0
ENDTAB
0
TABLE
2
LAYER
5
2
100
AcDbSymbolTable
70
3
0
LAYER
5
50
100
AcDbSymbolTableRecord
100
AcDbLayerTableRecord
2
1
70
0
62
7
6
DASHED
0
LAYER
5
51
100
AcDbSymbolTableRecord
100
AcDbLayerTableRecord
2
0
70
0
62
7
6
CONTINUOUS
0
ENDTAB
0
TABLE
2
STYLE
5
3
100
AcDbSymbolTable
70
1
0
STYLE
5
11
100
AcDbSymbolTableRecord
100
AcDbTextStyleTableRecord
2
STANDARD
70
0
0
ENDTAB
0
TABLE
2
VIEW
5
6
100
AcDbSymbolTable
70
0
0
ENDTAB
0
TABLE
2
UCS
5
7
100
AcDbSymbolTable
70
0
0
ENDTAB
0
TABLE
2
APPID
5
9
100
AcDbSymbolTable
70
2
0
APPID
5
12
100
AcDbSymbolTableRecord
100
AcDbRegAppTableRecord
2
ACAD
70
0
0
ENDTAB
0
TABLE
2
DIMSTYLE
5
A
100
AcDbSymbolTable
70
1
0
ENDTAB
0
TABLE
2
BLOCK_RECORD
5
1
100
AcDbSymbolTable
70
1
0
BLOCK_RECORD
5
1F
100
AcDbSymbolTableRecord
100
AcDbBlockTableRecord
2
*MODEL_SPACE
0
BLOCK_RECORD
5
1B
100
AcDbSymbolTableRecord
100
AcDbBlockTableRecord
2
*PAPER_SPACE
0
ENDTAB
0
ENDSEC
0
SECTION
2
BLOCKS
0
BLOCK
5
20
100
AcDbEntity
100
AcDbBlockBegin
2
*MODEL_SPACE
0
ENDBLK
5
21
100
AcDbEntity
100
AcDbBlockEnd
0
BLOCK
5
1C
100
AcDbEntity
100
AcDbBlockBegin
2
*PAPER_SPACE
0
ENDBLK
5
1D
100
AcDbEntity
100
AcDbBlockEnd
0
ENDSEC
0
SECTION
2
ENTITIES
0
LWPOLYLINE
5
100
100
AcDbEntity
8
0
100
AcDbPolyline
90
200
70
1
43
0.0
10
-4.6999995641505166
20
-14.999999999955698
42
0.41421356249213576
10
-4.4999995641500945
20
-14.79999999987399
10
-4.4999995642706381
20
-14.500000000001592
10
-4.2000003735972768
20
-14.499999999995907
42
0.41421356237808976
10
-3.9999999999994529
20
-14.299999626396698
10
-3.9999999999730562
20
-13.299999564202949
42
0.41421356238075357
10
-4.4999999999731699
20
-12.799999564190152
10
-7.7499999999997726
20
-12.799999564189122
42
-0.4142135623717631
10
-8.2499999999986784
20
-12.299999564189079
10
-8.249999999998181
20
-10.257106345384273
42
-0.19891236737852763
10
-8.1035533905918911
20
-9.9035529547910155
10
-4.3509124755041189
20
-6.1509120397051307
42
-0.19891236737579598
10
-3.9973590849103857
20
-6.0044654302984668
10
-0.95358930014299403
20
-6.0044654302976141
42
0.13165212541749105
10
-0.85358955360176458
20
-5.9776706573895479
10
-0.099999746538227241
20
-5.5425868497713644
42
-0.26794840823031485
10
0.099999746543846024
20
-5.5425868497713271
10
0.85358955360618438
20
-5.977670657388785
42
0.13165212541992305
10
0.95358930014640408
20
-6.0044654302972589
10
3.9973590849160696
20
-6.0044654302989287
42
-0.19891236737671872
10
4.3509124755080855
20
-6.1509120397051458
10
8.1035533905939268
20
-9.9035529547912553
42
-0.19891236738096219
10
8.2500000000008811
20
-10.257106345385978
10
8.2499999999938112
20
-12.299999564197037
42
-0.41421356237509294
10
7.7499999999895408
20
-12.799999564195623
10
4.4999999999782867
20
-12.79999956419374
42
0.41421356238141954
10
3.9999999999785634
20
-13.299999564208065
10
4.0000000000037508
20
-14.299999626397266
42
0.41421356237725815
10
4.2000003736012568
20
-14.499999999996227
10
4.4999995642979238
20
-14.499999999926558
10
4.4999995641529722
20
-14.799999999859779
42
0.41421356251710933
10
4.6999995641527903
20
-14.999999999956763
10
25.300000435849483
20
-14.999999999956231
42
0.41421356252127162
10
25.500000435850083
20
-14.799999999860916
10
25.500000435706625
20
-14.499999999927695
10
25.799999626402723
20
-14.499999999997613
42
0.41421356237808976
10
26.000000000000547
20
-14.299999626398403
10
26.000000000026944
20
-13.299999564209202
42
0.41421356238141954
10
25.50000000002683
20
-12.79999956419438
10
22.250000000015007
20
-12.799999564195055
42
-0.41421356237509294
10
21.750000000009599
20
-12.299999564197606
10
21.750000000001108
20
-10.257106345386546
42
-0.198912367384774
10
21.89644660940996
20
-9.9035529547911629
10
25.649087524495879
20
-6.150912039706836
42
-0.19891236737579598
10
26.002640915089614
20
-6.0044654303001721
10
29.046410699857006
20
-6.0044654302993195
42
0.13165212541748975
10
29.146410446398235
20
-5.9776706573912533
10
29.900000253461485
20
-5.5425868497725777
42
-0.2679484082310738
10
30.099999746544054
20
-5.5425868497738069
10
30.853589553606184
20
-5.9776706573904903
42
0.13165212541992372
10
30.953589300146405
20
-6.0044654302998524
10
33.99735908491607
20
-6.004465430300634
42
-0.19891236737671952
10
34.350912475508089
20
-6.150912039706852
10
38.10355339059511
20
-9.9035529547940513
42
-0.19891236738183379
10
38.250000000003013
20
-10.257106345387115
10
38.250000000001769
20
-12.299999564191921
42
-0.41421356237242907
10
37.750000000002046
20
-12.799999564190507
10
34.499999999978286
20
-12.799999564192035
42
0.41421356238075357
10
33.999999999977675
20
-13.299999564205223
10
34.000000000003752
20
-14.299999626398971
42
0.41421356237725732
10
34.200000373601256
20
-14.499999999997932
10
34.49999956427348
20
-14.500000000003865
10
34.499999564152404
20
-14.799999999876263
42
0.41421356249213576
10
34.69999956415279
20
-14.999999999957083
10
43.000000346201546
20
-14.999999999957936
42
0.41421356237242907
10
44.999999999960458
20
-13.00000034619984
10
45.000000000048885
20
-4.6999995641539272
42
0.41421356252210406
10
44.79999999995357
20
-4.4999995641521897
10
44.499999999928832
20
-4.4999995642973545
10
44.499999999999886
20
-4.200000373600119
42
0.41421356237642482
10
44.299999626401814
20
-4.0000000000034319
10
43.299999237094084
20
-3.9999999999770353
42
0.41421356238175255
10
42.799999237081856
20
-4.4999999999794227
10
42.799999237098696
20
-7.7500003270972684
42
-0.41421356237509294
10
42.299999237098973
20
-8.2500003271004019
10
40.256944491072773
20
-8.2500003271029954
42
-0.19876902777335176
10
39.903586157111441
20
-8.1037486667743632
10
36.14664166604139
20
-4.3509461875635704
42
-0.19905571484930978
10
36.000000000001044
20
-3.9971978478894243
10
36.000000000002501
20
-0.95319014530559798
42
0.13070381380428159
10
35.973576928728626
20
-0.85383698826855348
10
35.541720280986851
20
-0.099353157036750239
42
-0.26595099803448291
10
35.541720280985373
20
0.099353157037592191
10
35.97357692873004
20
0.85383698826888121
42
0.13070381379528906
10
36.000000000001471
20
0.95319014530730328
10
36.00000000000162
20
3.9971978478905612
42
-0.19905571484905088
10
36.146641666042811
20
4.3509461875638547
10
39.903586157114624
20
8.1037486667723115
42
-0.19876902777230823
10
40.256944491073909
20
8.250000327099265
10
42.299999237104657
20
8.2500003271001532
42
-0.41421356237309503
10
42.799999237105268
20
7.7500003270995421
10
42.799999237082034
20
4.4999999999794227
42
0.41421356238141954
10
43.299999237094653
20
3.9999999999765379
10
44.299999626402382
20
4.0000000000014779
42
0.41421356237975465
10
44.500000000000455
20
4.200000373600119
10
44.500000000006708
20
4.4999995642717749
10
44.799999999970623
20
4.4999995641506985
42
0.41421356249546554
10
45.000000000052331
20
4.6999995641533587
10
44.999999999961346
20
13.000000346200977
42
0.41421356237259555
10
43.000000346203251
20
14.999999999957545
10
34.699999564154496
20
14.999999999957936
42
0.41421356251544444
10
34.49999956415585
20
14.799999999861484
10
34.499999564299628
20
14.499999999927695
10
34.200000373602961
20
14.499999999998181
42
0.41421356237559237
10
34.000000000005706
20
14.299999626400108
10
33.999999999979877
20
13.299999564209202
42
0.41421356238042062
10
34.499999999979423
20
12.799999564196085
10
37.749999999990678
20
12.79999956419644
42
-0.41421356237509294
10
38.24999999999406
20
12.299999564198743
10
38.250000000002018
20
10.257106345387115
42
-0.19891236738143042
10
38.103553390595636
20
9.9035529547912535
10
34.350912475509205
20
6.1509120397085688
42
-0.19891236737931176
10
33.997359084916638
20
6.0044654303005274
10
30.953589300146973
20
6.0044654302998879
42
0.13165212541105734
10
30.853589553607321
20
5.9776706573906404
10
30.099999746544128
20
5.5425868497735244
42
-0.26794840823031274
10
29.900000253462057
20
5.5425868497725777
10
29.146410446398363
20
5.9776706573916272
42
0.13165212540888724
10
29.046410699857574
20
6.0044654302987865
10
26.002640915090183
20
6.0044654303009892
42
-0.19891236737600501
10
25.649087524495538
20
6.1509120397081984
10
21.896446609409232
20
9.9035529547944119
42
-0.19891236737676893
10
21.750000000003631
20
10.257106345388252
10
21.750000000002458
20
12.299999564193627
42
-0.41421356237076418
10
22.250000000001364
20
12.799999564191964
10
25.500000000027967
20
12.799999564194877
42
0.41421356238042062
10
26.000000000028578
20
13.299999564206928
10
26.000000000001933
20
14.299999626400677
42
0.41421356237475992
10
25.799999626404428
20
14.499999999997364
10
25.500000435731067
20
14.500000000005002
10
25.500000435851007
20
14.799999618999777
42
0.41421356237143014
10
25.300000054803036
20
15.00000000004917
10
4.6999999452037855
20
15.000000000051728
42
0.41421356237143014
10
4.4999995641546429
20
14.799999619000914
10
4.4999995642751855
20
14.500000000006139
10
4.2000003736029612
20
14.499999999999886
42
0.41421356237559326
10
4.0000000000057048
20
14.299999626401814
10
3.9999999999798774
20
13.299999564208065
42
0.41421356238042062
10
4.4999999999794218
20
12.799999564195836
10
7.7500000000048885
20
12.799999564192532
42
-0.41421356237043117
10
8.2500000000032259
20
12.299999564194195
10
8.2500000000041513
20
10.25710634538882
42
-0.19891236738242474
10
8.1035533905962467
20
9.9035529547946197
10
4.3509124755100732
20
6.1509120397094073
42
-0.19891236737776266
10
3.9973590849166385
20
6.0044654303017708
10
0.95358930014697307
20
6.0044654303015932
42
0.13165212541105559
10
0.85358955360776645
20
5.9776706573915774
10
0.099999746544414389
20
5.5425868497747377
42
-0.26794840823031263
10
-0.099999746537658113
20
5.5425868497747741
10
-0.85358955360163691
20
5.9776706573933325
42
0.13165212540888724
10
-0.9535893001424256
20
6.0044654303004918
10
-3.9973590849098173
20
6.0044654303014511
42
-0.19891236737818069
10
-4.3509124755044493
20
6.1509120397099171
10
-8.1035533905896955
20
9.9035529547960532
42
-0.19891236738402437
10
-8.2499999999968665
20
10.257106345389957
10
-8.2499999999901519
20
12.299999564201585
42
-0.41421356237509294
10
-7.7499999999838565
20
12.799999564199922
10
-4.499999999972033
20
12.799999564198856
42
0.41421356238042062
10
-3.9999999999723101
20
13.299999564211475
10
-3.9999999999980673
20
14.299999626402382
42
0.41421356237475992
10
-4.2000003735955715
20
14.499999999999069
10
-4.4999995642916701
20
14.499999999929969
10
-4.4999995641489932
20
14.799999999863758
42
0.41421356251960667
10
-4.6999995641488113
20
14.999999999959606
10
-13.00000034619643
20
14.99999999996021
42
0.4142135623731783
10
-14.999999999956337
20
13.000000346204388
10
-15.000000000046043
20
4.6999995641567693
42
0.41421356249047087
10
-14.799999999964939
20
4.4999995641554591
10
-14.500000000000455
20
4.4999995642751855
10
-14.49999999999477
20
4.2000003736035296
42
0.41421356237808976
10
-14.299999626397266
20
4.0000000000045688
10
-13.2999992370884
20
3.9999999999787406
42
0.41421356238108659
10
-12.79999923707642
20
4.4999999999822649
10
-12.799999237098127
20
7.7500003271023843
42
-0.41421356237309503
10
-12.299999237098405
20
8.2500003271021072
10
-10.256944491068225
20
8.2500003271029954
42
-0.19876902777335384
10
-9.9035861571068882
20
8.1037486667743615
10
-6.146641666037751
20
4.3509461875654996
42
-0.19905571484904974
10
-5.9999999999968168
20
3.9971978478928349
10
-5.9999999999973852
20
0.95319014530957702
42
0.1307038138037617
10
-5.9735769287257368
20
0.85383698827133903
10
-5.5417202809786872
20
0.099353157041091184
42
-0.26595099803826244
10
-5.541720280980158
20
-0.099353157035702369
10
-5.9735769287260609
20
-0.85383698826547061
42
0.13070381380610036
10
-5.9999999999985576
20
-0.95319014530332424
10
-5.9999999999973861
20
-3.9971978478871502
42
-0.19905571484930931
10
-6.1466416660374659
20
-4.3509461875606679
10
-9.9035861571092241
20
-8.1037486667714589
42
-0.19876902777293504
10
-10.256944491069362
20
-8.250000327099265
10
-12.299999237096699
20
-8.2500003270975597
42
-0.41421356237509294
10
-12.799999237096422
20
-7.7500003270944262
10
-12.799999237076918
20
-4.4999999999765805
42
0.41421356238141954
10
-13.299999237088969
20
-3.9999999999745839
10
-14.299999626397835
20
-3.9999999999986358
42
0.41421356237559237
10
-14.499999999995659
20
-4.2000003735967084
10
-14.499999999925421
20
-4.4999995642939439
10
-14.799999999949023
20
-4.4999995641484247
42
0.41421356251461194
10
-15.000000000046967
20
-4.6999995641505166
10
-14.999999999956799
20
-13.00000034619643
42
0.41421356237276202
10
-13.000000346198135
20
-14.999999999954703
0
LWPOLYLINE
5
101
100
AcDbEntity
8
0
100
AcDbPolyline
90
24
70
1
43
0.0
10
23.49553379260346
20
5.3496938442015107
42
0.19891236737254289
10
23.056193945883408
20
6.410354008281093
10
20.539339792613379
20
8.9272078180119525
42
-0.19891236738074891
10
20.099999999969782
20
9.9878679039005647
10
20.100000000002716
20
11.849999903901107
42
0.41421356237309503
10
18.600000000003547
20
13.349999903900311
10
11.400000000002706
20
13.349999903900844
42
0.41421356237309503
10
9.9000000000029331
20
11.849999903901676
10
9.9000000000354973
20
9.9878679039011331
42
-0.1989123673817163
10
9.4606602073923796
20
8.9272078180113112
10
6.9438060541353757
20
6.4103540082941368
42
0.19891236737683604
10
6.5044662074029702
20
5.3496938442026476
10
6.5044662074030768
20
-5.3496938441776365
42
0.19891236737701529
10
6.9438060541222058
20
-6.4103540082771815
10
9.46066020739155
20
-8.92720781800816
42
-0.19891236738131063
10
9.9000000000347654
20
-9.9878679038982909
10
9.9000000000024002
20
-11.849999903899402
42
0.41421356237309503
10
11.400000000001569
20
-13.349999903897469
10
18.60000000000241
20
-13.349999903899139
42
0.41421356237309503
10
20.100000000002751
20
-11.84999990389997
10
20.099999999968276
20
-9.9878679038988594
42
-0.1989123673811711
10
20.539339792611031
20
-8.9272078180090375
10
23.056193945871442
20
-6.4103540082918649
42
0.19891236737718976
10
23.495533792602146
20
-5.3496938441981001
0
LWPOLYLINE
5
102
100
AcDbEntity
8
0
100
AcDbPolyline
90
16
70
1
43
0.0
10
26.719438233005633
20
1.6001295237999313
42
0.23088020532780837
10
26.71943823301077
20
-1.6001295238070372
10
25.481599096700748
20
-3.1359294119999093
42
0.088535184874869471
10
26.845330526704743
20
-4.505336892426044
10
28.399870403491761
20
-3.2805617315237323
42
0.23088021700011435
10
31.60012959650885
20
-3.2805617315335667
10
33.154669473312055
20
-4.5053368924126875
42
0.088535184874181869
10
34.518400903304496
20
-3.1359294120005643
10
33.280561766990871
20
-1.600129523805911
42
0.23088020532918832
10
33.280561766993628
20
1.6001295238072544
10
34.518400903303302
20
3.135929412001714
42
0.088535184874969822
10
33.154669473298668
20
4.5053368924249071
10
31.600129596517235
20
3.2805617315305176
42
0.2308802170004543
10
28.399870403497971
20
3.2805617315273139
10
26.845330526690972
20
4.5053368924190016
42
0.088535184874198036
10
25.481599096701757
20
3.1359294119994274
0
LWPOLYLINE
5
103
100
AcDbEntity
8
0
100
AcDbPolyline
90
16
70
1
43
0.0
10
3.2805617669937739
20
-1.6001295238056212
42
0.23088020532804218
10
3.2805617669963363
20
1.6001295238003665
10
4.518400903295074
20
3.1359294119957308
42
0.088535184874140208
10
3.1546694733077629
20
4.5053368924101278
10
1.6001295965008167
20
3.2805617315171274
42
0.23088021700004693
10
-1.600129596502029
20
3.2805617315165136
10
-3.1546694732935467
20
4.5053368924261195
42
0.088535184874909093
10
-4.5184009032982431
20
3.135929412002838
10
-3.28056176698803
20
1.6001295238092927
42
0.23088020532900852
10
-3.2805617669885123
20
-1.6001295238049806
10
-4.5184009032930756
20
-3.1359294119923837
42
0.08853518487424146
10
-3.154669473302647
20
-4.505336892403875
10
-1.6001295964969573
20
-3.2805617315180231
42
0.23088021700037245
10
1.6001295965088502
20
-3.2805617315113977
10
3.1546694732984584
20
-4.5053368924248511
42
0.088535184874973222
10
4.5184009033016528
20
-3.1359294119977221
0
LWPOLYLINE
5
104
100
AcDbEntity
8
0
100
AcDbPolyline
90
8
70
1
43
0.0
10
42.700000398445468
20
9.5000003271580269
42
0.41421356797366965
10
43.700000398444168
20
10.500000327157295
10
43.700000398444487
20
12.700001090099136
42
0.41421356795618819
10
42.700000398446036
20
13.700001090040814
10
40.499999635503059
20
13.700001090041631
42
0.41421356798515752
10
39.499999635461336
20
12.700001090042292
10
39.499999635461975
20
10.500000327099315
42
0.4142135679556887
10
40.499999635459858
20
9.5000003271599098
0
LWPOLYLINE
5
105
100
AcDbEntity
8
0
100
AcDbPolyline
90
8
70
1
43
0.0
10
42.700000398444331
20
-13.700001090040992
42
0.41421356797350317
10
43.700000398443031
20
-12.700001090042292
10
43.70000039844335
20
-10.500000327100452
42
0.41421356795602171
10
42.700000398444331
20
-9.500000327158773
10
40.499999635501354
20
-9.5000003271590927
42
0.41421356798499104
10
39.499999635460199
20
-10.500000327158432
10
39.499999635460838
20
-12.700001090100272
42
0.41421356795602171
10
40.499999635458721
20
-13.700001090040246
0
LWPOLYLINE
5
106
100
AcDbEntity
8
0
100
AcDbPolyline
90
8
70
1
43
0.0
10
-13.700000398437666
20
10.500000327160706
42
0.41421356797366965
10
-12.700000398438647
20
9.5000003271599809
10
-10.499999635454742
20
9.5000003271612972
42
0.41421356798399211
10
-9.4999996354960103
20
10.500000327102157
10
-9.4999996354553318
20
12.700001090045134
42
0.41421356798332615
10
-10.499999635495101
20
13.700001090043656
10
-12.700000398438078
20
13.700001090043656
42
0.41421356798499104
10
-13.70000039839681
20
12.700001090102546
0
LWPOLYLINE
5
107
100
AcDbEntity
8
0
100
AcDbPolyline
90
8
70
1
43
0.0
10
-13.700000398438803
20
-12.700001090038882
42
0.41421356797350317
10
-12.700000398439784
20
-13.700001090039038
10
-10.499999635455879
20
-13.700001090039429
42
0.41421356798432507
10
-9.4999996354971472
20
-12.70000109009743
10
-9.4999996354564686
20
-10.50000032715559
42
0.41421356798382558
10
-10.499999635496806
20
-9.5000003271553624
10
-12.700000398439784
20
-9.5000003271582045
42
0.41421356798415859
10
-13.700000398397947
20
-10.500000327097041
0
LWPOLYLINE
5
108
100
AcDbEntity
8
0
100
AcDbPolyline
90
200
70
1
43
0.0
10
-4.6999995641505166
20
-14.999999999955698
42
0.41421356249213087
10
-4.4999995641500936
20
-14.79999999987399
10
-4.4999995642706381
20
-14.500000000001592
10
-4.2000003735972768
20
-14.499999999995907
42
0.41421356237809381
10
-3.9999999999994547
20
-14.299999626396698
10
-3.9999999999730562
20
-13.299999564202949
42
0.41421356238075163
10
-4.4999999999731699
20
-12.799999564190152
10
-7.7499999999997726
20
-12.799999564189122
42
-0.4142135623717631
10
-8.2499999999986784
20
-12.299999564189079
10
-8.249999999998181
20
-10.257106345384273
42
-0.19891236737852808
10
-8.1035533905918893
20
-9.9035529547910155
10
-4.3509124755041189
20
-6.1509120397051307
42
-0.19891236737579598
10
-3.9973590849103857
20
-6.0044654302984668
10
-0.95358930014299403
20
-6.0044654302976141
42
0.13165212541748897
10
-0.85358955360176447
20
-5.9776706573895479
10
-0.099999746538227394
20
-5.5425868497713644
42
-0.26794840823031535
10
0.099999746543846371
20
-5.5425868497713271
10
0.85358955360618438
20
-5.977670657388785
42
0.13165212541992244
10
0.95358930014640408
20
-6.0044654302972589
10
3.9973590849160701
20
-6.0044654302989278
42
-0.19891236737671883
10
4.3509124755080855
20
-6.1509120397051458
10
8.1035533905939268
20
-9.9035529547912553
42
-0.19891236738096219
10
8.2500000000008811
20
-10.257106345385978
10
8.2499999999938112
20
-12.299999564197037
42
-0.41421356237509294
10
7.7499999999895408
20
-12.799999564195623
10
4.4999999999782867
20
-12.79999956419374
42
0.41421356238141827
10
3.9999999999785611
20
-13.299999564208065
10
4.0000000000037508
20
-14.299999626397266
42
0.41421356237725165
10
4.2000003736012568
20
-14.499999999996227
10
4.4999995642979238
20
-14.499999999926558
10
4.4999995641529722
20
-14.799999999859779
42
0.41421356251710528
10
4.6999995641527903
20
-14.999999999956763
10
25.300000435849483
20
-14.999999999956231
42
0.41421356252128133
10
25.500000435850083
20
-14.799999999860916
10
25.500000435706625
20
-14.499999999927695
10
25.799999626402723
20
-14.499999999997613
42
0.41421356237807999
10
26.000000000000547
20
-14.299999626398403
10
26.000000000026944
20
-13.299999564209202
42
0.41421356238141954
10
25.50000000002683
20
-12.79999956419438
10
22.250000000015007
20
-12.799999564195055
42
-0.41421356237509294
10
21.750000000009599
20
-12.299999564197606
10
21.750000000001108
20
-10.257106345386546
42
-0.198912367384774
10
21.89644660940996
20
-9.9035529547911629
10
25.649087524495879
20
-6.150912039706836
42
-0.19891236737579598
10
26.002640915089614
20
-6.0044654303001721
10
29.046410699857006
20
-6.0044654302993195
42
0.13165212541748275
10
29.146410446398235
20
-5.9776706573912541
10
29.900000253461485
20
-5.5425868497725777
42
-0.2679484082310738
10
30.099999746544054
20
-5.5425868497738069
10
30.853589553606184
20
-5.9776706573904903
42
0.13165212541990601
10
30.953589300146405
20
-6.0044654302998532
10
33.99735908491607
20
-6.0044654303006348
42
-0.19891236737671988
10
34.350912475508089
20
-6.1509120397068529
10
38.10355339059511
20
-9.9035529547940513
42
-0.19891236738183379
10
38.250000000003013
20
-10.257106345387115
10
38.250000000001769
20
-12.299999564191921
42
-0.41421356237242907
10
37.750000000002046
20
-12.799999564190507
10
34.499999999978286
20
-12.799999564192035
42
0.41421356238074841
10
33.999999999977675
20
-13.299999564205223
10
34.000000000003752
20
-14.299999626398971
42
0.41421356237725732
10
34.200000373601256
20
-14.499999999997932
10
34.49999956427348
20
-14.500000000003865
10
34.499999564152404
20
-14.799999999876263
42
0.41421356249213248
10
34.69999956415279
20
-14.999999999957081
10
43.000000346201546
20
-14.999999999957936
42
0.4142135623724284
10
44.999999999960458
20
-13.00000034619984
10
45.000000000048885
20
-4.6999995641539272
42
0.41421356252208291
10
44.79999999995357
20
-4.499999564152187
10
44.499999999928832
20
-4.4999995642973545
10
44.499999999999886
20
-4.200000373600119
42
0.41421356237641432
10
44.299999626401814
20
-4.000000000003439
10
43.299999237094084
20
-3.9999999999770353
42
0.41421356238175483
10
42.799999237081856
20
-4.4999999999794227
10
42.799999237098696
20
-7.7500003270972684
42
-0.41421356237509294
10
42.299999237098973
20
-8.2500003271004019
10
40.256944491072773
20
-8.2500003271029971
42
-0.19876902777335131
10
39.903586157111441
20
-8.103748666774365
10
36.14664166604139
20
-4.3509461875635704
42
-0.19905571484930978
10
36.000000000001044
20
-3.9971978478894243
10
36.000000000002501
20
-0.95319014530559798
42
0.13070381380431711
10
35.973576928728626
20
-0.85383698826855414
10
35.541720280986844
20
-0.09935315703675042
42
-0.26595099803448363
10
35.541720280985373
20
0.099353157037592704
10
35.97357692873004
20
0.85383698826888121
42
0.1307038137952799
10
36.000000000001471
20
0.95319014530730317
10
36.000000000001613
20
3.9971978478905608
42
-0.1990557148490511
10
36.146641666042811
20
4.3509461875638547
10
39.903586157114624
20
8.1037486667723115
42
-0.19876902777230823
10
40.256944491073909
20
8.250000327099265
10
42.299999237104657
20
8.2500003271001532
42
-0.41421356237309503
10
42.799999237105268
20
7.7500003270995421
10
42.799999237082034
20
4.4999999999794227
42
0.41421356238141893
10
43.299999237094653
20
3.9999999999765388
10
44.299999626402382
20
4.0000000000014779
42
0.41421356237974899
10
44.500000000000455
20
4.200000373600119
10
44.500000000006708
20
4.4999995642717749
10
44.799999999970623
20
4.4999995641506985
42
0.41421356249548269
10
45.000000000052339
20
4.6999995641533587
10
44.999999999961346
20
13.000000346200977
42
0.41421356237259488
10
43.000000346203251
20
14.999999999957542
10
34.699999564154496
20
14.999999999957936
42
0.41421356251544444
10
34.49999956415585
20
14.799999999861484
10
34.499999564299628
20
14.499999999927695
10
34.200000373602961
20
14.499999999998181
42
0.41421356237557938
10
34.000000000005706
20
14.299999626400108
10
33.999999999979877
20
13.299999564209202
42
0.41421356238042062
10
34.499999999979423
20
12.799999564196085
10
37.749999999990678
20
12.79999956419644
42
-0.41421356237509294
10
38.24999999999406
20
12.299999564198743
10
38.250000000002018
20
10.257106345387115
42
-0.19891236738143042
10
38.103553390595636
20
9.9035529547912535
10
34.350912475509205
20
6.1509120397085688
42
-0.19891236737931176
10
33.997359084916638
20
6.0044654303005274
10
30.953589300146973
20
6.0044654302998879
42
0.13165212541107502
10
30.853589553607321
20
5.9776706573906404
10
30.099999746544128
20
5.5425868497735244
42
-0.26794840823031274
10
29.900000253462057
20
5.5425868497725777
10
29.146410446398363
20
5.9776706573916272
42
0.13165212540890486
10
29.046410699857574
20
6.0044654302987865
10
26.002640915090183
20
6.0044654303009892
42
-0.19891236737600501
10
25.649087524495538
20
6.1509120397081984
10
21.896446609409232
20
9.9035529547944119
42
-0.19891236737676893
10
21.750000000003631
20
10.257106345388252
10
21.750000000002458
20
12.299999564193627
42
-0.41421356237076418
10
22.250000000001364
20
12.799999564191964
10
25.500000000027967
20
12.799999564194877
42
0.41421356238042062
10
26.000000000028578
20
13.299999564206928
10
26.000000000001933
20
14.299999626400677
42
0.41421356237474694
10
25.799999626404428
20
14.499999999997364
10
25.500000435731067
20
14.500000000005002
10
25.500000435851007
20
14.799999618999777
42
0.41421356237142037
10
25.300000054803036
20
15.000000000049171
10
4.6999999452037855
20
15.000000000051728
42
0.41421356237143336
10
4.4999995641546437
20
14.799999619000914
10
4.4999995642751855
20
14.500000000006139
10
4.2000003736029612
20
14.499999999999886
42
0.41421356237559487
10
4.0000000000057039
20
14.299999626401814
10
3.9999999999798774
20
13.299999564208065
42
0.41421356238042095
10
4.4999999999794218
20
12.799999564195836
10
7.7500000000048885
20
12.799999564192532
42
-0.41421356237043117
10
8.2500000000032259
20
12.299999564194195
10
8.2500000000041513
20
10.25710634538882
42
-0.19891236738242474
10
8.1035533905962467
20
9.9035529547946197
10
4.3509124755100732
20
6.1509120397094073
42
-0.19891236737776266
10
3.9973590849166385
20
6.0044654303017708
10
0.95358930014697307
20
6.0044654303015932
42
0.13165212541105248
10
0.85358955360776645
20
5.9776706573915774
10
0.099999746544414389
20
5.5425868497747377
42
-0.26794840823031246
10
-0.099999746537657988
20
5.5425868497747741
10
-0.85358955360163691
20
5.9776706573933325
42
0.13165212540888938
10
-0.9535893001424256
20
6.0044654303004918
10
-3.9973590849098173
20
6.0044654303014511
42
-0.19891236737818069
10
-4.3509124755044493
20
6.1509120397099171
10
-8.1035533905896955
20
9.9035529547960532
42
-0.19891236738402437
10
-8.2499999999968665
20
10.257106345389957
10
-8.2499999999901519
20
12.299999564201585
42
-0.41421356237509294
10
-7.7499999999838565
20
12.799999564199922
10
-4.499999999972033
20
12.799999564198856
42
0.41421356238042062
10
-3.9999999999723101
20
13.299999564211475
10
-3.9999999999980673
20
14.299999626402382
42
0.41421356237475992
10
-4.2000003735955715
20
14.499999999999069
10
-4.4999995642916701
20
14.499999999929969
10
-4.4999995641489932
20
14.799999999863758
42
0.41421356251960667
10
-4.6999995641488113
20
14.999999999959606
10
-13.00000034619643
20
14.99999999996021
42
0.4142135623731783
10
-14.999999999956337
20
13.000000346204388
10
-15.000000000046043
20
4.6999995641567693
42
0.41421356249046681
10
-14.799999999964939
20
4.4999995641554573
10
-14.500000000000455
20
4.4999995642751855
10
-14.49999999999477
20
4.2000003736035296
42
0.41421356237808976
10
-14.299999626397266
20
4.0000000000045688
10
-13.2999992370884
20
3.9999999999787406
42
0.4142135623810882
10
-12.799999237076419
20
4.4999999999822649
10
-12.799999237098127
20
7.7500003271023843
42
-0.41421356237309503
10
-12.299999237098405
20
8.2500003271021072
10
-10.256944491068225
20
8.2500003271029954
42
-0.19876902777335384
10
-9.9035861571068882
20
8.1037486667743615
10
-6.146641666037751
20
4.3509461875654996
42
-0.19905571484904974
10
-5.9999999999968168
20
3.9971978478928349
10
-5.9999999999973852
20
0.95319014530957702
42
0.13070381380376198
10
-5.9735769287257368
20
0.85383698827133869
10
-5.5417202809786872
20
0.099353157041091295
42
-0.26595099803826289
10
-5.541720280980158
20
-0.099353157035702716
10
-5.9735769287260609
20
-0.85383698826547061
42
0.13070381380609949
10
-5.9999999999985576
20
-0.95319014530332424
10
-5.9999999999973861
20
-3.9971978478871502
42
-0.19905571484930931
10
-6.1466416660374659
20
-4.3509461875606679
10
-9.9035861571092241
20
-8.1037486667714589
42
-0.19876902777293504
10
-10.256944491069362
20
-8.250000327099265
10
-12.299999237096699
20
-8.2500003270975597
42
-0.41421356237509294
10
-12.799999237096422
20
-7.7500003270944262
10
-12.799999237076918
20
-4.4999999999765805
42
0.4142135623814176
10
-13.299999237088969
20
-3.999999999974583
10
-14.299999626397835
20
-3.9999999999986358
42
0.41421356237558671
10
-14.499999999995659
20
-4.2000003735967084
10
-14.499999999925421
20
-4.4999995642939439
10
-14.799999999949023
20
-4.4999995641484247
42
0.41421356251460634
10
-15.000000000046967
20
-4.6999995641505166
10
-14.999999999956799
20
-13.00000034619643
42
0.41421356237276269
10
-13.000000346198135
20
-14.999999999954703
0
LWPOLYLINE
5
109
100
AcDbEntity
8
0
100
AcDbPolyline
90
24
70
1
43
0.0
10
23.49553379260346
20
5.3496938442015125
42
0.19891236737254453
10
23.056193945883408
20
6.4103540082810939
10
20.539339792613379
20
8.9272078180119525
42
-0.19891236738074891
10
20.099999999969782
20
9.9878679039005647
10
20.100000000002716
20
11.849999903901107
42
0.4142135623730942
10
18.600000000003547
20
13.349999903900311
10
11.400000000002706
20
13.349999903900844
42
0.41421356237309503
10
9.9000000000029331
20
11.849999903901676
10
9.9000000000354973
20
9.9878679039011331
42
-0.1989123673817163
10
9.4606602073923796
20
8.9272078180113112
10
6.9438060541353757
20
6.4103540082941377
42
0.19891236737683601
10
6.5044662074029702
20
5.3496938442026467
10
6.5044662074030768
20
-5.3496938441776374
42
0.19891236737701376
10
6.9438060541222058
20
-6.4103540082771815
10
9.46066020739155
20
-8.92720781800816
42
-0.19891236738131063
10
9.9000000000347654
20
-9.9878679038982909
10
9.900000000002402
20
-11.849999903899402
42
0.41421356237309503
10
11.400000000001569
20
-13.349999903897469
10
18.60000000000241
20
-13.349999903899139
42
0.4142135623730942
10
20.100000000002751
20
-11.84999990389997
10
20.099999999968276
20
-9.9878679038988576
42
-0.19891236738117096
10
20.539339792611031
20
-8.9272078180090375
10
23.056193945871442
20
-6.4103540082918649
42
0.19891236737718654
10
23.495533792602146
20
-5.3496938441981001
0
LWPOLYLINE
5
110
100
AcDbEntity
8
0
100
AcDbPolyline
90
16
70
1
43
0.0
10
26.719438233005633
20
1.6001295237999313
42
0.23088020532780748
10
26.71943823301077
20
-1.6001295238070377
10
25.481599096700755
20
-3.1359294119999124
42
0.088535184874867931
10
26.845330526704743
20
-4.505336892426044
10
28.399870403491761
20
-3.280561731523731
42
0.23088021700011438
10
31.60012959650885
20
-3.2805617315335667
10
33.154669473312055
20
-4.5053368924126866
42
0.088535184874183159
10
34.518400903304496
20
-3.1359294120005643
10
33.280561766990871
20
-1.6001295238059121
42
0.23088020532918777
10
33.280561766993628
20
1.6001295238072544
10
34.518400903303302
20
3.1359294120017149
42
0.088535184874968781
10
33.154669473298668
20
4.5053368924249071
10
31.600129596517235
20
3.280561731530518
42
0.23088021700045408
10
28.399870403497971
20
3.2805617315273139
10
26.845330526690965
20
4.5053368924190016
42
0.08853518487419626
10
25.481599096701757
20
3.1359294119994274
0
LWPOLYLINE
5
111
100
AcDbEntity
8
0
100
AcDbPolyline
90
16
70
1
43
0.0
10
3.280561766993773
20
-1.6001295238056197
42
0.2308802053280421
10
3.2805617669963354
20
1.600129523800367
10
4.518400903295074
20
3.1359294119957317
42
0.088535184874139819
10
3.1546694733077629
20
4.5053368924101278
10
1.6001295965008164
20
3.2805617315171283
42
0.23088021700004693
10
-1.600129596502029
20
3.2805617315165136
10
-3.1546694732935459
20
4.5053368924261168
42
0.088535184874908121
10
-4.5184009032982431
20
3.135929412002838
10
-3.2805617669880305
20
1.6001295238092919
42
0.23088020532900824
10
-3.2805617669885123
20
-1.6001295238049806
10
-4.5184009032930748
20
-3.1359294119923851
42
0.088535184874241862
10
-3.154669473302647
20
-4.505336892403875
10
-1.6001295964969549
20
-3.2805617315180227
42
0.23088021700037256
10
1.6001295965088502
20
-3.2805617315113977
10
3.1546694732984593
20
-4.5053368924248502
42
0.088535184874973957
10
4.5184009033016528
20
-3.1359294119977221
0
LWPOLYLINE
5
112
100
AcDbEntity
8
0
100
AcDbPolyline
90
8
70
1
43
0.0
10
42.700000398445468
20
9.5000003271580269
42
0.41421356797366904
10
43.700000398444168
20
10.500000327157295
10
43.700000398444487
20
12.700001090099136
42
0.41421356795619274
10
42.700000398446036
20
13.700001090040814
10
40.499999635503059
20
13.700001090041631
42
0.41421356798515752
10
39.499999635461336
20
12.700001090042292
10
39.499999635461975
20
10.500000327099315
42
0.41421356795568548
10
40.499999635459858
20
9.5000003271599098
0
LWPOLYLINE
5
113
100
AcDbEntity
8
0
100
AcDbPolyline
90
8
70
1
43
0.0
10
42.700000398444331
20
-13.700001090040992
42
0.41421356797350711
10
43.700000398443031
20
-12.700001090042292
10
43.70000039844335
20
-10.500000327100452
42
0.41421356795602299
10
42.700000398444331
20
-9.500000327158773
10
40.499999635501354
20
-9.5000003271590927
42
0.41421356798499559
10
39.499999635460199
20
-10.500000327158432
10
39.499999635460838
20
-12.700001090100272
42
0.41421356795602104
10
40.499999635458721
20
-13.700001090040246
0
LWPOLYLINE
5
114
100
AcDbEntity
8
0
100
AcDbPolyline
90
8
70
1
43
0.0
10
-13.700000398437666
20
10.500000327160706
42
0.41421356797366965
10
-12.700000398438647
20
9.5000003271599809
10
-10.499999635454742
20
9.5000003271612972
42
0.41421356798399211
10
-9.4999996354960103
20
10.500000327102157
10
-9.4999996354553318
20
12.700001090045134
42
0.41421356798332615
10
-10.499999635495101
20
13.700001090043656
10
-12.700000398438078
20
13.700001090043656
42
0.41421356798499104
10
-13.70000039839681
20
12.700001090102546
0
LWPOLYLINE
5
115
100
AcDbEntity
8
0
100
AcDbPolyline
90
8
70
1
43
0.0
10
-13.700000398438803
20
-12.700001090038882
42
0.41421356797350189
10
-12.700000398439784
20
-13.700001090039038
10
-10.499999635455879
20
-13.700001090039429
42
0.41421356798432507
10
-9.4999996354971472
20
-12.70000109009743
10
-9.4999996354564686
20
-10.50000032715559
42
0.41421356798382497
10
-10.499999635496806
20
-9.5000003271553624
10
-12.700000398439784
20
-9.5000003271582045
42
0.41421356798415726
10
-13.700000398397947
20
-10.500000327097041
0
ENDSEC
0
SECTION
2
OBJECTS
0
DICTIONARY
5
C
100
AcDbDictionary
3
ACAD_GROUP
350
D
3
ACAD_MLINESTYLE
350
17
0
DICTIONARY
5
D
100
AcDbDictionary
0
DICTIONARY
5
1A
330
C
100
AcDbDictionary
0
DICTIONARY
5
17
100
AcDbDictionary
0
ENDSEC
0
EOF
