0
SECTION
2
HEADER
9
$INSUNITS
70
4
9
$ACADVER
1
AC1014
9
$HANDSEED
5
FFFF
0
ENDSEC
0
SECTION
2
TABLES
0
TABLE
2
VPORT
5
8
100
AcDbSymbolTable
0
ENDTAB
0
TABLE
2
LTYPE
5
5
100
AcDbSymbolTable
0
LTYPE
5
14
100
AcDbSymbolTableRecord
100
AcDbLinetypeTableRecord
2
BYBLOCK
70
0
0
LTYPE
5
15
100
AcDbSymbolTableRecord
100
AcDbLinetypeTableRecord
2
BYLAYER
70
0
0
LTYPE
5
16
100
AcDbSymbolTableRecord
100
AcDbLinetypeTableRecord
2
DASHED
70
0
3
Dashed __ __ __ __ __ __ __ __ __ __ __ __ __ _
72
65
73
2
40
0.75
49
0.5
74
0
49
-0.25
74
0
0
ENDTAB
0
TABLE
2
LAYER
5
2
100
AcDbSymbolTable
70
3
0
LAYER
5
50
100
AcDbSymbolTableRecord
100
AcDbLayerTableRecord
2
1
70
0
62
7
6
DASHED
0
LAYER
5
51
100
AcDbSymbolTableRecord
100
AcDbLayerTableRecord
2
0
70
0
62
7
6
CONTINUOUS
0
ENDTAB
0
TABLE
2
STYLE
5
3
100
AcDbSymbolTable
70
1
0
STYLE
5
11
100
AcDbSymbolTableRecord
100
AcDbTextStyleTableRecord
2
STANDARD
70
0
0
ENDTAB
0
TABLE
2
VIEW
5
6
100
AcDbSymbolTable
70
0
0
ENDTAB
0
TABLE
2
UCS
5
7
100
AcDbSymbolTable
70
0
0
ENDTAB
0
TABLE
2
APPID
5
9
100
AcDbSymbolTable
70
2
0
APPID
5
12
100
AcDbSymbolTableRecord
100
AcDbRegAppTableRecord
2
ACAD
70
0
0
ENDTAB
0
TABLE
2
DIMSTYLE
5
A
100
AcDbSymbolTable
70
1
0
ENDTAB
0
TABLE
2
BLOCK_RECORD
5
1
100
AcDbSymbolTable
70
1
0
BLOCK_RECORD
5
1F
100
AcDbSymbolTableRecord
100
AcDbBlockTableRecord
2
*MODEL_SPACE
0
BLOCK_RECORD
5
1B
100
AcDbSymbolTableRecord
100
AcDbBlockTableRecord
2
*PAPER_SPACE
0
ENDTAB
0
ENDSEC
0
SECTION
2
BLOCKS
0
BLOCK
5
20
100
AcDbEntity
100
AcDbBlockBegin
2
*MODEL_SPACE
0
ENDBLK
5
21
100
AcDbEntity
100
AcDbBlockEnd
0
BLOCK
5
1C
100
AcDbEntity
100
AcDbBlockBegin
2
*PAPER_SPACE
0
ENDBLK
5
1D
100
AcDbEntity
100
AcDbBlockEnd
0
ENDSEC
0
SECTION
2
ENTITIES
0
LWPOLYLINE
5
100
100
AcDbEntity
8
0
100
AcDbPolyline
90
120
70
1
43
0.0
10
13.499999999999446
20
7.2249999999985448
42
0.41421356237309503
10
12.5
20
8.2249999999979906
10
10.806854250004108
20
8.2249999999996763
42
0.19891227312193613
10
8.6855335235554776
20
7.3463203430219437
10
5.9786796564375777
20
4.6394664759046123
42
0.19891236738007584
10
5.1000000000021828
20
2.5181461323427357
10
5.0999999999978485
20
-2.5181461323359144
42
0.19891236737993659
10
5.9786796564389988
20
-4.6394664758940962
10
8.6855339100008564
20
-7.3463203399990675
42
0.19891232348220195
10
10.806854248041873
20
-8.2250000953627023
10
12.5
20
-8.2249999999952195
42
0.41421353443998199
10
13.500000000001364
20
-7.2250000953636118
10
13.499999999997476
20
-5.9750000000008185
42
0.41421371665021306
10
13.200000762935815
20
-5.6750003814613592
10
12.399999999995543
20
-5.6749999999943306
42
-0.41421337616789078
10
12.100000000000364
20
-5.3750001907269507
10
12.099999999991306
20
-3.9750000000003638
42
-0.4142136202285987
10
12.899999237060911
20
-3.1750003814613592
10
14.000000000000909
20
-3.1750000000010186
42
-0.41421367409822724
10
14.999999999990905
20
-4.1750003814627235
10
14.999999999997726
20
-12.000000000000455
42
-0.41421356237154117
10
12.000000000000455
20
-15
10
4.1749999999933607
20
-15.000000000002448
42
-0.41421383211191232
10
3.1750003814613597
20
-14.000000000000909
10
3.1749999999919054
20
-12.899999999999636
42
-0.41421342270836764
10
3.9749996185264536
20
-12.099999999993543
10
5.3749999999922702
20
-12.100000000001698
42
-0.41421191837031629
10
5.6750003814613592
20
-12.399999237056818
10
5.6749999999906464
20
-13.199999999999363
42
0.41421318994495204
10
5.9749996185269083
20
-13.500000000001364
10
7.2250000000008185
20
-13.499999999995573
42
0.41421383211058022
10
8.2249996185259988
20
-12.5
10
8.2249999999958394
20
-10.80685424999956
42
0.1989122731226565
10
7.3463203430128488
20
-8.6855335235532038
10
4.6394664758970769
20
-5.9786796564382918
42
0.19891236738086374
10
2.5181461323336407
20
-5.1000000000021828
10
-2.5181461323381882
20
-5.0999999999981327
42
0.19891236738066681
10
-4.6394664759009174
20
-5.9786796564367251
10
-7.3463203400014603
20
-8.6855339099939162
42
0.19891232348340776
10
-8.225000095364976
20
-10.806854248048694
10
-8.2250000000065882
20
-12.5
42
0.4142135344406479
10
-7.2250000953727067
20
-13.500000000001364
10
-5.9750000000076398
20
-13.499999999998257
42
0.41421371664355339
10
-5.6750003814750016
20
-13.200000762933541
10
-5.6749999999988781
20
-12.39999999999327
42
-0.41421337615013176
10
-5.3750001907405931
20
-12.099999999993543
10
-3.9750000000049113
20
-12.09999999999358
42
-0.41421362022443647
10
-3.1750003814750016
20
-12.899999237056363
10
-3.1750000000010186
20
-14.000000000000909
42
-0.41421367410022514
10
-4.1750003814740921
20
-15
10
-11.999999999998181
20
-14.999999999995453
42
-0.41421356237242907
10
-15
20
-12.000000000000455
10
-15.000000000013818
20
-4.1750000000001819
42
-0.41421383211657387
10
-13.999999999998636
20
-3.1750003814613592
10
-12.899999999999636
20
-3.1750000000010004
42
-0.41421342271003253
10
-12.100000000007185
20
-3.9749996185219061
10
-12.100000000008519
20
-5.3750000000013642
42
-0.41421191837253724
10
-12.399999237065913
20
-5.6750003814613592
10
-13.200000000006185
20
-5.6749999999982492
42
0.41421318994273221
10
-13.500000000008185
20
-5.9749996185223608
10
-13.500000000005166
20
-7.2249999999939973
42
0.41421383211657387
10
-12.5
20
-8.2249996185237251
10
-10.806854250001834
20
-8.2249999999974026
42
0.19891227312150841
10
-8.6855335235645725
20
-7.346320343010575
10
-5.9786796564446369
20
-4.6394664758930073
42
0.19891236737979739
10
-5.1000000000044565
20
-2.5181461323359149
10
-5.100000000001117
20
2.5181461323427352
42
0.19891236737993659
10
-5.9786796564435463
20
4.6394664759031912
10
-8.6855339100031301
20
7.3463203400013422
42
0.19891232348256208
10
-10.80685424804642
20
8.2250000953717972
10
-12.5
20
8.2249999999997669
42
0.41421353444197984
10
-13.499999999999091
20
7.225000095370433
10
-13.5000000000038
20
5.9749999999985448
42
0.41421371664355339
10
-13.200000762938089
20
5.6750003814704542
10
-12.399999999997817
20
5.6750000000011518
42
-0.41421337614569209
10
-12.100000000004911
20
5.3750001907360456
10
-12.100000000002675
20
3.975000000007185
42
-0.41421362022526892
10
-12.899999237065458
20
3.1750003814704542
10
-13.999999999998636
20
3.1750000000055656
42
-0.41421367410155707
10
-15
20
4.1750003814718184
10
-15
20
11.999999999998181
42
-0.41421356237309503
10
-11.999999999998181
20
15
10
-4.1750000000047294
20
15.000000000000176
42
-0.4142138321159079
10
-3.1750003814772754
20
13.999999999998636
10
-3.1750000000078216
20
12.899999999999636
42
-0.41421342270836764
10
-3.9749996185378222
20
12.100000000007185
10
-5.3750000000081855
20
12.100000000001698
42
-0.41421191836587767
10
-5.6750003814750016
20
12.399999237063639
10
-5.6750000000010203
20
13.199999999999363
42
0.41421318995605139
10
-5.974999618538277
20
13.499999999999091
10
-7.225000000005366
20
13.500000000000121
42
0.41421383211191215
10
-8.2249996185373675
20
12.5
10
-8.2250000000019501
20
10.806854250001834
42
0.19891227312100887
10
-7.3463203430219437
20
8.6855335235668463
10
-4.6394664759033581
20
5.9786796564433811
42
0.19891236738038823
10
-2.5181461323381877
20
5.1000000000067303
10
2.5181461323336412
20
5.1000000000028933
42
0.19891236738058515
10
4.6394664758986437
20
5.97867965644582
10
7.3463203400002026
20
8.6855339100065407
42
0.1989123234824568
10
8.2250000953695235
20
10.806854248050968
10
8.2250000000002643
20
12.5
42
0.41421353444397774
10
7.2250000953636118
20
13.500000000005912
10
5.9749999999917236
20
13.500000000002023
42
0.41421371663467393
10
5.6750003814613592
20
13.20000076294491
10
5.6749999999897831
20
12.399999999997817
42
-0.41421337614791193
10
5.3750001907360456
20
12.100000000000364
10
3.9750000000003638
20
12.099999999998127
42
-0.41421362022360397
10
3.1750003814613597
20
12.899999237063184
10
3.1749999999941969
20
13.999999999998636
42
-0.41421367410022514
10
4.1750003814627235
20
15.000000000006821
10
12.000000000000455
20
15.000000000006821
42
-0.41421356237220708
10
15
20
11.999999999998181
10
14.999999999993355
20
4.1750000000001819
42
-0.41421383210924828
10
14.000000000000909
20
3.1750003814772754
10
12.899999999995089
20
3.1750000000078216
42
-0.41421342271419481
10
12.100000000000364
20
3.9749996185378222
10
12.099999999994877
20
5.3749999999990905
42
-0.41421191838363658
10
12.399999237061365
20
5.6750003814704542
10
13.200000000001637
20
5.6750000000027967
42
0.41421318994939182
10
13.500000000001364
20
5.974999618538277
0
LWPOLYLINE
5
101
100
AcDbEntity
8
0
100
AcDbPolyline
90
8
70
1
43
0.0
10
13.200000000001637
20
9.6500000000069264
42
0.4142135623597758
10
13.499999999998167
20
9.9499999999989086
10
13.499999999994969
20
11.999999999998181
42
0.41421356237131918
10
12.000000000000455
20
13.499999999999091
10
9.9499999999966349
20
13.500000000003162
42
0.41421191837253724
10
9.649999618525273
20
13.20000076294491
10
9.6499999999933337
20
9.9499999999989086
42
0.41421340809888352
10
9.9500007629353604
20
9.6499996185298187
0
LWPOLYLINE
5
102
100
AcDbEntity
8
0
100
AcDbPolyline
90
8
70
1
43
0.0
10
13.500000000000938
20
-9.9499999999989086
42
0.41421356237975465
10
13.200000000001637
20
-9.6499999999927866
10
9.9499999999966349
20
-9.6499999999968864
42
0.41421340810554313
10
9.649999618525273
20
-9.9500007629376341
10
9.6499999999965507
20
-13.199999999999363
42
0.41421430722745539
10
9.9500007629353604
20
-13.500000000001364
10
12.000000000000455
20
-13.499999999997243
42
0.41421356236998724
10
13.500000000001364
20
-12.000000000000455
0
LWPOLYLINE
5
103
100
AcDbEntity
8
0
100
AcDbPolyline
90
8
70
1
43
0.0
10
-9.9500000000080036
20
-13.499999999995396
42
0.41421356236421558
10
-9.6500000000074238
20
-13.199999999999363
10
-9.6500000000037094
20
-9.9499999999989086
42
0.41421247701973318
10
-9.9499998092642272
20
-9.649999618527545
10
-13.200000000006185
20
-9.6499999999978314
42
0.41421430723855485
10
-13.499999999999091
20
-9.9500007629376341
10
-13.500000000001791
20
-12.000000000000457
42
0.41421356237176271
10
-11.999999999998181
20
-13.500000000001364
0
LWPOLYLINE
5
104
100
AcDbEntity
8
0
100
AcDbPolyline
90
8
70
1
43
0.0
10
-9.65000000000515
20
13.199999999999363
42
0.4142135623708752
10
-9.9500000000080036
20
13.499999999999943
10
-11.999999999998181
20
13.500000000001791
42
0.41421356237309503
10
-13.499999999999091
20
11.999999999998181
10
-13.500000000005931
20
9.9499999999989086
42
0.41421261668267662
10
-13.200000047688718
20
9.6499996185343662
10
-9.9500000000080036
20
9.6500000000018904
42
0.4142145320258368
10
-9.6500000953665221
20
9.9500007629444553
0
CIRCLE
5
105
100
AcDbEntity
8
0
100
AcDbCircle
10
0
20
0
30
0
40
2.4499999999996191
210
0
220
0
230
-1
0
LWPOLYLINE
5
106
100
AcDbEntity
8
0
100
AcDbPolyline
90
120
70
1
43
0.0
10
13.499999999999446
20
7.2249999999985448
42
0.41421356237309503
10
12.5
20
8.2249999999979906
10
10.806854250004108
20
8.2249999999996763
42
0.19891227312193613
10
8.6855335235554776
20
7.3463203430219437
10
5.9786796564375777
20
4.6394664759046131
42
0.19891236738007589
10
5.1000000000021828
20
2.5181461323427361
10
5.0999999999978485
20
-2.518146132335914
42
0.19891236737993662
10
5.9786796564389988
20
-4.6394664758940962
10
8.6855339100008564
20
-7.3463203399990658
42
0.19891232348220203
10
10.806854248041873
20
-8.2250000953627023
10
12.5
20
-8.2249999999952195
42
0.41421353443998199
10
13.500000000001364
20
-7.2250000953636118
10
13.499999999997476
20
-5.9750000000008185
42
0.41421371665021306
10
13.200000762935815
20
-5.6750003814613592
10
12.399999999995542
20
-5.6749999999943315
42
-0.41421337616789405
10
12.100000000000364
20
-5.3750001907269507
10
12.099999999991306
20
-3.9750000000003638
42
-0.41421362022860037
10
12.899999237060911
20
-3.1750003814613592
10
14.000000000000908
20
-3.1750000000010199
42
-0.4142136740982269
10
14.999999999990905
20
-4.1750003814627235
10
14.999999999997726
20
-12.000000000000455
42
-0.41421356237154117
10
12.000000000000455
20
-15
10
4.1749999999933607
20
-15.000000000002448
42
-0.41421383211191243
10
3.1750003814613597
20
-14.000000000000909
10
3.1749999999919054
20
-12.899999999999636
42
-0.41421342270836925
10
3.9749996185264536
20
-12.099999999993543
10
5.3749999999922702
20
-12.100000000001698
42
-0.41421191837031196
10
5.6750003814613592
20
-12.399999237056818
10
5.6749999999906464
20
-13.199999999999363
42
0.41421318994495204
10
5.9749996185269083
20
-13.500000000001364
10
7.2250000000008185
20
-13.499999999995573
42
0.41421383211058022
10
8.2249996185259988
20
-12.5
10
8.2249999999958394
20
-10.80685424999956
42
0.1989122731226565
10
7.3463203430128488
20
-8.6855335235532038
10
4.6394664758970787
20
-5.9786796564382918
42
0.19891236738086382
10
2.5181461323336407
20
-5.1000000000021828
10
-2.5181461323381873
20
-5.0999999999981327
42
0.19891236738066687
10
-4.6394664759009174
20
-5.9786796564367251
10
-7.3463203400014603
20
-8.6855339099939162
42
0.19891232348340776
10
-8.225000095364976
20
-10.806854248048694
10
-8.2250000000065882
20
-12.5
42
0.4142135344406479
10
-7.2250000953727067
20
-13.500000000001364
10
-5.9750000000076398
20
-13.499999999998257
42
0.41421371664355339
10
-5.6750003814750016
20
-13.200000762933541
10
-5.6749999999988754
20
-12.39999999999327
42
-0.41421337615012527
10
-5.3750001907405931
20
-12.099999999993543
10
-3.9750000000049113
20
-12.09999999999358
42
-0.41421362022443609
10
-3.1750003814750016
20
-12.899999237056363
10
-3.1750000000010203
20
-14.000000000000909
42
-0.4142136741002258
10
-4.1750003814740921
20
-15
10
-11.999999999998181
20
-14.999999999995451
42
-0.41421356237242934
10
-15
20
-12.000000000000455
10
-15.000000000013818
20
-4.1750000000001819
42
-0.41421383211657276
10
-13.999999999998636
20
-3.1750003814613592
10
-12.899999999999636
20
-3.1750000000010017
42
-0.41421342271003359
10
-12.100000000007185
20
-3.9749996185219061
10
-12.100000000008521
20
-5.3750000000013642
42
-0.41421191837253402
10
-12.399999237065913
20
-5.6750003814613592
10
-13.200000000006185
20
-5.6749999999982492
42
0.41421318994273221
10
-13.500000000008185
20
-5.9749996185223608
10
-13.500000000005166
20
-7.2249999999939973
42
0.41421383211657387
10
-12.5
20
-8.2249996185237251
10
-10.806854250001834
20
-8.2249999999974026
42
0.19891227312150841
10
-8.6855335235645725
20
-7.346320343010575
10
-5.9786796564446369
20
-4.6394664758930073
42
0.19891236737979739
10
-5.1000000000044565
20
-2.5181461323359144
10
-5.100000000001117
20
2.5181461323427348
42
0.19891236737993662
10
-5.9786796564435463
20
4.6394664759031912
10
-8.6855339100031301
20
7.3463203400013422
42
0.19891232348256208
10
-10.80685424804642
20
8.2250000953717972
10
-12.5
20
8.2249999999997669
42
0.41421353444197984
10
-13.499999999999091
20
7.225000095370433
10
-13.5000000000038
20
5.9749999999985448
42
0.41421371664355339
10
-13.200000762938089
20
5.6750003814704542
10
-12.399999999997817
20
5.67500000000115
42
-0.41421337614569531
10
-12.100000000004911
20
5.3750001907360456
10
-12.100000000002675
20
3.975000000007185
42
-0.41421362022526892
10
-12.899999237065458
20
3.1750003814704542
10
-13.999999999998636
20
3.1750000000055683
42
-0.41421367410155774
10
-15
20
4.1750003814718184
10
-15
20
11.999999999998181
42
-0.4142135623730942
10
-11.999999999998181
20
15
10
-4.1750000000047294
20
15.000000000000176
42
-0.41421383211590812
10
-3.1750003814772754
20
13.999999999998636
10
-3.1750000000078193
20
12.899999999999636
42
-0.4142134227083667
10
-3.9749996185378222
20
12.100000000007185
10
-5.3750000000081855
20
12.1000000000017
42
-0.41421191836588311
10
-5.6750003814750016
20
12.399999237063639
10
-5.6750000000010203
20
13.199999999999363
42
0.41421318995605139
10
-5.974999618538277
20
13.499999999999091
10
-7.225000000005366
20
13.500000000000121
42
0.41421383211191215
10
-8.2249996185373675
20
12.5
10
-8.2250000000019501
20
10.806854250001834
42
0.19891227312100887
10
-7.3463203430219437
20
8.6855335235668463
10
-4.6394664759033581
20
5.9786796564433811
42
0.19891236738038828
10
-2.5181461323381882
20
5.1000000000067303
10
2.5181461323336407
20
5.1000000000028933
42
0.19891236738058521
10
4.6394664758986437
20
5.97867965644582
10
7.3463203400002026
20
8.6855339100065407
42
0.1989123234824568
10
8.2250000953695235
20
10.806854248050968
10
8.2250000000002643
20
12.5
42
0.41421353444397774
10
7.2250000953636118
20
13.500000000005912
10
5.9749999999917236
20
13.500000000002023
42
0.41421371663467393
10
5.6750003814613592
20
13.20000076294491
10
5.6749999999897813
20
12.399999999997817
42
-0.41421337614790654
10
5.3750001907360456
20
12.100000000000364
10
3.9750000000003638
20
12.099999999998127
42
-0.41421362022360364
10
3.1750003814613597
20
12.899999237063184
10
3.1749999999941996
20
13.999999999998636
42
-0.4142136741002258
10
4.1750003814627235
20
15.000000000006821
10
12.000000000000455
20
15.000000000006821
42
-0.41421356237220708
10
15
20
11.999999999998181
10
14.999999999993356
20
4.1750000000001819
42
-0.41421383210925011
10
14.000000000000909
20
3.1750003814772754
10
12.899999999995089
20
3.1750000000078202
42
-0.41421342271419526
10
12.100000000000364
20
3.9749996185378222
10
12.099999999994878
20
5.3749999999990905
42
-0.41421191838363441
10
12.399999237061365
20
5.6750003814704542
10
13.200000000001637
20
5.6750000000027967
42
0.41421318994939182
10
13.500000000001364
20
5.974999618538277
0
CIRCLE
5
107
100
AcDbEntity
8
0
100
AcDbCircle
10
0
20
0
30
0
40
2.4499999999996187
210
0
220
-0
230
1
0
LWPOLYLINE
5
108
100
AcDbEntity
8
0
100
AcDbPolyline
90
8
70
1
43
0.0
10
13.200000000001637
20
9.6500000000069264
42
0.41421356235976931
10
13.499999999998165
20
9.9499999999989086
10
13.499999999994969
20
11.999999999998181
42
0.41421356237131823
10
12.000000000000455
20
13.499999999999091
10
9.9499999999966349
20
13.500000000003162
42
0.41421191837253613
10
9.649999618525273
20
13.20000076294491
10
9.6499999999933337
20
9.9499999999989086
42
0.41421340809888141
10
9.9500007629353604
20
9.6499996185298187
0
LWPOLYLINE
5
109
100
AcDbEntity
8
0
100
AcDbPolyline
90
8
70
1
43
0.0
10
13.500000000000938
20
-9.9499999999989086
42
0.41421356237975465
10
13.200000000001637
20
-9.6499999999927866
10
9.9499999999966349
20
-9.6499999999968864
42
0.41421340810554313
10
9.649999618525273
20
-9.9500007629376341
10
9.6499999999965507
20
-13.199999999999363
42
0.41421430722745434
10
9.9500007629353604
20
-13.500000000001364
10
12.000000000000457
20
-13.499999999997243
42
0.41421356236998763
10
13.500000000001364
20
-12.000000000000455
0
LWPOLYLINE
5
110
100
AcDbEntity
8
0
100
AcDbPolyline
90
8
70
1
43
0.0
10
-9.9500000000080036
20
-13.499999999995396
42
0.4142135623642112
10
-9.6500000000074238
20
-13.199999999999363
10
-9.6500000000037094
20
-9.9499999999989086
42
0.41421247701973646
10
-9.9499998092642272
20
-9.649999618527545
10
-13.200000000006185
20
-9.6499999999978314
42
0.4142143072385559
10
-13.499999999999091
20
-9.9500007629376341
10
-13.500000000001791
20
-12.000000000000457
42
0.4142135623717631
10
-11.999999999998181
20
-13.500000000001364
0
LWPOLYLINE
5
111
100
AcDbEntity
8
0
100
AcDbPolyline
90
8
70
1
43
0.0
10
-9.65000000000515
20
13.199999999999363
42
0.41421356237086865
10
-9.9500000000080036
20
13.499999999999941
10
-11.999999999998181
20
13.500000000001791
42
0.41421356237309337
10
-13.499999999999091
20
11.999999999998181
10
-13.500000000005931
20
9.9499999999989086
42
0.41421261668267662
10
-13.200000047688718
20
9.6499996185343662
10
-9.9500000000080036
20
9.6500000000018904
42
0.41421453202584219
10
-9.6500000953665221
20
9.9500007629444553
0
ENDSEC
0
SECTION
2
OBJECTS
0
DICTIONARY
5
C
100
AcDbDictionary
3
ACAD_GROUP
350
D
3
ACAD_MLINESTYLE
350
17
0
DICTIONARY
5
D
100
AcDbDictionary
0
DICTIONARY
5
1A
330
C
100
AcDbDictionary
0
DICTIONARY
5
17
100
AcDbDictionary
0
ENDSEC
0
EOF
