0
SECTION
2
HEADER
9
$INSUNITS
70
4
9
$ACADVER
1
AC1014
9
$HANDSEED
5
FFFF
0
ENDSEC
0
SECTION
2
TABLES
0
TABLE
2
VPORT
5
8
100
AcDbSymbolTable
0
ENDTAB
0
TABLE
2
LTYPE
5
5
100
AcDbSymbolTable
0
LTYPE
5
14
100
AcDbSymbolTableRecord
100
AcDbLinetypeTableRecord
2
BYBLOCK
70
0
0
LTYPE
5
15
100
AcDbSymbolTableRecord
100
AcDbLinetypeTableRecord
2
BYLAYER
70
0
0
LTYPE
5
16
100
AcDbSymbolTableRecord
100
AcDbLinetypeTableRecord
2
DASHED
70
0
3
Dashed __ __ __ __ __ __ __ __ __ __ __ __ __ _
72
65
73
2
40
0.75
49
0.5
74
0
49
-0.25
74
0
0
ENDTAB
0
TABLE
2
LAYER
5
2
100
AcDbSymbolTable
70
3
0
LAYER
5
50
100
AcDbSymbolTableRecord
100
AcDbLayerTableRecord
2
1
70
0
62
7
6
DASHED
0
LAYER
5
51
100
AcDbSymbolTableRecord
100
AcDbLayerTableRecord
2
0
70
0
62
7
6
CONTINUOUS
0
ENDTAB
0
TABLE
2
STYLE
5
3
100
AcDbSymbolTable
70
1
0
STYLE
5
11
100
AcDbSymbolTableRecord
100
AcDbTextStyleTableRecord
2
STANDARD
70
0
0
ENDTAB
0
TABLE
2
VIEW
5
6
100
AcDbSymbolTable
70
0
0
ENDTAB
0
TABLE
2
UCS
5
7
100
AcDbSymbolTable
70
0
0
ENDTAB
0
TABLE
2
APPID
5
9
100
AcDbSymbolTable
70
2
0
APPID
5
12
100
AcDbSymbolTableRecord
100
AcDbRegAppTableRecord
2
ACAD
70
0
0
ENDTAB
0
TABLE
2
DIMSTYLE
5
A
100
AcDbSymbolTable
70
1
0
ENDTAB
0
TABLE
2
BLOCK_RECORD
5
1
100
AcDbSymbolTable
70
1
0
BLOCK_RECORD
5
1F
100
AcDbSymbolTableRecord
100
AcDbBlockTableRecord
2
*MODEL_SPACE
0
BLOCK_RECORD
5
1B
100
AcDbSymbolTableRecord
100
AcDbBlockTableRecord
2
*PAPER_SPACE
0
ENDTAB
0
ENDSEC
0
SECTION
2
BLOCKS
0
BLOCK
5
20
100
AcDbEntity
100
AcDbBlockBegin
2
*MODEL_SPACE
0
ENDBLK
5
21
100
AcDbEntity
100
AcDbBlockEnd
0
BLOCK
5
1C
100
AcDbEntity
100
AcDbBlockBegin
2
*PAPER_SPACE
0
ENDBLK
5
1D
100
AcDbEntity
100
AcDbBlockEnd
0
ENDSEC
0
SECTION
2
ENTITIES
0
LWPOLYLINE
5
100
100
AcDbEntity
8
0
100
AcDbPolyline
90
16
70
1
43
0.0
10
88.399870403491747
20
-3.2805617315237319
42
0.23088021700011443
10
91.600129596507912
20
-3.2805617315316522
10
93.154669473312055
20
-4.5053368924126884
42
0.088535184874181702
10
94.518400903304496
20
-3.1359294120005643
10
93.280561766990871
20
-1.600129523805911
42
0.23088020532918832
10
93.280561766993628
20
1.6001295238072544
10
94.518400903303302
20
3.135929412001714
42
0.088535184874969822
10
93.154669473298668
20
4.5053368924249071
10
91.600129596517235
20
3.280561731530518
42
0.23088021700120334
10
88.399870403497971
20
3.2805617315036306
10
86.845330526690958
20
4.5053368923953183
42
0.088535184874466516
10
85.481599096701757
20
3.1359294119757442
10
86.719438233005647
20
1.6001295237762478
42
0.23088020532780856
10
86.719438233011488
20
-1.6001295238303692
10
85.481599096700748
20
-3.1359294120235925
42
0.088535184874600423
10
86.845330526704743
20
-4.5053368924497272
0
LWPOLYLINE
5
101
100
AcDbEntity
8
0
100
AcDbPolyline
90
8
70
1
43
0.0
10
102.70000039844547
20
9.5000003271580269
42
0.41421356797366965
10
103.70000039844416
20
10.500000327157295
10
103.70000039844449
20
12.700001090099136
42
0.41421356795618819
10
102.70000039844604
20
13.700001090040814
10
100.49999963550306
20
13.700001090041631
42
0.41421356798515752
10
99.499999635461336
20
12.700001090042292
10
99.499999635461975
20
10.500000327099315
42
0.4142135679556887
10
100.49999963545986
20
9.5000003271599098
0
LWPOLYLINE
5
102
100
AcDbEntity
8
0
100
AcDbPolyline
90
8
70
1
43
0.0
10
102.70000039844433
20
-13.700001090040992
42
0.41421356797350317
10
103.70000039844302
20
-12.700001090042292
10
103.70000039844335
20
-10.500000327100452
42
0.41421356795602171
10
102.70000039844433
20
-9.500000327158773
10
100.49999963550135
20
-9.5000003271590927
42
0.41421356798499104
10
99.499999635460199
20
-10.500000327158432
10
99.499999635460838
20
-12.700001090100272
42
0.41421356795602171
10
100.49999963545872
20
-13.700001090040246
0
LWPOLYLINE
5
103
100
AcDbEntity
8
0
100
AcDbPolyline
90
328
70
1
43
0.0
10
90.099999746544057
20
-5.5425868497738069
42
0.26794840823108257
10
89.900000253461485
20
-5.5425868497725777
10
89.146410446397866
20
-5.977670657414289
42
-0.13165212541749469
10
89.046410699857006
20
-6.0044654303230027
10
86.002640915089614
20
-6.0044654303238554
42
0.19891236737579601
10
85.649087524494689
20
-6.1509120397293282
10
81.896446609409963
20
-9.9035529548148453
42
0.1989123673847723
10
81.750000000001251
20
-10.257106345410229
10
81.750000000009607
20
-12.299999564221288
42
0.41421356237509294
10
82.250000000015007
20
-12.79999956421856
10
85.50000000002683
20
-12.79999956421856
42
-0.41421356238141954
10
86.000000000026944
20
-13.299999564232884
10
86.000000000000796
20
-14.299999626422085
42
-0.41421356237808976
10
85.799999626402723
20
-14.500000000021295
10
85.500000435706625
20
-14.499999999951378
10
85.500000435849302
20
-14.799999999884598
42
-0.41421356252127162
10
85.300000435849483
20
-14.999999999979913
10
64.69999956415279
20
-14.999999999981618
42
-0.41421356251710933
10
64.499999564152972
20
-14.799999999883461
10
64.499999564297923
20
-14.499999999950241
10
64.200000373601256
20
-14.500000000020158
42
-0.41421356237725732
10
64.000000000003752
20
-14.299999626420949
10
63.999999999978172
20
-13.299999564231747
42
-0.41421356238141954
10
64.499999999978286
20
-12.799999564217423
10
67.749999999989541
20
-12.799999564219306
42
0.41421356237509294
10
68.249999999994202
20
-12.29999956422072
10
68.250000000000881
20
-10.25710634540966
42
0.19891236738096224
10
68.103553390594698
20
-9.9035529548141668
10
64.350912475508082
20
-6.1509120397288282
42
0.19891236737671739
10
63.99735908491607
20
-6.0044654303212974
10
60.953589300146405
20
-6.0044654303221323
42
-0.13165212541992372
10
60.853589553606184
20
-5.9776706574124683
10
60.099999746543844
20
-5.5425868497950104
42
0.26794840822352256
10
59.900000253462053
20
-5.5425868497853976
10
59.146410446397866
20
-5.977670657402447
42
-0.13165212541749469
10
59.046410699857006
20
-6.0044654303111606
10
56.002640915089614
20
-6.0044654303120133
42
0.19891236737579601
10
55.649087524494689
20
-6.1509120397174861
10
51.896446609409956
20
-9.9035529548030041
42
0.1989123673847723
10
51.750000000001251
20
-10.257106345398388
10
51.750000000009599
20
-12.299999564209447
42
0.41421356237509294
10
52.250000000015007
20
-12.799999564206718
10
55.50000000002683
20
-12.799999564206718
42
-0.41421356238141954
10
56.000000000026944
20
-13.299999564221043
10
56.000000000000796
20
-14.299999626410244
42
-0.41421356237808976
10
55.799999626402723
20
-14.500000000009454
10
55.500000435706625
20
-14.499999999939536
10
55.500000435849302
20
-14.799999999872757
42
-0.41421356252127162
10
55.300000435849483
20
-14.999999999968072
10
34.69999956415279
20
-14.999999999969777
42
-0.41421356251710933
10
34.499999564152972
20
-14.79999999987162
10
34.499999564297923
20
-14.499999999938399
10
34.200000373601256
20
-14.500000000008317
42
-0.41421356237725732
10
34.000000000003752
20
-14.299999626409107
10
33.999999999978172
20
-13.299999564219906
42
-0.41421356238141954
10
34.499999999978286
20
-12.799999564205581
10
37.749999999989541
20
-12.799999564207464
42
0.41421356237509294
10
38.249999999994202
20
-12.299999564208878
10
38.250000000000881
20
-10.257106345397819
42
0.19891236738096224
10
38.103553390594698
20
-9.9035529548023256
10
34.350912475508089
20
-6.150912039716987
42
0.19891236737671902
10
33.99735908491607
20
-6.0044654303094553
10
30.953589300146405
20
-6.0044654303102902
42
-0.13165212541992372
10
30.853589553606184
20
-5.9776706574006262
10
30.099999746543844
20
-5.5425868497831683
42
0.26794840822352256
10
29.900000253462053
20
-5.5425868497735564
10
29.146410446397862
20
-5.9776706573906067
42
-0.13165212541748972
10
29.046410699857006
20
-6.0044654302993195
10
26.002640915089614
20
-6.0044654303001721
42
0.19891236737579601
10
25.649087524494689
20
-6.1509120397056449
10
21.89644660940996
20
-9.9035529547911629
42
0.19891236738477397
10
21.750000000001251
20
-10.257106345386546
10
21.750000000009599
20
-12.299999564197606
42
0.41421356237509294
10
22.250000000015007
20
-12.799999564194877
10
25.50000000002683
20
-12.799999564194877
42
-0.41421356238141954
10
26.000000000026944
20
-13.299999564209202
10
26.000000000000796
20
-14.299999626398403
42
-0.41421356237808976
10
25.799999626402723
20
-14.499999999997613
10
25.500000435706625
20
-14.499999999927695
10
25.500000435849302
20
-14.799999999860916
42
-0.41421356252127162
10
25.300000435849483
20
-14.999999999956231
10
4.6999995641527903
20
-14.999999999957936
42
-0.41421356251710933
10
4.4999995641529722
20
-14.799999999859779
10
4.4999995642979238
20
-14.499999999926558
10
4.2000003736012568
20
-14.499999999996476
42
-0.41421356237725815
10
4.0000000000037508
20
-14.299999626397266
10
3.9999999999781726
20
-13.299999564208065
42
-0.41421356238141954
10
4.4999999999782867
20
-12.79999956419374
10
7.7499999999895408
20
-12.799999564195623
42
0.41421356237509294
10
8.249999999994202
20
-12.299999564197037
10
8.2500000000008811
20
-10.257106345385978
42
0.19891236738096224
10
8.1035533905946977
20
-9.9035529547904844
10
4.3509124755080855
20
-6.1509120397051458
42
0.19891236737671872
10
3.9973590849160701
20
-6.0044654302976141
10
0.9535893001464042
20
-6.004465430298449
42
-0.13165212541992305
10
0.85358955360618438
20
-5.977670657388785
10
0.09999974654384583
20
-5.5425868497713271
42
0.26794840823031468
10
-0.099999746537946521
20
-5.5425868497718511
10
-0.85358955360213762
20
-5.9776706573889014
42
-0.13165212541749108
10
-0.95358930014299403
20
-6.0044654302976141
10
-3.9973590849103857
20
-6.0044654302984668
42
0.19891236737579601
10
-4.3509124755053108
20
-6.1509120397039396
10
-8.1035533905918911
20
-9.9035529547910155
42
0.19891236737852769
10
-8.2499999999976126
20
-10.257106345384273
10
-8.2499999999986784
20
-12.299999564189079
42
0.4142135623717631
10
-7.7499999999997726
20
-12.799999564189193
10
-4.4999999999731699
20
-12.799999564189761
42
-0.41421356238075357
10
-3.9999999999730562
20
-13.299999564202949
10
-3.9999999999992042
20
-14.299999626396698
42
-0.41421356237808976
10
-4.2000003735972768
20
-14.499999999995907
10
-4.4999995642706381
20
-14.500000000001592
10
-4.49999956415013
20
-14.79999999987399
42
-0.41421356249213576
10
-4.6999995641505166
20
-14.999999999955662
10
-13.000000346198135
20
-14.999999999955094
42
-0.41421356237276202
10
-14.999999999956799
20
-13.00000034619643
10
-15.000000000047748
20
-4.6999995641505166
42
-0.41421356251461194
10
-14.799999999949023
20
-4.4999995641484247
10
-14.499999999925421
20
-4.4999995642939439
10
-14.499999999996476
20
-4.2000003735967084
42
-0.41421356237559237
10
-14.299999626397835
20
-3.9999999999986358
10
-13.299999237088969
20
-3.9999999999741931
42
-0.41421356238141954
10
-12.799999237076918
20
-4.4999999999765805
10
-12.799999237096422
20
-7.7500003270944262
42
0.41421356237509294
10
-12.299999237096699
20
-8.2500003270973803
10
-10.256944491069362
20
-8.250000327099265
42
0.19876902777293504
10
-9.9035861571098849
20
-8.1037486667707963
10
-6.1466416660374659
20
-4.3509461875606679
42
0.19905571484930931
10
-5.9999999999973852
20
-3.9971978478871506
10
-5.9999999999979714
20
-0.95319014530332424
42
-0.13070381380610038
10
-5.9735769287260609
20
-0.85383698826547061
10
-5.541720280980158
20
-0.099353157035702383
42
0.2659509980382625
10
-5.5417202809803712
20
0.099353157040127371
10
-5.9735769287255831
20
0.85383698827142718
42
-0.13070381380376173
10
-5.9999999999973852
20
0.95319014530957702
10
-5.9999999999968168
20
3.9971978478928349
42
0.19905571484904977
10
-6.1466416660374534
20
4.3509461875657962
10
-9.9035861571068882
20
8.1037486667743615
42
0.19876902777335381
10
-10.256944491068225
20
8.2500003271036348
10
-12.299999237098405
20
8.2500003271021072
42
0.41421356237309503
10
-12.79999923709795
20
7.7500003271023843
10
-12.799999237075781
20
4.4999999999822649
42
-0.41421356238108659
10
-13.2999992370884
20
3.9999999999787406
10
-14.299999626397266
20
4.0000000000048885
42
-0.41421356237808976
10
-14.49999999999477
20
4.2000003736035296
10
-14.500000000000455
20
4.4999995642751855
10
-14.799999999964939
20
4.4999995641558144
42
-0.41421356249047087
10
-15.000000000046043
20
4.6999995641567693
10
-14.999999999956231
20
13.000000346204388
42
-0.4142135623731783
10
-13.00000034619643
20
14.99999999996021
10
-4.6999995641488113
20
14.999999999957936
42
-0.41421356251960667
10
-4.4999995641489932
20
14.799999999863758
10
-4.4999995642916701
20
14.499999999929969
10
-4.2000003735955715
20
14.499999999998749
42
-0.41421356237475992
10
-3.9999999999980673
20
14.299999626402382
10
-3.9999999999719194
20
13.299999564211475
42
-0.41421356238042062
10
-4.499999999972033
20
12.799999564198856
10
-7.7499999999838565
20
12.799999564199922
42
0.41421356237509294
10
-8.2499999999896545
20
12.299999564201585
10
-8.2499999999968665
20
10.257106345389957
42
0.1989123673840244
10
-8.1035533905907187
20
9.9035529547950318
10
-4.3509124755044493
20
6.1509120397099171
42
0.19891236737818072
10
-3.9973590849098173
20
6.0044654303021616
10
-0.95358930014242571
20
6.0044654303011296
42
-0.13165212540888727
10
-0.85358955360163691
20
5.9776706573933325
10
-0.099999746537658113
20
5.5425868497747741
42
0.26794840823031263
10
0.099999746544767731
20
5.5425868497741249
10
0.85358955360682487
20
5.9776706573932081
42
-0.13165212541105561
10
0.95358930014697307
20
6.0044654303015932
10
3.9973590849166385
20
6.0044654303017708
42
0.19891236737776263
10
4.3509124755104258
20
6.1509120397090555
10
8.1035533905962467
20
9.9035529547946197
42
0.19891236738242474
10
8.2500000000032969
20
10.25710634538882
10
8.2500000000032259
20
12.299999564194195
42
0.41421356237043117
10
7.7500000000048885
20
12.799999564193172
10
4.4999999999794218
20
12.799999564196014
42
-0.41421356238042062
10
3.9999999999798774
20
13.299999564208065
10
4.0000000000054561
20
14.299999626401814
42
-0.41421356237559326
10
4.2000003736029612
20
14.499999999999886
10
4.4999995642751855
20
14.500000000006139
10
4.4999995641541091
20
14.799999619000914
42
-0.41421356237143014
10
4.6999999452037855
20
15.000000000051728
10
25.300000054803036
20
15.000000000048885
42
-0.41421356237143014
10
25.500000435851007
20
14.799999618999777
10
25.500000435731067
20
14.500000000005002
10
25.799999626404428
20
14.499999999997044
42
-0.41421356237475992
10
26.000000000001933
20
14.299999626400677
10
26.000000000027512
20
13.299999564206928
42
-0.41421356238042062
10
25.500000000027967
20
12.799999564194877
10
22.250000000001364
20
12.799999564191964
42
0.41421356237076418
10
21.750000000003524
20
12.299999564193627
10
21.750000000003631
20
10.257106345388252
42
0.19891236737676896
10
21.896446609409281
20
9.9035529547944634
10
25.649087524495538
20
6.1509120397081984
42
0.19891236737600496
10
26.002640915090183
20
6.0044654303015932
10
29.046410699857574
20
6.0044654302994243
42
-0.13165212540888727
10
29.146410446398363
20
5.9776706573916272
10
29.900000253462057
20
5.5425868497725777
42
0.26794840822352267
10
30.099999746544768
20
5.5425868497622837
10
30.853589553606824
20
5.9776706573813652
42
-0.13165212541105675
10
30.953589300146973
20
6.004465430289752
10
33.997359084916638
20
6.0044654302899296
42
0.19891236737776283
10
34.350912475510427
20
6.1509120396972143
10
38.103553390596247
20
9.9035529547827768
42
0.19891236738242474
10
38.250000000003297
20
10.257106345376979
10
38.250000000003226
20
12.299999564182354
42
0.41421356237043117
10
37.750000000004889
20
12.799999564181331
10
34.499999999979423
20
12.799999564184173
42
-0.41421356238042062
10
33.999999999979877
20
13.299999564196224
10
34.000000000005457
20
14.299999626389972
42
-0.41421356237559237
10
34.200000373602961
20
14.499999999988045
10
34.499999564275186
20
14.499999999994298
10
34.499999564154109
20
14.799999618989073
42
-0.41421356237143014
10
34.699999945203786
20
15.000000000039886
10
55.300000054803036
20
15.000000000037044
42
-0.41421356237143014
10
55.500000435851007
20
14.799999618987936
10
55.500000435731067
20
14.499999999993161
10
55.799999626404428
20
14.499999999985203
42
-0.41421356237475992
10
56.000000000001933
20
14.299999626388836
10
56.000000000027512
20
13.299999564195087
42
-0.41421356238042062
10
55.500000000027967
20
12.799999564183036
10
52.250000000001364
20
12.799999564180123
42
0.41421356237076418
10
51.750000000003524
20
12.299999564181785
10
51.750000000003631
20
10.25710634537641
42
0.19891236737676896
10
51.896446609409281
20
9.9035529547826222
10
55.649087524495535
20
6.1509120396963564
42
0.19891236737600662
10
56.002640915090183
20
6.004465430289752
10
59.046410699857567
20
6.0044654302875822
42
-0.13165212540888727
10
59.146410446398363
20
5.977670657379786
10
59.900000253462053
20
5.5425868497607356
42
0.26794840822352783
10
60.099999746544768
20
5.5425868497504416
10
60.853589553606824
20
5.977670657369524
42
-0.13165212541105675
10
60.953589300146973
20
6.0044654302779099
10
63.997359084916638
20
6.0044654302780875
42
0.19891236737776283
10
64.350912475510427
20
6.1509120396853723
10
68.103553390596247
20
9.9035529547709356
42
0.1989123673824264
10
68.250000000003297
20
10.257106345365138
10
68.250000000003226
20
12.299999564170513
42
0.41421356237043117
10
67.750000000004889
20
12.799999564169489
10
64.499999999979423
20
12.799999564172332
42
-0.41421356238042062
10
63.999999999979877
20
13.299999564184382
10
64.000000000005457
20
14.299999626378131
42
-0.41421356237559237
10
64.200000373602961
20
14.499999999976204
10
64.499999564275186
20
14.499999999982457
10
64.499999564154109
20
14.799999618977232
42
-0.41421356237143014
10
64.699999945203786
20
15.000000000028045
10
85.300000054803036
20
15.000000000025203
42
-0.41421356237143014
10
85.500000435851007
20
14.799999618976095
10
85.500000435731067
20
14.49999999998132
10
85.799999626404428
20
14.499999999973362
42
-0.41421356237475992
10
86.000000000001933
20
14.299999626376994
10
86.000000000027512
20
13.299999564183246
42
-0.41421356238042062
10
85.500000000027967
20
12.799999564171195
10
82.250000000001364
20
12.799999564168282
42
0.41421356237076418
10
81.750000000003524
20
12.299999564169944
10
81.750000000003638
20
10.257106345364569
42
0.19891236737676896
10
81.896446609409281
20
9.903552954770781
10
85.649087524495542
20
6.1509120396845152
42
0.19891236737600335
10
86.002640915090183
20
6.0044654302779099
10
89.046410699857574
20
6.0044654302757401
42
-0.13165212540888727
10
89.146410446398363
20
5.9776706573679439
10
89.900000253462053
20
5.5425868497488935
42
0.26794840824618255
10
90.099999746544768
20
5.5425868497724196
10
90.853589553606824
20
5.9776706573915019
42
-0.13165212541105731
10
90.953589300146973
20
6.0044654302998879
10
93.997359084916638
20
6.0044654303005274
42
0.19891236737931178
10
94.350912475510427
20
6.1509120397073502
10
98.103553390595636
20
9.9035529547912535
42
0.19891236738142878
10
98.25000000000216
20
10.257106345387115
10
98.24999999999406
20
12.299999564198743
42
0.41421356237509294
10
97.749999999990678
20
12.799999564196582
10
94.499999999979423
20
12.799999564197151
42
-0.41421356238042062
10
93.999999999979877
20
13.299999564209202
10
94.000000000005457
20
14.299999626400108
42
-0.41421356237559237
10
94.200000373602961
20
14.499999999998181
10
94.499999564299628
20
14.499999999927695
10
94.499999564155246
20
14.799999999861484
42
-0.41421356251544444
10
94.699999564154496
20
14.999999999957936
10
103.00000034620325
20
14.999999999956799
42
-0.41421356237259555
10
104.99999999996135
20
13.000000346200977
10
105.0000000000523
20
4.6999995641533587
42
-0.41421356249546554
10
104.79999999997062
20
4.4999995641506985
10
104.50000000000671
20
4.4999995642717749
10
104.50000000000102
20
4.200000373600119
42
-0.41421356237975465
10
104.29999962640238
20
4.0000000000014779
10
103.29999923709465
20
3.9999999999764668
42
-0.41421356238141954
10
102.79999923708203
20
4.4999999999794227
10
102.79999923710527
20
7.7500003270995421
42
0.41421356237309503
10
102.29999923710466
20
8.2500003270990874
10
100.25694449107391
20
8.250000327099265
42
0.19876902777230826
10
99.903586157114432
20
8.1037486667725034
10
96.146641666042797
20
4.3509461875638547
42
0.1990557148490476
10
96.00000000000307
20
3.9971978478905612
10
96.000000000001961
20
0.95319014530730328
42
-0.13070381379528906
10
95.97357692873004
20
0.85383698826888121
10
95.541720280985373
20
0.099353157037592191
42
0.26595099803448596
10
95.541720280984919
20
-0.099353157037853634
10
95.973576928729784
20
-0.85383698826787935
42
-0.13070381380428725
10
96.000000000002501
20
-0.95319014530559798
10
96.000000000001052
20
-3.9971978478894243
42
0.19905571484930976
10
96.146641666042569
20
-4.3509461875623856
10
99.903586157111434
20
-8.1037486667743632
42
0.19876902777335503
10
100.25694449107277
20
-8.250000327102498
10
102.29999923709897
20
-8.2500003271004019
42
0.41421356237509294
10
102.79999923709909
20
-7.7500003270972684
10
102.79999923708147
20
-4.4999999999794227
42
-0.41421356238175255
10
103.29999923709408
20
-3.9999999999770353
10
104.29999962640181
20
-4.0000000000043201
42
-0.41421356237642482
10
104.49999999999989
20
-4.200000373600119
10
104.49999999992883
20
-4.4999995642973545
10
104.79999999995357
20
-4.4999995641524038
42
-0.41421356252210406
10
105.00000000004889
20
-4.6999995641539272
10
104.99999999995964
20
-13.00000034619984
42
-0.41421356237242907
10
103.00000034620155
20
-14.999999999957936
10
94.69999956415279
20
-14.999999999957936
42
-0.41421356249213576
10
94.499999564152404
20
-14.799999999876263
10
94.49999956427348
20
-14.500000000003865
10
94.200000373601256
20
-14.499999999998181
42
-0.41421356237725732
10
94.000000000003752
20
-14.299999626398971
10
93.999999999978172
20
-13.299999564205223
42
-0.41421356238075357
10
94.499999999978286
20
-12.799999564192035
10
97.750000000002046
20
-12.799999564190507
42
0.41421356237242907
10
98.25000000000216
20
-12.299999564191921
10
98.250000000003013
20
-10.257106345387115
42
0.19891236738183374
10
98.103553390594698
20
-9.9035529547944634
10
94.350912475508082
20
-6.150912039706852
42
0.19891236737671783
10
93.99735908491607
20
-6.0044654302993195
10
90.953589300146405
20
-6.0044654303001543
42
-0.13165212541992372
10
90.853589553606184
20
-5.9776706573904903
0
LWPOLYLINE
5
104
100
AcDbEntity
8
0
100
AcDbPolyline
90
24
70
1
43
0.0
10
83.495533792603453
20
5.3496938441778275
42
0.19891236737254289
10
83.056193945883408
20
6.4103540082574098
10
80.539339792613376
20
8.9272078179882737
42
-0.19891236738074775
10
80.099999999969782
20
9.9878679038768823
10
80.100000000002723
20
11.849999903877425
42
0.41421356237309503
10
78.600000000003547
20
13.349999903876629
10
71.400000000002706
20
13.349999903877162
42
0.41421356237309503
10
69.900000000002933
20
11.849999903877993
10
69.900000000035504
20
9.9878679038774507
42
-0.1989123673817163
10
69.46066020739238
20
8.9272078179876289
10
66.943806054135379
20
6.4103540082704535
42
0.19891236737683635
10
66.50446620740297
20
5.3496938441789643
10
66.504466207403084
20
-5.3496938442013198
42
0.19891236737701529
10
66.943806054122206
20
-6.4103540083008648
10
69.460660207391541
20
-8.9272078180318442
42
-0.19891236738131063
10
69.900000000034765
20
-9.9878679039219733
10
69.900000000002393
20
-11.849999903923084
42
0.41421356237309503
10
71.400000000001569
20
-13.349999903921152
10
78.60000000000241
20
-13.349999903922821
42
0.41421356237309503
10
80.100000000002751
20
-11.849999903923653
10
80.099999999968276
20
-9.9878679039225435
42
-0.19891236738117121
10
80.539339792611031
20
-8.9272078180327199
10
83.056193945871456
20
-6.410354008315549
42
0.1989123673771887
10
83.495533792602146
20
-5.3496938442217834
0
LWPOLYLINE
5
105
100
AcDbEntity
8
0
100
AcDbPolyline
90
16
70
1
43
0.0
10
61.600129596500821
20
3.280561731493445
42
0.23088021699970135
10
58.39987040350227
20
3.2805617314949509
10
56.845330526690972
20
4.5053368924071604
42
0.088535184874135114
10
55.481599096701757
20
3.1359294119875858
10
56.719438233005633
20
1.6001295237880897
42
0.23088020532831169
10
56.719438233011488
20
-1.6001295238185276
10
55.481599096700755
20
-3.1359294120117509
42
0.088535184875113845
10
56.845330526704743
20
-4.5053368924378852
10
58.399870403497573
20
-3.2805617315390383
42
0.23088021700081157
10
61.60012959650885
20
-3.280561731535081
10
63.154669473298462
20
-4.5053368924485344
42
0.088535184874973055
10
64.518400903301654
20
-3.1359294120214054
10
63.28056176699377
20
-1.6001295238293045
42
0.23088020532804235
10
63.28056176699647
20
1.6001295237767499
10
64.518400903295074
20
3.1359294119720484
42
0.088535184874140374
10
63.154669473307763
20
4.5053368923864445
0
LWPOLYLINE
5
106
100
AcDbEntity
8
0
100
AcDbPolyline
90
24
70
1
43
0.0
10
53.49553379260346
20
5.3496938441896695
42
0.19891236737254289
10
53.056193945883408
20
6.4103540082692509
10
50.539339792613383
20
8.9272078180001095
42
-0.19891236738074891
10
50.099999999969782
20
9.9878679038887235
10
50.100000000002716
20
11.849999903889266
42
0.41421356237309503
10
48.600000000003547
20
13.34999990388847
10
41.400000000002706
20
13.349999903889003
42
0.41421356237309503
10
39.900000000002933
20
11.849999903889834
10
39.90000000003549
20
9.9878679038892919
42
-0.1989123673817163
10
39.46066020739238
20
8.9272078179994701
10
36.943806054135372
20
6.4103540082822956
42
0.19891236737683576
10
36.50446620740297
20
5.3496938441908064
10
36.504466207403077
20
-5.3496938441894777
42
0.19891236737701529
10
36.943806054122206
20
-6.4103540082890227
10
39.460660207391548
20
-8.9272078180200012
42
-0.19891236738131063
10
39.900000000034765
20
-9.9878679039101321
10
39.9000000000024
20
-11.849999903911243
42
0.41421356237309503
10
41.400000000001569
20
-13.34999990390931
10
48.60000000000241
20
-13.34999990391098
42
0.41421356237309503
10
50.100000000002751
20
-11.849999903911812
10
50.099999999968283
20
-9.9878679039107023
42
-0.19891236738117121
10
50.539339792611031
20
-8.9272078180208787
10
53.056193945871442
20
-6.4103540083037069
42
0.19891236737718976
10
53.495533792602146
20
-5.3496938442099413
0
LWPOLYLINE
5
107
100
AcDbEntity
8
0
100
AcDbPolyline
90
16
70
1
43
0.0
10
31.600129596500818
20
3.2805617315052862
42
0.23088021699970104
10
28.39987040350227
20
3.2805617315067925
10
26.845330526690972
20
4.5053368924190025
42
0.088535184874135114
10
25.481599096701757
20
3.1359294119994274
10
26.719438233005633
20
1.6001295237999313
42
0.23088020532831169
10
26.719438233011488
20
-1.6001295238066859
10
25.481599096700748
20
-3.1359294119999093
42
0.088535184875113998
10
26.845330526704743
20
-4.505336892426044
10
28.399870403497577
20
-3.280561731527198
42
0.23088021700081132
10
31.60012959650885
20
-3.2805617315232394
10
33.154669473298462
20
-4.5053368924366923
42
0.088535184874972889
10
34.518400903301654
20
-3.1359294120095638
10
33.280561766993777
20
-1.6001295238174631
42
0.23088020532804215
10
33.28056176699647
20
1.6001295237885915
10
34.518400903295074
20
3.1359294119838896
42
0.088535184874140208
10
33.154669473307763
20
4.5053368923982866
0
LWPOLYLINE
5
108
100
AcDbEntity
8
0
100
AcDbPolyline
90
24
70
1
43
0.0
10
23.49553379260346
20
5.3496938442015107
42
0.19891236737254289
10
23.056193945883408
20
6.410354008281093
10
20.539339792613379
20
8.9272078180119525
42
-0.19891236738074891
10
20.099999999969782
20
9.9878679039005647
10
20.100000000002716
20
11.849999903901107
42
0.41421356237309503
10
18.600000000003547
20
13.349999903900311
10
11.400000000002706
20
13.349999903900844
42
0.41421356237309503
10
9.9000000000029331
20
11.849999903901676
10
9.9000000000354973
20
9.9878679039011331
42
-0.1989123673817163
10
9.4606602073923796
20
8.9272078180113112
10
6.9438060541353757
20
6.4103540082941368
42
0.19891236737683604
10
6.5044662074029702
20
5.3496938442026476
10
6.5044662074030768
20
-5.3496938441776365
42
0.19891236737701529
10
6.9438060541222058
20
-6.4103540082771815
10
9.46066020739155
20
-8.92720781800816
42
-0.19891236738131063
10
9.9000000000347654
20
-9.9878679038982909
10
9.9000000000024002
20
-11.849999903899402
42
0.41421356237309503
10
11.400000000001569
20
-13.349999903897469
10
18.60000000000241
20
-13.349999903899139
42
0.41421356237309503
10
20.100000000002751
20
-11.84999990389997
10
20.099999999968276
20
-9.9878679038988594
42
-0.1989123673811711
10
20.539339792611031
20
-8.9272078180090375
10
23.056193945871442
20
-6.4103540082918649
42
0.19891236737718976
10
23.495533792602146
20
-5.3496938441981001
0
LWPOLYLINE
5
109
100
AcDbEntity
8
0
100
AcDbPolyline
90
8
70
1
43
0.0
10
-13.700000398438803
20
-12.700001090038882
42
0.41421356797350317
10
-12.700000398439784
20
-13.700001090039038
10
-10.499999635455879
20
-13.700001090039429
42
0.41421356798432507
10
-9.4999996354971472
20
-12.70000109009743
10
-9.4999996354564686
20
-10.50000032715559
42
0.41421356798382558
10
-10.499999635496806
20
-9.5000003271553624
10
-12.700000398439784
20
-9.5000003271582045
42
0.41421356798415859
10
-13.700000398397947
20
-10.500000327097041
0
LWPOLYLINE
5
110
100
AcDbEntity
8
0
100
AcDbPolyline
90
8
70
1
43
0.0
10
-13.700000398437666
20
10.500000327160706
42
0.41421356797366965
10
-12.700000398438647
20
9.5000003271599809
10
-10.499999635454742
20
9.5000003271612972
42
0.41421356798399211
10
-9.4999996354960103
20
10.500000327102157
10
-9.4999996354553318
20
12.700001090045134
42
0.41421356798332615
10
-10.499999635495101
20
13.700001090043656
10
-12.700000398438078
20
13.700001090043656
42
0.41421356798499104
10
-13.70000039839681
20
12.700001090102546
0
LWPOLYLINE
5
111
100
AcDbEntity
8
0
100
AcDbPolyline
90
16
70
1
43
0.0
10
1.6001295965008167
20
3.2805617315171274
42
0.23088021700004682
10
-1.6001295965020368
20
3.2805617315165323
10
-3.1546694732935467
20
4.5053368924261195
42
0.088535184874909093
10
-4.5184009032982431
20
3.135929412002838
10
-3.28056176698803
20
1.6001295238092927
42
0.23088020532900852
10
-3.2805617669885123
20
-1.6001295238049806
10
-4.5184009032930756
20
-3.1359294119923837
42
0.08853518487424146
10
-3.154669473302647
20
-4.505336892403875
10
-1.6001295964969573
20
-3.2805617315180231
42
0.23088021700037245
10
1.6001295965088502
20
-3.2805617315113977
10
3.1546694732984584
20
-4.5053368924248511
42
0.088535184874973222
10
4.5184009033016528
20
-3.1359294119977221
10
3.2805617669937739
20
-1.6001295238056212
42
0.23088020532804224
10
3.2805617669964704
20
1.6001295238004332
10
4.518400903295074
20
3.1359294119957308
42
0.088535184874140208
10
3.1546694733077629
20
4.5053368924101278
0
LWPOLYLINE
5
112
100
AcDbEntity
8
0
100
AcDbPolyline
90
16
70
1
43
0.0
10
88.399870403491747
20
-3.2805617315237301
42
0.23088021700011235
10
91.600129596507912
20
-3.2805617315316571
10
93.154669473312055
20
-4.5053368924126866
42
0.088535184874183492
10
94.518400903304496
20
-3.1359294120005643
10
93.280561766990871
20
-1.6001295238059114
42
0.23088020532918604
10
93.280561766993628
20
1.6001295238072544
10
94.518400903303302
20
3.1359294120017149
42
0.088535184874976289
10
93.154669473298668
20
4.5053368924249071
10
91.600129596517235
20
3.2805617315305153
42
0.23088021700120281
10
88.399870403497971
20
3.2805617315036306
10
86.845330526690958
20
4.5053368923953165
42
0.088535184874195122
10
85.481599096701757
20
3.1359294119757442
10
86.719438233005647
20
1.600129523776249
42
0.23088020532780867
10
86.719438233011488
20
-1.6001295238303692
10
85.481599096700748
20
-3.1359294120235957
42
0.088535184874869943
10
86.845330526704743
20
-4.5053368924497272
0
LWPOLYLINE
5
113
100
AcDbEntity
8
0
100
AcDbPolyline
90
8
70
1
43
0.0
10
102.70000039844547
20
9.5000003271580269
42
0.41421356797367681
10
103.70000039844419
20
10.500000327157295
10
103.70000039844449
20
12.700001090099136
42
0.41421356795619013
10
102.70000039844604
20
13.700001090040814
10
100.49999963550306
20
13.700001090041631
42
0.41421356798514714
10
99.499999635461336
20
12.700001090042292
10
99.499999635461975
20
10.500000327099315
42
0.41421356795567893
10
100.49999963545986
20
9.5000003271599098
0
LWPOLYLINE
5
114
100
AcDbEntity
8
0
100
AcDbPolyline
90
8
70
1
43
0.0
10
102.70000039844433
20
-13.700001090040992
42
0.4142135679735045
10
103.70000039844302
20
-12.700001090042292
10
103.70000039844335
20
-10.500000327100452
42
0.41421356795602299
10
102.70000039844433
20
-9.500000327158773
10
100.49999963550135
20
-9.5000003271590927
42
0.41421356798499231
10
99.499999635460199
20
-10.500000327158432
10
99.499999635460838
20
-12.700001090100272
42
0.41421356795602104
10
100.49999963545872
20
-13.700001090040246
0
LWPOLYLINE
5
115
100
AcDbEntity
8
0
100
AcDbPolyline
90
328
70
1
43
0.0
10
90.099999746544057
20
-5.5425868497738096
42
0.26794840823108257
10
89.900000253461485
20
-5.542586849772575
10
89.146410446397852
20
-5.9776706574142917
42
-0.1316521254174956
10
89.046410699857006
20
-6.0044654303230027
10
86.002640915089614
20
-6.0044654303238554
42
0.19891236737579601
10
85.649087524494689
20
-6.1509120397293282
10
81.896446609409963
20
-9.9035529548148489
42
0.19891236738477147
10
81.750000000001251
20
-10.257106345410229
10
81.750000000009607
20
-12.299999564221288
42
0.41421356237509294
10
82.250000000015007
20
-12.79999956421856
10
85.50000000002683
20
-12.799999564218567
42
-0.41421356238141566
10
86.000000000026944
20
-13.299999564232884
10
86.000000000000796
20
-14.299999626422085
42
-0.41421356237813528
10
85.799999626402723
20
-14.500000000021295
10
85.500000435706625
20
-14.499999999951378
10
85.500000435849287
20
-14.799999999884598
42
-0.41421356252128783
10
85.300000435849483
20
-14.999999999979913
10
64.69999956415279
20
-14.999999999981624
42
-0.41421356251707681
10
64.499999564152972
20
-14.799999999883461
10
64.499999564297923
20
-14.499999999950241
10
64.200000373601256
20
-14.500000000020158
42
-0.41421356237725732
10
64.000000000003752
20
-14.299999626420949
10
63.999999999978172
20
-13.299999564231747
42
-0.41421356238142087
10
64.499999999978286
20
-12.799999564217423
10
67.749999999989541
20
-12.799999564219306
42
0.41421356237509294
10
68.249999999994202
20
-12.29999956422072
10
68.250000000000881
20
-10.25710634540966
42
0.19891236738096224
10
68.103553390594698
20
-9.9035529548141668
10
64.350912475508082
20
-6.1509120397288273
42
0.19891236737671703
10
63.99735908491607
20
-6.0044654303212974
10
60.953589300146405
20
-6.0044654303221296
42
-0.13165212541995355
10
60.853589553606184
20
-5.9776706574124683
10
60.099999746543844
20
-5.5425868497950077
42
0.26794840822352106
10
59.900000253462053
20
-5.5425868497853976
10
59.146410446397866
20
-5.9776706574024487
42
-0.13165212541748342
10
59.046410699857006
20
-6.0044654303111606
10
56.002640915089614
20
-6.0044654303120133
42
0.19891236737579601
10
55.649087524494689
20
-6.1509120397174861
10
51.896446609409956
20
-9.9035529548030059
42
0.19891236738477147
10
51.750000000001251
20
-10.257106345398388
10
51.750000000009599
20
-12.299999564209447
42
0.41421356237509294
10
52.250000000015007
20
-12.799999564206718
10
55.50000000002683
20
-12.799999564206717
42
-0.41421356238141044
10
56.000000000026944
20
-13.299999564221043
10
56.000000000000796
20
-14.299999626410244
42
-0.41421356237808327
10
55.799999626402723
20
-14.500000000009454
10
55.500000435706625
20
-14.499999999939536
10
55.500000435849302
20
-14.799999999872757
42
-0.41421356252125208
10
55.300000435849483
20
-14.999999999968072
10
34.69999956415279
20
-14.999999999969777
42
-0.41421356251709635
10
34.499999564152972
20
-14.79999999987162
10
34.499999564297923
20
-14.499999999938399
10
34.200000373601256
20
-14.500000000008317
42
-0.41421356237725732
10
34.000000000003752
20
-14.299999626409107
10
33.999999999978172
20
-13.299999564219906
42
-0.41421356238141827
10
34.499999999978286
20
-12.799999564205581
10
37.749999999989541
20
-12.799999564207464
42
0.41421356237509294
10
38.249999999994202
20
-12.299999564208878
10
38.250000000000881
20
-10.257106345397819
42
0.19891236738096224
10
38.103553390594698
20
-9.9035529548023256
10
34.350912475508089
20
-6.1509120397169879
42
0.19891236737671947
10
33.99735908491607
20
-6.0044654303094553
10
30.953589300146405
20
-6.0044654303102902
42
-0.1316521254199087
10
30.853589553606184
20
-5.9776706574006262
10
30.099999746543844
20
-5.5425868497831665
42
0.26794840822352106
10
29.900000253462053
20
-5.5425868497735564
10
29.146410446397862
20
-5.9776706573906093
42
-0.13165212541748272
10
29.046410699857006
20
-6.0044654302993195
10
26.002640915089614
20
-6.0044654303001721
42
0.19891236737579601
10
25.649087524494689
20
-6.1509120397056449
10
21.89644660940996
20
-9.9035529547911629
42
0.19891236738477397
10
21.750000000001251
20
-10.257106345386546
10
21.750000000009599
20
-12.299999564197606
42
0.41421356237509294
10
22.250000000015007
20
-12.799999564194877
10
25.50000000002683
20
-12.799999564194877
42
-0.41421356238141954
10
26.000000000026944
20
-13.299999564209202
10
26.000000000000796
20
-14.299999626398403
42
-0.41421356237807999
10
25.799999626402723
20
-14.499999999997613
10
25.500000435706625
20
-14.499999999927695
10
25.500000435849302
20
-14.799999999860916
42
-0.41421356252128133
10
25.300000435849483
20
-14.999999999956231
10
4.6999995641527903
20
-14.999999999957934
42
-0.41421356251710528
10
4.4999995641529722
20
-14.799999999859779
10
4.4999995642979238
20
-14.499999999926558
10
4.2000003736012568
20
-14.499999999996476
42
-0.41421356237725165
10
4.0000000000037508
20
-14.299999626397266
10
3.9999999999781704
20
-13.299999564208065
42
-0.41421356238141827
10
4.4999999999782867
20
-12.79999956419374
10
7.7499999999895408
20
-12.799999564195623
42
0.41421356237509294
10
8.249999999994202
20
-12.299999564197037
10
8.2500000000008811
20
-10.257106345385978
42
0.19891236738096224
10
8.1035533905946977
20
-9.9035529547904844
10
4.3509124755080855
20
-6.1509120397051458
42
0.19891236737671888
10
3.9973590849160701
20
-6.0044654302976141
10
0.9535893001464042
20
-6.004465430298449
42
-0.13165212541992249
10
0.85358955360618438
20
-5.977670657388785
10
0.099999746543846191
20
-5.5425868497713271
42
0.26794840823031502
10
-0.099999746537946521
20
-5.5425868497718511
10
-0.8535895536021374
20
-5.9776706573889014
42
-0.13165212541748894
10
-0.95358930014299403
20
-6.0044654302976141
10
-3.9973590849103857
20
-6.0044654302984668
42
0.19891236737579601
10
-4.3509124755053108
20
-6.1509120397039396
10
-8.1035533905918893
20
-9.9035529547910155
42
0.19891236737852808
10
-8.2499999999976126
20
-10.257106345384273
10
-8.2499999999986784
20
-12.299999564189079
42
0.4142135623717631
10
-7.7499999999997726
20
-12.799999564189193
10
-4.4999999999731699
20
-12.799999564189761
42
-0.41421356238075163
10
-3.9999999999730562
20
-13.299999564202949
10
-3.999999999999206
20
-14.299999626396698
42
-0.41421356237809381
10
-4.2000003735972768
20
-14.499999999995907
10
-4.4999995642706381
20
-14.500000000001592
10
-4.4999995641501291
20
-14.79999999987399
42
-0.41421356249213087
10
-4.6999995641505166
20
-14.999999999955662
10
-13.000000346198135
20
-14.999999999955094
42
-0.41421356237276269
10
-14.999999999956799
20
-13.00000034619643
10
-15.000000000047748
20
-4.6999995641505166
42
-0.41421356251460634
10
-14.799999999949023
20
-4.4999995641484247
10
-14.499999999925421
20
-4.4999995642939439
10
-14.499999999996476
20
-4.2000003735967084
42
-0.41421356237558671
10
-14.299999626397835
20
-3.9999999999986358
10
-13.299999237088969
20
-3.9999999999741922
42
-0.4142135623814176
10
-12.799999237076918
20
-4.4999999999765805
10
-12.799999237096422
20
-7.7500003270944262
42
0.41421356237509294
10
-12.299999237096699
20
-8.2500003270973803
10
-10.256944491069362
20
-8.250000327099265
42
0.19876902777293504
10
-9.9035861571098849
20
-8.1037486667707963
10
-6.1466416660374659
20
-4.3509461875606679
42
0.19905571484930931
10
-5.9999999999973852
20
-3.9971978478871506
10
-5.9999999999979714
20
-0.95319014530332424
42
-0.13070381380609947
10
-5.9735769287260609
20
-0.85383698826547061
10
-5.541720280980158
20
-0.099353157035702744
42
0.26595099803826283
10
-5.5417202809803712
20
0.099353157040127371
10
-5.9735769287255831
20
0.85383698827142696
42
-0.13070381380376195
10
-5.9999999999973852
20
0.95319014530957702
10
-5.9999999999968168
20
3.9971978478928349
42
0.19905571484904977
10
-6.1466416660374534
20
4.3509461875657962
10
-9.9035861571068882
20
8.1037486667743615
42
0.19876902777335381
10
-10.256944491068225
20
8.2500003271036348
10
-12.299999237098405
20
8.2500003271021072
42
0.41421356237309503
10
-12.79999923709795
20
7.7500003271023843
10
-12.799999237075779
20
4.4999999999822649
42
-0.4142135623810882
10
-13.2999992370884
20
3.9999999999787406
10
-14.299999626397266
20
4.0000000000048885
42
-0.41421356237808976
10
-14.49999999999477
20
4.2000003736035296
10
-14.500000000000455
20
4.4999995642751855
10
-14.799999999964939
20
4.4999995641558126
42
-0.41421356249046681
10
-15.000000000046043
20
4.6999995641567693
10
-14.999999999956231
20
13.000000346204388
42
-0.4142135623731783
10
-13.00000034619643
20
14.99999999996021
10
-4.6999995641488113
20
14.999999999957936
42
-0.41421356251960667
10
-4.4999995641489932
20
14.799999999863758
10
-4.4999995642916701
20
14.499999999929969
10
-4.2000003735955715
20
14.499999999998749
42
-0.41421356237475992
10
-3.9999999999980673
20
14.299999626402382
10
-3.9999999999719194
20
13.299999564211475
42
-0.41421356238042062
10
-4.499999999972033
20
12.799999564198856
10
-7.7499999999838565
20
12.799999564199922
42
0.41421356237509294
10
-8.2499999999896545
20
12.299999564201585
10
-8.2499999999968665
20
10.257106345389957
42
0.1989123673840244
10
-8.1035533905907187
20
9.9035529547950318
10
-4.3509124755044493
20
6.1509120397099171
42
0.19891236737818072
10
-3.9973590849098173
20
6.0044654303021616
10
-0.95358930014242571
20
6.0044654303011278
42
-0.1316521254088894
10
-0.85358955360163691
20
5.9776706573933325
10
-0.099999746537658002
20
5.5425868497747741
42
0.26794840823031246
10
0.099999746544767731
20
5.5425868497741249
10
0.85358955360682498
20
5.9776706573932081
42
-0.13165212541105245
10
0.95358930014697307
20
6.0044654303015932
10
3.9973590849166385
20
6.0044654303017708
42
0.19891236737776263
10
4.3509124755104258
20
6.1509120397090555
10
8.1035533905962467
20
9.9035529547946197
42
0.19891236738242474
10
8.2500000000032969
20
10.25710634538882
10
8.2500000000032259
20
12.299999564194195
42
0.41421356237043117
10
7.7500000000048885
20
12.799999564193172
10
4.4999999999794218
20
12.799999564196014
42
-0.41421356238042095
10
3.9999999999798774
20
13.299999564208065
10
4.0000000000054552
20
14.299999626401814
42
-0.41421356237559487
10
4.2000003736029612
20
14.499999999999886
10
4.4999995642751855
20
14.500000000006139
10
4.4999995641541108
20
14.799999619000914
42
-0.41421356237143336
10
4.6999999452037855
20
15.000000000051728
10
25.300000054803036
20
15.000000000048887
42
-0.41421356237142037
10
25.500000435851007
20
14.799999618999777
10
25.500000435731067
20
14.500000000005002
10
25.799999626404428
20
14.499999999997044
42
-0.41421356237474694
10
26.000000000001933
20
14.299999626400677
10
26.000000000027512
20
13.299999564206928
42
-0.41421356238042062
10
25.500000000027967
20
12.799999564194877
10
22.250000000001364
20
12.799999564191964
42
0.41421356237076418
10
21.750000000003524
20
12.299999564193627
10
21.750000000003631
20
10.257106345388252
42
0.19891236737676896
10
21.896446609409281
20
9.9035529547944634
10
25.649087524495538
20
6.1509120397081984
42
0.19891236737600496
10
26.002640915090183
20
6.0044654303015932
10
29.046410699857574
20
6.0044654302994243
42
-0.13165212540890489
10
29.146410446398363
20
5.9776706573916272
10
29.900000253462057
20
5.5425868497725777
42
0.26794840822352267
10
30.099999746544768
20
5.5425868497622837
10
30.853589553606824
20
5.9776706573813652
42
-0.13165212541105606
10
30.953589300146973
20
6.004465430289752
10
33.997359084916638
20
6.0044654302899296
42
0.19891236737776283
10
34.350912475510427
20
6.1509120396972143
10
38.103553390596247
20
9.9035529547827768
42
0.19891236738242474
10
38.250000000003297
20
10.257106345376979
10
38.250000000003226
20
12.299999564182354
42
0.41421356237043117
10
37.750000000004889
20
12.799999564181331
10
34.499999999979423
20
12.799999564184173
42
-0.41421356238042584
10
33.999999999979877
20
13.299999564196224
10
34.000000000005457
20
14.299999626389972
42
-0.41421356237558266
10
34.200000373602961
20
14.499999999988045
10
34.499999564275186
20
14.499999999994298
10
34.499999564154109
20
14.799999618989073
42
-0.4142135623714171
10
34.699999945203786
20
15.000000000039886
10
55.300000054803036
20
15.000000000037051
42
-0.41421356237143986
10
55.500000435851007
20
14.799999618987936
10
55.500000435731067
20
14.499999999993161
10
55.799999626404428
20
14.499999999985207
42
-0.41421356237476642
10
56.000000000001933
20
14.299999626388836
10
56.000000000027505
20
13.299999564195087
42
-0.41421356238042584
10
55.500000000027967
20
12.799999564183036
10
52.250000000001364
20
12.799999564180123
42
0.41421356237076418
10
51.750000000003524
20
12.299999564181785
10
51.750000000003631
20
10.25710634537641
42
0.19891236737676896
10
51.896446609409281
20
9.9035529547826222
10
55.649087524495535
20
6.150912039696359
42
0.19891236737600734
10
56.002640915090183
20
6.004465430289752
10
59.046410699857574
20
6.0044654302875795
42
-0.13165212540888285
10
59.146410446398363
20
5.977670657379786
10
59.900000253462053
20
5.5425868497607365
42
0.26794840822352861
10
60.099999746544768
20
5.5425868497504416
10
60.853589553606824
20
5.9776706573695249
42
-0.13165212541107729
10
60.953589300146973
20
6.0044654302779099
10
63.997359084916638
20
6.0044654302780875
42
0.19891236737776283
10
64.350912475510427
20
6.1509120396853723
10
68.103553390596247
20
9.9035529547709338
42
0.19891236738242715
10
68.250000000003297
20
10.257106345365138
10
68.250000000003226
20
12.299999564170513
42
0.41421356237043117
10
67.750000000004889
20
12.799999564169489
10
64.499999999979423
20
12.799999564172328
42
-0.4142135623804219
10
63.999999999979877
20
13.299999564184382
10
64.000000000005457
20
14.299999626378131
42
-0.41421356237559565
10
64.200000373602961
20
14.499999999976204
10
64.499999564275186
20
14.499999999982457
10
64.499999564154109
20
14.799999618977232
42
-0.41421356237142687
10
64.699999945203786
20
15.000000000028045
10
85.300000054803036
20
15.000000000025192
42
-0.4142135623714171
10
85.500000435851007
20
14.799999618976095
10
85.500000435731067
20
14.49999999998132
10
85.799999626404428
20
14.499999999973365
42
-0.41421356237471441
10
86.000000000001933
20
14.299999626376994
10
86.000000000027512
20
13.299999564183246
42
-0.41421356238041673
10
85.500000000027967
20
12.799999564171195
10
82.250000000001364
20
12.799999564168282
42
0.41421356237076418
10
81.750000000003524
20
12.299999564169944
10
81.750000000003638
20
10.257106345364569
42
0.19891236737676896
10
81.896446609409281
20
9.903552954770781
10
85.649087524495542
20
6.1509120396845134
42
0.19891236737600249
10
86.002640915090183
20
6.0044654302779099
10
89.046410699857574
20
6.0044654302757383
42
-0.13165212540888285
10
89.146410446398363
20
5.9776706573679439
10
89.900000253462053
20
5.5425868497488953
42
0.26794840824618332
10
90.099999746544768
20
5.5425868497724196
10
90.853589553606838
20
5.9776706573915011
42
-0.13165212541107946
10
90.953589300146973
20
6.0044654302998879
10
93.997359084916638
20
6.0044654303005274
42
0.19891236737931178
10
94.350912475510427
20
6.1509120397073502
10
98.103553390595636
20
9.9035529547912553
42
0.19891236738142798
10
98.25000000000216
20
10.257106345387115
10
98.24999999999406
20
12.299999564198743
42
0.41421356237509294
10
97.749999999990678
20
12.799999564196582
10
94.499999999979423
20
12.799999564197158
42
-0.41421356238041673
10
93.999999999979877
20
13.299999564209202
10
94.000000000005457
20
14.299999626400108
42
-0.41421356237554685
10
94.200000373602961
20
14.499999999998181
10
94.499999564299628
20
14.499999999927695
10
94.499999564155246
20
14.799999999861484
42
-0.41421356251544444
10
94.699999564154496
20
14.999999999957936
10
103.00000034620325
20
14.999999999956792
42
-0.41421356237259976
10
104.99999999996135
20
13.000000346200977
10
105.0000000000523
20
4.6999995641533587
42
-0.41421356249540864
10
104.79999999997062
20
4.4999995641506985
10
104.50000000000671
20
4.4999995642717749
10
104.50000000000102
20
4.200000373600119
42
-0.4142135623797969
10
104.29999962640238
20
4.0000000000014779
10
103.29999923709465
20
3.9999999999764677
42
-0.41421356238141893
10
102.79999923708203
20
4.4999999999794227
10
102.79999923710527
20
7.7500003270995421
42
0.41421356237309503
10
102.29999923710466
20
8.2500003270990874
10
100.25694449107391
20
8.250000327099265
42
0.19876902777230826
10
99.903586157114432
20
8.1037486667725034
10
96.146641666042797
20
4.3509461875638502
42
0.19905571484904613
10
96.00000000000307
20
3.9971978478905612
10
96.000000000001961
20
0.95319014530730328
42
-0.1307038137953716
10
95.97357692873004
20
0.85383698826888121
10
95.541720280985373
20
0.09935315703759455
42
0.26595099803448863
10
95.541720280984919
20
-0.099353157037853634
10
95.973576928729784
20
-0.85383698826788068
42
-0.13070381380438412
10
96.000000000002501
20
-0.95319014530559798
10
96.000000000001052
20
-3.9971978478894243
42
0.19905571484930976
10
96.146641666042569
20
-4.3509461875623856
10
99.903586157111434
20
-8.1037486667743597
42
0.1987690277733562
10
100.25694449107277
20
-8.250000327102498
10
102.29999923709897
20
-8.2500003271004019
42
0.41421356237509294
10
102.79999923709909
20
-7.7500003270972684
10
102.79999923708147
20
-4.4999999999794227
42
-0.41421356238173562
10
103.29999923709408
20
-3.9999999999770353
10
104.29999962640181
20
-4.0000000000043121
42
-0.41421356237643625
10
104.49999999999989
20
-4.200000373600119
10
104.49999999992883
20
-4.4999995642973545
10
104.79999999995357
20
-4.4999995641523913
42
-0.41421356252206992
10
105.00000000004889
20
-4.6999995641539272
10
104.99999999995964
20
-13.00000034619984
42
-0.41421356237243329
10
103.00000034620155
20
-14.999999999957936
10
94.69999956415279
20
-14.99999999995795
42
-0.41421356249215524
10
94.499999564152404
20
-14.799999999876263
10
94.49999956427348
20
-14.500000000003865
10
94.200000373601256
20
-14.499999999998172
42
-0.41421356237729628
10
94.000000000003752
20
-14.299999626398971
10
93.999999999978172
20
-13.299999564205223
42
-0.41421356238077051
10
94.499999999978286
20
-12.799999564192035
10
97.750000000002046
20
-12.799999564190507
42
0.41421356237242907
10
98.25000000000216
20
-12.299999564191921
10
98.250000000003013
20
-10.257106345387115
42
0.19891236738183374
10
98.103553390594698
20
-9.9035529547944634
10
94.350912475508082
20
-6.1509120397068493
42
0.19891236737671703
10
93.99735908491607
20
-6.0044654302993195
10
90.953589300146405
20
-6.0044654303001535
42
-0.1316521254198719
10
90.853589553606184
20
-5.9776706573904903
0
LWPOLYLINE
5
116
100
AcDbEntity
8
0
100
AcDbPolyline
90
24
70
1
43
0.0
10
83.495533792603453
20
5.3496938441778301
42
0.198912367372553
10
83.056193945883408
20
6.4103540082574115
10
80.539339792613376
20
8.9272078179882737
42
-0.19891236738074775
10
80.099999999969782
20
9.9878679038768823
10
80.100000000002723
20
11.849999903877425
42
0.41421356237309465
10
78.600000000003547
20
13.349999903876629
10
71.400000000002706
20
13.349999903877162
42
0.41421356237309465
10
69.900000000002933
20
11.849999903877993
10
69.900000000035504
20
9.9878679038774507
42
-0.1989123673817163
10
69.46066020739238
20
8.9272078179876289
10
66.943806054135379
20
6.4103540082704544
42
0.19891236737684392
10
66.50446620740297
20
5.3496938441789643
10
66.504466207403084
20
-5.3496938442013171
42
0.19891236737701312
10
66.943806054122206
20
-6.4103540083008648
10
69.460660207391541
20
-8.9272078180318442
42
-0.19891236738131063
10
69.900000000034765
20
-9.9878679039219733
10
69.900000000002393
20
-11.849999903923084
42
0.41421356237309465
10
71.400000000001569
20
-13.349999903921152
10
78.60000000000241
20
-13.349999903922821
42
0.41421356237309465
10
80.100000000002751
20
-11.849999903923653
10
80.099999999968276
20
-9.9878679039225418
42
-0.19891236738117096
10
80.539339792611031
20
-8.9272078180327199
10
83.056193945871456
20
-6.410354008315549
42
0.19891236737717155
10
83.495533792602146
20
-5.3496938442217834
0
LWPOLYLINE
5
117
100
AcDbEntity
8
0
100
AcDbPolyline
90
16
70
1
43
0.0
10
61.600129596500821
20
3.280561731493445
42
0.23088021699970088
10
58.39987040350227
20
3.2805617314949513
10
56.845330526690972
20
4.5053368924071604
42
0.088535184874199577
10
55.481599096701757
20
3.1359294119875858
10
56.719438233005633
20
1.6001295237880901
42
0.23088020532780781
10
56.719438233011488
20
-1.6001295238185276
10
55.481599096700755
20
-3.1359294120117549
42
0.088535184874874245
10
56.845330526704743
20
-4.5053368924378852
10
58.399870403497573
20
-3.2805617315390401
42
0.23088021700081035
10
61.60012959650885
20
-3.280561731535081
10
63.154669473298462
20
-4.5053368924485326
42
0.088535184874974429
10
64.518400903301654
20
-3.1359294120214054
10
63.28056176699377
20
-1.6001295238293034
42
0.23088020532804224
10
63.28056176699647
20
1.6001295237767499
10
64.518400903295074
20
3.1359294119720484
42
0.088535184874139417
10
63.154669473307763
20
4.5053368923864445
0
LWPOLYLINE
5
118
100
AcDbEntity
8
0
100
AcDbPolyline
90
24
70
1
43
0.0
10
53.49553379260346
20
5.3496938441896713
42
0.19891236737253659
10
53.056193945883408
20
6.4103540082692545
10
50.539339792613383
20
8.9272078180001095
42
-0.19891236738074891
10
50.099999999969782
20
9.9878679038887235
10
50.100000000002716
20
11.849999903889266
42
0.41421356237309465
10
48.600000000003547
20
13.34999990388847
10
41.400000000002706
20
13.349999903889003
42
0.41421356237309465
10
39.900000000002933
20
11.849999903889834
10
39.90000000003549
20
9.9878679038892919
42
-0.1989123673817163
10
39.46066020739238
20
8.9272078179994701
10
36.943806054135372
20
6.4103540082822965
42
0.19891236737683729
10
36.50446620740297
20
5.3496938441908046
10
36.504466207403077
20
-5.3496938441894795
42
0.19891236737701687
10
36.943806054122206
20
-6.4103540082890227
10
39.460660207391548
20
-8.9272078180200012
42
-0.19891236738131063
10
39.900000000034765
20
-9.9878679039101321
10
39.9000000000024
20
-11.849999903911243
42
0.41421356237309465
10
41.400000000001569
20
-13.34999990390931
10
48.60000000000241
20
-13.34999990391098
42
0.41421356237309465
10
50.100000000002751
20
-11.849999903911812
10
50.099999999968276
20
-9.9878679039107006
42
-0.19891236738117096
10
50.539339792611031
20
-8.9272078180208787
10
53.056193945871442
20
-6.4103540083037069
42
0.19891236737718587
10
53.495533792602146
20
-5.3496938442099413
0
LWPOLYLINE
5
119
100
AcDbEntity
8
0
100
AcDbPolyline
90
16
70
1
43
0.0
10
31.600129596500818
20
3.2805617315052862
42
0.23088021699970154
10
28.39987040350227
20
3.2805617315067916
10
26.845330526690965
20
4.5053368924190016
42
0.08853518487419626
10
25.481599096701757
20
3.1359294119994274
10
26.719438233005633
20
1.6001295237999313
42
0.23088020532780745
10
26.719438233011488
20
-1.6001295238066859
10
25.481599096700755
20
-3.1359294119999124
42
0.088535184874867931
10
26.845330526704743
20
-4.505336892426044
10
28.39987040349758
20
-3.2805617315271984
42
0.23088021700081093
10
31.60012959650885
20
-3.2805617315232394
10
33.154669473298462
20
-4.5053368924366923
42
0.088535184874973291
10
34.518400903301654
20
-3.1359294120095638
10
33.280561766993777
20
-1.6001295238174618
42
0.23088020532804099
10
33.28056176699647
20
1.6001295237885915
10
34.518400903295074
20
3.1359294119838896
42
0.088535184874138279
10
33.154669473307763
20
4.5053368923982866
0
LWPOLYLINE
5
120
100
AcDbEntity
8
0
100
AcDbPolyline
90
24
70
1
43
0.0
10
23.49553379260346
20
5.3496938442015125
42
0.19891236737254453
10
23.056193945883408
20
6.4103540082810939
10
20.539339792613379
20
8.9272078180119525
42
-0.19891236738074891
10
20.099999999969782
20
9.9878679039005647
10
20.100000000002716
20
11.849999903901107
42
0.4142135623730942
10
18.600000000003547
20
13.349999903900311
10
11.400000000002706
20
13.349999903900844
42
0.41421356237309503
10
9.9000000000029331
20
11.849999903901676
10
9.9000000000354973
20
9.9878679039011331
42
-0.1989123673817163
10
9.4606602073923796
20
8.9272078180113112
10
6.9438060541353757
20
6.4103540082941377
42
0.19891236737683601
10
6.5044662074029702
20
5.3496938442026467
10
6.5044662074030768
20
-5.3496938441776374
42
0.19891236737701376
10
6.9438060541222058
20
-6.4103540082771815
10
9.46066020739155
20
-8.92720781800816
42
-0.19891236738131063
10
9.9000000000347654
20
-9.9878679038982909
10
9.900000000002402
20
-11.849999903899402
42
0.41421356237309503
10
11.400000000001569
20
-13.349999903897469
10
18.60000000000241
20
-13.349999903899139
42
0.4142135623730942
10
20.100000000002751
20
-11.84999990389997
10
20.099999999968276
20
-9.9878679038988576
42
-0.19891236738117096
10
20.539339792611031
20
-8.9272078180090375
10
23.056193945871442
20
-6.4103540082918649
42
0.19891236737718654
10
23.495533792602146
20
-5.3496938441981001
0
LWPOLYLINE
5
121
100
AcDbEntity
8
0
100
AcDbPolyline
90
8
70
1
43
0.0
10
-13.700000398438803
20
-12.700001090038882
42
0.41421356797350189
10
-12.700000398439784
20
-13.700001090039038
10
-10.499999635455879
20
-13.700001090039429
42
0.41421356798432507
10
-9.4999996354971472
20
-12.70000109009743
10
-9.4999996354564686
20
-10.50000032715559
42
0.41421356798382497
10
-10.499999635496806
20
-9.5000003271553624
10
-12.700000398439784
20
-9.5000003271582045
42
0.41421356798415726
10
-13.700000398397947
20
-10.500000327097041
0
LWPOLYLINE
5
122
100
AcDbEntity
8
0
100
AcDbPolyline
90
8
70
1
43
0.0
10
-13.700000398437666
20
10.500000327160706
42
0.41421356797366965
10
-12.700000398438647
20
9.5000003271599809
10
-10.499999635454742
20
9.5000003271612972
42
0.41421356798399211
10
-9.4999996354960103
20
10.500000327102157
10
-9.4999996354553318
20
12.700001090045134
42
0.41421356798332615
10
-10.499999635495101
20
13.700001090043656
10
-12.700000398438078
20
13.700001090043656
42
0.41421356798499104
10
-13.70000039839681
20
12.700001090102546
0
LWPOLYLINE
5
123
100
AcDbEntity
8
0
100
AcDbPolyline
90
16
70
1
43
0.0
10
1.6001295965008164
20
3.2805617315171283
42
0.23088021700004685
10
-1.6001295965020361
20
3.2805617315165314
10
-3.1546694732935459
20
4.5053368924261168
42
0.088535184874908121
10
-4.5184009032982431
20
3.135929412002838
10
-3.2805617669880305
20
1.6001295238092919
42
0.23088020532900824
10
-3.2805617669885123
20
-1.6001295238049806
10
-4.5184009032930748
20
-3.1359294119923851
42
0.088535184874241862
10
-3.154669473302647
20
-4.505336892403875
10
-1.6001295964969549
20
-3.2805617315180227
42
0.23088021700037256
10
1.6001295965088502
20
-3.2805617315113977
10
3.1546694732984593
20
-4.5053368924248502
42
0.088535184874973957
10
4.5184009033016528
20
-3.1359294119977221
10
3.280561766993773
20
-1.6001295238056197
42
0.23088020532804215
10
3.2805617669964704
20
1.6001295238004332
10
4.518400903295074
20
3.1359294119957317
42
0.088535184874139819
10
3.1546694733077629
20
4.5053368924101278
0
ENDSEC
0
SECTION
2
OBJECTS
0
DICTIONARY
5
C
100
AcDbDictionary
3
ACAD_GROUP
350
D
3
ACAD_MLINESTYLE
350
17
0
DICTIONARY
5
D
100
AcDbDictionary
0
DICTIONARY
5
1A
330
C
100
AcDbDictionary
0
DICTIONARY
5
17
100
AcDbDictionary
0
ENDSEC
0
EOF
