0
SECTION
2
HEADER
9
$INSUNITS
70
4
9
$ACADVER
1
AC1014
9
$HANDSEED
5
FFFF
0
ENDSEC
0
SECTION
2
TABLES
0
TABLE
2
VPORT
5
8
100
AcDbSymbolTable
0
ENDTAB
0
TABLE
2
LTYPE
5
5
100
AcDbSymbolTable
0
LTYPE
5
14
100
AcDbSymbolTableRecord
100
AcDbLinetypeTableRecord
2
BYBLOCK
70
0
0
LTYPE
5
15
100
AcDbSymbolTableRecord
100
AcDbLinetypeTableRecord
2
BYLAYER
70
0
0
LTYPE
5
16
100
AcDbSymbolTableRecord
100
AcDbLinetypeTableRecord
2
DASHED
70
0
3
Dashed __ __ __ __ __ __ __ __ __ __ __ __ __ _
72
65
73
2
40
0.75
49
0.5
74
0
49
-0.25
74
0
0
ENDTAB
0
TABLE
2
LAYER
5
2
100
AcDbSymbolTable
70
3
0
LAYER
5
50
100
AcDbSymbolTableRecord
100
AcDbLayerTableRecord
2
1
70
0
62
7
6
DASHED
0
LAYER
5
51
100
AcDbSymbolTableRecord
100
AcDbLayerTableRecord
2
0
70
0
62
7
6
CONTINUOUS
0
ENDTAB
0
TABLE
2
STYLE
5
3
100
AcDbSymbolTable
70
1
0
STYLE
5
11
100
AcDbSymbolTableRecord
100
AcDbTextStyleTableRecord
2
STANDARD
70
0
0
ENDTAB
0
TABLE
2
VIEW
5
6
100
AcDbSymbolTable
70
0
0
ENDTAB
0
TABLE
2
UCS
5
7
100
AcDbSymbolTable
70
0
0
ENDTAB
0
TABLE
2
APPID
5
9
100
AcDbSymbolTable
70
2
0
APPID
5
12
100
AcDbSymbolTableRecord
100
AcDbRegAppTableRecord
2
ACAD
70
0
0
ENDTAB
0
TABLE
2
DIMSTYLE
5
A
100
AcDbSymbolTable
70
1
0
ENDTAB
0
TABLE
2
BLOCK_RECORD
5
1
100
AcDbSymbolTable
70
1
0
BLOCK_RECORD
5
1F
100
AcDbSymbolTableRecord
100
AcDbBlockTableRecord
2
*MODEL_SPACE
0
BLOCK_RECORD
5
1B
100
AcDbSymbolTableRecord
100
AcDbBlockTableRecord
2
*PAPER_SPACE
0
ENDTAB
0
ENDSEC
0
SECTION
2
BLOCKS
0
BLOCK
5
20
100
AcDbEntity
100
AcDbBlockBegin
2
*MODEL_SPACE
0
ENDBLK
5
21
100
AcDbEntity
100
AcDbBlockEnd
0
BLOCK
5
1C
100
AcDbEntity
100
AcDbBlockBegin
2
*PAPER_SPACE
0
ENDBLK
5
1D
100
AcDbEntity
100
AcDbBlockEnd
0
ENDSEC
0
SECTION
2
ENTITIES
0
LWPOLYLINE
5
100
100
AcDbEntity
8
0
100
AcDbPolyline
90
136
70
1
43
0.0
10
12.999999999815941
20
-15.000000000099369
42
0.41421356236685164
10
14.999999999816289
20
-13.000000000142791
10
14.999999999996589
20
-4.6999995643164993
42
0.4142135624929682
10
14.799999999917191
20
-4.4999995643129154
10
14.499999999953843
20
-4.499999564431505
10
14.499999999950433
20
-4.2000003737581437
42
0.41421356237725732
10
14.29999962635577
20
-4.0000000001570335
10
13.299999237046336
20
-4.000000000121986
42
0.4142135623837504
10
12.799999237026594
20
-4.5000000001192575
10
12.799999237015012
20
-7.7500003272393769
42
-0.41421356237276202
10
12.299999237009729
20
-8.2500003272338596
10
10.256944490978981
20
-8.2500003272125237
42
-0.19876902777118463
10
9.9035861570208752
20
-8.1037486668808381
10
6.1466416659928118
20
-4.3509461876291962
42
-0.19905571484832985
10
5.9999999999571507
20
-3.9971978479553627
10
5.9999999999888587
20
-0.95319014537210478
42
0.13070381381632643
10
5.9735769287180949
20
-0.85383698833563459
10
5.5417202809800497
20
-0.099353157098049302
42
-0.26595099802900352
10
5.54172028098243
20
0.099353156977153509
10
5.9735769287362928
20
0.85383698820351128
42
0.13070381381787016
10
6.0000000000085763
20
0.95319014524079648
10
6.000000000044122
20
3.9971978478246228
42
-0.19905571484802606
10
6.146641666086607
20
4.3509461874950421
10
9.9035861571986068
20
8.1037486666638863
42
-0.19876902777094826
10
10.256944491158606
20
8.2500003269872302
10
12.299999237185943
20
8.2500003269668198
42
-0.41421356237675783
10
12.799999237182256
20
7.7500003269574336
10
12.799999237127508
20
4.4999999998395879
42
0.41421356238075357
10
13.299999237133306
20
3.9999999998320312
10
14.299999626442741
20
3.9999999998468638
42
0.41421356237725732
10
14.500000000042839
20
4.2000003734420943
10
14.499999999976012
20
4.4999995641393298
10
14.799999999999613
20
4.4999995639898316
42
0.41421356251877423
10
15.0000000001004
20
4.699999563991355
10
15.000000000099476
20
12.999999999816509
42
0.41421356236668516
10
13.000000000142791
20
14.999999999815721
10
4.6999995643159309
20
14.999999999996589
42
0.4142135624929682
10
4.4999995643125423
20
14.799999999917759
10
4.4999995644297996
20
14.499999999953275
10
4.2000003737581428
20
14.499999999952138
42
0.41421356237725648
10
4.0000000001577263
20
14.29999962635577
10
4.0000000001202798
20
13.299999237046904
42
0.41421356238308443
10
4.5000000001192575
20
12.799999237028548
10
7.7500003272376716
20
12.799999237015012
42
-0.41421356237276202
10
8.2500003272321543
20
12.299999237009729
10
8.2500003272111915
20
10.256944490979549
42
-0.19876902777194827
10
8.1037486668804632
20
9.9035861570206816
10
4.3509461876286268
20
6.1466416659933811
42
-0.19905571484899307
10
3.9971978479542254
20
5.9999999999560139
10
0.95319014536983104
20
5.9999999999894271
42
0.13070381381097729
10
0.85383698833283495
20
5.973576928718165
10
0.099353157098129613
20
5.5417202809804769
42
-0.26595099803004102
10
-0.099353156978187085
20
5.5417202809827524
10
-0.85383698820521658
20
5.9735769287374296
42
0.13070381381130797
10
-0.95319014524193335
20
6.0000000000103881
10
-3.9971978478263281
20
6.0000000000429852
42
-0.19905571484902065
10
-4.3509461874975992
20
6.1466416660880308
10
-8.1037486666667888
20
9.9035861571985464
42
-0.19876902777070349
10
-8.2500003269892552
20
10.256944491159175
10
-8.2500003269666955
20
12.299999237187649
42
-0.41421356237442697
10
-7.7500003269585704
20
12.799999237182131
10
-4.4999999998407247
20
12.79999923712694
42
0.41421356238075357
10
-3.999999999832724
20
13.299999237133875
10
-3.9999999998451585
20
14.299999626442741
42
0.41421356237392748
10
-4.2000003734420943
20
14.500000000042146
10
-4.4999995641398982
20
14.499999999976581
10
-4.4999995639921053
20
14.800000000000182
42
0.41421356251627689
10
-4.6999995639896497
20
15.00000000009976
10
-12.999999999817646
20
15.000000000098908
42
0.41421356236651863
10
-14.999999999817302
20
13.000000000143359
10
-14.999999999998295
20
4.6999995643182046
42
0.41421356249962782
10
-14.799999999919464
20
4.4999995643117252
10
-14.49999999995498
20
4.4999995644292312
10
-14.499999999953275
20
4.2000003737575753
42
0.41421356237642482
10
-14.299999626356339
20
4.0000000001574776
10
-13.29999923704861
20
4.0000000001214175
42
0.4142135623837504
10
-12.79999923702956
20
4.5000000001192575
10
-12.799999237016717
20
7.7500003272393769
42
-0.41421356237309503
10
-12.299999237010866
20
8.2500003272338596
10
-10.256944490980686
20
8.2500003272106248
42
-0.19876902777144256
10
-9.9035861570226729
20
8.1037486668801826
10
-6.1466416659925276
20
4.3509461876289137
42
-0.19905571484799917
10
-5.9999999999577192
20
3.9971978479553627
10
-5.9999999999899956
20
0.95319014537153635
42
0.13070381380990503
10
-5.9735769287202443
20
0.85383698833343225
10
-5.541720280983359
20
0.099353157097456304
42
-0.26595099803051608
10
-5.5417202809842694
20
-0.099353156977402615
10
-5.9735769287385665
20
-0.85383698820578502
42
0.13070381381031709
10
-6.0000000000112053
20
-0.95319014524136492
10
-6.0000000000446896
20
-3.9971978478246228
42
-0.19905571484877502
10
-6.1466416660885965
20
-4.3509461874958939
10
-9.9035861571990083
20
-8.1037486666657585
42
-0.19876902777162467
10
-10.256944491159175
20
-8.250000326988296
10
-12.299999237187649
20
-8.2500003269668198
42
-0.41421356237542589
10
-12.799999237182256
20
-7.750000326958002
10
-12.799999237130351
20
-4.4999999998395879
42
0.41421356237975465
10
-13.29999923713558
20
-3.9999999998337366
10
-14.299999626443309
20
-3.9999999998462954
42
0.41421356237725732
10
-14.500000000043283
20
-4.2000003734426627
10
-14.499999999976581
20
-4.4999995641404666
10
-14.800000000001319
20
-4.4999995639904
42
0.41421356251710933
10
-15.000000000100204
20
-4.6999995639896497
10
-15.000000000100044
20
-12.999999999815941
42
0.41421356236668516
10
-13.000000000144496
20
-14.999999999816289
10
-4.6999995643164993
20
-14.999999999998295
42
0.41421356249130331
10
-4.4999995643133595
20
-14.799999999918896
10
-4.4999995644303681
20
-14.499999999955548
10
-4.2000003737581437
20
-14.499999999952138
42
0.41421356237725732
10
-4.0000000001581704
20
-14.299999626356339
10
-4.0000000001225544
20
-13.299999237048041
42
0.41421356238341744
10
-4.5000000001203944
20
-12.799999237029436
10
-7.7500003272399454
20
-12.799999237016149
42
-0.41421356237309631
10
-8.250000327234428
20
-12.299999237010296
10
-8.2500003272126481
20
-10.256944490979549
42
-0.19876902777073049
10
-8.1037486668825132
20
-9.903586157022044
10
-4.3509461876314397
20
-6.1466416659939789
42
-0.19905571485038401
10
-3.9971978479547943
20
-5.9999999999564579
10
-0.95319014537267321
20
-5.9999999999899956
42
0.13070381381891963
10
-0.85383698833561117
20
-5.9735769287194191
10
-0.099353157098317477
20
-5.5417202809821378
42
-0.26595099803231226
10
0.099353156976382404
20
-5.541720280983923
10
0.85383698820237441
20
-5.9735769287385665
42
0.13070381381877444
10
0.95319014523909118
20
-6.0000000000109033
10
3.997197847823486
20
-6.0000000000435527
42
-0.19905571484901971
10
4.3509461874947561
20
-6.1466416660885983
10
8.1037486666653074
20
-9.903586157198891
42
-0.19876902777091202
10
8.2500003269877986
20
-10.256944491159175
10
8.2500003269644218
20
-12.299999237187649
42
-0.41421356237442697
10
7.7500003269568651
20
-12.7999992371827
10
4.4999999998401563
20
-12.799999237128077
42
0.41421356238241852
10
3.9999999998304503
20
-13.299999237135012
10
3.9999999998457274
20
-14.299999626443309
42
0.41421356237808976
10
4.2000003734426627
20
-14.500000000044988
10
4.4999995641376245
20
-14.499999999977717
10
4.4999995639904009
20
-14.80000000000075
42
0.41421356251461194
10
4.6999995639879444
20
-15.000000000099636
0
LWPOLYLINE
5
101
100
AcDbEntity
8
0
100
AcDbPolyline
90
16
70
1
43
0.0
10
-1.6001295238432522
20
-3.2805617669729474
42
0.23088020532888365
10
1.6001295237712718
20
-3.2805617670080562
10
3.1359294119447907
20
-4.5184009033277235
42
0.088535184874175318
10
4.5053368923726111
20
-3.1546694733543745
10
3.280561731498957
20
-1.6001295965360427
42
0.23088021700048392
10
3.2805617315301561
20
1.6001295964713336
10
4.505336892460198
20
3.1546694732472016
42
0.088535184874979453
10
3.1359294120488812
20
4.5184009032664108
10
1.6001295238429747
20
3.2805617669735767
42
0.23088020532816711
10
-1.6001295237629165
20
3.2805617670123866
10
-3.1359294119459316
20
4.5184009033274775
42
0.088535184874164161
10
-4.5053368923748849
20
3.154669473354943
10
-3.2805617315000184
20
1.6001295965348827
42
0.23088021700035807
10
-3.2805617315318614
20
-1.600129596471902
10
-4.5053368924590407
20
-3.1546694732473002
42
0.088535184874917336
10
-3.135929412050019
20
-4.5184009032669792
0
LWPOLYLINE
5
102
100
AcDbEntity
8
0
100
AcDbPolyline
90
8
70
1
43
0.0
10
12.70000109014461
20
9.4999996353196003
42
0.41421356798432507
10
13.700001090155833
20
10.499999635350719
10
13.7000010901804
20
12.700000398293696
42
0.41421356795518921
10
12.700001090248634
20
13.700000398303587
10
10.500000327247108
20
13.700000398285272
42
0.41421356799597941
10
9.5000003272969025
20
12.700000398297107
10
9.5000003272724598
20
10.499999635353561
42
0.41421356795502273
10
10.500000327201633
20
9.49999963534367
0
LWPOLYLINE
5
103
100
AcDbEntity
8
0
100
AcDbPolyline
90
8
70
1
43
0.0
10
-10.500000327054977
20
9.4999996355725536
42
0.41421356798399211
10
-9.5000003270448907
20
10.499999635603672
10
-9.5000003270201994
20
12.700000398546649
42
0.41421356798432507
10
-10.500000326951522
20
13.700000398514476
10
-12.700001089893931
20
13.700000398579917
42
0.41421356797117231
10
-13.700001089904958
20
12.700000398592124
10
-13.700001089929277
20
10.499999635605946
42
0.41421356798515752
10
-12.700001089996817
20
9.4999996356381189
0
LWPOLYLINE
5
104
100
AcDbEntity
8
0
100
AcDbPolyline
90
8
70
1
43
0.0
10
-12.700001090146316
20
-9.4999996353209859
42
0.41421356798332615
10
-13.700001090157858
20
-10.49999963535015
10
-13.70000109018223
20
-12.700000398293128
42
0.41421356798515752
10
-12.700001090249771
20
-13.700000398260954
10
-10.50000032730793
20
-13.70000039832652
42
0.41421356797133879
10
-9.5000003272974709
20
-12.700000398338602
10
-9.500000327273403
20
-10.499999635354129
42
0.41421356798399211
10
-10.500000327203907
20
-9.4999996353845972
0
LWPOLYLINE
5
105
100
AcDbEntity
8
0
100
AcDbPolyline
90
8
70
1
43
0.0
10
10.500000327053272
20
-9.4999996355725536
42
0.4142135679836591
10
9.5000003270431854
20
-10.499999635602535
10
9.5000003270206435
20
-12.700000398545512
42
0.41421356798415859
10
10.50000032694868
20
-13.700000398515613
10
12.700001089891657
20
-13.700000398579917
42
0.4142135679716718
10
13.700001089902116
20
-12.700000398591555
10
13.700001089926186
20
-10.499999635607082
42
0.41421356798382558
10
12.700001089996249
20
-9.4999996356375487
0
LWPOLYLINE
5
106
100
AcDbEntity
8
0
100
AcDbPolyline
90
136
70
1
43
0.0
10
12.999999999815941
20
-15.000000000099369
42
0.41421356236685164
10
14.999999999816289
20
-13.000000000142791
10
14.999999999996589
20
-4.6999995643164993
42
0.41421356249297309
10
14.799999999917191
20
-4.4999995643129163
10
14.499999999953843
20
-4.499999564431505
10
14.499999999950433
20
-4.2000003737581437
42
0.41421356237725732
10
14.29999962635577
20
-4.0000000001570335
10
13.299999237046336
20
-4.000000000121986
42
0.41421356238375007
10
12.799999237026594
20
-4.5000000001192575
10
12.799999237015012
20
-7.7500003272393769
42
-0.41421356237276202
10
12.299999237009729
20
-8.2500003272338596
10
10.256944490978981
20
-8.2500003272125237
42
-0.19876902777118463
10
9.9035861570208752
20
-8.1037486668808381
10
6.1466416659928118
20
-4.3509461876291962
42
-0.19905571484832985
10
5.9999999999571507
20
-3.9971978479553627
10
5.9999999999888587
20
-0.95319014537210478
42
0.13070381381633422
10
5.9735769287180949
20
-0.85383698833563448
10
5.5417202809800479
20
-0.099353157098049261
42
-0.2659509980290034
10
5.54172028098243
20
0.099353156977153384
10
5.9735769287362928
20
0.85383698820351128
42
0.13070381381785973
10
6.0000000000085763
20
0.95319014524079637
10
6.000000000044122
20
3.9971978478246228
42
-0.19905571484802606
10
6.146641666086607
20
4.3509461874950421
10
9.9035861571986068
20
8.1037486666638863
42
-0.19876902777094826
10
10.256944491158606
20
8.2500003269872302
10
12.299999237185943
20
8.2500003269668198
42
-0.41421356237675783
10
12.799999237182256
20
7.7500003269574336
10
12.799999237127508
20
4.4999999998395879
42
0.41421356238075357
10
13.299999237133306
20
3.9999999998320312
10
14.299999626442741
20
3.9999999998468638
42
0.41421356237725165
10
14.500000000042839
20
4.2000003734420943
10
14.499999999976012
20
4.4999995641393298
10
14.799999999999613
20
4.4999995639898316
42
0.41421356251877423
10
15.0000000001004
20
4.699999563991355
10
15.000000000099476
20
12.999999999816509
42
0.41421356236668611
10
13.000000000142791
20
14.999999999815723
10
4.6999995643159309
20
14.999999999996589
42
0.41421356249296581
10
4.4999995643125441
20
14.799999999917759
10
4.4999995644297996
20
14.499999999953275
10
4.2000003737581428
20
14.499999999952138
42
0.41421356237725404
10
4.0000000001577281
20
14.29999962635577
10
4.0000000001202798
20
13.299999237046904
42
0.41421356238308416
10
4.5000000001192575
20
12.799999237028548
10
7.7500003272376716
20
12.799999237015012
42
-0.41421356237276202
10
8.2500003272321543
20
12.299999237009729
10
8.2500003272111915
20
10.256944490979549
42
-0.19876902777194827
10
8.1037486668804632
20
9.9035861570206816
10
4.3509461876286268
20
6.1466416659933811
42
-0.19905571484899307
10
3.9971978479542254
20
5.9999999999560139
10
0.95319014536983104
20
5.9999999999894271
42
0.13070381381098184
10
0.85383698833283495
20
5.973576928718165
10
0.09935315709812953
20
5.5417202809804769
42
-0.2659509980300408
10
-0.099353156978186974
20
5.5417202809827524
10
-0.85383698820521658
20
5.9735769287374296
42
0.1307038138113118
10
-0.95319014524193335
20
6.0000000000103881
10
-3.9971978478263281
20
6.0000000000429843
42
-0.19905571484902088
10
-4.3509461874976001
20
6.1466416660880308
10
-8.1037486666667888
20
9.9035861571985464
42
-0.19876902777070349
10
-8.2500003269892552
20
10.256944491159175
10
-8.2500003269666955
20
12.299999237187649
42
-0.41421356237442697
10
-7.7500003269585704
20
12.799999237182131
10
-4.4999999998407247
20
12.79999923712694
42
0.41421356238075036
10
-3.9999999998327231
20
13.299999237133873
10
-3.9999999998451585
20
14.299999626442741
42
0.41421356237392909
10
-4.2000003734420943
20
14.500000000042146
10
-4.4999995641398982
20
14.499999999976581
10
-4.4999995639921053
20
14.800000000000182
42
0.41421356251628261
10
-4.6999995639896497
20
15.00000000009976
10
-12.999999999817646
20
15.000000000098908
42
0.41421356236651896
10
-14.999999999817303
20
13.000000000143359
10
-14.999999999998295
20
4.6999995643182046
42
0.41421356249963354
10
-14.799999999919464
20
4.4999995643117261
10
-14.49999999995498
20
4.4999995644292312
10
-14.499999999953275
20
4.2000003737575753
42
0.41421356237642404
10
-14.299999626356339
20
4.0000000001574785
10
-13.29999923704861
20
4.0000000001214175
42
0.4142135623837524
10
-12.79999923702956
20
4.5000000001192575
10
-12.799999237016717
20
7.7500003272393769
42
-0.41421356237309503
10
-12.299999237010866
20
8.2500003272338596
10
-10.256944490980686
20
8.2500003272106248
42
-0.19876902777144256
10
-9.9035861570226729
20
8.1037486668801826
10
-6.1466416659925276
20
4.3509461876289137
42
-0.19905571484799917
10
-5.9999999999577192
20
3.9971978479553627
10
-5.9999999999899956
20
0.95319014537153635
42
0.13070381380991442
10
-5.9735769287202443
20
0.85383698833343191
10
-5.541720280983359
20
0.099353157097456263
42
-0.26595099803051608
10
-5.5417202809842694
20
-0.099353156977402657
10
-5.9735769287385665
20
-0.85383698820578502
42
0.13070381381031657
10
-6.0000000000112053
20
-0.95319014524136492
10
-6.0000000000446896
20
-3.9971978478246228
42
-0.19905571484877502
10
-6.1466416660885965
20
-4.3509461874958939
10
-9.9035861571990083
20
-8.1037486666657585
42
-0.19876902777162467
10
-10.256944491159175
20
-8.250000326988296
10
-12.299999237187649
20
-8.2500003269668198
42
-0.41421356237542589
10
-12.799999237182256
20
-7.750000326958002
10
-12.799999237130351
20
-4.4999999998395879
42
0.41421356237975238
10
-13.29999923713558
20
-3.9999999998337361
10
-14.299999626443309
20
-3.9999999998462954
42
0.41421356237725893
10
-14.500000000043283
20
-4.2000003734426627
10
-14.499999999976581
20
-4.4999995641404666
10
-14.800000000001319
20
-4.4999995639904
42
0.41421356251711583
10
-15.000000000100204
20
-4.6999995639896497
10
-15.000000000100044
20
-12.999999999815941
42
0.41421356236668577
10
-13.000000000144496
20
-14.999999999816289
10
-4.6999995643164993
20
-14.999999999998295
42
0.41421356249129843
10
-4.4999995643133586
20
-14.799999999918896
10
-4.4999995644303681
20
-14.499999999955548
10
-4.2000003737581437
20
-14.499999999952138
42
0.41421356237725732
10
-4.0000000001581704
20
-14.299999626356339
10
-4.0000000001225544
20
-13.299999237048041
42
0.41421356238341778
10
-4.5000000001203944
20
-12.799999237029436
10
-7.7500003272399454
20
-12.799999237016149
42
-0.41421356237309631
10
-8.250000327234428
20
-12.299999237010296
10
-8.2500003272126481
20
-10.256944490979549
42
-0.19876902777073049
10
-8.1037486668825132
20
-9.903586157022044
10
-4.3509461876314397
20
-6.1466416659939789
42
-0.19905571485038401
10
-3.9971978479547943
20
-5.9999999999564579
10
-0.95319014537267321
20
-5.9999999999899956
42
0.13070381381892257
10
-0.85383698833561117
20
-5.9735769287194191
10
-0.099353157098317518
20
-5.5417202809821369
42
-0.26595099803231248
10
0.099353156976382598
20
-5.541720280983923
10
0.85383698820237441
20
-5.9735769287385665
42
0.13070381381878426
10
0.95319014523909118
20
-6.0000000000109033
10
3.997197847823486
20
-6.0000000000435527
42
-0.19905571484901971
10
4.3509461874947561
20
-6.1466416660885983
10
8.1037486666653074
20
-9.903586157198891
42
-0.19876902777091202
10
8.2500003269877986
20
-10.256944491159175
10
8.2500003269644218
20
-12.299999237187649
42
-0.41421356237442697
10
7.7500003269568651
20
-12.7999992371827
10
4.4999999998401563
20
-12.799999237128077
42
0.41421356238241852
10
3.9999999998304503
20
-13.299999237135012
10
3.9999999998457274
20
-14.299999626443309
42
0.4142135623780881
10
4.2000003734426627
20
-14.500000000044988
10
4.4999995641376245
20
-14.499999999977717
10
4.4999995639904009
20
-14.80000000000075
42
0.41421356251461283
10
4.6999995639879444
20
-15.000000000099636
0
LWPOLYLINE
5
107
100
AcDbEntity
8
0
100
AcDbPolyline
90
16
70
1
43
0.0
10
-1.6001295238432522
20
-3.2805617669729479
42
0.23088020532888356
10
1.6001295237712718
20
-3.2805617670080558
10
3.1359294119447916
20
-4.5184009033277253
42
0.088535184874174333
10
4.5053368923726111
20
-3.1546694733543745
10
3.2805617314989584
20
-1.6001295965360398
42
0.23088021700048375
10
3.2805617315301561
20
1.6001295964713336
10
4.5053368924601971
20
3.1546694732472034
42
0.088535184874978787
10
3.1359294120488812
20
4.5184009032664108
10
1.6001295238429745
20
3.2805617669735772
42
0.230880205328167
10
-1.6001295237629165
20
3.2805617670123866
10
-3.135929411945932
20
4.5184009033274783
42
0.088535184874163661
10
-4.5053368923748849
20
3.154669473354943
10
-3.280561731500018
20
1.6001295965348827
42
0.23088021700035821
10
-3.2805617315318614
20
-1.600129596471902
10
-4.505336892459038
20
-3.1546694732473028
42
0.088535184874916767
10
-3.135929412050019
20
-4.5184009032669792
0
LWPOLYLINE
5
108
100
AcDbEntity
8
0
100
AcDbPolyline
90
8
70
1
43
0.0
10
12.70000109014461
20
9.4999996353196003
42
0.41421356798432635
10
13.700001090155833
20
10.499999635350719
10
13.7000010901804
20
12.700000398293696
42
0.41421356795519054
10
12.700001090248634
20
13.700000398303587
10
10.500000327247108
20
13.700000398285272
42
0.41421356799597941
10
9.5000003272969025
20
12.700000398297107
10
9.5000003272724598
20
10.499999635353563
42
0.41421356795502468
10
10.500000327201633
20
9.49999963534367
0
LWPOLYLINE
5
109
100
AcDbEntity
8
0
100
AcDbPolyline
90
8
70
1
43
0.0
10
-10.500000327054977
20
9.4999996355725536
42
0.41421356798399211
10
-9.5000003270448907
20
10.499999635603672
10
-9.5000003270201994
20
12.700000398546649
42
0.41421356798432635
10
-10.500000326951522
20
13.700000398514476
10
-12.700001089893931
20
13.700000398579917
42
0.41421356797117165
10
-13.700001089904958
20
12.700000398592124
10
-13.700001089929277
20
10.499999635605946
42
0.41421356798515557
10
-12.700001089996817
20
9.4999996356381189
0
LWPOLYLINE
5
110
100
AcDbEntity
8
0
100
AcDbPolyline
90
8
70
1
43
0.0
10
-12.700001090146316
20
-9.4999996353209859
42
0.41421356798332615
10
-13.700001090157858
20
-10.49999963535015
10
-13.70000109018223
20
-12.700000398293128
42
0.41421356798515557
10
-12.700001090249771
20
-13.700000398260954
10
-10.500000327307932
20
-13.70000039832652
42
0.41421356797133879
10
-9.5000003272974709
20
-12.700000398338602
10
-9.500000327273403
20
-10.499999635354129
42
0.41421356798399211
10
-10.500000327203907
20
-9.4999996353845972
0
LWPOLYLINE
5
111
100
AcDbEntity
8
0
100
AcDbPolyline
90
8
70
1
43
0.0
10
10.500000327053273
20
-9.4999996355725536
42
0.41421356798366105
10
9.5000003270431854
20
-10.499999635602535
10
9.5000003270206435
20
-12.700000398545512
42
0.41421356798415926
10
10.50000032694868
20
-13.700000398515613
10
12.700001089891657
20
-13.700000398579917
42
0.4142135679716718
10
13.700001089902116
20
-12.700000398591555
10
13.700001089926186
20
-10.499999635607082
42
0.4142135679838243
10
12.700001089996249
20
-9.4999996356375487
0
ENDSEC
0
SECTION
2
OBJECTS
0
DICTIONARY
5
C
100
AcDbDictionary
3
ACAD_GROUP
350
D
3
ACAD_MLINESTYLE
350
17
0
DICTIONARY
5
D
100
AcDbDictionary
0
DICTIONARY
5
1A
330
C
100
AcDbDictionary
0
DICTIONARY
5
17
100
AcDbDictionary
0
ENDSEC
0
EOF
