0
SECTION
2
HEADER
9
$INSUNITS
70
4
9
$ACADVER
1
AC1014
9
$HANDSEED
5
FFFF
0
ENDSEC
0
SECTION
2
TABLES
0
TABLE
2
VPORT
5
8
100
AcDbSymbolTable
0
ENDTAB
0
TABLE
2
LTYPE
5
5
100
AcDbSymbolTable
0
LTYPE
5
14
100
AcDbSymbolTableRecord
100
AcDbLinetypeTableRecord
2
BYBLOCK
70
0
0
LTYPE
5
15
100
AcDbSymbolTableRecord
100
AcDbLinetypeTableRecord
2
BYLAYER
70
0
0
LTYPE
5
16
100
AcDbSymbolTableRecord
100
AcDbLinetypeTableRecord
2
DASHED
70
0
3
Dashed __ __ __ __ __ __ __ __ __ __ __ __ __ _
72
65
73
2
40
0.75
49
0.5
74
0
49
-0.25
74
0
0
ENDTAB
0
TABLE
2
LAYER
5
2
100
AcDbSymbolTable
70
3
0
LAYER
5
50
100
AcDbSymbolTableRecord
100
AcDbLayerTableRecord
2
1
70
0
62
7
6
DASHED
0
LAYER
5
51
100
AcDbSymbolTableRecord
100
AcDbLayerTableRecord
2
0
70
0
62
7
6
CONTINUOUS
0
ENDTAB
0
TABLE
2
STYLE
5
3
100
AcDbSymbolTable
70
1
0
STYLE
5
11
100
AcDbSymbolTableRecord
100
AcDbTextStyleTableRecord
2
STANDARD
70
0
0
ENDTAB
0
TABLE
2
VIEW
5
6
100
AcDbSymbolTable
70
0
0
ENDTAB
0
TABLE
2
UCS
5
7
100
AcDbSymbolTable
70
0
0
ENDTAB
0
TABLE
2
APPID
5
9
100
AcDbSymbolTable
70
2
0
APPID
5
12
100
AcDbSymbolTableRecord
100
AcDbRegAppTableRecord
2
ACAD
70
0
0
ENDTAB
0
TABLE
2
DIMSTYLE
5
A
100
AcDbSymbolTable
70
1
0
ENDTAB
0
TABLE
2
BLOCK_RECORD
5
1
100
AcDbSymbolTable
70
1
0
BLOCK_RECORD
5
1F
100
AcDbSymbolTableRecord
100
AcDbBlockTableRecord
2
*MODEL_SPACE
0
BLOCK_RECORD
5
1B
100
AcDbSymbolTableRecord
100
AcDbBlockTableRecord
2
*PAPER_SPACE
0
ENDTAB
0
ENDSEC
0
SECTION
2
BLOCKS
0
BLOCK
5
20
100
AcDbEntity
100
AcDbBlockBegin
2
*MODEL_SPACE
0
ENDBLK
5
21
100
AcDbEntity
100
AcDbBlockEnd
0
BLOCK
5
1C
100
AcDbEntity
100
AcDbBlockBegin
2
*PAPER_SPACE
0
ENDBLK
5
1D
100
AcDbEntity
100
AcDbBlockEnd
0
ENDSEC
0
SECTION
2
ENTITIES
0
LWPOLYLINE
5
100
100
AcDbEntity
8
0
100
AcDbPolyline
90
99
70
1
43
0.0
10
20.000000000001425
20
-14.799999999996679
10
20.000000000001343
20
-5.599999999996669
42
0.4142135623730942
10
18.500000000001087
20
-4.0999999999968146
10
16.350000000000399
20
-4.0999999999971832
42
0.4142135623730957
10
15.350000000000604
20
-5.0999999999971184
10
15.349999999999689
20
-9.0161150499976692
42
-0.61505394864203333
10
13.623297460668356
20
-9.8888075104884017
42
-0.074238418750406987
10
8.3904761896246978
20
-4.6803051077751867
42
-0.16125692548150347
10
7.5999999989666822
20
-2.2930562878078562
10
7.600000000909942
20
2.2930562921936839
42
-0.16125692527333774
10
8.3904761912703787
20
4.6803051077261388
42
-0.074238418750422169
10
13.623297462244208
20
9.8888075110407776
42
-0.61505394859804796
10
15.350000001077419
20
9.0161150506876577
10
15.350000001576893
20
5.1000000004208266
42
0.41421356233569318
10
16.350000001576991
20
4.1000000005486221
10
18.500000001577892
20
4.1000000005487696
42
0.41421356237288104
10
20.000000001576712
20
5.6000000005489738
10
20.000000001576712
20
16.000000000549637
42
0.41421356237315388
10
16.000000001576321
20
20.000000000550049
10
5.6000000015751228
20
20.000000000547754
42
0.41421356237309465
10
4.1000000015752089
20
18.500000000547544
10
4.1000000015767082
20
16.350000000547439
42
0.41421356237280044
10
5.1000000015768068
20
15.350000000548539
10
9.0161150515772128
20
15.350000000548416
42
-0.61505394864202589
10
9.8888075125837052
20
13.62329746083711
42
-0.074238418772659465
10
4.6803051081050899
20
8.3904761885927464
42
-0.16125692546822859
10
2.293056288304073
20
7.5999999980577488
10
-2.2930562916961312
20
7.6000000000008825
42
-0.16125692527340391
10
-4.6803051075285103
20
8.3904761899595908
42
-0.074238418745993295
10
-9.8888075104924926
20
13.623297460668699
42
-0.61505394859814733
10
-9.0161150501388772
20
15.349999999501897
10
-5.0999999998738819
20
15.350000000001319
42
0.41421356233572049
10
-4.1000000000016943
20
16.350000000001319
10
-4.1000000000017831
20
18.500000000001407
42
0.41421356237309548
10
-5.6000000000019279
20
20.000000000001272
10
-14.688730162780828
20
19.999999999999098
42
0.66817863791932219
10
-16.244365081390768
20
16.244365081388437
10
-10.336322769083033
20
10.336322769082209
42
-0.67980314725385749
10
-10.853675261391354
20
9.1417058018938722
42
0.10172430743725645
10
-13.234903098332861
20
8.7310455030912166
42
1.0000000105367122
10
-12.505096901669042
20
6.8689544969071825
42
-0.18335809435387063
10
-9.6669585481515661
20
6.8997247048859309
42
-0.19826148744352604
10
-5.5377819164564404
20
3.1044081895448024
42
-0.20592197014535221
10
-5.5306973554906129
20
2.8674597316899755
42
0.52924392757275018
10
-4.6006579232147429
20
1.500000000000792
10
-3.2326459750413457
20
1.5000000000007516
42
0.27211614568421533
10
-2.9705395446379623
20
1.6540540540573434
42
-0.58775381364431978
10
2.9705395446368934
20
1.6540540540592616
42
0.27211614568462644
10
3.2326459750399588
20
1.5000000000022724
10
3.4999999999911595
20
1.5000000000018785
42
-0.32046505340818043
10
3.7837837837818982
20
1.2972972973019856
42
-0.16666666666707558
10
3.7837837837760651
20
-1.2972972972960461
42
-0.32046505340836506
10
3.4999999999923448
20
-1.4999999999986235
10
3.2326459750402488
20
-1.4999999999982236
42
0.27211614568474063
10
2.970539544638533
20
-1.6540540540560689
42
-0.58775381364482027
10
-2.9705395446385712
20
-1.6540540540559991
42
0.27211614568487058
10
-3.2326459750410534
20
-1.4999999999983715
10
-4.6006579232144516
20
-1.4999999999986779
42
0.52924392757254834
10
-5.530697355489087
20
-2.8674597316869912
42
-0.20592197014672986
10
-5.5377819164559572
20
-3.1044081895432201
42
-0.19826148744352651
10
-9.6669585481495304
20
-6.8997247048853723
42
-0.18335809435393466
10
-12.505096901667914
20
-6.8689544969076408
42
0.99999998946328783
10
-13.234903098331189
20
-8.7310455030916359
42
0.10172430743729712
10
-10.853675261388725
20
-9.1417058018930106
42
-0.67980314725333846
10
-10.336322769080976
20
-10.33632276908113
10
-11.456854249493968
20
-11.456854249494729
42
-0.19891236737952989
10
-17.113708498983335
20
-13.8000000000001
10
-36.317157287523521
20
-13.800000000002095
42
0.19891236738027282
10
-36.458578643761207
20
-13.858578643765076
10
-36.558578643761521
20
-13.958578643764849
42
-0.41421356237300078
10
-36.841421356236147
20
-13.958578643764328
10
-36.941421356235985
20
-13.85857864376475
42
0.19891236737936691
10
-37.082842712473074
20
-13.800000000002159
10
-50.302077938642576
20
-13.800000000002896
42
-0.19891236737965004
10
-55.958932188134654
20
-11.456854249495137
10
-56.696657000286457
20
-10.719129437344254
42
0.52056705055177066
10
-57.34202282757559
20
-10.832924845122545
10
-57.64879405658931
20
-11.490797868757742
42
-0.5205670505522535
10
-58.778184254346115
20
-11.689939832369799
10
-60.687791729777018
20
-9.7803323569411731
42
-0.52056705055160934
10
-60.488649766165359
20
-8.6509421591850337
10
-59.830776742529508
20
-8.344170930170435
42
0.52056705055243735
10
-59.716981334750933
20
-7.6988051028808897
10
-60.322893218814329
20
-7.0928932188182623
42
0.29812064120260018
10
-61.394903098332236
20
-6.8689544969139318
42
-0.18335809435394648
10
-64.233041451850255
20
-6.8997247048901764
42
-0.2171258715580231
10
-68.569158878503316
20
-2.6147956520519293
42
-0.09118176276899341
10
-68.700000000000443
20
-1.9032866310875987
10
-68.69999999999996
20
1.90328663107734
42
-0.091181762769152255
10
-68.569158878496552
20
2.6147956520404261
42
-0.21712587155792346
10
-64.233041451852102
20
6.8997247048799721
42
-0.1833580943539925
10
-61.394903098332875
20
6.868954496902524
42
1.0167646601213016
10
-60.696250000001754
20
8.7426616240681962
42
0.51777819908868716
10
-72.700000000000827
20
0.25870700737930546
10
-72.699999999998923
20
-4.2841806491278334e-11
42
0.19891236737875675
10
-69.478174593051151
20
-7.7781745930568045
10
-59.627922061357303
20
-17.62842712475053
42
0.19891236737964893
10
-56.799494936611197
20
-18.800000000004065
10
16.000000000001819
20
-18.799999999997059
42
0.41421356237309392
0
LWPOLYLINE
5
101
100
AcDbEntity
8
0
100
AcDbPolyline
90
8
70
1
43
0.0
10
9.888807510493514
20
-13.623297460665125
42
0.074238418746005286
10
4.6803051075314688
20
-8.3904761899533398
42
0.16125692527349872
10
2.2930562916938317
20
-7.5999999993512892
10
-2.293056289999071
20
-7.5999999999987455
42
0.16125692538210332
10
-4.6803051075292608
20
-8.3904761899541001
42
0.074238418745998402
10
-9.8888075104902278
20
-13.623297460666128
42
0.61505394864201268
10
-9.0161150499984313
20
-15.349999999499763
10
9.0161150500018845
20
-15.349999999498468
42
0.615053948642034
0
LWPOLYLINE
5
102
100
AcDbEntity
8
0
100
AcDbPolyline
90
99
70
1
43
0.0
10
20.000000000001425
20
-14.799999999996679
10
20.000000000001343
20
-5.599999999996669
42
0.41421356237309354
10
18.500000000001087
20
-4.0999999999968129
10
16.350000000000399
20
-4.0999999999971832
42
0.41421356237309664
10
15.350000000000602
20
-5.0999999999971184
10
15.349999999999689
20
-9.0161150499976692
42
-0.61505394864203333
10
13.623297460668349
20
-9.8888075104883981
42
-0.074238418750406987
10
8.3904761896246924
20
-4.6803051077751814
42
-0.161256925481503
10
7.5999999989666822
20
-2.2930562878078553
10
7.600000000909942
20
2.2930562921936839
42
-0.16125692527333774
10
8.3904761912703876
20
4.6803051077261362
42
-0.074238418750422169
10
13.623297462244214
20
9.8888075110407812
42
-0.61505394859804641
10
15.350000001077419
20
9.0161150506876577
10
15.350000001576893
20
5.1000000004208266
42
0.4142135623356909
10
16.350000001576987
20
4.1000000005486221
10
18.500000001577892
20
4.1000000005487696
42
0.41421356237288021
10
20.000000001576712
20
5.6000000005489738
10
20.000000001576712
20
16.000000000549637
42
0.41421356237315504
10
16.000000001576321
20
20.000000000550049
10
5.6000000015751228
20
20.000000000547754
42
0.41421356237309548
10
4.1000000015752107
20
18.500000000547544
10
4.1000000015767082
20
16.350000000547439
42
0.4142135623728001
10
5.1000000015768068
20
15.350000000548539
10
9.0161150515772128
20
15.350000000548416
42
-0.61505394864202589
10
9.8888075125837034
20
13.623297460837104
42
-0.074238418772659465
10
4.6803051081050846
20
8.390476188592741
42
-0.16125692546822823
10
2.2930562883040722
20
7.5999999980577488
10
-2.2930562916961312
20
7.6000000000008825
42
-0.16125692527340391
10
-4.6803051075284943
20
8.3904761899595819
42
-0.074238418745993517
10
-9.8888075104924962
20
13.623297460668704
42
-0.61505394859814588
10
-9.0161150501388772
20
15.349999999501897
10
-5.0999999998738819
20
15.350000000001319
42
0.41421356233572049
10
-4.1000000000016943
20
16.350000000001319
10
-4.1000000000017831
20
18.500000000001407
42
0.4142135623730937
10
-5.6000000000019279
20
20.000000000001272
10
-14.688730162780828
20
19.999999999999098
42
0.66817863791932219
10
-16.244365081390768
20
16.244365081388437
10
-10.336322769083033
20
10.336322769082209
42
-0.67980314725385749
10
-10.853675261391354
20
9.1417058018938704
42
0.10172430743725666
10
-13.234903098332865
20
8.7310455030912149
42
0.99999999999999989
10
-12.505096901669353
20
6.8689544969073646
42
-0.18335809435388761
10
-9.6669585481515714
20
6.8997247048859309
42
-0.19826148744352615
10
-5.5377819164564412
20
3.104408189544801
42
-0.20592197014535177
10
-5.5306973554906129
20
2.8674597316899755
42
0.52924392757275096
10
-4.6006579232147429
20
1.5000000000007918
10
-3.2326459750413457
20
1.5000000000007516
42
0.27211614568421644
10
-2.970539544637961
20
1.6540540540573434
42
-0.58775381364437751
10
2.9705395446368938
20
1.654054054059261
42
0.27211614568462511
10
3.2326459750399588
20
1.5000000000022724
10
3.4999999999911595
20
1.5000000000018785
42
-0.32046505340818043
10
3.7837837837821109
20
1.2972972973020591
42
-0.16666666666707569
10
3.7837837837760646
20
-1.2972972972960473
42
-0.32046505340836418
10
3.4999999999923448
20
-1.4999999999986235
10
3.2326459750402488
20
-1.4999999999982236
42
0.27211614568474041
10
2.9705395446385325
20
-1.65405405405607
42
-0.58775381364482027
10
-2.9705395446385721
20
-1.6540540540559987
42
0.27211614568487175
10
-3.2326459750410534
20
-1.4999999999983713
10
-4.6006579232144516
20
-1.4999999999986779
42
0.52924392757254812
10
-5.530697355489087
20
-2.8674597316869912
42
-0.20592197014672953
10
-5.5377819164558764
20
-3.10440818954326
42
-0.19826148744352293
10
-9.6669585481495339
20
-6.899724704885374
42
-0.18335809435393455
10
-12.505096901667914
20
-6.8689544969076408
42
0.99999998946328783
10
-13.234903112203522
20
-8.7310454976546801
42
0.10172430806454125
10
-10.853675261388725
20
-9.1417058018930106
42
-0.67980314725333846
10
-10.336322769080976
20
-10.33632276908113
10
-11.456854249493967
20
-11.456854249494725
42
-0.19891236737953011
10
-17.113708498983339
20
-13.8000000000001
10
-36.317157287523521
20
-13.800000000002095
42
0.19891236738030238
10
-36.458578643761207
20
-13.858578643765078
10
-36.558578643761521
20
-13.958578643764849
42
-0.41421356237300078
10
-36.841421356236147
20
-13.958578643764328
10
-36.941421356235985
20
-13.85857864376475
42
0.19891236737936516
10
-37.082842712473074
20
-13.800000000002159
10
-50.302077938642576
20
-13.800000000002896
42
-0.19891236737965004
10
-55.958932188134654
20
-11.456854249495137
10
-56.696657000286457
20
-10.719129437344254
42
0.52056705055177188
10
-57.34202282757559
20
-10.832924845122543
10
-57.64879405658931
20
-11.490797868757742
42
-0.5205670505522535
10
-58.778184254346115
20
-11.689939832369799
10
-60.687791729777018
20
-9.7803323569411731
42
-0.52056705055160957
10
-60.488649766165359
20
-8.6509421591850337
10
-59.830776742529508
20
-8.344170930170435
42
0.52056705055244845
10
-59.716981334750933
20
-7.6988051028808915
10
-60.322893218814329
20
-7.0928932188182623
42
0.29812064120260412
10
-61.394903098332236
20
-6.8689544969139327
42
-0.18335809435394637
10
-64.233041451850255
20
-6.8997247048901773
42
-0.2171258715580231
10
-68.569158878503316
20
-2.6147956520519284
42
-0.091181762768993299
10
-68.700000000000443
20
-1.9032866310875984
10
-68.69999999999996
20
1.90328663107734
42
-0.091181762769152255
10
-68.569158878496836
20
2.6147956520405389
42
-0.21712587155792845
10
-64.233041451852102
20
6.8997247048799748
42
-0.18335809435399239
10
-61.394903098332875
20
6.868954496902524
42
1.0167646601212983
10
-60.69625000000174
20
8.7426616240681998
42
0.51777819908868716
10
-72.700000000000827
20
0.25870700737930408
10
-72.699999999998923
20
-4.2841806491278334e-11
42
0.19891236737875592
10
-69.478174593051151
20
-7.7781745930568054
10
-59.627922061357303
20
-17.62842712475053
42
0.19891236737964893
10
-56.799494936611197
20
-18.800000000004061
10
16.000000000001819
20
-18.799999999997059
42
0.41421356237309359
0
LWPOLYLINE
5
103
100
AcDbEntity
8
0
100
AcDbPolyline
90
8
70
1
43
0.0
10
9.8888075104935211
20
-13.623297460665128
42
0.074238418746005383
10
4.6803051075314546
20
-8.3904761899533291
42
0.16125692527349877
10
2.2930562916938322
20
-7.5999999993512892
10
-2.2930562899990741
20
-7.5999999999987455
42
0.16125692538210332
10
-4.680305107529259
20
-8.3904761899540947
42
0.074238418745998694
10
-9.8888075104902278
20
-13.623297460666128
42
0.61505394864201546
10
-9.0161150499984313
20
-15.349999999499763
10
9.0161150500018845
20
-15.349999999498468
42
0.61505394864203289
0
ENDSEC
0
SECTION
2
OBJECTS
0
DICTIONARY
5
C
100
AcDbDictionary
3
ACAD_GROUP
350
D
3
ACAD_MLINESTYLE
350
17
0
DICTIONARY
5
D
100
AcDbDictionary
0
DICTIONARY
5
1A
330
C
100
AcDbDictionary
0
DICTIONARY
5
17
100
AcDbDictionary
0
ENDSEC
0
EOF
