0
SECTION
2
HEADER
9
$INSUNITS
70
4
9
$ACADVER
1
AC1014
9
$HANDSEED
5
FFFF
0
ENDSEC
0
SECTION
2
TABLES
0
TABLE
2
VPORT
5
8
100
AcDbSymbolTable
0
ENDTAB
0
TABLE
2
LTYPE
5
5
100
AcDbSymbolTable
0
LTYPE
5
14
100
AcDbSymbolTableRecord
100
AcDbLinetypeTableRecord
2
BYBLOCK
70
0
0
LTYPE
5
15
100
AcDbSymbolTableRecord
100
AcDbLinetypeTableRecord
2
BYLAYER
70
0
0
LTYPE
5
16
100
AcDbSymbolTableRecord
100
AcDbLinetypeTableRecord
2
DASHED
70
0
3
Dashed __ __ __ __ __ __ __ __ __ __ __ __ __ _
72
65
73
2
40
0.75
49
0.5
74
0
49
-0.25
74
0
0
ENDTAB
0
TABLE
2
LAYER
5
2
100
AcDbSymbolTable
70
3
0
LAYER
5
50
100
AcDbSymbolTableRecord
100
AcDbLayerTableRecord
2
1
70
0
62
7
6
DASHED
0
LAYER
5
51
100
AcDbSymbolTableRecord
100
AcDbLayerTableRecord
2
0
70
0
62
7
6
CONTINUOUS
0
ENDTAB
0
TABLE
2
STYLE
5
3
100
AcDbSymbolTable
70
1
0
STYLE
5
11
100
AcDbSymbolTableRecord
100
AcDbTextStyleTableRecord
2
STANDARD
70
0
0
ENDTAB
0
TABLE
2
VIEW
5
6
100
AcDbSymbolTable
70
0
0
ENDTAB
0
TABLE
2
UCS
5
7
100
AcDbSymbolTable
70
0
0
ENDTAB
0
TABLE
2
APPID
5
9
100
AcDbSymbolTable
70
2
0
APPID
5
12
100
AcDbSymbolTableRecord
100
AcDbRegAppTableRecord
2
ACAD
70
0
0
ENDTAB
0
TABLE
2
DIMSTYLE
5
A
100
AcDbSymbolTable
70
1
0
ENDTAB
0
TABLE
2
BLOCK_RECORD
5
1
100
AcDbSymbolTable
70
1
0
BLOCK_RECORD
5
1F
100
AcDbSymbolTableRecord
100
AcDbBlockTableRecord
2
*MODEL_SPACE
0
BLOCK_RECORD
5
1B
100
AcDbSymbolTableRecord
100
AcDbBlockTableRecord
2
*PAPER_SPACE
0
ENDTAB
0
ENDSEC
0
SECTION
2
BLOCKS
0
BLOCK
5
20
100
AcDbEntity
100
AcDbBlockBegin
2
*MODEL_SPACE
0
ENDBLK
5
21
100
AcDbEntity
100
AcDbBlockEnd
0
BLOCK
5
1C
100
AcDbEntity
100
AcDbBlockBegin
2
*PAPER_SPACE
0
ENDBLK
5
1D
100
AcDbEntity
100
AcDbBlockEnd
0
ENDSEC
0
SECTION
2
ENTITIES
0
LWPOLYLINE
5
100
100
AcDbEntity
8
0
100
AcDbPolyline
90
66
70
1
43
0.0
10
-56.800000000000495
20
-14.435567010385558
10
-56.800000000000495
20
-12.599999999999859
42
0.41421356237309503
10
-57.100000000001003
20
-12.299999999999894
10
-60.69999999999979
20
-12.299999999999663
42
0.41421356237309503
10
-61.499999999999702
20
-13.100000000000055
10
-61.500000000000995
20
-16.299999999999855
42
0.41421356250206637
10
-59.000000001030905
20
-18.800000002122655
10
15.9999999989701
20
-18.800000002122836
42
0.41421356237305862
10
19.999999998969603
20
-14.800000002122836
10
19.999999998969603
20
-5.6000000021225249
42
0.41421356237309503
10
18.499999998969653
20
-4.1000000021225746
10
16.34999999896975
20
-4.1000000021229077
42
0.41421356237309503
10
15.34999999896986
20
-5.1000000021227976
10
15.349999998969166
20
-9.016115052123256
42
-0.61505394864199558
10
13.623297459340815
20
-9.8888075130167881
42
-0.074238418750418145
10
8.3904761886812445
20
-4.6803051100163549
42
-0.16125692549075962
10
7.5999999979363313
20
-2.2930562899335651
10
7.5999999998789294
20
2.2930562900665126
42
-0.16125692527346761
10
8.3904761902398057
20
4.6803051056008629
42
-0.074238418750413343
10
13.623297461213715
20
9.8888075089142333
42
-0.61505394859808205
10
15.350000000046876
20
9.0161150485607511
10
15.35000000054627
20
5.099999998295357
42
0.41421356233573092
10
16.350000000546274
20
4.0999999984229261
10
18.500000000545278
20
4.0999999984229252
42
0.41421356237327023
10
20.000000000546233
20
5.5999999984229865
10
20.00000000054623
20
15.999999998422755
42
0.41421356237312429
10
16.00000000054623
20
19.999999998423156
10
5.6000000005457284
20
19.999999998422751
42
0.41421356237309503
10
4.100000000545668
20
18.499999998422695
10
4.1000000005465642
20
16.349999998422295
42
0.41421356237309503
10
5.1000000005465651
20
15.349999998422295
10
9.01611505054586
20
15.349999998422293
42
-0.61505394864204455
10
9.8888075114395733
20
13.623297458793729
42
-0.074238418750406085
10
4.6803051081022478
20
8.3904761885890675
42
-0.16125692546794015
10
2.2930562883048968
20
7.5999999980567656
10
-2.2930562916957014
20
7.5999999999998558
42
-0.16125692527343091
10
-4.6803051075305131
20
8.390476189955919
42
-0.074238418746002566
10
-9.888807510491878
20
13.623297460668054
42
-0.61505394859812867
10
-9.0161150501382039
20
15.349999999501232
10
-5.0999999998736145
20
15.349999999999952
42
0.41421356233578033
10
-4.100000000001125
20
16.350000000000154
10
-4.1000000000005032
20
18.500000000000551
42
0.41421356237301699
10
-5.6000000000005068
20
20.000000000000103
10
-14.362532495692623
20
20.000000000000156
42
0.66817863791928667
10
-16.13029944865908
20
15.732233047033858
10
-9.449033200811817
20
9.0509667991877922
42
-0.1989123673796318
10
-5.7000000000000934
20
1.3134778314303059e-12
42
-0.41421356237312773
10
-16.500000000000192
20
-10.799999999999999
10
-27.900000000000261
20
-10.799999999999855
42
0.41421356237309503
10
-28.700000000000173
20
-11.59999999999985
10
-28.699999999999722
20
-12.320204102905459
42
0.28186105365479569
10
-28.53636363635847
20
-12.587421165738643
42
-0.78808394558013994
10
-28.900000000001032
20
-14.099999999999632
10
-42.917157287527097
20
-14.100000000000055
42
0.19891236737893625
10
-43.058578643763852
20
-14.15857864376232
10
-43.158578643763789
20
-14.258578643762249
42
-0.41421356237404239
10
-43.441421356238948
20
-14.2585786437621
10
-43.54142135623821
20
-14.158578643762652
42
0.19891236738065363
10
-43.682842712476301
20
-14.099999999999678
10
-53.109530151709698
20
-14.100000000000058
42
0.49314542603160205
10
-53.399307899596209
20
-14.477645713530855
10
-53.127259338969004
20
-15.492944763917741
42
-0.49314542603135519
10
-53.900000000000112
20
-16.499999999999741
10
-56.300000000001219
20
-16.499999999999879
42
-0.49314542603142675
10
-57.072740661032412
20
-15.492944763917528
10
-56.810222252114109
20
-14.513212723917462
42
0.065543462816128661
0
LWPOLYLINE
5
101
100
AcDbEntity
8
0
100
AcDbPolyline
90
8
70
1
43
0.0
10
-4.680305107539537
20
-8.3904761899435876
42
0.074238418746588902
10
-9.8888075107960187
20
-13.623297460443336
42
0.61505394864215623
10
-9.0161150499996943
20
-15.349999999500547
10
9.0161150499992022
20
-15.349999999500461
42
0.61505394875953046
10
9.8888075102953046
20
-13.62329746035244
42
0.074238418742343978
10
4.6803051072289357
20
-8.3904761903608627
42
0.16125692527338054
10
2.2930562916960002
20
-7.5999999993522094
10
-2.2930562916957
20
-7.5999999999998415
42
0.16125692527341812
0
CIRCLE
5
102
100
AcDbEntity
8
0
100
AcDbCircle
10
0
20
0
30
0
40
3.3999999999998609
210
0
220
0
230
1
0
LWPOLYLINE
5
103
100
AcDbEntity
8
0
100
AcDbPolyline
90
66
70
1
43
0.0
10
-56.800000000000495
20
-14.435567010385558
10
-56.800000000000495
20
-12.599999999999859
42
0.41421356237308421
10
-57.100000000001003
20
-12.299999999999887
10
-60.69999999999979
20
-12.299999999999663
42
0.41421356237310075
10
-61.499999999999702
20
-13.100000000000055
10
-61.500000000000995
20
-16.299999999999855
42
0.41421356250206481
10
-59.000000001030905
20
-18.800000002122658
10
15.9999999989701
20
-18.800000002122836
42
0.41421356237305945
10
19.999999998969599
20
-14.800000002122836
10
19.999999998969603
20
-5.6000000021225249
42
0.41421356237309398
10
18.499999998969653
20
-4.1000000021225738
10
16.34999999896975
20
-4.1000000021229077
42
0.41421356237309598
10
15.34999999896986
20
-5.1000000021227976
10
15.349999998969166
20
-9.016115052123256
42
-0.61505394864199558
10
13.623297459340819
20
-9.8888075130167898
42
-0.074238418750418256
10
8.3904761886812409
20
-4.6803051100163495
42
-0.16125692549075926
10
7.5999999979363313
20
-2.2930562899335643
10
7.5999999998789285
20
2.2930562900665126
42
-0.16125692527346761
10
8.3904761902397915
20
4.6803051056008496
42
-0.074238418750413565
10
13.623297461213717
20
9.8888075089142369
42
-0.61505394859808049
10
15.350000000046876
20
9.0161150485607511
10
15.35000000054627
20
5.099999998295357
42
0.41421356233573026
10
16.350000000546274
20
4.099999998422927
10
18.500000000545278
20
4.0999999984229252
42
0.41421356237326912
10
20.000000000546233
20
5.5999999984229865
10
20.00000000054623
20
15.999999998422755
42
0.41421356237312479
10
16.00000000054623
20
19.999999998423156
10
5.6000000005457284
20
19.999999998422751
42
0.41421356237309465
10
4.1000000005456698
20
18.499999998422695
10
4.1000000005465642
20
16.349999998422295
42
0.4142135623730937
10
5.1000000005465651
20
15.349999998422295
10
9.01611505054586
20
15.349999998422293
42
-0.61505394864204455
10
9.8888075114395786
20
13.623297458793733
42
-0.074238418750406196
10
4.6803051081022424
20
8.390476188589064
42
-0.16125692546793982
10
2.2930562883048959
20
7.5999999980567656
10
-2.2930562916957027
20
7.5999999999998558
42
-0.16125692527343091
10
-4.6803051075305211
20
8.3904761899559333
42
-0.074238418746002455
10
-9.8888075104918816
20
13.623297460668057
42
-0.61505394859812723
10
-9.0161150501382039
20
15.349999999501232
10
-5.0999999998736145
20
15.349999999999952
42
0.41421356233578033
10
-4.100000000001125
20
16.350000000000154
10
-4.1000000000005032
20
18.500000000000551
42
0.41421356237301743
10
-5.6000000000005068
20
20.000000000000099
10
-14.362532495692623
20
20.000000000000156
42
0.66817863791928667
10
-16.13029944865908
20
15.732233047033858
10
-9.4490332008118152
20
9.0509667991877905
42
-0.1989123673796318
10
-5.7000000000000934
20
1.3112573853810556e-12
42
-0.41421356237312773
10
-16.500000000000192
20
-10.799999999999999
10
-27.900000000000261
20
-10.799999999999855
42
0.41421356237309426
10
-28.700000000000173
20
-11.59999999999985
10
-28.699999999999722
20
-12.320204102905459
42
0.28186105365478731
10
-28.53636363635847
20
-12.587421165738643
42
-0.78808394558013939
10
-28.900000000001032
20
-14.099999999999632
10
-42.917157287527097
20
-14.100000000000055
42
0.19891236737893958
10
-43.058578643763852
20
-14.158578643762318
10
-43.158578643763789
20
-14.258578643762249
42
-0.41421356237404239
10
-43.441421356238948
20
-14.2585786437621
10
-43.54142135623821
20
-14.158578643762652
42
0.19891236738064005
10
-43.682842712476301
20
-14.099999999999673
10
-53.109530151709698
20
-14.100000000000058
42
0.49314542603159062
10
-53.399307899596202
20
-14.477645713530853
10
-53.127259338969004
20
-15.492944763917741
42
-0.49314542603135519
10
-53.900000000000112
20
-16.499999999999741
10
-56.300000000001219
20
-16.499999999999879
42
-0.49314542603142675
10
-57.072740661032412
20
-15.492944763917528
10
-56.810222252114109
20
-14.513212723917462
42
0.06554346281601893
0
LWPOLYLINE
5
104
100
AcDbEntity
8
0
100
AcDbPolyline
90
8
70
1
43
0.0
10
-4.6803051075395397
20
-8.3904761899435787
42
0.07423841874658986
10
-9.8888075107960223
20
-13.623297460443343
42
0.6150539486421519
10
-9.0161150499996943
20
-15.349999999500547
10
9.0161150499992022
20
-15.349999999500461
42
0.61505394875952923
10
9.8888075102953046
20
-13.623297460352443
42
0.07423841874234359
10
4.6803051072289321
20
-8.3904761903608609
42
0.16125692527338062
10
2.2930562916960007
20
-7.5999999993522094
10
-2.2930562916957027
20
-7.5999999999998415
42
0.1612569252734169
0
CIRCLE
5
105
100
AcDbEntity
8
0
100
AcDbCircle
10
0
20
0
30
0
40
3.3999999999998605
210
0
220
-0
230
1
0
ENDSEC
0
SECTION
2
OBJECTS
0
DICTIONARY
5
C
100
AcDbDictionary
3
ACAD_GROUP
350
D
3
ACAD_MLINESTYLE
350
17
0
DICTIONARY
5
D
100
AcDbDictionary
0
DICTIONARY
5
1A
330
C
100
AcDbDictionary
0
DICTIONARY
5
17
100
AcDbDictionary
0
ENDSEC
0
EOF
