0
SECTION
2
HEADER
9
$INSUNITS
70
4
9
$ACADVER
1
AC1014
9
$HANDSEED
5
FFFF
0
ENDSEC
0
SECTION
2
TABLES
0
TABLE
2
VPORT
5
8
100
AcDbSymbolTable
0
ENDTAB
0
TABLE
2
LTYPE
5
5
100
AcDbSymbolTable
0
LTYPE
5
14
100
AcDbSymbolTableRecord
100
AcDbLinetypeTableRecord
2
BYBLOCK
70
0
0
LTYPE
5
15
100
AcDbSymbolTableRecord
100
AcDbLinetypeTableRecord
2
BYLAYER
70
0
0
LTYPE
5
16
100
AcDbSymbolTableRecord
100
AcDbLinetypeTableRecord
2
DASHED
70
0
3
Dashed __ __ __ __ __ __ __ __ __ __ __ __ __ _
72
65
73
2
40
0.75
49
0.5
74
0
49
-0.25
74
0
0
ENDTAB
0
TABLE
2
LAYER
5
2
100
AcDbSymbolTable
70
3
0
LAYER
5
50
100
AcDbSymbolTableRecord
100
AcDbLayerTableRecord
2
1
70
0
62
7
6
DASHED
0
LAYER
5
51
100
AcDbSymbolTableRecord
100
AcDbLayerTableRecord
2
0
70
0
62
7
6
CONTINUOUS
0
ENDTAB
0
TABLE
2
STYLE
5
3
100
AcDbSymbolTable
70
1
0
STYLE
5
11
100
AcDbSymbolTableRecord
100
AcDbTextStyleTableRecord
2
STANDARD
70
0
0
ENDTAB
0
TABLE
2
VIEW
5
6
100
AcDbSymbolTable
70
0
0
ENDTAB
0
TABLE
2
UCS
5
7
100
AcDbSymbolTable
70
0
0
ENDTAB
0
TABLE
2
APPID
5
9
100
AcDbSymbolTable
70
2
0
APPID
5
12
100
AcDbSymbolTableRecord
100
AcDbRegAppTableRecord
2
ACAD
70
0
0
ENDTAB
0
TABLE
2
DIMSTYLE
5
A
100
AcDbSymbolTable
70
1
0
ENDTAB
0
TABLE
2
BLOCK_RECORD
5
1
100
AcDbSymbolTable
70
1
0
BLOCK_RECORD
5
1F
100
AcDbSymbolTableRecord
100
AcDbBlockTableRecord
2
*MODEL_SPACE
0
BLOCK_RECORD
5
1B
100
AcDbSymbolTableRecord
100
AcDbBlockTableRecord
2
*PAPER_SPACE
0
ENDTAB
0
ENDSEC
0
SECTION
2
BLOCKS
0
BLOCK
5
20
100
AcDbEntity
100
AcDbBlockBegin
2
*MODEL_SPACE
0
ENDBLK
5
21
100
AcDbEntity
100
AcDbBlockEnd
0
BLOCK
5
1C
100
AcDbEntity
100
AcDbBlockBegin
2
*PAPER_SPACE
0
ENDBLK
5
1D
100
AcDbEntity
100
AcDbBlockEnd
0
ENDSEC
0
SECTION
2
ENTITIES
0
LWPOLYLINE
5
100
100
AcDbEntity
8
0
100
AcDbPolyline
90
40
70
1
43
0.0
10
-16.966162529473753
20
-15.505602560450701
42
0.41421352557710506
10
-14.844842319154058
20
-15.505602426814104
10
-13.324563191558809
20
-13.985323297602008
42
0.41421356237874551
10
-13.324563191804774
20
-12.571109735218165
10
-16.093674699698546
20
-9.8019982276018496
42
-0.61505394812978331
10
-15.489798381685635
20
-7.9639483958363035
42
-0.074238418721426405
10
-8.1066676099999828
20
-7.9467523571924144
42
-0.16125693725736803
10
-5.8596765767655326
20
-9.0758412392228234
10
-2.6168053999257368
20
-12.318712412165439
42
-0.16125692610782727
10
-1.4877166477020083
20
-14.565703316868222
42
-0.074238418721879307
10
-1.5049126827900858
20
-21.948834088349074
42
-0.61505402611773963
10
-3.3429626863933115
20
-22.552710235642234
10
-6.1120740229223269
20
-19.783598900113653
42
0.41421356237215073
10
-7.5262875852948721
20
-19.783598900361493
10
-9.0465671482551162
20
-21.303878467346244
42
0.41421358023865279
10
-9.0465670831989549
20
-23.425198875592823
10
-1.7671398700193697
20
-30.704625194871006
42
0.42972156170484505
10
4.0346586102264936
20
-30.551840203870682
42
0.17167904273643478
10
24.456347876823592
20
18.750479616146571
42
0.4297215773271057
10
20.461891882801414
20
22.961005931989963
10
10.167227945571998
20
22.961005931989963
42
0.41421356237664686
10
8.6672279455573022
20
21.461005931993459
10
8.667227945557304
20
19.311005931992003
42
0.41421356236643608
10
9.667227945543889
20
18.311005931991772
10
13.583342752687347
20
18.311005931991776
42
-0.61505402636871964
10
14.456035455549374
20
16.584303391997153
42
-0.074238418721829416
10
9.2475330544921484
20
11.351482123043692
42
-0.16125692551086573
10
6.8602842344961212
20
10.56100593110164
10
2.2741718379273683
20
10.561005933038867
42
-0.16125693650118508
10
-0.11307716550085223
20
11.351482123041272
42
-0.074238418721893823
10
-5.3215795665561423
20
16.584303391992275
42
-0.61505394890602971
10
-4.448887106556187
20
18.311005931495423
10
-0.53277205654581161
20
18.311005931995645
42
0.41421356236643542
10
0.46722794344432661
20
19.311005931999425
10
0.46722794344432605
20
21.46100593200088
42
0.41421356237309503
10
-1.0327720565521781
20
22.961005931997384
10
-11.614967363572081
20
22.961005931997384
42
0.38779458234487391
10
-15.598404144879794
20
19.324642296482306
42
-0.15198648893760347
10
-24.694323357738131
20
-2.6348487569575152
42
0.38779462301371426
10
-24.448905266567429
20
-8.02286170709956
0
LWPOLYLINE
5
101
100
AcDbEntity
8
0
100
AcDbPolyline
90
8
70
1
43
0.0
10
4.0471374949613992
20
-24.347982343427791
42
0.14052262616975689
10
20.078381781645518
20
14.35486505086269
42
0.78210233419664432
10
18.259561101496921
20
15.032867153040453
42
-0.13164820618993717
10
6.8646082725165378
20
5.261166645833832
42
0.44126366924576516
10
6.438469175258815
20
3.84657180866422
42
-0.50246228198325749
10
1.8327482053596755
20
-7.2726222241856568
42
0.44126366924148414
10
1.1338044499252069
20
-8.5742176713712261
42
-0.13164820630009044
10
2.2816171744996256
20
-23.541301790961448
42
0.78210233439911714
0
LWPOLYLINE
5
102
100
AcDbEntity
8
0
100
AcDbPolyline
90
8
70
1
43
0.0
10
-8.1088877610155468
20
-3.9095330956773822
42
0.093688413829193282
10
-18.861966548232985
20
-4.5691870872163518
42
-0.70274110784412491
10
-19.914757007319317
20
-3.0095661401365259
42
0.11989832219245564
10
-11.953775106630387
20
16.209944350233268
42
-0.70274110783936439
10
-10.106521286148059
20
16.568327625527427
42
0.093688413861105088
10
-2.9693921623850899
20
8.498306885451024
42
-0.56156198223230835
10
-3.1609227022431856
20
6.8013651307478362
42
0.38961664134062657
10
-7.0444012827809752
20
-2.5741815299142887
42
-0.56156198223184428
0
CIRCLE
5
103
100
AcDbEntity
8
0
100
AcDbCircle
10
0
20
0
30
0
40
3.3500000000046279
210
0
220
0
230
-1
0
LWPOLYLINE
5
104
100
AcDbEntity
8
0
100
AcDbPolyline
90
40
70
1
43
0.0
10
-16.966162529473753
20
-15.505602560450701
42
0.41421352557710506
10
-14.844842319154058
20
-15.505602426814104
10
-13.324563191558809
20
-13.985323297602008
42
0.41421356237874457
10
-13.324563191804774
20
-12.571109735218165
10
-16.093674699698546
20
-9.8019982276018496
42
-0.61505394812978331
10
-15.48979838168564
20
-7.9639483958363044
42
-0.07423841872142653
10
-8.106667609999981
20
-7.9467523571924144
42
-0.16125693725736778
10
-5.8596765767655326
20
-9.0758412392228234
10
-2.6168053999257368
20
-12.318712412165439
42
-0.16125692610782727
10
-1.4877166477020096
20
-14.565703316868214
42
-0.074238418721879418
10
-1.5049126827900867
20
-21.948834088349081
42
-0.61505402611773807
10
-3.3429626863933111
20
-22.552710235642234
10
-6.1120740229223269
20
-19.783598900113653
42
0.41421356237215323
10
-7.526287585294873
20
-19.783598900361493
10
-9.0465671482551162
20
-21.303878467346244
42
0.41421358023865368
10
-9.0465670831989513
20
-23.42519887559282
10
-1.7671398700193699
20
-30.704625194871006
42
0.42972156170484554
10
4.0346586102264848
20
-30.551840203870668
42
0.17167904273643464
10
24.456347876823589
20
18.750479616146556
42
0.42972157732710636
10
20.461891882801414
20
22.961005931989963
10
10.167227945571998
20
22.961005931989963
42
0.41421356237664686
10
8.667227945557304
20
21.461005931993459
10
8.667227945557304
20
19.311005931992003
42
0.41421356236643803
10
9.667227945543889
20
18.311005931991772
10
13.583342752687347
20
18.311005931991776
42
-0.61505402636871964
10
14.456035455549374
20
16.58430339199715
42
-0.074238418721829416
10
9.2475330544921448
20
11.351482123043692
42
-0.16125692551086551
10
6.8602842344961212
20
10.56100593110164
10
2.2741718379273674
20
10.561005933038867
42
-0.16125693650118508
10
-0.11307716550086
20
11.351482123041274
42
-0.074238418721893823
10
-5.3215795665561458
20
16.584303391992282
42
-0.61505394890602827
10
-4.448887106556187
20
18.311005931495423
10
-0.53277205654581161
20
18.311005931995645
42
0.41421356236643458
10
0.46722794344432744
20
19.311005931999425
10
0.46722794344432605
20
21.46100593200088
42
0.41421356237309531
10
-1.0327720565521783
20
22.961005931997384
10
-11.614967363572081
20
22.961005931997384
42
0.38779458234487374
10
-15.598404145341274
20
19.324642296524431
42
-0.15198648893218583
10
-24.694323357738138
20
-2.6348487569575196
42
0.38779462301371281
10
-24.448905266567429
20
-8.02286170709956
0
LWPOLYLINE
5
105
100
AcDbEntity
8
0
100
AcDbPolyline
90
8
70
1
43
0.0
10
4.0471374949613814
20
-24.347982343427784
42
0.1405226261719745
10
20.078381781645504
20
14.35486505086271
42
0.78210233419663877
10
18.259561101904552
20
15.032867152761501
42
-0.13164820620824746
10
6.8646082725165396
20
5.261166645833832
42
0.44126366924576593
10
6.438469175258815
20
3.84657180866422
42
-0.50246228198325749
10
1.8327482053596753
20
-7.2726222241856568
42
0.4412636692414898
10
1.1338044489914334
20
-8.5742176716998237
42
-0.1316482063005428
10
2.2816171744996256
20
-23.541301790961448
42
0.78210233439912191
0
LWPOLYLINE
5
106
100
AcDbEntity
8
0
100
AcDbPolyline
90
8
70
1
43
0.0
10
-8.1088877610155414
20
-3.9095330956773866
42
0.093688413824665515
10
-18.861966548232985
20
-4.5691870872163509
42
-0.70274110784412636
10
-19.914757007319317
20
-3.0095661401365259
42
0.11989832219572415
10
-11.953775106630388
20
16.20994435023324
42
-0.7027411078393756
10
-10.106521286148045
20
16.568327625527427
42
0.093688413858725797
10
-2.9693921623851049
20
8.4983068854510364
42
-0.56156198223231446
10
-3.1609227022431852
20
6.8013651307478353
42
0.3896166412305907
10
-7.0444012827809743
20
-2.5741815299142887
42
-0.56156198223184262
0
CIRCLE
5
107
100
AcDbEntity
8
0
100
AcDbCircle
10
0
20
0
30
0
40
3.3500000000046279
210
0
220
-0
230
1
0
ENDSEC
0
SECTION
2
OBJECTS
0
DICTIONARY
5
C
100
AcDbDictionary
3
ACAD_GROUP
350
D
3
ACAD_MLINESTYLE
350
17
0
DICTIONARY
5
D
100
AcDbDictionary
0
DICTIONARY
5
1A
330
C
100
AcDbDictionary
0
DICTIONARY
5
17
100
AcDbDictionary
0
ENDSEC
0
EOF
