0
SECTION
2
HEADER
9
$INSUNITS
70
4
9
$ACADVER
1
AC1014
9
$HANDSEED
5
FFFF
0
ENDSEC
0
SECTION
2
TABLES
0
TABLE
2
VPORT
5
8
100
AcDbSymbolTable
0
ENDTAB
0
TABLE
2
LTYPE
5
5
100
AcDbSymbolTable
0
LTYPE
5
14
100
AcDbSymbolTableRecord
100
AcDbLinetypeTableRecord
2
BYBLOCK
70
0
0
LTYPE
5
15
100
AcDbSymbolTableRecord
100
AcDbLinetypeTableRecord
2
BYLAYER
70
0
0
LTYPE
5
16
100
AcDbSymbolTableRecord
100
AcDbLinetypeTableRecord
2
DASHED
70
0
3
Dashed __ __ __ __ __ __ __ __ __ __ __ __ __ _
72
65
73
2
40
0.75
49
0.5
74
0
49
-0.25
74
0
0
ENDTAB
0
TABLE
2
LAYER
5
2
100
AcDbSymbolTable
70
3
0
LAYER
5
50
100
AcDbSymbolTableRecord
100
AcDbLayerTableRecord
2
1
70
0
62
7
6
DASHED
0
LAYER
5
51
100
AcDbSymbolTableRecord
100
AcDbLayerTableRecord
2
0
70
0
62
7
6
CONTINUOUS
0
ENDTAB
0
TABLE
2
STYLE
5
3
100
AcDbSymbolTable
70
1
0
STYLE
5
11
100
AcDbSymbolTableRecord
100
AcDbTextStyleTableRecord
2
STANDARD
70
0
0
ENDTAB
0
TABLE
2
VIEW
5
6
100
AcDbSymbolTable
70
0
0
ENDTAB
0
TABLE
2
UCS
5
7
100
AcDbSymbolTable
70
0
0
ENDTAB
0
TABLE
2
APPID
5
9
100
AcDbSymbolTable
70
2
0
APPID
5
12
100
AcDbSymbolTableRecord
100
AcDbRegAppTableRecord
2
ACAD
70
0
0
ENDTAB
0
TABLE
2
DIMSTYLE
5
A
100
AcDbSymbolTable
70
1
0
ENDTAB
0
TABLE
2
BLOCK_RECORD
5
1
100
AcDbSymbolTable
70
1
0
BLOCK_RECORD
5
1F
100
AcDbSymbolTableRecord
100
AcDbBlockTableRecord
2
*MODEL_SPACE
0
BLOCK_RECORD
5
1B
100
AcDbSymbolTableRecord
100
AcDbBlockTableRecord
2
*PAPER_SPACE
0
ENDTAB
0
ENDSEC
0
SECTION
2
BLOCKS
0
BLOCK
5
20
100
AcDbEntity
100
AcDbBlockBegin
2
*MODEL_SPACE
0
ENDBLK
5
21
100
AcDbEntity
100
AcDbBlockEnd
0
BLOCK
5
1C
100
AcDbEntity
100
AcDbBlockBegin
2
*PAPER_SPACE
0
ENDBLK
5
1D
100
AcDbEntity
100
AcDbBlockEnd
0
ENDSEC
0
SECTION
2
ENTITIES
0
LWPOLYLINE
5
100
100
AcDbEntity
8
0
100
AcDbPolyline
90
24
70
1
43
0.0
10
6.9999999999996323
20
-2.7000000000002435
10
6.999999999999698
20
-1.7319479184152442e-13
42
2.1445069205095684
10
-1.2155372436685741
20
-6.8936542710851132
10
2.1370607509868145
20
-7.4848077530121842
42
0.043660942908528774
10
2.3107089286538116
20
-7.4999999999999876
10
15.300000000001436
20
-7.500000000000048
42
-0.41421356237309437
10
16.300000000001738
20
-8.5000000000004015
10
16.300000000001699
20
-10.250000000000403
42
0.41421356237309503
10
16.600000000001891
20
-10.550000000000599
10
19.799999999999759
20
-10.550000000000248
42
0.13165249758680833
10
19.899999999999348
20
-10.52320508075737
10
20.10000000000009
20
-10.407735026918994
42
-0.26794919243033882
10
20.299999999999642
20
-10.407735026919173
10
20.500000000000632
20
-10.523205080757286
42
0.13165249758724479
10
20.600000000000559
20
-10.550000000000349
10
23.799999999999311
20
-10.550000000000587
42
0.41421356237309725
10
24.099999999999341
20
-10.250000000000593
10
24.10000000000079
20
-8.4999999999988134
42
-0.4142135623725744
10
25.100000000000819
20
-7.5000000000006182
10
35.19999999999952
20
-7.5000000000008686
42
0.41421356237309437
10
36.199999999999541
20
-6.5000000000008917
10
36.199999999999889
20
-4.7000000000009727
42
0.41421356237309587
10
35.199999999999612
20
-3.7000000000006175
10
7.9999999999998872
20
-3.7000000000005477
42
-0.4142135623730952
0
CIRCLE
5
101
100
AcDbEntity
8
0
100
AcDbCircle
10
0
20
0
30
0
40
4
210
0
220
0
230
-1
0
LWPOLYLINE
5
102
100
AcDbEntity
8
0
100
AcDbPolyline
90
24
70
1
43
0.0
10
6.9999999999996323
20
-2.7000000000002435
10
6.999999999999698
20
-1.7319479184152442e-13
42
2.1445069205095684
10
-1.2155372436685743
20
-6.8936542710851123
10
2.1370607509868145
20
-7.4848077530121842
42
0.043660942908535012
10
2.3107089286538116
20
-7.4999999999999876
10
15.300000000001436
20
-7.500000000000048
42
-0.41421356237309437
10
16.300000000001738
20
-8.5000000000004015
10
16.300000000001699
20
-10.250000000000403
42
0.41421356237309076
10
16.600000000001891
20
-10.550000000000599
10
19.799999999999759
20
-10.550000000000248
42
0.13165249758682815
10
19.899999999999348
20
-10.52320508075737
10
20.10000000000009
20
-10.407735026918994
42
-0.26794919243033882
10
20.299999999999642
20
-10.407735026919173
10
20.500000000000632
20
-10.523205080757286
42
0.13165249758721712
10
20.600000000000559
20
-10.550000000000345
10
23.799999999999311
20
-10.550000000000587
42
0.41421356237310153
10
24.099999999999341
20
-10.250000000000592
10
24.10000000000079
20
-8.4999999999988134
42
-0.4142135623725744
10
25.100000000000819
20
-7.5000000000006182
10
35.19999999999952
20
-7.5000000000008686
42
0.41421356237309503
10
36.199999999999541
20
-6.5000000000008908
10
36.199999999999889
20
-4.7000000000009727
42
0.41421356237309698
10
35.199999999999612
20
-3.7000000000006183
10
7.9999999999998872
20
-3.7000000000005477
42
-0.4142135623730952
0
CIRCLE
5
103
100
AcDbEntity
8
0
100
AcDbCircle
10
0
20
0
30
0
40
4
210
0
220
-0
230
1
0
ENDSEC
0
SECTION
2
OBJECTS
0
DICTIONARY
5
C
100
AcDbDictionary
3
ACAD_GROUP
350
D
3
ACAD_MLINESTYLE
350
17
0
DICTIONARY
5
D
100
AcDbDictionary
0
DICTIONARY
5
1A
330
C
100
AcDbDictionary
0
DICTIONARY
5
17
100
AcDbDictionary
0
ENDSEC
0
EOF
