0
SECTION
2
HEADER
9
$INSUNITS
70
4
9
$ACADVER
1
AC1014
9
$HANDSEED
5
FFFF
0
ENDSEC
0
SECTION
2
TABLES
0
TABLE
2
VPORT
5
8
100
AcDbSymbolTable
0
ENDTAB
0
TABLE
2
LTYPE
5
5
100
AcDbSymbolTable
0
LTYPE
5
14
100
AcDbSymbolTableRecord
100
AcDbLinetypeTableRecord
2
BYBLOCK
70
0
0
LTYPE
5
15
100
AcDbSymbolTableRecord
100
AcDbLinetypeTableRecord
2
BYLAYER
70
0
0
LTYPE
5
16
100
AcDbSymbolTableRecord
100
AcDbLinetypeTableRecord
2
DASHED
70
0
3
Dashed __ __ __ __ __ __ __ __ __ __ __ __ __ _
72
65
73
2
40
0.75
49
0.5
74
0
49
-0.25
74
0
0
ENDTAB
0
TABLE
2
LAYER
5
2
100
AcDbSymbolTable
70
3
0
LAYER
5
50
100
AcDbSymbolTableRecord
100
AcDbLayerTableRecord
2
1
70
0
62
7
6
DASHED
0
LAYER
5
51
100
AcDbSymbolTableRecord
100
AcDbLayerTableRecord
2
0
70
0
62
7
6
CONTINUOUS
0
ENDTAB
0
TABLE
2
STYLE
5
3
100
AcDbSymbolTable
70
1
0
STYLE
5
11
100
AcDbSymbolTableRecord
100
AcDbTextStyleTableRecord
2
STANDARD
70
0
0
ENDTAB
0
TABLE
2
VIEW
5
6
100
AcDbSymbolTable
70
0
0
ENDTAB
0
TABLE
2
UCS
5
7
100
AcDbSymbolTable
70
0
0
ENDTAB
0
TABLE
2
APPID
5
9
100
AcDbSymbolTable
70
2
0
APPID
5
12
100
AcDbSymbolTableRecord
100
AcDbRegAppTableRecord
2
ACAD
70
0
0
ENDTAB
0
TABLE
2
DIMSTYLE
5
A
100
AcDbSymbolTable
70
1
0
ENDTAB
0
TABLE
2
BLOCK_RECORD
5
1
100
AcDbSymbolTable
70
1
0
BLOCK_RECORD
5
1F
100
AcDbSymbolTableRecord
100
AcDbBlockTableRecord
2
*MODEL_SPACE
0
BLOCK_RECORD
5
1B
100
AcDbSymbolTableRecord
100
AcDbBlockTableRecord
2
*PAPER_SPACE
0
ENDTAB
0
ENDSEC
0
SECTION
2
BLOCKS
0
BLOCK
5
20
100
AcDbEntity
100
AcDbBlockBegin
2
*MODEL_SPACE
0
ENDBLK
5
21
100
AcDbEntity
100
AcDbBlockEnd
0
BLOCK
5
1C
100
AcDbEntity
100
AcDbBlockBegin
2
*PAPER_SPACE
0
ENDBLK
5
1D
100
AcDbEntity
100
AcDbBlockEnd
0
ENDSEC
0
SECTION
2
ENTITIES
0
LWPOLYLINE
5
100
100
AcDbEntity
8
0
100
AcDbPolyline
90
22
70
1
43
0.0
10
6.5238863992256686
20
2.5375000000001178
42
0.30929444352267638
10
7.4558701705437569
20
1.8999999999999382
10
35.839339828219011
20
1.8999999999995001
42
-0.19891236737951223
10
36.546446609404903
20
1.6071067811865469
10
39.626776695296044
20
-1.4732233047032604
42
-0.66817863791946963
10
39.449999999999505
20
-1.899999999999946
10
32.400000000000013
20
-1.8999999999999893
42
0.4142135623730947
10
31.399999999999999
20
-2.8999999999999879
10
31.400000000000325
20
-4.6500000000001886
42
-0.41421356237309503
10
31.100000000000307
20
-4.9500000000002089
10
27.9000000000024
20
-4.9499999999999815
42
-0.13165249758713818
10
27.800000000002598
20
-4.9232050807569756
10
27.599999999999415
20
-4.807735026918782
42
0.26794919243150256
10
27.399999999999203
20
-4.8077350269193042
10
27.200000000001225
20
-4.9232050807566123
42
-0.13165249758815809
10
27.100000000000701
20
-4.9500000000000242
10
23.900000000001057
20
-4.9500000000003199
42
-0.41421356237309503
10
23.600000000000868
20
-4.6500000000001309
10
23.59999999999998
20
-2.899999999999979
42
0.41421356237309537
10
22.599999999999653
20
-1.8999999999996477
10
7.4558701705437507
20
-1.8999999999999622
42
0.30929444352279206
10
6.5238863992255469
20
-2.5375000000004313
42
-5.3296104036351934
0
CIRCLE
5
101
100
AcDbEntity
8
0
100
AcDbCircle
10
0
20
0
30
0
40
4
210
0
220
0
230
-1
0
LWPOLYLINE
5
102
100
AcDbEntity
8
0
100
AcDbPolyline
90
22
70
1
43
0.0
10
6.5238863992256686
20
2.5375000000001178
42
0.30929444352267638
10
7.4558701705437569
20
1.8999999999999384
10
35.839339828219011
20
1.899999999999501
42
-0.19891236737951282
10
36.546446609404903
20
1.6071067811865469
10
39.626776695296044
20
-1.4732233047032621
42
-0.66817863791946941
10
39.449999999999505
20
-1.899999999999946
10
32.400000000000013
20
-1.8999999999999893
42
0.4142135623730947
10
31.399999999999999
20
-2.8999999999999879
10
31.400000000000325
20
-4.6500000000001886
42
-0.41421356237310425
10
31.100000000000307
20
-4.9500000000002089
10
27.9000000000024
20
-4.9499999999999797
42
-0.13165249758714248
10
27.800000000002598
20
-4.9232050807569756
10
27.599999999999415
20
-4.807735026918782
42
0.26794919243150256
10
27.399999999999203
20
-4.8077350269193042
10
27.200000000001225
20
-4.9232050807566115
42
-0.13165249758814024
10
27.100000000000701
20
-4.9500000000000242
10
23.900000000001057
20
-4.9500000000003173
42
-0.41421356237309237
10
23.600000000000868
20
-4.6500000000001309
10
23.59999999999998
20
-2.899999999999979
42
0.41421356237309537
10
22.599999999999653
20
-1.8999999999996477
10
7.4558701705437507
20
-1.8999999999999622
42
0.30929444352279217
10
6.5238863992255478
20
-2.5375000000004313
42
-5.3296104036351934
0
CIRCLE
5
103
100
AcDbEntity
8
0
100
AcDbCircle
10
0
20
0
30
0
40
4
210
0
220
-0
230
1
0
ENDSEC
0
SECTION
2
OBJECTS
0
DICTIONARY
5
C
100
AcDbDictionary
3
ACAD_GROUP
350
D
3
ACAD_MLINESTYLE
350
17
0
DICTIONARY
5
D
100
AcDbDictionary
0
DICTIONARY
5
1A
330
C
100
AcDbDictionary
0
DICTIONARY
5
17
100
AcDbDictionary
0
ENDSEC
0
EOF
