0
SECTION
2
HEADER
9
$INSUNITS
70
4
9
$ACADVER
1
AC1014
9
$HANDSEED
5
FFFF
0
ENDSEC
0
SECTION
2
TABLES
0
TABLE
2
VPORT
5
8
100
AcDbSymbolTable
0
ENDTAB
0
TABLE
2
LTYPE
5
5
100
AcDbSymbolTable
0
LTYPE
5
14
100
AcDbSymbolTableRecord
100
AcDbLinetypeTableRecord
2
BYBLOCK
70
0
0
LTYPE
5
15
100
AcDbSymbolTableRecord
100
AcDbLinetypeTableRecord
2
BYLAYER
70
0
0
LTYPE
5
16
100
AcDbSymbolTableRecord
100
AcDbLinetypeTableRecord
2
DASHED
70
0
3
Dashed __ __ __ __ __ __ __ __ __ __ __ __ __ _
72
65
73
2
40
0.75
49
0.5
74
0
49
-0.25
74
0
0
ENDTAB
0
TABLE
2
LAYER
5
2
100
AcDbSymbolTable
70
3
0
LAYER
5
50
100
AcDbSymbolTableRecord
100
AcDbLayerTableRecord
2
1
70
0
62
7
6
DASHED
0
LAYER
5
51
100
AcDbSymbolTableRecord
100
AcDbLayerTableRecord
2
0
70
0
62
7
6
CONTINUOUS
0
ENDTAB
0
TABLE
2
STYLE
5
3
100
AcDbSymbolTable
70
1
0
STYLE
5
11
100
AcDbSymbolTableRecord
100
AcDbTextStyleTableRecord
2
STANDARD
70
0
0
ENDTAB
0
TABLE
2
VIEW
5
6
100
AcDbSymbolTable
70
0
0
ENDTAB
0
TABLE
2
UCS
5
7
100
AcDbSymbolTable
70
0
0
ENDTAB
0
TABLE
2
APPID
5
9
100
AcDbSymbolTable
70
2
0
APPID
5
12
100
AcDbSymbolTableRecord
100
AcDbRegAppTableRecord
2
ACAD
70
0
0
ENDTAB
0
TABLE
2
DIMSTYLE
5
A
100
AcDbSymbolTable
70
1
0
ENDTAB
0
TABLE
2
BLOCK_RECORD
5
1
100
AcDbSymbolTable
70
1
0
BLOCK_RECORD
5
1F
100
AcDbSymbolTableRecord
100
AcDbBlockTableRecord
2
*MODEL_SPACE
0
BLOCK_RECORD
5
1B
100
AcDbSymbolTableRecord
100
AcDbBlockTableRecord
2
*PAPER_SPACE
0
ENDTAB
0
ENDSEC
0
SECTION
2
BLOCKS
0
BLOCK
5
20
100
AcDbEntity
100
AcDbBlockBegin
2
*MODEL_SPACE
0
ENDBLK
5
21
100
AcDbEntity
100
AcDbBlockEnd
0
BLOCK
5
1C
100
AcDbEntity
100
AcDbBlockBegin
2
*PAPER_SPACE
0
ENDBLK
5
1D
100
AcDbEntity
100
AcDbBlockEnd
0
ENDSEC
0
SECTION
2
ENTITIES
0
LWPOLYLINE
5
100
100
AcDbEntity
8
0
100
AcDbPolyline
90
144
70
1
43
0.0
10
16.039230484540902
20
-135.59999999999999
10
18.500000000000384
20
-135.59999999999999
42
0.41421356237309503
10
20.000000000000387
20
-134.10000000000002
10
19.999999999999105
20
-125.60000000000001
42
0.41421356237309503
10
18.499999999999055
20
-124.09999999999995
10
16.350000000000062
20
-124.10000000000004
42
0.41421356237309503
10
15.350000000000062
20
-125.09999999999999
10
15.34999999999884
20
-129
42
-0.41421356237309503
10
15.149999999998862
20
-129.19999999999999
10
13.438849388089903
20
-129.20000000000132
42
-0.17988489557010554
10
12.132263395609142
20
-128.7142103698811
42
-0.055184205101981409
10
8.3876974663586168
20
-124.68350842926158
42
-0.16095814186580859
10
7.6000000000000325
20
-122.30000000000003
10
7.5999999999995911
20
-117.70000000000003
42
-0.1609581418658465
10
8.3876974663594286
20
-115.31649157073865
42
-0.074004911122370773
10
13.595772086536428
20
-110.11570036908005
42
-0.61577565640869492
10
15.350000000000176
20
-111.00000000000003
10
15.35000000000017
20
-114.90000000000002
42
0.41421356237309503
10
16.350000000000062
20
-115.89999999999991
10
18.499999999999055
20
-115.90000000000002
42
0.41421356237309503
10
19.999999999999055
20
-114.40000000000001
10
20.000000000000462
20
-85.600000000000009
42
0.41421356237309503
10
18.500000000000384
20
-84.099999999999952
10
16.350000000000062
20
-84.100000000000037
42
0.41421356237309503
10
15.350000000000062
20
-85.100000000000023
10
15.349999999999721
20
-89
42
-0.61577565640863396
10
13.595772086536755
20
-89.884299630919301
42
-0.074004911122369108
10
8.3876974663588815
20
-84.68350842926192
42
-0.16095814186583707
10
7.6000000000000325
20
-82.300000000000011
10
7.5999999999995937
20
-77.699999999999704
42
-0.16095814186583512
10
8.3876974663600468
20
-75.316491570739004
42
-0.074004911122362182
10
13.595772086536471
20
-70.115700369081097
42
-0.61577565640867848
10
15.350000000000176
20
-71.000000000001108
10
15.35000000000017
20
-74.90000000000002
42
0.41421356237309503
10
16.350000000000062
20
-75.899999999999906
10
18.500000000000384
20
-75.90000000000002
42
0.41421356237309503
10
20.000000000000387
20
-74.400000000000006
10
20.000000000000462
20
-45.600000000000009
42
0.41421356237309503
10
18.500000000000384
20
-44.099999999999952
10
16.350000000000062
20
-44.100000000000023
42
0.41421356237309503
10
15.350000000000062
20
-45.100000000000108
10
15.349999999999721
20
-49
42
-0.61577565640866183
10
13.595772086537036
20
-49.884299630918775
42
-0.074004911122373229
10
8.3876974663587447
20
-44.683508429261153
42
-0.16095814186582261
10
7.6000000000000325
20
-42.299999999999415
10
7.5999999999995929
20
-37.699999999999811
42
-0.16095814186582375
10
8.3876974663594321
20
-35.316491570738883
42
-0.074004911122372341
10
13.595772086536355
20
-30.115700369080074
42
-0.61577565640872312
10
15.350000000000176
20
-31.000000000000007
10
15.35000000000017
20
-34.900000000000006
42
0.41421356237309503
10
16.350000000000062
20
-35.899999999999892
10
18.500000000000384
20
-35.90000000000002
42
0.41421356237309503
10
20.000000000000387
20
-34.400000000000006
10
20.000000000000462
20
-5.600000000000005
42
0.41421356237309503
10
18.500000000000384
20
-4.0999999999999446
10
16.350000000000062
20
-4.1000000000000121
42
0.41421356237309503
10
15.350000000000062
20
-5.1000000000000068
10
15.349999999999724
20
-9.0000000000000036
42
-0.61577565640865584
10
13.595772086536673
20
-9.8842996309192799
42
-0.07400491112237402
10
8.3876974663585493
20
-4.683508429261483
42
-0.16095814186580151
10
7.6000000000000325
20
-2.3000000000000047
10
7.5999999999995911
20
2.2999999999999945
42
-0.16095814186582977
10
8.3876974663591746
20
4.6835084292612157
42
-0.055184205101976955
10
12.132263395609332
20
8.7142103698804725
42
-0.17988489557002793
10
13.438849388089903
20
9.1999999999999975
10
15.150000000000192
20
9.1999999999999726
42
-0.41421356237309503
10
15.35000000000017
20
8.9999999999999947
10
15.35000000000017
20
5.099999999999989
42
0.41421356237309503
10
16.350000000000062
20
4.1000000000000991
10
18.500000000000384
20
4.0999999999999925
42
0.41421356237309503
10
20.000000000000387
20
5.5999999999999872
10
20.000000000000462
20
14.099999999999993
42
0.41421356237309503
10
18.500000000000384
20
15.600000000000055
10
16.039230484541783
20
15.599999999999987
42
0.57735026918966048
10
15.519615242271158
20
14.699999999999942
10
16.501110699892827
20
13.000000000000036
42
-0.57735026918966081
10
16.154700538379064
20
12.399999999999983
10
9.2394044427290574
20
12.400000000000002
42
0.19522908384697427
10
8.9606014073832458
20
12.286825500058674
42
-0.033577088026144349
10
6.4042279134633517
20
10.115700369080198
42
-0.61577565640879472
10
4.6499999999993511
20
10.999999999999996
10
4.6499999999989132
20
14.900000000000002
42
0.41421356237309503
10
3.6499999999990207
20
15.899999999999892
10
1.5000000000000324
20
15.899999999999999
42
0.41421356237309503
10
3.219646771412954e-14
20
14.400000000000004
10
-3.1086244689504383e-14
20
-14.400000000000004
42
0.41421356237309503
10
1.5000000000000324
20
-15.900000000000066
10
3.650000000000353
20
-15.900000000000013
42
0.41421356237309503
10
4.650000000000353
20
-14.900000000000002
10
4.6500000000006949
20
-10.999999999999401
42
-0.6157756564086766
10
6.4042279134638953
20
-10.115700369080034
42
-0.074004911122380376
10
11.612302533642236
20
-15.316491570738444
42
-0.16095814186580881
10
12.400000000000821
20
-17.700000000000014
10
12.400000000000823
20
-22.300000000000001
42
-0.16095814186581872
10
11.612302533641682
20
-24.68350842926138
42
-0.074004911122373118
10
6.4042279134639104
20
-29.884299630919259
42
-0.61577565640866461
10
4.6500000000002437
20
-28.999999999999211
10
4.6500000000002428
20
-25.100000000000009
42
0.41421356237309503
10
3.650000000000353
20
-24.100000000000115
10
1.5000000000000324
20
-24.100000000000016
42
0.41421356237309503
10
3.219646771412954e-14
20
-25.600000000000016
10
-3.1086244689504383e-14
20
-54.399999999999899
42
0.41421356237309503
10
1.5000000000000324
20
-55.899999999999956
10
3.650000000000353
20
-55.899999999999899
42
0.41421356237309503
10
4.650000000000353
20
-54.899999999999913
10
4.6500000000006922
20
-51.00000000000022
42
-0.61577565640866305
10
6.4042279134636253
20
-50.115700369081139
42
-0.074004911122371328
10
11.612302533641977
20
-55.316491570738407
42
-0.16095814186582327
10
12.400000000000821
20
-57.700000000000109
10
12.400000000000823
20
-62.30000000000026
42
-0.16095814186583432
10
11.612302533641429
20
-64.683508429261735
42
-0.074004911122368761
10
6.4042279134639273
20
-69.884299630919273
42
-0.61577565640867105
10
4.6500000000002437
20
-68.999999999999233
10
4.6500000000002428
20
-65.100000000000023
42
0.41421356237309503
10
3.650000000000353
20
-64.100000000000122
10
1.5000000000000324
20
-64.100000000000051
42
0.41421356237309503
10
3.219646771412954e-14
20
-65.600000000000009
10
-3.1086244689504383e-14
20
-94.400000000000006
42
0.41421356237309503
10
1.5000000000000324
20
-95.900000000000063
10
3.650000000000353
20
-95.90000000000002
42
0.41421356237309503
10
4.650000000000353
20
-94.90000000000002
10
4.6500000000006949
20
-90.999999999999403
42
-0.61577565640865284
10
6.4042279134631865
20
-90.115700369080841
42
-0.074004911122376241
10
11.612302533642094
20
-95.316491570738279
42
-0.16095814186582408
10
12.400000000000821
20
-97.700000000000031
10
12.400000000000821
20
-102.30000000000001
42
-0.16095814186584514
10
11.612302533641456
20
-104.68350842926169
42
-0.07400491112237513
10
6.4042279134638243
20
-109.88429963092011
42
-0.61577565640863141
10
4.6500000000002437
20
-109
10
4.6500000000002428
20
-105.10000000000002
42
0.41421356237309503
10
3.650000000000353
20
-104.10000000000012
10
1.5000000000000324
20
-104.10000000000004
42
0.41421356237309503
10
3.219646771412954e-14
20
-105.60000000000001
10
-3.1086244689504383e-14
20
-134.40000000000003
42
0.41421356237309503
10
1.5000000000000324
20
-135.90000000000009
10
3.650000000000353
20
-135.90000000000001
42
0.41421356237309503
10
4.650000000000353
20
-134.90000000000003
10
4.6500000000006905
20
-131
42
-0.61577565640872034
10
6.4042279134644486
20
-130.11570036908012
42
-0.033577088026152904
10
8.9606014073845426
20
-132.28682550005973
42
0.19522908384707094
10
9.2394044427303896
20
-132.40000000000126
10
16.154700538379064
20
-132.39999999999998
42
-0.57735026918966403
10
16.501110699892862
20
-133.00000000000009
10
15.519615242270282
20
-134.70000000000002
42
0.57735026918964283
0
LWPOLYLINE
5
101
100
AcDbEntity
8
0
100
AcDbPolyline
90
144
70
1
43
0.0
10
16.039230484540902
20
-135.59999999999999
10
18.500000000000384
20
-135.59999999999999
42
0.41421356237308898
10
20.000000000000391
20
-134.10000000000002
10
19.999999999999105
20
-125.60000000000001
42
0.41421356237310197
10
18.499999999999055
20
-124.09999999999995
10
16.350000000000062
20
-124.10000000000004
42
0.4142135623730937
10
15.350000000000071
20
-125.09999999999999
10
15.34999999999884
20
-129
42
-0.41421356237309503
10
15.149999999998862
20
-129.19999999999999
10
13.438849388089903
20
-129.20000000000132
42
-0.17988489557010554
10
12.132263395609129
20
-128.71421036988113
42
-0.055184205101981187
10
8.3876974663586221
20
-124.68350842926159
42
-0.16095814186580928
10
7.6000000000000325
20
-122.30000000000003
10
7.5999999999995911
20
-117.70000000000003
42
-0.1609581418658465
10
8.387697466359409
20
-115.31649157073866
42
-0.074004911122371106
10
13.595772086536432
20
-110.11570036908005
42
-0.61577565640869381
10
15.350000000000176
20
-111.00000000000003
10
15.35000000000017
20
-114.90000000000002
42
0.4142135623731022
10
16.350000000000062
20
-115.89999999999992
10
18.499999999999055
20
-115.90000000000002
42
0.41421356237308982
10
19.999999999999069
20
-114.40000000000001
10
20.000000000000462
20
-85.600000000000009
42
0.41421356237310247
10
18.500000000000384
20
-84.099999999999952
10
16.350000000000062
20
-84.100000000000037
42
0.41421356237309631
10
15.350000000000062
20
-85.100000000000023
10
15.349999999999721
20
-89
42
-0.61577565640863452
10
13.595772086536735
20
-89.884299630919287
42
-0.074004911122368872
10
8.3876974663588797
20
-84.68350842926192
42
-0.16095814186583696
10
7.6000000000000325
20
-82.300000000000011
10
7.5999999999995937
20
-77.699999999999704
42
-0.16095814186583512
10
8.3876974663600485
20
-75.316491570739004
42
-0.074004911122362182
10
13.595772086536472
20
-70.115700369081097
42
-0.61577565640867737
10
15.350000000000176
20
-71.000000000001108
10
15.35000000000017
20
-74.90000000000002
42
0.41421356237309503
10
16.350000000000062
20
-75.899999999999906
10
18.500000000000384
20
-75.90000000000002
42
0.41421356237309159
10
20.000000000000387
20
-74.400000000000006
10
20.000000000000462
20
-45.600000000000009
42
0.41421356237309764
10
18.500000000000384
20
-44.099999999999937
10
16.350000000000062
20
-44.100000000000023
42
0.41421356237309503
10
15.350000000000065
20
-45.100000000000108
10
15.349999999999721
20
-49
42
-0.61577565640866228
10
13.595772086537032
20
-49.884299630918775
42
-0.074004911122373229
10
8.3876974663587447
20
-44.683508429261153
42
-0.1609581418658225
10
7.6000000000000325
20
-42.299999999999415
10
7.5999999999995929
20
-37.699999999999811
42
-0.16095814186582375
10
8.3876974663594357
20
-35.316491570738876
42
-0.074004911122372341
10
13.59577208653636
20
-30.115700369080066
42
-0.61577565640872201
10
15.350000000000176
20
-31.000000000000007
10
15.35000000000017
20
-34.900000000000006
42
0.41421356237309764
10
16.350000000000062
20
-35.899999999999892
10
18.500000000000384
20
-35.90000000000002
42
0.41421356237309592
10
20.000000000000391
20
-34.400000000000006
10
20.000000000000462
20
-5.600000000000005
42
0.4142135623730957
10
18.500000000000384
20
-4.0999999999999446
10
16.350000000000062
20
-4.1000000000000121
42
0.41421356237309698
10
15.350000000000058
20
-5.1000000000000068
10
15.349999999999724
20
-9.0000000000000036
42
-0.61577565640865584
10
13.59577208653667
20
-9.8842996309192888
42
-0.074004911122374131
10
8.3876974663585457
20
-4.6835084292614759
42
-0.16095814186580107
10
7.6000000000000325
20
-2.3000000000000038
10
7.5999999999995911
20
2.2999999999999945
42
-0.16095814186582977
10
8.3876974663591817
20
4.6835084292612192
42
-0.055184205101976955
10
12.132263395609336
20
8.714210369880476
42
-0.17988489557002738
10
13.438849388089903
20
9.1999999999999975
10
15.150000000000192
20
9.1999999999999726
42
-0.41421356237309503
10
15.35000000000017
20
8.9999999999999947
10
15.35000000000017
20
5.099999999999989
42
0.41421356237309537
10
16.350000000000058
20
4.1000000000001
10
18.500000000000384
20
4.0999999999999925
42
0.41421356237309481
10
20.000000000000387
20
5.5999999999999872
10
20.000000000000462
20
14.099999999999993
42
0.41421356237309465
10
18.500000000000384
20
15.600000000000055
10
16.039230484541783
20
15.599999999999987
42
0.57735026918966048
10
15.519615242271158
20
14.699999999999942
10
16.501110699892827
20
13.000000000000036
42
-0.57735026918966081
10
16.154700538379064
20
12.399999999999983
10
9.2394044427290574
20
12.400000000000002
42
0.1952290838469754
10
8.9606014073832636
20
12.286825500058685
42
-0.033577088026144571
10
6.4042279134633473
20
10.115700369080196
42
-0.61577565640879295
10
4.6499999999993511
20
10.999999999999996
10
4.6499999999989132
20
14.900000000000002
42
0.41421356237309598
10
3.6499999999990207
20
15.899999999999892
10
1.5000000000000324
20
15.899999999999999
42
0.41421356237309453
10
3.1641356201816961e-14
20
14.400000000000004
10
-3.1086244689504383e-14
20
-14.400000000000004
42
0.41421356237309481
10
1.5000000000000326
20
-15.900000000000066
10
3.650000000000353
20
-15.900000000000013
42
0.4142135623730937
10
4.6500000000003539
20
-14.900000000000002
10
4.6500000000006949
20
-10.999999999999401
42
-0.6157756564086766
10
6.4042279134638918
20
-10.115700369080034
42
-0.074004911122380487
10
11.612302533642238
20
-15.316491570738449
42
-0.16095814186580859
10
12.400000000000821
20
-17.700000000000014
10
12.400000000000823
20
-22.300000000000001
42
-0.16095814186581872
10
11.612302533641682
20
-24.683508429261387
42
-0.074004911122373118
10
6.4042279134639069
20
-29.884299630919262
42
-0.61577565640866305
10
4.6500000000002437
20
-28.999999999999211
10
4.6500000000002428
20
-25.100000000000009
42
0.41421356237309664
10
3.650000000000353
20
-24.100000000000112
10
1.5000000000000324
20
-24.100000000000016
42
0.41421356237309576
10
2.9698465908722937e-14
20
-25.600000000000016
10
-3.1086244689504383e-14
20
-54.399999999999899
42
0.41421356237309398
10
1.5000000000000324
20
-55.899999999999949
10
3.650000000000353
20
-55.899999999999899
42
0.41421356237309537
10
4.6500000000003503
20
-54.899999999999913
10
4.6500000000006922
20
-51.00000000000022
42
-0.61577565640866305
10
6.4042279134636315
20
-50.115700369081146
42
-0.074004911122371217
10
11.612302533641977
20
-55.316491570738407
42
-0.16095814186582316
10
12.400000000000821
20
-57.700000000000109
10
12.400000000000823
20
-62.30000000000026
42
-0.16095814186583432
10
11.612302533641422
20
-64.683508429261721
42
-0.074004911122368872
10
6.4042279134639246
20
-69.884299630919273
42
-0.61577565640867027
10
4.6500000000002437
20
-68.999999999999233
10
4.6500000000002428
20
-65.100000000000023
42
0.41421356237309459
10
3.650000000000353
20
-64.100000000000122
10
1.5000000000000324
20
-64.100000000000051
42
0.41421356237309365
10
3.6082248300317588e-14
20
-65.600000000000009
10
-3.1086244689504383e-14
20
-94.400000000000006
42
0.4142135623731022
10
1.5000000000000326
20
-95.900000000000063
10
3.650000000000353
20
-95.90000000000002
42
0.41421356237309664
10
4.6500000000003547
20
-94.90000000000002
10
4.6500000000006931
20
-90.999999999999403
42
-0.61577565640865362
10
6.4042279134631936
20
-90.115700369080827
42
-0.074004911122376241
10
11.612302533642094
20
-95.316491570738279
42
-0.16095814186582408
10
12.400000000000821
20
-97.700000000000031
10
12.400000000000821
20
-102.30000000000001
42
-0.16095814186584514
10
11.612302533641454
20
-104.68350842926169
42
-0.07400491112237513
10
6.4042279134638225
20
-109.88429963092011
42
-0.61577565640863052
10
4.6500000000002437
20
-109
10
4.6500000000002428
20
-105.10000000000002
42
0.41421356237309631
10
3.650000000000353
20
-104.10000000000012
10
1.5000000000000324
20
-104.10000000000004
42
0.41421356237309453
10
3.1641356201816961e-14
20
-105.60000000000001
10
-3.1086244689504383e-14
20
-134.40000000000003
42
0.4142135623731022
10
1.5000000000000326
20
-135.90000000000009
10
3.650000000000353
20
-135.90000000000001
42
0.41421356237309664
10
4.6500000000003547
20
-134.90000000000003
10
4.6500000000006922
20
-131
42
-0.61577565640872001
10
6.4042279134644486
20
-130.11570036908012
42
-0.033577088026152904
10
8.9606014073845461
20
-132.28682550005973
42
0.19522908384713658
10
9.2394044427303896
20
-132.40000000000126
10
16.154700538379064
20
-132.39999999999998
42
-0.57735026918966403
10
16.501110699892862
20
-133.00000000000009
10
15.519615242270282
20
-134.70000000000002
42
0.57735026918964094
0
ENDSEC
0
SECTION
2
OBJECTS
0
DICTIONARY
5
C
100
AcDbDictionary
3
ACAD_GROUP
350
D
3
ACAD_MLINESTYLE
350
17
0
DICTIONARY
5
D
100
AcDbDictionary
0
DICTIONARY
5
1A
330
C
100
AcDbDictionary
0
DICTIONARY
5
17
100
AcDbDictionary
0
ENDSEC
0
EOF
