0
SECTION
2
HEADER
9
$INSUNITS
70
4
9
$ACADVER
1
AC1014
9
$HANDSEED
5
FFFF
0
ENDSEC
0
SECTION
2
TABLES
0
TABLE
2
VPORT
5
8
100
AcDbSymbolTable
0
ENDTAB
0
TABLE
2
LTYPE
5
5
100
AcDbSymbolTable
0
LTYPE
5
14
100
AcDbSymbolTableRecord
100
AcDbLinetypeTableRecord
2
BYBLOCK
70
0
0
LTYPE
5
15
100
AcDbSymbolTableRecord
100
AcDbLinetypeTableRecord
2
BYLAYER
70
0
0
LTYPE
5
16
100
AcDbSymbolTableRecord
100
AcDbLinetypeTableRecord
2
DASHED
70
0
3
Dashed __ __ __ __ __ __ __ __ __ __ __ __ __ _
72
65
73
2
40
0.75
49
0.5
74
0
49
-0.25
74
0
0
ENDTAB
0
TABLE
2
LAYER
5
2
100
AcDbSymbolTable
70
3
0
LAYER
5
50
100
AcDbSymbolTableRecord
100
AcDbLayerTableRecord
2
1
70
0
62
7
6
DASHED
0
LAYER
5
51
100
AcDbSymbolTableRecord
100
AcDbLayerTableRecord
2
0
70
0
62
7
6
CONTINUOUS
0
ENDTAB
0
TABLE
2
STYLE
5
3
100
AcDbSymbolTable
70
1
0
STYLE
5
11
100
AcDbSymbolTableRecord
100
AcDbTextStyleTableRecord
2
STANDARD
70
0
0
ENDTAB
0
TABLE
2
VIEW
5
6
100
AcDbSymbolTable
70
0
0
ENDTAB
0
TABLE
2
UCS
5
7
100
AcDbSymbolTable
70
0
0
ENDTAB
0
TABLE
2
APPID
5
9
100
AcDbSymbolTable
70
2
0
APPID
5
12
100
AcDbSymbolTableRecord
100
AcDbRegAppTableRecord
2
ACAD
70
0
0
ENDTAB
0
TABLE
2
DIMSTYLE
5
A
100
AcDbSymbolTable
70
1
0
ENDTAB
0
TABLE
2
BLOCK_RECORD
5
1
100
AcDbSymbolTable
70
1
0
BLOCK_RECORD
5
1F
100
AcDbSymbolTableRecord
100
AcDbBlockTableRecord
2
*MODEL_SPACE
0
BLOCK_RECORD
5
1B
100
AcDbSymbolTableRecord
100
AcDbBlockTableRecord
2
*PAPER_SPACE
0
ENDTAB
0
ENDSEC
0
SECTION
2
BLOCKS
0
BLOCK
5
20
100
AcDbEntity
100
AcDbBlockBegin
2
*MODEL_SPACE
0
ENDBLK
5
21
100
AcDbEntity
100
AcDbBlockEnd
0
BLOCK
5
1C
100
AcDbEntity
100
AcDbBlockBegin
2
*PAPER_SPACE
0
ENDBLK
5
1D
100
AcDbEntity
100
AcDbBlockEnd
0
ENDSEC
0
SECTION
2
ENTITIES
0
LWPOLYLINE
5
100
100
AcDbEntity
8
0
100
AcDbPolyline
90
40
70
1
43
0.0
10
19.162000516942793
20
-26.81126673189496
42
0.41421357031787376
10
18.612962431641002
20
-24.762228590962884
10
16.751007314034837
20
-23.687228302579584
42
0.41421356237721796
10
15.384981910241356
20
-24.053253706355989
10
13.426924505882914
20
-27.44470861300632
42
-0.61505402846492374
10
11.495209889446663
20
-27.337131396007649
42
-0.074238418518477137
10
9.5677049362319071
20
-20.21002536706796
42
-0.16125692551092327
10
10.076756882842822
20
-17.747369148283248
10
12.369813082161746
20
-13.775679308842413
42
-0.16125693727301244
10
14.248010046293608
20
-12.103499123499459
42
-0.074238419050377299
10
21.384017399362762
20
-10.209214363874173
42
-0.61505394891266874
10
22.443039434054501
20
-11.828339474804483
10
20.484981908828761
20
-15.21979459211197
42
0.41421356237952794
10
20.851007312606626
20
-16.585819995910835
10
22.712962412864165
20
-17.660820274266975
42
0.41421361739854062
10
24.762000659447555
20
-17.111781924541802
10
30.053096892956606
20
-7.9473304442543791
42
0.38779451896113382
10
28.895631728694774
20
-2.6793919049452697
42
-0.21971871581537969
10
12.12763217862582
20
26.363636353346731
42
0.38779458234413766
10
8.1441953968498915
20
29.999999988808192
10
-2.4379999101609151
20
29.999999988808192
42
0.41421356237487095
10
-3.9379999101574201
20
28.499999988802593
10
-3.9379999101574201
20
26.349999988805685
42
0.4142135623717631
10
-2.9379999101526462
20
25.349999988805457
10
0.97811513984863518
20
25.349999988305235
42
-0.61505394888178322
10
1.8508075998183449
20
23.623297448796933
42
-0.074238419051662771
10
-3.3576948006277152
20
18.39047617923314
42
-0.16125693650214706
10
-5.7449438040494716
20
17.599999989236945
10
-10.331056200618221
20
17.59999998729517
42
-0.16125692551064896
10
-12.718305020617901
20
18.390476179237307
42
-0.074238418517743363
10
-17.926807421082444
20
23.623297448904243
42
-0.61505402819244415
10
-17.054114715424475
20
25.34999998710245
10
-13.137999908290112
20
25.349999989998651
42
0.41421356237043117
10
-12.137999908289885
20
26.349999989997741
10
-12.137999908291022
20
28.499999989994649
42
0.41421356237487095
10
-13.637999908287384
20
29.999999990000248
10
-23.932663847108415
20
29.999999989995558
42
0.42972157715593773
10
-27.927119838891166
20
25.789473674221238
42
0.23992221904235475
10
8.3710175798765274
20
-37.080744282412674
42
0.42972156799221212
10
14.014668261500752
20
-35.726707162864237
0
LWPOLYLINE
5
101
100
AcDbEntity
8
0
100
AcDbPolyline
90
16
70
1
43
0.0
10
12.31566918414555
20
-32.67349002329442
42
0.41421356237309453
10
11.949643780363061
20
-31.30746461950767
10
10.446310011973504
20
-30.439514462586214
42
-0.16006231983632219
10
8.7466453166336802
20
-28.539376281328934
42
-0.074238418541169249
10
6.5878397681513103
20
-20.557017530162174
42
-0.16125692566380334
10
7.4786806763313507
20
-16.24736914616733
10
10.375208776774837
20
-11.230435315609935
42
0.41421356250146607
10
10.009183373213091
20
-9.8644099114562778
10
5.0168252920419052
20
-6.982070629369403
42
0.41421356237691259
10
3.6507998882461843
20
-7.3480960331426104
10
0.80546948846682398
20
-12.276353485487345
42
-0.26794937845243794
10
-2.6586320533806429
20
-14.276352722877164
10
-9.0793941184801952
20
-14.276353960261778
42
0.61619997979783836
10
-9.8825701616649564
20
-15.872095459648383
42
0.089331407167562715
10
10.007393699077223
20
-34.566330318959366
42
0.429713712635863
10
11.418284119790769
20
-34.227806548683475
0
LWPOLYLINE
5
102
100
AcDbEntity
8
0
100
AcDbPolyline
90
16
70
1
43
0.0
10
-21.137999908287242
20
26.00201535224187
42
0.41421356236909923
10
-22.137999908291022
20
27.002015352241102
10
-23.93277003696312
20
27.002015352243092
42
0.42971371263876912
10
-24.931385432169904
20
25.949410291090913
42
0.089331407167907689
10
-18.686685070175884
20
-0.62292112232678043
42
0.61619997980010177
10
-16.903144372254246
20
-0.72522101492268065
10
-13.692762268074073
20
4.8353214263851925
42
-0.26794937845179112
10
-10.228661350010952
20
6.8353217442108871
10
-4.5380000000022855
20
6.8353214263913751
42
0.41421356236377177
10
-3.5380000000077421
20
7.8353214263825066
10
-3.5380000000046161
20
13.599999990510696
42
0.41421356249962771
10
-4.5380000004342946
20
14.599999990509787
10
-10.331056197023825
20
14.599999989286715
42
-0.16125692559091939
10
-14.50874163223137
20
15.983333323933287
42
-0.074238418533928763
10
-20.342264319518257
20
21.844093145177826
42
-0.16006231982135918
10
-21.137999908287384
20
24.266115039999931
0
LWPOLYLINE
5
103
100
AcDbEntity
8
0
100
AcDbPolyline
90
14
70
1
43
0.0
10
-0.18420689336985402
20
17.081456417738856
42
0.22052201444064851
10
-0.53800000001302695
20
16.318294147326924
10
-0.53800000000350623
20
6.8845475681746393
42
0.39474116612544929
10
0.39511242896397902
20
5.8867870493902705
42
-0.15356672218432774
10
3.6940124763188815
20
4.6008462717477796
42
0.30934765195828468
10
4.8200355785957072
20
4.5146252822087263
10
13.168439585363963
20
9.3345776813727745
42
0.39765930044748315
10
13.561475117546635
20
10.650589417974279
42
-0.094217614492049948
10
9.1398748359884401
20
26.092878639480212
42
0.38780781017715599
10
8.1440114603037728
20
27.00201535224096
10
6.0619999999971697
20
27.002015352241102
42
0.41421356237043117
10
5.0619999999889842
20
26.00201535224187
10
5.0619999988975728
20
24.266978197460727
42
-0.16011651314124387
10
4.2662645012211193
20
21.844093143715398
42
-0.058398391564439503
0
LWPOLYLINE
5
104
100
AcDbEntity
8
0
100
AcDbPolyline
90
14
70
1
43
0.0
10
21.050909724424717
20
-7.2277651714713942
42
0.058398391562635522
10
14.701109633480343
20
-8.7006680955035129
42
-0.22052201443821029
10
13.863295166772168
20
-8.6254807783289387
10
5.6934309763863187
20
-3.9086074887300573
42
-0.39474116612984317
10
5.2959012347146679
20
-2.6016281612573966
42
0.15356672215488545
10
5.8316938784129304
20
0.89827347291901649
42
-0.309347651957324
10
6.32003586225406
20
1.9165485795207091
10
14.668439088382319
20
6.7365023308178902
42
-0.3976593004468959
10
16.004656450142008
20
6.4188752180454056
42
0.094217614485026704
10
27.167271066425482
20
-5.1314875618353177
42
-0.38780781017887794
10
27.456674867351211
20
-6.448498900269187
10
26.415669137197906
20
-8.2515737158580293
42
-0.41421356237376183
10
25.049643733408352
20
-8.617599119636278
10
23.547057480853887
20
-7.7500805422389965
42
0.16011651306733021
0
LWPOLYLINE
5
105
100
AcDbEntity
8
0
100
AcDbPolyline
90
12
70
1
43
0.0
10
-5.3783958985978693
20
2.4244055089001688
42
0.5124131870644868
10
-0.58936329570014134
20
-5.8704418360131871
42
-0.54443912253556925
10
0.17668936309503003
20
-7.3654320904478112
10
-1.7926065620020508
20
-10.77635169054531
42
-0.26795027728052512
10
-2.6586316902085132
20
-11.276351964738112
10
-12.488100694957229
20
-11.276351857308597
42
-0.25860728878423772
10
-13.336128338848672
20
-10.806303858602661
42
-0.01747437760562397
10
-16.026360951316342
20
-6.146684139459861
42
-0.25860729894548451
10
-16.009420595873188
20
-5.1772466268407635
10
-11.09468616882439
20
3.3353213671623743
42
-0.2679500239068886
10
-10.228661131202944
20
3.835321811685402
10
-6.2900690411770928
20
3.835321657394176
42
-0.54443907989282847
0
CIRCLE
5
106
100
AcDbEntity
8
0
100
AcDbCircle
10
0
20
0
30
0
40
3.3500000000010743
210
0
220
0
230
-1
0
LWPOLYLINE
5
107
100
AcDbEntity
8
0
100
AcDbPolyline
90
40
70
1
43
0.0
10
19.162000516942793
20
-26.81126673189496
42
0.41421357031787492
10
18.612962431641002
20
-24.762228590962884
10
16.751007314034837
20
-23.687228302579584
42
0.41421356237722173
10
15.384981910241356
20
-24.053253706355989
10
13.426924505882914
20
-27.44470861300632
42
-0.61505402846492374
10
11.495209889446656
20
-27.337131396007646
42
-0.074238418518477137
10
9.5677049362319053
20
-20.210025367067956
42
-0.16125692551092294
10
10.076756882842822
20
-17.747369148283248
10
12.369813082161746
20
-13.775679308842413
42
-0.16125693727301244
10
14.248010046293613
20
-12.103499123499457
42
-0.074238419050377299
10
21.384017399362769
20
-10.209214363874173
42
-0.61505394891266751
10
22.443039434054501
20
-11.828339474804483
10
20.484981908828761
20
-15.21979459211197
42
0.4142135623795285
10
20.851007312606626
20
-16.585819995910839
10
22.712962412864165
20
-17.660820274266975
42
0.41421361739854023
10
24.762000659447551
20
-17.111781924541802
10
30.053096892956606
20
-7.9473304442543791
42
0.38779451896113332
10
28.895631728694781
20
-2.6793919049452786
42
-0.2197187158153798
10
12.12763217862582
20
26.363636353346742
42
0.38779458234413816
10
8.1441953968498897
20
29.999999988808192
10
-2.4379999101609151
20
29.999999988808192
42
0.41421356237487128
10
-3.937999910157421
20
28.499999988802593
10
-3.9379999101574201
20
26.349999988805685
42
0.41421356237176005
10
-2.9379999101526462
20
25.349999988805457
10
0.97811513984863485
20
25.349999988305235
42
-0.61505394888178355
10
1.8508075998183393
20
23.623297448796929
42
-0.074238419051662771
10
-3.357694800627721
20
18.390476179233136
42
-0.16125693650214673
10
-5.7449438040494725
20
17.599999989236945
10
-10.331056200618221
20
17.59999998729517
42
-0.16125692551064896
10
-12.718305020617899
20
18.390476179237304
42
-0.074238418517743474
10
-17.926807421082451
20
23.623297448904253
42
-0.61505402819244137
10
-17.054114715424475
20
25.34999998710245
10
-13.137999908290112
20
25.349999989998651
42
0.41421356237042795
10
-12.137999908289887
20
26.349999989997741
10
-12.137999908291022
20
28.499999989994649
42
0.41421356237487222
10
-13.637999908287384
20
29.999999990000248
10
-23.932663847108415
20
29.999999989995558
42
0.42972157715593806
10
-27.927119838891166
20
25.789473674221238
42
0.23992221903165326
10
8.3710175798765292
20
-37.080744282412688
42
0.42972156799221245
10
14.014668261500749
20
-35.726707162864237
0
LWPOLYLINE
5
108
100
AcDbEntity
8
0
100
AcDbPolyline
90
16
70
1
43
0.0
10
12.31566918414555
20
-32.67349002329442
42
0.4142135623730927
10
11.949643780363061
20
-31.30746461950767
10
10.446310011515237
20
-30.439514463379961
42
-0.16006231982310704
10
8.7466453164666227
20
-28.539376281401978
42
-0.074238418528977002
10
6.5878397691502446
20
-20.557017530045847
42
-0.16125692555752494
10
7.4786806763313507
20
-16.24736914616733
10
10.375208776774841
20
-11.230435315609935
42
0.41421356250146457
10
10.009183373213091
20
-9.8644099114562778
10
5.0168252920419052
20
-6.9820706293694048
42
0.41421356237691326
10
3.6507998882461843
20
-7.3480960331426104
10
0.80546948846682287
20
-12.276353485487348
42
-0.26794937845243783
10
-2.6586320533806429
20
-14.276352722877164
10
-9.0793941184801952
20
-14.276353960261778
42
0.61619997979784324
10
-9.8825701616649386
20
-15.872095459648389
42
0.089331407163768681
10
10.007393699077223
20
-34.566330318959366
42
0.42971371263586677
10
11.418284119790769
20
-34.227806548683475
0
LWPOLYLINE
5
109
100
AcDbEntity
8
0
100
AcDbPolyline
90
16
70
1
43
0.0
10
-21.137999908287242
20
26.00201535224187
42
0.41421356236909668
10
-22.137999908291022
20
27.002015352241102
10
-23.932770036963117
20
27.002015352243092
42
0.4297137126387835
10
-24.931385432169904
20
25.949410291090871
42
0.08933140716373611
10
-18.686685070175887
20
-0.62292112232678054
42
0.61619997980010199
10
-16.903144372254246
20
-0.72522101492268121
10
-13.692762268074073
20
4.8353214263851925
42
-0.26794937845179112
10
-10.228661350010952
20
6.8353217442108871
10
-4.5380000000022855
20
6.8353214263913751
42
0.41421356236377255
10
-3.5380000000077421
20
7.8353214263825066
10
-3.5380000000046161
20
13.599999990510696
42
0.41421356249962848
10
-4.5380000004342946
20
14.599999990509787
10
-10.331056197023829
20
14.59999998804528
42
-0.16125692555752835
10
-14.508741632426869
20
15.983333323670408
42
-0.07423841852815069
10
-20.342264319518257
20
21.844093145177826
42
-0.16006231982135918
10
-21.137999908287384
20
24.266115039999931
0
LWPOLYLINE
5
110
100
AcDbEntity
8
0
100
AcDbPolyline
90
14
70
1
43
0.0
10
-0.18420689336985424
20
17.081456417738856
42
0.22052201444064759
10
-0.53800000001302739
20
16.318294147326924
10
-0.53800000000350623
20
6.8845475681746393
42
0.39474116612544985
10
0.3951124289639818
20
5.8867870493902714
42
-0.15356672218432763
10
3.6940124763188815
20
4.6008462717477805
42
0.30934765195828406
10
4.8200355785957072
20
4.5146252822087263
10
13.168439585363963
20
9.3345776813727728
42
0.39765930044747899
10
13.561475117664095
20
10.650589418033489
42
-0.094217614484162132
10
9.1398748359884401
20
26.092878639480212
42
0.38780781017715382
10
8.1440114603037728
20
27.00201535224096
10
6.0619999999971697
20
27.002015352241102
42
0.41421356237042922
10
5.0619999999889842
20
26.00201535224187
10
5.0619999999867238
20
24.266978197460958
42
-0.16011651319563913
10
4.2662645016346907
20
21.844093143410777
42
-0.058398391566254558
0
LWPOLYLINE
5
111
100
AcDbEntity
8
0
100
AcDbPolyline
90
14
70
1
43
0.0
10
21.05090972442472
20
-7.2277651714713986
42
0.058398391565472982
10
14.701109633480332
20
-8.7006680955035183
42
-0.2205220144382074
10
13.863295166772168
20
-8.6254807783289387
10
5.6934309763863187
20
-3.9086074887300573
42
-0.39474116612984411
10
5.2959012347146679
20
-2.6016281612573966
42
0.1535667221548852
10
5.8316938784129313
20
0.89827347291901316
42
-0.30934765195732522
10
6.32003586225406
20
1.9165485795207089
10
14.668439088382318
20
6.7365023308178902
42
-0.39765930044689568
10
16.004656450142004
20
6.4188752180454012
42
0.094217614478259049
10
27.167271066425471
20
-5.1314875618353097
42
-0.38780781017888211
10
27.456674867351211
20
-6.448498900269187
10
26.415669137197906
20
-8.2515737158580311
42
-0.41421356237376095
10
25.049643733408352
20
-8.617599119636278
10
23.547057480853887
20
-7.7500805422389973
42
0.16011651319857964
0
LWPOLYLINE
5
112
100
AcDbEntity
8
0
100
AcDbPolyline
90
12
70
1
43
0.0
10
-5.3783958985978693
20
2.4244055089001701
42
0.5124131870261428
10
-0.58936329570014101
20
-5.8704418360131871
42
-0.5444391225355697
10
0.17668936309502975
20
-7.3654320904478112
10
-1.7926065145481314
20
-10.776351717942692
42
-0.26795023070033253
10
-2.6586316902085141
20
-11.276351964738112
10
-12.488100694957229
20
-11.276351857308597
42
-0.25860728878423822
10
-13.336128335248759
20
-10.806303856352566
42
-0.017474377604313508
10
-16.026360951316349
20
-6.1466841394598513
42
-0.25860729894547907
10
-16.009420595873188
20
-5.1772466268407635
10
-11.094686235633162
20
3.335321405734248
42
-0.26795005970954289
10
-10.228661131202943
20
3.835321811685402
10
-6.2900690411770928
20
3.8353216573941755
42
-0.5444390798928278
0
CIRCLE
5
113
100
AcDbEntity
8
0
100
AcDbCircle
10
0
20
0
30
0
40
3.3500000000010743
210
0
220
-0
230
1
0
ENDSEC
0
SECTION
2
OBJECTS
0
DICTIONARY
5
C
100
AcDbDictionary
3
ACAD_GROUP
350
D
3
ACAD_MLINESTYLE
350
17
0
DICTIONARY
5
D
100
AcDbDictionary
0
DICTIONARY
5
1A
330
C
100
AcDbDictionary
0
DICTIONARY
5
17
100
AcDbDictionary
0
ENDSEC
0
EOF
