0
SECTION
2
HEADER
9
$INSUNITS
70
4
9
$ACADVER
1
AC1014
9
$HANDSEED
5
FFFF
0
ENDSEC
0
SECTION
2
TABLES
0
TABLE
2
VPORT
5
8
100
AcDbSymbolTable
0
ENDTAB
0
TABLE
2
LTYPE
5
5
100
AcDbSymbolTable
0
LTYPE
5
14
100
AcDbSymbolTableRecord
100
AcDbLinetypeTableRecord
2
BYBLOCK
70
0
0
LTYPE
5
15
100
AcDbSymbolTableRecord
100
AcDbLinetypeTableRecord
2
BYLAYER
70
0
0
LTYPE
5
16
100
AcDbSymbolTableRecord
100
AcDbLinetypeTableRecord
2
DASHED
70
0
3
Dashed __ __ __ __ __ __ __ __ __ __ __ __ __ _
72
65
73
2
40
0.75
49
0.5
74
0
49
-0.25
74
0
0
ENDTAB
0
TABLE
2
LAYER
5
2
100
AcDbSymbolTable
70
3
0
LAYER
5
50
100
AcDbSymbolTableRecord
100
AcDbLayerTableRecord
2
1
70
0
62
7
6
DASHED
0
LAYER
5
51
100
AcDbSymbolTableRecord
100
AcDbLayerTableRecord
2
0
70
0
62
7
6
CONTINUOUS
0
ENDTAB
0
TABLE
2
STYLE
5
3
100
AcDbSymbolTable
70
1
0
STYLE
5
11
100
AcDbSymbolTableRecord
100
AcDbTextStyleTableRecord
2
STANDARD
70
0
0
ENDTAB
0
TABLE
2
VIEW
5
6
100
AcDbSymbolTable
70
0
0
ENDTAB
0
TABLE
2
UCS
5
7
100
AcDbSymbolTable
70
0
0
ENDTAB
0
TABLE
2
APPID
5
9
100
AcDbSymbolTable
70
2
0
APPID
5
12
100
AcDbSymbolTableRecord
100
AcDbRegAppTableRecord
2
ACAD
70
0
0
ENDTAB
0
TABLE
2
DIMSTYLE
5
A
100
AcDbSymbolTable
70
1
0
ENDTAB
0
TABLE
2
BLOCK_RECORD
5
1
100
AcDbSymbolTable
70
1
0
BLOCK_RECORD
5
1F
100
AcDbSymbolTableRecord
100
AcDbBlockTableRecord
2
*MODEL_SPACE
0
BLOCK_RECORD
5
1B
100
AcDbSymbolTableRecord
100
AcDbBlockTableRecord
2
*PAPER_SPACE
0
ENDTAB
0
ENDSEC
0
SECTION
2
BLOCKS
0
BLOCK
5
20
100
AcDbEntity
100
AcDbBlockBegin
2
*MODEL_SPACE
0
ENDBLK
5
21
100
AcDbEntity
100
AcDbBlockEnd
0
BLOCK
5
1C
100
AcDbEntity
100
AcDbBlockBegin
2
*PAPER_SPACE
0
ENDBLK
5
1D
100
AcDbEntity
100
AcDbBlockEnd
0
ENDSEC
0
SECTION
2
ENTITIES
0
LWPOLYLINE
5
100
100
AcDbEntity
8
0
100
AcDbPolyline
90
226
70
1
43
0.0
10
-16
20
19.999999999999499
42
0.41421356237309503
10
-20
20
15.999999999999499
10
-20
20
5.5999999999995032
42
0.41421356237309503
10
-18.5
20
4.0999999999994428
10
-16.350000000000001
20
4.099999999999997
42
0.41421356237309503
10
-15.350000000000112
20
5.0999999999999002
10
-15.350000000000001
20
6.5999999999994996
42
0.41421356237309503
10
-15.850000000000005
20
7.0999999999994445
10
-17.5
20
7.0999999999995556
42
-0.41421356237309503
10
-17.999999999999943
20
7.5999999999995005
42
-0.41421356237309503
10
-15.500000000000004
20
10.09999999999944
10
-14.292388155425799
20
10.09999999999936
42
-0.19891236737964854
10
-10.756854249493113
20
8.6355339059326894
10
-9.064466094067642
20
6.943145750507858
42
-0.19891236737968004
10
-7.6000000000001124
20
3.4076118445748982
10
-7.6000000000000014
20
-3.4076118445749999
42
-0.19891236737962487
10
-9.0644660940668143
20
-6.9431457505072878
10
-10.756854249492743
20
-8.6355339059332614
42
-0.19891236737962106
10
-14.292388155424902
20
-10.099999999999989
10
-15.500000000000004
20
-10.100000000000041
42
-0.41421356237309503
10
-17.999999999999943
20
-7.6000000000001
42
-0.41421356237309503
10
-17.5
20
-7.1000000000001551
10
-15.850000000000005
20
-7.0999999999999002
42
0.41421356237309503
10
-15.350000000000058
20
-6.6000000000000014
10
-15.350000000000001
20
-5.1000000000001
42
0.41421356237309503
10
-16.350000000000001
20
-4.1000000000002101
10
-18.5000000000006
20
-4.1000000000000014
42
0.41421356237297796
10
-20.000000000000064
20
-5.6000000000001009
10
-20
20
-34.400000000000205
42
0.4142135623730942
10
-18.5
20
-35.900000000000261
10
-16.350000000000001
20
-35.900000000000098
42
0.41421356237309503
10
-15.350000000000112
20
-34.900000000000205
10
-15.350000000000001
20
-33.400000000000098
42
0.41421356237309503
10
-15.850000000000005
20
-32.900000000000155
10
-17.5
20
-32.90000000000105
42
-0.41421356237309503
10
-17.99999999999994
20
-32.4000000000011
42
-0.4142135623728963
10
-15.500000000001698
20
-29.900000000001164
10
-14.292388155428807
20
-29.900000000000642
42
-0.1989123673798085
10
-10.756854249493063
20
-31.364466094067364
10
-9.0644660940676953
20
-33.056854249493298
42
-0.19891236737968385
10
-7.6000000000001124
20
-36.592388155426306
10
-7.6000000000000032
20
-43.407611844575911
42
-0.19891236737973139
10
-9.0644660940682638
20
-46.943145750509643
10
-10.756854249493388
20
-48.635533905935127
42
-0.19891236737957363
10
-14.292388155424902
20
-50.100000000001202
10
-15.500000000000004
20
-50.100000000001145
42
-0.41421356237309503
10
-17.999999999999943
20
-47.600000000001202
42
-0.41421356237309503
10
-17.5
20
-47.100000000001259
10
-15.850000000000005
20
-47.10000000000111
42
0.41421356237309503
10
-15.350000000000058
20
-46.600000000001103
10
-15.350000000000001
20
-45.100000000001316
42
0.41421356237309503
10
-16.350000000000001
20
-44.100000000001423
10
-18.5
20
-44.100000000001209
42
0.41421356237309503
10
-20.000000000000064
20
-45.600000000001302
10
-20
20
-56.000000000001009
42
0.41421356237309503
10
-16
20
-60.000000000001009
10
-5.600000000000005
20
-60.000000000001208
42
0.41421356237309503
10
-4.0999999999999446
20
-58.500000000001208
10
-4.1000000000000014
20
-56.350000000001202
42
0.41421356237309503
10
-5.1000000000000023
20
-55.350000000001316
10
-6.6000000000000014
20
-55.350000000001209
42
0.41421356237309503
10
-7.0999999999999464
20
-55.85000000000111
10
-7.1000000000000574
20
-57.500000000000995
42
-0.41421356237309503
10
-7.6000000000000023
20
-58.000000000000938
42
-0.41421356237309503
10
-10.099999999999943
20
-55.500000000001002
10
-10.100000000000005
20
-54.29238815542611
42
-0.19891236737963977
10
-8.6355339059329896
20
-50.756854249493621
10
-6.9431457505079148
20
-49.06446609406899
42
-0.19891236737969886
10
-3.4076118445746979
20
-47.600000000001202
10
3.4076118445751002
20
-47.600000000001415
42
-0.19891236737959567
10
6.9431457505068996
20
-49.064466094067797
10
8.6355339059317551
20
-50.756854249491646
42
-0.19891236737967716
10
10.099999999999888
20
-54.292388155424298
10
10.100000000000238
20
-55.500000000001002
42
-0.41421356237309503
10
7.6000000000002998
20
-58.000000000000938
42
-0.41421356237309503
10
7.1000000000003549
20
-57.500000000000995
10
7.0999999999999996
20
-55.85000000000111
42
0.41421356237309503
10
6.6000000000000991
20
-55.350000000001167
10
5.1000000000002998
20
-55.350000000001401
42
0.41421356237309503
10
4.10000000000041
20
-56.350000000001202
10
4.0999999999999996
20
-58.500000000001208
42
0.41421356237309503
10
5.6000000000002981
20
-60.000000000001265
10
16
20
-60.000000000000995
42
0.41421356237309503
10
20
20
-56.000000000001009
10
20.00000000000022
20
-45.600000000001302
42
0.41421356237309503
10
18.500000000000171
20
-44.100000000001245
10
16.350000000000293
20
-44.100000000001401
42
0.41421356237309503
10
15.350000000000401
20
-45.100000000001316
10
15.350000000000179
20
-46.600000000001103
42
0.41421356237309503
10
15.850000000000119
20
-47.100000000001046
10
17.50000000000006
20
-47.100000000001259
42
-0.41421356237309503
10
17.999999999999986
20
-47.600000000001202
42
-0.41421356237309503
10
15.50000000000005
20
-50.100000000001145
10
14.292388155425089
20
-50.100000000001316
42
-0.19891236737968326
10
10.756854249492008
20
-48.635533905933706
10
9.0644660940670274
20
-46.943145750507178
42
-0.19891236737960769
10
7.600000000000481
20
-43.4076118445752
10
7.6000000000005086
20
-36.592388155425205
42
-0.19891236737962972
10
9.0644660940673472
20
-33.05685424949295
10
10.756854249492079
20
-31.364466094067893
42
-0.19891236737968374
10
14.292388155425089
20
-29.900000000000311
10
15.50000000000005
20
-29.900000000001164
42
-0.41421356237309503
10
18.000000000000004
20
-32.4000000000011
42
-0.41421356237309503
10
17.50000000000006
20
-32.90000000000105
10
15.850000000000119
20
-32.900000000000198
42
0.41421356237309503
10
15.350000000000176
20
-33.400000000000098
10
15.350000000000401
20
-34.900000000000205
42
0.41421356237309503
10
16.350000000000293
20
-35.900000000000091
10
18.500000000000171
20
-35.900000000000503
42
0.41421356237309503
10
20.000000000000231
20
-34.400000000000205
10
20
20
-21.21961524227104
42
0.26794919243103876
10
19.850000000000254
20
-20.959807621135514
42
-0.26794919243113891
10
19.700000000000255
20
-20.700000000000202
10
19.700000000000031
20
-20.000000000000945
42
-0.41421356237266149
10
20
20
-19.700000000001424
10
20.700000000000145
20
-19.700000000000916
42
-0.26794919243104026
10
20.959807621135454
20
-19.850000000000851
42
0.26794919243055154
10
21.21961524227121
20
-19.999999999999815
10
34.400000000000198
20
-20.000000000000281
42
0.41421356237309503
10
35.900000000000261
20
-18.500000000000224
10
35.899999999999999
20
-16.350000000000122
42
0.41421356237309503
10
34.900000000000098
20
-15.350000000000232
10
33.399999999999999
20
-15.350000000000012
42
0.41421356237309503
10
32.900000000000055
20
-15.849999999999962
10
32.900000000000141
20
-17.50000000000011
42
-0.41421356237309503
10
32.400000000000198
20
-18.00000000000005
42
-0.41421356237287937
10
29.900000000000261
20
-15.500000000001952
10
29.899999999999203
20
-14.292388155429713
42
-0.19891236737982812
10
31.364466094066174
20
-10.756854249493582
10
33.056854249492531
20
-9.0644660940674306
42
-0.19891236737966608
10
36.592388155425304
20
-7.6000000000000902
10
43.4076118445752
20
-7.5999999999999819
42
-0.19891236737966214
10
46.943145750507995
20
-9.064466094067301
10
48.635533905933315
20
-10.756854249493134
42
-0.19891236737951465
10
50.099999999999895
20
-14.292388155423311
10
50.099999999999937
20
-15.499999999999192
42
-0.41421356237320273
10
47.599999999999994
20
-18.000000000000057
42
-0.41421356237309503
10
47.100000000000051
20
-17.50000000000011
10
47.100000000000009
20
-15.849999999999962
42
0.41421356237309503
10
46.600000000000001
20
-15.350000000000017
10
45.099999999999994
20
-15.350000000000232
42
0.41421356237309503
10
44.100000000000108
20
-16.350000000000122
10
44.100000000000307
20
-18.500000000000224
42
0.41421356237309503
10
45.600000000000009
20
-20.000000000000284
10
56
20
-20.000000000000057
42
0.41421356237309503
10
60
20
-16.000000000000053
10
60
20
-5.6000000000001009
42
0.41421356237309503
10
58.5
20
-4.1000000000000405
10
56.349999999999994
20
-4.1000000000002013
42
0.41421356237309503
10
55.350000000000108
20
-5.1000000000001
10
55.350000000000001
20
-6.6000000000000014
42
0.41421356237309503
10
55.850000000000009
20
-7.0999999999999464
10
57.5
20
-7.1000000000001551
42
-0.41421356237309503
10
57.999999999999943
20
-7.6000000000001
42
-0.41421356237309503
10
55.500000000000007
20
-10.100000000000041
10
54.292388155425201
20
-10.100000000000103
42
-0.19891236737962142
10
50.75685424949296
20
-8.635533905933336
10
49.064466094068194
20
-6.9431457505083136
42
-0.19891236737969112
10
47.600000000000513
20
-3.4076118445752006
10
47.600000000000549
20
3.4076118445748991
42
-0.19891236737962498
10
49.064466094067321
20
6.9431457505070879
10
50.7568542494922
20
8.6355339059322116
42
-0.19891236737968362
10
54.292388155425201
20
10.099999999999788
10
55.500000000000007
20
10.099999999999438
42
-0.41421356237309503
10
57.999999999999943
20
7.5999999999995005
42
-0.41421356237309503
10
57.5
20
7.0999999999995556
10
55.850000000000009
20
7.0999999999995023
42
0.41421356237309503
10
55.350000000000065
20
6.5999999999994996
10
55.350000000000399
20
5.0999999999999002
42
0.41421356237309503
10
56.349999999999994
20
4.1000000000000103
10
58.5
20
4.0999999999998016
42
0.41421356237309503
10
60.000000000000057
20
5.5999999999995032
10
60
20
15.999999999999499
42
0.41421356237309503
10
56
20
19.999999999999499
10
45.600000000000009
20
19.999999999999996
42
0.41421356237309503
10
44.099999999999952
20
18.499999999999901
10
44.100000000000307
20
16.3499999999995
42
0.41421356237309503
10
45.099999999999994
20
15.349999999999611
10
46.600000000000001
20
15.3499999999995
42
0.41421356237309503
10
47.099999999999945
20
15.849999999999502
10
47.100000000000051
20
17.499999999999499
42
-0.41421356237309503
10
47.599999999999994
20
17.999999999999439
42
-0.41421356237341239
10
50.100000000001145
20
15.499999999998
10
50.099999999999852
20
14.292388155424899
42
-0.19891236737958079
10
48.635533905933684
20
10.756854249493308
10
46.943145750509309
20
9.0644660940680932
42
-0.1989123673797501
10
43.407611844575399
20
7.5999999999996106
10
36.592388155425304
20
7.5999999999995005
42
-0.19891236737963203
10
33.056854249492915
20
9.064466094066411
10
31.364466094067936
20
10.756854249491738
42
-0.1989123673796947
10
29.900000000000212
20
14.292388155424899
10
29.900000000000261
20
15.499999999999501
42
-0.41421356237309503
10
32.400000000000198
20
17.999999999999442
42
-0.41421356237309503
10
32.900000000000141
20
17.499999999999499
10
32.900000000000098
20
15.849999999999502
42
0.41421356237309503
10
33.399999999999999
20
15.349999999999557
10
34.900000000000098
20
15.349999999999898
42
0.41421356237309503
10
35.899999999999991
20
16.3499999999995
10
35.900000000000304
20
18.499999999999901
42
0.41421356237309503
10
34.400000000000198
20
19.999999999999961
10
5.6000000000002981
20
19.999999999999996
42
0.41421356237309503
10
4.1000000000002377
20
18.499999999999901
10
4.1000000000003993
20
16.3499999999995
42
0.41421356237309503
10
5.1000000000002998
20
15.349999999999611
10
6.6000000000000991
20
15.3499999999995
42
0.41421356237309503
10
7.1000000000000441
20
15.849999999999502
10
7.1000000000003549
20
17.499999999999499
42
-0.41421356237309503
10
7.6000000000002998
20
17.999999999999442
42
-0.41421356237309503
10
10.100000000000239
20
15.499999999999501
10
10.099999999999859
20
14.292388155424899
42
-0.19891236737962487
10
8.6355339059330873
20
10.756854249492708
10
6.9431457505090579
20
9.0644660940679405
42
-0.1989123673797388
10
3.4076118445752983
20
7.5999999999996106
10
-3.4076118445746983
20
7.5999999999995005
42
-0.19891236737963597
10
-6.9431457505071359
20
9.0644660940664643
10
-8.6355339059321139
20
10.75685424949169
42
-0.19891236737969828
10
-10.099999999999891
20
14.292388155424899
10
-10.099999999999943
20
15.499999999999501
42
-0.41421356237309503
10
-7.6000000000000023
20
17.999999999999442
42
-0.41421356237309503
10
-7.1000000000000574
20
17.499999999999499
10
-7.1000000000000041
20
15.849999999999502
42
0.41421356237309503
10
-6.6000000000000014
20
15.349999999999557
10
-5.1000000000000023
20
15.349999999999898
42
0.41421356237309503
10
-4.1000000000001124
20
16.3499999999995
10
-4.1000000000000014
20
18.499999999999901
42
0.41421356237309503
10
-5.600000000000005
20
19.999999999999961
0
LWPOLYLINE
5
101
100
AcDbEntity
8
0
100
AcDbPolyline
90
8
70
1
43
0.0
10
-16
20
18.199999999999498
42
0.41421356237309503
10
-18.199999999999999
20
15.999999999999499
10
-18.19999999999995
20
12.299999999999498
42
0.41421356237309503
10
-17.700000000000003
20
11.7999999999995
10
-12.300000000000001
20
11.799999999999553
42
0.41421356237309503
10
-11.800000000000001
20
12.299999999999498
10
-11.800000000000054
20
17.699999999999999
42
0.41421356237309503
10
-12.300000000000001
20
18.199999999999999
0
LWPOLYLINE
5
102
100
AcDbEntity
8
0
100
AcDbPolyline
90
8
70
1
43
0.0
10
52.300000000000004
20
18.199999999999946
42
0.41421356237309503
10
51.800000000000061
20
17.699999999999999
10
51.800000000000061
20
12.299999999999498
42
0.41421356237309503
10
52.300000000000004
20
11.7999999999995
10
57.700000000000003
20
11.799999999999553
42
0.41421356237309503
10
58.200000000000003
20
12.299999999999498
10
58.199999999999754
20
15.999999999999499
42
0.41421356237309503
10
56
20
18.199999999999999
0
LWPOLYLINE
5
103
100
AcDbEntity
8
0
100
AcDbPolyline
90
8
70
1
43
0.0
10
-17.700000000000003
20
-51.800000000000168
42
0.41421356237309503
10
-18.19999999999995
20
-52.300000000000111
10
-18.199999999999999
20
-56.000000000001009
42
0.41421356237309503
10
-16
20
-58.200000000001211
10
-12.300000000000001
20
-58.200000000000955
42
0.41421356237309503
10
-11.800000000000001
20
-57.700000000001012
10
-11.800000000000054
20
-52.300000000000111
42
0.41421356237309503
10
-12.300000000000001
20
-51.800000000001205
0
LWPOLYLINE
5
104
100
AcDbEntity
8
0
100
AcDbPolyline
90
8
70
1
43
0.0
10
12.30000000000018
20
-51.800000000000168
42
0.41421356237309503
10
11.800000000000235
20
-52.300000000000111
10
11.800000000000235
20
-57.700000000001012
42
0.41421356237309503
10
12.30000000000018
20
-58.200000000000998
10
16
20
-58.200000000001204
42
0.41421356237309503
10
18.200000000000202
20
-56.000000000001009
10
18.199999999999974
20
-52.300000000000111
42
0.41421356237309503
10
17.700000000000028
20
-51.800000000001205
0
LWPOLYLINE
5
105
100
AcDbEntity
8
0
100
AcDbPolyline
90
8
70
1
43
0.0
10
56
20
-18.200000000000053
42
0.41421356237297652
10
58.199999999999996
20
-16.000000000000941
10
58.199999999999946
20
-12.300000000000022
42
0.41421356237309503
10
57.700000000000003
20
-11.800000000000072
10
52.300000000000004
20
-11.800000000000077
42
0.41421356237309503
10
51.799999999999997
20
-12.300000000000022
10
51.800000000000061
20
-17.700000000000081
42
0.41421356237309503
10
52.300000000000004
20
-18.200000000000252
0
LWPOLYLINE
5
106
100
AcDbEntity
8
0
100
AcDbPolyline
90
22
70
1
43
0.0
10
6.9431457505079974
20
-9.0644660940674022
42
0.19891236737966966
10
3.4076118445751016
20
-7.5999999999999801
10
-3.4076118445746975
20
-7.6000000000000911
42
0.19891236737968829
10
-6.943145750507802
20
-9.0644660940677007
10
-9.5142135623732713
20
-11.635533905932842
42
-0.19891236737952192
10
-13.049747468303403
20
-13.099999999999932
10
-13.500000000001101
20
-13.100000000000151
42
0.41421356237296603
10
-16
20
-15.600000000000092
10
-15.999999999999941
20
-24.400000000001132
42
0.41421356237369283
10
-13.499999999994898
20
-26.900000000001075
10
-13.049747468315704
20
-26.900000000000325
42
-0.1989123673801784
10
-9.5142135623730049
20
-28.364466094067659
10
-6.9431457505074512
20
-30.935533905932854
42
0.19891236737965912
10
-3.4076118445746979
20
-32.400000000000105
10
3.4076118445745989
20
-32.40000000000002
42
0.1989123673796879
10
6.9431457505078997
20
-30.935533905932907
10
9.5142135623730013
20
-28.364466094067975
42
-0.19891236737955378
10
13.049747468303519
20
-26.900000000000411
10
13.500000000001283
20
-26.900000000000183
42
0.41421356237294493
10
16
20
-24.400000000000244
10
15.999999999999941
20
-19.156854249493133
42
0.19891236737963822
10
15.26776695296649
20
-17.38908729652691
0
LWPOLYLINE
5
107
100
AcDbEntity
8
0
100
AcDbPolyline
90
22
70
1
43
0.0
10
32.399999999999892
20
3.4076118445748991
42
0.19891236737961823
10
30.935533905933063
20
6.9431457505069609
10
28.364466094066799
20
9.5142135623729391
42
-0.19891236737947621
10
26.90000000000035
20
13.049747468302396
10
26.900000000000119
20
13.499999999999499
42
0.41421356237309503
10
24.400000000000183
20
15.999999999999499
10
15.600000000000261
20
15.999999999999439
42
0.41421356237309503
10
13.100000000000321
20
13.499999999999499
10
13.099999999999847
20
13.049747468306002
42
-0.19891236737962625
10
11.635533905933059
20
9.5142135623738042
10
9.0644660940670985
20
6.943145750506905
42
0.19891236737961149
10
7.6000000000004997
20
3.4076118445748982
10
7.600000000000481
20
-3.4076118445752011
42
0.19891236737962598
10
9.0644660940672992
20
-6.9431457505074023
10
17.389087296525993
20
-15.267766952966348
42
0.19891236737967122
10
19.156854249492412
20
-16.000000000000043
10
24.40000000000019
20
-16.000000000000931
42
0.41421356237309398
10
26.900000000000126
20
-13.500000000000991
10
26.900000000000187
20
-13.049747468307151
42
-0.19891236737963619
10
28.364466094067158
20
-9.5142135623747031
10
30.935533905932992
20
-6.943145750507691
42
0.19891236737963972
10
32.400000000000006
20
-3.4076118445752002
0
CIRCLE
5
108
100
AcDbEntity
8
0
100
AcDbCircle
10
0
20
-40.000000000001009
30
-1.9916793908560302e-15
40
3.4000000000000901
210
0
220
1.6081428723391235e-16
230
-1
0
CIRCLE
5
109
100
AcDbEntity
8
0
100
AcDbCircle
10
-40
20
7.1415889750309146e-31
30
-4.4408920985006262e-15
40
3.4000000000000901
210
0
220
1.6081428723391235e-16
230
-1
0
CIRCLE
5
110
100
AcDbEntity
8
0
100
AcDbCircle
10
0
20
0
30
0
40
3.4000000000000901
210
0
220
1.6081428723391235e-16
230
-1
0
LWPOLYLINE
5
111
100
AcDbEntity
8
0
100
AcDbPolyline
90
226
70
1
43
0.0
10
-16
20
19.999999999999499
42
0.41421356237309492
10
-20
20
15.999999999999499
10
-20
20
5.5999999999995032
42
0.41421356237309465
10
-18.5
20
4.0999999999994436
10
-16.350000000000001
20
4.099999999999997
42
0.41421356237309598
10
-15.350000000000112
20
5.0999999999999002
10
-15.350000000000001
20
6.5999999999994996
42
0.41421356237309764
10
-15.850000000000005
20
7.0999999999994445
10
-17.5
20
7.0999999999995556
42
-0.41421356237309503
10
-17.999999999999943
20
7.5999999999995005
42
-0.41421356237309503
10
-15.500000000000004
20
10.09999999999944
10
-14.292388155425799
20
10.09999999999936
42
-0.19891236737964865
10
-10.756854249493113
20
8.6355339059326859
10
-9.0644660940676438
20
6.9431457505078598
42
-0.19891236737968016
10
-7.6000000000001124
20
3.4076118445748973
10
-7.6000000000000023
20
-3.4076118445749994
42
-0.19891236737962498
10
-9.0644660940668143
20
-6.9431457505072895
10
-10.756854249492743
20
-8.6355339059332614
42
-0.19891236737962106
10
-14.292388155424902
20
-10.099999999999989
10
-15.500000000000004
20
-10.100000000000041
42
-0.41421356237309503
10
-17.999999999999943
20
-7.6000000000001
42
-0.41421356237309503
10
-17.5
20
-7.1000000000001551
10
-15.850000000000005
20
-7.0999999999999002
42
0.41421356237309764
10
-15.350000000000058
20
-6.6000000000000014
10
-15.350000000000001
20
-5.1000000000001
42
0.41421356237309598
10
-16.350000000000001
20
-4.100000000000211
10
-18.5000000000006
20
-4.1000000000000014
42
0.41421356237297691
10
-20.000000000000064
20
-5.6000000000001009
10
-20
20
-34.400000000000205
42
0.41421356237309287
10
-18.5
20
-35.900000000000261
10
-16.350000000000001
20
-35.900000000000098
42
0.41421356237309631
10
-15.350000000000108
20
-34.900000000000205
10
-15.350000000000001
20
-33.400000000000098
42
0.41421356237309115
10
-15.850000000000005
20
-32.900000000000162
10
-17.5
20
-32.90000000000105
42
-0.41421356237309503
10
-17.99999999999994
20
-32.4000000000011
42
-0.4142135623728963
10
-15.500000000001698
20
-29.900000000001164
10
-14.292388155428807
20
-29.900000000000642
42
-0.1989123673798085
10
-10.756854249493063
20
-31.364466094067364
10
-9.0644660940676953
20
-33.056854249493298
42
-0.19891236737968385
10
-7.6000000000001124
20
-36.592388155426306
10
-7.6000000000000032
20
-43.407611844575911
42
-0.19891236737973139
10
-9.0644660940682638
20
-46.943145750509643
10
-10.756854249493388
20
-48.635533905935127
42
-0.19891236737957363
10
-14.292388155424902
20
-50.100000000001202
10
-15.500000000000004
20
-50.100000000001145
42
-0.41421356237309503
10
-17.999999999999943
20
-47.600000000001202
42
-0.41421356237309503
10
-17.5
20
-47.100000000001259
10
-15.850000000000005
20
-47.10000000000111
42
0.41421356237310281
10
-15.350000000000064
20
-46.600000000001103
10
-15.350000000000001
20
-45.100000000001316
42
0.41421356237309503
10
-16.350000000000001
20
-44.100000000001423
10
-18.5
20
-44.100000000001209
42
0.41421356237309548
10
-20.000000000000064
20
-45.600000000001302
10
-20
20
-56.000000000001009
42
0.4142135623730937
10
-16
20
-60.000000000001009
10
-5.600000000000005
20
-60.000000000001208
42
0.4142135623730957
10
-4.0999999999999446
20
-58.500000000001208
10
-4.1000000000000014
20
-56.350000000001202
42
0.41421356237309437
10
-5.1000000000000023
20
-55.350000000001316
10
-6.6000000000000014
20
-55.350000000001209
42
0.4142135623731022
10
-7.099999999999941
20
-55.85000000000111
10
-7.1000000000000574
20
-57.500000000000995
42
-0.41421356237309503
10
-7.6000000000000023
20
-58.000000000000938
42
-0.41421356237309503
10
-10.099999999999943
20
-55.500000000001002
10
-10.100000000000001
20
-54.29238815542611
42
-0.19891236737963977
10
-8.6355339059329879
20
-50.756854249493621
10
-6.9431457505079148
20
-49.06446609406899
42
-0.19891236737969886
10
-3.4076118445746966
20
-47.600000000001202
10
3.4076118445750985
20
-47.600000000001415
42
-0.19891236737959578
10
6.9431457505069005
20
-49.064466094067797
10
8.6355339059317551
20
-50.756854249491646
42
-0.19891236737967716
10
10.099999999999888
20
-54.292388155424298
10
10.100000000000238
20
-55.500000000001002
42
-0.41421356237309503
10
7.6000000000002998
20
-58.000000000000938
42
-0.41421356237309503
10
7.1000000000003549
20
-57.500000000000995
10
7.0999999999999996
20
-55.85000000000111
42
0.4142135623731022
10
6.6000000000000991
20
-55.35000000000116
10
5.1000000000002998
20
-55.350000000001401
42
0.41421356237309437
10
4.1000000000004118
20
-56.350000000001202
10
4.0999999999999996
20
-58.500000000001208
42
0.4142135623730957
10
5.6000000000002981
20
-60.000000000001265
10
16
20
-60.000000000000995
42
0.4142135623730937
10
20.000000000000004
20
-56.000000000001009
10
20.00000000000022
20
-45.600000000001302
42
0.41421356237309548
10
18.500000000000171
20
-44.100000000001245
10
16.350000000000293
20
-44.100000000001401
42
0.41421356237309503
10
15.350000000000401
20
-45.100000000001316
10
15.350000000000179
20
-46.600000000001103
42
0.41421356237310281
10
15.850000000000119
20
-47.10000000000106
10
17.50000000000006
20
-47.100000000001259
42
-0.41421356237309503
10
17.999999999999986
20
-47.600000000001202
42
-0.41421356237309503
10
15.50000000000005
20
-50.100000000001145
10
14.292388155425089
20
-50.100000000001316
42
-0.19891236737968326
10
10.756854249492008
20
-48.635533905933706
10
9.0644660940670274
20
-46.943145750507178
42
-0.19891236737960769
10
7.600000000000481
20
-43.4076118445752
10
7.6000000000005086
20
-36.592388155425205
42
-0.19891236737962972
10
9.0644660940673472
20
-33.05685424949295
10
10.756854249492079
20
-31.364466094067893
42
-0.19891236737968374
10
14.292388155425089
20
-29.900000000000311
10
15.50000000000005
20
-29.900000000001164
42
-0.41421356237309503
10
18.000000000000004
20
-32.4000000000011
42
-0.41421356237309503
10
17.50000000000006
20
-32.90000000000105
10
15.850000000000119
20
-32.900000000000198
42
0.41421356237308854
10
15.350000000000172
20
-33.400000000000098
10
15.350000000000401
20
-34.900000000000205
42
0.41421356237309631
10
16.350000000000293
20
-35.900000000000091
10
18.500000000000171
20
-35.900000000000503
42
0.41421356237309287
10
20.000000000000231
20
-34.400000000000205
10
20
20
-21.21961524227104
42
0.26794919243103532
10
19.850000000000254
20
-20.959807621135514
42
-0.26794919243113891
10
19.700000000000255
20
-20.700000000000202
10
19.700000000000031
20
-20.000000000000945
42
-0.41421356237266149
10
20
20
-19.700000000001424
10
20.700000000000145
20
-19.700000000000916
42
-0.26794919243104026
10
20.959807621135454
20
-19.850000000000851
42
0.26794919243053755
10
21.21961524227121
20
-19.999999999999815
10
34.400000000000198
20
-20.000000000000281
42
0.41421356237309337
10
35.900000000000261
20
-18.500000000000224
10
35.899999999999999
20
-16.350000000000122
42
0.41421356237309764
10
34.900000000000098
20
-15.350000000000232
10
33.399999999999999
20
-15.350000000000012
42
0.41421356237309503
10
32.900000000000055
20
-15.849999999999962
10
32.900000000000141
20
-17.50000000000011
42
-0.41421356237309503
10
32.400000000000198
20
-18.00000000000005
42
-0.41421356237287937
10
29.900000000000261
20
-15.500000000001952
10
29.899999999999203
20
-14.292388155429713
42
-0.19891236737982812
10
31.364466094066174
20
-10.756854249493582
10
33.056854249492531
20
-9.0644660940674306
42
-0.19891236737966608
10
36.592388155425304
20
-7.6000000000000902
10
43.4076118445752
20
-7.5999999999999819
42
-0.19891236737966214
10
46.943145750507995
20
-9.064466094067301
10
48.635533905933315
20
-10.756854249493134
42
-0.19891236737951465
10
50.099999999999895
20
-14.292388155423311
10
50.099999999999937
20
-15.499999999999192
42
-0.41421356237320273
10
47.599999999999994
20
-18.000000000000057
42
-0.41421356237309503
10
47.100000000000051
20
-17.50000000000011
10
47.100000000000009
20
-15.849999999999962
42
0.41421356237310153
10
46.600000000000001
20
-15.350000000000023
10
45.099999999999994
20
-15.350000000000232
42
0.41421356237309503
10
44.100000000000108
20
-16.350000000000122
10
44.100000000000307
20
-18.500000000000224
42
0.41421356237309548
10
45.600000000000009
20
-20.000000000000284
10
56
20
-20.000000000000057
42
0.4142135623730947
10
60
20
-16.000000000000053
10
60
20
-5.6000000000001009
42
0.4142135623730957
10
58.5
20
-4.1000000000000405
10
56.349999999999994
20
-4.1000000000002013
42
0.41421356237309437
10
55.350000000000108
20
-5.1000000000001
10
55.350000000000001
20
-6.6000000000000014
42
0.4142135623731022
10
55.850000000000009
20
-7.099999999999941
10
57.5
20
-7.1000000000001551
42
-0.41421356237309503
10
57.999999999999943
20
-7.6000000000001
42
-0.41421356237309503
10
55.500000000000007
20
-10.100000000000041
10
54.292388155425201
20
-10.100000000000101
42
-0.19891236737962154
10
50.75685424949296
20
-8.6355339059333343
10
49.064466094068202
20
-6.9431457505083145
42
-0.19891236737969123
10
47.600000000000513
20
-3.4076118445751997
10
47.600000000000549
20
3.4076118445748982
42
-0.19891236737962512
10
49.064466094067321
20
6.9431457505070888
10
50.7568542494922
20
8.6355339059322116
42
-0.19891236737968362
10
54.292388155425201
20
10.099999999999788
10
55.500000000000007
20
10.099999999999438
42
-0.41421356237309503
10
57.999999999999943
20
7.5999999999995005
42
-0.41421356237309503
10
57.5
20
7.0999999999995556
10
55.850000000000009
20
7.0999999999995023
42
0.4142135623731022
10
55.350000000000051
20
6.5999999999994996
10
55.350000000000399
20
5.0999999999999002
42
0.41421356237309437
10
56.349999999999994
20
4.1000000000000121
10
58.5
20
4.0999999999998016
42
0.4142135623730957
10
60.000000000000057
20
5.5999999999995032
10
60
20
15.999999999999499
42
0.4142135623730937
10
56
20
19.999999999999503
10
45.600000000000009
20
19.999999999999996
42
0.41421356237309548
10
44.099999999999952
20
18.499999999999901
10
44.100000000000307
20
16.3499999999995
42
0.41421356237309503
10
45.099999999999994
20
15.349999999999611
10
46.600000000000001
20
15.3499999999995
42
0.41421356237310281
10
47.099999999999952
20
15.849999999999502
10
47.100000000000051
20
17.499999999999499
42
-0.41421356237309503
10
47.599999999999994
20
17.999999999999439
42
-0.41421356237341239
10
50.100000000001145
20
15.499999999998
10
50.099999999999852
20
14.292388155424899
42
-0.19891236737958079
10
48.635533905933684
20
10.756854249493308
10
46.943145750509309
20
9.0644660940680932
42
-0.1989123673797501
10
43.407611844575399
20
7.5999999999996106
10
36.592388155425304
20
7.5999999999995005
42
-0.19891236737963203
10
33.056854249492915
20
9.064466094066411
10
31.364466094067936
20
10.756854249491738
42
-0.1989123673796947
10
29.900000000000212
20
14.292388155424899
10
29.900000000000261
20
15.499999999999501
42
-0.41421356237309503
10
32.400000000000198
20
17.999999999999442
42
-0.41421356237309503
10
32.900000000000141
20
17.499999999999499
10
32.900000000000098
20
15.849999999999502
42
0.41421356237309631
10
33.399999999999999
20
15.349999999999556
10
34.900000000000098
20
15.349999999999898
42
0.41421356237309764
10
35.899999999999991
20
16.3499999999995
10
35.900000000000304
20
18.499999999999901
42
0.41421356237309337
10
34.400000000000198
20
19.999999999999961
10
5.6000000000002981
20
19.999999999999996
42
0.41421356237309465
10
4.1000000000002395
20
18.499999999999901
10
4.1000000000003993
20
16.3499999999995
42
0.41421356237309598
10
5.1000000000002998
20
15.349999999999611
10
6.6000000000000991
20
15.3499999999995
42
0.41421356237309764
10
7.1000000000000441
20
15.849999999999502
10
7.1000000000003549
20
17.499999999999499
42
-0.41421356237309503
10
7.6000000000002998
20
17.999999999999442
42
-0.41421356237309503
10
10.100000000000239
20
15.499999999999501
10
10.099999999999858
20
14.292388155424899
42
-0.19891236737962498
10
8.6355339059330856
20
10.756854249492708
10
6.9431457505090588
20
9.0644660940679422
42
-0.19891236737973891
10
3.4076118445752974
20
7.5999999999996106
10
-3.4076118445746983
20
7.5999999999995005
42
-0.19891236737963597
10
-6.9431457505071359
20
9.0644660940664643
10
-8.6355339059321139
20
10.75685424949169
42
-0.19891236737969828
10
-10.099999999999891
20
14.292388155424899
10
-10.099999999999943
20
15.499999999999501
42
-0.41421356237309503
10
-7.6000000000000023
20
17.999999999999442
42
-0.41421356237309503
10
-7.1000000000000574
20
17.499999999999499
10
-7.1000000000000041
20
15.849999999999502
42
0.41421356237309764
10
-6.6000000000000014
20
15.349999999999557
10
-5.1000000000000023
20
15.349999999999898
42
0.41421356237309598
10
-4.1000000000001133
20
16.3499999999995
10
-4.1000000000000014
20
18.499999999999901
42
0.4142135623730942
10
-5.600000000000005
20
19.999999999999957
0
LWPOLYLINE
5
112
100
AcDbEntity
8
0
100
AcDbPolyline
90
8
70
1
43
0.0
10
-16
20
18.199999999999498
42
0.41421356237309559
10
-18.199999999999999
20
15.999999999999499
10
-18.19999999999995
20
12.299999999999498
42
0.41421356237309764
10
-17.700000000000003
20
11.7999999999995
10
-12.300000000000001
20
11.799999999999553
42
0.41421356237309764
10
-11.800000000000001
20
12.299999999999498
10
-11.800000000000054
20
17.699999999999999
42
0.41421356237309764
10
-12.300000000000001
20
18.199999999999999
0
LWPOLYLINE
5
113
100
AcDbEntity
8
0
100
AcDbPolyline
90
8
70
1
43
0.0
10
52.300000000000004
20
18.199999999999946
42
0.41421356237310281
10
51.800000000000054
20
17.699999999999999
10
51.800000000000061
20
12.299999999999498
42
0.41421356237310281
10
52.300000000000004
20
11.7999999999995
10
57.700000000000003
20
11.799999999999553
42
0.41421356237310542
10
58.200000000000003
20
12.299999999999498
10
58.199999999999754
20
15.999999999999499
42
0.41421356237309709
10
56
20
18.199999999999999
0
LWPOLYLINE
5
114
100
AcDbEntity
8
0
100
AcDbPolyline
90
8
70
1
43
0.0
10
-17.700000000000003
20
-51.800000000000168
42
0.41421356237310281
10
-18.199999999999946
20
-52.300000000000111
10
-18.199999999999999
20
-56.000000000001009
42
0.4142135623730977
10
-16
20
-58.200000000001211
10
-12.300000000000001
20
-58.200000000000955
42
0.41421356237310281
10
-11.800000000000001
20
-57.700000000001012
10
-11.800000000000054
20
-52.300000000000111
42
0.41421356237310281
10
-12.300000000000001
20
-51.800000000001205
0
LWPOLYLINE
5
115
100
AcDbEntity
8
0
100
AcDbPolyline
90
8
70
1
43
0.0
10
12.30000000000018
20
-51.800000000000168
42
0.41421356237310153
10
11.800000000000242
20
-52.300000000000111
10
11.800000000000235
20
-57.700000000001012
42
0.41421356237310153
10
12.30000000000018
20
-58.200000000000998
10
15.999999999999998
20
-58.200000000001204
42
0.41421356237312373
10
18.200000000000202
20
-56.000000000001009
10
18.199999999999974
20
-52.300000000000111
42
0.41421356237310153
10
17.700000000000028
20
-51.800000000001205
0
LWPOLYLINE
5
116
100
AcDbEntity
8
0
100
AcDbPolyline
90
8
70
1
43
0.0
10
56
20
-18.200000000000053
42
0.4142135623729768
10
58.199999999999996
20
-16.000000000000941
10
58.199999999999946
20
-12.300000000000022
42
0.41421356237310542
10
57.700000000000003
20
-11.800000000000072
10
52.300000000000004
20
-11.800000000000077
42
0.41421356237310281
10
51.799999999999997
20
-12.300000000000022
10
51.800000000000061
20
-17.700000000000081
42
0.41421356237310153
10
52.300000000000004
20
-18.200000000000252
0
CIRCLE
5
117
100
AcDbEntity
8
0
100
AcDbCircle
10
0
20
-40.000000000001009
30
0
40
3.4000000000000901
210
0
220
-0
230
1
0
CIRCLE
5
118
100
AcDbEntity
8
0
100
AcDbCircle
10
40
20
0
30
0
40
3.4000000000000901
210
0
220
-0
230
1
0
LWPOLYLINE
5
119
100
AcDbEntity
8
0
100
AcDbPolyline
90
22
70
1
43
0.0
10
6.9431457505079974
20
-9.0644660940674022
42
0.19891236737966944
10
3.4076118445751002
20
-7.5999999999999801
10
-3.4076118445747006
20
-7.6000000000000885
42
0.19891236737968748
10
-6.943145750507802
20
-9.0644660940677007
10
-9.5142135623732678
20
-11.63553390593284
42
-0.19891236737952203
10
-13.049747468303403
20
-13.099999999999932
10
-13.500000000001101
20
-13.100000000000151
42
0.41421356237296575
10
-16
20
-15.600000000000092
10
-15.999999999999941
20
-24.400000000001132
42
0.41421356237369411
10
-13.499999999994898
20
-26.900000000001075
10
-13.049747468315704
20
-26.900000000000325
42
-0.19891236738017828
10
-9.5142135623730049
20
-28.364466094067659
10
-6.9431457505074512
20
-30.935533905932854
42
0.1989123673796597
10
-3.4076118445746983
20
-32.400000000000105
10
3.4076118445746006
20
-32.40000000000002
42
0.1989123673796879
10
6.9431457505078997
20
-30.935533905932907
10
9.5142135623730013
20
-28.364466094067975
42
-0.19891236737955367
10
13.049747468303519
20
-26.900000000000411
10
13.500000000001279
20
-26.900000000000183
42
0.41421356237294649
10
16
20
-24.400000000000244
10
15.999999999999941
20
-19.156854249493133
42
0.19891236737963786
10
15.26776695296649
20
-17.38908729652691
0
LWPOLYLINE
5
120
100
AcDbEntity
8
0
100
AcDbPolyline
90
22
70
1
43
0.0
10
32.399999999999892
20
3.4076118445749004
42
0.19891236737961882
10
30.935533905933063
20
6.9431457505069609
10
28.364466094066799
20
9.5142135623729391
42
-0.19891236737947621
10
26.90000000000035
20
13.049747468302396
10
26.900000000000119
20
13.499999999999499
42
0.41421356237309531
10
24.400000000000183
20
15.999999999999499
10
15.600000000000261
20
15.999999999999439
42
0.41421356237309398
10
13.100000000000321
20
13.499999999999499
10
13.099999999999845
20
13.049747468306004
42
-0.19891236737962636
10
11.635533905933059
20
9.5142135623738042
10
9.0644660940671002
20
6.943145750506905
42
0.19891236737961132
10
7.6000000000004997
20
3.4076118445748986
10
7.6000000000004793
20
-3.4076118445752042
42
0.19891236737962525
10
9.0644660940672992
20
-6.9431457505074023
10
17.389087296525993
20
-15.267766952966348
42
0.19891236737967152
10
19.156854249492412
20
-16.000000000000043
10
24.40000000000019
20
-16.000000000000931
42
0.41421356237309426
10
26.900000000000126
20
-13.500000000000991
10
26.900000000000187
20
-13.049747468307151
42
-0.19891236737963619
10
28.364466094067158
20
-9.5142135623747031
10
30.935533905932992
20
-6.9431457505076892
42
0.19891236737963891
10
32.400000000000006
20
-3.4076118445752002
0
CIRCLE
5
121
100
AcDbEntity
8
0
100
AcDbCircle
10
0
20
0
30
0
40
3.4000000000000901
210
0
220
-0
230
1
0
ENDSEC
0
SECTION
2
OBJECTS
0
DICTIONARY
5
C
100
AcDbDictionary
3
ACAD_GROUP
350
D
3
ACAD_MLINESTYLE
350
17
0
DICTIONARY
5
D
100
AcDbDictionary
0
DICTIONARY
5
1A
330
C
100
AcDbDictionary
0
DICTIONARY
5
17
100
AcDbDictionary
0
ENDSEC
0
EOF
