0
SECTION
2
HEADER
9
$INSUNITS
70
4
9
$ACADVER
1
AC1014
9
$HANDSEED
5
FFFF
0
ENDSEC
0
SECTION
2
TABLES
0
TABLE
2
VPORT
5
8
100
AcDbSymbolTable
0
ENDTAB
0
TABLE
2
LTYPE
5
5
100
AcDbSymbolTable
0
LTYPE
5
14
100
AcDbSymbolTableRecord
100
AcDbLinetypeTableRecord
2
BYBLOCK
70
0
0
LTYPE
5
15
100
AcDbSymbolTableRecord
100
AcDbLinetypeTableRecord
2
BYLAYER
70
0
0
LTYPE
5
16
100
AcDbSymbolTableRecord
100
AcDbLinetypeTableRecord
2
DASHED
70
0
3
Dashed __ __ __ __ __ __ __ __ __ __ __ __ __ _
72
65
73
2
40
0.75
49
0.5
74
0
49
-0.25
74
0
0
ENDTAB
0
TABLE
2
LAYER
5
2
100
AcDbSymbolTable
70
3
0
LAYER
5
50
100
AcDbSymbolTableRecord
100
AcDbLayerTableRecord
2
1
70
0
62
7
6
DASHED
0
LAYER
5
51
100
AcDbSymbolTableRecord
100
AcDbLayerTableRecord
2
0
70
0
62
7
6
CONTINUOUS
0
ENDTAB
0
TABLE
2
STYLE
5
3
100
AcDbSymbolTable
70
1
0
STYLE
5
11
100
AcDbSymbolTableRecord
100
AcDbTextStyleTableRecord
2
STANDARD
70
0
0
ENDTAB
0
TABLE
2
VIEW
5
6
100
AcDbSymbolTable
70
0
0
ENDTAB
0
TABLE
2
UCS
5
7
100
AcDbSymbolTable
70
0
0
ENDTAB
0
TABLE
2
APPID
5
9
100
AcDbSymbolTable
70
2
0
APPID
5
12
100
AcDbSymbolTableRecord
100
AcDbRegAppTableRecord
2
ACAD
70
0
0
ENDTAB
0
TABLE
2
DIMSTYLE
5
A
100
AcDbSymbolTable
70
1
0
ENDTAB
0
TABLE
2
BLOCK_RECORD
5
1
100
AcDbSymbolTable
70
1
0
BLOCK_RECORD
5
1F
100
AcDbSymbolTableRecord
100
AcDbBlockTableRecord
2
*MODEL_SPACE
0
BLOCK_RECORD
5
1B
100
AcDbSymbolTableRecord
100
AcDbBlockTableRecord
2
*PAPER_SPACE
0
ENDTAB
0
ENDSEC
0
SECTION
2
BLOCKS
0
BLOCK
5
20
100
AcDbEntity
100
AcDbBlockBegin
2
*MODEL_SPACE
0
ENDBLK
5
21
100
AcDbEntity
100
AcDbBlockEnd
0
BLOCK
5
1C
100
AcDbEntity
100
AcDbBlockBegin
2
*PAPER_SPACE
0
ENDBLK
5
1D
100
AcDbEntity
100
AcDbBlockEnd
0
ENDSEC
0
SECTION
2
ENTITIES
0
LWPOLYLINE
5
100
100
AcDbEntity
8
0
100
AcDbPolyline
90
112
70
1
43
0.0
10
3.999999999999865
20
-18.5
42
0.41421356235744017
10
5.4999999999196802
20
-20.000000000000007
10
114.49999999991968
20
-20.000000000000217
42
0.41421356237309503
10
115.99999999991968
20
-18.500000000000199
10
115.99999999991968
20
-16.500000000000199
42
0.41421356237309503
10
114.99999999991969
20
-15.500000000000199
10
113.49999999991968
20
-15.500000000000201
42
0.41421356237309503
10
112.99999999991968
20
-16.000000000000199
10
112.99999999991969
20
-17.500000000000199
42
-0.41421356237309503
10
112.49999999991969
20
-18.000000000000199
42
-0.41421356237309503
10
109.99999999991969
20
-15.500000000000201
10
109.99999999991968
20
-14.22253967444181
42
-0.19891236737966886
10
110.58578643754663
20
-12.808326112068645
10
114.4725396743616
20
-8.9215728752538208
42
-0.19891236737964876
10
117.3009667991077
20
-7.7500000000001101
10
122.69903320073169
20
-7.7500000000001101
42
-0.19891236737964785
10
125.52746032547776
20
-8.9215728752538084
10
129.41421356229276
20
-12.808326112068652
42
-0.19891236737966689
10
129.99999999991968
20
-14.22253967444181
10
129.99999999991968
20
-15.500000000000201
42
-0.41421356237309503
10
127.49999999991969
20
-18.000000000000206
42
-0.41421356237309503
10
126.99999999991968
20
-17.500000000000199
10
126.99999999991968
20
-16.000000000000199
42
0.41421356237309503
10
126.49999999991969
20
-15.500000000000201
10
124.99999999991969
20
-15.500000000000201
42
0.41421356237309503
10
123.99999999991969
20
-16.500000000000199
10
123.99999999991969
20
-18.500000000000199
42
0.41421356237309503
10
125.49999999991968
20
-20.000000000000199
10
135.99999999991968
20
-20.000000000000199
42
0.41421356237309293
10
139.99999999991968
20
-16.000000000000231
10
139.99999999991968
20
-5.5000000000001981
42
0.41421356237309503
10
138.49999999991968
20
-4.0000000000001981
10
136.49999999991968
20
-4.000000000000199
42
0.41421356237309503
10
135.49999999991971
20
-5.0000000000001998
10
135.49999999991968
20
-6.500000000000199
42
0.41421356237309503
10
135.99999999991968
20
-7.000000000000199
10
137.49999999991968
20
-7.0000000000001927
42
-0.41421356237309503
10
137.99999999991968
20
-7.5000000000001998
42
-0.41421356237309503
10
135.49999999991968
20
-10.000000000000199
10
134.22253967436171
20
-10.00000000000027
42
-0.198912367379661
10
132.80832611198861
20
-9.4142135623733569
10
128.92157287517358
20
-5.5274603255586099
42
-0.1989123673796678
10
127.74999999991965
20
-2.6990332008122975
10
127.74999999991977
20
2.6990332008119982
42
-0.19891236737966955
10
128.92157287517361
20
5.5274603255582875
10
132.80832611198863
20
9.4142135623730425
42
-0.19891236737965073
10
134.22253967436171
20
9.9999999999999112
10
135.49999999991968
20
9.9999999999998845
42
-0.41421356237309503
10
137.99999999991968
20
7.4999999999999023
42
-0.41421356237309503
10
137.49999999991968
20
6.9999999999999041
10
135.99999999991968
20
6.9999999999998996
42
0.41421356237309503
10
135.49999999991968
20
6.4999999999999014
10
135.49999999991968
20
4.9999999999999023
42
0.41421356237309503
10
136.49999999991968
20
3.9999999999999023
10
138.49999999991968
20
3.9999999999999014
42
0.41421356237309503
10
139.99999999991968
20
5.4999999999999005
10
139.99999999991968
20
15.999999999999904
42
0.41421356237309503
10
135.99999999991968
20
19.999999999999861
10
-16.000000000080217
20
19.999999999999897
42
0.41421356236721552
10
-19.999999999999879
20
16.000000000000199
10
-19.999999999999922
20
5.5000000000002025
42
0.41421356237309503
10
-18.499999999999922
20
4.0000000000002025
10
-16.499999999999918
20
4.0000000000002034
42
0.41421356237309503
10
-15.499999999999918
20
5.0000000000002043
10
-15.499999999999918
20
6.5000000000002034
42
0.41421356237309503
10
-15.999999999999922
20
7.0000000000002043
10
-17.499999999999922
20
7.0000000000002061
42
-0.41421356237309503
10
-17.999999999999908
20
7.5000000000002043
42
-0.41421356237309503
10
-15.499999999999918
20
10.000000000000195
10
-14.222539674441521
20
10.000000000000213
42
-0.19891236737965753
10
-12.808326112068421
20
9.4142135623733072
10
-8.9215728752535899
20
5.5274603255584349
42
-0.1989123673796617
10
-7.7499999999999005
20
2.6990332008122042
10
-7.7499999999998872
20
-2.699033200811999
42
-0.19891236737966447
10
-8.9215728752537053
20
-5.5274603255583106
10
-12.808326112068546
20
-9.4142135623730745
42
-0.19891236737965776
10
-14.22253967444162
20
-9.999999999999968
10
-15.500000000000021
20
-9.9999999999999982
42
-0.41421356237308304
10
-17.999999999999922
20
-7.4999999999999982
42
-0.41421356237309503
10
-17.499999999999922
20
-6.9999999999999973
10
-15.999999999999922
20
-6.9999999999999973
42
0.41421356237309503
10
-15.49999999999992
20
-6.4999999999999991
10
-15.499999999999918
20
-4.9999999999999982
42
0.41421356237309503
10
-16.499999999999918
20
-3.9999999999999982
10
-18.499999999999922
20
-3.9999999999999991
42
0.41421356237307549
10
-19.999999999999922
20
-5.4999999999998987
10
-20.000000000000124
20
-15.99999999999995
42
0.41421356237310075
10
-16.000000000000021
20
-19.999999999999929
10
-5.5000000000001208
20
-19.999999999999968
42
0.41421356237309503
10
-4.0000000000001199
20
-18.499999999999972
10
-4.0000000000000613
20
-16.499999999999979
42
0.41421356237309764
10
-5.0000000000000195
20
-15.49999999999997
10
-6.5000000000000195
20
-15.499999999999961
42
0.41421356237309503
10
-7.0000000000000195
20
-15.999999999999961
10
-7.0000000000000195
20
-17.499999999999961
42
-0.41421356237315354
10
-7.5000000000001199
20
-17.999999999999961
42
-0.4142135623730846
10
-10.00000000000002
20
-15.49999999999995
10
-10.000000000000032
20
-14.22253967444156
42
-0.19891236737965939
10
-9.4142135623731207
20
-12.808326112068446
10
-5.5274603255583159
20
-8.9215728752537018
42
-0.1989123673796617
10
-2.6990332008120705
20
-7.7499999999998872
10
2.6990332008119484
20
-7.7499999999999076
42
-0.19891236737966089
10
5.5274603255581862
20
-8.9215728752537142
10
9.4142135623729857
20
-12.808326112068524
42
-0.19891236737965859
10
9.9999999999998792
20
-14.222539674441627
10
9.9999999999999094
20
-15.500000000000021
42
-0.41421356237309725
10
7.4999999999998801
20
-18.000000000000011
42
-0.41421356237308915
10
6.9999999999998899
20
-17.500000000000007
10
6.9999999999999005
20
-16.000000000000011
42
0.41421356237309503
10
6.4999999999999005
20
-15.500000000000009
10
4.9999999999998934
20
-15.5
42
0.41421356237309176
10
3.9999999999998934
20
-16.5
0
LWPOLYLINE
5
101
100
AcDbEntity
8
0
100
AcDbPolyline
90
14
70
1
43
0.0
10
127.93162338151269
20
-6.5174098192195995
10
130.74802307395564
20
-9.3338095116626381
42
-0.41421356237301221
10
130.74802307395569
20
-9.7580735803745018
10
129.75807358029368
20
-10.748023074035641
42
-0.41421356237244206
10
129.33380951158222
20
-10.748023074036157
10
126.51740981913969
20
-7.9316233815927983
42
0.19431256672771838
10
122.79468595785769
20
-6.3508472377549356
42
-0.40903460109861695
10
122.49999999991968
20
-6.0508943065190994
10
122.49999999991965
20
-4.4999999999997993
42
-0.25912602819720582
10
122.64150943388175
20
-4.2452830188678261
42
0.11490110622200223
10
124.24528301878757
20
-2.6415094339626344
42
-0.25912602819769831
10
124.49999999991968
20
-2.5000000000001608
10
126.05089430643869
20
-2.5000000000001799
42
-0.40903460109812823
10
126.35084723767451
20
-2.7946859579377015
42
0.1943125667277342
0
LWPOLYLINE
5
102
100
AcDbEntity
8
0
100
AcDbPolyline
90
14
70
1
43
0.0
10
131.39999999991969
20
-12.938477631085179
42
0.19891236737963477
10
131.31213203427566
20
-12.726345596729228
10
130.74802307389274
20
-12.162236636534269
42
-0.41421356211251464
10
130.74802307370402
20
-11.737972568011074
10
131.73797256506509
20
-10.748023074214146
42
-0.41421356225252343
10
132.1622366336897
20
-10.748023073711606
10
132.7263455967647
20
-11.312132034740809
42
0.19891236690820904
10
132.93847763073569
20
-11.400000000000205
10
138.29999999991969
20
-11.400000000000228
42
-0.41421356237309503
10
138.5999999999197
20
-11.700000000000239
10
138.59999999991973
20
-16.000000000000231
42
-0.41421356237309176
10
135.99999999991968
20
-18.600000000000229
10
131.6999999999197
20
-18.600000000000172
42
-0.41421356237309503
10
131.39999999991969
20
-18.300000000000161
0
LWPOLYLINE
5
103
100
AcDbEntity
8
0
100
AcDbPolyline
90
22
70
1
43
0.0
10
122.49999999991984
20
4.4999999999995044
42
0.25912602819693997
10
122.64150943388171
20
4.24528301886774
42
-0.11490110622203764
10
124.24528301878765
20
2.6415094339620881
42
0.2591260281973265
10
124.49999999991968
20
2.4999999999999023
10
125.6508472376747
20
2.4999999999998264
42
0.41421356237319046
10
125.95084723767469
20
2.7999999999999003
10
125.95084723767434
20
2.8655658635128995
42
-0.19891236737963031
10
127.53247061926669
20
6.6839424819201021
10
131.53553390551386
20
10.687005766526516
42
-0.19891236741264545
10
134.22253967320268
20
11.799999998837901
10
138.29999999991969
20
11.79999999883783
42
0.41421356237319046
10
138.59999999991967
20
12.099999998837902
10
138.5999999999197
20
16.0000000000245
42
0.41421356237309503
10
136.39999999991969
20
18.200000000024502
10
112.49999999987168
20
18.200000000003907
42
0.41421356237309503
10
109.99999999987168
20
15.700000000003907
10
109.99999999987169
20
14.222539674402199
42
0.19891236737613777
10
110.58578643749968
20
12.808326112068503
10
117.22253967431459
20
6.1715728752530996
42
0.19891236737964779
10
120.05096679906067
20
4.9999999999993028
10
122.1999999999197
20
4.9999999999943867
42
-0.41421356236616225
10
122.49999999991468
20
4.7000000000065034
0
LWPOLYLINE
5
104
100
AcDbEntity
8
0
100
AcDbPolyline
90
38
70
1
43
0.0
10
105.6999999999197
20
-18.200000000000202
10
14.299999999919688
20
-18.200000000000042
42
-0.4142135623637021
10
11.799999999999873
20
-15.700000000000029
10
11.79999999999991
20
-14.222539674441638
42
0.19891236737965851
10
10.687005768508783
20
-11.535533905932738
10
6.8002525316939701
20
-7.6487806691178983
42
0.19461397698000329
10
2.79503441971206
20
-5.9507945573577938
42
-0.40937366005812115
10
2.4999999999999694
20
-5.6508356551516004
10
2.4999999999999378
20
-4.4999999999995977
42
-0.2591260281974232
10
2.6415094339622351
20
-4.2452830188674904
42
0.11490110622198173
10
4.2452830188677524
20
-2.6415094339623919
42
-0.25912602819737557
10
4.4999999999995319
20
-2.499999999999952
10
4.6999999999999877
20
-2.5
42
0.41421356237307827
10
4.9999999999999769
20
-2.1999999999999997
10
4.9999999999999103
20
4.1916738878839013
42
-0.19891236731073444
10
6.1715728745036413
20
7.0201010118800466
10
10.687005767359421
20
11.535533907129803
42
0.19891236729454206
10
11.79999999883095
20
14.222539674402302
10
11.799999998832842
20
15.699999999960706
42
-0.41421356250038771
10
14.299999999919352
20
18.199999999960706
10
105.69999999987168
20
18.199999999960603
42
-0.41421356251544234
10
108.20000000108669
20
15.699999999960603
10
108.2000000010887
20
14.222539674402199
42
0.19891236737779652
10
109.31299423256038
20
11.535533907129397
10
113.82842712541614
20
7.0201010118797438
42
-0.19891236731072523
10
114.99999999991977
20
4.1916738878837032
10
114.99999999991969
20
-2.2000000000001974
42
0.41421356237309503
10
115.29999999991969
20
-2.5000000000002034
10
115.49999999992068
20
-2.5000000000001537
42
-0.25912602819673725
10
115.75471698105176
20
-2.6415094339625571
42
0.11490110622197339
10
117.35849056595761
20
-4.2452830188678004
42
-0.25912602819723007
10
117.49999999991972
20
-4.4999999999997993
10
117.49999999991996
20
-5.6508356551517984
42
-0.40937366005829517
10
117.2049655802077
20
-5.9507945573579928
42
0.19461397698000774
10
113.19974746822572
20
-7.6487806691181408
10
109.3129942314107
20
-11.535533905932908
42
0.19891236737965437
10
108.19999999991965
20
-14.22253967444181
10
108.1999999999197
20
-15.7000000000002
42
-0.41421356237309503
0
LWPOLYLINE
5
105
100
AcDbEntity
8
0
100
AcDbPolyline
90
14
70
1
43
0.0
10
-12.938477630816021
20
-11.399999999999944
42
0.19891236690844982
10
-12.726345596844661
20
-11.312132034740518
10
-12.162236633769609
20
-10.748023073711392
42
-0.41421356225197925
10
-11.737972565145384
20
-10.748023074213442
10
-10.748023073784406
20
-11.737972568010473
42
-0.41421356211307259
10
-10.74802307397279
20
-12.162236636534072
10
-11.312132034356019
20
-12.726345596728962
42
0.19891236737968829
10
-11.400000000000132
20
-12.938477631084918
10
-11.400000000000009
20
-18.299999999999908
42
-0.41421356237309503
10
-11.700000000000021
20
-18.59999999999992
10
-16.000000000000121
20
-18.599999999999813
42
-0.41421356237309281
10
-18.600000000000001
20
-15.99999999999995
10
-18.600000000000133
20
-11.69999999999996
42
-0.41421356237309503
10
-18.300000000000122
20
-11.399999999999949
0
LWPOLYLINE
5
106
100
AcDbEntity
8
0
100
AcDbPolyline
90
14
70
1
43
0.0
10
-2.7946859579375509
20
-6.3508472377547518
42
0.19431256672772246
10
-6.5174098192194796
20
-7.9316233815925363
10
-9.3338095116624906
20
-10.74802307403546
42
-0.41421356237307355
10
-9.7580735803744041
20
-10.748023074035405
10
-10.74802307403553
20
-9.7580735803743099
42
-0.41421356237316326
10
-10.748023074035579
20
-9.3338095116623396
10
-7.9316233815926207
20
-6.5174098192193997
42
0.19431256672772373
10
-6.3508472377548557
20
-2.794685957937499
42
-0.40903460109812567
10
-6.0508943065190195
20
-2.4999999999999791
10
-4.4999999999996199
20
-2.4999999999999591
42
-0.25912602819736613
10
-4.2452830188678616
20
-2.6415094339624035
42
0.11490110622198237
10
-2.6415094339622875
20
-4.2452830188675081
42
-0.2591260281974021
10
-2.5000000000000142
20
-4.4999999999995977
10
-2.5000000000000218
20
-6.0508943065188987
42
-0.40903460109811823
0
LWPOLYLINE
5
107
100
AcDbEntity
8
0
100
AcDbPolyline
90
22
70
1
43
0.0
10
-2.6415094339624079
20
4.2452830188679149
42
0.25912602819737723
10
-2.4999999999999867
20
4.4999999999997042
10
-2.499999999999992
20
4.7000000000066988
42
-0.41421356236616663
10
-2.1999999999999895
20
4.9999999999996048
10
-0.050966799140840513
20
4.9999999999996039
42
0.19891236737966017
10
2.7774603256054
20
6.1715728752534016
10
9.4142135624403682
20
12.808326112048892
42
0.19891236721794714
10
10.000000000047679
20
14.222539674402398
10
10.000000000047679
20
15.700000000004103
42
0.41421356237304585
10
7.5000000000480993
20
18.2000000000209
10
-16.399999999999523
20
18.200000000024797
42
0.41421356237314821
10
-18.599999999999923
20
16.000000000024798
10
-18.599999999999994
20
12.099999998838102
42
0.41421356237309503
10
-18.300000000000018
20
11.7999999988381
10
-14.222539673282618
20
11.799999999997965
42
-0.19891236741265308
10
-11.535533904773621
20
10.6870057673469
10
-7.5324706193473627
20
6.6839424819203597
42
-0.19891236737965107
10
-5.9508472377548198
20
2.8655658635131021
10
-5.950847237754795
20
2.8000000000001002
42
0.41421356237309503
10
-5.6508472377548191
20
2.5000000000000977
10
-4.4999999999996012
20
2.5000000000000924
42
0.25912602819740316
10
-4.2452830188678146
20
2.6415094339625678
42
-0.11490110622197972
0
CIRCLE
5
108
100
AcDbEntity
8
0
100
AcDbCircle
10
-119.99999999992069
20
3.0198066269804258e-13
30
0
40
3.3999999999915098
210
0
220
0
230
-1
0
CIRCLE
5
109
100
AcDbEntity
8
0
100
AcDbCircle
10
0
20
0
30
0
40
3.3999999999915098
210
0
220
0
230
-1
0
LWPOLYLINE
5
110
100
AcDbEntity
8
0
100
AcDbPolyline
90
112
70
1
43
0.0
10
3.999999999999865
20
-18.5
42
0.41421356235744128
10
5.4999999999196802
20
-20.000000000000007
10
114.49999999991968
20
-20.000000000000217
42
0.41421356237309853
10
115.99999999991971
20
-18.500000000000199
10
115.99999999991968
20
-16.500000000000199
42
0.4142135623730937
10
114.99999999991969
20
-15.500000000000206
10
113.49999999991968
20
-15.500000000000201
42
0.41421356237309243
10
112.99999999991968
20
-16.000000000000199
10
112.99999999991969
20
-17.500000000000199
42
-0.41421356237309503
10
112.49999999991969
20
-18.000000000000199
42
-0.41421356237309503
10
109.99999999991969
20
-15.500000000000201
10
109.99999999991968
20
-14.22253967444181
42
-0.19891236737966886
10
110.58578643754663
20
-12.808326112068645
10
114.4725396743616
20
-8.9215728752538208
42
-0.19891236737964876
10
117.3009667991077
20
-7.7500000000001101
10
122.69903320073169
20
-7.7500000000001101
42
-0.19891236737964785
10
125.52746032547776
20
-8.9215728752538084
10
129.41421356229276
20
-12.808326112068652
42
-0.19891236737966689
10
129.99999999991968
20
-14.22253967444181
10
129.99999999991968
20
-15.500000000000201
42
-0.41421356237309503
10
127.49999999991969
20
-18.000000000000206
42
-0.41421356237309503
10
126.99999999991968
20
-17.500000000000199
10
126.99999999991968
20
-16.000000000000199
42
0.41421356237309243
10
126.49999999991969
20
-15.500000000000199
10
124.99999999991969
20
-15.500000000000201
42
0.4142135623730937
10
123.99999999991969
20
-16.500000000000199
10
123.99999999991969
20
-18.500000000000199
42
0.41421356237308982
10
125.49999999991968
20
-20.000000000000213
10
135.99999999991968
20
-20.000000000000199
42
0.41421356237309492
10
139.99999999991968
20
-16.000000000000231
10
139.99999999991968
20
-5.5000000000001981
42
0.41421356237308915
10
138.49999999991968
20
-4.0000000000001892
10
136.49999999991968
20
-4.000000000000199
42
0.41421356237309664
10
135.49999999991971
20
-5.0000000000001998
10
135.49999999991968
20
-6.500000000000199
42
0.41421356237310542
10
135.99999999991968
20
-7.0000000000001883
10
137.49999999991968
20
-7.0000000000001927
42
-0.41421356237309503
10
137.99999999991968
20
-7.5000000000001998
42
-0.41421356237309503
10
135.49999999991968
20
-10.000000000000199
10
134.22253967436171
20
-10.000000000000268
42
-0.19891236737966123
10
132.80832611198861
20
-9.4142135623733552
10
128.92157287517358
20
-5.5274603255586099
42
-0.1989123673796678
10
127.74999999991965
20
-2.6990332008122975
10
127.74999999991977
20
2.6990332008119999
42
-0.19891236737966955
10
128.92157287517361
20
5.5274603255582893
10
132.80832611198863
20
9.4142135623730425
42
-0.19891236737965073
10
134.22253967436171
20
9.9999999999999112
10
135.49999999991968
20
9.9999999999998845
42
-0.41421356237309503
10
137.99999999991968
20
7.4999999999999023
42
-0.41421356237309503
10
137.49999999991968
20
6.9999999999999041
10
135.99999999991968
20
6.9999999999998996
42
0.41421356237310542
10
135.49999999991965
20
6.4999999999999014
10
135.49999999991968
20
4.9999999999999023
42
0.41421356237309664
10
136.49999999991968
20
3.9999999999999005
10
138.49999999991968
20
3.9999999999999014
42
0.41421356237308915
10
139.99999999991968
20
5.4999999999999005
10
139.99999999991968
20
15.999999999999904
42
0.41421356237309664
10
135.99999999991968
20
19.999999999999858
10
-16.000000000080217
20
19.999999999999897
42
0.41421356236721618
10
-19.999999999999879
20
16.000000000000199
10
-19.999999999999922
20
5.5000000000002025
42
0.41421356237309465
10
-18.499999999999922
20
4.0000000000002007
10
-16.499999999999918
20
4.0000000000002034
42
0.4142135623730937
10
-15.499999999999918
20
5.0000000000002043
10
-15.499999999999918
20
6.5000000000002034
42
0.41421356237309243
10
-15.999999999999922
20
7.0000000000002043
10
-17.499999999999922
20
7.0000000000002061
42
-0.41421356237309503
10
-17.999999999999908
20
7.5000000000002043
42
-0.41421356237309503
10
-15.499999999999918
20
10.000000000000195
10
-14.222539674441521
20
10.000000000000213
42
-0.19891236737965753
10
-12.808326112068421
20
9.4142135623733072
10
-8.9215728752535881
20
5.5274603255584349
42
-0.1989123673796617
10
-7.7499999999999005
20
2.6990332008122033
10
-7.7499999999998872
20
-2.699033200811999
42
-0.19891236737966447
10
-8.9215728752537053
20
-5.5274603255583106
10
-12.808326112068546
20
-9.4142135623730745
42
-0.19891236737965776
10
-14.22253967444162
20
-9.999999999999968
10
-15.500000000000021
20
-9.9999999999999982
42
-0.41421356237308304
10
-17.999999999999922
20
-7.4999999999999982
42
-0.41421356237309503
10
-17.499999999999922
20
-6.9999999999999973
10
-15.999999999999922
20
-6.9999999999999973
42
0.41421356237309243
10
-15.49999999999992
20
-6.4999999999999991
10
-15.499999999999918
20
-4.9999999999999982
42
0.4142135623730937
10
-16.499999999999918
20
-3.9999999999999969
10
-18.499999999999922
20
-3.9999999999999991
42
0.41421356237307511
10
-19.999999999999922
20
-5.4999999999998987
10
-20.000000000000124
20
-15.99999999999995
42
0.41421356237310175
10
-16.000000000000021
20
-19.999999999999929
10
-5.5000000000001208
20
-19.999999999999968
42
0.41421356237309465
10
-4.000000000000119
20
-18.499999999999972
10
-4.0000000000000613
20
-16.499999999999979
42
0.41421356237309731
10
-5.0000000000000195
20
-15.49999999999997
10
-6.5000000000000195
20
-15.499999999999961
42
0.41421356237309243
10
-7.0000000000000195
20
-15.999999999999961
10
-7.0000000000000195
20
-17.499999999999961
42
-0.41421356237315354
10
-7.5000000000001199
20
-17.999999999999961
42
-0.4142135623730846
10
-10.00000000000002
20
-15.49999999999995
10
-10.000000000000032
20
-14.22253967444156
42
-0.19891236737965939
10
-9.4142135623731207
20
-12.808326112068446
10
-5.5274603255583159
20
-8.9215728752537018
42
-0.1989123673796617
10
-2.6990332008120701
20
-7.7499999999998872
10
2.6990332008119484
20
-7.7499999999999076
42
-0.19891236737966089
10
5.5274603255581862
20
-8.9215728752537142
10
9.4142135623729857
20
-12.808326112068524
42
-0.19891236737965859
10
9.9999999999998792
20
-14.222539674441627
10
9.9999999999999094
20
-15.500000000000021
42
-0.41421356237309725
10
7.4999999999998801
20
-18.000000000000011
42
-0.41421356237308915
10
6.9999999999998899
20
-17.500000000000007
10
6.9999999999999005
20
-16.000000000000011
42
0.41421356237309503
10
6.4999999999999005
20
-15.500000000000009
10
4.9999999999998934
20
-15.5
42
0.41421356237309037
10
3.999999999999893
20
-16.5
0
LWPOLYLINE
5
111
100
AcDbEntity
8
0
100
AcDbPolyline
90
14
70
1
43
0.0
10
127.93162338151269
20
-6.5174098192195995
10
130.74802307395564
20
-9.3338095116626398
42
-0.41421356237301077
10
130.74802307395569
20
-9.7580735803745
10
129.75807358029368
20
-10.748023074035641
42
-0.4142135623724405
10
129.33380951158222
20
-10.748023074036158
10
126.51740981913969
20
-7.9316233815927983
42
0.19431256672772584
10
122.79468595785769
20
-6.3508472377549356
42
-0.40903460109861695
10
122.49999999991968
20
-6.0508943065190994
10
122.49999999991968
20
-4.4999999999997993
42
-0.2591260281972052
10
122.64150943388175
20
-4.2452830188678261
42
0.11490110622200031
10
124.24528301878757
20
-2.6415094339626357
42
-0.25912602819769998
10
124.49999999991968
20
-2.5000000000001608
10
126.05089430643869
20
-2.5000000000001799
42
-0.40903460109812823
10
126.35084723767451
20
-2.7946859579377015
42
0.19431256672772468
0
CIRCLE
5
112
100
AcDbEntity
8
0
100
AcDbCircle
10
119.99999999991969
20
-1.9984014443252818e-13
30
0
40
3.3999999999915098
210
-0
220
0
230
1
0
LWPOLYLINE
5
113
100
AcDbEntity
8
0
100
AcDbPolyline
90
14
70
1
43
0.0
10
131.39999999991969
20
-12.938477631085179
42
0.19891236737967366
10
131.31213203427566
20
-12.726345596729228
10
130.74802307389274
20
-12.162236636534269
42
-0.41421356211251464
10
130.74802307370402
20
-11.737972568011074
10
131.73797256506509
20
-10.748023074214146
42
-0.41421356225252343
10
132.1622366336897
20
-10.748023073711606
10
132.7263455967647
20
-11.312132034740809
42
0.1989123669082172
10
132.93847763073569
20
-11.400000000000205
10
138.29999999991969
20
-11.400000000000228
42
-0.41421356237309503
10
138.5999999999197
20
-11.700000000000239
10
138.59999999991967
20
-16.000000000000231
42
-0.41421356237309731
10
135.99999999991968
20
-18.600000000000229
10
131.6999999999197
20
-18.600000000000172
42
-0.41421356237309503
10
131.39999999991969
20
-18.300000000000161
0
LWPOLYLINE
5
114
100
AcDbEntity
8
0
100
AcDbPolyline
90
22
70
1
43
0.0
10
122.49999999991984
20
4.4999999999995044
42
0.25912602819693997
10
122.64150943388188
20
4.2452830188680339
42
-0.11490110622202561
10
124.24528301878765
20
2.6415094339620904
42
0.25912602819732822
10
124.49999999991968
20
2.4999999999999023
10
125.6508472376747
20
2.4999999999998264
42
0.41421356237319046
10
125.95084723767469
20
2.7999999999999003
10
125.95084723767435
20
2.8655658635129
42
-0.19891236737962822
10
127.53247061926669
20
6.6839424819201021
10
131.53553390469369
20
10.687005767346683
42
-0.19891236737966747
10
134.22253967320268
20
11.799999998837901
10
138.29999999991969
20
11.79999999883783
42
0.41421356237319046
10
138.59999999991967
20
12.099999998837902
10
138.5999999999197
20
16.0000000000245
42
0.41421356237309503
10
136.39999999991969
20
18.200000000024502
10
112.49999999987168
20
18.200000000003907
42
0.41421356237309503
10
109.99999999987168
20
15.700000000003907
10
109.99999999987169
20
14.222539674402199
42
0.19891236737613777
10
110.58578643749968
20
12.808326112068503
10
117.22253967431459
20
6.1715728752530978
42
0.19891236737964776
10
120.05096679906067
20
4.9999999999993028
10
122.1999999999197
20
4.9999999999943761
42
-0.41421356236615148
10
122.49999999991468
20
4.7000000000065034
0
LWPOLYLINE
5
115
100
AcDbEntity
8
0
100
AcDbPolyline
90
38
70
1
43
0.0
10
105.6999999999197
20
-18.200000000000202
10
14.299999999919688
20
-18.200000000000042
42
-0.4142135623637021
10
11.799999999999873
20
-15.700000000000029
10
11.79999999999991
20
-14.222539674441638
42
0.19891236737965792
10
10.687005768508783
20
-11.535533905932738
10
6.8002525316939701
20
-7.6487806691178983
42
0.19461397698000393
10
2.79503441971206
20
-5.9507945573577938
42
-0.40937366005812115
10
2.4999999999999694
20
-5.6508356551516004
10
2.4999999999999378
20
-4.4999999999995977
42
-0.2591260281974232
10
2.6415094339622347
20
-4.2452830188674895
42
0.1149011062219807
10
4.2452830188677524
20
-2.6415094339623919
42
-0.25912602819737629
10
4.4999999999995319
20
-2.499999999999952
10
4.6999999999999877
20
-2.5
42
0.41421356237307905
10
4.9999999999999769
20
-2.1999999999999997
10
4.9999999999999103
20
4.1916738878839013
42
-0.19891236731073444
10
6.1715728745036413
20
7.0201010118800466
10
10.687005767359421
20
11.535533907129803
42
0.19891236729454129
10
11.79999999883095
20
14.222539674402302
10
11.799999998832842
20
15.699999999960706
42
-0.41421356250038771
10
14.299999999919352
20
18.199999999960706
10
105.69999999987168
20
18.199999999960603
42
-0.41421356251544234
10
108.20000000108669
20
15.699999999960603
10
108.2000000010887
20
14.222539674402199
42
0.1989123672945759
10
109.31299423256038
20
11.535533907129397
10
113.82842712541614
20
7.020101011879742
42
-0.19891236731072523
10
114.99999999991977
20
4.1916738878837023
10
114.99999999991969
20
-2.2000000000001974
42
0.41421356237308776
10
115.29999999991969
20
-2.5000000000002007
10
115.49999999992068
20
-2.5000000000001537
42
-0.25912602819673769
10
115.75471698105176
20
-2.6415094339625576
42
0.11490110622198611
10
117.35849056595761
20
-4.2452830188678012
42
-0.25912602819722913
10
117.49999999991972
20
-4.4999999999997993
10
117.49999999991996
20
-5.6508356551517984
42
-0.40937366005829517
10
117.2049655802077
20
-5.9507945573579937
42
0.19461397698000546
10
113.19974746822572
20
-7.6487806691181444
10
109.3129942314107
20
-11.535533905932908
42
0.19891236737965409
10
108.19999999991965
20
-14.22253967444181
10
108.1999999999197
20
-15.7000000000002
42
-0.41421356237309503
0
LWPOLYLINE
5
116
100
AcDbEntity
8
0
100
AcDbPolyline
90
14
70
1
43
0.0
10
-12.938477630816021
20
-11.399999999999944
42
0.19891236690845029
10
-12.726345596844661
20
-11.312132034740522
10
-12.162236633769609
20
-10.748023073711392
42
-0.41421356225197925
10
-11.737972565145384
20
-10.748023074213442
10
-10.748023073784406
20
-11.737972568010473
42
-0.41421356211307259
10
-10.74802307397279
20
-12.162236636534072
10
-11.312132034356019
20
-12.726345596728962
42
0.19891236737969292
10
-11.400000000000132
20
-12.938477631084918
10
-11.400000000000009
20
-18.299999999999908
42
-0.41421356237309503
10
-11.700000000000021
20
-18.59999999999992
10
-16.000000000000121
20
-18.599999999999959
42
-0.41421356237308732
10
-18.600000000000001
20
-15.99999999999995
10
-18.600000000000133
20
-11.69999999999996
42
-0.41421356237309503
10
-18.300000000000122
20
-11.399999999999949
0
LWPOLYLINE
5
117
100
AcDbEntity
8
0
100
AcDbPolyline
90
14
70
1
43
0.0
10
-2.7946859579375518
20
-6.3508472377547527
42
0.19431256672772101
10
-6.5174098192194796
20
-7.9316233815925372
10
-9.3338095116624906
20
-10.74802307403546
42
-0.41421356237307355
10
-9.7580735803744041
20
-10.748023074035405
10
-10.74802307403553
20
-9.7580735803743099
42
-0.41421356237316326
10
-10.748023074035579
20
-9.3338095116623396
10
-7.9316233815926207
20
-6.5174098192193997
42
0.1943125667277219
10
-6.3508472377548557
20
-2.7946859579374976
42
-0.40903460109812456
10
-6.0508943065190195
20
-2.4999999999999791
10
-4.4999999999996199
20
-2.4999999999999591
42
-0.25912602819736613
10
-4.2452830188678607
20
-2.6415094339624035
42
0.11490110622198313
10
-2.641509433962288
20
-4.2452830188675081
42
-0.25912602819740249
10
-2.5000000000000142
20
-4.4999999999995977
10
-2.5000000000000218
20
-6.0508943065188987
42
-0.40903460109811884
0
CIRCLE
5
118
100
AcDbEntity
8
0
100
AcDbCircle
10
0
20
0
30
0
40
3.3999999999915098
210
-0
220
0
230
1
0
LWPOLYLINE
5
119
100
AcDbEntity
8
0
100
AcDbPolyline
90
22
70
1
43
0.0
10
-2.6415094339624079
20
4.2452830188679149
42
0.25912602819737673
10
-2.4999999999999862
20
4.4999999999997033
10
-2.4999999999999916
20
4.7000000000066988
42
-0.41421356236616608
10
-2.1999999999999895
20
4.9999999999996048
10
-0.050966799140841249
20
4.9999999999996039
42
0.1989123673796602
10
2.7774603256054
20
6.1715728752534016
10
9.4142135624403682
20
12.808326112048892
42
0.19891236737605716
10
10.000000000047679
20
14.222539674402398
10
10.000000000047679
20
15.700000000004103
42
0.41421356237304585
10
7.5000000000480993
20
18.2000000000209
10
-16.399999999999523
20
18.200000000024797
42
0.41421356237314821
10
-18.599999999999923
20
16.000000000024798
10
-18.599999999999994
20
12.099999998838102
42
0.41421356237309503
10
-18.300000000000018
20
11.7999999988381
10
-14.222539673282618
20
11.799999998838128
42
-0.19891236737966736
10
-11.535533904773621
20
10.6870057673469
10
-7.5324706193473636
20
6.6839424819203597
42
-0.19891236737965073
10
-5.9508472377548198
20
2.8655658635131021
10
-5.950847237754795
20
2.8000000000001002
42
0.41421356237309503
10
-5.6508472377548191
20
2.5000000000000977
10
-4.4999999999996012
20
2.5000000000000924
42
0.2591260281974026
10
-4.2452830188675206
20
2.641509433962387
42
-0.11490110622198253
0
ENDSEC
0
SECTION
2
OBJECTS
0
DICTIONARY
5
C
100
AcDbDictionary
3
ACAD_GROUP
350
D
3
ACAD_MLINESTYLE
350
17
0
DICTIONARY
5
D
100
AcDbDictionary
0
DICTIONARY
5
1A
330
C
100
AcDbDictionary
0
DICTIONARY
5
17
100
AcDbDictionary
0
ENDSEC
0
EOF
