0
SECTION
2
HEADER
9
$INSUNITS
70
4
9
$ACADVER
1
AC1014
9
$HANDSEED
5
FFFF
0
ENDSEC
0
SECTION
2
TABLES
0
TABLE
2
VPORT
5
8
100
AcDbSymbolTable
0
ENDTAB
0
TABLE
2
LTYPE
5
5
100
AcDbSymbolTable
0
LTYPE
5
14
100
AcDbSymbolTableRecord
100
AcDbLinetypeTableRecord
2
BYBLOCK
70
0
0
LTYPE
5
15
100
AcDbSymbolTableRecord
100
AcDbLinetypeTableRecord
2
BYLAYER
70
0
0
ENDTAB
0
TABLE
2
LAYER
5
2
100
AcDbSymbolTable
70
2
0
LAYER
5
50
100
AcDbSymbolTableRecord
100
AcDbLayerTableRecord
2
0
70
0
6
CONTINUOUS
0
ENDTAB
0
TABLE
2
STYLE
5
3
100
AcDbSymbolTable
70
1
0
STYLE
5
11
100
AcDbSymbolTableRecord
100
AcDbTextStyleTableRecord
2
STANDARD
70
0
0
ENDTAB
0
TABLE
2
VIEW
5
6
100
AcDbSymbolTable
70
0
0
ENDTAB
0
TABLE
2
UCS
5
7
100
AcDbSymbolTable
70
0
0
ENDTAB
0
TABLE
2
APPID
5
9
100
AcDbSymbolTable
70
2
0
APPID
5
12
100
AcDbSymbolTableRecord
100
AcDbRegAppTableRecord
2
ACAD
70
0
0
ENDTAB
0
TABLE
2
DIMSTYLE
5
A
100
AcDbSymbolTable
70
1
0
ENDTAB
0
TABLE
2
BLOCK_RECORD
5
1
100
AcDbSymbolTable
70
1
0
BLOCK_RECORD
5
1F
100
AcDbSymbolTableRecord
100
AcDbBlockTableRecord
2
*MODEL_SPACE
0
BLOCK_RECORD
5
1B
100
AcDbSymbolTableRecord
100
AcDbBlockTableRecord
2
*PAPER_SPACE
0
ENDTAB
0
ENDSEC
0
SECTION
2
BLOCKS
0
BLOCK
5
20
100
AcDbEntity
100
AcDbBlockBegin
2
*MODEL_SPACE
0
ENDBLK
5
21
100
AcDbEntity
100
AcDbBlockEnd
0
BLOCK
5
1C
100
AcDbEntity
100
AcDbBlockBegin
2
*PAPER_SPACE
0
ENDBLK
5
1D
100
AcDbEntity
100
AcDbBlockEnd
0
ENDSEC
0
SECTION
2
ENTITIES
0
LWPOLYLINE
5
100
100
AcDbEntity
8
0
100
AcDbPolyline
90
216
70
1
43
0.0
10
7.5999999959685738
20
-17.999999999997272
42
0.41421356639230938
10
10.100000011154862
20
-15.499999980881967
10
10.10000000191525
20
-14.292388119101815
42
0.19891236539173757
10
8.6355339078409088
20
-10.756854251405912
10
6.9431457505074601
20
-9.0644660940697808
42
0.19891236738056298
10
3.4076118445818793
20
-7.6000000000021828
10
-3.4076118445727834
20
-7.5999999999984871
42
0.19891236738089724
10
-6.9431457505061189
20
-9.0644660940711219
10
-8.635533907844156
20
-10.75685425140721
42
0.19891236539223911
10
-10.100000001916669
20
-14.292388119101815
10
-10.100000011149319
20
-15.499999980881967
42
0.41421356639177659
10
-7.5999999959640263
20
-18.000000000003666
42
0.4142135625462452
10
-7.0999999989999196
20
-17.499999996668976
10
-7.1000000099979843
20
-15.850000000002638
42
-0.41421356823089744
10
-6.5999999999985448
20
-15.350000000003092
10
-5.100000010002077
20
-15.35000000000764
42
-0.4142135623717631
10
-4.1000000100029865
20
-16.350000000002183
10
-4.1000000100052603
20
-18.500000000001364
42
-0.41421356042138219
10
-5.6000000000085493
20
-20
10
-15.999999999999091
20
-20.000000000002274
42
-0.41421356237442697
10
-20
20
-16.000000000001364
10
-19.999999999995453
20
-5.6000000099993485
42
-0.41421356237709078
10
-18.499999999999091
20
-4.1000000100007128
10
-16.349999999997635
20
-4.1000000099893441
42
-0.41421355944818961
10
-15.349999999998545
20
-5.1000000000021828
10
-15.350000000000819
20
-6.6000000100007128
42
-0.41421356432569584
10
-15.850000003333662
20
-7.100000010000258
10
-17.499999996662154
20
-7.0999999990006302
42
0.41421356255024094
10
-18.000000000004093
20
-7.5999999959640263
42
0.41421356639364126
10
-15.499999980875145
20
-10.100000011145767
10
-14.29238811909727
20
-10.100000001913969
42
0.19891236539138313
10
-10.756854251408186
20
-8.6355339078431825
10
-9.0644660940665549
20
-6.9431457505106842
42
0.19891236738034679
10
-7.5999999999976353
20
-3.4076118445773318
10
-7.5999999999991994
20
3.4076118445727843
42
0.19891236738047935
10
-9.0644660940688482
20
6.9431457505083927
10
-10.756854251411943
20
8.635533907843973
42
0.19891236539096518
10
-14.292388119097268
20
10.100000001912122
10
-15.499999980875145
20
10.100000011143493
42
0.41421356639310852
10
-17.999999999998835
20
7.5999999959640263
42
0.41421356254890901
10
-17.499999996662154
20
7.0999999990021934
10
-15.850000000000364
20
7.1000000100025318
42
-0.4142135682269017
10
-15.349999999998545
20
6.5999999999985448
10
-15.350000000000819
20
5.1000000099998033
42
-0.41421356236776735
10
-16.349999999997635
20
4.1000000100029865
10
-18.499999999999091
20
4.1000000100007128
42
-0.41421356042404606
10
-19.999999999995453
20
5.5999999999971806
10
-19.999999999997726
20
15.999999999999091
42
-0.41421356237459345
10
-15.999999999999091
20
20
10
-5.600000010003896
20
20.000000000004547
42
-0.41421356237398305
10
-4.1000000100029865
20
18.499999999999091
10
-4.1000000100029865
20
16.349999999997635
42
-0.41421355944286187
10
-5.0999999999976353
20
15.349999999998545
10
-6.6000000100029865
20
15.349999999991724
42
-0.4142135643243639
10
-7.1000000100048055
20
15.850000003333662
10
-7.0999999989983564
20
17.499999996666702
42
0.41421356254890901
10
-7.5999999959640263
20
17.999999999997272
42
0.41421356639177659
10
-10.10000001114804
20
15.499999980881967
10
-10.100000001915674
20
14.292388119097268
42
0.19891236539198828
10
-8.6355339078454563
20
10.756854251408186
10
-6.9431457505031506
20
9.0644660940649953
42
0.19891236738073007
10
-3.4076118445727843
20
7.5999999999976353
10
3.4076118445818793
20
7.5999999999939405
42
0.19891236738039578
10
6.9431457505061189
20
9.064466094062027
10
8.635533907846245
20
10.756854251402848
42
0.19891236539148702
10
10.100000001907574
20
14.292388119097268
10
10.100000011151309
20
15.499999980881967
42
0.41421356639284213
10
7.5999999959685738
20
18.000000000002387
42
0.4142135625462452
10
7.0999999989999196
20
17.499999996666702
10
7.100000010000258
20
15.84999999999809
42
-0.41421356822423783
10
6.5999999999985448
20
15.349999999998545
10
5.1000000100066245
20
15.350000000000819
42
-0.4142135623697652
10
4.100000010007534
20
16.349999999997635
10
4.1000000099984391
20
18.499999999999091
42
-0.41421356042227014
10
5.5999999999994543
20
20
10
34.400000000000546
20
20.000000000004547
42
-0.41421356042049423
10
35.899999989997013
20
18.499999999999091
10
35.899999990003835
20
16.349999999997635
42
-0.41421356237109713
10
34.899999989997923
20
15.349999999998545
10
33.400000000001455
20
15.349999999991724
42
-0.41421356823089744
10
32.899999989995194
20
15.84999999999809
10
32.900000001001644
20
17.499999996666702
42
0.41421356254890901
10
32.400000004035974
20
17.999999999997272
42
0.41421356639177659
10
29.89999998885196
20
15.499999980881967
10
29.899999998084326
20
14.292388119097268
42
0.19891236539198828
10
31.364466092154544
20
10.756854251408186
10
33.056854249496851
20
9.0644660940649953
42
0.19891236738073015
10
36.592388155427216
20
7.5999999999976353
10
43.407611844581879
20
7.5999999999939405
42
0.19891236738039586
10
46.943145750506119
20
9.064466094062027
10
48.635533907843971
20
10.756854251405123
42
0.19891236539131965
10
50.100000001907574
20
14.292388119097268
10
50.100000011151309
20
15.499999980881967
42
0.41421356639284213
10
47.599999995968574
20
17.999999999998835
42
0.4142135625462452
10
47.09999999899992
20
17.499999996666702
10
47.100000010000258
20
15.84999999999809
42
-0.41421356822423783
10
46.599999999998545
20
15.349999999998545
10
45.100000010006625
20
15.350000000000819
42
-0.4142135623697652
10
44.100000010007534
20
16.349999999997635
10
44.100000009998439
20
18.499999999999091
42
-0.41421356042227014
10
45.599999999999454
20
20
10
74.400000000000546
20
20.000000000004547
42
-0.41421356042049423
10
75.899999989997013
20
18.499999999999091
10
75.899999990003835
20
16.349999999997635
42
-0.41421356237109713
10
74.899999989997923
20
15.349999999998545
10
73.400000000001455
20
15.349999999991724
42
-0.41421356823089744
10
72.899999989995194
20
15.84999999999809
10
72.900000001001644
20
17.499999996666702
42
0.41421356254890901
10
72.400000004035974
20
17.999999999997272
42
0.41421356639177659
10
69.89999998885196
20
15.499999980881967
10
69.899999998080773
20
14.292388119097268
42
0.19891236539198834
10
71.364466092154544
20
10.756854251408186
10
73.056854249496851
20
9.064466094064997
42
0.19891236738073023
10
76.592388155427216
20
7.5999999999976353
10
83.407611844581879
20
7.5999999999939405
42
0.19891236738039586
10
86.943145750506119
20
9.064466094062027
10
88.635533907846238
20
10.756854251402846
42
0.19891236539148729
10
90.100000001907574
20
14.292388119097268
10
90.100000011151309
20
15.499999980881967
42
0.41421356639284213
10
87.599999995968574
20
17.999999999998835
42
0.4142135625462452
10
87.09999999899992
20
17.499999996666702
10
87.100000010007079
20
15.850000003333662
42
-0.41421356432702777
10
86.600000010007534
20
15.349999999998545
10
85.099999999997635
20
15.349999999998545
42
-0.41421355944552574
10
84.100000009993892
20
16.349999999997635
10
84.100000009989344
20
18.499999999999091
42
-0.4142135623757589
10
85.600000009994801
20
20
10
95.999999999999091
20
20.000000012358711
42
-0.41421355394248227
10
99.999999976126887
20
15.99999998851156
10
99.999999987600162
20
5.5999999885096496
42
-0.41421356042315804
10
98.499999987602664
20
4.0999999985074975
10
96.349999987601208
20
4.0999999985074975
42
-0.41421356236643542
10
95.349999987610076
20
5.0999999985031774
10
95.349999987610076
20
6.5999999885019189
42
-0.41421356821891014
10
95.849999987601379
20
7.0999999985090323
10
97.499999984267717
20
7.0999999875018709
42
0.41421356254358133
10
97.999999987598855
20
7.599999984466546
42
0.41421356639177659
10
95.499999968488098
20
10.099999999652834
10
94.29238810671022
20
10.099999990419191
42
0.19891236539309476
10
90.756854239009513
20
8.6355338963439703
10
89.064466081683818
20
6.9431457390046392
42
0.19891236737940801
10
87.599999987618162
20
3.4076118330709821
10
87.599999987618162
20
-3.4076118560791318
42
0.19891236737924042
10
89.064466081681545
20
-6.943145762010503
10
90.756854239007239
20
-8.635533919345292
42
0.19891236539326212
10
94.292388106712735
20
-10.100000013423823
10
95.499999968490613
20
-10.100000022662016
42
0.41421356639177659
10
97.99999998760137
20
-7.600000007475729
42
0.41421356254491326
10
97.499999984270232
20
-7.100000010508789
10
95.849999990937192
20
-7.1000000215114012
42
-0.41421356432303197
10
95.349999987606054
20
-6.6000000215090138
10
95.349999987606054
20
-5.1000000115104838
42
-0.41421355944818961
10
96.349999987607276
20
-4.1000000214955135
10
98.499999987608732
20
-4.1000000215068866
42
-0.41421356719858082
10
100.00000001149529
20
-5.6000000223262036
10
100.00000002389245
20
-16.000000012328222
42
-0.4142135539457496
10
95.999999999999091
20
-19.999999988526724
10
85.599999999994907
20
-19.999999999993179
42
-0.41421356042227014
10
84.100000009993892
20
-18.500000000001364
10
84.100000010007534
20
-16.350000000002183
42
-0.41421356237043117
10
85.100000010006625
20
-15.350000000003092
10
86.599999999998545
20
-15.349999999996271
42
-0.41421356822556976
10
87.100000010004806
20
-15.850000000002638
10
87.099999999000346
20
-17.499999996668976
42
0.41421356254358133
10
87.599999995968574
20
-17.999999999997272
42
0.41421356639230938
10
90.100000011157135
20
-15.499999980881967
10
90.100000001911695
20
-14.292388119101817
42
0.19891236539173765
10
88.635533907840909
20
-10.756854251405912
10
86.943145750507455
20
-9.0644660940697754
42
0.19891236738056248
10
83.407611844581879
20
-7.6000000000021828
10
76.592388155427216
20
-7.5999999999984871
42
0.19891236738089721
10
73.056854249493881
20
-9.0644660940711219
10
71.364466092153336
20
-10.756854251404695
42
0.19891236539223936
10
69.899999998083331
20
-14.292388119101815
10
69.899999988850681
20
-15.499999980881967
42
0.41421356639177659
10
72.400000004035974
20
-18.000000000003666
42
0.4142135625462452
10
72.90000000100008
20
-17.499999996668976
10
72.899999990002016
20
-15.850000003335936
42
-0.41421356432303197
10
73.399999989997013
20
-15.350000000003092
10
74.900000000002365
20
-15.349999999998545
42
-0.41421355944286187
10
75.899999990001561
20
-16.350000000002183
10
75.899999990003835
20
-18.500000000001364
42
-0.41421356237487095
10
74.399999989996104
20
-20
10
45.600000010003896
20
-19.999999999988631
42
-0.41421356237487095
10
44.100000010007534
20
-18.500000000001364
10
44.100000009993892
20
-16.350000000002183
42
-0.41421355944552574
10
45.099999999997635
20
-15.350000000003092
10
46.600000010007534
20
-15.350000000000819
42
-0.41421356432569584
10
47.100000010009353
20
-15.850000003335936
10
47.099999999000346
20
-17.499999996668976
42
0.41421356254358133
10
47.599999995968574
20
-17.999999999997272
42
0.41421356639230938
10
50.100000011157135
20
-15.499999980881967
10
50.100000001909706
20
-14.292388119106363
42
0.19891236539163965
10
48.635533907840909
20
-10.756854251405912
10
46.943145750507462
20
-9.0644660940697825
42
0.19891236738056298
10
43.407611844581879
20
-7.6000000000021828
10
36.592388155427216
20
-7.5999999999984871
42
0.19891236738089721
10
33.056854249493881
20
-9.0644660940711219
10
31.364466092155844
20
-10.75685425140721
42
0.19891236539223911
10
29.899999998083331
20
-14.292388119101815
10
29.899999988850681
20
-15.499999980881967
42
0.41421356639177659
10
32.400000004035974
20
-18.000000000003666
42
0.4142135625462452
10
32.90000000100008
20
-17.499999996668976
10
32.899999990002016
20
-15.850000003335936
42
-0.41421356432303197
10
33.399999989997013
20
-15.350000000003092
10
34.900000000002365
20
-15.349999999998545
42
-0.41421355944286187
10
35.899999990001561
20
-16.350000000002183
10
35.899999990003835
20
-18.500000000001364
42
-0.41421356237487095
10
34.399999989996104
20
-20
10
5.600000010003896
20
-19.999999999988631
42
-0.41421356237487095
10
4.100000010007534
20
-18.500000000001364
10
4.1000000099938916
20
-16.350000000002183
42
-0.41421355944552574
10
5.0999999999976353
20
-15.350000000003092
10
6.600000010007534
20
-15.350000000000819
42
-0.41421356432569584
10
7.100000010009353
20
-15.850000003335936
10
7.099999999000346
20
-17.499999996668976
42
0.41421356254358133
0
LWPOLYLINE
5
101
100
AcDbEntity
8
0
100
AcDbPolyline
90
24
70
1
43
0.0
10
50.335534646806309
20
8.2142148759951326
42
0.19891225683647509
10
51.799999237060206
20
11.749747278117866
10
51.799999237059353
20
15.499999999999545
42
-0.41421356237309503
10
54.299999237064185
20
18.00000000000438
10
65.700000762940363
20
18.000000000004377
42
-0.41421356237309503
10
68.200000762945194
20
15.499999999999545
10
68.200000762940363
20
11.749747278117866
42
0.19891225683680919
10
69.664465353199191
20
8.2142148760006357
10
70.785535409752825
20
7.0931438657708146
42
-0.19891225683614075
10
72.250000000003212
20
3.5576114636501184
10
72.250000000004064
20
-3.557611463650117
42
-0.19891214629497422
10
70.785536913560321
20
-7.0931423619589111
10
69.664463849380809
20
-8.2142173334796098
42
0.19891214629540607
10
68.200000762934962
20
-11.749748231782178
10
68.200000762945194
20
-15.499999999999545
42
-0.41421356237282864
10
65.700000762940363
20
-18.000000000002107
10
54.299999237064185
20
-18.000000000002103
42
-0.41421356237282864
10
51.799999237059353
20
-15.499999999999545
10
51.799999237064185
20
-11.749748231782178
42
0.1989121462948007
10
50.335536150612668
20
-8.2142173334815851
10
49.214463086444283
20
-7.0931423619588525
42
-0.19891214629584422
10
47.749999999995509
20
-3.5576114636501188
10
47.749999999996362
20
3.5576114636501188
42
-0.19891225683697625
10
49.214464590252909
20
7.0931438657696226
0
LWPOLYLINE
5
102
100
AcDbEntity
8
0
100
AcDbPolyline
90
24
70
1
43
0.0
10
10.335534646806314
20
8.2142148759951343
42
0.19891225683647493
10
11.799999237060208
20
11.749747278117866
10
11.799999237059351
20
15.499999999999545
42
-0.41421356237309503
10
14.299999237064185
20
18.00000000000438
10
25.700000762940363
20
18.000000000004377
42
-0.41421356237309503
10
28.200000762945194
20
15.499999999999545
10
28.200000762940363
20
11.749747278117866
42
0.19891225683680919
10
29.664465353199184
20
8.2142148760006357
10
30.785535409750317
20
7.0931438657683064
42
-0.19891225683614075
10
32.249999999999666
20
3.5576114636501188
10
32.250000000005059
20
-3.5576114636501193
42
-0.19891214629530823
10
30.785536913557806
20
-7.0931423619609451
10
29.664463849380809
20
-8.2142173334796098
42
0.1989121462954061
10
28.200000762934959
20
-11.749748231782178
10
28.200000762945194
20
-15.499999999999545
42
-0.41421356237282864
10
25.700000762940363
20
-18.000000000002107
10
14.299999237064185
20
-18.000000000002107
42
-0.41421356237282864
10
11.799999237059351
20
-15.499999999999545
10
11.799999237064185
20
-11.749748231782178
42
0.19891214629480081
10
10.33553615061267
20
-8.2142173334815851
10
9.2144630864442849
20
-7.0931423619588552
42
-0.19891214629584433
10
7.7499999999955076
20
-3.5576114636501184
10
7.7499999999928084
20
3.5576114636501188
42
-0.19891225683697636
10
9.214464590250401
20
7.0931438657721344
0
LWPOLYLINE
5
103
100
AcDbEntity
8
0
100
AcDbPolyline
90
8
70
1
43
0.0
10
-17.700000047684625
20
-11.799999999994244
42
0.41421353443998199
10
-18.200000000005758
20
-12.300000000000182
10
-18.200000000003062
20
-16.000000000001364
42
0.41421356237551676
10
-15.999999999999091
20
-18.200000000001637
10
-12.300000000000182
20
-18.200000000000927
42
0.41421356236776735
10
-11.800000000007458
20
-17.700000000002092
10
-11.799999999997382
20
-12.299999237061456
42
0.4142131154593352
10
-12.300000000000182
20
-11.800000000000637
0
LWPOLYLINE
5
104
100
AcDbEntity
8
0
100
AcDbPolyline
90
8
70
1
43
0.0
10
-11.800000000001349
20
17.700000047682352
42
0.41421353444131387
10
-12.300000000000182
20
18.199999999998653
10
-15.999999999999091
20
18.199999999998226
42
0.41421356237581941
10
-18.19999999999709
20
15.999999999999091
10
-18.199999999998653
20
12.299999999997908
42
0.41421356237309503
10
-17.699999999999818
20
11.799999999998363
10
-12.299999237061456
20
11.800000000003209
42
0.41421311545667133
10
-11.799999999998363
20
12.299999999997908
0
LWPOLYLINE
5
105
100
AcDbEntity
8
0
100
AcDbPolyline
90
8
70
1
43
0.0
10
98.199999999996663
20
-12.300000000000182
42
0.41421353443598619
10
97.70000004767553
20
-11.800000000001065
10
92.300000000000182
20
-11.799999999994544
42
0.41421338519910794
10
91.800000190733044
20
-12.299999237061456
10
91.800000000001347
20
-17.700000000002092
42
0.41421356237309503
10
92.300000000000182
20
-18.200000000001637
10
95.999999999999091
20
-18.200000000006611
42
0.41421354869176441
10
98.200000047677349
20
-16.000000000001364
0
LWPOLYLINE
5
106
100
AcDbEntity
8
0
100
AcDbPolyline
90
8
70
1
43
0.0
10
92.300000000000182
20
18.200000000002206
42
0.41421353444131387
10
91.799999999997794
20
17.700000047682352
10
91.800000000007472
20
12.299999999997908
42
0.41421338519511219
10
92.299999237061456
20
11.800000190735318
10
97.699999999999818
20
11.799999999999073
42
0.41421356236776735
10
98.199999999992542
20
12.299999999997908
10
98.199999999996521
20
15.999999999999091
42
0.41421354551533596
10
95.999999999999091
20
18.200000047684171
0
CIRCLE
5
107
100
AcDbEntity
8
0
100
AcDbCircle
10
0
20
0
30
0
40
3.3500000000010743
210
0
220
0
230
-1
0
CIRCLE
5
108
100
AcDbEntity
8
0
100
AcDbCircle
10
-80
20
0
30
0
40
3.3500000000010743
210
0
220
0
230
-1
0
CIRCLE
5
109
100
AcDbEntity
8
0
100
AcDbCircle
10
-40
20
0
30
0
40
3.3500000000010743
210
0
220
0
230
-1
0
LWPOLYLINE
5
110
100
AcDbEntity
8
0
100
AcDbPolyline
90
216
70
1
43
0.0
10
7.5999999959685738
20
-17.999999999997272
42
0.41421356639230938
10
10.100000011154862
20
-15.499999980881967
10
10.10000000191525
20
-14.292388119101815
42
0.19891236539173757
10
8.6355339078409088
20
-10.756854251405912
10
6.9431457505074619
20
-9.0644660940697808
42
0.19891236738056298
10
3.4076118445818793
20
-7.6000000000021828
10
-3.4076118445727821
20
-7.5999999999984871
42
0.19891236738089729
10
-6.9431457505061189
20
-9.0644660940711219
10
-8.635533907844156
20
-10.75685425140721
42
0.19891236539223911
10
-10.100000001916669
20
-14.292388119101815
10
-10.100000011149319
20
-15.499999980881967
42
0.41421356639177659
10
-7.5999999959640263
20
-18.000000000003666
42
0.4142135625462452
10
-7.0999999989999196
20
-17.499999996668976
10
-7.1000000099979825
20
-15.850000000002638
42
-0.41421356823089878
10
-6.5999999999985448
20
-15.350000000003092
10
-5.100000010002077
20
-15.35000000000764
42
-0.41421356237176343
10
-4.1000000100029865
20
-16.350000000002183
10
-4.1000000100052585
20
-18.500000000001364
42
-0.41421356042138174
10
-5.6000000000085493
20
-20
10
-15.999999999999091
20
-20.000000000002274
42
-0.4142135623744273
10
-20
20
-16.000000000001364
10
-19.999999999995453
20
-5.6000000099993485
42
-0.41421356237709106
10
-18.499999999999091
20
-4.1000000100007128
10
-16.349999999997635
20
-4.1000000099893441
42
-0.41421355944818827
10
-15.349999999998545
20
-5.1000000000021828
10
-15.350000000000819
20
-6.6000000100007128
42
-0.41421356432569517
10
-15.850000003333662
20
-7.100000010000258
10
-17.499999996662154
20
-7.0999999990006302
42
0.41421356255024094
10
-18.000000000004093
20
-7.5999999959640263
42
0.41421356639364126
10
-15.499999980875145
20
-10.100000011145767
10
-14.29238811909727
20
-10.100000001913969
42
0.19891236539138313
10
-10.756854251408186
20
-8.6355339078431825
10
-9.0644660940665549
20
-6.9431457505106859
42
0.19891236738034684
10
-7.5999999999976353
20
-3.4076118445773318
10
-7.5999999999991994
20
3.4076118445727834
42
0.1989123673804794
10
-9.0644660940688482
20
6.9431457505083927
10
-10.756854251411943
20
8.6355339078439712
42
0.1989123653909653
10
-14.292388119097268
20
10.100000001912122
10
-15.499999980875145
20
10.100000011143493
42
0.41421356639310852
10
-17.999999999998835
20
7.5999999959640263
42
0.41421356254890901
10
-17.499999996662154
20
7.0999999990021934
10
-15.850000000000364
20
7.1000000100025318
42
-0.4142135682269017
10
-15.349999999998545
20
6.5999999999985448
10
-15.350000000000819
20
5.1000000099998033
42
-0.41421356236776768
10
-16.349999999997635
20
4.1000000100029865
10
-18.499999999999091
20
4.1000000100007119
42
-0.41421356042404539
10
-19.999999999995453
20
5.5999999999971806
10
-19.999999999997726
20
15.999999999999091
42
-0.41421356237459378
10
-15.999999999999091
20
20
10
-5.600000010003896
20
20.000000000004547
42
-0.41421356237398321
10
-4.1000000100029865
20
18.499999999999091
10
-4.1000000100029874
20
16.349999999997635
42
-0.41421355944286287
10
-5.0999999999976353
20
15.349999999998545
10
-6.6000000100029865
20
15.349999999991724
42
-0.41421356432436129
10
-7.1000000100048055
20
15.850000003333662
10
-7.0999999989983564
20
17.499999996666702
42
0.41421356254890901
10
-7.5999999959640263
20
17.999999999997272
42
0.41421356639177659
10
-10.10000001114804
20
15.499999980881967
10
-10.100000001915674
20
14.292388119097268
42
0.19891236539198828
10
-8.6355339078454563
20
10.756854251408186
10
-6.9431457505031524
20
9.0644660940649953
42
0.19891236738073015
10
-3.4076118445727843
20
7.5999999999976353
10
3.4076118445818784
20
7.5999999999939405
42
0.19891236738039586
10
6.9431457505061189
20
9.064466094062027
10
8.635533907846245
20
10.756854251402848
42
0.19891236539148702
10
10.100000001907574
20
14.292388119097268
10
10.100000011151309
20
15.499999980881967
42
0.41421356639284213
10
7.5999999959685738
20
18.000000000002387
42
0.4142135625462452
10
7.0999999989999196
20
17.499999996666702
10
7.1000000100002572
20
15.849999999998092
42
-0.41421356822423722
10
6.5999999999985448
20
15.349999999998545
10
5.1000000100066245
20
15.350000000000819
42
-0.41421356236976486
10
4.100000010007534
20
16.349999999997635
10
4.1000000099984391
20
18.499999999999091
42
-0.41421356042227014
10
5.5999999999994543
20
20
10
34.400000000000546
20
20.000000000004547
42
-0.41421356042049551
10
35.899999989997013
20
18.499999999999091
10
35.899999990003835
20
16.349999999997635
42
-0.41421356237109713
10
34.899999989997923
20
15.349999999998545
10
33.400000000001455
20
15.34999999999172
42
-0.41421356823088967
10
32.899999989995194
20
15.84999999999809
10
32.900000001001644
20
17.499999996666702
42
0.41421356254890901
10
32.400000004035974
20
17.999999999997272
42
0.41421356639177659
10
29.89999998885196
20
15.499999980881967
10
29.899999998084326
20
14.292388119097268
42
0.19891236539198828
10
31.364466092154544
20
10.756854251408186
10
33.056854249496851
20
9.0644660940649953
42
0.19891236738073015
10
36.592388155427216
20
7.5999999999976353
10
43.407611844581879
20
7.5999999999939405
42
0.19891236738039586
10
46.943145750506119
20
9.064466094062027
10
48.635533907843971
20
10.756854251405123
42
0.19891236539131965
10
50.100000001907574
20
14.292388119097268
10
50.100000011151309
20
15.499999980881967
42
0.41421356639284213
10
47.599999995968574
20
17.999999999998835
42
0.4142135625462452
10
47.09999999899992
20
17.499999996666702
10
47.100000010000265
20
15.84999999999809
42
-0.41421356822424305
10
46.599999999998545
20
15.349999999998545
10
45.100000010006625
20
15.35000000000081
42
-0.41421356236976781
10
44.100000010007534
20
16.349999999997635
10
44.100000009998439
20
18.499999999999091
42
-0.41421356042227275
10
45.599999999999454
20
20
10
74.400000000000546
20
20.000000000004547
42
-0.41421356042049773
10
75.899999989997013
20
18.499999999999091
10
75.899999990003835
20
16.349999999997635
42
-0.41421356237110235
10
74.899999989997923
20
15.349999999998545
10
73.400000000001455
20
15.349999999991731
42
-0.41421356823090399
10
72.899999989995194
20
15.84999999999809
10
72.900000001001644
20
17.499999996666702
42
0.41421356254890901
10
72.400000004035974
20
17.999999999997272
42
0.41421356639177659
10
69.89999998885196
20
15.499999980881967
10
69.899999998080773
20
14.292388119097268
42
0.19891236539198834
10
71.364466092154544
20
10.756854251408186
10
73.056854249496851
20
9.064466094064997
42
0.19891236738073023
10
76.592388155427216
20
7.5999999999976353
10
83.407611844581879
20
7.5999999999939405
42
0.19891236738039586
10
86.943145750506119
20
9.064466094062027
10
88.635533907846238
20
10.75685425140284
42
0.19891236539148749
10
90.100000001907574
20
14.292388119097268
10
90.100000011151309
20
15.499999980881967
42
0.41421356639284213
10
87.599999995968574
20
17.999999999998835
42
0.4142135625462452
10
87.09999999899992
20
17.499999996666702
10
87.100000010007093
20
15.850000003333662
42
-0.41421356432703949
10
86.600000010007534
20
15.349999999998545
10
85.099999999997635
20
15.349999999998561
42
-0.41421355944553162
10
84.100000009993892
20
16.349999999997635
10
84.10000000998933
20
18.499999999999091
42
-0.41421356237575629
10
85.600000009994801
20
20
10
95.999999999999091
20
20.000000012358715
42
-0.41421355394248
10
99.999999976126887
20
15.99999998851156
10
99.999999987600148
20
5.5999999885096496
42
-0.41421356042315288
10
98.499999987602664
20
4.0999999985074975
10
96.349999987601208
20
4.0999999985074869
42
-0.41421356236643864
10
95.349999987610076
20
5.0999999985031774
10
95.349999987610076
20
6.5999999885019189
42
-0.41421356821889127
10
95.849999987601379
20
7.0999999985090323
10
97.499999984267717
20
7.0999999875018709
42
0.41421356254358133
10
97.999999987598855
20
7.599999984466546
42
0.41421356639177659
10
95.499999968488098
20
10.099999999652834
10
94.29238810671022
20
10.099999990419191
42
0.19891236539309476
10
90.756854239009513
20
8.6355338963439703
10
89.064466081683818
20
6.9431457390046392
42
0.19891236737940801
10
87.599999987618162
20
3.407611833070983
10
87.599999987618162
20
-3.4076118560791309
42
0.19891236737924051
10
89.064466081681545
20
-6.943145762010503
10
90.756854239007239
20
-8.6355339193452902
42
0.19891236539326221
10
94.292388106712735
20
-10.100000013423823
10
95.499999968490613
20
-10.100000022662016
42
0.41421356639177659
10
97.99999998760137
20
-7.600000007475729
42
0.41421356254491326
10
97.499999984270232
20
-7.100000010508789
10
95.849999990937192
20
-7.1000000215114003
42
-0.41421356432303136
10
95.349999987606054
20
-6.6000000215090138
10
95.349999987606054
20
-5.1000000115104838
42
-0.41421355944817984
10
96.349999987607276
20
-4.1000000214955135
10
98.499999987608732
20
-4.1000000215068919
42
-0.41421356719857977
10
100.00000001149529
20
-5.6000000223262036
10
100.00000002389248
20
-16.000000012328222
42
-0.41421355394575127
10
95.999999999999091
20
-19.999999988526724
10
85.599999999994907
20
-19.999999999993172
42
-0.41421356042227581
10
84.100000009993892
20
-18.500000000001364
10
84.100000010007534
20
-16.350000000002183
42
-0.41421356237044027
10
85.100000010006625
20
-15.350000000003092
10
86.599999999998559
20
-15.349999999996262
42
-0.41421356822556454
10
87.100000010004806
20
-15.850000000002638
10
87.099999999000346
20
-17.499999996668976
42
0.41421356254358133
10
87.599999995968574
20
-17.999999999997272
42
0.41421356639230938
10
90.100000011157135
20
-15.499999980881967
10
90.100000001911695
20
-14.292388119101817
42
0.19891236539173765
10
88.635533907840909
20
-10.756854251405912
10
86.943145750507455
20
-9.0644660940697737
42
0.19891236738056239
10
83.407611844581879
20
-7.6000000000021828
10
76.592388155427216
20
-7.5999999999984871
42
0.19891236738089721
10
73.056854249493881
20
-9.0644660940711219
10
71.364466092153336
20
-10.756854251404695
42
0.19891236539223936
10
69.899999998083331
20
-14.292388119101815
10
69.899999988850681
20
-15.499999980881967
42
0.41421356639177659
10
72.400000004035974
20
-18.000000000003666
42
0.4142135625462452
10
72.90000000100008
20
-17.499999996668976
10
72.899999990002016
20
-15.850000003335936
42
-0.41421356432302942
10
73.399999989997013
20
-15.350000000003092
10
74.900000000002365
20
-15.349999999998548
42
-0.41421355944286581
10
75.899999990001561
20
-16.350000000002183
10
75.899999990003835
20
-18.500000000001364
42
-0.41421356237487139
10
74.399999989996104
20
-20
10
45.600000010003896
20
-19.999999999988635
42
-0.41421356237487139
10
44.100000010007534
20
-18.500000000001364
10
44.100000009993892
20
-16.350000000002183
42
-0.41421355944552446
10
45.099999999997635
20
-15.350000000003092
10
46.600000010007534
20
-15.350000000000822
42
-0.41421356432569323
10
47.100000010009353
20
-15.850000003335936
10
47.099999999000346
20
-17.499999996668976
42
0.41421356254358133
10
47.599999995968574
20
-17.999999999997272
42
0.41421356639230938
10
50.100000011157135
20
-15.499999980881967
10
50.100000001909706
20
-14.292388119106363
42
0.19891236539163965
10
48.635533907840909
20
-10.756854251405912
10
46.943145750507462
20
-9.0644660940697808
42
0.19891236738056295
10
43.407611844581879
20
-7.6000000000021828
10
36.592388155427216
20
-7.5999999999984871
42
0.19891236738089721
10
33.056854249493881
20
-9.0644660940711219
10
31.364466092155844
20
-10.75685425140721
42
0.19891236539223911
10
29.899999998083331
20
-14.292388119101815
10
29.899999988850681
20
-15.499999980881967
42
0.41421356639177659
10
32.400000004035974
20
-18.000000000003666
42
0.4142135625462452
10
32.90000000100008
20
-17.499999996668976
10
32.899999990002016
20
-15.850000003335936
42
-0.4142135643230333
10
33.399999989997013
20
-15.350000000003092
10
34.900000000002365
20
-15.349999999998545
42
-0.41421355944286448
10
35.899999990001561
20
-16.350000000002183
10
35.899999990003835
20
-18.500000000001364
42
-0.41421356237487222
10
34.399999989996104
20
-20
10
5.600000010003896
20
-19.999999999988631
42
-0.41421356237487095
10
4.100000010007534
20
-18.500000000001364
10
4.1000000099938925
20
-16.350000000002186
42
-0.4142135594455254
10
5.0999999999976353
20
-15.350000000003092
10
6.600000010007534
20
-15.350000000000819
42
-0.41421356432569517
10
7.100000010009353
20
-15.850000003335936
10
7.099999999000346
20
-17.499999996668976
42
0.41421356254358133
0
LWPOLYLINE
5
111
100
AcDbEntity
8
0
100
AcDbPolyline
90
24
70
1
43
0.0
10
50.335534646806309
20
8.2142148759951326
42
0.19891225683647484
10
51.799999237060206
20
11.749747278117862
10
51.799999237059353
20
15.499999999999545
42
-0.41421356237309476
10
54.299999237064185
20
18.00000000000438
10
65.700000762940363
20
18.000000000004373
42
-0.41421356237309453
10
68.200000762945194
20
15.499999999999545
10
68.200000762940363
20
11.749747278117866
42
0.19891225683680919
10
69.664465353199191
20
8.2142148760006357
10
70.785535409752811
20
7.0931438657708128
42
-0.19891225683614028
10
72.250000000003197
20
3.5576114636501215
10
72.250000000004064
20
-3.5576114636501188
42
-0.19891214629497525
10
70.785536913560321
20
-7.0931423619589111
10
69.664463849380809
20
-8.2142173334796098
42
0.19891214629540599
10
68.200000762934948
20
-11.749748231782176
10
68.200000762945194
20
-15.499999999999545
42
-0.41421356237282919
10
65.700000762940363
20
-18.000000000002107
10
54.299999237064185
20
-18.000000000002107
42
-0.41421356237282919
10
51.799999237059353
20
-15.499999999999545
10
51.799999237064185
20
-11.749748231782178
42
0.1989121462948007
10
50.335536150612668
20
-8.2142173334815851
10
49.214463086444283
20
-7.0931423619588543
42
-0.19891214629584653
10
47.749999999995509
20
-3.5576114636501188
10
47.749999999996362
20
3.5576114636501179
42
-0.19891225683697542
10
49.214464590252909
20
7.0931438657696191
0
LWPOLYLINE
5
112
100
AcDbEntity
8
0
100
AcDbPolyline
90
24
70
1
43
0.0
10
10.335534646806313
20
8.2142148759951343
42
0.19891225683647501
10
11.799999237060208
20
11.749747278117866
10
11.799999237059351
20
15.499999999999545
42
-0.41421356237309453
10
14.299999237064185
20
18.00000000000438
10
25.700000762940363
20
18.000000000004377
42
-0.41421356237309609
10
28.200000762945194
20
15.499999999999545
10
28.200000762940363
20
11.749747278117866
42
0.19891225683680919
10
29.664465353199184
20
8.2142148760006357
10
30.785535409750317
20
7.0931438657683046
42
-0.19891225683614039
10
32.249999999999659
20
3.5576114636501224
10
32.250000000005066
20
-3.5576114636501166
42
-0.19891214629530879
10
30.785536913557806
20
-7.0931423619609468
10
29.664463849380809
20
-8.2142173334796098
42
0.19891214629540607
10
28.200000762934962
20
-11.749748231782178
10
28.200000762945194
20
-15.499999999999545
42
-0.41421356237282919
10
25.700000762940363
20
-18.000000000002107
10
14.299999237064185
20
-18.000000000002107
42
-0.41421356237282919
10
11.799999237059351
20
-15.499999999999545
10
11.799999237064185
20
-11.749748231782178
42
0.1989121462948007
10
10.335536150612672
20
-8.2142173334815851
10
9.2144630864442831
20
-7.0931423619588561
42
-0.19891214629584328
10
7.7499999999955049
20
-3.5576114636501166
10
7.7499999999928093
20
3.5576114636501179
42
-0.19891225683697589
10
9.2144645902503992
20
7.0931438657721335
0
LWPOLYLINE
5
113
100
AcDbEntity
8
0
100
AcDbPolyline
90
8
70
1
43
0.0
10
-17.700000047684625
20
-11.799999999994244
42
0.41421353443998327
10
-18.200000000005762
20
-12.300000000000182
10
-18.200000000003062
20
-16.000000000001364
42
0.41421356237551732
10
-15.999999999999091
20
-18.200000000001637
10
-12.300000000000182
20
-18.200000000000927
42
0.41421356236776474
10
-11.800000000007458
20
-17.700000000002092
10
-11.799999999997382
20
-12.299999237061456
42
0.41421311545933781
10
-12.300000000000182
20
-11.800000000000637
0
LWPOLYLINE
5
114
100
AcDbEntity
8
0
100
AcDbPolyline
90
8
70
1
43
0.0
10
-11.800000000001349
20
17.700000047682352
42
0.41421353444131387
10
-12.300000000000182
20
18.199999999998653
10
-15.999999999999091
20
18.199999999998226
42
0.41421356237582058
10
-18.19999999999709
20
15.999999999999091
10
-18.199999999998653
20
12.299999999997908
42
0.41421356237309243
10
-17.699999999999818
20
11.799999999998363
10
-12.299999237061456
20
11.800000000003209
42
0.41421311545667266
10
-11.799999999998363
20
12.299999999997908
0
LWPOLYLINE
5
115
100
AcDbEntity
8
0
100
AcDbPolyline
90
8
70
1
43
0.0
10
98.199999999996663
20
-12.300000000000182
42
0.41421353443598619
10
97.70000004767553
20
-11.800000000001065
10
92.300000000000182
20
-11.799999999994544
42
0.41421338519910922
10
91.800000190733044
20
-12.299999237061456
10
91.800000000001347
20
-17.700000000002092
42
0.41421356237310025
10
92.300000000000182
20
-18.200000000001637
10
95.999999999999091
20
-18.200000000006611
42
0.41421354704839897
10
98.200000047677349
20
-16.000000000001364
0
LWPOLYLINE
5
116
100
AcDbEntity
8
0
100
AcDbPolyline
90
8
70
1
43
0.0
10
92.300000000000182
20
18.200000000002206
42
0.4142135344413243
10
91.79999999999778
20
17.700000047682352
10
91.800000000007472
20
12.299999999997908
42
0.41421338519509393
10
92.299999237061456
20
11.800000190735318
10
97.699999999999818
20
11.799999999999073
42
0.41421356236778295
10
98.199999999992542
20
12.299999999997908
10
98.199999999996521
20
15.999999999999091
42
0.41421354704779506
10
95.999999999999091
20
18.200000047684171
0
CIRCLE
5
117
100
AcDbEntity
8
0
100
AcDbCircle
10
0
20
0
30
0
40
3.3500000000010743
210
0
220
-0
230
1
0
CIRCLE
5
118
100
AcDbEntity
8
0
100
AcDbCircle
10
80
20
0
30
0
40
3.3500000000010743
210
0
220
-0
230
1
0
CIRCLE
5
119
100
AcDbEntity
8
0
100
AcDbCircle
10
40
20
0
30
0
40
3.3500000000010743
210
0
220
-0
230
1
0
ENDSEC
0
SECTION
2
OBJECTS
0
DICTIONARY
5
C
100
AcDbDictionary
3
ACAD_GROUP
350
D
3
ACAD_MLINESTYLE
350
17
0
DICTIONARY
5
D
100
AcDbDictionary
0
DICTIONARY
5
1A
330
C
100
AcDbDictionary
0
DICTIONARY
5
17
100
AcDbDictionary
0
ENDSEC
0
EOF
