0
SECTION
2
HEADER
9
$INSUNITS
70
4
9
$ACADVER
1
AC1014
9
$HANDSEED
5
FFFF
0
ENDSEC
0
SECTION
2
TABLES
0
TABLE
2
VPORT
5
8
100
AcDbSymbolTable
0
ENDTAB
0
TABLE
2
LTYPE
5
5
100
AcDbSymbolTable
0
LTYPE
5
14
100
AcDbSymbolTableRecord
100
AcDbLinetypeTableRecord
2
BYBLOCK
70
0
0
LTYPE
5
15
100
AcDbSymbolTableRecord
100
AcDbLinetypeTableRecord
2
BYLAYER
70
0
0
LTYPE
5
16
100
AcDbSymbolTableRecord
100
AcDbLinetypeTableRecord
2
DASHED
70
0
3
Dashed __ __ __ __ __ __ __ __ __ __ __ __ __ _
72
65
73
2
40
0.75
49
0.5
74
0
49
-0.25
74
0
0
ENDTAB
0
TABLE
2
LAYER
5
2
100
AcDbSymbolTable
70
3
0
LAYER
5
50
100
AcDbSymbolTableRecord
100
AcDbLayerTableRecord
2
1
70
0
62
7
6
DASHED
0
LAYER
5
51
100
AcDbSymbolTableRecord
100
AcDbLayerTableRecord
2
0
70
0
62
7
6
CONTINUOUS
0
ENDTAB
0
TABLE
2
STYLE
5
3
100
AcDbSymbolTable
70
1
0
STYLE
5
11
100
AcDbSymbolTableRecord
100
AcDbTextStyleTableRecord
2
STANDARD
70
0
0
ENDTAB
0
TABLE
2
VIEW
5
6
100
AcDbSymbolTable
70
0
0
ENDTAB
0
TABLE
2
UCS
5
7
100
AcDbSymbolTable
70
0
0
ENDTAB
0
TABLE
2
APPID
5
9
100
AcDbSymbolTable
70
2
0
APPID
5
12
100
AcDbSymbolTableRecord
100
AcDbRegAppTableRecord
2
ACAD
70
0
0
ENDTAB
0
TABLE
2
DIMSTYLE
5
A
100
AcDbSymbolTable
70
1
0
ENDTAB
0
TABLE
2
BLOCK_RECORD
5
1
100
AcDbSymbolTable
70
1
0
BLOCK_RECORD
5
1F
100
AcDbSymbolTableRecord
100
AcDbBlockTableRecord
2
*MODEL_SPACE
0
BLOCK_RECORD
5
1B
100
AcDbSymbolTableRecord
100
AcDbBlockTableRecord
2
*PAPER_SPACE
0
ENDTAB
0
ENDSEC
0
SECTION
2
BLOCKS
0
BLOCK
5
20
100
AcDbEntity
100
AcDbBlockBegin
2
*MODEL_SPACE
0
ENDBLK
5
21
100
AcDbEntity
100
AcDbBlockEnd
0
BLOCK
5
1C
100
AcDbEntity
100
AcDbBlockBegin
2
*PAPER_SPACE
0
ENDBLK
5
1D
100
AcDbEntity
100
AcDbBlockEnd
0
ENDSEC
0
SECTION
2
ENTITIES
0
LWPOLYLINE
5
100
100
AcDbEntity
8
0
100
AcDbPolyline
90
268
70
1
43
0.0
10
76.592388155418121
20
-7.5999999999939405
42
0.19891236738064672
10
73.056854249488893
20
-9.0644660940638602
10
71.364466092150337
20
-10.756854251397165
42
0.19891236539214097
10
69.899999998078783
20
-14.292388119101815
10
69.899999988847696
20
-15.499999980877419
42
0.4142135663947068
10
72.400000004040521
20
-17.999999999996845
42
0.41421356253026209
10
72.90000000100008
20
-17.499999996666702
10
72.899999990002016
20
-15.850000003326841
42
-0.41421356432303197
10
73.399999990001561
20
-15.349999999998545
10
74.900000000002365
20
-15.349999999993997
42
-0.41421355944286187
10
75.899999990001561
20
-16.349999999997635
10
75.899999990001561
20
-18.499999999999091
42
-0.41421356237309503
10
74.399999990000651
20
-20
10
45.600000009994801
20
-20
42
-0.41421356237309503
10
44.100000009993892
20
-18.499999999999091
10
44.100000010002987
20
-16.349999999997635
42
-0.41421355944286187
10
45.099999999997635
20
-15.349999999998545
10
46.600000010002987
20
-15.349999999996271
42
-0.41421356431770429
10
47.100000009995711
20
-15.850000003326841
10
47.099999999007451
20
-17.499999996666702
42
0.41421356254358133
10
47.599999995964026
20
-17.999999999993719
42
0.41421356639230938
10
50.100000011134398
20
-15.499999980877419
10
50.100000001906722
20
-14.292388119101815
42
0.19891236539103443
10
48.635533907845456
20
-10.756854251396817
10
46.943145750506559
20
-9.0644660940638602
42
0.19891236738088303
10
43.407611844572784
20
-7.5999999999976353
10
36.592388155418121
20
-7.5999999999939405
42
0.19891236738064652
10
33.056854249493881
20
-9.0644660940688482
10
31.364466092147829
20
-10.75685425139465
42
0.19891236539214108
10
29.899999998078783
20
-14.292388119101815
10
29.899999988847696
20
-15.499999980877419
42
0.4142135663947068
10
32.400000004040521
20
-17.999999999996845
42
0.41421356253292591
10
32.90000000100008
20
-17.499999996666702
10
32.899999990002016
20
-15.850000003326841
42
-0.41421356432303197
10
33.399999990001561
20
-15.349999999998545
10
34.900000000002365
20
-15.349999999993997
42
-0.41421355944286187
10
35.899999990001561
20
-16.349999999997635
10
35.899999990001561
20
-18.499999999999091
42
-0.41421356237309503
10
34.399999990000651
20
-20
10
5.600000010003896
20
-19.999999999990905
42
-0.41421356237487095
10
4.1000000100029865
20
-18.499999999999091
10
4.1000000100029865
20
-16.349999999997635
42
-0.41421355944286187
10
5.0999999999976353
20
-15.349999999998545
10
6.6000000100029865
20
-15.349999999991724
42
-0.41421356431770429
10
7.100000010000258
20
-15.850000003326841
10
7.0999999990074514
20
-17.499999996666702
42
0.41421356254358133
10
7.5999999959640263
20
-17.999999999993719
42
0.41421356639230938
10
10.100000011134398
20
-15.499999980877419
10
10.100000001910278
20
-14.292388119101815
42
0.19891236539103443
10
8.6355339078454563
20
-10.756854251396817
10
6.9431457505042875
20
-9.0644660940706814
42
0.19891236738091159
10
3.4076118445727843
20
-7.5999999999976353
10
-3.4076118445818793
20
-7.5999999999939405
42
0.19891236738064652
10
-6.9431457505061189
20
-9.0644660940688482
10
-8.6355339078521709
20
-10.75685425139465
42
0.19891236539214108
10
-10.100000001921217
20
-14.292388119101815
10
-10.100000011152304
20
-15.499999980877419
42
0.4142135663947068
10
-7.5999999959594788
20
-17.999999999996845
42
0.41421356253292591
10
-7.0999999989999196
20
-17.499999996666702
10
-7.1000000099979843
20
-15.84999999999809
42
-0.41421356823089744
10
-6.5999999999985448
20
-15.349999999998545
10
-5.100000010002077
20
-15.349999999984902
42
-0.41421356237043117
10
-4.1000000099984391
20
-16.349999999997635
10
-4.1000000099984391
20
-18.499999999999091
42
-0.41421356042049423
10
-5.5999999999994543
20
-20
10
-16.000000000003638
20
-19.999999999993179
42
-0.41421356237426049
10
-20
20
-15.999999999999091
10
-20
20
-5.6000000099993485
42
-0.41421356237487095
10
-18.499999999999091
20
-4.1000000099984391
10
-16.349999999997635
20
-4.1000000100098077
42
-0.41421355944352783
10
-15.350000000012187
20
-5.0999999999930878
10
-15.350000000014461
20
-6.6000000099984391
42
-0.41421356432036815
10
-15.850000003338209
20
-7.1000000099979843
10
-17.499999996675797
20
-7.0999999989867035
42
0.4142135625462452
10
-18.000000000004093
20
-7.5999999959640263
42
0.41421356639337492
10
-15.499999980879693
20
-10.100000011143493
10
-14.292388119106363
20
-10.100000001909422
42
0.19891236539161936
10
-10.756854251408186
20
-8.6355339078431825
10
-9.0644660940743282
20
-6.9431457505029126
42
0.19891236738098669
10
-7.6000000000021828
20
-3.4076118445682373
10
-7.6000000000053092
20
3.4076118445750576
42
0.19891236738084833
10
-9.0644660940733957
20
6.9431457505106664
10
-10.756854251410747
20
8.6355339078451649
42
0.1989123653907002
10
-14.292388119106363
20
10.100000001912122
10
-15.499999980879693
20
10.10000001114804
42
0.41421356639310852
10
-18.00000000000594
20
7.5999999959640263
42
0.41421356253558977
10
-17.499999996675797
20
7.0999999989999196
10
-15.850000000004911
20
7.1000000100116267
42
-0.41421356822423783
10
-15.350000000003092
20
6.6000000000030923
10
-15.350000000005366
20
5.1000000099998033
42
-0.41421356236443752
10
-16.349999999997635
20
4.1000000100007128
10
-18.499999999999091
20
4.1000000100029865
42
-0.41421356042227014
10
-20
20
5.6000000000040018
10
-20
20
16.000000000001364
42
-0.41421356237459345
10
-16.000000000003638
20
20
10
-5.6000000099993485
20
20.000000000002274
42
-0.41421356237309503
10
-4.1000000099984391
20
18.500000000001364
10
-4.1000000100029865
20
16.350000000002183
42
-0.41421355944286187
10
-5.0999999999976353
20
15.350000000003092
10
-6.6000000099984391
20
15.350000000000819
42
-0.41421356432569584
10
-7.100000010000258
20
15.850000003335936
10
-7.0999999989948037
20
17.499999996671249
42
0.41421356254358133
10
-7.5999999959594788
20
17.999999999999545
42
0.41421356639310852
10
-10.100000011152588
20
15.499999980891062
10
-10.100000001913687
20
14.292388119101815
42
0.19891236539166829
10
-8.6355339078500037
20
10.756854251405912
10
-6.9431457505086502
20
9.0644660940685924
42
0.19891236737972728
10
-3.4076118445818793
20
7.6000000000021828
10
3.4076118445727843
20
7.6000000000070154
42
0.19891236737999229
10
6.9431457505061189
20
9.0644660940711219
10
8.6355339078437883
20
10.756854251407578
42
0.19891236539083271
10
10.100000001903027
20
14.292388119101815
10
10.100000011149319
20
15.499999980891062
42
0.41421356639097745
10
7.5999999959640263
20
18.000000000002387
42
0.41421356254091746
10
7.0999999989953722
20
17.499999996671249
10
7.1000000099934368
20
15.850000000002638
42
-0.41421356822823363
10
6.5999999999985448
20
15.350000000003092
10
5.100000010002077
20
15.349999999998545
42
-0.41421356236909923
10
4.1000000100029865
20
16.350000000002183
10
4.1000000100052603
20
18.500000000001364
42
-0.41421356041960627
10
5.5999999999994543
20
20
10
34.400000000000546
20
20.000000000002274
42
-0.41421356042049423
10
35.899999990001561
20
18.500000000001364
10
35.899999989992466
20
16.350000000002183
42
-0.41421356236909923
10
34.899999989997923
20
15.350000000003092
10
33.400000000001455
20
15.350000000005366
42
-0.41421356822823363
10
32.899999989999742
20
15.850000000002638
10
32.900000001005196
20
17.499999996671249
42
0.41421356254358133
10
32.400000004040521
20
17.999999999999545
42
0.41421356639310852
10
29.899999988838317
20
15.499999980891062
10
29.899999998082759
20
14.292388119101815
42
0.19891236539166829
10
31.364466092149996
20
10.756854251405912
10
33.056854249491352
20
9.0644660940685924
42
0.19891236737972728
10
36.592388155418121
20
7.6000000000021828
10
43.407611844572784
20
7.6000000000070163
42
0.19891236737982512
10
46.943145750501571
20
9.0644660940711219
10
48.635533907841271
20
10.756854251410088
42
0.19891236539083293
10
50.100000001903027
20
14.292388119101815
10
50.100000011149319
20
15.499999980891062
42
0.41421356639097745
10
47.599999995964026
20
18.000000000002387
42
0.41421356254091746
10
47.099999998995372
20
17.499999996671249
10
47.100000009993437
20
15.850000000002638
42
-0.41421356822823363
10
46.599999999998545
20
15.350000000003092
10
45.100000010002077
20
15.349999999998545
42
-0.41421356236909923
10
44.100000010002987
20
16.350000000002183
10
44.100000009996165
20
18.500000000001364
42
-0.41421356042138219
10
45.599999999999454
20
20
10
74.400000000000546
20
20.000000000002274
42
-0.41421356042049423
10
75.899999990001561
20
18.500000000001364
10
75.899999989992466
20
16.350000000002183
42
-0.41421356236909923
10
74.899999989997923
20
15.350000000003092
10
73.400000000001455
20
15.350000000005366
42
-0.41421356822823363
10
72.899999989999742
20
15.850000000002638
10
72.900000000991554
20
17.499999996671249
42
0.41421356253558977
10
72.400000004040521
20
17.999999999995993
42
0.41421356639310852
10
69.899999988847412
20
15.499999980891062
10
69.899999998086315
20
14.292388119101815
42
0.19891236539166829
10
71.364466092149996
20
10.756854251405912
10
73.056854249491352
20
9.0644660940685924
42
0.19891236737972728
10
76.592388155418121
20
7.6000000000021828
10
83.407611844572784
20
7.6000000000070154
42
0.19891236737999229
10
86.943145750506119
20
9.0644660940711219
10
88.635533907841278
20
10.756854251410093
42
0.19891236539083243
10
90.100000001903027
20
14.292388119101815
10
90.100000011145767
20
15.499999980891062
42
0.41421356639151019
10
87.599999995959479
20
18.000000000002387
42
0.4142135625462452
10
87.099999998995372
20
17.499999996671249
10
87.100000009993437
20
15.850000000002638
42
-0.41421356822823363
10
86.599999999998545
20
15.350000000003092
10
85.100000009992982
20
15.35000000000764
42
-0.41421356236909923
10
84.100000010002987
20
16.350000000002183
10
84.10000001000526
20
18.500000000001364
42
-0.41421356041960627
10
85.599999999999454
20
20
10
114.399999999996
20
20.000000000002274
42
-0.41421356042138219
10
115.89999999000156
20
18.500000000001364
10
115.89999998999247
20
16.350000000002183
42
-0.41421356236909923
10
114.89999998999792
20
15.350000000003092
10
113.40000000000146
20
15.349999999996271
42
-0.41421356822823363
10
112.89999998999065
20
15.850000000002638
10
112.9000000010052
20
17.499999996671249
42
0.41421356254358133
10
112.40000000404052
20
17.999999999995993
42
0.41421356639310852
10
109.89999998884741
20
15.499999980891062
10
109.89999999808632
20
14.292388119101815
42
0.19891236539166829
10
111.36446609215
20
10.756854251405912
10
113.05685424949387
20
9.0644660940711024
42
0.19891236737972726
10
116.59238815541812
20
7.6000000000067303
10
123.40761184457278
20
7.6000000000070154
42
0.19891236737999229
10
126.94314575050612
20
9.0644660940711219
10
128.63553390784378
20
10.756854251407574
42
0.1989123653908329
10
130.10000000190303
20
14.292388119101815
10
130.10000001114577
20
15.499999980891062
42
0.41421356639097745
10
127.59999999596403
20
18.00000000000594
42
0.41421356254091746
10
127.09999999899537
20
17.499999996671249
10
127.10000000999344
20
15.850000003335936
42
-0.41421356432036815
10
126.60000001000299
20
15.350000000003092
10
125.09999999999764
20
15.350000000003092
42
-0.41421355944286187
10
124.10000001000299
20
16.350000000002183
10
124.10000001000526
20
18.500000000001364
42
-0.41421356237131918
10
125.6000000099948
20
20
10
135.99999999999909
20
20.000000011517692
42
-0.41421355394498999
10
139.99999997616567
20
15.999999987675091
10
139.99999998853025
20
5.5999999876777284
42
-0.41421356042049423
10
138.49999998853119
20
4.0999999976694657
10
136.34999998852973
20
4.0999999976694657
42
-0.41421356236443752
10
135.34999998853505
20
5.0999999976618771
10
135.34999998853505
20
6.599999987665166
42
-0.41421356822956557
10
135.84999998853388
20
7.0999999976616213
10
137.49999998519567
20
7.0999999866612828
42
0.41421356254091746
10
137.99999998853136
20
7.599999983616863
42
0.41421356639204299
10
135.49999996941605
20
10.099999998800877
10
134.29238810762908
20
10.099999989562685
42
0.19891236539118815
10
130.75685423993053
20
8.6355338954997958
10
129.06446608259574
20
6.943145738162726
42
0.19891236738017903
10
127.59999998852962
20
3.4076118322291427
10
127.59999998852962
20
-3.4076118569141522
42
0.19891236738031803
10
129.0644660825912
20
-6.9431457628522963
10
130.75685423992599
20
-8.6355339201916177
42
0.19891236539210705
10
134.2923881076245
20
-10.100000014261816
10
135.49999996941148
20
-10.100000023490914
42
0.41421356639230938
10
137.9999999885232
20
-7.6000000083081787
42
0.41421356255157288
10
137.49999998518751
20
-7.1000000113344086
10
135.84999999185447
20
-7.1000000223392945
42
-0.41421356432303197
10
135.34999998852692
20
-6.6000000223404598
10
135.34999998852692
20
-5.1000000123351086
42
-0.41421355944352783
10
136.34999998852459
20
-4.1000000223396071
10
138.49999998852604
20
-4.1000000223396071
42
-0.41421356686530059
10
140.00000001243765
20
-5.6000000214270074
10
140.0000000239709
20
-16.000000011424476
42
-0.41421355394974929
10
135.99999999999909
20
-19.999999987637693
10
125.59999999999945
20
-20
42
-0.41421356041960627
10
124.10000001000299
20
-18.499999999999091
10
124.10000001001208
20
-16.349999999997635
42
-0.41421356237043117
10
125.10000001000208
20
-15.349999999998545
10
126.59999999999854
20
-15.349999999991724
42
-0.41421356822823363
10
127.10000001000026
20
-15.84999999999809
10
127.09999999900745
20
-17.499999996666702
42
0.41421356254358133
10
127.59999999596403
20
-17.999999999990166
42
0.41421356639230938
10
130.1000000111344
20
-15.499999980877419
10
130.10000000191027
20
-14.292388119101815
42
0.19891236539103438
10
128.63553390784546
20
-10.756854251396817
10
126.94314575050883
20
-9.0644660940661339
42
0.19891236738105014
10
123.40761184457278
20
-7.5999999999976353
10
116.59238815541812
20
-7.5999999999974914
42
0.19891236738073007
10
113.05685424948479
20
-9.064466094062027
10
111.36446609215035
20
-10.756854251397158
42
0.19891236539214152
10
109.89999999807878
20
-14.292388119101815
10
109.89999998884414
20
-15.499999980877419
42
0.4142135663947068
10
112.40000000404052
20
-17.999999999996845
42
0.41421356253292591
10
112.90000000100008
20
-17.499999996666702
10
112.89999999000202
20
-15.850000003326841
42
-0.41421356432303197
10
113.39999999000156
20
-15.349999999998545
10
114.90000000000236
20
-15.349999999993997
42
-0.41421355944286187
10
115.89999999000156
20
-16.349999999997635
10
115.89999999000156
20
-18.499999999999091
42
-0.41421356237487095
10
114.39999998999156
20
-20
10
85.600000010003896
20
-19.999999999990905
42
-0.41421356237487095
10
84.100000010002987
20
-18.499999999999091
10
84.100000009993892
20
-16.349999999997635
42
-0.41421355944552574
10
85.099999999997635
20
-15.349999999998545
10
86.600000009993892
20
-15.349999999991724
42
-0.41421356432303197
10
87.100000010000258
20
-15.850000003326841
10
87.099999998993809
20
-17.499999996666702
42
0.41421356254890901
10
87.599999995959479
20
-17.999999999990166
42
0.41421356639284213
10
90.100000011134398
20
-15.499999980877419
10
90.100000001906722
20
-14.292388119101815
42
0.19891236539103443
10
88.635533907845456
20
-10.756854251396817
10
86.943145750508833
20
-9.0644660940661339
42
0.19891236738105014
10
83.407611844572784
20
-7.5999999999976353
0
LWPOLYLINE
5
101
100
AcDbEntity
8
0
100
AcDbPolyline
90
24
70
1
43
0.0
10
10.335534646805414
20
8.2142148759983069
42
0.19891225683605718
10
11.799999237054664
20
11.749747278117866
10
11.799999237053811
20
15.500000000001819
42
-0.41421356237256224
10
14.299999237050542
20
18.000000000003098
10
25.700000762935815
20
18.000000000003098
42
-0.41421356237256224
10
28.200000762932547
20
15.500000000001819
10
28.200000762935815
20
11.749747278117866
42
0.1989122568370599
10
29.664465353191467
20
8.2142148759997369
10
30.785535409748519
20
7.0931438657733299
42
-0.19891225683640573
10
32.250000000006771
20
3.5576114636478446
10
32.249999999998096
20
-3.5576114636410239
42
-0.19891214629421583
10
30.785536913550381
20
-7.0931423619512435
10
29.664463849389904
20
-8.2142173334818835
42
0.19891214629649845
10
28.20000076292942
20
-11.749748231791273
10
28.200000762932547
20
-15.499999999999545
42
-0.41421356237256224
10
25.700000762935815
20
-18.000000000000824
10
14.299999237050542
20
-18.000000000000824
42
-0.41421356237256224
10
11.799999237053811
20
-15.499999999999545
10
11.799999237050542
20
-11.749748231791273
42
0.1989121462953285
10
10.335536150613805
20
-8.2142173334781727
10
9.2144630864453667
20
-7.0931423619509504
42
-0.19891214629515541
10
7.7499999999959357
20
-3.5576114636410239
10
7.7499999999953664
20
3.5576114636478451
42
-0.19891225683697636
10
9.2144645902508771
20
7.0931438657648371
0
LWPOLYLINE
5
102
100
AcDbEntity
8
0
100
AcDbPolyline
90
24
70
1
43
0.0
10
90.335534646805655
20
8.2142148759980671
42
0.19891225683588995
10
91.799999237053669
20
11.749747278117866
10
91.799999237049263
20
15.500000000001819
42
-0.41421356237309503
10
94.299999237050542
20
18.000000000003098
10
105.70000076293582
20
18.000000000003098
42
-0.41421356237256224
10
108.20000076293255
20
15.500000000001819
10
108.20000076293582
20
11.749747278117866
42
0.1989122568370604
10
109.66446535318896
20
8.214214875997218
10
110.78553540974147
20
7.093143865775362
42
-0.19891225683673999
10
112.25000000000321
20
3.5576114636478455
10
112.24999999999454
20
-3.5576114636410239
42
-0.19891214629421627
10
110.78553691354786
20
-7.0931423619487379
10
109.6644638493899
20
-8.2142173334818835
42
0.19891214629649845
10
108.20000076292943
20
-11.749748231791273
10
108.20000076293255
20
-15.499999999999545
42
-0.41421356237256224
10
105.70000076293582
20
-18.000000000000824
10
94.299999237050542
20
-18.000000000000824
42
-0.41421356237309503
10
91.799999237049263
20
-15.499999999999545
10
91.799999237050542
20
-11.749748231791273
42
0.19891214629532836
10
90.335536150613805
20
-8.2142173334781727
10
89.214463086445363
20
-7.0931423619509504
42
-0.1989121462951553
10
87.749999999995936
20
-3.5576114636410248
10
87.749999999995367
20
3.5576114636478451
42
-0.19891225683697636
10
89.214464590250884
20
7.0931438657648371
0
LWPOLYLINE
5
103
100
AcDbEntity
8
0
100
AcDbPolyline
90
24
70
1
43
0.0
10
50.335534646807929
20
8.2142148759957951
42
0.19891225683605704
10
51.799999237058216
20
11.749747278117866
10
51.799999237053811
20
15.500000000001819
42
-0.41421356237256224
10
54.299999237050542
20
18.000000000003098
10
65.700000762931268
20
18.000000000003098
42
-0.41421356237256224
10
68.200000762927999
20
15.500000000001819
10
68.200000762935815
20
11.749747278117866
42
0.1989122568370599
10
69.664465353191474
20
8.2142148759997369
10
70.785535409739438
20
7.0931438657642367
42
-0.19891225683573702
10
72.249999999988589
20
3.5576114636478451
10
72.249999999994543
20
-3.5576114636410221
42
-0.19891214629421583
10
70.785536913547872
20
-7.0931423619487326
10
69.664463849389904
20
-8.2142173334818835
42
0.19891214629649845
10
68.20000076292942
20
-11.749748231791273
10
68.200000762927999
20
-15.499999999999545
42
-0.41421356237256224
10
65.700000762931268
20
-18.000000000000824
10
54.299999237050542
20
-18.000000000000824
42
-0.41421356237256224
10
51.799999237053811
20
-15.499999999999545
10
51.799999237050542
20
-11.749748231791273
42
0.19891214629499393
10
50.335536150611773
20
-8.214217333480212
10
49.21446308644537
20
-7.0931423619509504
42
-0.19891214629515541
10
47.749999999995936
20
-3.557611463641023
10
47.749999999995367
20
3.5576114636478451
42
-0.19891225683697636
10
49.214464590250877
20
7.0931438657648371
0
LWPOLYLINE
5
104
100
AcDbEntity
8
0
100
AcDbPolyline
90
8
70
1
43
0.0
10
-11.799999999998791
20
17.700000047684625
42
0.41421353443865006
10
-12.300000000000182
20
18.200000000008032
10
-16.000000000003638
20
18.200000000004053
42
0.41421356237581941
10
-18.200000000006185
20
16.000000000001364
10
-18.200000000002206
20
12.300000000000182
42
0.41421356237309503
10
-17.699999999999818
20
11.800000000000637
10
-12.299999237066004
20
11.800000000008041
42
0.41421311546466288
10
-11.80000000000291
20
12.300000000000182
0
LWPOLYLINE
5
105
100
AcDbEntity
8
0
100
AcDbPolyline
90
8
70
1
43
0.0
10
-17.700000047684625
20
-11.799999999995523
42
0.41421353443998199
10
-18.200000000002206
20
-12.299999999997908
10
-18.200000000004053
20
-15.999999999999091
42
0.41421356237521401
10
-16.000000000003638
20
-18.199999999999363
10
-12.300000000000182
20
-18.199999999998653
42
0.41421356237309503
10
-11.80000000000291
20
-17.699999999999818
10
-11.800000000005483
20
-12.299999237059183
42
0.41421311545800327
10
-12.300000000000182
20
-11.799999999998363
0
LWPOLYLINE
5
106
100
AcDbEntity
8
0
100
AcDbPolyline
90
8
70
1
43
0.0
10
132.30000000000018
20
18.200000000008032
42
0.41421353444131387
10
131.79999999999424
20
17.700000047684625
10
131.79999999999583
20
12.300000000000182
42
0.41421338518845252
10
132.29999923705236
20
11.800000190735318
10
137.69999999999982
20
11.800000000004616
42
0.41421356236909923
10
138.20000000000164
20
12.300000000000182
10
138.19999999999752
20
16.000000000001364
42
0.41421354540823108
10
135.99999999999909
20
18.200000047684171
0
LWPOLYLINE
5
107
100
AcDbEntity
8
0
100
AcDbPolyline
90
8
70
1
43
0.0
10
138.19999999999666
20
-12.299999999997908
42
0.41421353443465425
10
137.70000004768463
20
-11.79999999999197
10
132.30000000000018
20
-11.80000000000037
42
0.41421338519111639
10
131.80000019073304
20
-12.299999237059183
10
131.79999999999424
20
-17.699999999999818
42
0.41421356237309503
10
132.30000000000018
20
-18.199999999999363
10
135.99999999999909
20
-18.199999999997516
42
0.41421354857902026
10
138.2000000476819
20
-15.999999999999091
0
CIRCLE
5
108
100
AcDbEntity
8
0
100
AcDbCircle
10
-120
20
0
30
0
40
3.3500000000010743
210
0
220
0
230
-1
0
CIRCLE
5
109
100
AcDbEntity
8
0
100
AcDbCircle
10
0
20
0
30
0
40
3.3500000000010743
210
0
220
0
230
-1
0
CIRCLE
5
110
100
AcDbEntity
8
0
100
AcDbCircle
10
-40
20
0
30
0
40
3.3500000000010743
210
0
220
0
230
-1
0
CIRCLE
5
111
100
AcDbEntity
8
0
100
AcDbCircle
10
-79.999999999995453
20
0
30
0
40
3.3500000000010743
210
0
220
0
230
-1
0
LWPOLYLINE
5
112
100
AcDbEntity
8
0
100
AcDbPolyline
90
268
70
1
43
0.0
10
76.592388155418121
20
-7.5999999999939405
42
0.19891236738064672
10
73.056854249488893
20
-9.0644660940638602
10
71.364466092150337
20
-10.756854251397165
42
0.19891236539214097
10
69.899999998078783
20
-14.292388119101815
10
69.899999988847696
20
-15.499999980877419
42
0.4142135663947068
10
72.400000004040521
20
-17.999999999996845
42
0.41421356253026209
10
72.90000000100008
20
-17.499999996666702
10
72.899999990002016
20
-15.850000003326841
42
-0.4142135643230242
10
73.399999990001561
20
-15.349999999998545
10
74.900000000002365
20
-15.349999999993994
42
-0.41421355944285798
10
75.899999990001561
20
-16.349999999997635
10
75.899999990001561
20
-18.499999999999091
42
-0.41421356237309548
10
74.399999990000651
20
-20
10
45.600000009994801
20
-20
42
-0.41421356237309548
10
44.100000009993892
20
-18.499999999999091
10
44.100000010002987
20
-16.349999999997635
42
-0.41421355944285798
10
45.099999999997635
20
-15.349999999998545
10
46.600000010002987
20
-15.349999999996268
42
-0.41421356431769651
10
47.100000009995711
20
-15.850000003326841
10
47.099999999007451
20
-17.499999996666702
42
0.41421356254358133
10
47.599999995964026
20
-17.999999999993719
42
0.41421356639230938
10
50.100000011134398
20
-15.499999980877419
10
50.100000001906722
20
-14.292388119101815
42
0.19891236539103443
10
48.635533907845456
20
-10.756854251396817
10
46.943145750506559
20
-9.0644660940638602
42
0.19891236738088303
10
43.407611844572784
20
-7.5999999999976353
10
36.592388155418121
20
-7.5999999999939405
42
0.19891236738064652
10
33.056854249493881
20
-9.0644660940688482
10
31.364466092147829
20
-10.75685425139465
42
0.19891236539214108
10
29.899999998078783
20
-14.292388119101815
10
29.899999988847696
20
-15.499999980877419
42
0.4142135663947068
10
32.400000004040521
20
-17.999999999996845
42
0.41421356253292591
10
32.90000000100008
20
-17.499999996666702
10
32.899999990002009
20
-15.850000003326841
42
-0.41421356432303458
10
33.399999990001561
20
-15.349999999998545
10
34.900000000002365
20
-15.349999999993997
42
-0.41421355944285931
10
35.899999990001561
20
-16.349999999997635
10
35.899999990001561
20
-18.499999999999091
42
-0.41421356237309631
10
34.399999990000651
20
-20
10
5.600000010003896
20
-19.999999999990905
42
-0.41421356237487095
10
4.1000000100029865
20
-18.499999999999091
10
4.1000000100029874
20
-16.349999999997639
42
-0.41421355944286159
10
5.0999999999976353
20
-15.349999999998545
10
6.6000000100029865
20
-15.349999999991724
42
-0.41421356431770362
10
7.100000010000258
20
-15.850000003326841
10
7.0999999990074514
20
-17.499999996666702
42
0.41421356254358133
10
7.5999999959640263
20
-17.999999999993719
42
0.41421356639230938
10
10.100000011134398
20
-15.499999980877419
10
10.100000001910278
20
-14.292388119101815
42
0.19891236539103443
10
8.6355339078454563
20
-10.756854251396817
10
6.9431457505042875
20
-9.0644660940706796
42
0.19891236738091153
10
3.4076118445727843
20
-7.5999999999976353
10
-3.4076118445818784
20
-7.5999999999939405
42
0.19891236738064658
10
-6.9431457505061189
20
-9.0644660940688482
10
-8.6355339078521691
20
-10.75685425139465
42
0.19891236539214119
10
-10.100000001921217
20
-14.292388119101815
10
-10.100000011152304
20
-15.499999980877419
42
0.4142135663947068
10
-7.5999999959594788
20
-17.999999999996845
42
0.41421356253292591
10
-7.0999999989999196
20
-17.499999996666702
10
-7.1000000099979825
20
-15.84999999999809
42
-0.41421356823089878
10
-6.5999999999985448
20
-15.349999999998545
10
-5.100000010002077
20
-15.349999999984904
42
-0.41421356237043183
10
-4.1000000099984391
20
-16.349999999997635
10
-4.1000000099984382
20
-18.499999999999087
42
-0.41421356042049357
10
-5.5999999999994543
20
-20
10
-16.000000000003638
20
-19.999999999993179
42
-0.41421356237426077
10
-20
20
-15.999999999999091
10
-20
20
-5.6000000099993485
42
-0.41421356237487117
10
-18.499999999999091
20
-4.1000000099984391
10
-16.349999999997635
20
-4.1000000100098077
42
-0.41421355944352783
10
-15.350000000012187
20
-5.0999999999930878
10
-15.350000000014459
20
-6.6000000099984391
42
-0.41421356432036682
10
-15.850000003338209
20
-7.1000000099979843
10
-17.499999996675797
20
-7.0999999989867035
42
0.4142135625462452
10
-18.000000000004093
20
-7.5999999959640263
42
0.41421356639337492
10
-15.499999980879693
20
-10.100000011143493
10
-14.292388119106363
20
-10.100000001909422
42
0.19891236539161936
10
-10.756854251408186
20
-8.6355339078431825
10
-9.0644660940743282
20
-6.9431457505029126
42
0.19891236738098669
10
-7.6000000000021828
20
-3.4076118445682364
10
-7.6000000000053092
20
3.4076118445750563
42
0.19891236738084836
10
-9.0644660940733957
20
6.9431457505106664
10
-10.756854251410747
20
8.6355339078451649
42
0.1989123653907002
10
-14.292388119106363
20
10.100000001912122
10
-15.499999980879693
20
10.10000001114804
42
0.41421356639310852
10
-18.00000000000594
20
7.5999999959640263
42
0.41421356253558977
10
-17.499999996675797
20
7.0999999989999196
10
-15.850000000004913
20
7.1000000100116276
42
-0.41421356822423588
10
-15.350000000003092
20
6.6000000000030923
10
-15.350000000005366
20
5.1000000099998033
42
-0.41421356236443851
10
-16.349999999997635
20
4.1000000100007128
10
-18.499999999999091
20
4.1000000100029848
42
-0.41421356042227059
10
-20
20
5.6000000000040018
10
-20
20
16.000000000001364
42
-0.41421356237459378
10
-16.000000000003638
20
20
10
-5.6000000099993485
20
20.000000000002274
42
-0.41421356237309531
10
-4.1000000099984391
20
18.500000000001364
10
-4.1000000100029874
20
16.350000000002186
42
-0.41421355944286159
10
-5.0999999999976353
20
15.350000000003092
10
-6.6000000099984391
20
15.35000000000082
42
-0.41421356432569711
10
-7.100000010000258
20
15.850000003335936
10
-7.0999999989948037
20
17.499999996671249
42
0.41421356254358133
10
-7.5999999959594788
20
17.999999999999545
42
0.41421356639310852
10
-10.100000011152588
20
15.499999980891062
10
-10.100000001913687
20
14.292388119101815
42
0.19891236539166829
10
-8.6355339078500037
20
10.756854251405912
10
-6.9431457505086502
20
9.0644660940685924
42
0.19891236737972728
10
-3.4076118445818793
20
7.6000000000021828
10
3.4076118445727834
20
7.6000000000070154
42
0.19891236737999235
10
6.9431457505061189
20
9.0644660940711219
10
8.6355339078437883
20
10.756854251407578
42
0.19891236539083271
10
10.100000001903027
20
14.292388119101815
10
10.100000011149319
20
15.499999980891062
42
0.41421356639097745
10
7.5999999959640263
20
18.000000000002387
42
0.41421356254091746
10
7.0999999989953722
20
17.499999996671249
10
7.1000000099934368
20
15.850000000002638
42
-0.41421356822823102
10
6.5999999999985448
20
15.350000000003092
10
5.100000010002077
20
15.349999999998545
42
-0.41421356236909895
10
4.1000000100029865
20
16.350000000002183
10
4.1000000100052603
20
18.500000000001364
42
-0.41421356041960627
10
5.5999999999994543
20
20
10
34.400000000000546
20
20.000000000002274
42
-0.41421356042049551
10
35.899999990001561
20
18.500000000001364
10
35.899999989992466
20
16.350000000002183
42
-0.41421356236909862
10
34.899999989997923
20
15.350000000003092
10
33.400000000001455
20
15.350000000005366
42
-0.41421356822823363
10
32.899999989999742
20
15.850000000002638
10
32.900000001005196
20
17.499999996671249
42
0.41421356254358133
10
32.400000004040521
20
17.999999999999545
42
0.41421356639310852
10
29.899999988838317
20
15.499999980891062
10
29.899999998082759
20
14.292388119101815
42
0.19891236539166829
10
31.364466092149996
20
10.756854251405912
10
33.056854249491352
20
9.0644660940685924
42
0.19891236737972728
10
36.592388155418121
20
7.6000000000021828
10
43.407611844572784
20
7.6000000000070163
42
0.19891236737982512
10
46.943145750501571
20
9.0644660940711219
10
48.635533907841271
20
10.756854251410088
42
0.19891236539083293
10
50.100000001903027
20
14.292388119101815
10
50.100000011149319
20
15.499999980891062
42
0.41421356639097745
10
47.599999995964026
20
18.000000000002387
42
0.41421356254091746
10
47.099999998995372
20
17.499999996671249
10
47.100000009993437
20
15.850000000002638
42
-0.41421356822823491
10
46.599999999998545
20
15.350000000003092
10
45.100000010002077
20
15.349999999998543
42
-0.41421356236909468
10
44.100000010002987
20
16.350000000002183
10
44.100000009996165
20
18.500000000001364
42
-0.4142135604213813
10
45.599999999999454
20
20
10
74.400000000000546
20
20.000000000002274
42
-0.41421356042049773
10
75.899999990001561
20
18.500000000001364
10
75.899999989992466
20
16.350000000002183
42
-0.41421356236909862
10
74.899999989997923
20
15.350000000003092
10
73.400000000001455
20
15.350000000005364
42
-0.41421356822822453
10
72.899999989999742
20
15.850000000002638
10
72.900000000991554
20
17.499999996671249
42
0.41421356253558977
10
72.400000004040521
20
17.999999999995993
42
0.41421356639310852
10
69.899999988847412
20
15.499999980891062
10
69.899999998086315
20
14.292388119101815
42
0.19891236539166829
10
71.364466092149996
20
10.756854251405912
10
73.056854249491352
20
9.0644660940685924
42
0.19891236737972728
10
76.592388155418121
20
7.6000000000021828
10
83.407611844572784
20
7.6000000000070154
42
0.19891236737999229
10
86.943145750506119
20
9.0644660940711219
10
88.635533907841278
20
10.756854251410093
42
0.19891236539083243
10
90.100000001903027
20
14.292388119101815
10
90.100000011145767
20
15.499999980891062
42
0.41421356639151019
10
87.599999995959479
20
18.000000000002387
42
0.4142135625462452
10
87.099999998995372
20
17.499999996671249
10
87.100000009993437
20
15.850000000002638
42
-0.41421356822822974
10
86.599999999998545
20
15.350000000003092
10
85.100000009992982
20
15.350000000007649
42
-0.41421356236910706
10
84.100000010002987
20
16.350000000002183
10
84.10000001000526
20
18.500000000001364
42
-0.41421356041960805
10
85.599999999999454
20
20
10
114.399999999996
20
20.00000000000227
42
-0.4142135604213813
10
115.89999999000156
20
18.500000000001364
10
115.89999998999247
20
16.350000000002183
42
-0.41421356236910706
10
114.89999998999792
20
15.350000000003092
10
113.40000000000146
20
15.349999999996278
42
-0.41421356822822974
10
112.89999998999065
20
15.850000000002638
10
112.9000000010052
20
17.499999996671249
42
0.41421356254358133
10
112.40000000404052
20
17.999999999995993
42
0.41421356639310852
10
109.89999998884741
20
15.499999980891062
10
109.89999999808632
20
14.292388119101815
42
0.19891236539166829
10
111.36446609215
20
10.756854251405912
10
113.05685424949387
20
9.0644660940711024
42
0.19891236737972726
10
116.59238815541812
20
7.6000000000067303
10
123.40761184457278
20
7.6000000000070154
42
0.19891236737999229
10
126.94314575050612
20
9.0644660940711219
10
128.63553390784378
20
10.756854251407574
42
0.1989123653908329
10
130.10000000190303
20
14.292388119101815
10
130.10000001114577
20
15.499999980891062
42
0.41421356639097745
10
127.59999999596403
20
18.00000000000594
42
0.41421356254091746
10
127.09999999899537
20
17.499999996671249
10
127.10000000999344
20
15.850000003335936
42
-0.41421356432038503
10
126.60000001000299
20
15.350000000003092
10
125.09999999999764
20
15.350000000003091
42
-0.41421355944286253
10
124.10000001000299
20
16.350000000002183
10
124.10000001000526
20
18.500000000001364
42
-0.41421356237131352
10
125.6000000099948
20
20
10
135.99999999999909
20
20.000000011517688
42
-0.41421355394498988
10
139.99999997616567
20
15.999999987675091
10
139.99999998853025
20
5.5999999876777284
42
-0.41421356042049035
10
138.49999998853119
20
4.0999999976694657
10
136.34999998852973
20
4.0999999976694568
42
-0.41421356236442453
10
135.34999998853505
20
5.0999999976618771
10
135.34999998853505
20
6.599999987665166
42
-0.41421356822956357
10
135.84999998853388
20
7.0999999976616213
10
137.49999998519567
20
7.0999999866612828
42
0.41421356254091746
10
137.99999998853136
20
7.599999983616863
42
0.41421356639204299
10
135.49999996941605
20
10.099999998800877
10
134.29238810762908
20
10.099999989562685
42
0.19891236539118815
10
130.75685423993053
20
8.6355338954997958
10
129.06446608259574
20
6.943145738162726
42
0.19891236738017903
10
127.59999998852962
20
3.4076118322291427
10
127.59999998852962
20
-3.4076118569141514
42
0.19891236738031809
10
129.0644660825912
20
-6.9431457628522963
10
130.75685423992599
20
-8.6355339201916159
42
0.1989123653921071
10
134.2923881076245
20
-10.100000014261816
10
135.49999996941148
20
-10.100000023490914
42
0.41421356639230938
10
137.9999999885232
20
-7.6000000083081787
42
0.41421356255157288
10
137.49999998518751
20
-7.1000000113344086
10
135.84999999185447
20
-7.1000000223392901
42
-0.41421356432305018
10
135.34999998852692
20
-6.6000000223404598
10
135.34999998852692
20
-5.1000000123351086
42
-0.41421355944352006
10
136.34999998852459
20
-4.1000000223396071
10
138.49999998852604
20
-4.1000000223396125
42
-0.41421356686529959
10
140.00000001243765
20
-5.6000000214270074
10
140.0000000239709
20
-16.000000011424476
42
-0.41421355394974702
10
135.99999999999909
20
-19.999999987637693
10
125.59999999999945
20
-19.999999999999996
42
-0.41421356041960544
10
124.10000001000299
20
-18.499999999999091
10
124.10000001001208
20
-16.349999999997635
42
-0.41421356237044027
10
125.10000001000208
20
-15.349999999998545
10
126.59999999999854
20
-15.349999999991722
42
-0.41421356822823491
10
127.10000001000026
20
-15.84999999999809
10
127.09999999900745
20
-17.499999996666702
42
0.41421356254358133
10
127.59999999596403
20
-17.999999999990166
42
0.41421356639230938
10
130.1000000111344
20
-15.499999980877419
10
130.10000000191027
20
-14.292388119101815
42
0.19891236539103438
10
128.63553390784546
20
-10.756854251396817
10
126.94314575050883
20
-9.0644660940661339
42
0.19891236738105014
10
123.40761184457278
20
-7.5999999999976353
10
116.59238815541812
20
-7.5999999999974914
42
0.19891236738073007
10
113.05685424948479
20
-9.064466094062027
10
111.36446609215035
20
-10.756854251397154
42
0.19891236539214172
10
109.89999999807878
20
-14.292388119101815
10
109.89999998884414
20
-15.499999980877419
42
0.4142135663947068
10
112.40000000404052
20
-17.999999999996845
42
0.41421356253292591
10
112.90000000100008
20
-17.499999996666702
10
112.89999999000202
20
-15.850000003326841
42
-0.41421356432302942
10
113.39999999000156
20
-15.349999999998545
10
114.90000000000236
20
-15.349999999994004
42
-0.41421355944287036
10
115.89999999000156
20
-16.349999999997635
10
115.89999999000156
20
-18.499999999999091
42
-0.41421356237487139
10
114.39999998999156
20
-20
10
85.600000010003896
20
-19.999999999990909
42
-0.41421356237487139
10
84.100000010002987
20
-18.499999999999091
10
84.100000009993892
20
-16.349999999997635
42
-0.41421355944553417
10
85.099999999997635
20
-15.349999999998545
10
86.600000009993892
20
-15.349999999991709
42
-0.4142135643230398
10
87.100000010000258
20
-15.850000003326841
10
87.099999998993809
20
-17.499999996666702
42
0.41421356254890901
10
87.599999995959479
20
-17.999999999990166
42
0.41421356639284213
10
90.100000011134398
20
-15.499999980877419
10
90.100000001906722
20
-14.292388119101815
42
0.19891236539103443
10
88.635533907845456
20
-10.756854251396817
10
86.943145750508833
20
-9.0644660940661339
42
0.19891236738105014
10
83.407611844572784
20
-7.5999999999976353
0
LWPOLYLINE
5
113
100
AcDbEntity
8
0
100
AcDbPolyline
90
24
70
1
43
0.0
10
10.33553464680541
20
8.2142148759983069
42
0.19891225683605732
10
11.799999237054664
20
11.749747278117866
10
11.799999237053811
20
15.500000000001819
42
-0.41421356237256224
10
14.299999237050542
20
18.000000000003098
10
25.700000762935815
20
18.000000000003098
42
-0.41421356237256124
10
28.200000762932547
20
15.500000000001819
10
28.200000762935815
20
11.749747278117866
42
0.19891225683705985
10
29.664465353191467
20
8.2142148759997387
10
30.785535409748519
20
7.0931438657733281
42
-0.19891225683640679
10
32.250000000006764
20
3.5576114636478486
10
32.249999999998096
20
-3.5576114636410248
42
-0.19891214629421503
10
30.785536913550381
20
-7.0931423619512435
10
29.664463849389904
20
-8.2142173334818835
42
0.19891214629649845
10
28.20000076292942
20
-11.749748231791273
10
28.200000762932547
20
-15.499999999999545
42
-0.41421356237256124
10
25.700000762935815
20
-18.000000000000824
10
14.299999237050542
20
-18.000000000000824
42
-0.41421356237256224
10
11.799999237053811
20
-15.499999999999545
10
11.799999237050542
20
-11.749748231791273
42
0.19891214629532841
10
10.335536150613807
20
-8.2142173334781745
10
9.2144630864453649
20
-7.093142361950953
42
-0.19891214629515494
10
7.7499999999959348
20
-3.5576114636410248
10
7.7499999999953673
20
3.5576114636478446
42
-0.19891225683697669
10
9.2144645902508771
20
7.0931438657648354
0
LWPOLYLINE
5
114
100
AcDbEntity
8
0
100
AcDbPolyline
90
24
70
1
43
0.0
10
90.335534646805655
20
8.2142148759980671
42
0.19891225683588995
10
91.799999237053669
20
11.749747278117866
10
91.799999237049263
20
15.500000000001819
42
-0.41421356237309453
10
94.299999237050542
20
18.000000000003098
10
105.70000076293582
20
18.000000000003109
42
-0.41421356237256357
10
108.20000076293255
20
15.500000000001819
10
108.20000076293582
20
11.749747278117866
42
0.1989122568370604
10
109.66446535318896
20
8.214214875997218
10
110.78553540974144
20
7.0931438657753603
42
-0.19891225683674113
10
112.25000000000321
20
3.5576114636478504
10
112.24999999999454
20
-3.5576114636410221
42
-0.19891214629421697
10
110.78553691354786
20
-7.0931423619487344
10
109.6644638493899
20
-8.2142173334818835
42
0.19891214629649845
10
108.20000076292942
20
-11.749748231791273
10
108.20000076293253
20
-15.499999999999545
42
-0.41421356237256357
10
105.70000076293582
20
-18.000000000000824
10
94.299999237050542
20
-18.000000000000821
42
-0.41421356237309453
10
91.799999237049263
20
-15.499999999999545
10
91.799999237050542
20
-11.749748231791273
42
0.1989121462953283
10
90.335536150613805
20
-8.2142173334781745
10
89.214463086445363
20
-7.0931423619509477
42
-0.198912146295153
10
87.749999999995936
20
-3.5576114636410248
10
87.749999999995367
20
3.5576114636478451
42
-0.19891225683697256
10
89.214464590250884
20
7.0931438657648354
0
LWPOLYLINE
5
115
100
AcDbEntity
8
0
100
AcDbPolyline
90
24
70
1
43
0.0
10
50.335534646807929
20
8.2142148759957951
42
0.19891225683605704
10
51.799999237058216
20
11.749747278117866
10
51.799999237053811
20
15.500000000001819
42
-0.41421356237256068
10
54.299999237050542
20
18.000000000003098
10
65.700000762931268
20
18.000000000003102
42
-0.41421356237256068
10
68.200000762927999
20
15.500000000001819
10
68.200000762935815
20
11.749747278117866
42
0.19891225683705985
10
69.664465353191474
20
8.2142148759997387
10
70.785535409739424
20
7.0931438657642332
42
-0.19891225683573541
10
72.249999999988589
20
3.5576114636478469
10
72.249999999994557
20
-3.5576114636410243
42
-0.19891214629421455
10
70.785536913547872
20
-7.0931423619487326
10
69.664463849389904
20
-8.2142173334818835
42
0.19891214629649837
10
68.20000076292942
20
-11.749748231791271
10
68.200000762927999
20
-15.499999999999545
42
-0.41421356237256068
10
65.700000762931268
20
-18.000000000000824
10
54.299999237050542
20
-18.000000000000828
42
-0.41421356237256068
10
51.799999237053811
20
-15.499999999999545
10
51.799999237050542
20
-11.749748231791273
42
0.1989121462949939
10
50.335536150611773
20
-8.214217333480212
10
49.214463086445363
20
-7.093142361950953
42
-0.19891214629515494
10
47.749999999995936
20
-3.5576114636410265
10
47.749999999995367
20
3.5576114636478433
42
-0.19891225683697786
10
49.214464590250877
20
7.0931438657648354
0
LWPOLYLINE
5
116
100
AcDbEntity
8
0
100
AcDbPolyline
90
8
70
1
43
0.0
10
-11.799999999998791
20
17.700000047684625
42
0.41421353443865133
10
-12.300000000000182
20
18.200000000008028
10
-16.000000000003638
20
18.200000000004053
42
0.41421356237581941
10
-18.200000000006185
20
16.000000000001364
10
-18.200000000002206
20
12.300000000000182
42
0.41421356237308982
10
-17.699999999999818
20
11.800000000000637
10
-12.299999237066004
20
11.800000000008041
42
0.41421311546466288
10
-11.80000000000291
20
12.300000000000182
0
LWPOLYLINE
5
117
100
AcDbEntity
8
0
100
AcDbPolyline
90
8
70
1
43
0.0
10
-17.700000047684625
20
-11.799999999995523
42
0.41421353443997805
10
-18.200000000002209
20
-12.299999999997908
10
-18.200000000004053
20
-15.999999999999091
42
0.41421356237521401
10
-16.000000000003638
20
-18.199999999999363
10
-12.300000000000182
20
-18.199999999998653
42
0.41421356237309243
10
-11.80000000000291
20
-17.699999999999818
10
-11.800000000005483
20
-12.299999237059183
42
0.41421311545800066
10
-12.300000000000182
20
-11.799999999998363
0
LWPOLYLINE
5
118
100
AcDbEntity
8
0
100
AcDbPolyline
90
8
70
1
43
0.0
10
132.30000000000018
20
18.200000000008032
42
0.41421353444129438
10
131.79999999999424
20
17.700000047684625
10
131.79999999999583
20
12.300000000000182
42
0.41421338518845907
10
132.29999923705236
20
11.800000190735318
10
137.69999999999982
20
11.800000000004616
42
0.41421356236909534
10
138.20000000000164
20
12.300000000000182
10
138.19999999999752
20
16.000000000001364
42
0.41421354704779034
10
135.99999999999909
20
18.200000047684171
0
LWPOLYLINE
5
119
100
AcDbEntity
8
0
100
AcDbPolyline
90
8
70
1
43
0.0
10
138.19999999999666
20
-12.299999999997908
42
0.41421353443465686
10
137.70000004768463
20
-11.799999999991966
10
132.30000000000018
20
-11.80000000000037
42
0.41421338519110207
10
131.80000019073304
20
-12.299999237059183
10
131.79999999999424
20
-17.699999999999818
42
0.41421356237308593
10
132.30000000000018
20
-18.199999999999363
10
135.99999999999909
20
-18.199999999997516
42
0.41421354704748792
10
138.2000000476819
20
-15.999999999999091
0
CIRCLE
5
120
100
AcDbEntity
8
0
100
AcDbCircle
10
120
20
0
30
0
40
3.3500000000010743
210
0
220
-0
230
1
0
CIRCLE
5
121
100
AcDbEntity
8
0
100
AcDbCircle
10
0
20
0
30
0
40
3.3500000000010743
210
0
220
-0
230
1
0
CIRCLE
5
122
100
AcDbEntity
8
0
100
AcDbCircle
10
40
20
0
30
0
40
3.3500000000010743
210
0
220
-0
230
1
0
CIRCLE
5
123
100
AcDbEntity
8
0
100
AcDbCircle
10
79.999999999995453
20
0
30
0
40
3.3500000000010743
210
0
220
-0
230
1
0
ENDSEC
0
SECTION
2
OBJECTS
0
DICTIONARY
5
C
100
AcDbDictionary
3
ACAD_GROUP
350
D
3
ACAD_MLINESTYLE
350
17
0
DICTIONARY
5
D
100
AcDbDictionary
0
DICTIONARY
5
1A
330
C
100
AcDbDictionary
0
DICTIONARY
5
17
100
AcDbDictionary
0
ENDSEC
0
EOF
