0
SECTION
2
HEADER
9
$INSUNITS
70
4
9
$ACADVER
1
AC1014
9
$HANDSEED
5
FFFF
0
ENDSEC
0
SECTION
2
TABLES
0
TABLE
2
VPORT
5
8
100
AcDbSymbolTable
0
ENDTAB
0
TABLE
2
LTYPE
5
5
100
AcDbSymbolTable
0
LTYPE
5
14
100
AcDbSymbolTableRecord
100
AcDbLinetypeTableRecord
2
BYBLOCK
70
0
0
LTYPE
5
15
100
AcDbSymbolTableRecord
100
AcDbLinetypeTableRecord
2
BYLAYER
70
0
0
ENDTAB
0
TABLE
2
LAYER
5
2
100
AcDbSymbolTable
70
2
0
LAYER
5
50
100
AcDbSymbolTableRecord
100
AcDbLayerTableRecord
2
0
70
0
6
CONTINUOUS
0
ENDTAB
0
TABLE
2
STYLE
5
3
100
AcDbSymbolTable
70
1
0
STYLE
5
11
100
AcDbSymbolTableRecord
100
AcDbTextStyleTableRecord
2
STANDARD
70
0
0
ENDTAB
0
TABLE
2
VIEW
5
6
100
AcDbSymbolTable
70
0
0
ENDTAB
0
TABLE
2
UCS
5
7
100
AcDbSymbolTable
70
0
0
ENDTAB
0
TABLE
2
APPID
5
9
100
AcDbSymbolTable
70
2
0
APPID
5
12
100
AcDbSymbolTableRecord
100
AcDbRegAppTableRecord
2
ACAD
70
0
0
ENDTAB
0
TABLE
2
DIMSTYLE
5
A
100
AcDbSymbolTable
70
1
0
ENDTAB
0
TABLE
2
BLOCK_RECORD
5
1
100
AcDbSymbolTable
70
1
0
BLOCK_RECORD
5
1F
100
AcDbSymbolTableRecord
100
AcDbBlockTableRecord
2
*MODEL_SPACE
0
BLOCK_RECORD
5
1B
100
AcDbSymbolTableRecord
100
AcDbBlockTableRecord
2
*PAPER_SPACE
0
ENDTAB
0
ENDSEC
0
SECTION
2
BLOCKS
0
BLOCK
5
20
100
AcDbEntity
100
AcDbBlockBegin
2
*MODEL_SPACE
0
ENDBLK
5
21
100
AcDbEntity
100
AcDbBlockEnd
0
BLOCK
5
1C
100
AcDbEntity
100
AcDbBlockBegin
2
*PAPER_SPACE
0
ENDBLK
5
1D
100
AcDbEntity
100
AcDbBlockEnd
0
ENDSEC
0
SECTION
2
ENTITIES
0
LWPOLYLINE
5
100
100
AcDbEntity
8
0
100
AcDbPolyline
90
158
70
1
43
0.0
10
35.000033329999631
20
-14.299999999999564
42
0.41421356237365003
10
34.700033329999734
20
-13.99999999999952
10
29.949913991199683
20
-13.999999999999623
10
29.949913991199612
20
-11.464299571199554
10
33.91432358346961
20
-7.4998899789293381
10
39.133974596215353
20
-7.4998899789289819
10
39.999999999999503
20
-6.9998899789292235
10
40.866025403784221
20
-7.4998899789293372
10
46.085676416529608
20
-7.4998899789292652
10
50.050152668799512
20
-11.464366231199239
10
50.050152668799583
20
-13.999999999999265
10
45.300033329999678
20
-13.999999999999336
42
0.41421356237351126
10
45.000033329999745
20
-14.299999999999347
10
45.000033329999738
20
-18.199999999999068
42
0.41421356237295631
10
45.300033329999749
20
-18.499999999999257
10
45.800033329999721
20
-18.499999999999364
10
45.800033329999792
20
-19.499999999999094
42
0.41421356237313667
10
46.300033329999835
20
-19.999999999999037
10
56.999999999999886
20
-19.999999999999133
42
0.41421356237309503
10
59.999999999999709
20
-16.999999999999091
10
59.999999999999361
20
-6.2999666699988532
42
0.41421356237292856
10
59.499999999999602
20
-5.7999666699988524
10
58.499999999999588
20
-5.7999666699988106
10
58.499999999999588
20
-5.299966669998839
42
0.41421356237309503
10
58.199999999999505
20
-4.999966669998761
10
54.299999999999642
20
-4.9999666699988996
42
0.41421356237337253
10
53.999999999999638
20
-5.299966669998911
10
53.999999999999631
20
-10.050086008798818
10
51.464299571199632
20
-10.050086008798889
10
47.499889978929346
20
-6.0856764165288171
10
47.499889978929062
20
-0.86602540378321602
10
46.999889978929019
20
1.0762224444960111e-12
10
47.499889978929204
20
0.86602540378586557
10
47.499889978929133
20
6.0856764165309691
10
51.464366231199037
20
10.050152668801157
10
53.999999999999204
20
10.050152668801228
10
53.999999999999346
20
5.3000333300011118
42
0.4142135623730257
10
54.299999999999429
20
5.0000333300011048
10
58.199999999999292
20
5.0000333300012434
42
0.4142135623727482
10
58.499999999999481
20
5.3000333300011837
10
58.499999999999375
20
5.8000333300012263
10
59.499999999999247
20
5.8000333300014395
42
0.41421356237309503
10
59.999999999999154
20
6.3000333300011979
10
59.999999999998934
20
17.000000000000966
42
0.41421356237312978
10
56.999999999998963
20
20.000000000001069
10
46.299966669999073
20
20.000000000000647
42
0.41421356237308982
10
45.799966669999137
20
19.500000000000679
10
45.799966669999108
20
18.500000000000664
10
45.299966669999066
20
18.500000000000878
42
0.41421356237337253
10
44.999966669999097
20
18.200000000000724
10
44.999966669999054
20
14.30000000000093
42
0.41421356237253792
10
45.299966669999137
20
14.000000000000876
10
50.0500860087989
20
14.000000000000707
10
50.050086008798971
20
11.46429957120078
10
46.08567641652904
20
7.499889978930919
10
40.866025403782942
20
7.4998899789308471
10
39.999999999998792
20
6.9998899789308044
10
39.133974596214856
20
7.499889978930776
10
33.914323583469184
20
7.4998899789307041
10
29.949847331199134
20
11.464366231200536
10
29.949847331199063
20
14.000000000000348
10
34.699966669999036
20
14.000000000000632
42
0.41421356237344192
10
34.999966669999004
20
14.300000000000715
10
34.999966669999047
20
18.200000000000507
42
0.41421356237316442
10
34.699966669998965
20
18.500000000000586
10
34.199966669998922
20
18.500000000000448
10
34.199966669998922
20
19.500000000000462
42
0.41421356237309503
10
33.69996666999895
20
20.000000000000515
10
26.499999999999059
20
20.000000000000288
42
0.41421356237309503
10
25.999999999999002
20
19.50000000000032
10
25.999999999999087
20
19.000000000000277
10
13.999999999999059
20
18.999999999999989
10
13.999999999999059
20
19.500000000000032
42
0.41421356237309503
10
13.499999999999087
20
20.000000000000089
10
6.300033329999688
20
19.999999999999861
42
0.41421356237309503
10
5.8000333299996321
20
19.49999999999989
10
5.8000333299996454
20
18.500000000000089
10
5.3000333299996738
20
18.500000000000089
42
0.41421356237260948
10
5.0000333299995869
20
18.20000000000022
10
5.0000333299998054
20
14.300000000000283
42
0.41421356237281759
10
5.3000333299996747
20
14.000000000000419
10
10.050152668799724
20
14.00000000000013
10
10.050152668799795
20
11.464366231200318
10
6.0856764165297497
20
7.4998899789301285
10
0.86602540378407755
20
7.4998899789300566
10
1.4058199049316045e-13
20
6.9998899789301561
10
-0.86602540378436454
20
7.4998899789299855
10
-6.0856764165296813
20
7.4998899789301978
10
-10.050086008800109
20
11.464299571200199
10
-10.05008600880018
20
14.000000000000268
10
-5.2999666700002059
20
14.00000000000041
42
0.41421356237309503
10
-4.99996667000035
20
14.30000000000028
10
-4.9999666700002656
20
18.200000000000287
42
0.41421356237281537
10
-5.2999666700002779
20
18.499999999999968
10
-5.7999666700003205
20
18.500000000000011
10
-5.7999666700003916
20
19.499999999999954
42
0.41421356237330315
10
-6.2999666700002921
20
20.000000000000256
10
-17.000000000000245
20
20.00000000000021
42
0.41421356237308815
10
-20.000000000000217
20
17.000000000000167
10
-19.999999999999861
20
6.3000333300002564
42
0.41421356237313667
10
-19.499999999999961
20
5.8000333300003115
10
-18.500000000000089
20
5.8000333300002138
10
-18.500000000000089
20
5.3000333300003133
42
0.41421356237330315
10
-18.200000000000077
20
5.0000333300003863
10
-14.30000000000007
20
5.0000333300000186
42
0.41421356237337253
10
-14.000000000000215
20
5.3000333300003142
10
-14.000000000000201
20
10.050152668800221
10
-11.464366231200176
20
10.050152668800292
10
-7.4998899789300575
20
6.0856764165301049
10
-7.4998899789299855
20
0.86602540378464599
10
-6.9998899789299429
20
3.537448112211905e-13
10
-7.4998899789299855
20
-0.86602540378422244
10
-7.4998899789299136
20
-6.0856764165296813
10
-11.464299571200128
20
-10.050086008799754
10
-14.000000000000126
20
-10.050086008799825
10
-14.000000000000055
20
-5.2999666699999928
42
0.41421356237358065
10
-14.300000000000066
20
-4.9999666699998526
10
-18.200000000000003
20
-4.9999666700000525
42
0.41421356237357848
10
-18.500000000000053
20
-5.2999666700000647
10
-18.500000000000011
20
-5.7999666700001073
10
-19.500000000000025
20
-5.7999666700001073
42
0.41421356237309503
10
-20.000000000000028
20
-6.2999666700000789
10
-19.999999999999996
20
-17.000000000000032
42
0.41421356237315077
10
-16.999999999999879
20
-20.000000000000139
10
-6.3000333299999012
20
-19.999999999999719
42
0.41421356237309503
10
-5.8000333299999562
20
-19.499999999999748
10
-5.8000333299999296
20
-18.500000000000089
10
-5.300033329999958
20
-18.499999999999734
42
0.41421356237281759
10
-5.0000333299999351
20
-18.200000000000006
10
-5.0000333300000186
20
-14.299999999999715
42
0.41421356237337253
10
-5.30003333000003
20
-13.999999999999915
10
-10.050152668799937
20
-13.999999999999774
10
-10.050152668800008
20
-11.464366231199678
10
-6.0856764165301049
20
-7.4998899789298443
10
-0.86602540378464599
20
-7.4998899789297724
10
-2.1163626406917047e-13
20
-6.9998899789298008
10
0.86602540378422244
20
-7.4998899789296303
10
6.0856764165296813
20
-7.4998899789295583
10
10.050086008799896
20
-11.464299571199986
10
10.050086008799967
20
-13.999999999999771
10
5.2999666699999217
20
-13.999999999999771
42
0.41421356237309503
10
4.9999666699998437
20
-14.299999999999782
10
4.9999666700000525
20
-18.19999999999979
42
0.41421356237330098
10
5.2999666699999937
20
-18.499999999999698
10
5.7999666700000363
20
-18.499999999999869
10
5.7999666700001073
20
-19.500000000000167
42
0.41421356237309503
10
6.2999666700000789
20
-20.000000000000171
10
13.499999999999876
20
-19.999999999999996
42
0.41421356237309503
10
13.999999999999877
20
-19.500000000000025
10
13.999999999999847
20
-18.999999999999982
10
25.999999999999876
20
-18.999999999999694
10
25.999999999999876
20
-19.499999999999737
42
0.41421356237309503
10
26.499999999999847
20
-19.999999999999737
10
33.700033329999862
20
-19.999999999999567
42
0.4142135623731783
10
34.200033329999947
20
-19.499999999999595
10
34.200033329999762
20
-18.499999999999581
10
34.700033329999805
20
-18.499999999999297
42
0.41421356237351126
10
35.000033329999802
20
-18.199999999999285
0
LWPOLYLINE
5
101
100
AcDbEntity
8
0
100
AcDbPolyline
90
24
70
1
43
0.0
10
32.20710678118607
20
-6.3786796564131194
10
28.292893218813195
20
-10.29289321878607
42
0.19891236737956877
10
27.999999999999893
20
-10.999999999972509
10
27.999999999999922
20
-15.999999999999723
42
-0.41421356237315748
10
26.999999999999819
20
-16.999999999999613
10
12.999999999999762
20
-17.000000000000014
42
-0.41421356237309503
10
11.999999999999762
20
-16.000000000000011
10
11.999999999999675
20
-10.999999999973012
42
0.19891236737973456
10
11.707106781186237
20
-10.292893218786292
10
7.7928932188129192
20
-6.3786796564132846
42
-0.19891236737955575
10
7.499999999999579
20
-5.6715728752268983
10
7.499999999999484
20
5.6715728752269712
42
-0.19891236737964529
10
7.7928932188128686
20
6.3786796564134072
10
11.707106781185741
20
10.292893218786718
42
0.19891236737973189
10
11.999999999999254
20
10.999999999973157
10
11.999999999999226
20
16.000000000000231
42
-0.41421356237307422
10
12.999999999999044
20
17.000000000000121
10
26.999999999999314
20
17.000000000000306
42
-0.41421356237311585
10
27.999999999999385
20
16.000000000000306
10
27.999999999999471
20
10.999999999973234
42
0.19891236737969137
10
28.292893218812793
20
10.292893218786613
10
32.207106781185814
20
6.3786796564138735
42
-0.19891236737963952
10
32.499999999999233
20
5.6715728752274757
10
32.499999999999609
20
-5.6715728752263947
42
-0.19891236737970266
0
LWPOLYLINE
5
102
100
AcDbEntity
8
0
100
AcDbPolyline
90
24
70
1
43
0.0
10
5.199999999999747
20
-2.2671203565047895
10
5.199999999999724
20
-4.5000000000001696
42
-0.41421356237306534
10
4.4999999999998161
20
-5.2000000000001476
10
2.2671203565045781
20
-5.2000000000001734
10
1.9982631347071083
20
-4.5833333333165633
42
-0.20851441405716334
10
-1.9982631347073434
20
-4.5833333333164612
10
-2.2671203565047895
20
-5.2000000000002444
10
-4.5000000000001696
20
-5.2000000000001343
42
-0.41421356237294643
10
-5.2000000000001325
20
-4.5000000000003846
10
-5.2000000000001023
20
-2.2671203565046492
10
-4.5833333333335009
20
-1.998263134713818
42
-0.20851441405711271
10
-4.5833333333332913
20
1.9982631347142972
10
-5.2000000000002444
20
2.2671203565045763
10
-5.2000000000002764
20
4.4999999999996723
42
-0.41421356237303558
10
-4.5000000000003846
20
5.1999999999997062
10
-2.2671203565045781
20
5.1999999999999602
10
-1.9982631347137487
20
4.5833333333331669
42
-0.20851441405711549
10
1.9982631347141486
20
4.583333333332992
10
2.2671203565043632
20
5.199999999999747
10
4.4999999999996012
20
5.2000000000000322
42
-0.41421356237309503
10
5.1999999999997462
20
4.4999999999998872
10
5.199999999999676
20
2.2671203565041518
10
4.5833333333333357
20
1.9982631347136395
42
-0.20851441405711688
10
4.5833333333330168
20
-1.9982631347143713
0
LWPOLYLINE
5
103
100
AcDbEntity
8
0
100
AcDbPolyline
90
24
70
1
43
0.0
10
42.267120356504293
20
-5.1999999999993829
10
41.998263134713952
20
-4.5833333333322246
42
-0.20851441406618823
10
38.001736865299435
20
-4.5833333332992767
10
37.732879643494783
20
-5.1999999999994539
10
35.499999999999545
20
-5.1999999999994593
42
-0.41421356237312473
10
34.799999999999606
20
-4.4999999999995941
10
34.799999999999542
20
-2.267120356504214
10
35.416666666586941
20
-1.9982631347482325
42
-0.20851441405521914
10
35.416666666745002
20
1.9982631346796256
10
34.799999999999471
20
2.2671203565047273
10
34.799999999999073
20
4.5000000000004627
42
-0.41421356237297613
10
35.499999999999332
20
5.2000000000004345
10
37.73287964349457
20
5.2000000000004665
10
38.00173686529218
20
4.583333333317225
42
-0.20851441404808607
10
41.99826313472002
20
4.583333333350688
10
42.267120356503796
20
5.2000000000008217
10
44.499999999999389
20
5.2000000000008226
42
-0.41421356237309503
10
45.199999999999534
20
4.5000000000006777
10
45.199999999999463
20
2.2671203565055817
10
44.583333333253123
20
1.9982631346807329
42
-0.20851441405900209
10
44.583333333412028
20
-1.9982631347473889
10
45.199999999999534
20
-2.2671203565036437
10
45.199999999999676
20
-4.4999999999993792
42
-0.41421356237294643
10
44.499999999999602
20
-5.1999999999992399
0
LWPOLYLINE
5
104
100
AcDbEntity
8
0
100
AcDbPolyline
90
12
70
1
43
0.0
10
55.49999999999919
20
11.750000000000838
10
54.499999999999247
20
11.750000000000746
42
-0.41421356237307233
10
51.749999999999247
20
14.500000000000821
10
51.749999999999119
20
15.500000000000764
10
49.499999999999105
20
15.500000000000693
42
-0.99999999999999989
10
49.499999999999105
20
18.500000000000806
10
54.499999999999105
20
18.500000000000878
10
54.499999999999105
20
17.250000000000806
42
-0.41421356237259555
10
57.249999999999304
20
14.500000000005866
10
58.499999999999162
20
14.500000000000966
10
58.499999999999375
20
9.5000000000008953
42
-0.99999999999999989
10
55.499999999999261
20
9.5000000000008917
0
LWPOLYLINE
5
105
100
AcDbEntity
8
0
100
AcDbPolyline
90
12
70
1
43
0.0
10
-14.500000000000387
20
18.500000000000082
10
-9.5000000000004583
20
18.499999999999829
42
-0.99999999999999989
10
-9.5000000000003162
20
15.499999999999938
10
-11.750000000000259
20
15.499999999999828
10
-11.750000000000204
20
14.500000000000311
42
-0.41421356237307994
10
-14.500000000000243
20
11.749999999999988
10
-15.500000000000187
20
11.75000000000011
10
-15.500000000000227
20
9.5000000000000959
42
-0.99999999999999989
10
-18.500000000000117
20
9.4999999999999538
10
-18.500000000000302
20
14.500000000000167
10
-17.250000000000153
20
14.500000000005141
42
-0.41421356237258067
10
-14.500000000000385
20
17.249999999999936
0
LWPOLYLINE
5
106
100
AcDbEntity
8
0
100
AcDbPolyline
90
12
70
1
43
0.0
10
-14.499999999999954
20
-18.499999999999947
10
-14.499999999999954
20
-17.249999999999822
42
-0.41421356237310281
10
-17.24999999999989
20
-14.499999999999959
10
-18.500000000000011
20
-14.500000000000032
10
-18.500000000000099
20
-9.4999999999999609
42
-0.99999999999999989
10
-15.500000000000096
20
-9.4999999999999591
10
-15.49999999999997
20
-11.749999999999975
10
-14.500000000000027
20
-11.749999999999819
42
-0.41421356237308748
10
-11.749999999999885
20
-14.499999999999888
10
-11.749999999999968
20
-15.499999999999902
10
-9.4999999999999538
20
-15.499999999999815
42
-0.99999999999999989
10
-9.4999999999999538
20
-18.499999999999819
0
LWPOLYLINE
5
107
100
AcDbEntity
8
0
100
AcDbPolyline
90
12
70
1
43
0.0
10
55.499999999999687
20
-11.749999999999105
10
55.499999999999673
20
-9.4999999999992344
42
-0.99999999999999989
10
58.499999999999673
20
-9.4999999999990923
10
58.49999999999973
20
-14.499999999999091
10
57.249999999999766
20
-14.499999999999162
42
-0.41421356237311047
10
54.499999999999815
20
-17.249999999998973
10
54.499999999999815
20
-18.499999999999151
10
49.499999999999815
20
-18.499999999999307
42
-0.99999999999999989
10
49.499999999999815
20
-15.499999999999305
10
51.749999999999758
20
-15.499999999999179
10
51.749999999999815
20
-14.499999999999236
42
-0.41421356237307994
10
54.499999999999744
20
-11.749999999999023
0
LWPOLYLINE
5
108
100
AcDbEntity
8
0
100
AcDbPolyline
90
158
70
1
43
0.0
10
35.000033329999631
20
-14.299999999999564
42
0.41421356237365869
10
34.700033329999734
20
-13.999999999999522
10
29.949913991199683
20
-13.999999999999623
10
29.949913991199612
20
-11.464299571199554
10
33.91432358346961
20
-7.4998899789293381
10
39.133974596215353
20
-7.4998899789289819
10
39.999999999999503
20
-6.9998899789292235
10
40.866025403784221
20
-7.4998899789293372
10
46.085676416529608
20
-7.4998899789292652
10
50.050152668799512
20
-11.464366231199239
10
50.050152668799583
20
-13.999999999999265
10
45.300033329999678
20
-13.999999999999336
42
0.41421356237350049
10
45.000033329999738
20
-14.299999999999347
10
45.000033329999738
20
-18.199999999999068
42
0.41421356237294116
10
45.300033329999749
20
-18.499999999999261
10
45.800033329999721
20
-18.499999999999364
10
45.800033329999792
20
-19.499999999999094
42
0.41421356237314444
10
46.300033329999835
20
-19.999999999999034
10
56.999999999999886
20
-19.999999999999133
42
0.41421356237309681
10
59.999999999999709
20
-16.999999999999091
10
59.999999999999361
20
-6.2999666699988532
42
0.41421356237294221
10
59.499999999999602
20
-5.7999666699988497
10
58.499999999999588
20
-5.7999666699988106
10
58.499999999999588
20
-5.299966669998839
42
0.41421356237309176
10
58.199999999999505
20
-4.9999666699987602
10
54.299999999999642
20
-4.9999666699988996
42
0.41421356237336276
10
53.999999999999631
20
-5.299966669998911
10
53.999999999999631
20
-10.050086008798818
10
51.464299571199632
20
-10.050086008798889
10
47.499889978929346
20
-6.0856764165288171
10
47.499889978929062
20
-0.86602540378321602
10
46.999889978929019
20
1.0762224444960111e-12
10
47.499889978929204
20
0.86602540378586557
10
47.499889978929133
20
6.0856764165309691
10
51.464366231199037
20
10.050152668801157
10
53.999999999999204
20
10.050152668801228
10
53.999999999999346
20
5.3000333300011118
42
0.41421356237302026
10
54.299999999999429
20
5.0000333300011057
10
58.199999999999292
20
5.0000333300012434
42
0.41421356237275581
10
58.499999999999474
20
5.3000333300011837
10
58.499999999999375
20
5.8000333300012263
10
59.499999999999247
20
5.8000333300014395
42
0.41421356237309243
10
59.999999999999154
20
6.3000333300011979
10
59.999999999998934
20
17.000000000000966
42
0.41421356237313128
10
56.999999999998963
20
20.000000000001066
10
46.299966669999073
20
20.000000000000647
42
0.41421356237308854
10
45.799966669999122
20
19.500000000000679
10
45.799966669999108
20
18.500000000000664
10
45.299966669999066
20
18.500000000000878
42
0.41421356237335738
10
44.999966669999097
20
18.200000000000724
10
44.999966669999054
20
14.30000000000093
42
0.41421356237255308
10
45.299966669999137
20
14.000000000000878
10
50.0500860087989
20
14.000000000000707
10
50.050086008798971
20
11.46429957120078
10
46.08567641652904
20
7.499889978930919
10
40.866025403782942
20
7.4998899789308471
10
39.999999999998792
20
6.9998899789308044
10
39.133974596214856
20
7.499889978930776
10
33.914323583469184
20
7.4998899789307041
10
29.949847331199134
20
11.464366231200536
10
29.949847331199063
20
14.000000000000348
10
34.699966669999036
20
14.000000000000632
42
0.41421356237344192
10
34.999966669999004
20
14.300000000000715
10
34.999966669999047
20
18.200000000000507
42
0.41421356237316659
10
34.699966669998965
20
18.500000000000583
10
34.199966669998922
20
18.500000000000448
10
34.199966669998922
20
19.500000000000462
42
0.41421356237309631
10
33.699966669998958
20
20.000000000000515
10
26.499999999999059
20
20.000000000000288
42
0.41421356237309892
10
25.999999999999002
20
19.50000000000032
10
25.999999999999087
20
19.000000000000277
10
13.999999999999059
20
18.999999999999989
10
13.999999999999059
20
19.500000000000032
42
0.41421356237309115
10
13.499999999999087
20
20.000000000000089
10
6.300033329999688
20
19.999999999999861
42
0.41421356237309309
10
5.8000333299996329
20
19.49999999999989
10
5.8000333299996454
20
18.500000000000089
10
5.3000333299996738
20
18.500000000000089
42
0.41421356237260948
10
5.0000333299995869
20
18.20000000000022
10
5.0000333299998054
20
14.300000000000283
42
0.41421356237281864
10
5.3000333299996747
20
14.000000000000421
10
10.050152668799724
20
14.00000000000013
10
10.050152668799795
20
11.464366231200318
10
6.0856764165297497
20
7.4998899789301285
10
0.86602540378407755
20
7.4998899789300566
10
1.4058199049316045e-13
20
6.9998899789301561
10
-0.86602540378436454
20
7.4998899789299855
10
-6.0856764165296813
20
7.4998899789301978
10
-10.050086008800109
20
11.464299571200199
10
-10.05008600880018
20
14.000000000000268
10
-5.2999666700002059
20
14.00000000000041
42
0.41421356237309936
10
-4.99996667000035
20
14.30000000000028
10
-4.9999666700002656
20
18.200000000000287
42
0.41421356237281537
10
-5.2999666700002779
20
18.499999999999968
10
-5.7999666700003205
20
18.500000000000011
10
-5.7999666700003916
20
19.499999999999954
42
0.41421356237330248
10
-6.2999666700002921
20
20.000000000000256
10
-17.000000000000245
20
20.00000000000021
42
0.41421356237308815
10
-20.000000000000217
20
17.000000000000167
10
-19.999999999999861
20
6.3000333300002564
42
0.41421356237313406
10
-19.499999999999961
20
5.8000333300003115
10
-18.500000000000089
20
5.8000333300002138
10
-18.500000000000089
20
5.3000333300003133
42
0.41421356237330315
10
-18.200000000000077
20
5.0000333300003863
10
-14.30000000000007
20
5.0000333300000186
42
0.41421356237337253
10
-14.000000000000215
20
5.3000333300003142
10
-14.000000000000201
20
10.050152668800221
10
-11.464366231200176
20
10.050152668800292
10
-7.4998899789300575
20
6.0856764165301049
10
-7.4998899789299855
20
0.86602540378464599
10
-6.9998899789299429
20
3.537448112211905e-13
10
-7.4998899789299855
20
-0.86602540378422244
10
-7.4998899789299136
20
-6.0856764165296813
10
-11.464299571200128
20
-10.050086008799754
10
-14.000000000000126
20
-10.050086008799825
10
-14.000000000000055
20
-5.2999666699999928
42
0.41421356237358065
10
-14.300000000000066
20
-4.9999666699998526
10
-18.200000000000003
20
-4.9999666700000525
42
0.41421356237357743
10
-18.500000000000053
20
-5.2999666700000647
10
-18.500000000000011
20
-5.7999666700001073
10
-19.500000000000025
20
-5.7999666700001073
42
0.41421356237309764
10
-20.000000000000028
20
-6.2999666700000789
10
-19.999999999999996
20
-17.000000000000032
42
0.41421356237315188
10
-16.999999999999879
20
-20.000000000000142
10
-6.3000333299999012
20
-19.999999999999719
42
0.41421356237309631
10
-5.8000333299999536
20
-19.499999999999748
10
-5.8000333299999296
20
-18.500000000000089
10
-5.300033329999958
20
-18.499999999999734
42
0.4142135623728132
10
-5.0000333299999351
20
-18.200000000000006
10
-5.0000333300000186
20
-14.299999999999715
42
0.41421356237336715
10
-5.30003333000003
20
-13.999999999999915
10
-10.050152668799937
20
-13.999999999999774
10
-10.050152668800008
20
-11.464366231199678
10
-6.0856764165301049
20
-7.4998899789298443
10
-0.86602540378464599
20
-7.4998899789297724
10
-2.1163626406917047e-13
20
-6.9998899789298008
10
0.86602540378422244
20
-7.4998899789296303
10
6.0856764165296813
20
-7.4998899789295583
10
10.050086008799896
20
-11.464299571199986
10
10.050086008799967
20
-13.999999999999771
10
5.2999666699999217
20
-13.999999999999771
42
0.41421356237309176
10
4.9999666699998446
20
-14.299999999999784
10
4.9999666700000525
20
-18.19999999999979
42
0.41421356237329987
10
5.2999666699999937
20
-18.499999999999698
10
5.7999666700000363
20
-18.499999999999869
10
5.7999666700001073
20
-19.500000000000167
42
0.41421356237309764
10
6.2999666700000789
20
-20.000000000000171
10
13.499999999999876
20
-19.999999999999996
42
0.41421356237310025
10
13.999999999999877
20
-19.500000000000025
10
13.999999999999847
20
-18.999999999999982
10
25.999999999999876
20
-18.999999999999694
10
25.999999999999876
20
-19.499999999999737
42
0.41421356237309503
10
26.499999999999847
20
-19.999999999999741
10
33.700033329999862
20
-19.999999999999567
42
0.4142135623731783
10
34.200033329999947
20
-19.499999999999595
10
34.200033329999762
20
-18.499999999999581
10
34.700033329999805
20
-18.499999999999297
42
0.41421356237351126
10
35.000033329999802
20
-18.199999999999285
0
LWPOLYLINE
5
109
100
AcDbEntity
8
0
100
AcDbPolyline
90
24
70
1
43
0.0
10
32.20710678118607
20
-6.3786796564131194
10
28.292893218813195
20
-10.29289321878607
42
0.19891236737956827
10
27.999999999999897
20
-10.999999999972507
10
27.999999999999929
20
-15.999999999999723
42
-0.41421356237315682
10
26.999999999999819
20
-16.999999999999613
10
12.999999999999762
20
-17.000000000000014
42
-0.4142135623730957
10
11.999999999999762
20
-16.000000000000011
10
11.999999999999675
20
-10.999999999973012
42
0.19891236737973456
10
11.707106781186237
20
-10.292893218786292
10
7.792893218812921
20
-6.3786796564132846
42
-0.19891236737955598
10
7.499999999999579
20
-5.6715728752268983
10
7.4999999999994831
20
5.6715728752269721
42
-0.19891236737964321
10
7.7928932188128677
20
6.3786796564134072
10
11.707106781185741
20
10.292893218786718
42
0.19891236737973189
10
11.999999999999254
20
10.999999999973157
10
11.999999999999227
20
16.000000000000231
42
-0.41421356237307355
10
12.999999999999044
20
17.000000000000121
10
26.999999999999314
20
17.000000000000306
42
-0.41421356237311585
10
27.999999999999385
20
16.000000000000306
10
27.999999999999471
20
10.999999999973234
42
0.19891236737969137
10
28.292893218812793
20
10.292893218786613
10
32.207106781185814
20
6.3786796564138744
42
-0.19891236737964127
10
32.499999999999233
20
5.6715728752274766
10
32.499999999999602
20
-5.6715728752263956
42
-0.19891236737970774
0
LWPOLYLINE
5
110
100
AcDbEntity
8
0
100
AcDbPolyline
90
24
70
1
43
0.0
10
5.199999999999747
20
-2.2671203565047895
10
5.199999999999724
20
-4.5000000000001696
42
-0.41421356237306534
10
4.4999999999998161
20
-5.2000000000001476
10
2.2671203565045781
20
-5.2000000000001734
10
1.9982631347071109
20
-4.5833333333165625
42
-0.20851441405716334
10
-1.998263134707343
20
-4.5833333333164621
10
-2.2671203565047895
20
-5.2000000000002444
10
-4.5000000000001696
20
-5.2000000000001361
42
-0.4142135623729466
10
-5.2000000000001325
20
-4.5000000000003846
10
-5.2000000000001023
20
-2.2671203565046492
10
-4.5833333333335
20
-1.9982631347138182
42
-0.20851441405711249
10
-4.5833333333332922
20
1.9982631347142963
10
-5.2000000000002444
20
2.2671203565045763
10
-5.2000000000002782
20
4.4999999999996723
42
-0.41421356237303586
10
-4.5000000000003846
20
5.1999999999997062
10
-2.2671203565045781
20
5.1999999999999602
10
-1.9982631347137478
20
4.5833333333331661
42
-0.20851441405711527
10
1.9982631347141493
20
4.583333333332992
10
2.2671203565043632
20
5.199999999999747
10
4.4999999999996012
20
5.2000000000000322
42
-0.41421356237309503
10
5.1999999999997462
20
4.4999999999998872
10
5.199999999999676
20
2.2671203565041518
10
4.5833333333333348
20
1.9982631347136386
42
-0.20851441405711618
10
4.5833333333330168
20
-1.9982631347143704
0
LWPOLYLINE
5
111
100
AcDbEntity
8
0
100
AcDbPolyline
90
24
70
1
43
0.0
10
42.267120356504293
20
-5.1999999999993829
10
41.998263134713952
20
-4.5833333333322281
42
-0.20851441406618823
10
38.001736865299428
20
-4.5833333332992767
10
37.732879643494783
20
-5.1999999999994539
10
35.499999999999545
20
-5.1999999999994584
42
-0.41421356237312457
10
34.799999999999606
20
-4.4999999999995941
10
34.799999999999542
20
-2.267120356504214
10
35.416666666586949
20
-1.9982631347482327
42
-0.20851441405521834
10
35.416666666745002
20
1.9982631346796242
10
34.799999999999471
20
2.2671203565047273
10
34.799999999999073
20
4.5000000000004627
42
-0.41421356237297613
10
35.499999999999332
20
5.2000000000004345
10
37.73287964349457
20
5.2000000000004665
10
38.001736865292187
20
4.5833333333172259
42
-0.20851441404808607
10
41.99826313472002
20
4.583333333350688
10
42.267120356503796
20
5.2000000000008217
10
44.499999999999389
20
5.2000000000008217
42
-0.41421356237309481
10
45.199999999999534
20
4.5000000000006777
10
45.199999999999463
20
2.2671203565055817
10
44.583333333253123
20
1.9982631346807287
42
-0.20851441405900048
10
44.583333333412028
20
-1.9982631347473887
10
45.199999999999534
20
-2.2671203565036437
10
45.199999999999676
20
-4.4999999999993792
42
-0.41421356237295265
10
44.499999999999602
20
-5.1999999999992399
0
LWPOLYLINE
5
112
100
AcDbEntity
8
0
100
AcDbPolyline
90
12
70
1
43
0.0
10
55.49999999999919
20
11.750000000000838
10
54.499999999999247
20
11.750000000000755
42
-0.41421356237307144
10
51.749999999999247
20
14.500000000000821
10
51.749999999999119
20
15.500000000000764
10
49.499999999999105
20
15.500000000000693
42
-0.99999999999999989
10
49.499999999999105
20
18.500000000000806
10
54.499999999999105
20
18.500000000000878
10
54.499999999999105
20
17.25000000000081
42
-0.41421356237259799
10
57.249999999999304
20
14.500000000005866
10
58.499999999999162
20
14.500000000000966
10
58.499999999999375
20
9.5000000000008935
42
-0.99999999999999989
10
55.499999999999261
20
9.5000000000008935
0
LWPOLYLINE
5
113
100
AcDbEntity
8
0
100
AcDbPolyline
90
12
70
1
43
0.0
10
-14.500000000000387
20
18.500000000000082
10
-9.5000000000004583
20
18.499999999999829
42
-0.99999999999999989
10
-9.5000000000003162
20
15.499999999999938
10
-11.750000000000259
20
15.499999999999828
10
-11.750000000000206
20
14.500000000000311
42
-0.41421356237307966
10
-14.500000000000243
20
11.749999999999988
10
-15.500000000000187
20
11.75000000000011
10
-15.500000000000227
20
9.5000000000000959
42
-0.99999999999999989
10
-18.500000000000117
20
9.4999999999999538
10
-18.500000000000302
20
14.500000000000167
10
-17.250000000000156
20
14.500000000005141
42
-0.41421356237258095
10
-14.500000000000385
20
17.249999999999936
0
LWPOLYLINE
5
114
100
AcDbEntity
8
0
100
AcDbPolyline
90
12
70
1
43
0.0
10
-14.499999999999954
20
-18.499999999999947
10
-14.499999999999954
20
-17.249999999999826
42
-0.41421356237310308
10
-17.24999999999989
20
-14.499999999999959
10
-18.500000000000011
20
-14.500000000000032
10
-18.500000000000099
20
-9.4999999999999591
42
-0.99999999999999989
10
-15.500000000000096
20
-9.4999999999999609
10
-15.49999999999997
20
-11.749999999999975
10
-14.500000000000027
20
-11.749999999999819
42
-0.41421356237308704
10
-11.749999999999885
20
-14.499999999999888
10
-11.749999999999968
20
-15.499999999999902
10
-9.499999999999952
20
-15.499999999999815
42
-0.99999999999999989
10
-9.4999999999999538
20
-18.499999999999819
0
LWPOLYLINE
5
115
100
AcDbEntity
8
0
100
AcDbPolyline
90
12
70
1
43
0.0
10
55.499999999999687
20
-11.749999999999105
10
55.499999999999673
20
-9.4999999999992397
42
-0.99999999999999989
10
58.499999999999673
20
-9.4999999999990923
10
58.49999999999973
20
-14.499999999999091
10
57.249999999999766
20
-14.499999999999162
42
-0.41421356237310858
10
54.499999999999815
20
-17.249999999998973
10
54.499999999999815
20
-18.499999999999151
10
49.499999999999815
20
-18.499999999999307
42
-0.99999999999999989
10
49.499999999999815
20
-15.499999999999305
10
51.749999999999758
20
-15.499999999999179
10
51.749999999999815
20
-14.499999999999236
42
-0.41421356237307921
10
54.499999999999744
20
-11.749999999999023
0
ENDSEC
0
SECTION
2
OBJECTS
0
DICTIONARY
5
C
100
AcDbDictionary
3
ACAD_GROUP
350
D
3
ACAD_MLINESTYLE
350
17
0
DICTIONARY
5
D
100
AcDbDictionary
0
DICTIONARY
5
1A
330
C
100
AcDbDictionary
0
DICTIONARY
5
17
100
AcDbDictionary
0
ENDSEC
0
EOF
