0
SECTION
2
HEADER
9
$INSUNITS
70
4
9
$ACADVER
1
AC1014
9
$HANDSEED
5
FFFF
0
ENDSEC
0
SECTION
2
TABLES
0
TABLE
2
VPORT
5
8
100
AcDbSymbolTable
0
ENDTAB
0
TABLE
2
LTYPE
5
5
100
AcDbSymbolTable
0
LTYPE
5
14
100
AcDbSymbolTableRecord
100
AcDbLinetypeTableRecord
2
BYBLOCK
70
0
0
LTYPE
5
15
100
AcDbSymbolTableRecord
100
AcDbLinetypeTableRecord
2
BYLAYER
70
0
0
LTYPE
5
16
100
AcDbSymbolTableRecord
100
AcDbLinetypeTableRecord
2
DASHED
70
0
3
Dashed __ __ __ __ __ __ __ __ __ __ __ __ __ _
72
65
73
2
40
0.75
49
0.5
74
0
49
-0.25
74
0
0
ENDTAB
0
TABLE
2
LAYER
5
2
100
AcDbSymbolTable
70
3
0
LAYER
5
50
100
AcDbSymbolTableRecord
100
AcDbLayerTableRecord
2
1
70
0
62
7
6
DASHED
0
LAYER
5
51
100
AcDbSymbolTableRecord
100
AcDbLayerTableRecord
2
0
70
0
62
7
6
CONTINUOUS
0
ENDTAB
0
TABLE
2
STYLE
5
3
100
AcDbSymbolTable
70
1
0
STYLE
5
11
100
AcDbSymbolTableRecord
100
AcDbTextStyleTableRecord
2
STANDARD
70
0
0
ENDTAB
0
TABLE
2
VIEW
5
6
100
AcDbSymbolTable
70
0
0
ENDTAB
0
TABLE
2
UCS
5
7
100
AcDbSymbolTable
70
0
0
ENDTAB
0
TABLE
2
APPID
5
9
100
AcDbSymbolTable
70
2
0
APPID
5
12
100
AcDbSymbolTableRecord
100
AcDbRegAppTableRecord
2
ACAD
70
0
0
ENDTAB
0
TABLE
2
DIMSTYLE
5
A
100
AcDbSymbolTable
70
1
0
ENDTAB
0
TABLE
2
BLOCK_RECORD
5
1
100
AcDbSymbolTable
70
1
0
BLOCK_RECORD
5
1F
100
AcDbSymbolTableRecord
100
AcDbBlockTableRecord
2
*MODEL_SPACE
0
BLOCK_RECORD
5
1B
100
AcDbSymbolTableRecord
100
AcDbBlockTableRecord
2
*PAPER_SPACE
0
ENDTAB
0
ENDSEC
0
SECTION
2
BLOCKS
0
BLOCK
5
20
100
AcDbEntity
100
AcDbBlockBegin
2
*MODEL_SPACE
0
ENDBLK
5
21
100
AcDbEntity
100
AcDbBlockEnd
0
BLOCK
5
1C
100
AcDbEntity
100
AcDbBlockBegin
2
*PAPER_SPACE
0
ENDBLK
5
1D
100
AcDbEntity
100
AcDbBlockEnd
0
ENDSEC
0
SECTION
2
ENTITIES
0
LWPOLYLINE
5
100
100
AcDbEntity
8
0
100
AcDbPolyline
90
58
70
1
43
0.0
10
19.752319617974202
20
15.555555532949777
42
0.44721359839172292
10
15.777087673555723
20
19.999999981012582
10
5.600000043555986
20
19.999999981453286
42
0.41421356237442697
10
4.1000000419042006
20
18.499999983105241
10
4.1000000395273029
20
16.349999983103785
42
0.4142135594441938
10
5.1000000284326896
20
15.349999982006622
10
6.6000000384289459
20
15.349999980351495
42
0.41421356432569584
10
7.1000000389851303
20
15.849999983140489
10
7.1000000298054333
20
17.499999976473529
42
-0.41421356254357999
10
7.6000000273294477
20
17.999999979245327
42
-0.41421356639151019
10
10.100000039750871
20
15.49999995737198
10
10.100000029173357
20
14.292388095591825
42
-0.19891236539209572
10
8.6355339312001078
20
10.756854229516126
10
6.9431457719990437
20
9.0644660740498857
42
-0.19891236738080373
10
3.4076118644520523
20
7.5999999838782877
10
-3.4076118246980656
20
7.5999999914051486
42
-0.19891236738112908
10
-6.9431457290183882
20
9.0644660893746209
10
-8.6355338844778089
20
10.756854248577961
42
-0.19891236539214549
10
-10.099999974647595
20
14.292388117886915
10
-10.099999982560107
20
15.49999997966707
42
-0.41421356639390766
10
-7.5999999646125076
20
17.999999996027601
42
-0.41421356253292591
10
-7.0999999682117192
20
17.499999992150766
10
-7.099999981032699
20
15.849999995477607
42
0.4142135682269017
10
-6.5999999715816564
20
15.349999994923696
10
-5.0999999815806412
20
15.349999993268568
42
0.41421356236776735
10
-4.0999999804799261
20
16.349999992159212
10
-4.0999999781075758
20
18.499999992160667
42
0.41421356042182617
10
-5.5999999664489053
20
19.999999993819273
10
-15.999999966453089
20
19.999999993819273
42
0.41421355394417969
10
-19.999999994704467
20
16.000000022072527
10
-19.999999993819984
20
5.6000000320682375
42
0.41421356237398305
10
-18.499999995474354
20
4.1000000304164521
10
-16.349999995472899
20
4.1000000280428139
42
0.41421355944352783
10
-15.349999994366641
20
5.1000000169347004
10
-15.34999999271804
20
6.6000000269400516
42
0.41421356432569584
10
-15.849999995502912
20
7.1000000274891306
10
-17.499999988835953
20
7.100000018304371
42
-0.41421356254224939
10
-17.999999991614999
20
7.6000000158251169
42
-0.41421356639284213
10
-15.499999969738383
20
10.100000028247536
10
-14.292388107955958
20
10.100000017682474
42
-0.19891236539261775
10
-10.756854241878697
20
8.6355339197100704
10
-9.064466086401497
20
6.9431457605108733
42
-0.19891236737914683
10
-7.5999999962398608
20
3.4076118529651458
10
-7.6000000037613802
20
-3.407611836184969
42
-0.19891236737966791
10
-9.0644661017310284
20
-6.9431457405065391
10
-10.756854260934885
20
-8.6355338959722605
42
-0.19891236539283438
10
-14.292388130247673
20
-10.099999986143473
10
-15.499999992030098
20
-10.099999994039166
42
-0.41421356639124385
10
-18.000000008379828
20
-7.599999976100662
42
-0.41421356253825364
10
-17.500000004506546
20
-7.0999999796943314
10
-15.850000007831113
20
-7.0999999925129487
42
0.4142135682269017
10
-15.350000007283029
20
-6.5999999830660272
10
-15.35000000562377
20
-5.0999999930627382
42
0.4142135623697652
10
-16.350000004522371
20
-4.0999999919561949
10
-18.500000004523827
20
-4.0999999895893779
42
0.41421356042404606
10
-20.000000006180159
20
-5.5999999779373866
10
-20.000000017407729
20
-15.777087617925645
42
0.44721359549875994
10
-15.555555577356895
20
-19.752319582833074
42
0.3503971393439349
0
LWPOLYLINE
5
101
100
AcDbEntity
8
0
100
AcDbPolyline
90
8
70
1
43
0.0
10
-9.4620690010605486
20
-16.717734258517773
42
0.11303729774113794
10
5.4665770674226932
20
-8.4726790513928343
42
0.68850141891434891
10
5.1332449074698161
20
-7.6000000056683348
10
-3.4076118529583259
20
-7.5999999962385765
42
0.19891236737939735
10
-6.9431457605105606
20
-9.0644660864040816
10
-8.6355339197089922
20
-10.756854241872958
42
0.19891236539187987
10
-10.100000017678212
20
-14.29238810795141
10
-10.100000034700969
20
-16.237135638239124
42
0.49865458489985753
0
LWPOLYLINE
5
102
100
AcDbEntity
8
0
100
AcDbPolyline
90
8
70
1
43
0.0
10
16.717734279734142
20
9.4620689640798865
42
0.49865458488326142
10
16.237135660535387
20
10.099999998864604
10
14.292388130243125
20
10.099999986150152
42
0.19891236539202739
10
10.756854260930595
20
8.6355338959720029
10
9.0644661017324584
20
6.9431457405073811
42
0.19891236738033638
10
7.6000000037629434
20
3.4076118361917906
10
7.5999999943344676
20
-5.1332449242318035
42
0.68850141760863437
10
8.4726790389558779
20
-5.4665770857859641
42
0.11303729774312403
0
LWPOLYLINE
5
103
100
AcDbEntity
8
0
100
AcDbPolyline
90
8
70
1
43
0.0
10
-18.19999998643155
20
12.300000020079551
42
0.41421353443731812
10
-17.700000034656114
20
11.800000019532463
10
-12.299999986976218
20
11.800000013575859
42
0.41421338519511219
10
-11.800000177167931
20
12.299999250083147
10
-11.799999980461848
20
17.700000013014687
42
0.41421356237442697
10
-12.299999979913991
20
18.200000013578119
10
-15.999999979917447
20
18.200000017662177
42
0.41421354551950657
10
-18.20000003001951
20
16.000000020087555
0
LWPOLYLINE
5
104
100
AcDbEntity
8
0
100
AcDbPolyline
90
8
70
1
43
0.0
10
17.963465240696994
20
15.755555583284469
42
0.44721359888536127
10
15.777087636738543
20
18.200000027403149
10
12.300000020077277
20
18.19999998642345
42
0.41421353443465425
10
11.800000019529762
20
17.700000034665209
10
11.800000013577138
20
12.299999986976218
42
0.41421338519244832
10
12.299999250080873
20
11.800000177163383
10
16.905284175713859
20
11.80000000942016
42
0.35517346441459674
10
17.394744196205771
20
12.197877993334732
42
0.023591971482718854
0
LWPOLYLINE
5
105
100
AcDbEntity
8
0
100
AcDbPolyline
90
8
70
1
43
0.0
10
-15.75555557538417
20
-17.963465200518947
42
0.023591971358867949
10
-12.197878003252058
20
-17.394744163431767
42
0.35517345426052577
10
-11.800000018652099
20
-16.905284161466625
10
-11.800000013563496
20
-12.299999986985313
42
0.41421338520709949
10
-12.299999250076326
20
-11.800000177163383
10
-17.700000013019235
20
-11.799999980473217
42
0.4142135623717631
10
-18.200000013566751
20
-12.299999979923086
10
-18.200000017407802
20
-15.777087619910617
42
0.44721359549920586
0
CIRCLE
5
106
100
AcDbEntity
8
0
100
AcDbCircle
10
0
20
0
30
0
40
3.3500000000010743
210
0
220
0
230
-1
0
LWPOLYLINE
5
107
100
AcDbEntity
8
0
100
AcDbPolyline
90
58
70
1
43
0.0
10
19.752319617974202
20
15.555555532949777
42
0.44721359839172259
10
15.777087673555723
20
19.999999981012586
10
5.600000043555986
20
19.999999981453286
42
0.41421356237442697
10
4.1000000419042015
20
18.499999983105241
10
4.1000000395273029
20
16.349999983103785
42
0.41421355944419253
10
5.1000000284326896
20
15.349999982006622
10
6.6000000384289459
20
15.349999980351495
42
0.41421356432569584
10
7.1000000389851303
20
15.849999983140489
10
7.1000000298054333
20
17.499999976473529
42
-0.41421356254357999
10
7.6000000273294477
20
17.999999979245327
42
-0.41421356639151019
10
10.100000039750871
20
15.49999995737198
10
10.100000029173357
20
14.292388095591825
42
-0.19891236539209572
10
8.6355339312001078
20
10.756854229516126
10
6.9431457719990428
20
9.0644660740498839
42
-0.19891236738080373
10
3.4076118644520514
20
7.5999999838782877
10
-3.4076118246980669
20
7.5999999914051477
42
-0.19891236738112908
10
-6.94314572901839
20
9.0644660893746209
10
-8.6355338844778089
20
10.756854248577961
42
-0.19891236539214549
10
-10.099999974647595
20
14.292388117886915
10
-10.099999982560107
20
15.49999997966707
42
-0.41421356639390766
10
-7.5999999646125076
20
17.999999996027601
42
-0.41421356253292591
10
-7.0999999682117192
20
17.499999992150766
10
-7.099999981032699
20
15.849999995477607
42
0.41421356822690036
10
-6.5999999715816564
20
15.349999994923692
10
-5.0999999815806412
20
15.349999993268568
42
0.41421356236776602
10
-4.0999999804799252
20
16.349999992159212
10
-4.0999999781075758
20
18.499999992160667
42
0.41421356042182705
10
-5.5999999664489053
20
19.999999993819273
10
-15.999999966453089
20
19.999999993819273
42
0.41421355394417936
10
-19.999999994704464
20
16.000000022072527
10
-19.999999993819984
20
5.6000000320682375
42
0.41421356237398305
10
-18.499999995474354
20
4.100000030416453
10
-16.349999995472899
20
4.1000000280428139
42
0.41421355944352756
10
-15.349999994366641
20
5.1000000169347004
10
-15.34999999271804
20
6.6000000269400516
42
0.41421356432569778
10
-15.849999995502912
20
7.1000000274891297
10
-17.499999988835953
20
7.100000018304371
42
-0.41421356254224939
10
-17.999999991614999
20
7.6000000158251169
42
-0.41421356639284213
10
-15.499999969738383
20
10.100000028247536
10
-14.29238810795596
20
10.100000017682476
42
-0.19891236539261786
10
-10.756854241878697
20
8.6355339197100704
10
-9.0644660864014952
20
6.9431457605108724
42
-0.19891236737914683
10
-7.5999999962398608
20
3.4076118529651445
10
-7.6000000037613802
20
-3.407611836184969
42
-0.19891236737966791
10
-9.0644661017310284
20
-6.94314574050654
10
-10.756854260934885
20
-8.6355338959722605
42
-0.19891236539283438
10
-14.292388130247673
20
-10.099999986143473
10
-15.499999992030098
20
-10.099999994039166
42
-0.41421356639124385
10
-18.000000008379828
20
-7.599999976100662
42
-0.41421356253825364
10
-17.500000004506546
20
-7.0999999796943314
10
-15.850000007831113
20
-7.0999999925129487
42
0.41421356822690297
10
-15.350000007283029
20
-6.5999999830660272
10
-15.35000000562377
20
-5.0999999930627382
42
0.41421356236976653
10
-16.350000004522371
20
-4.0999999919561958
10
-18.500000004523827
20
-4.0999999895893779
42
0.41421356042404645
10
-20.000000006180159
20
-5.5999999779373866
10
-20.000000017407729
20
-15.777087617925645
42
0.44721359549875994
10
-15.555555577356895
20
-19.752319582833074
42
0.35039713934393474
0
LWPOLYLINE
5
108
100
AcDbEntity
8
0
100
AcDbPolyline
90
8
70
1
43
0.0
10
-9.4620690010605273
20
-16.71773425851778
42
0.11303729774113794
10
5.4665770674226932
20
-8.4726790513928378
42
0.68850141891434857
10
5.1332449074698161
20
-7.6000000056683348
10
-3.4076118529583246
20
-7.5999999962385782
42
0.19891236737939769
10
-6.9431457605105606
20
-9.0644660864040816
10
-8.6355339197089904
20
-10.756854241872958
42
0.19891236539187968
10
-10.100000017678212
20
-14.29238810795141
10
-10.100000034700969
20
-16.237135638239124
42
0.49865458489987236
0
LWPOLYLINE
5
109
100
AcDbEntity
8
0
100
AcDbPolyline
90
8
70
1
43
0.0
10
16.717734279734142
20
9.4620689640798865
42
0.49865458488326214
10
16.237135660535387
20
10.099999998864604
10
14.292388130243125
20
10.099999986150152
42
0.19891236539202717
10
10.756854260930595
20
8.6355338959720029
10
9.0644661017324601
20
6.9431457405073793
42
0.19891236738033691
10
7.6000000037629434
20
3.4076118361917906
10
7.5999999943344667
20
-5.1332449242318035
42
0.68850141760865302
10
8.4726790389558904
20
-5.4665770857859419
42
0.11303729774312267
0
LWPOLYLINE
5
110
100
AcDbEntity
8
0
100
AcDbPolyline
90
8
70
1
43
0.0
10
-18.19999998643155
20
12.300000020079551
42
0.41421353443731551
10
-17.700000034656114
20
11.800000019532463
10
-12.299999986976218
20
11.800000013575859
42
0.41421338519511086
10
-11.800000177167931
20
12.299999250083147
10
-11.799999980461848
20
17.700000013014687
42
0.41421356237442564
10
-12.299999979913991
20
18.200000013578119
10
-15.999999979917447
20
18.200000017662177
42
0.41421354704749208
10
-18.20000003001951
20
16.000000020087555
0
LWPOLYLINE
5
111
100
AcDbEntity
8
0
100
AcDbPolyline
90
8
70
1
43
0.0
10
17.963465240696994
20
15.755555583284469
42
0.44721359898842356
10
15.777087636738541
20
18.200000027403149
10
12.300000020077277
20
18.19999998642345
42
0.41421353443465164
10
11.800000019529762
20
17.700000034665209
10
11.800000013577138
20
12.299999986976218
42
0.41421338519244699
10
12.299999250080873
20
11.800000177163383
10
16.905284175713859
20
11.80000000942016
42
0.35517346441459335
10
17.394744196205764
20
12.197877993334725
42
0.023591971482715909
0
LWPOLYLINE
5
112
100
AcDbEntity
8
0
100
AcDbPolyline
90
8
70
1
43
0.0
10
-15.755555575384177
20
-17.963465200518947
42
0.023591971358871484
10
-12.197878003252036
20
-17.39474416343176
42
0.35517345426051272
10
-11.800000018652099
20
-16.905284161466625
10
-11.800000013563496
20
-12.299999986985313
42
0.41421338520709816
10
-12.299999250076326
20
-11.800000177163383
10
-17.700000013019235
20
-11.799999980473217
42
0.41421356237176182
10
-18.200000013566751
20
-12.299999979923086
10
-18.200000017407802
20
-15.777087619910617
42
0.44721359549920497
0
CIRCLE
5
113
100
AcDbEntity
8
0
100
AcDbCircle
10
0
20
0
30
0
40
3.3500000000010743
210
0
220
-0
230
1
0
ENDSEC
0
SECTION
2
OBJECTS
0
DICTIONARY
5
C
100
AcDbDictionary
3
ACAD_GROUP
350
D
3
ACAD_MLINESTYLE
350
17
0
DICTIONARY
5
D
100
AcDbDictionary
0
DICTIONARY
5
1A
330
C
100
AcDbDictionary
0
DICTIONARY
5
17
100
AcDbDictionary
0
ENDSEC
0
EOF
