0
SECTION
2
HEADER
9
$INSUNITS
70
4
9
$ACADVER
1
AC1014
9
$HANDSEED
5
FFFF
0
ENDSEC
0
SECTION
2
TABLES
0
TABLE
2
VPORT
5
8
100
AcDbSymbolTable
0
ENDTAB
0
TABLE
2
LTYPE
5
5
100
AcDbSymbolTable
0
LTYPE
5
14
100
AcDbSymbolTableRecord
100
AcDbLinetypeTableRecord
2
BYBLOCK
70
0
0
LTYPE
5
15
100
AcDbSymbolTableRecord
100
AcDbLinetypeTableRecord
2
BYLAYER
70
0
0
LTYPE
5
16
100
AcDbSymbolTableRecord
100
AcDbLinetypeTableRecord
2
DASHED
70
0
3
Dashed __ __ __ __ __ __ __ __ __ __ __ __ __ _
72
65
73
2
40
0.75
49
0.5
74
0
49
-0.25
74
0
0
ENDTAB
0
TABLE
2
LAYER
5
2
100
AcDbSymbolTable
70
3
0
LAYER
5
50
100
AcDbSymbolTableRecord
100
AcDbLayerTableRecord
2
1
70
0
62
7
6
DASHED
0
LAYER
5
51
100
AcDbSymbolTableRecord
100
AcDbLayerTableRecord
2
0
70
0
62
7
6
CONTINUOUS
0
ENDTAB
0
TABLE
2
STYLE
5
3
100
AcDbSymbolTable
70
1
0
STYLE
5
11
100
AcDbSymbolTableRecord
100
AcDbTextStyleTableRecord
2
STANDARD
70
0
0
ENDTAB
0
TABLE
2
VIEW
5
6
100
AcDbSymbolTable
70
0
0
ENDTAB
0
TABLE
2
UCS
5
7
100
AcDbSymbolTable
70
0
0
ENDTAB
0
TABLE
2
APPID
5
9
100
AcDbSymbolTable
70
2
0
APPID
5
12
100
AcDbSymbolTableRecord
100
AcDbRegAppTableRecord
2
ACAD
70
0
0
ENDTAB
0
TABLE
2
DIMSTYLE
5
A
100
AcDbSymbolTable
70
1
0
ENDTAB
0
TABLE
2
BLOCK_RECORD
5
1
100
AcDbSymbolTable
70
1
0
BLOCK_RECORD
5
1F
100
AcDbSymbolTableRecord
100
AcDbBlockTableRecord
2
*MODEL_SPACE
0
BLOCK_RECORD
5
1B
100
AcDbSymbolTableRecord
100
AcDbBlockTableRecord
2
*PAPER_SPACE
0
ENDTAB
0
ENDSEC
0
SECTION
2
BLOCKS
0
BLOCK
5
20
100
AcDbEntity
100
AcDbBlockBegin
2
*MODEL_SPACE
0
ENDBLK
5
21
100
AcDbEntity
100
AcDbBlockEnd
0
BLOCK
5
1C
100
AcDbEntity
100
AcDbBlockBegin
2
*PAPER_SPACE
0
ENDBLK
5
1D
100
AcDbEntity
100
AcDbBlockEnd
0
ENDSEC
0
SECTION
2
ENTITIES
0
LWPOLYLINE
5
100
100
AcDbEntity
8
0
100
AcDbPolyline
90
138
70
1
43
0.0
10
0.10001618983778381
20
-7.5577350268414145
42
0.13167308569975902
10
3.4694469503380271e-17
20
-7.5309401082535352
42
0.13165249742422855
10
-0.099999999871158707
20
-7.5577350269108479
10
-0.74087965206344286
20
-7.9277470665956926
42
-0.1592290279198369
10
-0.86244066877031322
20
-7.9533763957085855
42
-0.088140608766484718
10
-3.5492095918560369
20
-7.1695963116510644
42
0.32172475938661516
10
-5.8507255522249579
20
-7.5477818271929209
10
-9.4642135622438026
20
-11.16126983721227
42
0.19891236737975795
10
-10.049999999871488
20
-12.575483399585607
10
-10.049999999870192
20
-16.299999999991712
42
0.4142135623743437
10
-9.8499999998711019
20
-16.499999999991815
10
-5.199999999871352
20
-16.499999999990393
42
-0.41421356237309503
10
-4.999999999870397
20
-16.699999999991348
10
-4.9999999998712497
20
-20.699999999991405
42
-0.41421356237309503
10
-5.299999999871261
20
-20.999999999991417
10
-5.7999999998713747
20
-20.999999999991417
10
-5.7999999998722274
20
-21.99999999999136
42
-0.414213562373761
10
-6.2999999998714884
20
-22.499999999991758
10
-19.499999999871136
20
-22.499999999991473
42
-0.41421356237301177
10
-22.499999999870397
20
-19.49999999999136
10
-22.49999999987125
20
-6.299999999991428
42
-0.41421356237309503
10
-21.999999999871136
20
-5.7999999999913143
10
-20.999999999871193
20
-5.7999999999913143
10
-20.999999999871477
20
-5.2999999999914849
42
-0.41421356237309503
10
-20.699999999871466
20
-4.9999999999914735
10
-16.699999999871409
20
-4.9999999999923261
42
-0.41421356237600859
10
-16.499999999871306
20
-5.1999999999915758
10
-16.499999999871875
20
-9.8499999999913257
42
0.41421356237517615
10
-16.299999999871488
20
-10.049999999991428
10
-12.575483399465384
20
-10.049999999991037
42
0.19891236737977064
10
-11.161269837091652
20
-9.464213562364705
10
-7.547781827073063
20
-5.8507255523456685
42
0.32172475938673917
10
-7.1695963115216905
20
-3.5492095919717115
42
-0.088140608767384943
10
-7.9533763956313086
20
-0.86244066889518889
42
-0.15922902793307639
10
-7.9277470664959537
20
-0.74087965217216833
10
-7.5577350267904153
20
-0.099999999991293567
42
0.2679491924295847
10
-7.5577350267897714
20
0.10000000000843556
10
-7.9277470665013574
20
0.74087965218610252
42
-0.15922902791740318
10
-7.9533763956457122
20
0.86244066891325522
42
-0.088140608767334039
10
-7.1695963115308388
20
3.5492095919927449
42
0.32172475938681377
10
-7.5477818270732655
20
5.850725552362519
10
-11.16126983709194
20
9.4642135623814667
42
0.19891236738003207
10
-12.575483399465384
20
10.050000000008197
10
-16.299999999871488
20
10.050000000008357
42
0.4142135623743437
10
-16.499999999871306
20
9.8500000000083787
10
-16.499999999871022
20
5.2000000000086288
42
-0.41421356237684104
10
-16.699999999871409
20
5.0000000000085265
10
-20.699999999871466
20
5.0000000000079581
42
-0.4142135623711527
10
-20.999999999871193
20
5.3000000000085379
10
-20.999999999871193
20
5.8000000000086516
10
-21.999999999871136
20
5.8000000000089358
42
-0.41421356237326151
10
-22.499999999870397
20
6.300000000008481
10
-22.499999999870681
20
19.500000000008697
42
-0.41421356237295631
10
-19.499999999871136
20
22.500000000008527
10
-6.2999999998714884
20
22.500000000008811
42
-0.41421356237309503
10
-5.7999999998713747
20
22.000000000008697
10
-5.7999999998713747
20
21.00000000000847
10
-5.299999999871261
20
21.000000000009322
42
-0.41421356237143014
10
-4.9999999998712497
20
20.700000000008743
10
-4.9999999998706812
20
16.700000000008686
42
-0.41421356237559237
10
-5.199999999871352
20
16.500000000008583
10
-9.8499999998711019
20
16.500000000008459
42
0.41421356237309503
10
-10.049999999871488
20
16.300000000008481
10
-10.049999999870654
20
12.575483399602092
42
0.19891236737970572
10
-9.464213562244197
20
11.161269837228929
10
-5.8507255522250166
20
7.5477818272101969
42
0.32172475938670814
10
-3.5492095918746402
20
7.1695963117074974
42
-0.088140608766292275
10
-0.86244066877441294
20
7.9533763957673074
42
-0.15922902793337143
10
-0.7408796520519445
20
7.9277470666320937
10
-0.099999999871274087
20
7.5577350269274142
42
0.13165249742404642
10
3.4696587101904278e-17
20
7.5309401084091299
42
0.1316730857618566
10
0.10001618988525252
20
7.5577350269970545
10
0.74089584207383741
20
7.9277470666906176
42
-0.15922902792150984
10
0.86245685878815537
20
7.953376395814276
42
-0.088140608766579823
10
3.5492257818691226
20
7.1695963117267301
42
0.32172475938674039
10
5.8507417422390517
20
7.5477818272617903
10
9.464229752269242
20
11.161269837269227
42
0.19891236737963774
10
10.050016189901498
20
12.575483399640834
10
10.050016189913435
20
16.300000000047508
42
0.4142135623743437
10
9.8500161899139016
20
16.500000000048463
10
5.2000161899141517
20
16.5000000000604
42
-0.41421356237475992
10
5.0000161899143336
20
16.700000000061355
10
5.0000161899274076
20
20.700000000061411
42
-0.41421356237281759
10
5.3000161899277032
20
21.000000000061423
10
5.8000161899278169
20
21.000000000059149
10
5.8000161899317959
20
22.000000000060513
42
-0.41421356237192958
10
6.3000161899327622
20
22.500000000057785
10
19.500016189931557
20
22.500000000016573
42
-0.41421356237326151
10
22.500016189923144
20
19.500000000007933
10
22.500016189882786
20
6.3000000000077172
42
-0.41421356237326151
10
22.000016189880682
20
5.8000000000093088
10
21.000016189880739
20
5.8000000000127194
10
21.000016189879886
20
5.3000000000123215
42
-0.41421356237531493
10
20.700016189877886
20
5.0000000000131628
10
16.700016189877829
20
5.0000000000253841
42
-0.41421356237143014
10
16.500016189878863
20
5.2000000000260549
10
16.50001618989327
20
9.850000000026089
42
0.41421356237309503
10
16.30001618989354
20
10.050000000028749
10
12.57549958948772
20
10.050000000038146
42
0.19891236737974563
10
11.161286027112283
20
9.4642135624162371
10
7.5477980170832071
20
5.8507255524082558
42
0.32172475938674583
10
7.1696125015368208
20
3.5492095920420597
42
-0.088140608766842751
10
7.9533925856242753
20
0.86244066895697302
42
-0.15922902793707172
10
7.9277632564878786
20
0.74087965223393226
10
7.5577512167808027
20
0.10000000005479902
42
0.26794919242830417
10
7.5577512167802752
20
-0.099999999945534768
10
7.9277632564905209
20
-0.74087965212346885
42
-0.15922902791643498
10
7.9533925856370127
20
-0.86244066885224124
42
-0.088140608766623676
10
7.169612501510918
20
-3.5492095919283262
42
0.32172475938677086
10
7.5477980170455794
20
-5.850725552299334
10
11.161286027053816
20
-9.4642135623292916
42
0.19891236737955945
10
12.575499589424055
20
-10.049999999961212
10
16.300016189831013
20
-10.049999999972457
42
0.41421356237101392
10
16.500016189831683
20
-9.8499999999738996
10
16.500016189845326
20
-5.1999999999738655
42
-0.41421356237351126
10
16.700016189845996
20
-4.9999999999740474
10
20.700016189846053
20
-4.9999999999857003
42
-0.41421356237503743
10
21.00001618984578
20
-5.299999999987417
10
21.000016189843507
20
-5.7999999999872465
10
22.00001618984345
20
-5.7999999999900886
42
-0.41421356237292856
10
22.50001618984129
20
-6.2999999999921918
10
22.500016189799794
20
-19.499999999992124
42
-0.41421356237298407
10
19.500016189791722
20
-22.499999999983142
10
6.3000161897912221
20
-22.499999999941362
42
-0.41421356237242907
10
5.8000161897936664
20
-21.999999999940396
10
5.8000161897962244
20
-20.999999999940453
10
5.3000161897963949
20
-20.999999999938179
42
-0.41421356237392748
10
5.0000161897975204
20
-20.699999999937884
10
5.0000161898086048
20
-16.699999999938395
42
-0.41421356237600859
10
5.2000161898101283
20
-16.499999999938861
10
9.8500161898101624
20
-16.499999999953072
42
0.41421356237559237
10
10.050016189810833
20
-16.299999999953538
10
10.050016189822504
20
-12.575483399547149
42
0.19891236737980686
10
9.4642297521997421
20
-11.161269837171428
10
5.8507417421919321
20
-7.5477818271416117
42
0.32172475938665118
10
3.5492257818362343
20
-7.169596311617993
42
-0.088140608765879203
10
0.86245685873937217
20
-7.9533763956839874
42
-0.1592290279294164
10
0.74089584201885827
20
-7.9277470665478766
0
LWPOLYLINE
5
101
100
AcDbEntity
8
0
100
AcDbPolyline
90
12
70
1
43
0.0
10
-12.49999999987125
20
11.500000000008193
42
0.41421356237309503
10
-11.499999999870916
20
12.500000000008527
10
-11.499999999870738
20
17.000000000008697
42
-0.41421356237267881
10
-10.499999999871079
20
18.00000000000864
10
-8.9999999998713065
20
18.000000000008942
42
0.99999999999999989
10
-8.9999999998713065
20
21.00000000000847
10
-18.499999999871193
20
21.000000000008416
42
0.41421356237309503
10
-20.999999999871193
20
18.50000000000847
10
-20.999999999871193
20
9.0000000000085834
42
0.99999999999999989
10
-17.999999999871079
20
9.0000000000085834
10
-17.999999999871363
20
10.50000000000864
42
-0.41421356237251233
10
-16.999999999871136
20
11.500000000008583
0
LWPOLYLINE
5
102
100
AcDbEntity
8
0
100
AcDbPolyline
90
12
70
1
43
0.0
10
-11.499999999870916
20
-12.499999999991473
42
0.41421356237276202
10
-12.49999999987125
20
-11.499999999992276
10
-16.999999999871136
20
-11.499999999992099
42
-0.41421356237284529
10
-17.999999999871079
20
-10.499999999991303
10
-17.999999999871079
20
-8.9999999999915303
42
0.99999999999999989
10
-20.999999999871193
20
-8.9999999999915303
10
-20.999999999870695
20
-18.499999999991417
42
0.41421356237309503
10
-18.499999999871193
20
-20.999999999991417
10
-8.9999999998713065
20
-20.999999999990749
42
0.99999999999999989
10
-8.9999999998713065
20
-17.999999999991303
10
-10.499999999871079
20
-17.99999999999244
42
-0.41421356237284529
10
-11.499999999871306
20
-16.99999999999136
0
LWPOLYLINE
5
103
100
AcDbEntity
8
0
100
AcDbPolyline
90
66
70
1
43
0.0
10
-0.67821235418130998
20
-4.9537892569766324
42
0.034028599746338484
10
1.1102230246251565e-15
20
-4.9999999999901252
42
0.03402941018292327
10
0.67822854416967338
20
-4.9537892568916959
42
-0.40299002562675196
10
0.90231858892735772
20
-5.117211191636013
10
0.96856215347935337
20
-5.4928971149552996
42
0.44064875753436128
10
1.5914079799964134
20
-5.8887581177392612
42
0.064469789951528467
10
3.0387130613993794
20
-5.2892647241442168
42
0.44064875752120314
10
3.1992155694672419
20
-4.568930217106324
10
2.9804067791916995
20
-4.256438879432304
42
-0.40299002564280395
10
3.023305611198789
20
-3.9824265309096862
42
0.068136097400746623
10
3.9824427208501763
20
-3.0232894212786277
42
-0.40299002563028197
10
4.2564550693478509
20
-2.9803905892864258
10
4.5689464070279504
20
-3.1991993795565357
42
0.44064875753408472
10
5.2892809140692876
20
-3.0386968714703713
42
0.064469789952130888
10
5.8887743076853756
20
-1.5913917900757022
42
0.4406487575212647
10
5.492913304888134
20
-0.96854596357436762
10
5.1172273815713059
20
-0.9023023990241873
42
-0.40299002564078035
10
4.953805446823603
20
-0.67821235424499715
42
0.068136097401363505
10
4.9538054468313177
20
0.67821235438575223
42
-0.40299002563111203
10
5.1172273815768676
20
0.90230239914470545
10
5.492913304895537
20
0.9685459636961059
42
0.44064875753516408
10
5.8887743076879859
20
1.5913917902160126
42
0.064469789952393858
10
5.2892809140842889
20
3.0386968716163199
42
0.44064875752162141
10
4.5689464070460417
20
3.199199379683737
10
4.2564550693644048
20
2.98039058941976
42
-0.40299002564215647
10
3.9824427208617683
20
3.0232894214232795
42
0.068136097401433726
10
3.023305611218468
20
3.9824265310658902
42
-0.40299002562950675
10
2.9804067792269962
20
4.2564388795646302
10
3.1992155694965745
20
4.5689302172447039
42
0.44064875753343363
10
3.0387130614181155
20
5.2892647242979072
42
0.06446978995216536
10
1.5914079800169567
20
5.888758117901447
42
0.44064875752085175
10
0.9685621535146538
20
5.4928971151046291
10
0.90231858895066197
20
5.1172111917898997
42
-0.40299002564350267
10
0.67822854418694889
20
4.9537892570539928
42
0.03402941018420403
10
1.3877787807814457e-16
20
5.0000000000074412
42
0.034028599746185252
10
-0.67821235417829384
20
4.9537892569771627
42
-0.40299002565184178
10
-0.90230239895277009
20
5.1172111917210827
10
-0.96854596350724731
20
5.4928971150396606
42
0.44064875753350335
10
-1.5913917900214245
20
5.8887581178159323
42
0.064469789951256851
10
-3.0386968714082063
20
5.2892647242311774
42
0.44064875753135341
10
-3.1991993794920859
20
4.5689302171845725
10
-2.980390589213278
20
4.2564388795111903
42
-0.4029900256472948
10
-3.0232894212192338
20
3.9824265309846174
42
0.068136097400739989
10
-3.982426530858457
20
3.0232894213646286
42
-0.40299002565172198
10
-4.2564388793664421
20
2.9803905893609794
10
-4.5689302170464563
20
3.1991993796288964
42
0.44064875753473726
10
-5.2892647240870456
20
3.0386968715411999
42
0.064469789951987308
10
-5.8887581176947092
20
1.591391790164107
42
0.44064875753348509
10
-5.4928971149024619
20
0.96854596364352119
10
-5.1172111915838077
20
0.90230239909115884
42
-0.40299002564400971
10
-4.9537892568376645
20
0.67821235431566729
42
0.068136097401343576
10
-4.9537892568403494
20
-0.67821235429960158
42
-0.40299002565353831
10
-5.1172111915838059
20
-0.90230239907384657
10
-5.4928971149025418
20
-0.96854596362686407
42
0.44064875753324223
10
-5.8887581176986927
20
-1.5913917901471626
42
0.064469789952105394
10
-5.2892647240943358
20
-3.0386968715286367
42
0.44064875753218585
10
-4.5689302170467272
20
-3.1991993796120255
10
-4.2564388793596297
20
-2.9803905893539011
42
-0.40299002564384712
10
-3.9824265308669169
20
-3.023289421353708
42
0.068136097400920498
10
-3.0232894212276218
20
-3.9824265309787661
42
-0.40299002565424785
10
-2.9803905892231342
20
-4.2564388794872343
10
-3.1991993794918421
20
-4.5689302171679733
42
0.44064875753354554
10
-3.0386968714157652
20
-5.2892647242267143
42
0.064469789951462159
10
-1.5913917900251762
20
-5.8887581178152946
42
0.44064875753157906
10
-0.96854596350681277
20
-5.4928971150221173
10
-0.90230239893491604
20
-5.1172111917080318
42
-0.40299002564330194
0
LWPOLYLINE
5
104
100
AcDbEntity
8
0
100
AcDbPolyline
90
12
70
1
43
0.0
10
18.000016189895636
20
10.500000000025498
42
0.41421356237226259
10
17.000016189898588
20
11.500000000025388
10
12.500016189898417
20
11.500000000039297
42
-0.41421356237342799
10
11.500016189901245
20
12.500000000042153
10
11.500016189915243
20
17.000000000044881
42
0.41421356237226259
10
10.500016189918142
20
18.000000000045215
10
9.0000161899178011
20
18.000000000050225
42
-0.99999999999999989
10
9.0000161899280329
20
21.000000000050338
10
18.500016189920245
20
21.000000000020886
42
-0.41421356237386087
10
21.000016189919215
20
18.500000000012538
10
21.000016189888974
20
9.0000000000115143
42
-0.99999999999999989
10
18.00001618989058
20
9.0000000000223146
0
LWPOLYLINE
5
105
100
AcDbEntity
8
0
100
AcDbPolyline
90
12
70
1
43
0.0
10
10.500016189807866
20
-17.999999999954372
42
0.41421356237201284
10
11.5000161898082
20
-16.999999999957733
10
11.50001618982321
20
-12.499999999957847
42
-0.41421356237334478
10
12.500016189826226
20
-11.499999999960231
10
17.000016189829807
20
-11.499999999974104
42
0.41421356237209606
10
18.000016189829697
20
-10.499999999977572
10
18.000016189834696
20
-8.9999999999783675
42
-0.99999999999999989
10
21.000016189835151
20
-8.9999999999874625
10
21.000016189804391
20
-18.499999999979675
42
-0.41421356237406065
10
18.500016189795758
20
-20.999999999980066
10
9.0000161897961561
20
-20.999999999949264
42
-0.99999999999999989
10
9.0000161898052511
20
-17.99999999994915
0
LWPOLYLINE
5
106
100
AcDbEntity
8
0
100
AcDbPolyline
90
138
70
1
43
0.0
10
0.10001618983778382
20
-7.5577350268414145
42
0.13167308569975908
10
-1.7347234759768071e-17
20
-7.5309401082535352
42
0.13165249742422849
10
-0.099999999871158707
20
-7.5577350269108479
10
-0.74087965206344319
20
-7.9277470665956917
42
-0.15922902791983837
10
-0.86244066877031655
20
-7.9533763957085846
42
-0.088140608766484274
10
-3.5492095918560365
20
-7.1695963116510644
42
0.32172475938661527
10
-5.8507255522249579
20
-7.5477818271929209
10
-9.4642135622438026
20
-11.16126983721227
42
0.19891236737975795
10
-10.049999999871488
20
-12.575483399585607
10
-10.049999999870192
20
-16.299999999991712
42
0.4142135623743437
10
-9.8499999998711019
20
-16.499999999991815
10
-5.199999999871352
20
-16.499999999990393
42
-0.41421356237309342
10
-4.999999999870397
20
-16.699999999991348
10
-4.9999999998712505
20
-20.699999999991405
42
-0.41421356237310264
10
-5.299999999871261
20
-20.999999999991417
10
-5.7999999998713747
20
-20.999999999991417
10
-5.7999999998722283
20
-21.99999999999136
42
-0.41421356237376555
10
-6.2999999998714884
20
-22.499999999991758
10
-19.499999999871136
20
-22.499999999991473
42
-0.41421356237301205
10
-22.499999999870397
20
-19.49999999999136
10
-22.49999999987125
20
-6.299999999991428
42
-0.41421356237309503
10
-21.999999999871136
20
-5.7999999999913143
10
-20.999999999871193
20
-5.7999999999913143
10
-20.999999999871477
20
-5.2999999999914849
42
-0.41421356237310264
10
-20.699999999871466
20
-4.9999999999914735
10
-16.699999999871409
20
-4.9999999999923261
42
-0.41421356237600859
10
-16.499999999871306
20
-5.1999999999915758
10
-16.499999999871875
20
-9.8499999999913257
42
0.41421356237517615
10
-16.299999999871488
20
-10.049999999991428
10
-12.575483399465384
20
-10.049999999991037
42
0.19891236737977064
10
-11.161269837091652
20
-9.464213562364705
10
-7.547781827073063
20
-5.8507255523456685
42
0.32172475938673822
10
-7.1695963115216932
20
-3.5492095919717075
42
-0.088140608767383943
10
-7.9533763956313086
20
-0.862440668895189
42
-0.1592290279330898
10
-7.9277470664959537
20
-0.74087965217216833
10
-7.5577350267904153
20
-0.099999999991293609
42
0.26794919242958476
10
-7.5577350267897714
20
0.10000000000843556
10
-7.9277470665013556
20
0.74087965218610263
42
-0.15922902791741569
10
-7.9533763956457113
20
0.86244066891325077
42
-0.088140608767334705
10
-7.1695963115308388
20
3.5492095919927436
42
0.32172475938681389
10
-7.5477818270732655
20
5.850725552362519
10
-11.16126983709194
20
9.4642135623814667
42
0.19891236738003207
10
-12.575483399465384
20
10.050000000008197
10
-16.299999999871488
20
10.050000000008357
42
0.4142135623743437
10
-16.499999999871306
20
9.8500000000083787
10
-16.499999999871022
20
5.2000000000086288
42
-0.41421356237684592
10
-16.699999999871409
20
5.0000000000085265
10
-20.699999999871466
20
5.0000000000079581
42
-0.4142135623711527
10
-20.999999999871193
20
5.3000000000085379
10
-20.999999999871193
20
5.8000000000086516
10
-21.999999999871136
20
5.8000000000089349
42
-0.41421356237326218
10
-22.499999999870397
20
6.300000000008481
10
-22.499999999870681
20
19.500000000008697
42
-0.41421356237295565
10
-19.499999999871136
20
22.500000000008527
10
-6.2999999998714884
20
22.500000000008811
42
-0.41421356237309503
10
-5.7999999998713747
20
22.000000000008697
10
-5.7999999998713747
20
21.00000000000847
10
-5.299999999871261
20
21.000000000009326
42
-0.41421356237143447
10
-4.9999999998712497
20
20.700000000008743
10
-4.9999999998706821
20
16.700000000008686
42
-0.41421356237559726
10
-5.199999999871352
20
16.500000000008583
10
-9.8499999998711019
20
16.500000000008459
42
0.41421356237309503
10
-10.049999999871488
20
16.300000000008481
10
-10.049999999870654
20
12.575483399602092
42
0.19891236737970572
10
-9.464213562244197
20
11.161269837228929
10
-5.8507255522250166
20
7.5477818272101969
42
0.32172475938670814
10
-3.5492095918746376
20
7.1695963117074992
42
-0.088140608766291942
10
-0.86244066877441294
20
7.9533763957673074
42
-0.15922902793336438
10
-0.7408796520519445
20
7.9277470666320937
10
-0.099999999871274114
20
7.5577350269274142
42
0.13165249742404636
10
-2.0413494028828638e-18
20
7.5309401084091299
42
0.13167308576185666
10
0.10001618988525252
20
7.5577350269970545
10
0.74089584207383752
20
7.9277470666906176
42
-0.15922902792150029
10
0.86245685878815337
20
7.9533763958142787
42
-0.088140608766578588
10
3.5492257818691222
20
7.1695963117267318
42
0.3217247593867405
10
5.8507417422390517
20
7.5477818272617903
10
9.464229752269242
20
11.161269837269227
42
0.19891236737963774
10
10.050016189901498
20
12.575483399640834
10
10.050016189913435
20
16.300000000047508
42
0.4142135623743437
10
9.8500161899139016
20
16.500000000048463
10
5.2000161899141517
20
16.5000000000604
42
-0.41421356237475832
10
5.0000161899143336
20
16.700000000061355
10
5.0000161899274094
20
20.700000000061411
42
-0.41421356237282408
10
5.3000161899277032
20
21.000000000061423
10
5.8000161899278169
20
21.000000000059149
10
5.8000161899317977
20
22.000000000060513
42
-0.41421356237193352
10
6.3000161899327622
20
22.500000000057785
10
19.500016189931557
20
22.500000000016573
42
-0.41421356237326218
10
22.500016189923144
20
19.500000000007933
10
22.500016189882789
20
6.3000000000077172
42
-0.41421356237325957
10
22.000016189880682
20
5.8000000000093088
10
21.000016189880739
20
5.8000000000127194
10
21.000016189879886
20
5.3000000000123215
42
-0.41421356237530843
10
20.700016189877886
20
5.0000000000131628
10
16.700016189877829
20
5.0000000000253833
42
-0.41421356237142526
10
16.500016189878863
20
5.2000000000260549
10
16.50001618989327
20
9.850000000026089
42
0.41421356237309503
10
16.30001618989354
20
10.050000000028749
10
12.57549958948772
20
10.050000000038146
42
0.19891236737974563
10
11.161286027112283
20
9.4642135624162371
10
7.5477980170832071
20
5.8507255524082558
42
0.32172475938674566
10
7.1696125015368208
20
3.5492095920420637
42
-0.088140608766842307
10
7.9533925856242753
20
0.86244066895697291
42
-0.15922902793706886
10
7.9277632564878786
20
0.74087965223393226
10
7.5577512167808027
20
0.10000000005479888
42
0.26794919242830406
10
7.5577512167802752
20
-0.099999999945534768
10
7.92776325649052
20
-0.74087965212346929
42
-0.15922902791642884
10
7.9533925856370127
20
-0.86244066885223813
42
-0.088140608766623232
10
7.169612501510918
20
-3.5492095919283257
42
0.32172475938677092
10
7.5477980170455794
20
-5.850725552299334
10
11.161286027053816
20
-9.4642135623292916
42
0.19891236737955945
10
12.575499589424055
20
-10.049999999961212
10
16.300016189831013
20
-10.049999999972457
42
0.41421356237101392
10
16.500016189831683
20
-9.8499999999738996
10
16.500016189845326
20
-5.1999999999738655
42
-0.41421356237350965
10
16.700016189845996
20
-4.9999999999740474
10
20.700016189846053
20
-4.9999999999856994
42
-0.41421356237502982
10
21.00001618984578
20
-5.299999999987417
10
21.000016189843507
20
-5.7999999999872465
10
22.00001618984345
20
-5.7999999999900904
42
-0.41421356237292722
10
22.50001618984129
20
-6.2999999999921918
10
22.500016189799794
20
-19.499999999992124
42
-0.41421356237298512
10
19.500016189791722
20
-22.499999999983142
10
6.3000161897912221
20
-22.499999999941362
42
-0.41421356237242779
10
5.8000161897936664
20
-21.999999999940396
10
5.8000161897962244
20
-20.999999999940453
10
5.3000161897963949
20
-20.999999999938179
42
-0.41421356237393508
10
5.0000161897975204
20
-20.699999999937884
10
5.000016189808604
20
-16.699999999938395
42
-0.41421356237600698
10
5.2000161898101283
20
-16.499999999938861
10
9.8500161898101624
20
-16.499999999953072
42
0.41421356237559237
10
10.050016189810833
20
-16.299999999953538
10
10.050016189822504
20
-12.575483399547149
42
0.19891236737980686
10
9.4642297521997421
20
-11.161269837171428
10
5.8507417421919321
20
-7.5477818271416117
42
0.32172475938665096
10
3.5492257818362343
20
-7.1695963116179886
42
-0.088140608765878758
10
0.86245685873937217
20
-7.9533763956839891
42
-0.1592290279294073
10
0.74089584201885827
20
-7.9277470665478766
0
LWPOLYLINE
5
107
100
AcDbEntity
8
0
100
AcDbPolyline
90
12
70
1
43
0.0
10
-12.49999999987125
20
11.500000000008193
42
0.41421356237309631
10
-11.499999999870916
20
12.500000000008527
10
-11.499999999870738
20
17.000000000008697
42
-0.41421356237267881
10
-10.499999999871079
20
18.00000000000864
10
-8.9999999998713065
20
18.000000000008942
42
0.99999999999999989
10
-8.9999999998713065
20
21.00000000000847
10
-18.499999999871193
20
21.000000000008416
42
0.41421356237309398
10
-20.999999999871193
20
18.50000000000847
10
-20.999999999871193
20
9.0000000000085834
42
0.99999999999999989
10
-17.999999999871079
20
9.0000000000085834
10
-17.999999999871363
20
10.50000000000864
42
-0.41421356237251233
10
-16.999999999871136
20
11.500000000008583
0
LWPOLYLINE
5
108
100
AcDbEntity
8
0
100
AcDbPolyline
90
12
70
1
43
0.0
10
-11.499999999870916
20
-12.499999999991473
42
0.41421356237276202
10
-12.49999999987125
20
-11.499999999992276
10
-16.999999999871136
20
-11.499999999992099
42
-0.41421356237284529
10
-17.999999999871079
20
-10.499999999991303
10
-17.999999999871079
20
-8.9999999999915303
42
0.99999999999999989
10
-20.999999999871193
20
-8.9999999999915303
10
-20.999999999870695
20
-18.499999999991417
42
0.41421356237309659
10
-18.499999999871193
20
-20.999999999991417
10
-8.9999999998713065
20
-20.999999999990749
42
0.99999999999999989
10
-8.9999999998713065
20
-17.999999999991303
10
-10.499999999871079
20
-17.99999999999244
42
-0.41421356237284529
10
-11.499999999871306
20
-16.99999999999136
0
LWPOLYLINE
5
109
100
AcDbEntity
8
0
100
AcDbPolyline
90
66
70
1
43
0.0
10
-0.67821235418130688
20
-4.9537892569766324
42
0.034028599746340121
10
1.6653345369377348e-15
20
-4.9999999999901243
42
0.034029410182920612
10
0.67822854416967338
20
-4.9537892568916959
42
-0.40299002562675207
10
0.90231858892735772
20
-5.117211191636013
10
0.9685621534793537
20
-5.4928971149552996
42
0.440648757534361
10
1.5914079799964143
20
-5.8887581177392594
42
0.064469789951528786
10
3.0387130613993794
20
-5.2892647241442168
42
0.44064875752120314
10
3.1992155694672419
20
-4.568930217106324
10
2.9804067791916995
20
-4.256438879432304
42
-0.40299002564280212
10
3.0233056111987882
20
-3.9824265309096885
42
0.068136097400747136
10
3.9824427208501763
20
-3.0232894212786277
42
-0.40299002563028197
10
4.2564550693478509
20
-2.9803905892864258
10
4.5689464070279504
20
-3.1991993795565357
42
0.44064875753408728
10
5.2892809140692911
20
-3.0386968714703677
42
0.064469789952129916
10
5.8887743076853756
20
-1.5913917900757022
42
0.44064875752126625
10
5.492913304888134
20
-0.96854596357436762
10
5.1172273815713059
20
-0.90230239902418685
42
-0.40299002564078135
10
4.9538054468236039
20
-0.67821235424499671
42
0.068136097401362658
10
4.9538054468313177
20
0.67821235438575223
42
-0.40299002563111203
10
5.1172273815768676
20
0.90230239914470545
10
5.492913304895537
20
0.9685459636961059
42
0.44064875753516403
10
5.8887743076879868
20
1.5913917902160111
42
0.06446978995239408
10
5.2892809140842889
20
3.0386968716163199
42
0.44064875752162186
10
4.5689464070460417
20
3.199199379683737
10
4.2564550693644048
20
2.98039058941976
42
-0.40299002564215375
10
3.9824427208617696
20
3.0232894214232786
42
0.068136097401433934
10
3.023305611218468
20
3.9824265310658902
42
-0.40299002562950675
10
2.9804067792269962
20
4.2564388795646302
10
3.1992155694965745
20
4.5689302172447039
42
0.44064875753343347
10
3.0387130614181155
20
5.2892647242979081
42
0.06446978995216579
10
1.5914079800169567
20
5.888758117901447
42
0.44064875752085308
10
0.9685621535146538
20
5.4928971151046291
10
0.90231858895066153
20
5.1172111917898988
42
-0.40299002564350378
10
0.67822854418694822
20
4.9537892570539936
42
0.03402941018420301
10
-6.9388939039072284e-16
20
5.0000000000074412
42
0.034028599746184843
10
-0.67821235417829384
20
4.9537892569771627
42
-0.40299002565184178
10
-0.90230239895277009
20
5.1172111917210827
10
-0.96854596350724709
20
5.4928971150396606
42
0.44064875753350102
10
-1.5913917900214227
20
5.8887581178159323
42
0.064469789951256629
10
-3.0386968714082063
20
5.2892647242311774
42
0.44064875753135296
10
-3.1991993794920859
20
4.5689302171845725
10
-2.980390589213278
20
4.2564388795111903
42
-0.40299002564729364
10
-3.0232894212192338
20
3.9824265309846192
42
0.06813609740073967
10
-3.982426530858457
20
3.0232894213646286
42
-0.40299002565172176
10
-4.2564388793664421
20
2.9803905893609794
10
-4.5689302170464563
20
3.1991993796288964
42
0.44064875753473681
10
-5.2892647240870456
20
3.0386968715411991
42
0.064469789951986559
10
-5.8887581176947092
20
1.591391790164107
42
0.44064875753348665
10
-5.4928971149024619
20
0.96854596364352119
10
-5.1172111915838077
20
0.9023023990911585
42
-0.4029900256440081
10
-4.9537892568376636
20
0.6782123543156684
42
0.068136097401342133
10
-4.9537892568403494
20
-0.67821235429960125
42
-0.4029900256535387
10
-5.1172111915838059
20
-0.90230239907384657
10
-5.492897114902541
20
-0.96854596362686407
42
0.44064875753324434
10
-5.888758117698691
20
-1.591391790147163
42
0.064469789952104742
10
-5.2892647240943358
20
-3.0386968715286367
42
0.44064875753218585
10
-4.5689302170467272
20
-3.1991993796120255
10
-4.2564388793596288
20
-2.9803905893539016
42
-0.40299002564384745
10
-3.9824265308669178
20
-3.0232894213537098
42
0.068136097400919776
10
-3.0232894212276218
20
-3.9824265309787661
42
-0.40299002565424785
10
-2.9803905892231342
20
-4.2564388794872343
10
-3.1991993794918421
20
-4.5689302171679733
42
0.4406487575335471
10
-3.0386968714157643
20
-5.2892647242267143
42
0.064469789951461937
10
-1.5913917900251759
20
-5.8887581178152946
42
0.44064875753158
10
-0.96854596350681277
20
-5.4928971150221173
10
-0.90230239893491659
20
-5.1172111917080318
42
-0.40299002564330788
0
LWPOLYLINE
5
110
100
AcDbEntity
8
0
100
AcDbPolyline
90
12
70
1
43
0.0
10
18.000016189895636
20
10.500000000025498
42
0.41421356237226259
10
17.000016189898588
20
11.500000000025388
10
12.500016189898417
20
11.500000000039295
42
-0.41421356237342738
10
11.500016189901245
20
12.500000000042153
10
11.500016189915243
20
17.000000000044881
42
0.41421356237226259
10
10.500016189918142
20
18.000000000045215
10
9.0000161899178011
20
18.000000000050225
42
-0.99999999999999989
10
9.0000161899280329
20
21.000000000050338
10
18.500016189920245
20
21.000000000020886
42
-0.41421356237386087
10
21.000016189919215
20
18.500000000012538
10
21.000016189888974
20
9.0000000000115143
42
-0.99999999999999989
10
18.00001618989058
20
9.0000000000223146
0
LWPOLYLINE
5
111
100
AcDbEntity
8
0
100
AcDbPolyline
90
12
70
1
43
0.0
10
10.500016189807866
20
-17.999999999954372
42
0.41421356237201284
10
11.5000161898082
20
-16.999999999957733
10
11.50001618982321
20
-12.499999999957847
42
-0.41421356237334739
10
12.500016189826226
20
-11.499999999960231
10
17.000016189829807
20
-11.499999999974104
42
0.41421356237209606
10
18.000016189829697
20
-10.499999999977572
10
18.000016189834696
20
-8.9999999999783675
42
-0.99999999999999989
10
21.000016189835151
20
-8.9999999999874625
10
21.000016189804391
20
-18.499999999979675
42
-0.41421356237406015
10
18.500016189795758
20
-20.999999999980066
10
9.0000161897961561
20
-20.999999999949264
42
-0.99999999999999989
10
9.0000161898052511
20
-17.99999999994915
0
ENDSEC
0
SECTION
2
OBJECTS
0
DICTIONARY
5
C
100
AcDbDictionary
3
ACAD_GROUP
350
D
3
ACAD_MLINESTYLE
350
17
0
DICTIONARY
5
D
100
AcDbDictionary
0
DICTIONARY
5
1A
330
C
100
AcDbDictionary
0
DICTIONARY
5
17
100
AcDbDictionary
0
ENDSEC
0
EOF
