0
SECTION
2
HEADER
9
$INSUNITS
70
4
9
$ACADVER
1
AC1014
9
$HANDSEED
5
FFFF
0
ENDSEC
0
SECTION
2
TABLES
0
TABLE
2
VPORT
5
8
100
AcDbSymbolTable
0
ENDTAB
0
TABLE
2
LTYPE
5
5
100
AcDbSymbolTable
0
LTYPE
5
14
100
AcDbSymbolTableRecord
100
AcDbLinetypeTableRecord
2
BYBLOCK
70
0
0
LTYPE
5
15
100
AcDbSymbolTableRecord
100
AcDbLinetypeTableRecord
2
BYLAYER
70
0
0
ENDTAB
0
TABLE
2
LAYER
5
2
100
AcDbSymbolTable
70
2
0
LAYER
5
50
100
AcDbSymbolTableRecord
100
AcDbLayerTableRecord
2
0
70
0
6
CONTINUOUS
0
ENDTAB
0
TABLE
2
STYLE
5
3
100
AcDbSymbolTable
70
1
0
STYLE
5
11
100
AcDbSymbolTableRecord
100
AcDbTextStyleTableRecord
2
STANDARD
70
0
0
ENDTAB
0
TABLE
2
VIEW
5
6
100
AcDbSymbolTable
70
0
0
ENDTAB
0
TABLE
2
UCS
5
7
100
AcDbSymbolTable
70
0
0
ENDTAB
0
TABLE
2
APPID
5
9
100
AcDbSymbolTable
70
2
0
APPID
5
12
100
AcDbSymbolTableRecord
100
AcDbRegAppTableRecord
2
ACAD
70
0
0
ENDTAB
0
TABLE
2
DIMSTYLE
5
A
100
AcDbSymbolTable
70
1
0
ENDTAB
0
TABLE
2
BLOCK_RECORD
5
1
100
AcDbSymbolTable
70
1
0
BLOCK_RECORD
5
1F
100
AcDbSymbolTableRecord
100
AcDbBlockTableRecord
2
*MODEL_SPACE
0
BLOCK_RECORD
5
1B
100
AcDbSymbolTableRecord
100
AcDbBlockTableRecord
2
*PAPER_SPACE
0
ENDTAB
0
ENDSEC
0
SECTION
2
BLOCKS
0
BLOCK
5
20
100
AcDbEntity
100
AcDbBlockBegin
2
*MODEL_SPACE
0
ENDBLK
5
21
100
AcDbEntity
100
AcDbBlockEnd
0
BLOCK
5
1C
100
AcDbEntity
100
AcDbBlockBegin
2
*PAPER_SPACE
0
ENDBLK
5
1D
100
AcDbEntity
100
AcDbBlockEnd
0
ENDSEC
0
SECTION
2
ENTITIES
0
LWPOLYLINE
5
100
100
AcDbEntity
8
0
100
AcDbPolyline
90
152
70
1
43
0.0
10
6.2999666700116563
20
22.500068023371167
42
0.4142135623717631
10
5.7999666700137631
20
22.000068023371
10
5.7999666700138164
20
20.999970679982027
10
5.2999666700137027
20
20.999970679982027
42
0.41421356237143014
10
4.9999666700147749
20
20.699970679981448
10
4.9999666700139755
20
16.799970679981868
42
0.41421356237337253
10
5.2999666700137027
20
16.499970679981839
10
10.050086008814105
20
16.499970679981857
10
10.050086008814105
20
12.392794971506476
10
7.1571516962140436
20
9.4998606589064138
10
3.1229229035184858
20
9.4998606589200563
42
0.16015103687804202
10
-3.1229229034917276
20
9.4998606589242005
10
-7.1572183561860925
20
9.4998606589064138
10
-10.050152668785302
20
12.392794971506476
10
-10.050152668785302
20
16.499970679981857
10
-5.3000333299860358
20
16.499970679981857
42
0.41421356237337253
10
-5.0000333299862909
20
16.799970679981868
10
-5.0000333299860245
20
20.699970679981448
42
0.41421356237559237
10
-5.3000333299860358
20
20.999970679981885
10
-5.8000333299861495
20
20.999970679982027
10
-5.8000333299861495
20
22.000012669984415
42
0.41421356237309503
10
-6.300033329985979
20
22.500012669984581
10
-19.499972921186099
20
22.500012669981402
42
0.41421356237292856
10
-22.499970679960981
20
19.500014911206449
10
-22.499970679961621
20
6.2999666700062562
42
0.41421356237326151
10
-21.999970679961507
20
5.7999666700062491
10
-20.999970679961564
20
5.7999666700064267
10
-20.999970679961564
20
5.2999666700063131
42
0.41421356237281759
10
-20.699970679961552
20
4.9999666700064083
10
-16.799970679961405
20
4.9999666700063017
42
0.41421356237337253
10
-16.49997067996166
20
5.2999666700063131
10
-16.499970679961677
20
10.050086008806431
10
-12.392794971485444
20
10.050086008806431
10
-9.4998606588862344
20
7.1571516962060855
10
-9.4998606588990242
20
3.1229229035108124
42
0.16015103687837645
10
-9.4998606589005021
20
-3.1229229034984223
10
-9.4998606588862344
20
-7.1572183561937663
10
-12.392794971485444
20
-10.050152668793828
10
-16.499970679961677
20
-10.050152668793828
10
-16.499970679961677
20
-5.3000333299937097
42
0.41421356237337253
10
-16.799970679961405
20
-5.0000333299936806
10
-20.699970679961552
20
-5.0000333299936983
42
0.41421356237337253
10
-20.999970679961297
20
-5.3000333299937097
10
-20.999970679961564
20
-5.8000333299938234
10
-21.999970679961223
20
-5.8000333299938234
42
0.41421356237342799
10
-22.49997067996123
20
-6.3000333299933686
10
-22.499970679961621
20
-19.500081571193846
42
0.41421356237295631
10
-19.499972921186099
20
-22.500079329969136
10
-6.299966669986361
20
-22.500079329972493
42
0.41421356237342799
10
-5.7999666699860697
20
-22.000079329972664
10
-5.7999666699859631
20
-20.999970679968669
10
-5.2999666699858494
20
-20.999970679968669
42
0.41421356237503743
10
-4.9999666699854117
20
-20.699970679968658
10
-4.9999666699855538
20
-16.79997067996851
42
0.41421356237198514
10
-5.2999666699858494
20
-16.499970679969458
10
-10.050086008786252
20
-16.499970679968499
10
-10.050086008786252
20
-12.392794971493117
10
-7.1571516961856219
20
-9.4998606588941925
10
-3.1229229034900641
20
-9.4998606589069823
42
0.16015103687825513
10
3.1229229035173689
20
-9.499860658902211
10
7.1572183562136615
20
-9.4998606588941925
10
10.050152668814292
20
-12.392794971493117
10
10.050152668814292
20
-16.499970679968499
10
5.3000333300138891
20
-16.499970679968499
42
0.41421356237198514
10
5.0000333300137001
20
-16.79997067996851
10
5.0000333300144462
20
-20.699970679968658
42
0.41421356237392748
10
5.3000333300138891
20
-20.999970679969255
10
5.8000333300140028
20
-20.999970679968669
10
5.8000333300140028
20
-21.999931976592109
42
0.41421356237492579
10
6.3000333300169578
20
-22.499931976592276
10
13.249981110377007
20
-22.499931976556695
42
0.4142139999787115
10
13.749980110377058
20
-21.99993297659347
10
13.7499801103138
20
-20.999934976593408
10
31.249987110313953
20
-20.999934976593408
10
31.249987110251141
20
-21.999932976556806
42
0.41421400003615089
10
31.749986110313841
20
-22.499931976556734
10
38.699933890617046
20
-22.499931976557548
42
0.41421356237143014
10
39.199933890614147
20
-21.999931976557434
10
39.199933890614034
20
-20.999970679968669
10
39.699933890614147
20
-20.999970679968669
42
0.41421356237420498
10
39.999933890613953
20
-20.699970679968658
10
39.999933890614443
20
-16.79997067996851
42
0.41421356237198514
10
39.699933890614147
20
-16.499970679969458
10
34.949814551814029
20
-16.499970679968499
10
34.949814551814029
20
-12.392794971493117
10
37.842748864414091
20
-9.4998606588941925
10
41.877044317110119
20
-9.4998606589069823
42
0.16015103687802798
10
48.122890124139424
20
-9.4998606589692614
10
52.157118916814227
20
-9.4998606588941925
10
55.050053229414004
20
-12.392794971493117
10
55.050053229414004
20
-16.499970679968499
10
50.29993389061417
20
-16.499970679968499
42
0.41421356237198514
10
49.999933890613981
20
-16.79997067996851
10
49.999933890614159
20
-20.699970679968658
42
0.41421356237392748
10
50.29993389061417
20
-20.999970679969255
10
50.799933890614284
20
-20.999970679968669
10
50.799933890614284
20
-22.000079329972664
42
0.41421356237309503
10
51.299933890614113
20
-22.500079329972387
10
64.499940141814136
20
-22.500079329968798
42
0.41421356237303952
10
67.499937900588918
20
-19.500081571193846
10
67.499937900588804
20
-6.3000333299933686
42
0.41421356237342799
10
66.999937900588975
20
-5.8000333299933615
10
65.999937900589032
20
-5.8000333299938234
10
65.999937900589316
20
-5.3000333299937097
42
0.41421356237365003
10
65.699937900589021
20
-5.0000333299936806
10
61.799937900589157
20
-5.0000333299936983
42
0.41421356237337253
10
61.499937900589636
20
-5.3000333299937097
10
61.499937900588861
20
-10.050152668793828
10
57.392762192114617
20
-10.050152668793828
10
54.499827879513703
20
-7.1572183561937663
10
54.499827879527629
20
-3.1229229034980222
42
0.16015103688153515
10
54.499827879529619
20
3.1229229035109989
10
54.499827879513703
20
7.1571516962060855
10
57.392762192114333
20
10.050086008806431
10
61.499937900588861
20
10.050086008806431
10
61.499937900588861
20
5.2999666700063131
42
0.41421356237281759
10
61.799937900589157
20
4.9999666700064083
10
65.699937900589021
20
4.9999666700065859
42
0.41421356237365003
10
65.999937900588833
20
5.2999666700063131
10
65.999937900589032
20
5.7999666700064267
10
66.999937900588975
20
5.7999666700064267
42
0.41421356237342799
10
67.499937900588975
20
6.2999666700062562
10
67.499937900588804
20
19.500014911206449
42
0.41421356237298407
10
64.499940141814136
20
22.500012669981679
10
51.300000550614016
20
22.500012669984528
42
0.414213562373761
10
50.800000550614072
20
22.00001266998413
10
50.800000550613902
20
20.999970679982027
10
50.300000550613788
20
20.999970679982027
42
0.41421356237337253
10
50.000000550613599
20
20.699970679981448
10
50.000000550614061
20
16.799970679981868
42
0.41421356237337253
10
50.300000550613788
20
16.499970679981839
10
55.050119889413907
20
16.499970679981857
10
55.050119889413907
20
12.392794971506476
10
52.157185576814129
20
9.4998606589064138
10
48.122890124117816
20
9.4998606589200563
42
0.16015103687824611
10
41.877044317130412
20
9.4998606588571892
10
37.842815524413993
20
9.4998606589064138
10
34.949881211813647
20
12.392794971506476
10
34.949881211813647
20
16.499970679981857
10
39.700000550614334
20
16.499970679981857
42
0.41421356237337253
10
40.000000550614075
20
16.799970679981868
10
40.000000550614061
20
20.699970679981448
42
0.41421356237337253
10
39.700000550614334
20
20.999970679981033
10
39.20000055061422
20
20.999970679982027
10
39.20000055061422
20
22.000068023405106
42
0.41421356237509294
10
38.700000550611264
20
22.500068023405397
10
31.749982701051351
20
22.500068023369408
42
0.41421399997821201
10
31.2499837010512
20
22.000069023405899
10
31.249983701013946
20
21.00007102340669
10
13.749976701113553
20
21.00007102340669
10
13.749976701077742
20
22.00006902336952
42
0.41421399997821201
10
13.249977701114233
20
22.500068023369288
0
LWPOLYLINE
5
101
100
AcDbEntity
8
0
100
AcDbPolyline
90
20
70
1
43
0.0
10
35.4998864198135
20
3.1224133568968004
42
0.16012800000023325
10
35.499944419699467
20
-3.1225601531407103
10
35.499944419714211
20
-7.5073343836939443
10
31.949977617913703
20
-11.057351381693366
10
31.949977617919604
20
-13.99998349639759
42
-0.41421400000141673
10
27.949985617914024
20
-17.999975496393223
10
17.050009417907294
20
-17.999975496441078
42
-0.41422221555111705
10
13.049905221613949
20
-13.999983496493655
10
13.049905221613756
20
-11.057351381693366
10
9.4999384198138159
20
-7.5073343836939443
10
9.4999384198075649
20
-3.1225661531200899
42
0.16012800000037161
10
9.4999964196862727
20
3.122418356897787
10
9.4999964197134545
20
7.5073875869063045
10
13.049961319813974
20
11.057350487006374
10
13.049961319806489
20
13.999985601711273
42
-0.41421400000149233
10
17.049953319813941
20
17.999976601706951
10
27.949929519817545
20
17.999976601713033
42
-0.41421400000190844
10
31.94992151981431
20
13.999985601705873
10
31.949921519814382
20
11.057350487006374
10
35.499886419814004
20
7.5073875869063045
0
LWPOLYLINE
5
102
100
AcDbEntity
8
0
100
AcDbPolyline
90
64
70
1
43
0.0
10
7.7683093866236952
20
1.9113232832363574
42
0.075870157154496479
10
6.8445318205713779
20
4.1415180280342963
42
0.43389208223062958
10
6.1299594386005651
20
4.2922485933092958
10
4.4866631702972297
20
3.1415988758619262
42
-0.38779449123550847
10
3.8180666173317208
20
3.2283395586800112
42
0.041772877283117876
10
3.2283402914619019
20
3.8180659977319427
42
-0.3877944912364189
10
3.1415997369680326
20
4.4866625673495264
10
4.2922497698132798
20
6.1299586147951635
42
0.43389208223384146
10
4.1415193416851634
20
6.8445310256966385
42
0.07587042709108735
10
1.9113164343879507
20
7.7683110717112189
42
0.43389208222836728
10
1.2994550039104524
20
7.3696144674207176
10
0.95110203677748939
20
5.3939961824254752
42
-0.38779449123240961
10
0.41699811140833964
20
4.9825617482882576
42
0.041772908489478129
10
-0.41700155762246233
20
4.98256145986785
42
-0.38779449123665033
10
-0.95110576756411547
20
5.3939955245874671
10
-1.2994601011422326
20
7.3696135686367885
42
0.43389208223014047
10
-1.9113218073821003
20
7.7683097497283295
42
0.075870207144234134
10
-4.1415180884692866
20
6.8445317839821804
42
0.43389208222902748
10
-4.2922486474341781
20
6.1299594006831626
10
-3.1415989154759734
20
4.4866631425337751
42
-0.38779449123371934
10
-3.2283395923884428
20
3.8180665888030427
42
0.041772158525885512
10
-3.818056760808731
20
3.2283512156423253
42
-0.38779449123882492
10
-4.4866535786090367
20
3.1416125741313294
10
-6.1299463338076343
20
4.2922673087595804
42
0.43389208223471681
10
-6.8445191759760435
20
4.1415389251602104
42
0.075871620466260656
10
-7.7683146744887299
20
1.9113017911926631
42
0.43389208223355458
10
-7.3696169168383108
20
1.2994411122537031
10
-5.3939979752198077
20
0.95109186917614608
42
-0.38779449123871701
10
-4.9825625342950701
20
0.41698871935239279
42
0.041772584521117997
10
-4.9825612132455932
20
-0.41700450415190804
42
-0.38779449122514376
10
-5.3939949621050687
20
-0.95110895740049273
10
-7.3696128001575145
20
-1.2994644593392113
42
0.43389208222444675
10
-7.7683086194046442
20
-1.9113264013556637
42
0.075870455320246055
10
-6.8445252470041451
20
-4.1415288918431425
42
0.43389208223326797
10
-6.1299526257877801
20
-4.2922583229275801
10
-4.4866581838423327
20
-3.141605997189628
42
-0.38779449123754067
10
-3.8180614931985661
20
-3.2283456187906214
42
0.041772577435813717
10
-3.228338802679386
20
-3.8180672565233982
42
-0.38779449124443749
10
-3.1415979874870459
20
-4.486663792324066
10
-4.2922473795915241
20
-6.1299602884089763
42
0.4338920822364748
10
-4.1415166728422461
20
-6.8445326405437896
42
0.075870076550039911
10
-1.911324235456642
20
-7.7683091523117342
42
0.43389208223374981
10
-1.2994624045981595
20
-7.3696131624564032
10
-0.95110745354731185
20
-5.3939952273018363
42
-0.38779449123907117
10
-0.41700311500302706
20
-4.9825613295153035
42
0.041773159984424033
10
0.4170015576509063
20
-4.9825614598559067
42
-0.38779449123275311
10
0.95110576759282139
20
-5.3939955245769511
10
1.2994601011701834
20
-7.3696135686240805
42
0.43389208223119174
10
1.9113218074108027
20
-7.7683097497203537
42
0.075869938098155898
10
4.1415107646741758
20
-6.8445362154933029
42
0.43389208223284509
10
4.2922420882459278
20
-6.1299639934750871
10
3.1415941146459279
20
-4.4866665041296896
42
-0.3877944912388559
10
3.228335506971272
20
-3.8180700432098469
42
0.041773112338687815
10
3.8180656019074699
20
-3.2283407595793481
42
-0.38779449124080895
10
4.4866621821680042
20
-3.1416002870676607
10
6.1299580885013905
20
-4.2922505214186844
42
0.43389208223601017
10
6.8445305178915703
20
-4.1415201809134006
42
0.075870154223397171
10
7.7683087631501744
20
-1.9113258172402681
42
0.43389208223120118
10
7.3696128978849629
20
-1.2994639052013213
10
5.3939950336570384
20
-0.95110855185947174
42
-0.38779449123760273
10
4.9825612446272762
20
-0.41700412954189958
42
0.041773258556101631
10
4.9825613806516227
20
0.41700250425092222
42
-0.38779449123579962
10
5.3939953439081023
20
0.95110679235972384
10
7.369613321767206
20
1.29946150125127
42
0.43389208223213804
0
LWPOLYLINE
5
103
100
AcDbEntity
8
0
100
AcDbPolyline
90
64
70
1
43
0.0
10
40.017405839975297
20
0.41700250425099405
42
0.38779449123758802
10
39.605971876719998
20
0.95110679236008777
10
37.630353898860406
20
1.2994615012504918
42
-0.43389208223306708
10
37.23165783401808
20
1.9113232832331164
42
-0.075870157152818279
10
38.155435400057542
20
4.1415180280342758
42
-0.4338920822305608
10
38.870007782027798
20
4.2922485933093473
10
40.51330405033184
20
3.1415988758635649
42
0.38779449123280385
10
41.181900603305934
20
3.2283395586718706
42
-0.041772877282031592
10
41.771626929157634
20
3.8180659977420932
42
0.38779449123869486
10
41.858367483660466
20
4.486662567349649
10
40.707717450815238
20
6.129958614794905
42
-0.43389208223330772
10
40.85844787895708
20
6.8445310256720484
42
-0.075870427090519152
10
43.088650786240315
20
7.7683110717118389
42
-0.43389208222858877
10
43.70051221671801
20
7.3696144674207442
10
44.048865183851262
20
5.3939961824255533
42
0.38779449123448267
10
44.582969109221189
20
4.9825617482718894
42
-0.041772908489602273
10
45.416968778252198
20
4.9825614598847681
42
0.38779449123463672
10
45.951072988192394
20
5.3939955245875248
10
46.299427321770843
20
7.3696135686367885
42
-0.43389208223053743
10
46.911289028003921
20
7.7683097497027305
42
-0.075870207145058169
10
49.141485309096986
20
6.8445317839825695
42
-0.43389208222983872
10
49.292215868061959
20
6.1299594006827789
10
48.141566136105496
20
4.4866631425327341
42
0.38779449123135357
10
48.228306813009894
20
3.8180665887948746
42
-0.041772158527130211
10
48.818023981446963
20
3.2283512156508669
42
0.38779449124100712
10
49.486620799236761
20
3.1416125741313774
10
51.129913554435248
20
4.2922673087597856
42
-0.43389208223521164
10
51.844486396595997
20
4.1415389251559356
42
-0.075871620468064602
10
52.768281895117241
20
1.9113017911928274
42
-0.43389208223345521
10
52.369584137466909
20
1.2994411122537652
10
50.393965195848409
20
0.95109186917454736
42
0.38779449123690446
10
49.982529754924833
20
0.41698871935190718
42
-0.041772584522744946
10
49.982528433873547
20
-0.41700450415192336
42
0.38779449122853304
10
50.393962182733986
20
-0.95110895740036416
10
52.369580020786096
20
-1.2994644593393305
42
-0.43389208222555231
10
52.768275840046179
20
-1.9113264013589881
42
-0.075870455321936578
10
51.844492467632584
20
-4.1415288918435023
42
-0.43389208223214115
10
51.129919846417202
20
-4.2922583229272133
10
49.486625404471454
20
-3.1416059971888899
42
0.38779449123977833
10
48.818028713836064
20
-3.2283456187989481
42
-0.041772577436886137
10
48.228306023298735
20
-3.8180672565129816
42
0.38779449124214149
10
48.141565208115708
20
-4.4866637923236263
10
49.29221460021985
20
-6.129960288409376
42
-0.43389208223606568
10
49.141483893485265
20
-6.8445326405681701
42
-0.075870076550616949
10
46.911291456085578
20
-7.7683091523118151
42
-0.43389208223394998
10
46.299429625227248
20
-7.3696131624565187
10
45.951074674176198
20
-5.3939952273017866
42
0.38779449123825299
10
45.416970335632563
20
-4.9825613295314479
42
-0.041773159984303254
10
44.58296566297895
20
-4.9825614598369974
42
0.38779449123419141
10
44.048861453035684
20
-5.3939955245770834
10
43.700507119458848
20
-7.3696135686241071
42
-0.43389208223034403
10
43.088645413211275
20
-7.7683097497457885
42
-0.075869938097341896
10
40.858456455953196
20
-6.8445362154932488
42
-0.43389208223342646
10
40.707725132382215
20
-6.1299639934742256
10
41.858373105983731
20
-4.4866665041303122
42
0.38779449123624105
10
41.771631713651118
20
-3.8180700432182157
42
-0.041773112337494644
10
41.181901618729611
20
-3.2283407595715192
42
0.38779449124221166
10
40.51330503846085
20
-3.1416002870680155
10
38.87000913212696
20
-4.2922505214183202
42
-0.4338920822363545
10
38.1554367027287
20
-4.1415201809177731
42
-0.075870154221574893
10
37.231658457478481
20
-1.9113258172409227
42
-0.43389208223199777
10
37.630354322743649
20
-1.2994639052013579
10
39.605972186972167
20
-0.95110855186050003
42
0.38779449123471788
10
40.017405976002387
20
-0.41700412954188076
42
-0.041773258554449029
0
LWPOLYLINE
5
104
100
AcDbEntity
8
0
100
AcDbPolyline
90
8
70
1
43
0.0
10
-11.999987580259941
20
18.499914601832756
42
0.41421399999977254
10
-12.999985580259477
20
19.499912601832577
10
-18.499974580211926
20
19.499912601833199
42
0.41421400002649444
10
-19.49997258018584
20
18.499914601806609
10
-19.499972580212759
20
12.999925601780262
42
0.41421400000776415
10
-18.499974580185778
20
11.999927601779916
10
-12.999985580259477
20
11.999927601780104
42
0.41421399995573566
10
-11.999987580186087
20
12.999925601806126
0
LWPOLYLINE
5
105
100
AcDbEntity
8
0
100
AcDbPolyline
90
8
70
1
43
0.0
10
57.999952800888366
20
19.499912601832577
42
0.41421400000018882
10
56.999954800887409
20
18.499914601832756
10
56.999954800887409
20
12.999925601806126
42
0.41421400000784742
10
57.999952800888366
20
11.9999276017802
10
63.499941800814099
20
11.999927601780158
42
0.41421400000759767
10
64.499939800840878
20
12.999925601780262
10
64.499939800840011
20
18.499914601806609
42
0.4142140000075144
10
63.499941800840247
20
19.499912601833671
0
LWPOLYLINE
5
106
100
AcDbEntity
8
0
100
AcDbPolyline
90
8
70
1
43
0.0
10
56.999954800887693
20
-18.499949398319586
42
0.41421400000010561
10
57.999952800888366
20
-19.499947398319406
10
63.499941800814099
20
-19.49994739832032
42
0.41421400000759767
10
64.499939800840878
20
-18.499949398321291
10
64.499939800840707
20
-12.999960398293524
42
0.41421400000776415
10
63.499941800840247
20
-11.999962398267314
10
57.999952800814185
20
-11.999962398268
42
0.41421399997846176
10
56.999954800888588
20
-12.999960398267376
0
LWPOLYLINE
5
107
100
AcDbEntity
8
0
100
AcDbPolyline
90
8
70
1
43
0.0
10
-12.999985580259477
20
-19.499947398320259
42
0.41421400000002229
10
-11.999987580259941
20
-18.499949398319586
10
-11.999987580259319
20
-12.999960398267376
42
0.41421399999710878
10
-12.999985580185864
20
-11.999962398293462
10
-18.499974580211926
20
-11.999962398268
42
0.41421400000784742
10
-19.499972580212273
20
-12.999960398293524
10
-19.499972580212209
20
-18.499949398321291
42
0.4142140000262447
10
-18.499974580185778
20
-19.4999473982935
0
LWPOLYLINE
5
108
100
AcDbEntity
8
0
100
AcDbPolyline
90
152
70
1
43
0.0
10
6.2999666700116563
20
22.500068023371167
42
0.41421356237176443
10
5.7999666700137613
20
22.000068023371
10
5.7999666700138164
20
20.999970679982027
10
5.2999666700137027
20
20.999970679982027
42
0.41421356237142259
10
4.999966670014774
20
20.699970679981448
10
4.9999666700139755
20
16.799970679981868
42
0.41421356237337142
10
5.2999666700137027
20
16.499970679981839
10
10.050086008814105
20
16.499970679981857
10
10.050086008814105
20
12.392794971506476
10
7.1571516962140436
20
9.4998606589064138
10
3.1229229035184858
20
9.4998606589200563
42
0.16015103687804155
10
-3.1229229034917259
20
9.4998606589241987
10
-7.1572183561860925
20
9.4998606589064138
10
-10.050152668785302
20
12.392794971506476
10
-10.050152668785302
20
16.499970679981857
10
-5.3000333299860358
20
16.499970679981857
42
0.41421356237337142
10
-5.0000333299862918
20
16.799970679981868
10
-5.0000333299860245
20
20.699970679981448
42
0.41421356237559892
10
-5.3000333299860358
20
20.999970679981885
10
-5.8000333299861495
20
20.999970679982027
10
-5.8000333299861495
20
22.000012669984415
42
0.41421356237309892
10
-6.300033329985979
20
22.500012669984581
10
-19.499972921186099
20
22.500012669981402
42
0.41421356237292772
10
-22.499970679960981
20
19.500014911206449
10
-22.499970679961621
20
6.2999666700062562
42
0.41421356237326606
10
-21.999970679961507
20
5.79996667000625
10
-20.999970679961564
20
5.7999666700064267
10
-20.999970679961564
20
5.2999666700063131
42
0.41421356237282408
10
-20.699970679961552
20
4.99996667000641
10
-16.799970679961405
20
4.9999666700063017
42
0.41421356237337581
10
-16.49997067996166
20
5.2999666700063131
10
-16.499970679961677
20
10.050086008806431
10
-12.392794971485444
20
10.050086008806431
10
-9.4998606588862344
20
7.1571516962060855
10
-9.499860658899026
20
3.1229229035108119
42
0.16015103687837573
10
-9.4998606589005004
20
-3.1229229034984209
10
-9.4998606588862344
20
-7.1572183561937663
10
-12.392794971485444
20
-10.050152668793828
10
-16.499970679961677
20
-10.050152668793828
10
-16.499970679961677
20
-5.3000333299937097
42
0.41421356237337792
10
-16.799970679961408
20
-5.0000333299936814
10
-20.699970679961552
20
-5.0000333299936983
42
0.41421356237336604
10
-20.999970679961297
20
-5.3000333299937097
10
-20.999970679961564
20
-5.8000333299938234
10
-21.999970679961223
20
-5.8000333299938234
42
0.41421356237342799
10
-22.49997067996123
20
-6.3000333299933686
10
-22.499970679961621
20
-19.500081571193846
42
0.41421356237295648
10
-19.499972921186099
20
-22.500079329969136
10
-6.299966669986361
20
-22.500079329972493
42
0.4142135623734241
10
-5.7999666699860679
20
-22.000079329972664
10
-5.7999666699859631
20
-20.999970679968669
10
-5.2999666699858494
20
-20.999970679968669
42
0.41421356237504831
10
-4.9999666699854135
20
-20.699970679968654
10
-4.9999666699855538
20
-16.79997067996851
42
0.41421356237198942
10
-5.2999666699858494
20
-16.499970679969458
10
-10.050086008786252
20
-16.499970679968499
10
-10.050086008786252
20
-12.392794971493117
10
-7.1571516961856219
20
-9.4998606588941925
10
-3.1229229034900641
20
-9.4998606589069823
42
0.16015103687825524
10
3.1229229035173711
20
-9.4998606589022128
10
7.1572183562136615
20
-9.4998606588941925
10
10.050152668814292
20
-12.392794971493117
10
10.050152668814292
20
-16.499970679968499
10
5.3000333300138891
20
-16.499970679968499
42
0.41421356237198942
10
5.0000333300137001
20
-16.79997067996851
10
5.0000333300144462
20
-20.699970679968658
42
0.41421356237393292
10
5.3000333300138891
20
-20.999970679969259
10
5.8000333300140028
20
-20.999970679968669
10
5.8000333300140028
20
-21.999931976592109
42
0.41421356237493034
10
6.3000333300169578
20
-22.499931976592276
10
13.249981110377007
20
-22.499931976556695
42
0.41421399997870628
10
13.749980110377059
20
-21.99993297659347
10
13.7499801103138
20
-20.999934976593408
10
31.249987110313953
20
-20.999934976593408
10
31.249987110251141
20
-21.999932976556806
42
0.41421400003614306
10
31.749986110313841
20
-22.499931976556731
10
38.699933890617046
20
-22.499931976557548
42
0.41421356237143014
10
39.199933890614147
20
-21.999931976557434
10
39.199933890614034
20
-20.999970679968669
10
39.699933890614147
20
-20.999970679968669
42
0.41421356237420498
10
39.999933890613953
20
-20.699970679968658
10
39.999933890614443
20
-16.79997067996851
42
0.41421356237199164
10
39.699933890614147
20
-16.499970679969461
10
34.949814551814029
20
-16.499970679968499
10
34.949814551814029
20
-12.392794971493117
10
37.842748864414091
20
-9.4998606588941925
10
41.877044317110119
20
-9.4998606589069823
42
0.16015103687802809
10
48.122890124139424
20
-9.4998606589692631
10
52.157118916814227
20
-9.4998606588941925
10
55.050053229414004
20
-12.392794971493117
10
55.050053229414004
20
-16.499970679968499
10
50.29993389061417
20
-16.499970679968499
42
0.41421356237196993
10
49.999933890613981
20
-16.79997067996851
10
49.999933890614159
20
-20.699970679968658
42
0.41421356237391449
10
50.29993389061417
20
-20.999970679969259
10
50.799933890614284
20
-20.999970679968669
10
50.799933890614284
20
-22.000079329972664
42
0.41421356237309503
10
51.299933890614113
20
-22.500079329972387
10
64.499940141814136
20
-22.500079329968798
42
0.41421356237303908
10
67.499937900588932
20
-19.500081571193846
10
67.499937900588804
20
-6.3000333299933686
42
0.41421356237342738
10
66.999937900588975
20
-5.8000333299933624
10
65.999937900589032
20
-5.8000333299938234
10
65.999937900589316
20
-5.3000333299937097
42
0.41421356237365003
10
65.699937900589021
20
-5.0000333299936806
10
61.799937900589157
20
-5.0000333299936983
42
0.41421356237336276
10
61.499937900589643
20
-5.3000333299937097
10
61.499937900588861
20
-10.050152668793828
10
57.392762192114617
20
-10.050152668793828
10
54.499827879513703
20
-7.1572183561937663
10
54.499827879527629
20
-3.1229229034980222
42
0.1601510368815349
10
54.499827879529619
20
3.1229229035109993
10
54.499827879513703
20
7.1571516962060855
10
57.392762192114333
20
10.050086008806431
10
61.499937900588861
20
10.050086008806431
10
61.499937900588861
20
5.2999666700063131
42
0.41421356237281215
10
61.799937900589157
20
4.9999666700064136
10
65.699937900589021
20
4.9999666700065859
42
0.4142135623736522
10
65.999937900588833
20
5.2999666700063131
10
65.999937900589032
20
5.7999666700064267
10
66.999937900588975
20
5.7999666700064267
42
0.41421356237342799
10
67.499937900588975
20
6.2999666700062562
10
67.499937900588804
20
19.500014911206449
42
0.4142135623729854
10
64.499940141814136
20
22.500012669981672
10
51.300000550614016
20
22.500012669984528
42
0.41421356237376622
10
50.800000550614058
20
22.00001266998413
10
50.800000550613902
20
20.999970679982027
10
50.300000550613788
20
20.999970679982027
42
0.41421356237337692
10
50.000000550613599
20
20.699970679981448
10
50.000000550614061
20
16.799970679981868
42
0.41421356237338991
10
50.300000550613788
20
16.499970679981839
10
55.050119889413907
20
16.499970679981857
10
55.050119889413907
20
12.392794971506476
10
52.157185576814129
20
9.4998606589064138
10
48.122890124117816
20
9.499860658920058
42
0.16015103687824575
10
41.877044317130412
20
9.499860658857191
10
37.842815524413993
20
9.4998606589064138
10
34.949881211813647
20
12.392794971506476
10
34.949881211813647
20
16.499970679981857
10
39.700000550614334
20
16.499970679981857
42
0.41421356237336604
10
40.000000550614075
20
16.799970679981868
10
40.000000550614061
20
20.699970679981448
42
0.41421356237337692
10
39.700000550614334
20
20.999970679981029
10
39.20000055061422
20
20.999970679982027
10
39.20000055061422
20
22.000068023405106
42
0.41421356237509033
10
38.700000550611264
20
22.500068023405394
10
31.749982701051351
20
22.500068023369408
42
0.41421399997820163
10
31.2499837010512
20
22.000069023405899
10
31.249983701013946
20
21.00007102340669
10
13.749976701113553
20
21.00007102340669
10
13.749976701077742
20
22.00006902336952
42
0.4142139999782094
10
13.249977701114233
20
22.500068023369295
0
LWPOLYLINE
5
109
100
AcDbEntity
8
0
100
AcDbPolyline
90
20
70
1
43
0.0
10
35.4998864198135
20
3.1224133568968031
42
0.16012800000023333
10
35.499944419699467
20
-3.1225601531407117
10
35.499944419714211
20
-7.5073343836939443
10
31.949977617913703
20
-11.057351381693366
10
31.9499776179196
20
-13.99998349639759
42
-0.41421400000141684
10
27.949985617914024
20
-17.999975496393223
10
17.050009417907294
20
-17.999975496441078
42
-0.41422221555111671
10
13.049905221613949
20
-13.999983496493655
10
13.049905221613756
20
-11.057351381693366
10
9.4999384198138159
20
-7.5073343836939443
10
9.4999384198075649
20
-3.1225661531200899
42
0.16012800000037147
10
9.4999964196862727
20
3.1224183568977848
10
9.4999964197134545
20
7.5073875869063045
10
13.049961319813974
20
11.057350487006374
10
13.049961319806489
20
13.999985601711273
42
-0.414214000001492
10
17.049953319813941
20
17.999976601706951
10
27.949929519817541
20
17.999976601713037
42
-0.41421400000190794
10
31.94992151981431
20
13.999985601705873
10
31.949921519814382
20
11.057350487006374
10
35.499886419814004
20
7.5073875869063045
0
LWPOLYLINE
5
110
100
AcDbEntity
8
0
100
AcDbPolyline
90
64
70
1
43
0.0
10
7.7683093866236961
20
1.9113232832363627
42
0.075870157154496659
10
6.8445318205713761
20
4.1415180280342989
42
0.43389208223062975
10
6.1299594386005651
20
4.2922485933092958
10
4.4866631702972306
20
3.1415988758619267
42
-0.38779449123550924
10
3.8180666173317213
20
3.2283395586800125
42
0.041772877283118542
10
3.2283402914619019
20
3.8180659977319427
42
-0.3877944912364189
10
3.1415997369680326
20
4.4866625673495264
10
4.2922497698132798
20
6.1299586147951635
42
0.43389208223384146
10
4.1415193416851634
20
6.8445310256966394
42
0.075870427091087073
10
1.9113164343879507
20
7.7683110717112189
42
0.43389208222836972
10
1.2994550039104524
20
7.3696144674207176
10
0.9511020367774885
20
5.393996182425477
42
-0.38779449123241144
10
0.41699811140833665
20
4.9825617482882594
42
0.041772908489478129
10
-0.41700155762246233
20
4.98256145986785
42
-0.38779449123665033
10
-0.95110576756411547
20
5.3939955245874671
10
-1.2994601011422326
20
7.3696135686367885
42
0.43389208223013948
10
-1.9113218073820983
20
7.7683097497283295
42
0.075870207144232815
10
-4.1415180884692866
20
6.8445317839821804
42
0.43389208222902836
10
-4.2922486474341781
20
6.1299594006831626
10
-3.1415989154759734
20
4.4866631425337751
42
-0.38779449123371851
10
-3.2283395923884424
20
3.8180665888030445
42
0.041772158525885679
10
-3.818056760808731
20
3.2283512156423253
42
-0.38779449123882492
10
-4.4866535786090367
20
3.1416125741313294
10
-6.1299463338076343
20
4.2922673087595804
42
0.43389208223471876
10
-6.8445191759760462
20
4.1415389251602051
42
0.075871620466260101
10
-7.7683146744887299
20
1.9113017911926631
42
0.43389208223355458
10
-7.3696169168383108
20
1.2994411122537031
10
-5.393997975219806
20
0.95109186917614608
42
-0.38779449123871751
10
-4.9825625342950683
20
0.41698871935239179
42
0.041772584521117664
10
-4.9825612132455932
20
-0.41700450415190793
42
-0.38779449122514381
10
-5.3939949621050687
20
-0.95110895740049273
10
-7.3696128001575145
20
-1.2994644593392113
42
0.43389208222444753
10
-7.768308619404646
20
-1.9113264013556654
42
0.075870455320246333
10
-6.8445252470041451
20
-4.1415288918431417
42
0.43389208223326919
10
-6.1299526257877801
20
-4.2922583229275801
10
-4.4866581838423336
20
-3.141605997189628
42
-0.38779449123754112
10
-3.8180614931985657
20
-3.2283456187906223
42
0.041772577435815555
10
-3.228338802679386
20
-3.8180672565233982
42
-0.38779449124443749
10
-3.1415979874870459
20
-4.486663792324066
10
-4.2922473795915232
20
-6.1299602884089763
42
0.4338920822364753
10
-4.1415166728422452
20
-6.8445326405437923
42
0.075870076550041035
10
-1.911324235456642
20
-7.7683091523117342
42
0.43389208223374992
10
-1.2994624045981595
20
-7.3696131624564032
10
-0.95110745354731274
20
-5.3939952273018363
42
-0.38779449123907161
10
-0.41700311500302628
20
-4.9825613295153035
42
0.041773159984424872
10
0.41700155765090618
20
-4.9825614598559067
42
-0.38779449123275322
10
0.95110576759282139
20
-5.3939955245769511
10
1.2994601011701834
20
-7.3696135686240805
42
0.43389208223119152
10
1.9113218074108043
20
-7.7683097497203546
42
0.075869938098155898
10
4.1415107646741758
20
-6.8445362154933029
42
0.43389208223284575
10
4.2922420882459278
20
-6.1299639934750871
10
3.1415941146459279
20
-4.4866665041296896
42
-0.3877944912388564
10
3.2283355069712725
20
-3.8180700432098451
42
0.041773112338686143
10
3.8180656019074699
20
-3.2283407595793481
42
-0.38779449124080895
10
4.4866621821680042
20
-3.1416002870676607
10
6.1299580885013905
20
-4.2922505214186844
42
0.43389208223600756
10
6.8445305178915703
20
-4.141520180913405
42
0.075870154223396893
10
7.7683087631501744
20
-1.9113258172402681
42
0.43389208223120224
10
7.3696128978849629
20
-1.2994639052013213
10
5.3939950336570384
20
-0.95110855185947252
42
-0.38779449123760451
10
4.9825612446272753
20
-0.41700412954189636
42
0.041773258556100458
10
4.9825613806516227
20
0.41700250425092222
42
-0.38779449123579962
10
5.3939953439081023
20
0.95110679235972384
10
7.369613321767206
20
1.2994615012512698
42
0.43389208223214093
0
LWPOLYLINE
5
111
100
AcDbEntity
8
0
100
AcDbPolyline
90
64
70
1
43
0.0
10
40.017405839975297
20
0.417002504250994
42
0.38779449123758802
10
39.605971876719998
20
0.95110679236008777
10
37.630353898860413
20
1.2994615012504938
42
-0.43389208223307107
10
37.23165783401808
20
1.9113232832331124
42
-0.075870157152819279
10
38.155435400057542
20
4.1415180280342723
42
-0.43389208223055864
10
38.870007782027798
20
4.2922485933093473
10
40.51330405033184
20
3.1415988758635649
42
0.38779449123280263
10
41.181900603305934
20
3.2283395586718706
42
-0.041772877282014245
10
41.771626929157634
20
3.8180659977420945
42
0.38779449123869464
10
41.858367483660466
20
4.4866625673496499
10
40.707717450815231
20
6.1299586147949023
42
-0.43389208223330028
10
40.85844787895708
20
6.8445310256720511
42
-0.075870427090518153
10
43.088650786240315
20
7.7683110717118371
42
-0.43389208222859565
10
43.700512216718018
20
7.3696144674207407
10
44.048865183851262
20
5.3939961824255533
42
0.38779449123448267
10
44.582969109221189
20
4.9825617482718885
42
-0.041772908489601607
10
45.416968778252198
20
4.9825614598847681
42
0.38779449123463672
10
45.951072988192394
20
5.3939955245875248
10
46.29942732177085
20
7.3696135686367867
42
-0.43389208223054071
10
46.911289028003907
20
7.7683097497027331
42
-0.07587020714505828
10
49.141485309096979
20
6.844531783982565
42
-0.43389208222983933
10
49.292215868061959
20
6.1299594006827771
10
48.141566136105496
20
4.4866631425327341
42
0.38779449123135357
10
48.228306813009887
20
3.8180665887948786
42
-0.041772158527126207
10
48.818023981446963
20
3.2283512156508682
42
0.38779449124100696
10
49.486620799236761
20
3.1416125741313747
10
51.129913554435234
20
4.2922673087597882
42
-0.43389208223521047
10
51.84448639659599
20
4.1415389251559285
42
-0.075871620468063034
10
52.768281895117241
20
1.9113017911928325
42
-0.43389208223345804
10
52.369584137466909
20
1.2994411122537652
10
50.393965195848409
20
0.95109186917454736
42
0.38779449123690191
10
49.982529754924833
20
0.41698871935190457
42
-0.041772584522753065
10
49.982528433873547
20
-0.41700450415192264
42
0.38779449122853349
10
50.393962182733986
20
-0.95110895740036416
10
52.369580020786096
20
-1.299464459339329
42
-0.43389208222555264
10
52.768275840046179
20
-1.9113264013589848
42
-0.075870455321937244
10
51.844492467632584
20
-4.141528891843496
42
-0.43389208223214093
10
51.129919846417209
20
-4.2922583229272133
10
49.486625404471454
20
-3.1416059971888899
42
0.38779449123977938
10
48.818028713836064
20
-3.2283456187989485
42
-0.041772577436884138
10
48.228306023298735
20
-3.818067256512983
42
0.38779449124214088
10
48.141565208115708
20
-4.4866637923236263
10
49.292214600219843
20
-6.1299602884093787
42
-0.43389208223607384
10
49.141483893485265
20
-6.8445326405681701
42
-0.075870076550617505
10
46.911291456085571
20
-7.7683091523118177
42
-0.43389208223392822
10
46.299429625227248
20
-7.3696131624565222
10
45.951074674176198
20
-5.3939952273017866
42
0.38779449123825299
10
45.416970335632563
20
-4.9825613295314488
42
-0.041773159984303587
10
44.58296566297895
20
-4.9825614598369983
42
0.38779449123419152
10
44.048861453035684
20
-5.3939955245770834
10
43.700507119458848
20
-7.3696135686241062
42
-0.43389208223033093
10
43.088645413211275
20
-7.7683097497457858
42
-0.075869938097341674
10
40.858456455953203
20
-6.8445362154932532
42
-0.43389208223344405
10
40.707725132382222
20
-6.1299639934742247
10
41.858373105983731
20
-4.4866665041303122
42
0.38779449123624127
10
41.771631713651118
20
-3.8180700432182202
42
-0.041773112337488309
10
41.181901618729611
20
-3.2283407595715192
42
0.38779449124221166
10
40.51330503846085
20
-3.1416002870680155
10
38.87000913212696
20
-4.2922505214183211
42
-0.43389208223635756
10
38.155436702728693
20
-4.1415201809177695
42
-0.075870154221575684
10
37.231658457478481
20
-1.9113258172409244
42
-0.43389208223200371
10
37.630354322743649
20
-1.2994639052013579
10
39.605972186972167
20
-0.95110855186050003
42
0.38779449123471788
10
40.017405976002387
20
-0.41700412954188443
42
-0.041773258554430232
0
LWPOLYLINE
5
112
100
AcDbEntity
8
0
100
AcDbPolyline
90
8
70
1
43
0.0
10
-11.999987580259941
20
18.499914601832756
42
0.41421399999977193
10
-12.999985580259477
20
19.499912601832577
10
-18.499974580211926
20
19.499912601833199
42
0.41421400002649311
10
-19.49997258018584
20
18.499914601806609
10
-19.499972580212759
20
12.999925601780262
42
0.41421400000776354
10
-18.499974580185778
20
11.999927601779916
10
-12.999985580259477
20
11.999927601780104
42
0.41421399995573244
10
-11.999987580186087
20
12.999925601806126
0
LWPOLYLINE
5
113
100
AcDbEntity
8
0
100
AcDbPolyline
90
8
70
1
43
0.0
10
57.999952800888366
20
19.499912601832577
42
0.41421400000018882
10
56.999954800887409
20
18.499914601832756
10
56.999954800887409
20
12.999925601806126
42
0.41421400000784353
10
57.999952800888366
20
11.9999276017802
10
63.499941800814099
20
11.999927601780158
42
0.41421400000760156
10
64.499939800840878
20
12.999925601780262
10
64.499939800840011
20
18.499914601806609
42
0.41421400000751246
10
63.499941800840247
20
19.499912601833671
0
LWPOLYLINE
5
114
100
AcDbEntity
8
0
100
AcDbPolyline
90
8
70
1
43
0.0
10
56.999954800887693
20
-18.499949398319586
42
0.41421400000010689
10
57.999952800888373
20
-19.499947398319403
10
63.499941800814099
20
-19.49994739832032
42
0.41421400000759639
10
64.499939800840878
20
-18.499949398321291
10
64.499939800840707
20
-12.999960398293524
42
0.41421400000776287
10
63.499941800840247
20
-11.999962398267314
10
57.999952800814185
20
-11.999962398268
42
0.41421399997845265
10
56.999954800888588
20
-12.999960398267376
0
LWPOLYLINE
5
115
100
AcDbEntity
8
0
100
AcDbPolyline
90
8
70
1
43
0.0
10
-12.999985580259477
20
-19.499947398320259
42
0.41421400000002362
10
-11.999987580259941
20
-18.499949398319586
10
-11.999987580259319
20
-12.999960398267376
42
0.41421399999710945
10
-12.999985580185864
20
-11.999962398293462
10
-18.499974580211926
20
-11.999962398268
42
0.41421400000784742
10
-19.499972580212273
20
-12.999960398293524
10
-19.499972580212209
20
-18.499949398321291
42
0.41421400002624403
10
-18.499974580185778
20
-19.4999473982935
0
ENDSEC
0
SECTION
2
OBJECTS
0
DICTIONARY
5
C
100
AcDbDictionary
3
ACAD_GROUP
350
D
3
ACAD_MLINESTYLE
350
17
0
DICTIONARY
5
D
100
AcDbDictionary
0
DICTIONARY
5
1A
330
C
100
AcDbDictionary
0
DICTIONARY
5
17
100
AcDbDictionary
0
ENDSEC
0
EOF
