0
SECTION
2
HEADER
9
$INSUNITS
70
4
9
$ACADVER
1
AC1014
9
$HANDSEED
5
FFFF
0
ENDSEC
0
SECTION
2
TABLES
0
TABLE
2
VPORT
5
8
100
AcDbSymbolTable
0
ENDTAB
0
TABLE
2
LTYPE
5
5
100
AcDbSymbolTable
0
LTYPE
5
14
100
AcDbSymbolTableRecord
100
AcDbLinetypeTableRecord
2
BYBLOCK
70
0
0
LTYPE
5
15
100
AcDbSymbolTableRecord
100
AcDbLinetypeTableRecord
2
BYLAYER
70
0
0
LTYPE
5
16
100
AcDbSymbolTableRecord
100
AcDbLinetypeTableRecord
2
DASHED
70
0
3
Dashed __ __ __ __ __ __ __ __ __ __ __ __ __ _
72
65
73
2
40
0.75
49
0.5
74
0
49
-0.25
74
0
0
ENDTAB
0
TABLE
2
LAYER
5
2
100
AcDbSymbolTable
70
3
0
LAYER
5
50
100
AcDbSymbolTableRecord
100
AcDbLayerTableRecord
2
1
70
0
62
7
6
DASHED
0
LAYER
5
51
100
AcDbSymbolTableRecord
100
AcDbLayerTableRecord
2
0
70
0
62
7
6
CONTINUOUS
0
ENDTAB
0
TABLE
2
STYLE
5
3
100
AcDbSymbolTable
70
1
0
STYLE
5
11
100
AcDbSymbolTableRecord
100
AcDbTextStyleTableRecord
2
STANDARD
70
0
0
ENDTAB
0
TABLE
2
VIEW
5
6
100
AcDbSymbolTable
70
0
0
ENDTAB
0
TABLE
2
UCS
5
7
100
AcDbSymbolTable
70
0
0
ENDTAB
0
TABLE
2
APPID
5
9
100
AcDbSymbolTable
70
2
0
APPID
5
12
100
AcDbSymbolTableRecord
100
AcDbRegAppTableRecord
2
ACAD
70
0
0
ENDTAB
0
TABLE
2
DIMSTYLE
5
A
100
AcDbSymbolTable
70
1
0
ENDTAB
0
TABLE
2
BLOCK_RECORD
5
1
100
AcDbSymbolTable
70
1
0
BLOCK_RECORD
5
1F
100
AcDbSymbolTableRecord
100
AcDbBlockTableRecord
2
*MODEL_SPACE
0
BLOCK_RECORD
5
1B
100
AcDbSymbolTableRecord
100
AcDbBlockTableRecord
2
*PAPER_SPACE
0
ENDTAB
0
ENDSEC
0
SECTION
2
BLOCKS
0
BLOCK
5
20
100
AcDbEntity
100
AcDbBlockBegin
2
*MODEL_SPACE
0
ENDBLK
5
21
100
AcDbEntity
100
AcDbBlockEnd
0
BLOCK
5
1C
100
AcDbEntity
100
AcDbBlockBegin
2
*PAPER_SPACE
0
ENDBLK
5
1D
100
AcDbEntity
100
AcDbBlockEnd
0
ENDSEC
0
SECTION
2
ENTITIES
0
LWPOLYLINE
5
100
100
AcDbEntity
8
0
100
AcDbPolyline
90
216
70
1
43
0.0
10
15.00000809500678
20
22.200000000024431
42
0.41421356235755591
10
14.700008095007036
20
22.50000000000826
10
6.3000000001284207
20
22.500000000008527
42
0.414213562373761
10
5.8000000001282892
20
22.000000000008697
10
5.8000000001285912
20
21.00000000000847
10
5.3000000001284775
20
21.00000000000847
42
0.41421356237309503
10
5.0000000001287326
20
20.700000000008743
10
5.0000000001287503
20
16.700000000008686
42
0.41421356237517615
10
5.2000000001285684
20
16.500000000008583
10
9.8500000001286026
20
16.500000000008903
42
-0.41421356237309503
10
10.050000000129025
20
16.300000000008481
10
10.050000000128316
20
12.575483399602092
42
-0.19891236737970602
10
9.4642135625016159
20
11.161269837228724
10
5.8507255524825208
20
7.5477818272096284
42
-0.3217247593865572
10
3.5492095921137623
20
7.1695963116685713
42
0.088140608765481701
10
0.86244066903565797
20
7.9533763957896495
42
0.15922902792390312
10
0.74087965230908781
20
7.9277470666322198
10
0.10000000012877576
20
7.5577350269274142
42
-0.26794919243192045
10
-0.099999999871274059
20
7.5577350269274142
10
-0.7408796520519445
20
7.9277470666320937
42
0.15922902793337138
10
-0.8624406687744135
20
7.9533763957673127
42
0.088140608766292289
10
-3.5492095918554316
20
7.1695963116687009
42
-0.32172475938670814
10
-5.8507255522250166
20
7.5477818272101969
10
-9.4642135622440851
20
11.161269837229039
42
-0.19891236737970577
10
-10.049999999870654
20
12.575483399602092
10
-10.04999999987108
20
16.300000000008481
42
-0.41421356237309503
10
-9.8499999998711019
20
16.500000000008459
10
-5.199999999871352
20
16.500000000008583
42
0.41421356237559237
10
-4.9999999998706812
20
16.700000000008686
10
-4.9999999998712497
20
20.700000000008743
42
0.41421356237143014
10
-5.299999999871261
20
21.000000000008807
10
-5.7999999998713747
20
21.00000000000847
10
-5.7999999998713747
20
22.000000000008697
42
0.41421356237309503
10
-6.2999999998714884
20
22.50000000000842
10
-19.499999999871136
20
22.500000000008527
42
0.41421356237295631
10
-22.499999999870841
20
19.500000000008697
10
-22.499999999870397
20
6.300000000008481
42
0.41421356237326151
10
-21.999999999871136
20
5.800000000008918
10
-20.999999999871193
20
5.8000000000086516
10
-20.999999999871193
20
5.3000000000085379
42
0.4142135623711527
10
-20.699999999871466
20
5.0000000000084732
10
-16.699999999871409
20
5.0000000000085265
42
0.41421356237684104
10
-16.499999999870898
20
5.2000000000086288
10
-16.499999999872319
20
9.8500000000083787
42
-0.4142135623743437
10
-16.299999999871488
20
10.050000000008357
10
-12.575483399465384
20
10.050000000007826
42
-0.19891236738003207
10
-11.16126983709194
20
9.4642135623814667
10
-7.5477818270729209
20
5.8507255523628636
42
-0.32172475938681377
10
-7.1695963115308405
20
3.5492095919927453
42
0.08814060876733408
10
-7.9533763956390668
20
0.86244066891253635
42
0.15922902791740318
10
-7.9277470664956446
20
0.74087965218940011
10
-7.5577350267902936
20
0.10000000000813458
42
-0.26794919242958476
10
-7.5577350267904153
20
-0.099999999991293567
10
-7.9277470664959537
20
-0.74087965217216833
42
0.15922902793307642
10
-7.9533763956300536
20
-0.86244066889505266
42
0.088140608767384984
10
-7.1695963115305092
20
-3.5492095919760711
42
-0.32172475938673917
10
-7.547781827073063
20
-5.8507255523456685
10
-11.161269837091165
20
-9.4642135623651917
42
-0.19891236737977064
10
-12.575483399465384
20
-10.049999999991037
10
-16.299999999871488
20
-10.049999999991428
42
-0.41421356237517615
10
-16.499999999871875
20
-9.8499999999913257
10
-16.499999999871306
20
-5.1999999999915758
42
0.41421356237600859
10
-16.699999999871409
20
-4.9999999999919176
10
-20.699999999871466
20
-4.9999999999914735
42
0.41421356237309503
10
-20.999999999871211
20
-5.2999999999914849
10
-20.999999999871193
20
-5.7999999999913143
10
-21.999999999871136
20
-5.7999999999913143
42
0.41421356237309503
10
-22.499999999870859
20
-6.299999999991428
10
-22.499999999870397
20
-19.49999999999136
42
0.41421356237301177
10
-19.499999999871136
20
-22.499999999991473
10
-6.2999999998714884
20
-22.499999999991758
42
0.414213562373761
10
-5.7999999998717655
20
-21.99999999999136
10
-5.7999999998713747
20
-20.999999999991417
10
-5.299999999871261
20
-20.999999999991417
42
0.41421356237309503
10
-4.9999999998715161
20
-20.699999999991405
10
-4.999999999870397
20
-16.699999999991348
42
0.41421356237309503
10
-5.199999999871352
20
-16.499999999990926
10
-9.8499999998711019
20
-16.499999999991655
42
-0.4142135623743437
10
-10.049999999870192
20
-16.299999999991712
10
-10.049999999870655
20
-12.575483399585607
42
-0.19891236737975795
10
-9.4642135622438026
20
-11.16126983721227
10
-5.8507255522250183
20
-7.5477818271928596
42
-0.32172475938661516
10
-3.5492095918560373
20
-7.1695963116510653
42
0.088140608766484663
10
-0.86244066877270376
20
-7.9533763957306167
42
0.15922902791983687
10
-0.74087965205196471
20
-7.9277470666155736
10
-0.09999999987117604
20
-7.5577350269108194
42
-0.2679491924323027
10
0.10000000012867659
20
-7.5577350269108177
10
0.74087965231001363
20
-7.9277470666156091
42
0.15922902792942326
10
0.86244066903243621
20
-7.9533763957509693
42
0.088140608765690728
10
3.5492095921136579
20
-7.1695963116512207
42
-0.32172475938639883
10
5.8507255524830342
20
-7.5477818271923436
10
9.4642135625014667
20
-11.161269837212391
42
-0.19891236737996684
10
10.050000000128936
20
-12.575483399585607
10
10.050000000128581
20
-16.299999999991712
42
-0.41421356237309503
10
9.8500000001286026
20
-16.49999999999169
10
5.2000000001285684
20
-16.49999999999153
42
0.41421356237309503
10
5.0000000001281464
20
-16.699999999991348
10
5.000000000129603
20
-20.699999999991405
42
0.41421356237337253
10
5.3000000001284775
20
-20.999999999991434
10
5.8000000001285912
20
-20.999999999991417
10
5.8000000001300123
20
-21.99999999999136
42
0.41421356237342799
10
6.3000000001284207
20
-22.499999999991651
10
14.700008095029489
20
-22.499999999991473
42
0.41421356235700096
10
15.000008095029074
20
-22.200000000008515
10
15.00000809498399
20
-21.799928684194754
42
-0.41421356237337253
10
15.300007870862373
20
-21.49992890831836
10
29.700008319061624
20
-21.499928908363426
42
-0.41421356237420498
10
30.000008094938426
20
-21.799928684241365
10
30.000008094959014
20
-22.200000000031821
42
0.41421356229040479
10
30.300008094890529
20
-22.500000000015525
10
38.700016189791313
20
-22.50000000004178
42
0.41421356237259555
10
39.200016189793345
20
-22.000000000043372
10
39.200016189795974
20
-21.000000000043428
10
39.700016189796088
20
-21.000000000044849
42
0.41421356237198514
10
40.000016189796725
20
-20.700000000045691
10
40.000016189809742
20
-16.700000000045634
42
0.41421356237475992
10
39.800016189810776
20
-16.500000000045407
10
35.150016189810742
20
-16.500000000031925
42
-0.41421356237101392
10
34.950016189811741
20
-16.300000000031503
10
34.950016189822541
20
-12.575483399624261
42
-0.19891236737920939
10
35.535802627453407
20
-11.161269837253498
10
39.149290637484114
20
-7.5477818272454424
42
-0.3217247593868206
10
41.45080659785549
20
-7.1695963117107828
42
0.08814060876541821
10
44.137575520933026
20
-7.9533763958296566
42
0.15922902791471827
10
44.259136537656964
20
-7.9277470666844172
10
44.900016189838325
20
-7.5577350269813781
42
-0.26794919242962995
10
45.100016189837781
20
-7.5577350269819066
10
45.740895842018858
20
-7.9277470666883687
42
0.15922902792941657
10
45.862456858739449
20
-7.9533763958252068
42
0.088140608765879203
10
48.549225781823857
20
-7.1695963117334847
42
-0.3217247593866514
10
50.850741742191936
20
-7.5477818272821038
10
54.464229752199202
20
-11.161269837312457
42
-0.19891236737980689
10
55.0500161898225
20
-12.575483399687641
10
55.050016189811402
20
-16.30000000009403
42
-0.41421356237559237
10
54.850016189810162
20
-16.500000000093564
10
50.200016189810128
20
-16.500000000079353
42
0.41421356237600859
10
50.000016189809045
20
-16.700000000078887
10
50.00001618979752
20
-20.700000000078376
42
0.41421356237392748
10
50.300016189796395
20
-21.000000000079257
10
50.800016189796224
20
-21.000000000080945
10
50.800016189793666
20
-22.000000000080888
42
0.41421356237242907
10
51.300016189791222
20
-22.500000000082192
10
64.500016189791722
20
-22.500000000123634
42
0.41421356237298407
10
67.500016189799794
20
-19.500000000132616
10
67.50001618984129
20
-6.3000000001326839
42
0.41421356237292856
10
67.00001618984345
20
-5.8000000001309715
10
66.000016189843507
20
-5.8000000001277385
10
66.00001618984578
20
-5.3000000001279091
42
0.41421356237503743
10
65.700016189846053
20
-5.0000000001266187
10
61.700016189845996
20
-5.0000000001145395
42
0.41421356237351126
10
61.500016189845006
20
-5.2000000001143576
10
61.500016189830987
20
-9.8500000001143917
42
-0.41421356237101392
10
61.300016189831013
20
-10.050000000112949
10
57.575499589424055
20
-10.050000000101315
42
-0.19891236737955967
10
56.161286027053812
20
-9.4642135624697836
10
52.547798017046119
20
-5.850725552439286
42
-0.32172475938677114
10
52.169612501510926
20
-3.5492095920688187
42
0.08814060876662369
10
52.953392585628542
20
-0.86244066899181515
42
0.15922902791643451
10
52.927763256484859
20
-0.74087965226723052
10
52.557751216780204
20
-0.10000000008607099
42
-0.26794919242830201
10
52.557751216780801
20
0.099999999914306942
10
52.927763256487879
20
0.7408796520934402
42
0.15922902793707211
10
52.953392585623853
20
0.86244066881643544
42
0.088140608766842626
10
52.169612501533358
20
3.5492095918998512
42
-0.32172475938674627
10
52.54779801708321
20
5.8507255522677637
10
56.161286027112538
20
9.464213562275491
42
-0.1989123673797456
10
57.57549958948772
20
10.049999999897654
10
61.30001618989354
20
10.0499999998876
42
-0.41421356237309503
10
61.500016189893273
20
9.8499999998855969
10
61.500016189878863
20
5.1999999998855628
42
0.41421356237143014
10
61.700016189877829
20
4.9999999998853006
10
65.700016189877886
20
4.9999999998726707
42
0.41421356237531493
10
66.000016189880185
20
5.2999999998718295
10
66.000016189880739
20
5.7999999998722274
10
67.000016189880682
20
5.7999999998688168
42
0.41421356237326151
10
67.500016189883283
20
6.2999999998672251
10
67.500016189923144
20
19.499999999867441
42
0.41421356237326151
10
64.500016189931557
20
22.49999999987649
10
51.300016189932762
20
22.499999999917293
42
0.41421356237192958
10
50.800016189931299
20
21.999999999920021
10
50.800016189927817
20
20.999999999918657
10
50.300016189927703
20
20.999999999920931
42
0.41421356237281759
10
50.000016189927067
20
20.699999999920919
10
50.000016189914334
20
16.699999999920863
42
0.41421356237475992
10
50.200016189914152
20
16.499999999920192
10
54.850016189913902
20
16.499999999907402
42
-0.4142135623743437
10
55.050016189913435
20
16.299999999907016
10
55.050016189901584
20
12.575483399500342
42
-0.19891236737963769
10
54.46422975226924
20
11.161269837128735
10
50.850741742239514
20
7.5477818271208399
42
-0.32172475938674089
10
48.549225781869119
20
7.1695963115862407
42
0.088140608766579837
10
45.862456858789365
20
7.953376395684959
42
0.15922902792150537
10
45.740895842068063
20
7.9277470665601335
10
45.100016189885551
20
7.5577350268560464
42
-0.26794919243349286
10
44.900016189885818
20
7.5577350268572951
10
44.259136537705785
20
7.9277470665638816
42
0.15922902792946286
10
44.137575520983376
20
7.9533763956992098
42
0.08814060876612087
10
41.450806597900112
20
7.1695963116088759
42
-0.32172475938661993
10
39.149290637531692
20
7.5477818271574435
10
35.535802627524411
20
11.161269837188083
42
-0.1989123673798609
10
34.950016189901696
20
12.575483399564291
10
34.950016189912638
20
16.299999999968406
42
-0.4142135623743437
10
35.150016189913913
20
16.499999999968828
10
39.800016189914231
20
16.499999999955151
42
0.41421356237475992
10
40.000016189914902
20
16.6999999999544
10
40.000016189927123
20
20.699999999954173
42
0.41421356237309503
10
39.700016189927965
20
20.999999999955499
10
39.200016189927851
20
20.999999999956458
10
39.200016189930693
20
21.999999999956401
42
0.41421356237309503
10
38.700016189932285
20
22.499999999958273
10
30.300008095029796
20
22.499999999984368
42
0.41421356235616852
10
30.000008095029607
20
22.200000000000841
10
30.000008095006958
20
21.799980987581478
42
-0.41421356237254009
10
29.700008319129267
20
21.499981211704355
10
15.300007870929448
20
21.499981211704355
42
-0.41421356237254009
10
15.000008095051758
20
21.799980987581478
0
LWPOLYLINE
5
101
100
AcDbEntity
8
0
100
AcDbPolyline
90
20
70
1
43
0.0
10
34.500011751119331
20
-9.3029786709559019
42
0.18267538026040822
10
33.500016189878124
20
-11.948724948916265
10
33.500016189871417
20
-13.747672811271912
42
-0.29821628789740118
10
30.500021892981877
20
-18.33024601716096
42
-0.2087128018915789
10
14.499994296922175
20
-18.330246017092861
42
-0.29821628789752797
10
11.500000000070116
20
-13.747672811178688
10
11.500000000078785
20
-11.948724948823326
42
0.18267538026060537
10
10.500004438858817
20
-9.3029786708550901
42
-0.18267538027096775
10
10.000007594995157
20
-7.9801080102913602
10
10.000007594995051
20
7.9801603137084944
42
-0.18267538026101068
10
10.500004438898094
20
9.3030309743756323
42
0.18267538026042254
10
11.500000000129145
20
11.948777252339653
10
11.500000000129356
20
13.747725114695584
42
-0.2982162878974462
10
14.499994296999265
20
18.330298320596821
42
-0.20871280189103947
10
30.500021893059419
20
18.33029832059739
42
-0.29821628789746024
10
33.500016189929354
20
13.747725114695584
10
33.50001618992934
20
11.948777252339653
42
0.18267538026066088
10
34.500011751159725
20
9.3030309743758792
42
-0.18267538028446928
10
35.000008595029243
20
7.9801603137084944
10
35.000008595028717
20
-7.9801080102853907
42
-0.18267538026244914
0
LWPOLYLINE
5
102
100
AcDbEntity
8
0
100
AcDbPolyline
90
12
70
1
43
0.0
10
55.500016189807866
20
-18.000000000094865
42
0.41421356237201284
10
56.5000161898082
20
-17.000000000098225
10
56.500016189823214
20
-12.500000000098339
42
-0.41421356237334478
10
57.500016189826226
20
-11.500000000100723
10
62.000016189829807
20
-11.500000000114596
42
0.41421356237209606
10
63.000016189829694
20
-10.500000000118064
10
63.000016189834696
20
-9.0000000001188596
42
-0.99999999999999989
10
66.000016189835151
20
-9.0000000001279545
10
66.000016189804398
20
-18.500000000120167
42
-0.41421356237406065
10
63.500016189795758
20
-21.000000000120558
10
54.000016189796156
20
-21.000000000089756
42
-0.99999999999999989
10
54.000016189805251
20
-18.000000000089642
0
LWPOLYLINE
5
103
100
AcDbEntity
8
0
100
AcDbPolyline
90
12
70
1
43
0.0
10
-12.49999999987125
20
11.500000000008193
42
0.41421356237309503
10
-11.499999999870916
20
12.500000000008527
10
-11.499999999870738
20
17.000000000008697
42
-0.41421356237267881
10
-10.499999999871079
20
18.00000000000864
10
-8.9999999998713065
20
18.000000000008942
42
0.99999999999999989
10
-8.9999999998713065
20
21.00000000000847
10
-18.499999999871193
20
21.000000000008416
42
0.41421356237309503
10
-20.999999999871193
20
18.50000000000847
10
-20.999999999871193
20
9.0000000000085834
42
0.99999999999999989
10
-17.999999999871079
20
9.0000000000085834
10
-17.999999999871363
20
10.50000000000864
42
-0.41421356237251233
10
-16.999999999871136
20
11.500000000008583
0
LWPOLYLINE
5
104
100
AcDbEntity
8
0
100
AcDbPolyline
90
12
70
1
43
0.0
10
-11.499999999870916
20
-12.499999999991473
42
0.41421356237276202
10
-12.49999999987125
20
-11.499999999992276
10
-16.999999999871136
20
-11.499999999992099
42
-0.41421356237284529
10
-17.999999999871079
20
-10.499999999991303
10
-17.999999999871079
20
-8.9999999999915303
42
0.99999999999999989
10
-20.999999999871193
20
-8.9999999999915303
10
-20.999999999870695
20
-18.499999999991417
42
0.41421356237309503
10
-18.499999999871193
20
-20.999999999991417
10
-8.9999999998713065
20
-20.999999999990749
42
0.99999999999999989
10
-8.9999999998713065
20
-17.999999999991303
10
-10.499999999871079
20
-17.99999999999244
42
-0.41421356237284529
10
-11.499999999871306
20
-16.99999999999136
0
LWPOLYLINE
5
105
100
AcDbEntity
8
0
100
AcDbPolyline
90
12
70
1
43
0.0
10
63.000016189895632
20
10.499999999885006
42
0.41421356237226259
10
62.000016189898588
20
11.499999999884896
10
57.500016189898417
20
11.499999999898805
42
-0.41421356237342799
10
56.500016189901245
20
12.499999999901661
10
56.500016189915243
20
16.999999999904389
42
0.41421356237226259
10
55.500016189918142
20
17.999999999904723
10
54.000016189917801
20
17.999999999909733
42
-0.99999999999999989
10
54.000016189928033
20
20.999999999909846
10
63.500016189920245
20
20.999999999880394
42
-0.41421356237386087
10
66.000016189919222
20
18.499999999872045
10
66.000016189888967
20
8.9999999998710223
42
-0.99999999999999989
10
63.00001618989058
20
8.9999999998818225
0
LWPOLYLINE
5
106
100
AcDbEntity
8
0
100
AcDbPolyline
90
64
70
1
43
0.0
10
50.888774307687981
20
1.5913917900755206
42
0.064469789952393747
10
50.289280914083925
20
3.0386968714756186
42
0.44064875752162141
10
49.568946407046042
20
3.199199379543245
10
49.256455069364407
20
2.9803905892792675
42
-0.4029900256421568
10
48.982442720861769
20
3.0232894212827883
42
0.068136097401433934
10
48.023305611218461
20
3.9824265309253999
42
-0.40299002562950226
10
47.980406779226996
20
4.2564388794241381
10
48.199215569496573
20
4.5689302171042119
42
0.4406487575334313
10
48.038713061418122
20
5.289264724157416
42
0.06446978995216579
10
46.591407980016953
20
5.8887581177609549
42
0.44064875752085175
10
45.968562153514654
20
5.492897114964137
10
45.902318588950664
20
5.1172111916494067
42
-0.4029900256435075
10
45.678228544186943
20
4.9537892569135007
42
0.068136097400850165
10
44.321803835554505
20
4.9537892569061457
42
-0.40299002562530334
10
44.097713790796433
20
5.117211191652018
10
44.031470226243613
20
5.4928971149711581
42
0.44064875753466237
10
43.408624399721759
20
5.8887581177754997
42
0.064469789951576512
10
41.961319318325032
20
5.2892647241607822
42
0.4406487575205093
10
41.800816810256265
20
4.5689302171220447
10
42.019625600514303
20
4.2564388794371002
42
-0.40299002564336167
10
41.976726768513643
20
3.9824265309431044
42
0.068136097400051943
10
41.017589658875401
20
3.0232894212944963
42
-0.40299002563056951
10
40.743577310376224
20
2.9803905893029992
10
40.431085972695897
20
3.1991993795725806
42
0.44064875753556193
10
39.71075146564165
20
3.0386968714937632
42
0.064469789950948472
10
39.111258072039391
20
1.5913917900930172
42
0.44064875752115423
10
39.507119074835941
20
0.96854596359179368
10
39.882804998151464
20
0.90230239903143394
42
-0.40299002564263942
10
40.046226932891464
20
0.67821235426237614
42
0.068136097399444318
10
40.046226932894136
20
-0.67821235436992244
42
-0.40299002562598296
10
39.882804998147208
20
-0.90230239912898469
10
39.507119074827635
20
-0.96854596368012613
42
0.44064875753560495
10
39.111258072034282
20
-1.5913917901997516
42
0.064469789950695036
10
39.710751465638822
20
-3.0386968715992024
42
0.44064875752089216
10
40.431085972677465
20
-3.1991993796674478
10
40.743577310356116
20
-2.9803905893989779
42
-0.40299002564282171
10
41.017589658868587
20
-3.0232894214024912
42
0.06813609739937615
10
41.976726768505976
20
-3.9824265310485432
42
-0.40299002562587999
10
42.019625600497932
20
-4.2564388795477726
10
41.800816810226451
20
-4.5689302172275958
42
0.44064875753362653
10
41.961319318312967
20
-5.2892647242699322
42
0.064469789950915762
10
43.408624399706859
20
-5.8887581178861943
42
0.44064875752126476
10
44.031470226209137
20
-5.4928971150880557
10
44.097713790754618
20
-5.1172111917707337
42
-0.40299002564451686
10
44.321803835539129
20
-4.9537892570186459
42
0.068136097399947054
10
45.678228544169677
20
-4.953789257032188
42
-0.40299002562675235
10
45.902318588927358
20
-5.1172111917765051
10
45.968562153479347
20
-5.4928971150957917
42
0.44064875753436172
10
46.591407979996411
20
-5.8887581178797532
42
0.064469789951528564
10
48.038713061399385
20
-5.2892647242847088
42
0.44064875752120136
10
48.199215569467242
20
-4.568930217246816
10
47.980406779191696
20
-4.2564388795727979
42
-0.40299002564280795
10
48.023305611198793
20
-3.9824265310501779
42
0.068136097400746415
10
48.982442720850173
20
-3.0232894214191215
42
-0.40299002563028485
10
49.256455069347851
20
-2.9803905894269178
10
49.568946407027951
20
-3.1991993796970277
42
0.44064875753408461
10
50.289280914069288
20
-3.0386968716108633
42
0.06446978995213079
10
50.888774307685374
20
-1.5913917902161943
42
0.44064875752126503
10
50.492913304888134
20
-0.96854596371485968
10
50.117227381571311
20
-0.90230239916467769
42
-0.40299002564078062
10
49.953805446823608
20
-0.67821235438548944
42
0.068136097401363505
10
49.953805446831311
20
0.67821235424526005
42
-0.40299002563111225
10
50.117227381576868
20
0.90230239900421338
10
50.492913304895531
20
0.96854596355561373
42
0.44064875753516669
0
LWPOLYLINE
5
107
100
AcDbEntity
8
0
100
AcDbPolyline
90
64
70
1
43
0.0
10
-4.9537892568380819
20
0.67821235431572346
42
0.40299002564401154
10
-5.1172111915838814
20
0.90230239909074306
10
-5.4928971149024814
20
0.96854596364340706
42
-0.44064875753348509
10
-5.8887581177001556
20
1.5913917901655781
42
-0.064469789951987266
10
-5.2892647240936466
20
3.038696871544992
42
-0.44064875753473726
10
-4.5689302170464563
20
3.1991993796288964
10
-4.2564388793664421
20
2.9803905893609794
42
0.40299002565172198
10
-3.9824265308684708
20
3.0232894213722283
42
-0.068136097400740003
10
-3.0232894212192338
20
3.9824265309846174
42
0.4029900256472948
10
-2.9803905892231963
20
4.2564388795042447
10
-3.1991993794913909
20
4.5689302171850592
42
-0.44064875753135341
10
-3.0386968714158966
20
5.2892647242445587
42
-0.064469789951256823
10
-1.591391790025477
20
5.8887581178309265
42
-0.44064875753350335
10
-0.96854596350724731
20
5.4928971150396606
10
-0.90230239895277009
20
5.1172111917210827
42
0.40299002565184178
10
-0.67821235418062675
20
4.9537892569942032
42
-0.06813609739943155
10
0.67821235443396932
20
4.953789256959519
42
0.4029900256424786
10
0.90230239921059452
20
5.1172111917212266
10
0.96854596376427149
20
5.4928971150396952
42
-0.44064875753184857
10
1.5913917902877657
20
5.8887581178456223
42
-0.064469789950187137
10
3.0386968716653975
20
5.2892647242304278
42
-0.44064875753383281
10
3.1991993797488858
20
4.5689302171848638
10
2.9803905894797822
20
4.2564388795042873
42
0.40299002565034492
10
3.02328942149154
20
3.9824265310048217
42
-0.068136097398296319
10
3.9824265311067721
20
3.0232894213572465
42
0.40299002564009323
10
4.2564388796246284
20
2.9803905893604044
10
4.568930217305347
20
3.1991993796289413
42
-0.44064875753134125
10
5.2892647243561726
20
3.0386968715487965
42
-0.064469789949588033
10
5.8887581179511903
20
1.5913917901617578
42
-0.44064875753332561
10
5.4928971151600319
20
0.96854596364369749
10
5.1172111918413066
20
0.90230239909118382
42
0.40299002565091435
10
4.9537892570961626
20
0.6782123543166263
42
-0.068136097397839462
10
4.9537892570985784
20
-0.67821235429897686
42
0.40299002564523018
10
5.1172111918413847
20
-0.90230239907340715
10
5.4928971151592449
20
-0.9685459636281617
42
-0.44064875753314259
10
5.8887581179455442
20
-1.5913917901444234
42
-0.064469789949577666
10
5.2892647243517281
20
-3.0386968715283524
42
-0.44064875753382132
10
4.5689302173042101
20
-3.1991993796120526
10
4.256438879624227
20
-2.980390589343358
42
0.40299002564782088
10
3.9824265311051321
20
-3.0232894213395758
42
-0.068136097398393589
10
3.0232894214931685
20
-3.9824265309885303
42
0.40299002564658237
10
2.9803905894809595
20
-4.2564388794874075
10
3.1991993797497296
20
-4.5689302171679023
42
-0.44064875753121874
10
3.0386968716586527
20
-5.2892647242003559
42
-0.064469789950385811
10
1.5913917902836499
20
-5.8887581178138912
42
-0.44064875753329119
10
0.96854596376540458
20
-5.4928971150218739
10
0.90230239921140765
20
-5.1172111917048824
42
0.40299002565319364
10
0.67821235443381611
20
-4.9537892569420636
42
-0.068136097399696574
10
-0.67821235418131021
20
-4.9537892569766342
42
0.40299002564330189
10
-0.90230239895297837
20
-5.1172111917048468
10
-0.96854596350686062
20
-5.4928971150221084
42
-0.44064875753157906
10
-1.591391790021025
20
-5.8887581177999433
42
-0.064469789951462186
10
-3.0386968714083946
20
-5.2892647242138846
42
-0.44064875753354554
10
-3.1991993794918421
20
-4.5689302171679733
10
-2.9803905892231342
20
-4.2564388794872343
42
0.40299002565424785
10
-3.0232894212198538
20
-3.9824265309685334
42
-0.06813609740092047
10
-3.9824265308669169
20
-3.023289421353708
42
0.40299002564384712
10
-4.2564388793672254
20
-2.9803905893430525
10
-4.5689302170466526
20
-3.1991993796121321
42
-0.44064875753218585
10
-5.2892647240888904
20
-3.0386968715255094
42
-0.064469789952105436
10
-5.8887581176934534
20
-1.5913917901457464
42
-0.44064875753324223
10
-5.4928971149025418
20
-0.96854596362686407
10
-5.1172111915838059
20
-0.90230239907384657
42
0.40299002565353831
10
-4.9537892568402899
20
-0.67821235429959104
42
-0.068136097401343423
0
LWPOLYLINE
5
108
100
AcDbEntity
8
0
100
AcDbPolyline
90
216
70
1
43
0.0
10
15.00000809500678
20
22.200000000024431
42
0.41421356235755807
10
14.700008095007036
20
22.500000000008257
10
6.3000000001284207
20
22.500000000008527
42
0.41421356237376489
10
5.800000000128291
20
22.000000000008697
10
5.8000000001285912
20
21.00000000000847
10
5.3000000001284775
20
21.00000000000847
42
0.41421356237310264
10
5.0000000001287335
20
20.700000000008743
10
5.0000000001287503
20
16.700000000008686
42
0.41421356237518103
10
5.2000000001285684
20
16.500000000008583
10
9.8500000001286026
20
16.500000000008903
42
-0.41421356237309503
10
10.050000000129025
20
16.300000000008481
10
10.050000000128314
20
12.575483399602092
42
-0.19891236737970577
10
9.4642135625016159
20
11.161269837228726
10
5.8507255524825208
20
7.5477818272096284
42
-0.3217247593865572
10
3.5492095921137623
20
7.1695963116685713
42
0.088140608765481132
10
0.86244066903565875
20
7.9533763957896495
42
0.15922902792389776
10
0.74087965230908781
20
7.9277470666322198
10
0.10000000012877576
20
7.5577350269274142
42
-0.26794919243192045
10
-0.099999999871274101
20
7.5577350269274142
10
-0.7408796520519445
20
7.9277470666320937
42
0.15922902793336433
10
-0.8624406687744135
20
7.9533763957673127
42
0.08814060876629197
10
-3.5492095918554316
20
7.1695963116687009
42
-0.32172475938670814
10
-5.8507255522250166
20
7.5477818272101969
10
-9.4642135622440851
20
11.161269837229039
42
-0.19891236737970577
10
-10.049999999870654
20
12.575483399602092
10
-10.04999999987108
20
16.300000000008481
42
-0.41421356237309503
10
-9.8499999998711019
20
16.500000000008459
10
-5.199999999871352
20
16.500000000008583
42
0.41421356237559726
10
-4.9999999998706821
20
16.700000000008686
10
-4.9999999998712497
20
20.700000000008743
42
0.41421356237143447
10
-5.299999999871261
20
21.000000000008811
10
-5.7999999998713747
20
21.00000000000847
10
-5.7999999998713747
20
22.000000000008697
42
0.41421356237309503
10
-6.2999999998714884
20
22.50000000000842
10
-19.499999999871136
20
22.500000000008527
42
0.41421356237295565
10
-22.499999999870841
20
19.500000000008697
10
-22.499999999870397
20
6.300000000008481
42
0.41421356237326218
10
-21.999999999871136
20
5.8000000000089171
10
-20.999999999871193
20
5.8000000000086516
10
-20.999999999871193
20
5.3000000000085379
42
0.4142135623711527
10
-20.699999999871466
20
5.0000000000084732
10
-16.699999999871409
20
5.0000000000085265
42
0.41421356237684592
10
-16.499999999870898
20
5.2000000000086288
10
-16.499999999872319
20
9.8500000000083787
42
-0.4142135623743437
10
-16.299999999871488
20
10.050000000008357
10
-12.575483399465384
20
10.050000000007826
42
-0.19891236738003207
10
-11.16126983709194
20
9.4642135623814667
10
-7.5477818270729209
20
5.8507255523628636
42
-0.32172475938681389
10
-7.1695963115308388
20
3.5492095919927436
42
0.088140608767334719
10
-7.953376395639066
20
0.86244066891253579
42
0.15922902791741567
10
-7.9277470664956446
20
0.74087965218939988
10
-7.5577350267902936
20
0.10000000000813458
42
-0.26794919242958476
10
-7.5577350267904153
20
-0.099999999991293595
10
-7.9277470664959537
20
-0.74087965217216833
42
0.15922902793308974
10
-7.9533763956300527
20
-0.86244066889505266
42
0.088140608767383943
10
-7.1695963115305066
20
-3.5492095919760782
42
-0.32172475938673822
10
-7.547781827073063
20
-5.8507255523456685
10
-11.161269837091165
20
-9.4642135623651917
42
-0.19891236737977064
10
-12.575483399465384
20
-10.049999999991037
10
-16.299999999871488
20
-10.049999999991428
42
-0.41421356237517615
10
-16.499999999871875
20
-9.8499999999913257
10
-16.499999999871306
20
-5.1999999999915758
42
0.41421356237600859
10
-16.699999999871409
20
-4.9999999999919176
10
-20.699999999871466
20
-4.9999999999914735
42
0.41421356237310264
10
-20.999999999871211
20
-5.2999999999914849
10
-20.999999999871193
20
-5.7999999999913143
10
-21.999999999871136
20
-5.7999999999913143
42
0.41421356237309503
10
-22.499999999870859
20
-6.299999999991428
10
-22.499999999870397
20
-19.49999999999136
42
0.41421356237301205
10
-19.499999999871136
20
-22.499999999991473
10
-6.2999999998714884
20
-22.499999999991758
42
0.41421356237376555
10
-5.7999999998717664
20
-21.99999999999136
10
-5.7999999998713747
20
-20.999999999991417
10
-5.299999999871261
20
-20.999999999991417
42
0.41421356237310264
10
-4.999999999871517
20
-20.699999999991405
10
-4.999999999870397
20
-16.699999999991348
42
0.41421356237309342
10
-5.199999999871352
20
-16.499999999990926
10
-9.8499999998711019
20
-16.499999999991655
42
-0.4142135623743437
10
-10.049999999870192
20
-16.299999999991712
10
-10.049999999870655
20
-12.575483399585607
42
-0.19891236737975795
10
-9.4642135622438026
20
-11.16126983721227
10
-5.8507255522250192
20
-7.5477818271928596
42
-0.32172475938661527
10
-3.5492095918560369
20
-7.1695963116510653
42
0.08814060876648426
10
-0.86244066877270464
20
-7.9533763957306158
42
0.1592290279198384
10
-0.74087965205196504
20
-7.9277470666155727
10
-0.09999999987117604
20
-7.5577350269108177
42
-0.26794919243230281
10
0.10000000012867676
20
-7.5577350269108177
10
0.74087965231001363
20
-7.9277470666156091
42
0.15922902792942076
10
0.8624406690324361
20
-7.9533763957509684
42
0.088140608765689993
10
3.5492095921136579
20
-7.1695963116512207
42
-0.32172475938639883
10
5.8507255524830342
20
-7.5477818271923436
10
9.4642135625014667
20
-11.161269837212391
42
-0.19891236737996684
10
10.050000000128936
20
-12.575483399585607
10
10.050000000128581
20
-16.299999999991712
42
-0.41421356237309503
10
9.8500000001286026
20
-16.49999999999169
10
5.2000000001285684
20
-16.49999999999153
42
0.41421356237309015
10
5.0000000001281473
20
-16.699999999991345
10
5.000000000129603
20
-20.699999999991405
42
0.41421356237337142
10
5.3000000001284775
20
-20.999999999991434
10
5.8000000001285912
20
-20.999999999991417
10
5.8000000001300123
20
-21.99999999999136
42
0.41421356237343127
10
6.3000000001284207
20
-22.499999999991655
10
14.700008095029489
20
-22.499999999991473
42
0.41421356235701179
10
15.000008095029072
20
-22.200000000008512
10
15.00000809498399
20
-21.799928684194754
42
-0.41421356237337253
10
15.300007870862373
20
-21.49992890831836
10
29.700008319061624
20
-21.499928908363426
42
-0.41421356237420498
10
30.000008094938426
20
-21.799928684241365
10
30.000008094959014
20
-22.200000000031821
42
0.41421356229040907
10
30.300008094890529
20
-22.500000000015529
10
38.700016189791313
20
-22.50000000004178
42
0.41421356237259815
10
39.200016189793352
20
-22.000000000043372
10
39.200016189795974
20
-21.000000000043428
10
39.700016189796088
20
-21.000000000044849
42
0.41421356237199813
10
40.000016189796725
20
-20.700000000045691
10
40.000016189809742
20
-16.700000000045634
42
0.41421356237474366
10
39.800016189810783
20
-16.500000000045404
10
35.150016189810742
20
-16.500000000031925
42
-0.41421356237101392
10
34.950016189811741
20
-16.300000000031503
10
34.950016189822541
20
-12.575483399624263
42
-0.19891236737920973
10
35.535802627453407
20
-11.161269837253496
10
39.149290637484107
20
-7.5477818272454424
42
-0.32172475938682055
10
41.45080659785549
20
-7.1695963117107819
42
0.08814060876541828
10
44.137575520933026
20
-7.9533763958296575
42
0.15922902791472218
10
44.259136537656964
20
-7.9277470666844154
10
44.900016189838325
20
-7.5577350269813781
42
-0.26794919242962856
10
45.100016189837781
20
-7.5577350269819039
10
45.740895842018858
20
-7.9277470666883687
42
0.15922902792942004
10
45.862456858739449
20
-7.9533763958252059
42
0.088140608765878301
10
48.549225781823857
20
-7.1695963117334855
42
-0.32172475938665129
10
50.850741742191936
20
-7.5477818272821038
10
54.464229752199202
20
-11.161269837312457
42
-0.19891236737980689
10
55.0500161898225
20
-12.575483399687641
10
55.050016189811402
20
-16.30000000009403
42
-0.41421356237559237
10
54.850016189810162
20
-16.500000000093564
10
50.200016189810128
20
-16.500000000079353
42
0.41421356237603463
10
50.000016189809045
20
-16.700000000078887
10
50.00001618979752
20
-20.700000000078376
42
0.41421356237394047
10
50.300016189796395
20
-21.000000000079254
10
50.800016189796224
20
-21.000000000080945
10
50.800016189793666
20
-22.000000000080888
42
0.41421356237243168
10
51.300016189791222
20
-22.500000000082196
10
64.500016189791722
20
-22.500000000123634
42
0.4142135623729854
10
67.500016189799794
20
-19.500000000132616
10
67.50001618984129
20
-6.3000000001326839
42
0.41421356237293699
10
67.00001618984345
20
-5.8000000001309751
10
66.000016189843507
20
-5.8000000001277385
10
66.00001618984578
20
-5.3000000001279091
42
0.41421356237503421
10
65.700016189846053
20
-5.0000000001266223
10
61.700016189845996
20
-5.0000000001145395
42
0.41421356237350965
10
61.500016189845006
20
-5.2000000001143576
10
61.500016189830987
20
-9.8500000001143917
42
-0.41421356237101392
10
61.300016189831013
20
-10.050000000112949
10
57.575499589424055
20
-10.050000000101315
42
-0.19891236737955967
10
56.161286027053812
20
-9.4642135624697836
10
52.547798017046119
20
-5.850725552439286
42
-0.32172475938677131
10
52.169612501510926
20
-3.5492095920688174
42
0.0881406087666219
10
52.953392585628549
20
-0.86244066899181204
42
0.15922902791650981
10
52.927763256484859
20
-0.74087965226723063
10
52.557751216780204
20
-0.1000000000860706
42
-0.26794919242830023
10
52.557751216780801
20
0.099999999914305429
10
52.927763256487879
20
0.7408796520934402
42
0.15922902793702229
10
52.95339258562386
20
0.86244066881643611
42
0.088140608766843848
10
52.169612501533358
20
3.5492095918998521
42
-0.32172475938674616
10
52.54779801708321
20
5.8507255522677664
10
56.161286027112538
20
9.464213562275491
42
-0.1989123673797456
10
57.57549958948772
20
10.049999999897654
10
61.30001618989354
20
10.0499999998876
42
-0.41421356237309503
10
61.500016189893273
20
9.8499999998855969
10
61.500016189878863
20
5.1999999998855628
42
0.41421356237143175
10
61.700016189877829
20
4.9999999998852998
10
65.700016189877886
20
4.9999999998726707
42
0.4142135623753127
10
66.000016189880185
20
5.2999999998718295
10
66.000016189880739
20
5.7999999998722274
10
67.000016189880682
20
5.7999999998688168
42
0.41421356237326412
10
67.500016189883283
20
6.2999999998672251
10
67.500016189923144
20
19.499999999867441
42
0.41421356237326151
10
64.500016189931557
20
22.49999999987649
10
51.300016189932762
20
22.499999999917293
42
0.41421356237194001
10
50.800016189931299
20
21.999999999920021
10
50.800016189927817
20
20.999999999918657
10
50.300016189927703
20
20.999999999920931
42
0.41421356237283924
10
50.000016189927067
20
20.699999999920919
10
50.000016189914334
20
16.699999999920863
42
0.41421356237477946
10
50.200016189914152
20
16.499999999920195
10
54.850016189913902
20
16.499999999907402
42
-0.4142135623743437
10
55.050016189913435
20
16.299999999907016
10
55.050016189901584
20
12.575483399500342
42
-0.19891236737963769
10
54.46422975226924
20
11.161269837128735
10
50.850741742239514
20
7.5477818271208417
42
-0.32172475938674111
10
48.549225781869119
20
7.1695963115862424
42
0.088140608766578699
10
45.862456858789365
20
7.953376395684959
42
0.15922902792147819
10
45.740895842068063
20
7.9277470665601353
10
45.100016189885551
20
7.5577350268560464
42
-0.26794919243349286
10
44.900016189885818
20
7.5577350268572951
10
44.259136537705785
20
7.9277470665638816
42
0.15922902792947285
10
44.137575520983376
20
7.9533763956992143
42
0.088140608766120301
10
41.450806597900112
20
7.1695963116088741
42
-0.32172475938661999
10
39.149290637531692
20
7.5477818271574426
10
35.535802627524411
20
11.161269837188083
42
-0.1989123673798609
10
34.950016189901696
20
12.575483399564291
10
34.950016189912638
20
16.299999999968406
42
-0.4142135623743437
10
35.150016189913913
20
16.499999999968828
10
39.800016189914231
20
16.499999999955151
42
0.41421356237475671
10
40.000016189914902
20
16.6999999999544
10
40.000016189927123
20
20.699999999954173
42
0.41421356237308637
10
39.700016189927965
20
20.999999999955499
10
39.200016189927851
20
20.999999999956458
10
39.200016189930693
20
21.999999999956401
42
0.41421356237309243
10
38.700016189932285
20
22.499999999958277
10
30.300008095029796
20
22.499999999984368
42
0.41421356235616852
10
30.000008095029607
20
22.200000000000841
10
30.000008095006958
20
21.799980987581478
42
-0.41421356237254009
10
29.700008319129267
20
21.499981211704355
10
15.300007870929448
20
21.499981211704355
42
-0.41421356237254009
10
15.000008095051758
20
21.799980987581478
0
LWPOLYLINE
5
109
100
AcDbEntity
8
0
100
AcDbPolyline
90
20
70
1
43
0.0
10
34.500011751119331
20
-9.3029786709559037
42
0.1826753802604083
10
33.500016189878124
20
-11.948724948916267
10
33.500016189871417
20
-13.747672811271912
42
-0.29821628789740012
10
30.500021892981884
20
-18.33024601716096
42
-0.2087128018915789
10
14.499994296922177
20
-18.330246017092865
42
-0.29821628789752741
10
11.500000000070116
20
-13.747672811178687
10
11.500000000078785
20
-11.948724948823326
42
0.18267538026060537
10
10.500004438858818
20
-9.3029786708550883
42
-0.18267538027096991
10
10.000007594995157
20
-7.9801080102913602
10
10.000007594995052
20
7.9801603137084953
42
-0.18267538026100977
10
10.500004438898094
20
9.3030309743756323
42
0.18267538026042254
10
11.500000000129145
20
11.948777252339653
10
11.50000000012936
20
13.747725114695584
42
-0.29821628789744586
10
14.499994296999258
20
18.330298320596818
42
-0.20871280189103911
10
30.500021893059412
20
18.330298320597393
42
-0.29821628789746052
10
33.500016189929354
20
13.747725114695585
10
33.50001618992934
20
11.948777252339653
42
0.18267538026066088
10
34.500011751159732
20
9.303030974375881
42
-0.182675380284471
10
35.000008595029243
20
7.9801603137084953
10
35.000008595028717
20
-7.9801080102853916
42
-0.18267538026244787
0
LWPOLYLINE
5
110
100
AcDbEntity
8
0
100
AcDbPolyline
90
12
70
1
43
0.0
10
55.500016189807866
20
-18.000000000094865
42
0.41421356237201284
10
56.5000161898082
20
-17.000000000098225
10
56.500016189823214
20
-12.500000000098339
42
-0.41421356237334345
10
57.500016189826226
20
-11.500000000100723
10
62.000016189829807
20
-11.500000000114596
42
0.41421356237209606
10
63.000016189829694
20
-10.500000000118064
10
63.000016189834696
20
-9.0000000001188685
42
-0.99999999999999989
10
66.000016189835151
20
-9.0000000001279545
10
66.000016189804398
20
-18.500000000120167
42
-0.4142135623740586
10
63.500016189795758
20
-21.000000000120558
10
54.000016189796156
20
-21.000000000089756
42
-0.99999999999999989
10
54.000016189805251
20
-18.000000000089642
0
LWPOLYLINE
5
111
100
AcDbEntity
8
0
100
AcDbPolyline
90
12
70
1
43
0.0
10
-12.49999999987125
20
11.500000000008193
42
0.41421356237309631
10
-11.499999999870916
20
12.500000000008527
10
-11.499999999870738
20
17.000000000008697
42
-0.41421356237267881
10
-10.499999999871079
20
18.00000000000864
10
-8.9999999998713065
20
18.000000000008942
42
0.99999999999999989
10
-8.9999999998713065
20
21.00000000000847
10
-18.499999999871193
20
21.000000000008416
42
0.41421356237309398
10
-20.999999999871193
20
18.50000000000847
10
-20.999999999871193
20
9.0000000000085834
42
0.99999999999999989
10
-17.999999999871079
20
9.0000000000085834
10
-17.999999999871363
20
10.50000000000864
42
-0.41421356237251233
10
-16.999999999871136
20
11.500000000008583
0
LWPOLYLINE
5
112
100
AcDbEntity
8
0
100
AcDbPolyline
90
12
70
1
43
0.0
10
-11.499999999870916
20
-12.499999999991473
42
0.41421356237276202
10
-12.49999999987125
20
-11.499999999992276
10
-16.999999999871136
20
-11.499999999992099
42
-0.41421356237284529
10
-17.999999999871079
20
-10.499999999991303
10
-17.999999999871079
20
-8.9999999999915303
42
0.99999999999999989
10
-20.999999999871193
20
-8.9999999999915303
10
-20.999999999870695
20
-18.499999999991417
42
0.41421356237309659
10
-18.499999999871193
20
-20.999999999991417
10
-8.9999999998713065
20
-20.999999999990749
42
0.99999999999999989
10
-8.9999999998713065
20
-17.999999999991303
10
-10.499999999871079
20
-17.99999999999244
42
-0.41421356237284529
10
-11.499999999871306
20
-16.99999999999136
0
LWPOLYLINE
5
113
100
AcDbEntity
8
0
100
AcDbPolyline
90
12
70
1
43
0.0
10
63.000016189895632
20
10.499999999885006
42
0.41421356237226259
10
62.000016189898588
20
11.499999999884896
10
57.500016189898417
20
11.499999999898801
42
-0.4142135623734241
10
56.500016189901245
20
12.499999999901661
10
56.500016189915243
20
16.999999999904389
42
0.41421356237226259
10
55.500016189918142
20
17.999999999904723
10
54.000016189917801
20
17.999999999909733
42
-0.99999999999999989
10
54.000016189928033
20
20.999999999909846
10
63.500016189920245
20
20.999999999880394
42
-0.41421356237386087
10
66.000016189919222
20
18.499999999872045
10
66.000016189888967
20
8.9999999998710312
42
-0.99999999999999989
10
63.00001618989058
20
8.9999999998818225
0
LWPOLYLINE
5
114
100
AcDbEntity
8
0
100
AcDbPolyline
90
64
70
1
43
0.0
10
50.888774307687981
20
1.591391790075519
42
0.064469789952398895
10
50.289280914083925
20
3.038696871475616
42
0.44064875752161858
10
49.568946407046042
20
3.199199379543245
10
49.256455069364407
20
2.9803905892792715
42
-0.40299002564216763
10
48.982442720861769
20
3.023289421282787
42
0.068136097401433629
10
48.023305611218461
20
3.9824265309253999
42
-0.40299002562950326
10
47.980406779226996
20
4.2564388794241381
10
48.199215569496573
20
4.5689302171042119
42
0.44064875753344512
10
48.038713061418115
20
5.2892647241574178
42
0.064469789952165471
10
46.591407980016953
20
5.8887581177609549
42
0.44064875752085586
10
45.968562153514654
20
5.492897114964137
10
45.902318588950664
20
5.1172111916494112
42
-0.40299002564351394
10
45.678228544186943
20
4.9537892569135007
42
0.068136097400850262
10
44.321803835554505
20
4.9537892569061457
42
-0.40299002562530334
10
44.097713790796433
20
5.117211191652018
10
44.031470226243613
20
5.4928971149711536
42
0.44064875753466348
10
43.408624399721759
20
5.8887581177754988
42
0.064469789951579579
10
41.961319318325032
20
5.2892647241607822
42
0.44064875752050914
10
41.800816810256265
20
4.5689302171220447
10
42.019625600514303
20
4.2564388794371002
42
-0.40299002564336367
10
41.976726768513643
20
3.9824265309431022
42
0.068136097400050277
10
41.017589658875401
20
3.0232894212944967
42
-0.40299002563057013
10
40.743577310376224
20
2.9803905893029992
10
40.431085972695897
20
3.1991993795725806
42
0.44064875753556981
10
39.710751465641643
20
3.0386968714937614
42
0.064469789950944101
10
39.111258072039391
20
1.5913917900930175
42
0.44064875752114896
10
39.507119074835941
20
0.96854596359179368
10
39.882804998151464
20
0.90230239903143394
42
-0.40299002564264064
10
40.046226932891464
20
0.67821235426237547
42
0.068136097399444734
10
40.046226932894136
20
-0.67821235436992211
42
-0.40299002562598335
10
39.882804998147208
20
-0.90230239912898469
10
39.507119074827635
20
-0.96854596368012613
42
0.44064875753559973
10
39.111258072034275
20
-1.5913917901997523
42
0.064469789950694037
10
39.710751465638822
20
-3.0386968715992051
42
0.440648757520885
10
40.431085972677465
20
-3.1991993796674478
10
40.743577310356123
20
-2.9803905893989797
42
-0.40299002564282499
10
41.017589658868587
20
-3.0232894214024943
42
0.068136097399373444
10
41.976726768505976
20
-3.9824265310485423
42
-0.40299002562588104
10
42.019625600497932
20
-4.2564388795477726
10
41.800816810226451
20
-4.5689302172275967
42
0.44064875753363414
10
41.961319318312967
20
-5.2892647242699304
42
0.06446978995091357
10
43.408624399706859
20
-5.8887581178861943
42
0.44064875752125565
10
44.031470226209137
20
-5.4928971150880557
10
44.097713790754618
20
-5.1172111917707284
42
-0.40299002564450975
10
44.321803835539129
20
-4.9537892570186468
42
0.068136097399946235
10
45.678228544169677
20
-4.953789257032188
42
-0.40299002562675246
10
45.902318588927358
20
-5.1172111917765051
10
45.968562153479347
20
-5.4928971150957917
42
0.44064875753435861
10
46.591407979996411
20
-5.8887581178797515
42
0.064469789951530548
10
48.038713061399385
20
-5.2892647242847088
42
0.44064875752121718
10
48.199215569467242
20
-4.568930217246816
10
47.980406779191711
20
-4.2564388795727952
42
-0.40299002564280367
10
48.023305611198793
20
-3.9824265310501792
42
0.068136097400741114
10
48.982442720850173
20
-3.0232894214191215
42
-0.40299002563028485
10
49.256455069347851
20
-2.9803905894269178
10
49.568946407027958
20
-3.1991993796970286
42
0.44064875753408356
10
50.289280914069288
20
-3.0386968716108598
42
0.064469789952131443
10
50.888774307685374
20
-1.5913917902161943
42
0.44064875752126609
10
50.492913304888134
20
-0.96854596371485968
10
50.117227381571311
20
-0.9023023991646778
42
-0.40299002564078179
10
49.953805446823608
20
-0.67821235438548855
42
0.068136097401359549
10
49.953805446831311
20
0.67821235424525583
42
-0.40299002563111824
10
50.117227381576868
20
0.90230239900421338
10
50.492913304895531
20
0.96854596355561373
42
0.44064875753515498
0
LWPOLYLINE
5
115
100
AcDbEntity
8
0
100
AcDbPolyline
90
64
70
1
43
0.0
10
-4.9537892568380819
20
0.67821235431572346
42
0.40299002564401154
10
-5.1172111915838814
20
0.90230239909074306
10
-5.4928971149024814
20
0.96854596364340617
42
-0.44064875753348665
10
-5.8887581177001556
20
1.5913917901655732
42
-0.0644697899519866
10
-5.2892647240936475
20
3.0386968715449907
42
-0.44064875753473681
10
-4.5689302170464563
20
3.1991993796288964
10
-4.2564388793664421
20
2.9803905893609794
42
0.40299002565172176
10
-3.9824265308684703
20
3.0232894213722314
42
-0.06813609740073967
10
-3.0232894212192334
20
3.9824265309846179
42
0.40299002564729364
10
-2.9803905892231963
20
4.2564388795042447
10
-3.1991993794913909
20
4.5689302171850592
42
-0.44064875753135296
10
-3.0386968714158957
20
5.2892647242445605
42
-0.064469789951256601
10
-1.5913917900254755
20
5.8887581178309283
42
-0.44064875753350102
10
-0.96854596350724709
20
5.4928971150396606
10
-0.90230239895277009
20
5.1172111917210827
42
0.40299002565184178
10
-0.6782123541806242
20
4.9537892569942032
42
-0.068136097399431217
10
0.67821235443396855
20
4.953789256959519
42
0.40299002564247977
10
0.90230239921059452
20
5.1172111917212266
10
0.96854596376427249
20
5.4928971150396952
42
-0.4406487575318494
10
1.5913917902877637
20
5.8887581178456223
42
-0.064469789950188261
10
3.0386968716653984
20
5.289264724230426
42
-0.44064875753383326
10
3.1991993797488858
20
4.5689302171848638
10
2.9803905894797822
20
4.2564388795042873
42
0.40299002565034492
10
3.0232894214915378
20
3.9824265310048235
42
-0.068136097398294432
10
3.982426531106773
20
3.0232894213572461
42
0.40299002564009162
10
4.2564388796246284
20
2.9803905893604044
10
4.568930217305347
20
3.1991993796289409
42
-0.44064875753134031
10
5.2892647243561726
20
3.0386968715487961
42
-0.064469789949587575
10
5.8887581179511903
20
1.5913917901617585
42
-0.44064875753332566
10
5.4928971151600319
20
0.96854596364369749
10
5.1172111918413066
20
0.90230239909118382
42
0.40299002565091435
10
4.9537892570961617
20
0.67821235431662852
42
-0.068136097397839684
10
4.9537892570985775
20
-0.67821235429897819
42
0.40299002564522807
10
5.1172111918413847
20
-0.90230239907340715
10
5.4928971151592449
20
-0.96854596362816181
42
-0.44064875753314142
10
5.8887581179455397
20
-1.5913917901444308
42
-0.064469789949578887
10
5.2892647243517281
20
-3.0386968715283516
42
-0.44064875753382365
10
4.5689302173042101
20
-3.1991993796120521
10
4.256438879624227
20
-2.980390589343358
42
0.40299002564782155
10
3.9824265311051343
20
-3.0232894213395722
42
-0.068136097398395143
10
3.0232894214931672
20
-3.9824265309885303
42
0.40299002564658065
10
2.980390589480959
20
-4.2564388794874075
10
3.1991993797497305
20
-4.5689302171679014
42
-0.44064875753121907
10
3.0386968716586473
20
-5.2892647242003585
42
-0.064469789950384798
10
1.5913917902836483
20
-5.8887581178138912
42
-0.44064875753328903
10
0.96854596376540469
20
-5.4928971150218739
10
0.90230239921140765
20
-5.1172111917048824
42
0.40299002565319364
10
0.67821235443381422
20
-4.9537892569420636
42
-0.068136097399696116
10
-0.67821235418131176
20
-4.9537892569766342
42
0.40299002564330122
10
-0.90230239895297837
20
-5.1172111917048477
10
-0.96854596350686117
20
-5.4928971150221084
42
-0.44064875753158
10
-1.5913917900210284
20
-5.8887581177999433
42
-0.064469789951461964
10
-3.0386968714083933
20
-5.2892647242138846
42
-0.4406487575335471
10
-3.1991993794918421
20
-4.5689302171679733
10
-2.9803905892231342
20
-4.2564388794872343
42
0.40299002565424785
10
-3.023289421219852
20
-3.9824265309685369
42
-0.068136097400919804
10
-3.9824265308669178
20
-3.0232894213537094
42
0.40299002564384745
10
-4.2564388793672254
20
-2.980390589343052
10
-4.5689302170466526
20
-3.1991993796121321
42
-0.44064875753218585
10
-5.2892647240888859
20
-3.0386968715255107
42
-0.06446978995210477
10
-5.8887581176934525
20
-1.5913917901457475
42
-0.44064875753324434
10
-5.492897114902541
20
-0.96854596362686407
10
-5.1172111915838059
20
-0.90230239907384657
42
0.4029900256535387
10
-4.9537892568402899
20
-0.67821235429959326
42
-0.068136097401341966
0
ENDSEC
0
SECTION
2
OBJECTS
0
DICTIONARY
5
C
100
AcDbDictionary
3
ACAD_GROUP
350
D
3
ACAD_MLINESTYLE
350
17
0
DICTIONARY
5
D
100
AcDbDictionary
0
DICTIONARY
5
1A
330
C
100
AcDbDictionary
0
DICTIONARY
5
17
100
AcDbDictionary
0
ENDSEC
0
EOF
