0
SECTION
2
HEADER
9
$INSUNITS
70
4
9
$ACADVER
1
AC1014
9
$HANDSEED
5
FFFF
0
ENDSEC
0
SECTION
2
TABLES
0
TABLE
2
VPORT
5
8
100
AcDbSymbolTable
0
ENDTAB
0
TABLE
2
LTYPE
5
5
100
AcDbSymbolTable
0
LTYPE
5
14
100
AcDbSymbolTableRecord
100
AcDbLinetypeTableRecord
2
BYBLOCK
70
0
0
LTYPE
5
15
100
AcDbSymbolTableRecord
100
AcDbLinetypeTableRecord
2
BYLAYER
70
0
0
LTYPE
5
16
100
AcDbSymbolTableRecord
100
AcDbLinetypeTableRecord
2
DASHED
70
0
3
Dashed __ __ __ __ __ __ __ __ __ __ __ __ __ _
72
65
73
2
40
0.75
49
0.5
74
0
49
-0.25
74
0
0
ENDTAB
0
TABLE
2
LAYER
5
2
100
AcDbSymbolTable
70
3
0
LAYER
5
50
100
AcDbSymbolTableRecord
100
AcDbLayerTableRecord
2
1
70
0
62
7
6
DASHED
0
LAYER
5
51
100
AcDbSymbolTableRecord
100
AcDbLayerTableRecord
2
0
70
0
62
7
6
CONTINUOUS
0
ENDTAB
0
TABLE
2
STYLE
5
3
100
AcDbSymbolTable
70
1
0
STYLE
5
11
100
AcDbSymbolTableRecord
100
AcDbTextStyleTableRecord
2
STANDARD
70
0
0
ENDTAB
0
TABLE
2
VIEW
5
6
100
AcDbSymbolTable
70
0
0
ENDTAB
0
TABLE
2
UCS
5
7
100
AcDbSymbolTable
70
0
0
ENDTAB
0
TABLE
2
APPID
5
9
100
AcDbSymbolTable
70
2
0
APPID
5
12
100
AcDbSymbolTableRecord
100
AcDbRegAppTableRecord
2
ACAD
70
0
0
ENDTAB
0
TABLE
2
DIMSTYLE
5
A
100
AcDbSymbolTable
70
1
0
ENDTAB
0
TABLE
2
BLOCK_RECORD
5
1
100
AcDbSymbolTable
70
1
0
BLOCK_RECORD
5
1F
100
AcDbSymbolTableRecord
100
AcDbBlockTableRecord
2
*MODEL_SPACE
0
BLOCK_RECORD
5
1B
100
AcDbSymbolTableRecord
100
AcDbBlockTableRecord
2
*PAPER_SPACE
0
ENDTAB
0
ENDSEC
0
SECTION
2
BLOCKS
0
BLOCK
5
20
100
AcDbEntity
100
AcDbBlockBegin
2
*MODEL_SPACE
0
ENDBLK
5
21
100
AcDbEntity
100
AcDbBlockEnd
0
BLOCK
5
1C
100
AcDbEntity
100
AcDbBlockBegin
2
*PAPER_SPACE
0
ENDBLK
5
1D
100
AcDbEntity
100
AcDbBlockEnd
0
ENDSEC
0
SECTION
2
ENTITIES
0
LWPOLYLINE
5
100
100
AcDbEntity
8
0
100
AcDbPolyline
90
72
70
1
43
0.0
10
-19.499999999992497
20
22.500000000000568
42
0.41421356237309503
10
-22.49999999999261
20
19.500000000000455
10
-22.499999999993179
20
15
42
0.41421356237309503
10
15.000000000006821
20
-22.500000000001428
10
19.500000000007276
20
-22.5
42
0.41421356237309503
10
22.50000000000739
20
-19.500000000000455
10
22.500000000003411
20
-6.2999999999999545
42
0.41421356236710138
10
22.000000000007276
20
-5.8000000000021146
10
21.000000000007049
20
-5.8000000000004093
10
21.000000000007049
20
-5.2999999999997272
42
0.41421356237642482
10
20.700000000003911
20
-4.99999999999865
10
16.700000000004138
20
-5
42
0.41421356237642482
10
16.500000000006381
20
-5.1999999999998181
10
16.500000000005315
20
-9.8500000000001364
42
-0.41421356236810031
10
16.300000000002228
20
-10.049999999999812
10
12.575483399599534
20
-10.050000000001448
42
-0.19891236737915374
10
11.161269837226865
20
-9.464213562374443
10
7.5477818272037211
20
-5.8507255523562671
42
-0.32172475938800371
10
7.1695963116628594
20
-3.5492095919798947
42
0.088140608765877412
10
7.9533763957656962
20
-0.86244066890229143
42
0.15922902792923943
10
7.9277470666296317
20
-0.74087965218035612
10
7.5577350269250427
20
-0.099999999998441461
42
-0.26794919243801568
10
7.5577350269250427
20
0.099999999998442293
10
7.9277470666295358
20
0.74087965218041063
42
0.15922902794344448
10
7.9533763957629056
20
0.86244066890223348
42
0.088140608765998329
10
7.1695963116610484
20
3.5492095919835487
42
-0.32172475938744127
10
7.5477818272037203
20
5.8507255523562671
10
11.161269837226415
20
9.4642135623748906
42
-0.19891236737946699
10
12.575483399599534
20
10.050000000003081
10
16.300000000002228
20
10.050000000003223
42
-0.41421356237309503
10
16.500000000005315
20
9.8500000000001364
10
16.500000000003183
20
5.1999999999998181
42
0.41421356237975465
10
16.700000000004138
20
4.9999999999975122
10
20.700000000003911
20
5
42
0.4142135623697652
10
21.000000000006764
20
5.2999999999997272
10
21.000000000007049
20
5.8000000000004093
10
22.000000000007276
20
5.7999999999958618
42
0.41421356236776735
10
22.500000000005755
20
6.2999999999999545
10
22.500000000003411
20
19.500000000000455
42
0.41421356237309503
10
19.500000000007276
20
22.499999999998792
10
6.3000000000022283
20
22.500000000002274
42
0.4142135623697652
10
5.8000000000055252
20
22.000000000000455
10
5.800000000002683
20
21.000000000000227
10
5.3000000000031378
20
21.000000000000227
42
0.41421356237309503
10
5.0000000000038369
20
20.699999999999363
10
5.0000000000034106
20
16.700000000003001
42
0.41421356237808976
10
5.2000000000043656
20
16.500000000000057
10
9.8500000000069576
20
16.499999999999346
42
-0.41421356237809298
10
10.050000000002939
20
16.299999999999951
10
10.050000000003012
20
12.575483399596123
42
-0.19891236737821358
10
9.4642135623779993
20
11.161269837221033
10
5.8507255523582105
20
7.5477818272017769
42
-0.32172475938641015
10
3.5492095919876481
20
7.1695963116578945
42
0.088140608766090575
10
0.86244066890427651
20
7.9533763957619072
42
0.15922902791355903
10
0.74087965218605478
20
7.9277470666250585
10
0.10000000000764869
20
7.5577350269194685
42
-0.26794919241516885
10
-0.099999999994006897
20
7.5577350269155303
10
-0.74087965217813689
20
7.9277470666249883
42
0.15922902790850782
10
-0.86244066889695348
20
7.9533763957598014
42
0.088140608766055908
10
-3.5492095919810218
20
7.1695963116628842
42
-0.32172475938641815
10
-5.850725552348309
20
7.5477818272014465
10
-9.4642135623678598
20
11.161269837220942
42
-0.19891236737915363
10
-10.049999999995904
20
12.575483399596123
10
-10.049999999990575
20
16.299999999999955
42
-0.41421356237309503
10
-9.8499999999910415
20
16.499999999999488
10
-5.1999999999975444
20
16.499999999999773
42
0.41421356237309503
10
-4.9999999999944569
20
16.700000000003001
10
-4.9999999999931788
20
20.699999999999363
42
0.41421356236865531
10
-5.2999999999963165
20
20.999999999997669
10
-5.7999999999958618
20
21.000000000000227
10
-5.7999999999958618
20
22.000000000000455
42
0.41421356237309503
10
-6.2999999999954071
20
22.499999999999289
0
LWPOLYLINE
5
101
100
AcDbEntity
8
0
100
AcDbPolyline
90
15
70
1
43
0.0
10
-3.8865970467758899
20
-6.9924504571721746
42
0.25864981384739166
10
3.8711976438353979
20
-7.0009877019194233
42
-0.33430622127187387
10
6.2532106171637514
20
-7.3370210650249357
10
9.8804031145118643
20
-10.964213562374425
42
0.19891236737896262
10
11.294616676883606
20
-11.550000000001219
10
17.000000000007276
20
-11.549999999997453
42
0.41421356237309503
10
18.000000000004945
20
-10.550000000000637
10
18.000000000008004
20
-8.9999999999997726
42
-0.99999999999999989
10
21.000000000006548
20
-8.9999999999997726
10
21.000000000006551
20
-18.500000000000227
42
-0.41421356237309503
10
18.500000000007049
20
-20.99999999999973
10
15.000000000003409
20
-21.00000000000135
42
-0.17798671895351523
10
-8.3173884462814218
20
-12.428076783564766
42
-0.4380910930789903
10
-8.4361915394120039
20
-9.4900811776617378
10
-6.2724598708363306
20
-7.3263495090903756
42
-0.33491806500551541
0
LWPOLYLINE
5
102
100
AcDbEntity
8
0
100
AcDbPolyline
90
15
70
1
43
0.0
10
-12.434663848376031
20
-8.3096379106670639
42
0.4381752880517954
10
-9.4963022944285775
20
-8.4288715891101376
10
-7.331183479976743
20
-6.2637527746642272
42
0.33464118675430954
10
-6.9963176338785011
20
-3.8796313698355478
42
-0.25838420075817237
10
-7.0009877019144353
20
3.8711976438273172
42
0.33430622127218568
10
-7.3370210650193712
20
6.2532106171579471
10
-10.964213562367851
20
9.8804031145059348
42
-0.19891236737896251
10
-11.549999999996317
20
11.294616676879059
10
-11.54999999999518
20
17.000000000000455
42
-0.41421356237309503
10
-10.549999999996089
20
17.999999999999545
10
-8.9999999999929514
20
18.000000000000398
42
0.99999999999999989
10
-8.9999999999929514
20
21.000000000000227
10
-18.499999999993406
20
20.99999999999973
42
0.4142135623734946
10
-20.999999999996817
20
18.500000000000227
10
-20.999999999994529
20
15.000000000000004
42
0.17791384648773909
0
LWPOLYLINE
5
103
100
AcDbEntity
8
0
100
AcDbPolyline
90
12
70
1
43
0.0
10
21.000000000004775
20
18.500000000000227
42
0.41421356237309503
10
18.500000000007049
20
20.999999999997954
10
9.0000000000065938
20
21.000000000000512
42
0.99999999999999989
10
9.0000000000065938
20
17.999999999999545
10
10.55000000000291
20
17.999999999999545
42
-0.41421356237475992
10
11.550000000007685
20
17.000000000000455
10
11.550000000004559
20
12.549999999999955
42
0.41421356237309503
10
12.550000000002228
20
11.550000000003138
10
17.000000000007276
20
11.550000000000864
42
-0.41421356237309503
10
18.000000000007503
20
10.550000000000637
10
18.000000000007716
20
8.9999999999997726
42
0.99999999999999989
10
21.000000000007049
20
8.9999999999997726
0
LWPOLYLINE
5
104
100
AcDbEntity
8
0
100
AcDbPolyline
90
64
70
1
43
0.0
10
-4.9537892569658908
20
0.67821235430750804
42
0.4029900256391673
10
-5.1172111917062901
20
0.90230239908196852
10
-5.4928971150265351
20
0.96854596363440337
42
-0.44064875752652549
10
-5.8887581178178472
20
1.5913917901539456
42
-0.064469789950777665
10
-5.2892647242180191
20
3.0386968715341873
42
-0.4406487575380259
10
-4.5689302171691182
20
3.1991993796214753
10
-4.2564388794892238
20
2.9803905893527372
42
0.4029900256533735
10
-3.9824265309818854
20
3.0232894213565018
42
-0.068136097399751891
10
-3.0232894213483696
20
3.9824265309880587
42
0.40299002561916286
10
-2.9803905893450597
20
4.2564388794931194
10
-3.1991993796152012
20
4.5689302171713502
42
-0.44064875753695459
10
-3.0386968715320419
20
5.2892647242239317
42
-0.064469789950797066
10
-1.591391790149475
20
5.8887581178215322
42
-0.44064875752973837
10
-0.9685459636346222
20
5.4928971150304413
10
-0.90230239908009935
20
5.1172111917128404
42
0.40299002564717851
10
-0.67821235430418236
20
4.9537892569687747
42
-0.068136097399627643
10
0.67821235431199323
20
4.9537892569677044
42
0.40299002563507397
10
0.90230239908696841
20
5.117211191713035
10
0.96854596363619239
20
5.4928971150313677
42
-0.44064875753350707
10
1.591391790159179
20
5.8887581178237909
42
-0.064469789950783798
10
3.0386968715401617
20
5.2892647242210922
42
-0.44064875753720584
10
3.1991993796239759
20
4.5689302171723689
10
2.9803905893550109
20
4.2564388794949082
42
0.40299002564047703
10
3.0232894213598769
20
3.9824265309882434
42
-0.0681360973994697
10
3.9824265309896223
20
3.0232894213580606
42
0.40299002564696451
10
4.2564388794992389
20
2.9803905893514244
10
4.5689302171809256
20
3.199199379620199
42
-0.44064875753041127
10
5.2892647242258848
20
3.038696871539341
42
-0.064469789950910114
10
5.8887581178263169
20
1.5913917901534713
42
-0.44064875752906313
10
5.4928971150365591
20
0.96854596363556988
10
5.1172111917162511
20
0.90230239908123622
42
0.40299002566362974
10
4.9537892569737236
20
0.67821235430733418
42
-0.068136097399565512
10
4.9537892569734856
20
-0.6782123543090619
42
0.40299002564851916
10
5.1172111917166374
20
-0.90230239908131882
10
5.4928971150367554
20
-0.96854596363560463
42
-0.44064875753025445
10
5.8887581178282566
20
-1.5913917901562689
42
-0.064469789950779011
10
5.2892647242270474
20
-3.0386968715388649
42
-0.4406487575310018
10
4.5689302171799051
20
-3.1991993796216533
10
4.2564388794983188
20
-2.9803905893493265
42
0.40299002564633496
10
3.9824265309905837
20
-3.0232894213567936
42
-0.068136097399549678
10
3.023289421359876
20
-3.9824265309882438
42
0.40299002564153708
10
2.980390589355904
20
-4.2564388794942811
10
3.1991993796274221
20
-4.568930217174505
42
-0.44064875753504645
10
3.0386968715419997
20
-5.2892647242223081
42
-0.064469789950848913
10
1.5913917901577173
20
-5.8887581178206609
42
-0.44064875753466415
10
0.96854596363930179
20
-5.4928971150296846
10
0.90230239908805743
20
-5.1172111917117036
42
0.40299002564517367
10
0.67821235431190463
20
-4.9537892569659245
42
-0.06813609739952993
10
-0.67821235430186211
20
-4.9537892569672994
42
0.40299002564304448
10
-0.90230239907583321
20
-5.1172111917124541
10
-0.96854596363271306
20
-5.4928971150298427
42
-0.44064875752993427
10
-1.591391790148746
20
-5.8887581178210846
42
-0.064469789950844777
10
-3.0386968715321632
20
-5.2892647242229964
42
-0.44064875753460842
10
-3.1991993796168039
20
-4.5689302171747759
10
-2.9803905893425053
20
-4.2564388794949082
42
0.40299002563086017
10
-3.0232894213512544
20
-3.9824265309858675
42
-0.068136097399615375
10
-3.982426530982432
20
-3.0232894213557806
42
0.40299002563337538
10
-4.2564388794875843
20
-2.9803905893516704
10
-4.568930217168198
20
-3.199199379620516
42
-0.44064875753117033
10
-5.2892647242169826
20
-3.0386968715370055
42
-0.064469789950809112
10
-5.8887581178103332
20
-1.5913917901541907
42
-0.440648757528255
10
-5.4928971150263077
20
-0.96854596363683421
10
-5.1172111917060192
20
-0.90230239908350995
42
0.40299002564493303
10
-4.9537892569657389
20
-0.67821235430862647
42
-0.068136097399658646
0
LWPOLYLINE
5
105
100
AcDbEntity
8
0
100
AcDbPolyline
90
72
70
1
43
0.0
10
-19.499999999992497
20
22.500000000000568
42
0.41421356237309548
10
-22.49999999999261
20
19.500000000000455
10
-22.499999999993179
20
15
42
0.41421356237309509
10
15.000000000006828
20
-22.500000000001425
10
19.500000000007276
20
-22.5
42
0.41421356237309548
10
22.50000000000739
20
-19.500000000000455
10
22.500000000003411
20
-6.2999999999999545
42
0.41421356236710527
10
22.000000000007276
20
-5.8000000000021164
10
21.000000000007049
20
-5.8000000000004093
10
21.000000000007049
20
-5.2999999999997272
42
0.4142135623764216
10
20.700000000003911
20
-4.9999999999986535
10
16.700000000004138
20
-5
42
0.41421356237642648
10
16.500000000006381
20
-5.1999999999998181
10
16.500000000005315
20
-9.8500000000001364
42
-0.41421356236810031
10
16.300000000002228
20
-10.049999999999812
10
12.575483399599534
20
-10.050000000001448
42
-0.19891236737915374
10
11.161269837226865
20
-9.464213562374443
10
7.5477818272037203
20
-5.8507255523562671
42
-0.32172475938800382
10
7.1695963116628576
20
-3.5492095919798938
42
0.088140608765878217
10
7.9533763957656962
20
-0.86244066890229176
42
0.15922902792924257
10
7.9277470666296317
20
-0.74087965218035601
10
7.5577350269250427
20
-0.09999999999844153
42
-0.26794919243801579
10
7.5577350269250427
20
0.099999999998442321
10
7.9277470666295358
20
0.74087965218041063
42
0.15922902794345287
10
7.9533763957629047
20
0.86244066890223336
42
0.088140608765997441
10
7.169596311661051
20
3.5492095919835487
42
-0.32172475938744116
10
7.5477818272037203
20
5.8507255523562662
10
11.161269837226415
20
9.4642135623748906
42
-0.19891236737946699
10
12.575483399599534
20
10.050000000003081
10
16.300000000002228
20
10.050000000003223
42
-0.41421356237309503
10
16.500000000005315
20
9.8500000000001364
10
16.500000000003183
20
5.1999999999998181
42
0.41421356237975626
10
16.700000000004138
20
4.9999999999975122
10
20.700000000003911
20
5
42
0.4142135623697587
10
21.000000000006764
20
5.2999999999997272
10
21.000000000007049
20
5.8000000000004093
10
22.000000000007276
20
5.7999999999958618
42
0.41421356236776669
10
22.500000000005755
20
6.2999999999999545
10
22.500000000003411
20
19.500000000000455
42
0.41421356237309437
10
19.500000000007276
20
22.499999999998792
10
6.3000000000022283
20
22.500000000002274
42
0.41421356236976653
10
5.8000000000055234
20
22.000000000000455
10
5.800000000002683
20
21.000000000000227
10
5.3000000000031378
20
21.000000000000227
42
0.41421356237309503
10
5.0000000000038369
20
20.699999999999363
10
5.0000000000034106
20
16.700000000003001
42
0.4142135623780881
10
5.2000000000043656
20
16.500000000000057
10
9.8500000000069576
20
16.499999999999346
42
-0.41421356237809298
10
10.050000000002939
20
16.299999999999951
10
10.050000000003012
20
12.575483399596123
42
-0.19891236737821358
10
9.4642135623779993
20
11.161269837221033
10
5.8507255523582113
20
7.5477818272017769
42
-0.32172475938641032
10
3.5492095919876472
20
7.1695963116578945
42
0.088140608766090256
10
0.86244066890427629
20
7.9533763957619072
42
0.15922902791356749
10
0.74087965218605512
20
7.9277470666250585
10
0.10000000000764867
20
7.5577350269194685
42
-0.26794919241516868
10
-0.099999999994006758
20
7.5577350269155303
10
-0.74087965217813689
20
7.9277470666249883
42
0.15922902790851051
10
-0.86244066889695337
20
7.9533763957598005
42
0.088140608766055908
10
-3.5492095919810218
20
7.1695963116628842
42
-0.32172475938641809
10
-5.850725552348309
20
7.5477818272014465
10
-9.4642135623678598
20
11.161269837220942
42
-0.19891236737915363
10
-10.049999999995904
20
12.575483399596123
10
-10.049999999990575
20
16.299999999999955
42
-0.41421356237309503
10
-9.8499999999910415
20
16.499999999999488
10
-5.1999999999975444
20
16.499999999999773
42
0.41421356237309176
10
-4.999999999994456
20
16.700000000003001
10
-4.9999999999931788
20
20.699999999999363
42
0.4142135623686618
10
-5.2999999999963165
20
20.999999999997669
10
-5.7999999999958618
20
21.000000000000227
10
-5.7999999999958618
20
22.000000000000455
42
0.41421356237310025
10
-6.2999999999954071
20
22.499999999999289
0
LWPOLYLINE
5
106
100
AcDbEntity
8
0
100
AcDbPolyline
90
15
70
1
43
0.0
10
-3.8865970467758904
20
-6.9924504571721711
42
0.25864981384739161
10
3.8711976438353943
20
-7.0009877019194242
42
-0.33430622127187382
10
6.2532106171637514
20
-7.3370210650249357
10
9.8804031145118643
20
-10.964213562374425
42
0.19891236737896262
10
11.294616676883606
20
-11.550000000001219
10
17.000000000007276
20
-11.549999999997453
42
0.41421356237309503
10
18.000000000004945
20
-10.550000000000637
10
18.000000000008004
20
-8.9999999999997744
42
-0.99999999999999989
10
21.000000000006548
20
-8.9999999999997726
10
21.000000000006551
20
-18.500000000000227
42
-0.41421356237309659
10
18.500000000007049
20
-20.99999999999973
10
15.000000000003414
20
-21.000000000001357
42
-0.17798671895351581
10
-8.3173884462814165
20
-12.428076783564769
42
-0.43809109307899186
10
-8.4361915394120039
20
-9.4900811776617395
10
-6.2724598708363324
20
-7.3263495090903756
42
-0.33491806500551485
0
LWPOLYLINE
5
107
100
AcDbEntity
8
0
100
AcDbPolyline
90
15
70
1
43
0.0
10
-12.434663848376031
20
-8.3096379106670639
42
0.43817528805179512
10
-9.4963022944285775
20
-8.4288715891101393
10
-7.331183479976743
20
-6.2637527746642272
42
0.33464118675430898
10
-6.9963176338785011
20
-3.8796313698355478
42
-0.25838420075817237
10
-7.0009877019144353
20
3.8711976438273172
42
0.33430622127218529
10
-7.3370210650193712
20
6.2532106171579471
10
-10.964213562367851
20
9.8804031145059348
42
-0.19891236737896251
10
-11.549999999996317
20
11.294616676879059
10
-11.54999999999518
20
17.000000000000455
42
-0.41421356237309503
10
-10.549999999996089
20
17.999999999999545
10
-8.9999999999929514
20
18.000000000000398
42
0.99999999999999989
10
-8.9999999999929514
20
21.000000000000227
10
-18.499999999993406
20
20.99999999999973
42
0.4142135623734946
10
-20.999999999996817
20
18.500000000000227
10
-20.999999999994529
20
14.999999999999979
42
0.17791384648773922
0
LWPOLYLINE
5
108
100
AcDbEntity
8
0
100
AcDbPolyline
90
12
70
1
43
0.0
10
21.000000000004775
20
18.500000000000227
42
0.41421356237309553
10
18.500000000007049
20
20.999999999997954
10
9.0000000000065938
20
21.000000000000512
42
0.99999999999999989
10
9.0000000000065938
20
17.999999999999545
10
10.55000000000291
20
17.999999999999545
42
-0.41421356237475992
10
11.550000000007685
20
17.000000000000455
10
11.550000000004559
20
12.549999999999955
42
0.41421356237309243
10
12.550000000002228
20
11.550000000003138
10
17.000000000007276
20
11.550000000000864
42
-0.41421356237309503
10
18.000000000007503
20
10.550000000000637
10
18.000000000007716
20
8.9999999999997726
42
0.99999999999999989
10
21.000000000007049
20
8.9999999999997726
0
LWPOLYLINE
5
109
100
AcDbEntity
8
0
100
AcDbPolyline
90
64
70
1
43
0.0
10
-4.9537892569658908
20
0.67821235430750804
42
0.40299002563916886
10
-5.117211191706291
20
0.90230239908196852
10
-5.4928971150265351
20
0.96854596363440348
42
-0.44064875752652655
10
-5.8887581178178463
20
1.5913917901539465
42
-0.064469789950779899
10
-5.2892647242180191
20
3.038696871534186
42
-0.44064875753802601
10
-4.5689302171691182
20
3.1991993796214753
10
-4.2564388794892238
20
2.9803905893527372
42
0.402990025653373
10
-3.9824265309818863
20
3.0232894213565014
42
-0.068136097399752002
10
-3.0232894213483696
20
3.9824265309880595
42
0.40299002561916192
10
-2.9803905893450597
20
4.2564388794931194
10
-3.1991993796152007
20
4.5689302171713502
42
-0.44064875753695371
10
-3.0386968715320464
20
5.2892647242239299
42
-0.064469789950798523
10
-1.5913917901494787
20
5.8887581178215322
42
-0.44064875752974159
10
-0.96854596363462231
20
5.4928971150304413
10
-0.90230239908009935
20
5.1172111917128404
42
0.40299002564717828
10
-0.67821235430418292
20
4.9537892569687738
42
-0.068136097399627421
10
0.67821235431199245
20
4.9537892569677036
42
0.40299002563507486
10
0.90230239908696841
20
5.117211191713035
10
0.96854596363619172
20
5.4928971150313686
42
-0.44064875753350574
10
1.5913917901591788
20
5.88875811782379
42
-0.064469789950783687
10
3.0386968715401586
20
5.2892647242210931
42
-0.44064875753720817
10
3.1991993796239759
20
4.568930217172368
10
2.9803905893550109
20
4.2564388794949082
42
0.40299002564047631
10
3.0232894213598769
20
3.9824265309882438
42
-0.068136097399468812
10
3.9824265309896223
20
3.0232894213580614
42
0.40299002564696518
10
4.2564388794992389
20
2.9803905893514244
10
4.5689302171809256
20
3.1991993796201994
42
-0.44064875753041077
10
5.2892647242258848
20
3.0386968715393383
42
-0.064469789950909004
10
5.888758117826316
20
1.5913917901534755
42
-0.44064875752906651
10
5.4928971150365591
20
0.96854596363556977
10
5.1172111917162511
20
0.90230239908123622
42
0.4029900256636299
10
4.9537892569737227
20
0.67821235430732807
42
-0.068136097399564291
10
4.9537892569734856
20
-0.67821235430906113
42
0.40299002564852032
10
5.1172111917166374
20
-0.90230239908131882
10
5.4928971150367545
20
-0.96854596363560397
42
-0.44064875753025473
10
5.8887581178282566
20
-1.59139179015627
42
-0.06446978995078001
10
5.2892647242270483
20
-3.0386968715388645
42
-0.44064875753100202
10
4.5689302171799042
20
-3.1991993796216529
10
4.2564388794983188
20
-2.9803905893493265
42
0.40299002564633496
10
3.9824265309905824
20
-3.0232894213567962
42
-0.068136097399549345
10
3.0232894213598756
20
-3.9824265309882447
42
0.40299002564153596
10
2.980390589355904
20
-4.2564388794942811
10
3.1991993796274225
20
-4.5689302171745041
42
-0.4406487575350454
10
3.0386968715420046
20
-5.2892647242223045
42
-0.064469789950850356
10
1.5913917901577179
20
-5.8887581178206609
42
-0.4406487575346632
10
0.96854596363930179
20
-5.4928971150296846
10
0.90230239908805743
20
-5.1172111917117036
42
0.40299002564517322
10
0.6782123543119043
20
-4.9537892569659245
42
-0.068136097399529041
10
-0.67821235430186122
20
-4.9537892569672994
42
0.40299002564304592
10
-0.90230239907583332
20
-5.1172111917124541
10
-0.96854596363271317
20
-5.4928971150298427
42
-0.44064875752993538
10
-1.5913917901487398
20
-5.8887581178210882
42
-0.064469789950843445
10
-3.0386968715321623
20
-5.2892647242229973
42
-0.44064875753460991
10
-3.1991993796168035
20
-4.5689302171747759
10
-2.9803905893425053
20
-4.2564388794949082
42
0.40299002563086017
10
-3.0232894213512553
20
-3.9824265309858675
42
-0.068136097399615028
10
-3.9824265309824303
20
-3.0232894213557824
42
0.40299002563337938
10
-4.2564388794875843
20
-2.9803905893516704
10
-4.5689302171681989
20
-3.1991993796205156
42
-0.44064875753117172
10
-5.2892647242169808
20
-3.0386968715370086
42
-0.064469789950808098
10
-5.8887581178103341
20
-1.5913917901541883
42
-0.44064875752825244
10
-5.4928971150263077
20
-0.9685459636368341
10
-5.1172111917060192
20
-0.90230239908350995
42
0.4029900256449333
10
-4.953789256965738
20
-0.67821235430862714
42
-0.068136097399658313
0
ENDSEC
0
SECTION
2
OBJECTS
0
DICTIONARY
5
C
100
AcDbDictionary
3
ACAD_GROUP
350
D
3
ACAD_MLINESTYLE
350
17
0
DICTIONARY
5
D
100
AcDbDictionary
0
DICTIONARY
5
1A
330
C
100
AcDbDictionary
0
DICTIONARY
5
17
100
AcDbDictionary
0
ENDSEC
0
EOF
