0
SECTION
2
HEADER
9
$INSUNITS
70
4
9
$ACADVER
1
AC1014
9
$HANDSEED
5
FFFF
0
ENDSEC
0
SECTION
2
TABLES
0
TABLE
2
VPORT
5
8
100
AcDbSymbolTable
0
ENDTAB
0
TABLE
2
LTYPE
5
5
100
AcDbSymbolTable
0
LTYPE
5
14
100
AcDbSymbolTableRecord
100
AcDbLinetypeTableRecord
2
BYBLOCK
70
0
0
LTYPE
5
15
100
AcDbSymbolTableRecord
100
AcDbLinetypeTableRecord
2
BYLAYER
70
0
0
LTYPE
5
16
100
AcDbSymbolTableRecord
100
AcDbLinetypeTableRecord
2
DASHED
70
0
3
Dashed __ __ __ __ __ __ __ __ __ __ __ __ __ _
72
65
73
2
40
0.75
49
0.5
74
0
49
-0.25
74
0
0
ENDTAB
0
TABLE
2
LAYER
5
2
100
AcDbSymbolTable
70
3
0
LAYER
5
50
100
AcDbSymbolTableRecord
100
AcDbLayerTableRecord
2
1
70
0
62
7
6
DASHED
0
LAYER
5
51
100
AcDbSymbolTableRecord
100
AcDbLayerTableRecord
2
0
70
0
62
7
6
CONTINUOUS
0
ENDTAB
0
TABLE
2
STYLE
5
3
100
AcDbSymbolTable
70
1
0
STYLE
5
11
100
AcDbSymbolTableRecord
100
AcDbTextStyleTableRecord
2
STANDARD
70
0
0
ENDTAB
0
TABLE
2
VIEW
5
6
100
AcDbSymbolTable
70
0
0
ENDTAB
0
TABLE
2
UCS
5
7
100
AcDbSymbolTable
70
0
0
ENDTAB
0
TABLE
2
APPID
5
9
100
AcDbSymbolTable
70
2
0
APPID
5
12
100
AcDbSymbolTableRecord
100
AcDbRegAppTableRecord
2
ACAD
70
0
0
ENDTAB
0
TABLE
2
DIMSTYLE
5
A
100
AcDbSymbolTable
70
1
0
ENDTAB
0
TABLE
2
BLOCK_RECORD
5
1
100
AcDbSymbolTable
70
1
0
BLOCK_RECORD
5
1F
100
AcDbSymbolTableRecord
100
AcDbBlockTableRecord
2
*MODEL_SPACE
0
BLOCK_RECORD
5
1B
100
AcDbSymbolTableRecord
100
AcDbBlockTableRecord
2
*PAPER_SPACE
0
ENDTAB
0
ENDSEC
0
SECTION
2
BLOCKS
0
BLOCK
5
20
100
AcDbEntity
100
AcDbBlockBegin
2
*MODEL_SPACE
0
ENDBLK
5
21
100
AcDbEntity
100
AcDbBlockEnd
0
BLOCK
5
1C
100
AcDbEntity
100
AcDbBlockBegin
2
*PAPER_SPACE
0
ENDBLK
5
1D
100
AcDbEntity
100
AcDbBlockEnd
0
ENDSEC
0
SECTION
2
ENTITIES
0
LWPOLYLINE
5
100
100
AcDbEntity
8
0
100
AcDbPolyline
90
148
70
1
43
0.0
10
-22.496783659999956
20
19.501388510000019
10
-22.496783659999956
20
5.8013885099999918
10
-20.996783659999956
20
5.8013885099999918
10
-20.996783659999956
20
5.0013885099999911
10
-16.496783659999956
20
5.0013885099999911
10
-16.496783659999956
20
10.051388509999981
10
-12.309525359999956
20
10.051388509999981
10
-9.496783659999954
20
7.2386468099999846
10
-9.496783659999954
20
-7.2358697900000024
10
-12.309525359999956
20
-10.048611489999981
10
-16.496783659999956
20
-10.048611489999981
10
-16.496783659999956
20
-4.9986114900000089
10
-20.996783659999956
20
-4.9986114900000089
10
-20.996783659999956
20
-5.7986114899999919
10
-22.496783659999956
20
-5.7986114899999919
10
-22.496783659999956
20
-39.198611490000005
10
-20.996783659999956
20
-39.198611490000005
10
-20.996783659999956
20
-39.998611490000009
10
-16.496783659999956
20
-39.998611490000009
10
-16.496783659999956
20
-34.948611490000012
10
-12.309525359999956
20
-34.948611490000012
10
-9.496783659999954
20
-37.761353189999994
10
-9.496783659999954
20
-52.235869790000002
10
-12.309525359999956
20
-55.048611489999999
10
-16.496783659999956
20
-55.048611489999999
10
-16.496783659999956
20
-49.998611490000009
10
-20.996783659999956
20
-49.998611490000009
10
-20.996783659999956
20
-50.798611489999999
10
-22.496783659999956
20
-50.798611489999999
10
-22.496783659999956
20
-84.198611490000005
10
-20.996783659999956
20
-84.198611490000005
10
-20.996783659999956
20
-84.998611490000002
10
-16.496783659999956
20
-84.998611490000002
10
-16.496783659999956
20
-79.948611490000005
10
-12.309525359999956
20
-79.948611490000005
10
-9.496783659999954
20
-82.761353190000023
10
-9.496783659999954
20
-97.23586979000001
10
-12.309525359999956
20
-100.04861149
10
-16.496783659999956
20
-100.04861149
10
-16.496783659999956
20
-94.998611490000002
10
-20.996783659999956
20
-94.998611490000002
10
-20.996783659999956
20
-95.798611490000013
10
-22.496783659999956
20
-95.798611490000013
10
-22.496783659999956
20
-129.19861149000002
10
-20.996783659999956
20
-129.19861149000002
10
-20.996783659999956
20
-129.99861149
10
-16.496783659999956
20
-129.99861149
10
-16.496783659999956
20
-124.94861149000002
10
-12.309525359999956
20
-124.94861149000002
10
-9.496783659999954
20
-127.76135319000002
10
-9.496783659999954
20
-142.23586979000001
10
-12.309525359999956
20
-145.04861148999998
10
-16.496783659999956
20
-145.04861148999998
10
-16.496783659999956
20
-139.99861149
10
-20.996783659999956
20
-139.99861149
10
-20.996783659999956
20
-140.79861149000001
10
-22.496783659999956
20
-140.79861149000001
10
-22.496783659999956
20
-154.49861149000003
42
0.41421356237309503
10
-19.496783659999956
20
-157.49861149000003
10
-5.7967836599999556
20
-157.49861149
10
-5.7967836599999556
20
-155.99861149000003
10
-4.9967836599999549
20
-155.99861149000003
10
-4.9967836599999549
20
-151.49861149
10
-10.046783659999956
20
-151.49861149
10
-10.046783659999956
20
-147.31135319000001
10
-7.2340419599999528
20
-144.49861149
10
7.2404746400000475
20
-144.49861149
10
10.053216340000048
20
-147.31135319000001
10
10.053216340000048
20
-151.49861149
10
5.0032163400000451
20
-151.49861149
10
5.0032163400000451
20
-155.99861149000003
10
5.8032163400000458
20
-155.99861149000003
10
5.8032163400000458
20
-157.49861149
10
19.503216340000051
20
-157.49861149
42
0.41421356237309503
10
22.50321634000008
20
-154.49861149000003
10
22.503216340000051
20
-140.79861149000001
10
21.003216340000044
20
-140.79861149000001
10
21.003216340000044
20
-139.99861149
10
16.503216340000044
20
-139.99861149
10
16.503216340000044
20
-145.04861148999998
10
12.315958040000048
20
-145.04861148999998
10
9.5032163400000513
20
-142.23586979000001
10
9.5032163400000513
20
-127.76135319000002
10
12.315958040000048
20
-124.94861149000002
10
16.503216340000044
20
-124.94861149000002
10
16.503216340000044
20
-129.99861149
10
21.003216340000044
20
-129.99861149
10
21.003216340000044
20
-129.19861149000002
10
22.503216340000051
20
-129.19861149000002
10
22.503216340000051
20
-95.798611490000013
10
21.003216340000044
20
-95.798611490000013
10
21.003216340000044
20
-94.998611490000002
10
16.503216340000044
20
-94.998611490000002
10
16.503216340000044
20
-100.04861149
10
12.315958040000048
20
-100.04861149
10
9.5032163400000513
20
-97.23586979000001
10
9.5032163400000513
20
-82.761353190000023
10
12.315958040000048
20
-79.948611490000005
10
16.503216340000044
20
-79.948611490000005
10
16.503216340000044
20
-84.998611490000002
10
21.003216340000044
20
-84.998611490000002
10
21.003216340000044
20
-84.198611490000005
10
22.503216340000051
20
-84.198611490000005
10
22.503216340000051
20
-50.798611489999999
10
21.003216340000044
20
-50.798611489999999
10
21.003216340000044
20
-49.998611490000009
10
16.503216340000044
20
-49.998611490000009
10
16.503216340000044
20
-55.048611489999999
10
12.315958040000048
20
-55.048611489999999
10
9.5032163400000513
20
-52.235869790000002
10
9.5032163400000513
20
-37.761353189999994
10
12.315958040000048
20
-34.948611490000012
10
16.503216340000044
20
-34.948611490000012
10
16.503216340000044
20
-39.998611490000009
10
21.003216340000044
20
-39.998611490000009
10
21.003216340000044
20
-39.198611490000005
10
22.503216340000051
20
-39.198611490000005
10
22.503216340000051
20
-5.7986114899999919
10
21.003216340000044
20
-5.7986114899999919
10
21.003216340000044
20
-4.9986114900000089
10
16.503216340000044
20
-4.9986114900000089
10
16.503216340000044
20
-10.048611489999981
10
12.315958040000048
20
-10.048611489999981
10
9.5032163400000513
20
-7.2358697900000024
10
9.5032163400000513
20
7.2386468099999846
10
12.315958040000048
20
10.051388509999981
10
16.503216340000044
20
10.051388509999981
10
16.503216340000044
20
5.0013885099999911
10
21.003216340000044
20
5.0013885099999911
10
21.003216340000044
20
5.8013885099999918
10
22.503216340000051
20
5.8013885099999918
10
22.503216340000051
20
19.501388510000019
42
0.41421356237309503
10
19.503216340000051
20
22.501388510000009
10
5.8032163400000458
20
22.501388509999991
10
5.8032163400000458
20
21.001388510000005
10
5.0032163400000451
20
21.001388510000005
10
5.0032163400000451
20
16.501388509999995
10
10.053216340000048
20
16.501388509999995
10
10.053216340000048
20
12.314130209999998
10
7.2404746400000475
20
9.5013885100000017
10
-7.2340419599999528
20
9.5013885100000017
10
-10.046783659999956
20
12.314130209999998
10
-10.046783659999956
20
16.501388509999995
10
-4.9967836599999549
20
16.501388509999995
10
-4.9967836599999549
20
21.001388510000005
10
-5.7967836599999556
20
21.001388510000005
10
-5.7967836599999556
20
22.501388509999991
10
-19.496783659999956
20
22.501388509999991
42
0.41421356237309503
0
LWPOLYLINE
5
101
100
AcDbEntity
8
0
100
AcDbPolyline
90
16
70
1
43
0.0
10
6.5032163400000442
20
-53.478510479999997
10
10.760575650000046
20
-57.73586979000001
10
20.203216340000019
20
-57.735869790000095
10
20.203216340000036
20
-77.261353189999923
10
10.760575650000046
20
-77.261353190000008
10
6.5032163400000442
20
-81.518712500000007
10
6.5032163400000442
20
-88.498611490000002
10
-6.496783659999954
20
-88.498611490000002
10
-6.496783659999954
20
-81.518712500000007
10
-10.754142969999956
20
-77.261353190000008
10
-20.196783659999955
20
-77.261353189999966
10
-20.196783659999955
20
-57.735869790000038
10
-10.754142969999956
20
-57.73586979000001
10
-6.496783659999954
20
-53.478510479999997
10
-6.496783659999954
20
-46.498611490000002
10
6.5032163400000442
20
-46.498611490000002
0
LWPOLYLINE
5
102
100
AcDbEntity
8
0
100
AcDbPolyline
90
14
70
1
43
0.0
10
-20.196783659999955
20
-121.97861148999984
10
-20.196783659999973
20
-102.73597080000005
10
-10.754142969999956
20
-102.73597080000002
10
-6.4967836599999629
20
-98.47861149000002
10
-6.4967836599999629
20
-91.498712500000011
10
6.5032163400000398
20
-91.498712500000011
10
6.5032163400000398
20
-98.47861149000002
10
10.760575650000046
20
-102.73597080000002
10
20.203216340000036
20
-102.73597080000005
10
20.203216340000054
20
-121.97861148999998
10
10.760575650000046
20
-121.97861149000002
10
7.2404746400000342
20
-125.49871250000002
10
-7.2340419599999661
20
-125.49871250000002
10
-10.754142969999956
20
-121.97861149000002
0
LWPOLYLINE
5
103
100
AcDbEntity
8
0
100
AcDbPolyline
90
14
70
1
43
0.0
10
-20.196783659999955
20
-32.261252179999971
10
-20.196783659999952
20
-13.018611490000183
10
-10.754142969999956
20
-13.018611490000005
10
-7.234041959999935
20
-9.4985104799999931
10
7.2404746400000564
20
-9.4985104799999931
10
10.760575650000046
20
-13.018611490000005
10
20.203216340000054
20
-13.018611490000076
10
20.203216340000036
20
-32.261252179999971
10
10.760575650000046
20
-32.261252179999993
10
6.5032163400000664
20
-36.518611489999998
10
6.5032163400000664
20
-43.498510480000007
10
-6.4967836599999362
20
-43.498510480000007
10
-6.4967836599999362
20
-36.518611489999998
10
-10.754142969999956
20
-32.261252179999993
0
LWPOLYLINE
5
104
100
AcDbEntity
8
0
100
AcDbPolyline
90
32
70
1
43
0.0
10
-4.9240387699999522
20
0.86824089000000271
10
-7.8784620286359814
20
1.3891854197594293
42
-0.10951781163313047
10
-6.5532163599999569
20
4.588611490000007
10
-4.0957602279883476
20
2.867882178591441
42
-0.087488663463564376
10
-2.8678821899999631
20
4.0957602200000132
10
-4.5886114975503451
20
6.5532163465015971
42
-0.10951781170721619
10
-1.3891854299999569
20
7.8784620200000202
10
-0.86824089939688809
20
4.9240387565798418
42
-0.087488663779740877
10
0.86824088000005206
20
4.9240387600000277
10
1.389185409352736
20
7.8784620163289034
42
-0.10951781181199184
10
4.5886114800000453
20
6.5532163500000191
10
2.8678821685914873
20
4.0957602179883654
42
-0.08748866371101853
10
4.0957602100000496
20
2.8678821799999827
10
6.5532163384206523
20
4.5886114888941236
42
-0.10951781188608127
10
7.8784620100000469
20
1.3891854199999898
10
4.9240387500000402
20
0.86824089000000093
42
-0.087488663954717674
10
4.9240387500000393
20
-0.8682408900000036
10
7.8784620118988187
20
-1.3891854203347735
42
-0.10951781188608162
10
6.5532163400000334
20
-4.5886114900000043
10
4.0957602120116707
20
-2.8678821814085511
42
-0.08748866371101785
10
2.8678821700000445
20
-4.0957602199999936
10
4.5886114821382096
20
-6.5532163530536058
42
-0.10951781181199252
10
1.3891854100000489
20
-7.878462020000021
10
0.86824088060311633
20
-4.9240387634201834
42
-0.087488663779741099
10
-0.86824089999995957
20
-4.9240387599999966
10
-1.389185430741563
20
-7.8784620242059278
42
-0.10951781170721675
10
-4.588611499999975
20
-6.5532163500000156
10
-2.8678821914085209
20
-4.0957602220116343
42
-0.087488663463563821
10
-4.0957602299999669
20
-2.8678821799999996
10
-6.5532163611345018
20
-4.5886114907944506
42
-0.10951781163312889
10
-7.8784620299999641
20
-1.3891854200000087
10
-4.924038769999953
20
-0.86824089000000115
42
-0.087488663604764538
0
LWPOLYLINE
5
105
100
AcDbEntity
8
0
100
AcDbPolyline
90
32
70
1
43
0.0
10
4.9240387500000438
20
-135.86824089000001
10
7.8784620102674481
20
-136.38918542004714
42
-0.10951781175960582
10
6.5532163400000387
20
-139.58861149000001
10
4.0957602100000461
20
-137.86788218000001
42
-0.087488663587290891
10
2.8678821700000414
20
-139.09576021999999
10
4.5886114798443298
20
-141.55321634977764
42
-0.10951781175960425
10
1.3891854100000511
20
-142.87846202000003
10
0.86824088000005506
20
-139.92403876000006
42
-0.087488663779740877
10
-0.86824089999995913
20
-139.92403876000003
10
-1.3891854300471036
20
-142.87846202026745
42
-0.10951781175960425
10
-4.5886114999999688
20
-141.55321635000001
10
-2.8678821899999645
20
-139.09576022000005
42
-0.087488663587290003
10
-4.0957602299999616
20
-137.86788218000001
10
-6.5532163597775313
20
-139.58861148984431
42
-0.10951781175960458
10
-7.8784620299999624
20
-136.38918542000002
10
-4.924038769999961
20
-135.86824089000001
42
-0.0874886637797401
10
-4.924038769999961
20
-134.13175910999999
10
-7.8784620302673609
20
-133.61081457995294
42
-0.10951781175960626
10
-6.5532163599999613
20
-130.41138850999999
10
-4.0957602299999651
20
-132.13211782000002
42
-0.087488663587290891
10
-2.8678821899999618
20
-130.90423977999998
10
-4.5886114998442205
20
-128.44678365022241
42
-0.10951781175960401
10
-1.3891854299999578
20
-127.12153797999997
10
-0.86824089999995524
20
-130.07596124000003
42
-0.08748866377974121
10
0.86824088000005206
20
-130.07596124
10
1.3891854100471956
20
-127.12153797973261
42
-0.10951781175960447
10
4.588611480000055
20
-128.44678364999999
10
2.8678821700000388
20
-130.90423978000001
42
-0.087488663587291335
10
4.0957602100000443
20
-132.13211781999999
10
6.5532163397776593
20
-130.4113885101558
42
-0.10951781175960323
10
7.8784620100000442
20
-133.61081458000001
10
4.9240387500000473
20
-134.13175911000002
42
-0.08748866377974121
0
LWPOLYLINE
5
106
100
AcDbEntity
8
0
100
AcDbPolyline
90
9
70
1
43
0.0
10
18.503216340000044
20
-142.99861149000003
10
20.503216340000048
20
-142.99861149000003
10
20.503216340000048
20
-154.49861149000003
42
-0.41421356237309503
10
19.503216340000051
20
-155.49861149000003
10
8.00321634000003
20
-155.49861149000003
10
8.00321634000003
20
-153.49861149000003
10
12.05321634000005
20
-153.49861149000003
10
12.05321634000005
20
-147.04861149000001
10
18.503216340000044
20
-147.04861149000001
0
LWPOLYLINE
5
107
100
AcDbEntity
8
0
100
AcDbPolyline
90
9
70
1
43
0.0
10
-19.496783659999956
20
20.501388509999998
10
-7.996783659999922
20
20.501388509999998
10
-7.996783659999922
20
18.501388510000005
10
-12.046783659999956
20
18.501388510000005
10
-12.046783659999956
20
12.051388509999992
10
-18.496783659999956
20
12.051388509999992
10
-18.496783659999956
20
8.0013885099999982
10
-20.496783659999956
20
8.0013885099999982
10
-20.496783659999934
20
19.501388510000019
42
-0.41421356237309503
0
LWPOLYLINE
5
108
100
AcDbEntity
8
0
100
AcDbPolyline
90
9
70
1
43
0.0
10
-12.046783659999956
20
-153.49861149000003
10
-7.9967836599999753
20
-153.49861149000003
10
-7.9967836599999753
20
-155.49861149000003
10
-19.496783659999956
20
-155.49861149000003
42
-0.41421356237309503
10
-20.496783659999956
20
-154.49861149000003
10
-20.496783659999956
20
-142.99861149000003
10
-18.496783659999956
20
-142.99861149000003
10
-18.496783659999956
20
-147.04861149000001
10
-12.046783659999956
20
-147.04861149000001
0
LWPOLYLINE
5
109
100
AcDbEntity
8
0
100
AcDbPolyline
90
9
70
1
43
0.0
10
20.503216340000048
20
8.0013885099999982
10
18.503216340000044
20
8.0013885099999982
10
18.503216340000044
20
12.051388509999992
10
12.05321634000005
20
12.051388509999992
10
12.05321634000005
20
18.501388510000005
10
8.0032163400000833
20
18.501388510000005
10
8.0032163400000833
20
20.501388509999998
10
19.503216340000051
20
20.501388510000019
42
-0.41421356237309503
10
20.503216340000051
20
19.501388510000019
0
LWPOLYLINE
5
110
100
AcDbEntity
8
0
100
AcDbPolyline
90
148
70
1
43
0.0
10
-22.496783659999956
20
19.501388510000019
10
-22.496783659999956
20
5.8013885099999918
10
-20.996783659999956
20
5.8013885099999918
10
-20.996783659999956
20
5.0013885099999911
10
-16.496783659999956
20
5.0013885099999911
10
-16.496783659999956
20
10.051388509999981
10
-12.309525359999956
20
10.051388509999981
10
-9.496783659999954
20
7.2386468099999846
10
-9.496783659999954
20
-7.2358697900000024
10
-12.309525359999956
20
-10.048611489999981
10
-16.496783659999956
20
-10.048611489999981
10
-16.496783659999956
20
-4.9986114900000089
10
-20.996783659999956
20
-4.9986114900000089
10
-20.996783659999956
20
-5.7986114899999919
10
-22.496783659999956
20
-5.7986114899999919
10
-22.496783659999956
20
-39.198611490000005
10
-20.996783659999956
20
-39.198611490000005
10
-20.996783659999956
20
-39.998611490000009
10
-16.496783659999956
20
-39.998611490000009
10
-16.496783659999956
20
-34.948611490000012
10
-12.309525359999956
20
-34.948611490000012
10
-9.496783659999954
20
-37.761353189999994
10
-9.496783659999954
20
-52.235869790000002
10
-12.309525359999956
20
-55.048611489999999
10
-16.496783659999956
20
-55.048611489999999
10
-16.496783659999956
20
-49.998611490000009
10
-20.996783659999956
20
-49.998611490000009
10
-20.996783659999956
20
-50.798611489999999
10
-22.496783659999956
20
-50.798611489999999
10
-22.496783659999956
20
-84.198611490000005
10
-20.996783659999956
20
-84.198611490000005
10
-20.996783659999956
20
-84.998611490000002
10
-16.496783659999956
20
-84.998611490000002
10
-16.496783659999956
20
-79.948611490000005
10
-12.309525359999956
20
-79.948611490000005
10
-9.496783659999954
20
-82.761353190000023
10
-9.496783659999954
20
-97.23586979000001
10
-12.309525359999956
20
-100.04861149
10
-16.496783659999956
20
-100.04861149
10
-16.496783659999956
20
-94.998611490000002
10
-20.996783659999956
20
-94.998611490000002
10
-20.996783659999956
20
-95.798611490000013
10
-22.496783659999956
20
-95.798611490000013
10
-22.496783659999956
20
-129.19861149000002
10
-20.996783659999956
20
-129.19861149000002
10
-20.996783659999956
20
-129.99861149
10
-16.496783659999956
20
-129.99861149
10
-16.496783659999956
20
-124.94861149000002
10
-12.309525359999956
20
-124.94861149000002
10
-9.496783659999954
20
-127.76135319000002
10
-9.496783659999954
20
-142.23586979000001
10
-12.309525359999956
20
-145.04861148999998
10
-16.496783659999956
20
-145.04861148999998
10
-16.496783659999956
20
-139.99861149
10
-20.996783659999956
20
-139.99861149
10
-20.996783659999956
20
-140.79861149000001
10
-22.496783659999956
20
-140.79861149000001
10
-22.496783659999956
20
-154.49861149000003
42
0.41421356237309503
10
-19.496783659999956
20
-157.49861149000003
10
-5.7967836599999556
20
-157.49861149
10
-5.7967836599999556
20
-155.99861149000003
10
-4.9967836599999549
20
-155.99861149000003
10
-4.9967836599999549
20
-151.49861149
10
-10.046783659999956
20
-151.49861149
10
-10.046783659999956
20
-147.31135319000001
10
-7.2340419599999528
20
-144.49861149
10
7.2404746400000475
20
-144.49861149
10
10.053216340000048
20
-147.31135319000001
10
10.053216340000048
20
-151.49861149
10
5.0032163400000451
20
-151.49861149
10
5.0032163400000451
20
-155.99861149000003
10
5.8032163400000458
20
-155.99861149000003
10
5.8032163400000458
20
-157.49861149
10
19.503216340000051
20
-157.49861149
42
0.41421356237309503
10
22.50321634000008
20
-154.49861149000003
10
22.503216340000051
20
-140.79861149000001
10
21.003216340000044
20
-140.79861149000001
10
21.003216340000044
20
-139.99861149
10
16.503216340000044
20
-139.99861149
10
16.503216340000044
20
-145.04861148999998
10
12.315958040000048
20
-145.04861148999998
10
9.5032163400000513
20
-142.23586979000001
10
9.5032163400000513
20
-127.76135319000002
10
12.315958040000048
20
-124.94861149000002
10
16.503216340000044
20
-124.94861149000002
10
16.503216340000044
20
-129.99861149
10
21.003216340000044
20
-129.99861149
10
21.003216340000044
20
-129.19861149000002
10
22.503216340000051
20
-129.19861149000002
10
22.503216340000051
20
-95.798611490000013
10
21.003216340000044
20
-95.798611490000013
10
21.003216340000044
20
-94.998611490000002
10
16.503216340000044
20
-94.998611490000002
10
16.503216340000044
20
-100.04861149
10
12.315958040000048
20
-100.04861149
10
9.5032163400000513
20
-97.23586979000001
10
9.5032163400000513
20
-82.761353190000023
10
12.315958040000048
20
-79.948611490000005
10
16.503216340000044
20
-79.948611490000005
10
16.503216340000044
20
-84.998611490000002
10
21.003216340000044
20
-84.998611490000002
10
21.003216340000044
20
-84.198611490000005
10
22.503216340000051
20
-84.198611490000005
10
22.503216340000051
20
-50.798611489999999
10
21.003216340000044
20
-50.798611489999999
10
21.003216340000044
20
-49.998611490000009
10
16.503216340000044
20
-49.998611490000009
10
16.503216340000044
20
-55.048611489999999
10
12.315958040000048
20
-55.048611489999999
10
9.5032163400000513
20
-52.235869790000002
10
9.5032163400000513
20
-37.761353189999994
10
12.315958040000048
20
-34.948611490000012
10
16.503216340000044
20
-34.948611490000012
10
16.503216340000044
20
-39.998611490000009
10
21.003216340000044
20
-39.998611490000009
10
21.003216340000044
20
-39.198611490000005
10
22.503216340000051
20
-39.198611490000005
10
22.503216340000051
20
-5.7986114899999919
10
21.003216340000044
20
-5.7986114899999919
10
21.003216340000044
20
-4.9986114900000089
10
16.503216340000044
20
-4.9986114900000089
10
16.503216340000044
20
-10.048611489999981
10
12.315958040000048
20
-10.048611489999981
10
9.5032163400000513
20
-7.2358697900000024
10
9.5032163400000513
20
7.2386468099999846
10
12.315958040000048
20
10.051388509999981
10
16.503216340000044
20
10.051388509999981
10
16.503216340000044
20
5.0013885099999911
10
21.003216340000044
20
5.0013885099999911
10
21.003216340000044
20
5.8013885099999918
10
22.503216340000051
20
5.8013885099999918
10
22.503216340000051
20
19.501388510000019
42
0.41421356237309503
10
19.503216340000051
20
22.501388510000009
10
5.8032163400000458
20
22.501388509999991
10
5.8032163400000458
20
21.001388510000005
10
5.0032163400000451
20
21.001388510000005
10
5.0032163400000451
20
16.501388509999995
10
10.053216340000048
20
16.501388509999995
10
10.053216340000048
20
12.314130209999998
10
7.2404746400000475
20
9.5013885100000017
10
-7.2340419599999528
20
9.5013885100000017
10
-10.046783659999956
20
12.314130209999998
10
-10.046783659999956
20
16.501388509999995
10
-4.9967836599999549
20
16.501388509999995
10
-4.9967836599999549
20
21.001388510000005
10
-5.7967836599999556
20
21.001388510000005
10
-5.7967836599999556
20
22.501388509999991
10
-19.496783659999956
20
22.501388509999991
42
0.41421356237309503
0
LWPOLYLINE
5
111
100
AcDbEntity
8
0
100
AcDbPolyline
90
16
70
1
43
0.0
10
6.5032163400000442
20
-53.478510479999997
10
10.760575650000046
20
-57.73586979000001
10
20.203216340000019
20
-57.735869790000095
10
20.203216340000036
20
-77.261353189999923
10
10.760575650000046
20
-77.261353190000008
10
6.5032163400000442
20
-81.518712500000007
10
6.5032163400000442
20
-88.498611490000002
10
-6.496783659999954
20
-88.498611490000002
10
-6.496783659999954
20
-81.518712500000007
10
-10.754142969999956
20
-77.261353190000008
10
-20.196783659999955
20
-77.261353189999966
10
-20.196783659999955
20
-57.735869790000038
10
-10.754142969999956
20
-57.73586979000001
10
-6.496783659999954
20
-53.478510479999997
10
-6.496783659999954
20
-46.498611490000002
10
6.5032163400000442
20
-46.498611490000002
0
LWPOLYLINE
5
112
100
AcDbEntity
8
0
100
AcDbPolyline
90
14
70
1
43
0.0
10
-20.196783659999955
20
-121.97861148999984
10
-20.196783659999973
20
-102.73597080000005
10
-10.754142969999956
20
-102.73597080000002
10
-6.4967836599999629
20
-98.47861149000002
10
-6.4967836599999629
20
-91.498712500000011
10
6.5032163400000398
20
-91.498712500000011
10
6.5032163400000398
20
-98.47861149000002
10
10.760575650000046
20
-102.73597080000002
10
20.203216340000036
20
-102.73597080000005
10
20.203216340000054
20
-121.97861148999998
10
10.760575650000046
20
-121.97861149000002
10
7.2404746400000342
20
-125.49871250000002
10
-7.2340419599999661
20
-125.49871250000002
10
-10.754142969999956
20
-121.97861149000002
0
LWPOLYLINE
5
113
100
AcDbEntity
8
0
100
AcDbPolyline
90
14
70
1
43
0.0
10
-20.196783659999955
20
-32.261252179999971
10
-20.196783659999952
20
-13.018611490000183
10
-10.754142969999956
20
-13.018611490000005
10
-7.234041959999935
20
-9.4985104799999931
10
7.2404746400000564
20
-9.4985104799999931
10
10.760575650000046
20
-13.018611490000005
10
20.203216340000054
20
-13.018611490000076
10
20.203216340000036
20
-32.261252179999971
10
10.760575650000046
20
-32.261252179999993
10
6.5032163400000664
20
-36.518611489999998
10
6.5032163400000664
20
-43.498510480000007
10
-6.4967836599999362
20
-43.498510480000007
10
-6.4967836599999362
20
-36.518611489999998
10
-10.754142969999956
20
-32.261252179999993
0
LWPOLYLINE
5
114
100
AcDbEntity
8
0
100
AcDbPolyline
90
32
70
1
43
0.0
10
-4.9240387699999522
20
0.86824089000000271
10
-7.8784620302673627
20
1.3891854200470821
42
-0.10951781175960683
10
-6.5532163599999604
20
4.588611490000007
10
-4.0957602299999705
20
2.8678821799999943
42
-0.087488663587292126
10
-2.8678821899999631
20
4.0957602200000132
10
-4.5886114998442329
20
6.5532163497775988
42
-0.10951781175960447
10
-1.3891854299999591
20
7.8784620200000184
10
-0.86824089999995779
20
4.9240387600000304
42
-0.087488663604761957
10
0.86824088000005095
20
4.9240387600000286
10
1.389185410047205
20
7.8784620202674152
42
-0.10951781175960401
10
4.5886114800000488
20
6.5532163500000182
10
2.8678821700000445
20
4.0957602199999936
42
-0.08748866358729078
10
4.0957602100000496
20
2.8678821799999836
10
6.553216339777622
20
4.58861148984428
42
-0.10951781175960379
10
7.8784620100000478
20
1.389185419999992
10
4.9240387500000402
20
0.86824089000000104
42
-0.087488663604765204
10
4.9240387500000393
20
-0.86824089000000471
10
7.8784620102674472
20
-1.3891854200471148
42
-0.10951781175960638
10
6.5532163400000334
20
-4.588611490000007
10
4.0957602100000461
20
-2.8678821799999992
42
-0.087488663587291335
10
2.8678821700000441
20
-4.0957602199999936
10
4.5886114798443227
20
-6.5532163497776015
42
-0.10951781175960425
10
1.3891854100000507
20
-7.8784620200000219
10
0.86824088000004251
20
-4.9240387599999993
42
-0.087488663604762748
10
-0.86824089999995635
20
-4.9240387599999966
10
-1.3891854300471007
20
-7.8784620202674187
42
-0.10951781175960436
10
-4.5886114999999741
20
-6.5532163500000165
10
-2.8678821899999605
20
-4.0957602200000087
42
-0.087488663587290669
10
-4.095760229999966
20
-2.8678821800000009
10
-6.5532163597775339
20
-4.5886114898442907
42
-0.10951781175960502
10
-7.8784620299999633
20
-1.3891854200000138
10
-4.9240387699999513
20
-0.86824089000000104
42
-0.087488663604763192
0
LWPOLYLINE
5
115
100
AcDbEntity
8
0
100
AcDbPolyline
90
32
70
1
43
0.0
10
4.9240387500000438
20
-135.86824089000001
10
7.8784620102674472
20
-136.38918542004714
42
-0.10951781175960323
10
6.553216340000044
20
-139.58861149000001
10
4.0957602100000354
20
-137.86788218000001
42
-0.087488663587292015
10
2.8678821700000423
20
-139.09576021999999
10
4.5886114798443138
20
-141.55321634977759
42
-0.10951781175960604
10
1.3891854100000494
20
-142.87846202000003
10
0.86824088000004496
20
-139.92403876
42
-0.08748866360475524
10
-0.86824089999995824
20
-139.92403876000003
10
-1.3891854300471036
20
-142.87846202026742
42
-0.10951781175960862
10
-4.5886114999999696
20
-141.55321635000001
10
-2.8678821899999529
20
-139.09576022000002
42
-0.08748866358728731
10
-4.0957602299999598
20
-137.86788218000001
10
-6.5532163597775206
20
-139.58861148984431
42
-0.10951781175960874
10
-7.8784620299999606
20
-136.38918542000002
10
-4.9240387699999593
20
-135.86824089000001
42
-0.087488663604761735
10
-4.9240387699999628
20
-134.13175911000002
10
-7.8784620302673645
20
-133.61081457995294
42
-0.10951781175960874
10
-6.553216359999964
20
-130.41138850999999
10
-4.0957602299999687
20
-132.13211781999999
42
-0.087488663587286644
10
-2.8678821899999623
20
-130.90423977999998
10
-4.5886114998442267
20
-128.44678365022241
42
-0.10951781175960705
10
-1.3891854299999571
20
-127.12153797999997
10
-0.86824089999996445
20
-130.07596124
42
-0.087488663604765649
10
0.86824088000005095
20
-130.07596124
10
1.3891854100472056
20
-127.12153797973258
42
-0.10951781175959772
10
4.5886114800000533
20
-128.44678364999999
10
2.8678821700000472
20
-130.90423978000001
42
-0.087488663587284521
10
4.0957602100000452
20
-132.13211781999999
10
6.5532163397776735
20
-130.4113885101558
42
-0.109517811759602
10
7.8784620100000433
20
-133.61081458000001
10
4.9240387500000464
20
-134.13175911000002
42
-0.087488663604764649
0
LWPOLYLINE
5
116
100
AcDbEntity
8
0
100
AcDbPolyline
90
9
70
1
43
0.0
10
18.503216340000044
20
-142.99861149000003
10
20.503216340000048
20
-142.99861149000003
10
20.503216340000051
20
-154.49861149000003
42
-0.41421356237309631
10
19.503216340000051
20
-155.49861149000003
10
8.00321634000003
20
-155.49861149000003
10
8.00321634000003
20
-153.49861149000003
10
12.05321634000005
20
-153.49861149000003
10
12.05321634000005
20
-147.04861149000001
10
18.503216340000044
20
-147.04861149000001
0
LWPOLYLINE
5
117
100
AcDbEntity
8
0
100
AcDbPolyline
90
9
70
1
43
0.0
10
-19.496783659999956
20
20.501388509999998
10
-7.996783659999922
20
20.501388509999998
10
-7.996783659999922
20
18.501388510000005
10
-12.046783659999956
20
18.501388510000005
10
-12.046783659999956
20
12.051388509999992
10
-18.496783659999956
20
12.051388509999992
10
-18.496783659999956
20
8.0013885099999982
10
-20.496783659999956
20
8.0013885099999982
10
-20.496783659999934
20
19.501388510000019
42
-0.41421356237309115
0
LWPOLYLINE
5
118
100
AcDbEntity
8
0
100
AcDbPolyline
90
9
70
1
43
0.0
10
-12.046783659999956
20
-153.49861149000003
10
-7.9967836599999753
20
-153.49861149000003
10
-7.9967836599999753
20
-155.49861149000003
10
-19.496783659999956
20
-155.49861149000003
42
-0.41421356237309631
10
-20.496783659999956
20
-154.49861149000003
10
-20.496783659999956
20
-142.99861149000003
10
-18.496783659999956
20
-142.99861149000003
10
-18.496783659999956
20
-147.04861149000001
10
-12.046783659999956
20
-147.04861149000001
0
LWPOLYLINE
5
119
100
AcDbEntity
8
0
100
AcDbPolyline
90
9
70
1
43
0.0
10
20.503216340000048
20
8.0013885099999982
10
18.503216340000044
20
8.0013885099999982
10
18.503216340000044
20
12.051388509999992
10
12.05321634000005
20
12.051388509999992
10
12.05321634000005
20
18.501388510000005
10
8.0032163400000833
20
18.501388510000005
10
8.0032163400000833
20
20.501388509999998
10
19.503216340000051
20
20.501388510000019
42
-0.41421356237309243
10
20.503216340000051
20
19.501388510000019
0
ENDSEC
0
SECTION
2
OBJECTS
0
DICTIONARY
5
C
100
AcDbDictionary
3
ACAD_GROUP
350
D
3
ACAD_MLINESTYLE
350
17
0
DICTIONARY
5
D
100
AcDbDictionary
0
DICTIONARY
5
1A
330
C
100
AcDbDictionary
0
DICTIONARY
5
17
100
AcDbDictionary
0
ENDSEC
0
EOF
