0
SECTION
2
HEADER
9
$INSUNITS
70
4
9
$ACADVER
1
AC1014
9
$HANDSEED
5
FFFF
0
ENDSEC
0
SECTION
2
TABLES
0
TABLE
2
VPORT
5
8
100
AcDbSymbolTable
0
ENDTAB
0
TABLE
2
LTYPE
5
5
100
AcDbSymbolTable
0
LTYPE
5
14
100
AcDbSymbolTableRecord
100
AcDbLinetypeTableRecord
2
BYBLOCK
70
0
0
LTYPE
5
15
100
AcDbSymbolTableRecord
100
AcDbLinetypeTableRecord
2
BYLAYER
70
0
0
LTYPE
5
16
100
AcDbSymbolTableRecord
100
AcDbLinetypeTableRecord
2
DASHED
70
0
3
Dashed __ __ __ __ __ __ __ __ __ __ __ __ __ _
72
65
73
2
40
0.75
49
0.5
74
0
49
-0.25
74
0
0
ENDTAB
0
TABLE
2
LAYER
5
2
100
AcDbSymbolTable
70
3
0
LAYER
5
50
100
AcDbSymbolTableRecord
100
AcDbLayerTableRecord
2
1
70
0
62
7
6
DASHED
0
LAYER
5
51
100
AcDbSymbolTableRecord
100
AcDbLayerTableRecord
2
0
70
0
62
7
6
CONTINUOUS
0
ENDTAB
0
TABLE
2
STYLE
5
3
100
AcDbSymbolTable
70
1
0
STYLE
5
11
100
AcDbSymbolTableRecord
100
AcDbTextStyleTableRecord
2
STANDARD
70
0
0
ENDTAB
0
TABLE
2
VIEW
5
6
100
AcDbSymbolTable
70
0
0
ENDTAB
0
TABLE
2
UCS
5
7
100
AcDbSymbolTable
70
0
0
ENDTAB
0
TABLE
2
APPID
5
9
100
AcDbSymbolTable
70
2
0
APPID
5
12
100
AcDbSymbolTableRecord
100
AcDbRegAppTableRecord
2
ACAD
70
0
0
ENDTAB
0
TABLE
2
DIMSTYLE
5
A
100
AcDbSymbolTable
70
1
0
ENDTAB
0
TABLE
2
BLOCK_RECORD
5
1
100
AcDbSymbolTable
70
1
0
BLOCK_RECORD
5
1F
100
AcDbSymbolTableRecord
100
AcDbBlockTableRecord
2
*MODEL_SPACE
0
BLOCK_RECORD
5
1B
100
AcDbSymbolTableRecord
100
AcDbBlockTableRecord
2
*PAPER_SPACE
0
ENDTAB
0
ENDSEC
0
SECTION
2
BLOCKS
0
BLOCK
5
20
100
AcDbEntity
100
AcDbBlockBegin
2
*MODEL_SPACE
0
ENDBLK
5
21
100
AcDbEntity
100
AcDbBlockEnd
0
BLOCK
5
1C
100
AcDbEntity
100
AcDbBlockBegin
2
*PAPER_SPACE
0
ENDBLK
5
1D
100
AcDbEntity
100
AcDbBlockEnd
0
ENDSEC
0
SECTION
2
ENTITIES
0
LWPOLYLINE
5
100
100
AcDbEntity
8
0
100
AcDbPolyline
90
216
70
1
43
0.0
10
58.499999976159849
20
-35.899999989124403
42
0.41421356237309503
10
59.999999976159906
20
-34.399999989124346
10
59.999999976158769
20
-5.6000000091275837
42
0.41421356237309503
10
58.499999976158712
20
-4.1000000091275268
10
56.34999997615953
20
-4.1000000091241962
42
0.41421355944319488
10
55.349999976160582
20
-5.0999999991243872
10
55.349999976159495
20
-6.600000009124054
42
0.41421356432369794
10
55.84999997949113
20
-7.1000000091235282
10
57.49999997282417
20
-7.0999999981197259
42
-0.41421356254824304
10
57.99999997616149
20
-7.5999999950826247
42
-0.41421356639190976
10
55.499999957043769
20
-10.100000010270191
10
54.292388095261344
20
-10.100000001035456
42
-0.19891236539243379
10
50.756854227562762
20
-8.6355339069645041
10
49.064466070229059
20
-6.9431457496320572
42
-0.19891236737949158
10
47.599999976162266
20
-3.4076118436972616
10
47.599999976161996
20
3.4076118454539897
42
-0.1989123673795741
10
49.064466070228868
20
6.9431457513873962
10
50.756854227562471
20
8.6355339087256571
42
-0.19891236539265239
10
54.292388095261259
20
10.10000000279561
10
55.499999957043684
20
10.100000012028181
42
-0.41421356639151019
10
57.999999976161405
20
7.5999999968440246
42
-0.41421356254824304
10
57.499999972824085
20
7.0999999998811258
10
55.849999976160021
20
7.1000000108813932
42
0.41421356823222938
10
55.34999997615941
20
6.6000000008786142
10
55.349999976159474
20
5.1000000108798726
42
0.41421356237276202
10
56.349999976160696
20
4.1000000108797874
10
58.499999976159877
20
4.1000000108798673
42
0.41421356041960627
10
59.999999976159437
20
5.6000000008795325
10
59.999999964680057
20
16.000000000880306
42
0.41421355394409642
10
55.99999998852276
20
20.000000024723548
10
45.599999998521881
20
20.000000012359695
42
0.41421356237309503
10
44.0999999985236
20
18.500000012361415
10
44.099999998523678
20
16.350000012361097
42
0.4142135594441938
10
45.09999998852323
20
15.350000012361651
10
46.599999998524034
20
15.350000012360558
42
0.41421356432569584
10
47.099999998524645
20
15.850000015694468
10
47.099999987523105
20
17.500000009026373
42
-0.41421356254691111
10
47.599999984486004
20
18.000000012361419
42
-0.41421356639151019
10
50.09999999967016
20
15.499999993243696
10
50.099999990437716
20
14.292388131464682
42
-0.19891236539219995
10
48.635533896370745
20
10.756854263768943
10
46.943145739029191
20
9.0644661064329473
42
-0.19891236737969945
10
43.407611833096595
20
7.6000000123654132
10
36.592388143948746
20
7.6000000123651468
42
-0.19891236737967566
10
33.056854238016143
20
9.0644661064315546
10
31.364466080679012
20
10.756854263767401
42
-0.19891236539232551
10
29.899999986609814
20
14.292388131466103
10
29.899999977374989
20
15.499999993245117
42
-0.41421356639124385
10
32.399999992556872
20
18.00000001236284
42
-0.41421356254824304
10
32.899999989522044
20
17.500000009027794
10
32.899999978522906
20
15.850000012362591
42
0.41421356823023153
10
33.399999988520499
20
15.350000012363756
10
34.899999978521514
20
15.350000012363827
42
0.41421356237309503
10
35.89999997852096
20
16.350000012363274
10
35.899999978520881
20
18.500000012363593
42
0.4142135604211602
10
34.399999988516171
20
20.000000012362513
10
5.5999999885196194
20
20.000000012362502
42
0.41421356042093821
10
4.0999999985189595
20
18.500000012364232
10
4.0999999985190438
20
16.350000012363914
42
0.41421356237309503
10
5.0999999985184896
20
15.350000012364466
10
6.5999999885183689
20
15.350000012364537
42
0.41421356823489258
10
7.0999999985210049
20
15.850000012362733
10
7.0999999875194657
20
17.500000009027936
42
-0.41421356254957498
10
7.5999999844851356
20
18.000000012361205
42
-0.41421356639137702
10
10.099999999668155
20
15.499999993243483
10
10.099999990431151
20
14.29238813146447
42
-0.19891236539236026
10
8.6355338963646489
20
10.756854263768396
10
6.9431457390287861
20
9.0644661064324001
42
-0.1989123673797831
10
3.4076118330963041
20
7.6000000123642479
10
-3.4076118560549489
20
7.6000000123639673
42
-0.19891236737904594
10
-6.943145761987374
20
9.0644661064299896
10
-8.6355339193245015
20
10.756854263765842
42
-0.19891236539256882
10
-10.100000013393839
20
14.292388131464753
10
-10.100000022632081
20
15.499999993243767
42
-0.41421356639244256
10
-7.6000000074422402
20
18.00000001236377
42
-0.41421356254757707
10
-7.1000000104782046
20
17.500000009028724
10
-7.1000000214796133
20
15.850000015696821
42
0.41421356432569584
10
-6.6000000214790022
20
15.350000012362912
10
-5.1000000114816091
20
15.350000012362974
42
0.4142135594461917
10
-4.1000000214804242
20
16.350000012364056
10
-4.1000000214805077
20
18.500000012364374
42
0.41421356237309503
10
-5.6000000214787882
20
20.000000012362655
10
-16.000000011479667
20
20.000000023842333
42
0.41421355394417969
10
-19.999999987638102
20
15.999999999999091
10
-20
20
5.5999999999983174
42
0.41421356042027224
10
-18.500000000000227
20
4.1000000099992917
10
-16.350000000002183
20
4.1000000100007128
42
0.41421356237409396
10
-15.349999999999326
20
5.1000000099998033
10
-15.350000000001955
20
6.5999999999985448
42
0.41421356823156341
10
-15.850000000001501
20
7.100000010000187
10
-17.499999996663291
20
7.0999999989959406
42
-0.41421356254691111
10
-17.999999999999048
20
7.5999999959606157
42
-0.41421356639204299
10
-15.49999998088083
20
10.100000011145269
10
-14.292388119098405
20
10.100000001912832
42
-0.19891236539152871
10
-10.756854251403416
20
8.6355339078468134
10
-9.0644660940653612
20
6.9431457505061944
42
-0.19891236737949089
10
-7.5999999999996239
20
3.4076118445739203
10
-7.5999999999996239
20
-3.4076118445773322
42
-0.1989123673794071
10
-9.0644660940642225
20
-6.9431457505084655
10
-10.756854251405837
20
-8.6355339078478046
42
-0.19891236539183133
10
-14.292388119098405
20
-10.100000001912406
10
-15.49999998088083
20
-10.100000011151593
42
-0.41421356639217616
10
-18.000000000000114
20
-7.5999999959640263
42
-0.41421356254691111
10
-17.499999996663291
20
-7.0999999989993512
10
-15.850000003330251
20
-7.1000000100036686
42
0.41421356432502987
10
-15.35000000000089
20
-6.6000000100007128
10
-15.350000000001955
20
-5.1000000000010459
42
0.41421355944352783
10
-16.350000000002183
20
-4.1000000100002145
10
-18.500000000000227
20
-4.1000000100041234
42
0.414213562373761
10
-20.000000000001918
20
-5.600000010003896
10
-20.000000000002274
20
-34.399999990000651
42
0.414213562373761
10
-18.499999999999091
20
-35.899999990000708
10
-16.350000000001046
20
-35.899999990000424
42
0.41421355944352783
10
-15.349999999998047
20
-34.900000000001228
10
-15.350000000000819
20
-33.399999990000424
42
0.41421356432369794
10
-15.850000003329114
20
-32.899999990000452
10
-17.499999996662154
20
-32.900000001004059
42
-0.41421356254691111
10
-17.999999999997911
20
-32.400000004039384
42
-0.41421356639204299
10
-15.499999980879693
20
-29.899999988854731
10
-14.292388119097268
20
-29.899999998086244
42
-0.1989123653923672
10
-10.756854251403023
20
-31.364466092153926
10
-9.0644660940642261
20
-33.056854249493803
42
-0.19891236737949089
10
-7.5999999999984871
20
-36.592388155426079
10
-7.5999999999973467
20
-43.407611844577332
42
-0.19891236737957466
10
-9.0644660940642261
20
-46.943145750510745
10
-10.756854251400693
20
-48.635533907847268
42
-0.19891236539165405
10
-14.292388119096131
20
-50.100000001914466
10
-15.499999980878556
20
-50.100000011151593
42
-0.41421356639217616
10
-17.99999999999784
20
-47.599999995964026
42
-0.41421356254691111
10
-17.499999996661018
20
-47.099999998999351
10
-15.849999999999227
20
-47.100000010001395
42
0.41421356823089744
10
-15.349999999998616
20
-46.600000000000819
10
-15.349999999996271
20
-45.10000001000094
42
0.41421356237409396
10
-16.349999999999909
20
-44.100000010001494
10
-18.499999999997954
20
-44.100000010004123
42
0.4142135604211602
10
-19.999999999999645
20
-45.600000000000591
10
-19.999999988519903
20
-56.000000000000227
42
0.41421355394278075
10
-16.000000012362317
20
-60.000000023824363
10
-5.6000000223614403
20
-60.000000011460514
42
0.41421356237353901
10
-4.1000000223649344
20
-58.500000011461736
10
-4.1000000223650179
20
-56.350000011462555
42
0.41421355944585875
10
-5.1000000123662037
20
-55.350000011462612
10
-6.6000000223635968
20
-55.350000011462669
42
0.41421356432636181
10
-7.1000000223642079
20
-55.850000014797715
10
-7.1000000113626704
20
-57.500000008129618
42
-0.41421356254691111
10
-7.6000000083249297
20
-58.000000011461751
42
-0.41421356639257573
10
-10.100000023512994
20
-55.499999992342396
10
-10.100000014274851
20
-54.292388130563381
42
-0.19891236539250995
10
-8.6355339202055088
20
-50.756854262865609
10
-6.9431457628685127
20
-49.064466105527345
42
-0.1989123673795502
10
-3.4076118569363558
20
-47.600000011462114
10
3.4076118322148972
20
-47.600000011460715
42
-0.19891236737932064
10
6.9431457381444464
20
-49.06446610552868
10
8.6355338954804424
20
-50.756854262866817
42
-0.19891236539218299
10
10.099999989546941
20
-54.292388130559473
10
10.099999998784044
20
-55.499999992340761
42
-0.41421356639177659
10
7.599999983601025
20
-58.000000011461893
42
-0.41421356254957498
10
7.0999999866335788
20
-57.500000008126847
10
7.0999999976406736
20
-55.850000011460509
42
0.41421356823422728
10
6.5999999876344839
20
-55.350000011459898
10
5.0999999976346047
20
-55.350000011461091
42
0.41421356237309503
10
4.0999999976369352
20
-56.350000011458761
10
4.0999999976370205
20
-58.500000011457942
42
0.41421356042182617
10
5.5999999876376805
20
-60.00000001146077
10
34.399999987634224
20
-60.00000001146077
42
0.41421356042138219
10
35.899999977640711
20
-58.500000011458937
10
35.899999977640626
20
-56.350000011459755
42
0.41421356237309503
10
34.89999997764118
20
-55.35000001146031
10
33.399999987640165
20
-55.350000011460374
42
0.41421356823023153
10
32.899999977642572
20
-55.850000011459208
10
32.899999988641838
20
-57.500000008125546
42
-0.41421356254757707
10
32.399999991676665
20
-58.000000011459456
42
-0.41421356639164342
10
29.899999976494787
20
-55.499999992338324
10
29.899999985729515
20
-54.292388130557036
42
-0.19891236539220722
10
31.364466079797673
20
-50.756854262863122
10
33.056854237134672
20
-49.064466105524858
42
-0.19891236737935539
10
36.592388143065357
20
-47.600000011458022
10
43.407611832213192
20
-47.600000011457738
42
-0.19891236737941448
10
46.943145738147535
20
-49.064466105525611
10
48.635533895486944
20
-50.756854262862618
42
-0.19891236539225893
10
50.099999989553382
20
-54.292388130558237
10
50.09999999878594
20
-55.499999992337258
42
-0.4142135663921751
10
47.59999998359951
20
-58.00000001145839
42
-0.4142135625462452
10
47.099999986636611
20
-57.500000008124481
10
47.099999997638022
20
-55.850000014792577
42
0.41421356432636181
10
46.599999997637411
20
-55.350000011457531
10
45.099999987636608
20
-55.350000011457581
42
0.4142135594441938
10
44.099999997637056
20
-56.350000011457027
10
44.099999997637141
20
-58.500000011456208
42
0.41421356237353901
10
45.599999997635422
20
-60.000000011456763
10
55.999999987636301
20
-60.000000022935318
42
0.41421355394409642
10
59.999999963793599
20
-55.999999999092076
10
59.999999976154363
20
-45.599999999092439
42
0.41421356041315477
10
58.499999976161668
20
-44.100000009122496
10
56.349999976162486
20
-44.100000009122581
42
0.41421356237342799
10
55.349999976163041
20
-45.100000009123164
10
55.349999976161968
20
-46.599999999123042
42
0.41421356823222938
10
55.849999976162579
20
-47.100000009125822
10
57.499999972826643
20
-47.099999998123145
42
-0.41421356254824304
10
57.999999976163963
20
-47.599999995086044
42
-0.41421356639190976
10
55.499999957046242
20
-50.100000010273611
10
54.292388095263817
20
-50.100000001040016
42
-0.19891236539243357
10
50.756854227563977
20
-48.63553390696854
10
49.064466070230253
20
-46.943145749636095
42
-0.19891236737965834
10
47.599999976162238
20
-43.407611843701545
10
47.599999976161975
20
-36.592388154550292
42
-0.19891236737957491
10
49.064466070228853
20
-33.056854248616872
10
50.756854227562428
20
-31.364466091278608
42
-0.19891236539265261
10
54.292388095261224
20
-29.899999997208653
10
55.499999957043649
20
-29.899999987976102
42
-0.41421356639151019
10
57.999999976161369
20
-32.400000003160258
42
-0.41421356254824304
10
57.49999997282405
20
-32.900000000123157
10
55.84999997949101
20
-32.899999989122875
42
0.41421356432502987
10
55.349999976159374
20
-33.399999989124623
10
55.349999976159445
20
-34.899999999125427
42
0.41421355944352783
10
56.349999976160667
20
-35.899999989124481
0
LWPOLYLINE
5
101
100
AcDbEntity
8
0
100
AcDbPolyline
90
64
70
1
43
0.0
10
-9.414220138060946
20
-28.464463086446351
42
0.19891214629483128
10
-12.949751036376256
20
-27.000000000000099
10
-13.499999999999091
20
-27.000000000001734
42
-0.41421356237282864
10
-15.999999999998096
20
-24.500000000000455
10
-15.999999999998096
20
-15.500000000000682
42
-0.41421356237242907
10
-13.500000000000227
20
-13.000000000001677
10
-12.949751036373982
20
-13.000000000000682
42
0.19891214629442486
10
-9.4142201380621735
20
-11.535536913552422
10
-7.0931423619559109
20
-9.2144630864495003
42
-0.19891214629421583
10
-3.5576114636444345
20
-7.7500000000012648
10
3.7428932188163344
20
-7.7499999999997726
42
0.19891236737544898
10
4.0964466094089307
20
-7.6035533905928254
10
7.6035533905928787
20
-4.096446609406712
42
0.19891236737478726
10
7.7499999999965743
20
-3.7428932188140607
10
7.7499999999973577
20
3.5576114636478451
42
-0.19891214629418846
10
9.2144630864479158
20
7.0931423619563621
10
11.535536913554552
20
9.414220138063456
42
0.19891214629404866
10
13.000000000004022
20
12.949751036376256
10
13.00000000000118
20
13.500000000000227
42
-0.41421356237309503
10
15.500000000000682
20
15.99999999999973
10
24.500000000000455
20
15.999999999997954
42
-0.4142135623734946
10
27.000000000001592
20
13.500000000000227
10
27.000000000000455
20
12.949751036371708
42
0.19891214629494644
10
28.464463086448532
20
9.4142201380608537
10
30.785536913553759
20
7.0931423619569012
42
-0.19891214629474477
10
32.250000000002856
20
3.5576114636444336
10
32.250000000002501
20
-3.7428932188129238
42
0.19891236737924178
10
32.396446609407775
20
-4.0964466094060636
10
35.903553390594425
20
-7.6035533905917418
42
0.19891236737798659
10
36.257106781188213
20
-7.7499999999975699
10
43.557611463646715
20
-7.7500000000006271
42
-0.19891214629404846
10
47.093142361957163
20
-9.2144630864471075
10
49.414220138064593
20
-11.535536913555688
42
0.19891214629444506
10
52.949751036377393
20
-13.000000000000682
10
53.500000000002501
20
-13.000000000000682
42
-0.41421356237309503
10
56.000000000001364
20
-15.499999999997272
10
56.000000000003141
20
-24.499999999997044
42
-0.4142135623734946
10
53.500000000003638
20
-26.999999999999957
10
52.94975103637853
20
-26.999999999998181
42
0.19891214629417406
10
49.414220138065104
20
-28.4644630864471
10
47.093142361958428
20
-30.78553691355074
42
-0.19891214629398959
10
43.557611463647845
20
-32.24999999999774
10
36.25710678118935
20
-32.249999999997954
42
0.19891236737798665
10
35.903553390595405
20
-32.396446609404691
10
32.396446609409395
20
-35.903553390592151
42
0.19891236737906706
10
32.250000000002572
20
-36.257106781184802
10
32.250000000002998
20
-43.557611463643298
42
-0.19891214629456069
10
30.785536913554566
20
-47.093142361955444
10
28.46446308645227
20
-49.414220138063456
42
0.19891214629455312
10
27.000000000002085
20
-52.949751036376256
10
27.000000000000597
20
-53.499999999999091
42
-0.41421356237269547
10
24.500000000002728
20
-56.000000000000369
10
15.500000000002956
20
-56.000000000000369
42
-0.41421356237296181
10
13.000000000002814
20
-53.499999999999091
10
13.000000000002956
20
-52.949751036371708
42
0.19891214629429949
10
11.535536913554008
20
-49.414220138062859
10
9.2144630864520103
20
-47.093142361956808
42
-0.19891214629452558
10
7.7500000000014033
20
-43.557611463643298
10
7.7500000000031832
20
-36.257106781185939
42
0.19891236737948376
10
7.6035533905945032
20
-35.903553390592805
10
4.0964466094101226
20
-32.396446609405984
42
0.1989123673741966
10
3.7428932188174708
20
-32.250000000001648
10
-3.5576114636432981
20
-32.250000000000234
42
-0.19891214629417392
10
-7.0931423619504361
20
-30.785536913554125
0
LWPOLYLINE
5
102
100
AcDbEntity
8
0
100
AcDbPolyline
90
8
70
1
43
0.0
10
-18.199999999998795
20
12.299999999999045
42
0.4142135623717631
10
-17.699999999998681
20
11.799999999996658
10
-12.29999923706032
20
11.800000190734586
42
0.41421338519045042
10
-11.7999999999995
20
12.299999999999045
10
-11.799999999999573
20
17.700000047683488
42
0.41421353443931602
10
-12.300000000000182
20
18.19999999999709
10
-16.000000000001364
20
18.200000047685236
42
0.41421354857593873
10
-18.200000000001637
20
15.999999999999091
0
LWPOLYLINE
5
103
100
AcDbEntity
8
0
100
AcDbPolyline
90
8
70
1
43
0.0
10
58.200000000002703
20
-52.299999999997908
42
0.41421356237309503
10
57.700000000002092
20
-51.799999999997297
10
52.299999237062593
20
-51.800000190735219
42
0.41421338519178236
10
51.80000000000291
20
-52.299999999999045
10
51.800000000002981
20
-57.700000047682352
42
0.41421353443998199
10
52.300000000002456
20
-58.199999999998226
10
56.000000000004775
20
-58.200000047682963
42
0.41421354528053705
10
58.200000000002774
20
-55.999999999996817
0
LWPOLYLINE
5
104
100
AcDbEntity
8
0
100
AcDbPolyline
90
8
70
1
43
0.0
10
57.699999999999818
20
11.800000000003621
42
0.41421356237309503
10
58.199999999998653
20
12.300000000002456
10
58.200000000001566
20
16.000000000002501
42
0.41421354563632418
10
56.000000000001364
20
18.200000047686444
10
52.299999999999045
20
18.200000000001566
42
0.41421353443931602
10
51.800000000000637
20
17.700000047685762
10
51.800000000001006
20
12.300000000001319
42
0.41421338519111639
10
52.29999923706032
20
11.800000190738729
0
LWPOLYLINE
5
105
100
AcDbEntity
8
0
100
AcDbPolyline
90
8
70
1
43
0.0
10
-17.699999999996407
20
-51.800000000005255
42
0.41421356236909923
10
-18.199999999994745
20
-52.300000000001319
10
-18.199999999997516
20
-56.000000000000227
42
0.4142135486913594
10
-15.999999999997954
20
-58.200000047684171
10
-12.299999999996771
20
-58.200000000001566
42
0.4142135344406479
10
-11.799999999997226
20
-57.700000047684625
10
-11.799999999998096
20
-52.300000000001319
42
0.41421338519111639
10
-12.299999237058046
20
-51.800000190737592
0
CIRCLE
5
106
100
AcDbEntity
8
0
100
AcDbCircle
10
-1.1368683772161603e-12
20
-40
30
0
40
3.349999999999298
210
0
220
0
230
-1
0
CIRCLE
5
107
100
AcDbEntity
8
0
100
AcDbCircle
10
0
20
0
30
0
40
3.349999999999298
210
0
220
0
230
-1
0
CIRCLE
5
108
100
AcDbEntity
8
0
100
AcDbCircle
10
-40.000000000003411
20
-39.999999999998863
30
0
40
3.349999999999298
210
0
220
0
230
-1
0
CIRCLE
5
109
100
AcDbEntity
8
0
100
AcDbCircle
10
-40.000000000002274
20
1.1368683772161603e-12
30
0
40
3.349999999999298
210
0
220
0
230
-1
0
LWPOLYLINE
5
110
100
AcDbEntity
8
0
100
AcDbPolyline
90
216
70
1
43
0.0
10
58.499999976159849
20
-35.899999989124403
42
0.41421356237309853
10
59.999999976159906
20
-34.399999989124346
10
59.999999976158769
20
-5.6000000091275837
42
0.41421356237309742
10
58.499999976158712
20
-4.1000000091275322
10
56.34999997615953
20
-4.1000000091241962
42
0.41421355944319127
10
55.349999976160589
20
-5.0999999991243872
10
55.349999976159495
20
-6.600000009124054
42
0.41421356432369927
10
55.84999997949113
20
-7.10000000912353
10
57.49999997282417
20
-7.0999999981197259
42
-0.41421356254824304
10
57.99999997616149
20
-7.5999999950826247
42
-0.41421356639190976
10
55.499999957043769
20
-10.100000010270191
10
54.292388095261344
20
-10.100000001035454
42
-0.19891236539243379
10
50.756854227562762
20
-8.6355339069645023
10
49.064466070229059
20
-6.9431457496320554
42
-0.19891236737949158
10
47.599999976162266
20
-3.4076118436972602
10
47.599999976161996
20
3.407611845453991
42
-0.1989123673795741
10
49.064466070228868
20
6.9431457513873971
10
50.756854227562471
20
8.6355339087256571
42
-0.19891236539265239
10
54.292388095261259
20
10.10000000279561
10
55.499999957043684
20
10.100000012028181
42
-0.41421356639151019
10
57.999999976161405
20
7.5999999968440246
42
-0.41421356254824304
10
57.499999972824085
20
7.0999999998811258
10
55.849999976160021
20
7.1000000108813932
42
0.41421356823223721
10
55.34999997615941
20
6.6000000008786142
10
55.349999976159474
20
5.1000000108798726
42
0.41421356237276108
10
56.349999976160696
20
4.1000000108797909
10
58.499999976159877
20
4.1000000108798673
42
0.41421356041960739
10
59.99999997615943
20
5.6000000008795325
10
59.999999964680057
20
16.000000000880306
42
0.41421355394409509
10
55.99999998852276
20
20.000000024723548
10
45.599999998521881
20
20.000000012359695
42
0.41421356237309204
10
44.0999999985236
20
18.500000012361415
10
44.099999998523678
20
16.350000012361097
42
0.41421355944419835
10
45.09999998852323
20
15.350000012361653
10
46.599999998524034
20
15.350000012360558
42
0.41421356432569584
10
47.099999998524645
20
15.850000015694468
10
47.099999987523105
20
17.500000009026373
42
-0.41421356254691111
10
47.599999984486004
20
18.000000012361419
42
-0.41421356639151019
10
50.09999999967016
20
15.499999993243696
10
50.099999990437716
20
14.292388131464682
42
-0.19891236539219995
10
48.635533896370745
20
10.756854263768943
10
46.943145739029191
20
9.0644661064329473
42
-0.19891236737969945
10
43.407611833096595
20
7.6000000123654132
10
36.592388143948746
20
7.6000000123651468
42
-0.19891236737967566
10
33.056854238016143
20
9.0644661064315546
10
31.364466080679012
20
10.756854263767401
42
-0.19891236539232551
10
29.899999986609814
20
14.292388131466103
10
29.899999977374989
20
15.499999993245117
42
-0.41421356639124385
10
32.399999992556872
20
18.00000001236284
42
-0.41421356254824304
10
32.899999989522044
20
17.500000009027794
10
32.899999978522906
20
15.850000012362591
42
0.41421356823022759
10
33.399999988520499
20
15.350000012363758
10
34.899999978521514
20
15.350000012363827
42
0.41421356237309503
10
35.89999997852096
20
16.350000012363274
10
35.899999978520881
20
18.500000012363593
42
0.4142135604211602
10
34.399999988516171
20
20.000000012362513
10
5.5999999885196194
20
20.000000012362502
42
0.41421356042093777
10
4.0999999985189568
20
18.500000012364232
10
4.0999999985190438
20
16.350000012363914
42
0.41421356237309503
10
5.0999999985184896
20
15.350000012364466
10
6.5999999885183689
20
15.350000012364537
42
0.4142135682348887
10
7.0999999985210067
20
15.850000012362733
10
7.0999999875194657
20
17.500000009027936
42
-0.41421356254957498
10
7.5999999844851356
20
18.000000012361205
42
-0.41421356639137702
10
10.099999999668155
20
15.499999993243483
10
10.099999990431147
20
14.292388131464469
42
-0.19891236539236037
10
8.6355338963646471
20
10.756854263768396
10
6.9431457390287852
20
9.0644661064324001
42
-0.1989123673797831
10
3.4076118330963028
20
7.6000000123642479
10
-3.4076118560549471
20
7.6000000123639655
42
-0.19891236737904608
10
-6.9431457619873749
20
9.0644661064299896
10
-8.6355339193245015
20
10.756854263765842
42
-0.19891236539256882
10
-10.100000013393839
20
14.292388131464753
10
-10.100000022632081
20
15.499999993243767
42
-0.41421356639244256
10
-7.6000000074422402
20
18.00000001236377
42
-0.41421356254757707
10
-7.1000000104782046
20
17.500000009028724
10
-7.1000000214796133
20
15.850000015696821
42
0.41421356432569389
10
-6.6000000214790022
20
15.350000012362912
10
-5.1000000114816091
20
15.350000012362974
42
0.4142135594461907
10
-4.1000000214804242
20
16.350000012364053
10
-4.1000000214805077
20
18.500000012364374
42
0.4142135623730942
10
-5.6000000214787882
20
20.000000012362655
10
-16.000000011479667
20
20.000000023842333
42
0.41421355394417902
10
-19.999999987638102
20
15.999999999999091
10
-20
20
5.5999999999983174
42
0.41421356042027224
10
-18.500000000000227
20
4.1000000099992917
10
-16.350000000002183
20
4.1000000100007128
42
0.41421356237409335
10
-15.349999999999328
20
5.1000000099998033
10
-15.350000000001955
20
6.5999999999985448
42
0.41421356823156408
10
-15.850000000001501
20
7.1000000100001879
10
-17.499999996663291
20
7.0999999989959406
42
-0.41421356254691111
10
-17.999999999999048
20
7.5999999959606157
42
-0.41421356639204299
10
-15.49999998088083
20
10.100000011145269
10
-14.292388119098405
20
10.100000001912832
42
-0.19891236539152871
10
-10.756854251403416
20
8.6355339078468134
10
-9.064466094065363
20
6.9431457505061944
42
-0.198912367379491
10
-7.5999999999996239
20
3.407611844573919
10
-7.5999999999996239
20
-3.4076118445773322
42
-0.1989123673794071
10
-9.0644660940642225
20
-6.9431457505084655
10
-10.756854251405837
20
-8.6355339078478046
42
-0.19891236539183133
10
-14.292388119098405
20
-10.100000001912406
10
-15.49999998088083
20
-10.100000011151593
42
-0.41421356639217616
10
-18.000000000000114
20
-7.5999999959640263
42
-0.41421356254691111
10
-17.499999996663291
20
-7.0999999989993512
10
-15.850000003330251
20
-7.1000000100036686
42
0.41421356432502726
10
-15.35000000000089
20
-6.6000000100007128
10
-15.350000000001955
20
-5.1000000000010459
42
0.41421355944352917
10
-16.350000000002183
20
-4.1000000100002154
10
-18.500000000000227
20
-4.1000000100041234
42
0.41421356237376017
10
-20.000000000001918
20
-5.600000010003896
10
-20.000000000002274
20
-34.399999990000651
42
0.41421356237376017
10
-18.499999999999091
20
-35.899999990000701
10
-16.350000000001046
20
-35.899999990000424
42
0.41421355944353044
10
-15.349999999998047
20
-34.900000000001228
10
-15.350000000000819
20
-33.399999990000424
42
0.41421356432369666
10
-15.850000003329114
20
-32.899999990000452
10
-17.499999996662154
20
-32.900000001004059
42
-0.41421356254691111
10
-17.999999999997911
20
-32.400000004039384
42
-0.41421356639204299
10
-15.499999980879693
20
-29.899999988854731
10
-14.292388119097268
20
-29.899999998086244
42
-0.1989123653923672
10
-10.756854251403023
20
-31.364466092153926
10
-9.0644660940642261
20
-33.056854249493803
42
-0.19891236737949089
10
-7.5999999999984871
20
-36.592388155426079
10
-7.5999999999973467
20
-43.407611844577332
42
-0.19891236737957466
10
-9.0644660940642261
20
-46.943145750510745
10
-10.756854251400693
20
-48.635533907847268
42
-0.19891236539165405
10
-14.292388119096131
20
-50.100000001914466
10
-15.499999980878556
20
-50.100000011151593
42
-0.41421356639217616
10
-17.99999999999784
20
-47.599999995964026
42
-0.41421356254691111
10
-17.499999996661018
20
-47.099999998999351
10
-15.849999999999227
20
-47.100000010001395
42
0.41421356823088445
10
-15.349999999998612
20
-46.600000000000826
10
-15.349999999996271
20
-45.10000001000094
42
0.41421356237409462
10
-16.349999999999909
20
-44.100000010001494
10
-18.499999999997954
20
-44.100000010004123
42
0.41421356042116281
10
-19.999999999999641
20
-45.600000000000591
10
-19.999999988519903
20
-56.000000000000227
42
0.41421355394277964
10
-16.000000012362317
20
-60.000000023824363
10
-5.6000000223614403
20
-60.000000011460514
42
0.41421356237354245
10
-4.1000000223649362
20
-58.500000011461736
10
-4.1000000223650179
20
-56.350000011462555
42
0.41421355944585742
10
-5.1000000123662037
20
-55.350000011462612
10
-6.6000000223635968
20
-55.350000011462669
42
0.41421356432635337
10
-7.1000000223642115
20
-55.850000014797715
10
-7.1000000113626704
20
-57.500000008129618
42
-0.41421356254691111
10
-7.6000000083249297
20
-58.000000011461751
42
-0.41421356639257573
10
-10.100000023512994
20
-55.499999992342396
10
-10.100000014274851
20
-54.292388130563381
42
-0.19891236539250995
10
-8.635533920205507
20
-50.756854262865609
10
-6.9431457628685127
20
-49.064466105527337
42
-0.1989123673795502
10
-3.4076118569363545
20
-47.600000011462114
10
3.4076118322148985
20
-47.600000011460715
42
-0.19891236737932064
10
6.9431457381444472
20
-49.06446610552868
10
8.6355338954804424
20
-50.756854262866817
42
-0.19891236539218299
10
10.099999989546941
20
-54.292388130559473
10
10.099999998784044
20
-55.499999992340761
42
-0.41421356639177659
10
7.599999983601025
20
-58.000000011461893
42
-0.41421356254957498
10
7.0999999866335788
20
-57.500000008126847
10
7.0999999976406736
20
-55.850000011460509
42
0.41421356823423638
10
6.5999999876344839
20
-55.350000011459898
10
5.0999999976346047
20
-55.350000011461091
42
0.41421356237309959
10
4.099999997636937
20
-56.350000011458761
10
4.0999999976370205
20
-58.500000011457942
42
0.41421356042182356
10
5.5999999876376805
20
-60.00000001146077
10
34.399999987634224
20
-60.00000001146077
42
0.41421356042138219
10
35.899999977640711
20
-58.500000011458937
10
35.899999977640626
20
-56.350000011459755
42
0.41421356237309503
10
34.89999997764118
20
-55.35000001146031
10
33.399999987640165
20
-55.350000011460374
42
0.4142135682302393
10
32.89999997764258
20
-55.850000011459208
10
32.899999988641838
20
-57.500000008125546
42
-0.41421356254757707
10
32.399999991676665
20
-58.000000011459456
42
-0.41421356639164342
10
29.899999976494787
20
-55.499999992338324
10
29.899999985729515
20
-54.292388130557036
42
-0.19891236539220722
10
31.364466079797673
20
-50.756854262863122
10
33.056854237134672
20
-49.064466105524858
42
-0.19891236737935539
10
36.592388143065357
20
-47.600000011458022
10
43.407611832213192
20
-47.600000011457738
42
-0.19891236737941448
10
46.943145738147535
20
-49.064466105525611
10
48.635533895486944
20
-50.756854262862618
42
-0.19891236539225893
10
50.099999989553382
20
-54.292388130558237
10
50.09999999878594
20
-55.499999992337258
42
-0.4142135663921751
10
47.59999998359951
20
-58.00000001145839
42
-0.4142135625462452
10
47.099999986636611
20
-57.500000008124481
10
47.099999997638022
20
-55.850000014792577
42
0.41421356432635659
10
46.599999997637411
20
-55.350000011457539
10
45.099999987636608
20
-55.350000011457581
42
0.41421355944420163
10
44.099999997637049
20
-56.350000011457027
10
44.099999997637141
20
-58.500000011456208
42
0.41421356237354079
10
45.599999997635422
20
-60.000000011456756
10
55.999999987636301
20
-60.000000022935318
42
0.41421355394409509
10
59.999999963793599
20
-55.999999999092076
10
59.999999976154363
20
-45.599999999092439
42
0.41421356041314961
10
58.499999976161668
20
-44.10000000912251
10
56.349999976162486
20
-44.100000009122581
42
0.41421356237342544
10
55.349999976163033
20
-45.100000009123164
10
55.349999976161968
20
-46.599999999123042
42
0.4142135682322346
10
55.849999976162579
20
-47.100000009125807
10
57.499999972826643
20
-47.099999998123145
42
-0.41421356254824304
10
57.999999976163963
20
-47.599999995086044
42
-0.41421356639190976
10
55.499999957046242
20
-50.100000010273611
10
54.292388095263817
20
-50.100000001040016
42
-0.19891236539243357
10
50.756854227563977
20
-48.63553390696854
10
49.064466070230253
20
-46.943145749636095
42
-0.19891236737965834
10
47.599999976162238
20
-43.407611843701545
10
47.599999976161975
20
-36.592388154550292
42
-0.19891236737957491
10
49.064466070228853
20
-33.056854248616872
10
50.756854227562428
20
-31.364466091278608
42
-0.19891236539265261
10
54.292388095261224
20
-29.899999997208653
10
55.499999957043649
20
-29.899999987976102
42
-0.41421356639151019
10
57.999999976161369
20
-32.400000003160258
42
-0.41421356254824304
10
57.49999997282405
20
-32.900000000123157
10
55.84999997949101
20
-32.899999989122875
42
0.41421356432502465
10
55.349999976159367
20
-33.399999989124623
10
55.349999976159445
20
-34.899999999125427
42
0.41421355944352134
10
56.34999997616066
20
-35.899999989124488
0
LWPOLYLINE
5
111
100
AcDbEntity
8
0
100
AcDbPolyline
90
64
70
1
43
0.0
10
-9.414220138060946
20
-28.464463086446351
42
0.19891214629483123
10
-12.949751036376254
20
-27.000000000000099
10
-13.499999999999091
20
-27.000000000001734
42
-0.41421356237282836
10
-15.999999999998096
20
-24.500000000000455
10
-15.999999999998096
20
-15.500000000000682
42
-0.41421356237242907
10
-13.500000000000227
20
-13.000000000001677
10
-12.949751036373982
20
-13.000000000000682
42
0.19891214629442494
10
-9.4142201380621735
20
-11.53553691355242
10
-7.0931423619559117
20
-9.2144630864495003
42
-0.19891214629421583
10
-3.5576114636444354
20
-7.7500000000012648
10
3.7428932188163344
20
-7.7499999999997726
42
0.19891236737544898
10
4.0964466094089307
20
-7.6035533905928254
10
7.6035533905928787
20
-4.096446609406712
42
0.19891236737478726
10
7.7499999999965743
20
-3.7428932188140607
10
7.7499999999973559
20
3.5576114636478446
42
-0.19891214629418813
10
9.2144630864479122
20
7.0931423619563594
10
11.535536913554552
20
9.414220138063456
42
0.1989121462940488
10
13.000000000004022
20
12.949751036376258
10
13.00000000000118
20
13.500000000000227
42
-0.41421356237309503
10
15.500000000000682
20
15.99999999999973
10
24.500000000000455
20
15.99999999999795
42
-0.4142135623734941
10
27.000000000001592
20
13.500000000000227
10
27.000000000000455
20
12.949751036371708
42
0.19891214629494633
10
28.464463086448532
20
9.4142201380608572
10
30.785536913553763
20
7.0931423619569038
42
-0.19891214629474546
10
32.250000000002863
20
3.5576114636444345
10
32.250000000002501
20
-3.7428932188129238
42
0.19891236737924162
10
32.396446609407775
20
-4.0964466094060628
10
35.903553390594425
20
-7.6035533905917418
42
0.19891236737798659
10
36.257106781188213
20
-7.7499999999975708
10
43.557611463646708
20
-7.7500000000006262
42
-0.19891214629404952
10
47.093142361957163
20
-9.2144630864471058
10
49.414220138064593
20
-11.535536913555688
42
0.19891214629444506
10
52.949751036377393
20
-13.000000000000682
10
53.500000000002501
20
-13.000000000000686
42
-0.41421356237309659
10
56.000000000001364
20
-15.499999999997272
10
56.000000000003141
20
-24.499999999997044
42
-0.41421356237349616
10
53.500000000003638
20
-26.999999999999957
10
52.94975103637853
20
-26.999999999998181
42
0.19891214629417406
10
49.414220138065104
20
-28.4644630864471
10
47.093142361958428
20
-30.78553691355074
42
-0.19891214629398857
10
43.557611463647845
20
-32.24999999999774
10
36.25710678118935
20
-32.249999999997954
42
0.19891236737798665
10
35.903553390595405
20
-32.396446609404691
10
32.396446609409395
20
-35.903553390592151
42
0.19891236737906706
10
32.250000000002572
20
-36.257106781184802
10
32.250000000002998
20
-43.557611463643298
42
-0.19891214629455931
10
30.785536913554566
20
-47.093142361955444
10
28.46446308645227
20
-49.414220138063456
42
0.19891214629455312
10
27.000000000002085
20
-52.949751036376256
10
27.0000000000006
20
-53.499999999999091
42
-0.41421356237269391
10
24.500000000002728
20
-56.000000000000369
10
15.500000000002956
20
-56.000000000000377
42
-0.41421356237296286
10
13.000000000002814
20
-53.499999999999091
10
13.000000000002956
20
-52.949751036371708
42
0.19891214629429937
10
11.53553691355401
20
-49.414220138062859
10
9.2144630864520121
20
-47.093142361956808
42
-0.19891214629452572
10
7.7500000000014051
20
-43.557611463643298
10
7.7500000000031832
20
-36.257106781185939
42
0.19891236737948376
10
7.6035533905945032
20
-35.903553390592805
10
4.0964466094101226
20
-32.396446609405984
42
0.19891236737419687
10
3.7428932188174704
20
-32.250000000001648
10
-3.5576114636432972
20
-32.250000000000227
42
-0.19891214629417497
10
-7.0931423619504379
20
-30.785536913554125
0
LWPOLYLINE
5
112
100
AcDbEntity
8
0
100
AcDbPolyline
90
8
70
1
43
0.0
10
-18.199999999998795
20
12.299999999999045
42
0.4142135623717631
10
-17.699999999998681
20
11.799999999996658
10
-12.29999923706032
20
11.800000190734586
42
0.4142133851904517
10
-11.7999999999995
20
12.299999999999045
10
-11.799999999999573
20
17.700000047683488
42
0.41421353443932118
10
-12.300000000000182
20
18.19999999999709
10
-16.000000000001364
20
18.200000047685236
42
0.41421354704779473
10
-18.200000000001637
20
15.999999999999091
0
LWPOLYLINE
5
113
100
AcDbEntity
8
0
100
AcDbPolyline
90
8
70
1
43
0.0
10
58.200000000002703
20
-52.299999999997908
42
0.41421356237310542
10
57.700000000002092
20
-51.799999999997297
10
52.299999237062593
20
-51.800000190735219
42
0.41421338519177714
10
51.80000000000291
20
-52.299999999999045
10
51.800000000002981
20
-57.700000047682352
42
0.41421353443996634
10
52.300000000002456
20
-58.199999999998226
10
56.000000000004775
20
-58.200000047682963
42
0.41421354704764107
10
58.200000000002774
20
-55.999999999996817
0
LWPOLYLINE
5
114
100
AcDbEntity
8
0
100
AcDbPolyline
90
8
70
1
43
0.0
10
57.699999999999818
20
11.800000000003621
42
0.41421356237308593
10
58.199999999998653
20
12.300000000002456
10
58.200000000001566
20
16.000000000002501
42
0.41421354704764191
10
56.000000000001364
20
18.200000047686444
10
52.299999999999045
20
18.200000000001566
42
0.41421353443931208
10
51.800000000000637
20
17.700000047685762
10
51.800000000001006
20
12.300000000001319
42
0.41421338519110595
10
52.29999923706032
20
11.800000190738729
0
LWPOLYLINE
5
115
100
AcDbEntity
8
0
100
AcDbPolyline
90
8
70
1
43
0.0
10
-17.699999999996407
20
-51.800000000005255
42
0.41421356236908624
10
-18.199999999994748
20
-52.300000000001312
10
-18.199999999997516
20
-56.000000000000227
42
0.41421354704779334
10
-15.999999999997954
20
-58.200000047684171
10
-12.299999999996771
20
-58.200000000001566
42
0.41421353444064662
10
-11.799999999997226
20
-57.700000047684625
10
-11.799999999998096
20
-52.300000000001319
42
0.4142133851911125
10
-12.299999237058046
20
-51.800000190737592
0
CIRCLE
5
116
100
AcDbEntity
8
0
100
AcDbCircle
10
1.1368683772161603e-12
20
-40
30
0
40
3.349999999999298
210
0
220
-0
230
1
0
CIRCLE
5
117
100
AcDbEntity
8
0
100
AcDbCircle
10
0
20
0
30
0
40
3.349999999999298
210
0
220
-0
230
1
0
CIRCLE
5
118
100
AcDbEntity
8
0
100
AcDbCircle
10
40.000000000003411
20
-39.999999999998863
30
0
40
3.349999999999298
210
0
220
-0
230
1
0
CIRCLE
5
119
100
AcDbEntity
8
0
100
AcDbCircle
10
40.000000000002274
20
1.1368683772161603e-12
30
0
40
3.349999999999298
210
0
220
-0
230
1
0
ENDSEC
0
SECTION
2
OBJECTS
0
DICTIONARY
5
C
100
AcDbDictionary
3
ACAD_GROUP
350
D
3
ACAD_MLINESTYLE
350
17
0
DICTIONARY
5
D
100
AcDbDictionary
0
DICTIONARY
5
1A
330
C
100
AcDbDictionary
0
DICTIONARY
5
17
100
AcDbDictionary
0
ENDSEC
0
EOF
