0
SECTION
2
HEADER
9
$INSUNITS
70
4
9
$ACADVER
1
AC1014
9
$HANDSEED
5
FFFF
0
ENDSEC
0
SECTION
2
TABLES
0
TABLE
2
VPORT
5
8
100
AcDbSymbolTable
0
ENDTAB
0
TABLE
2
LTYPE
5
5
100
AcDbSymbolTable
0
LTYPE
5
14
100
AcDbSymbolTableRecord
100
AcDbLinetypeTableRecord
2
BYBLOCK
70
0
0
LTYPE
5
15
100
AcDbSymbolTableRecord
100
AcDbLinetypeTableRecord
2
BYLAYER
70
0
0
LTYPE
5
16
100
AcDbSymbolTableRecord
100
AcDbLinetypeTableRecord
2
DASHED
70
0
3
Dashed __ __ __ __ __ __ __ __ __ __ __ __ __ _
72
65
73
2
40
0.75
49
0.5
74
0
49
-0.25
74
0
0
ENDTAB
0
TABLE
2
LAYER
5
2
100
AcDbSymbolTable
70
3
0
LAYER
5
50
100
AcDbSymbolTableRecord
100
AcDbLayerTableRecord
2
1
70
0
62
7
6
DASHED
0
LAYER
5
51
100
AcDbSymbolTableRecord
100
AcDbLayerTableRecord
2
0
70
0
62
7
6
CONTINUOUS
0
ENDTAB
0
TABLE
2
STYLE
5
3
100
AcDbSymbolTable
70
1
0
STYLE
5
11
100
AcDbSymbolTableRecord
100
AcDbTextStyleTableRecord
2
STANDARD
70
0
0
ENDTAB
0
TABLE
2
VIEW
5
6
100
AcDbSymbolTable
70
0
0
ENDTAB
0
TABLE
2
UCS
5
7
100
AcDbSymbolTable
70
0
0
ENDTAB
0
TABLE
2
APPID
5
9
100
AcDbSymbolTable
70
2
0
APPID
5
12
100
AcDbSymbolTableRecord
100
AcDbRegAppTableRecord
2
ACAD
70
0
0
ENDTAB
0
TABLE
2
DIMSTYLE
5
A
100
AcDbSymbolTable
70
1
0
ENDTAB
0
TABLE
2
BLOCK_RECORD
5
1
100
AcDbSymbolTable
70
1
0
BLOCK_RECORD
5
1F
100
AcDbSymbolTableRecord
100
AcDbBlockTableRecord
2
*MODEL_SPACE
0
BLOCK_RECORD
5
1B
100
AcDbSymbolTableRecord
100
AcDbBlockTableRecord
2
*PAPER_SPACE
0
ENDTAB
0
ENDSEC
0
SECTION
2
BLOCKS
0
BLOCK
5
20
100
AcDbEntity
100
AcDbBlockBegin
2
*MODEL_SPACE
0
ENDBLK
5
21
100
AcDbEntity
100
AcDbBlockEnd
0
BLOCK
5
1C
100
AcDbEntity
100
AcDbBlockBegin
2
*PAPER_SPACE
0
ENDBLK
5
1D
100
AcDbEntity
100
AcDbBlockEnd
0
ENDSEC
0
SECTION
2
ENTITIES
0
LWPOLYLINE
5
100
100
AcDbEntity
8
0
100
AcDbPolyline
90
18
70
1
43
0.0
10
-3.5576114636501188
20
-7.7499999999986358
10
3.5576114636387492
20
-7.7499999999996305
42
-0.19891214629404869
10
7.093142361946696
20
-9.2144630864450718
10
16.110926161279586
20
-18.232231543236175
42
-0.41421406069018563
10
16.110926161282997
20
-21.767768456778605
10
7.0931423619478329
20
-30.785536913558339
42
-0.19891214629413226
10
3.5576114636387501
20
-32.250000000004917
10
-3.5576114636501184
20
-32.250000000008043
42
-0.19891214629345777
10
-7.0931423619617684
20
-30.785536913556356
10
-9.4142201380782353
20
-28.464463086449996
42
0.19891214629295634
10
-12.949751036380803
20
-27.000000000002871
10
-13.500000000001364
20
-27.000000000001734
42
-0.41421356237309503
10
-16.000000000002643
20
-24.500000000000455
10
-16.000000000002643
20
-15.500000000004093
42
-0.41421356237256224
10
-13.500000000001364
20
-13.000000000007361
10
-12.949751036385351
20
-13.000000000004093
42
0.19891214629413229
10
-9.4142201380737554
20
-11.535536913559032
10
-7.0931423619602629
20
-9.2144630864496975
42
-0.19891214629345777
0
LWPOLYLINE
5
101
100
AcDbEntity
8
0
100
AcDbPolyline
90
268
70
1
43
0.0
10
-3.4076118445864267
20
-47.599999999999909
10
3.4076118445614156
20
-47.599999999997209
42
-0.19891236738127185
10
6.9431457505056615
20
-49.064466094067029
10
8.6355339078428912
20
-50.756854251401656
42
-0.19891236539115267
10
10.100000001908997
20
-54.292388119104089
10
10.100000011135393
20
-55.499999980886514
42
-0.41421356639257573
10
7.5999999959549314
20
-57.999999999998835
42
-0.41421356254890901
10
7.0999999989915352
20
-57.499999996664428
10
7.1000000099979843
20
-55.850000003338209
42
0.41421356432835971
10
6.6000000099916178
20
-55.350000000001529
10
5.1000000000021828
20
-55.350000000000819
42
0.41421355944086402
10
4.1000000100018505
20
-56.349999999999909
10
4.1000000099916178
20
-58.500000000003638
42
0.41421356237353901
10
5.6000000099993485
20
-60.000000000005969
10
34.399999989991557
20
-60.000000000009095
42
0.41421356237131918
10
35.899999989992892
20
-58.500000000003638
10
35.899999989985645
20
-56.349999999999909
42
0.41421355944086402
10
34.900000000000091
20
-55.35000000000224
10
33.399999989992466
20
-55.350000000000819
42
0.41421356433235546
10
32.89999998998681
20
-55.850000003338209
10
32.900000000999654
20
-57.499999996664428
42
-0.41421356254358133
10
32.400000004038247
20
-58.000000000006366
42
-0.41421356639364126
10
29.899999988845138
20
-55.499999980886514
10
29.899999998074662
20
-54.292388119104089
42
-0.19891236539207185
10
31.364466092148071
20
-50.756854251401712
10
33.056854249482072
20
-49.064466094068408
42
-0.19891236738071577
10
36.592388155413573
20
-47.600000000000762
10
43.407611844561416
20
-47.599999999997216
42
-0.19891236738127174
10
46.943145750505657
20
-49.064466094067029
10
48.635533907842891
20
-50.756854251401656
42
-0.19891236539115267
10
50.100000001908995
20
-54.292388119104089
10
50.100000011135393
20
-55.499999980886514
42
-0.41421356639257573
10
47.599999995954931
20
-57.999999999998835
42
-0.41421356254491326
10
47.099999998998356
20
-57.499999996664428
10
47.100000009997984
20
-55.850000000000364
42
0.41421356822024208
10
46.600000000000819
20
-55.350000000007071
10
45.10000000999753
20
-55.350000000000819
42
0.41421356237309503
10
44.100000009996307
20
-56.349999999999909
10
44.100000009991618
20
-58.500000000003638
42
0.41421356042360208
10
45.600000000001728
20
-60.000000000002416
10
74.400000000000546
20
-60
42
0.41421356042005031
10
75.899999989989055
20
-58.500000000003638
10
75.899999989992466
20
-56.349999999999909
42
0.41421356237309503
10
74.899999989993375
20
-55.349999999998687
10
73.400000000001455
20
-55.350000000000819
42
0.41421356822823363
10
72.899999989994626
20
-55.850000000000364
10
72.900000000996101
20
-57.499999996664428
42
-0.41421356254358133
10
72.400000004038247
20
-58.000000000002814
42
-0.41421356639444046
10
69.89999998884187
20
-55.499999980886514
10
69.899999998074662
20
-54.292388119104089
42
-0.19891236539207185
10
71.364466092148064
20
-50.756854251401712
10
73.056854249482072
20
-49.064466094068408
42
-0.19891236738071577
10
76.592388155413573
20
-47.600000000000762
10
83.407611844561416
20
-47.599999999997216
42
-0.19891236738127174
10
86.943145750505664
20
-49.064466094067029
10
88.635533907845399
20
-50.756854251399147
42
-0.19891236539115256
10
90.100000001912548
20
-54.292388119104089
10
90.100000011135393
20
-55.499999980886514
42
-0.41421356639257573
10
87.599999995954931
20
-57.999999999998835
42
-0.41421356254491326
10
87.099999998998356
20
-57.499999996664428
10
87.100000009997984
20
-55.850000003338209
42
0.41421356432835971
10
86.600000009991618
20
-55.350000000001529
10
85.100000000002183
20
-55.350000000000819
42
0.41421355944086402
10
84.100000009998297
20
-56.349999999999909
10
84.100000009991618
20
-58.500000000003638
42
0.41421356237353901
10
85.600000009999349
20
-60.000000000005969
10
95.999999999999091
20
-60.000000000009095
42
0.41421356237326151
10
99.999999999996874
20
-56.000000000003638
10
100
20
-45.599999999997181
42
0.41421356041960627
10
98.499999999999091
20
-44.100000010001565
10
96.350000000002183
20
-44.100000010002987
42
0.41421356237309503
10
95.350000000000961
20
-45.100000009999803
10
95.350000000000819
20
-46.600000000000819
42
0.41421356823755706
10
95.850000000000364
20
-47.100000009998269
10
97.499999996662154
20
-47.099999999002904
42
-0.41421356255024094
10
97.999999999999829
20
-47.5999999959663
42
-0.41421356639204299
10
95.499999980875145
20
-50.100000011155146
10
94.292388119083625
20
-50.100000001912406
42
-0.19891236539146626
10
90.75685425139902
20
-48.635533907845534
10
89.064466094057693
20
-46.94314575050818
42
-0.19891236738056298
10
87.599999999986835
20
-43.407611844575058
10
87.599999999987546
20
-36.592388155424942
42
-0.19891236737979651
10
89.064466094047887
20
-33.056854249493384
10
90.756854251393094
20
-31.364466092153091
42
-0.19891236539171728
10
94.292388119083625
20
-29.899999998081768
10
95.499999980875145
20
-29.899999988848123
42
-0.41421356639177659
10
98.000000000002387
20
-32.400000004038247
42
-0.41421356255423669
10
97.499999996662154
20
-32.900000001012017
10
95.850000003326841
20
-32.899999990006563
42
0.41421356432170009
10
95.350000000001529
20
-33.399999990006108
10
95.350000000000819
20
-34.900000000000091
42
0.41421355945018745
10
96.350000000002183
20
-35.899999990006961
10
98.499999999999091
20
-35.899999990006108
42
0.41421356237442697
10
99.999999999995595
20
-34.399999990002925
10
100
20
-5.6000000100016223
42
0.41421356237309503
10
98.499999999999091
20
-4.1000000100015654
10
96.350000000002183
20
-4.1000000100029865
42
0.41421355944752364
10
95.349999999993145
20
-5.0999999999999091
10
95.349999999987176
20
-6.6000000100029865
42
0.41421356431770429
10
95.850000003326841
20
-7.1000000099985527
10
97.499999996662154
20
-7.0999999990064566
42
-0.41421356255024094
10
97.999999999999829
20
-7.5999999959663
42
-0.41421356639204299
10
95.499999980875145
20
-10.100000011155148
10
94.292388119083625
20
-10.100000001912406
42
-0.19891236539146637
10
90.75685425139902
20
-8.6355339078455327
10
89.064466094059028
20
-6.9431457505068543
42
-0.19891236737982512
10
87.599999999990814
20
-3.4076118445750585
10
87.599999999987546
20
3.4076118445750581
42
-0.19891236737979637
10
89.064466094047887
20
6.9431457505066145
10
90.756854251395595
20
8.6355339078443958
42
-0.19891236539171728
10
94.292388119083625
20
10.100000001914681
10
95.499999980875145
20
10.100000011148325
42
-0.41421356639177659
10
98.000000000002387
20
7.5999999959617526
42
-0.41421356255423669
10
97.499999996662154
20
7.0999999989879825
10
95.850000000000364
20
7.1000000099934368
42
0.41421356823222938
10
95.349999999995987
20
6.6000000000008185
10
95.350000000000819
20
5.1000000099952558
42
0.41421356236909923
10
96.350000000002183
20
4.1000000100076761
10
98.499999999999091
20
4.1000000100029865
42
0.41421356042049423
10
99.999999999995595
20
5.5999999999971806
10
99.999999988119725
20
16.000000000001364
42
0.41421355394318071
10
95.999999999994543
20
20.000000023832598
10
85.600000009999349
20
19.999999999990905
42
0.41421356237309503
10
84.100000010002844
20
18.500000000001364
10
84.100000009991618
20
16.349999999999909
42
0.41421355944219596
10
85.100000000002183
20
15.349999999993855
10
86.600000009991618
20
15.349999999993997
42
0.41421356432702777
10
87.100000009990453
20
15.850000003335936
10
87.099999998994804
20
17.499999996666702
42
-0.41421356254358133
10
87.599999995954931
20
18.000000000000824
42
-0.41421356639284213
10
90.100000011142498
20
15.499999980875145
10
90.100000001912548
20
14.292388119099542
42
-0.19891236539101417
10
88.635533907840852
20
10.756854251399142
10
86.943145750497749
20
9.064466094068111
42
-0.19891236738015936
10
83.407611844561416
20
7.5999999999953607
10
76.592388155413573
20
7.6000000000020389
42
-0.19891236738071566
10
73.056854249484587
20
9.0644660940686439
10
71.364466092146927
20
10.756854251396026
42
-0.19891236539210647
10
69.899999998074662
20
14.292388119099542
10
69.89999998884187
20
15.499999980875145
42
-0.4142135663949732
10
72.400000004038247
20
17.999999999993292
42
-0.41421356253692171
10
72.900000000996101
20
17.499999996666702
10
72.899999989992921
20
15.850000000000364
42
0.41421356823356131
10
73.400000000001455
20
15.349999999997976
10
74.899999989993375
20
15.350000000000819
42
0.41421356237309503
10
75.899999989994598
20
16.349999999999909
10
75.899999989992466
20
18.500000000001364
42
0.41421356041960627
10
74.400000000000546
20
19.999999999994316
10
45.600000000001728
20
20
42
0.41421356042315804
10
44.100000009991476
20
18.500000000001364
10
44.100000009991618
20
16.349999999999909
42
0.41421356237309503
10
45.10000000999753
20
15.349999999998687
10
46.600000000000819
20
15.350000000000819
42
0.41421356822556976
10
47.100000009990453
20
15.850000000000364
10
47.099999998991251
20
17.499999996666702
42
-0.41421356254358133
10
47.599999995954931
20
17.999999999997272
42
-0.41421356639284213
10
50.100000011138945
20
15.499999980875145
10
50.100000001907148
20
14.292388119099542
42
-0.19891236539177212
10
48.635533907839424
20
10.756854251400576
10
46.943145750497763
20
9.064466094068111
42
-0.19891236738015936
10
43.407611844561416
20
7.5999999999953607
10
36.592388155413573
20
7.5999999999989143
42
-0.19891236737988005
10
33.056854249480878
20
9.0644660940603927
10
31.364466092146934
20
10.756854251396026
42
-0.19891236539210647
10
29.899999998074662
20
14.292388119099542
10
29.899999988848691
20
15.499999980875145
42
-0.41421356639417406
10
32.400000004038247
20
17.999999999993292
42
-0.41421356253692171
10
32.900000000996101
20
17.499999996666702
10
32.899999989988373
20
15.850000003335936
42
0.41421356433102352
10
33.399999989992466
20
15.350000000001529
10
34.900000000000091
20
15.349999999993997
42
0.41421355944086402
10
35.89999998999005
20
16.349999999999909
10
35.899999989992466
20
18.500000000001364
42
0.4142135623708752
10
34.399999989991557
20
19.999999999995879
10
5.6000000099993485
20
19.999999999990905
42
0.41421356237309503
10
4.1000000100028435
20
18.500000000001364
10
4.1000000099916178
20
16.349999999999909
42
0.41421355944219596
10
5.1000000000021828
20
15.349999999997408
10
6.6000000099916178
20
15.349999999993997
42
0.41421356432702777
10
7.1000000099940053
20
15.850000003335936
10
7.0999999989879825
20
17.499999996666702
42
-0.41421356254757707
10
7.5999999959549314
20
17.999999999997272
42
-0.41421356639284213
10
10.100000011138945
20
15.499999980875145
10
10.100000001908997
20
14.292388119099543
42
-0.19891236539101417
10
8.6355339078383437
20
10.756854251401652
10
6.9431457504977603
20
9.064466094068111
42
-0.19891236738015936
10
3.4076118445614161
20
7.5999999999953607
10
-3.4076118445864259
20
7.5999999999989143
42
-0.19891236737988005
10
-6.9431457505191219
20
9.0644660940603927
10
-8.6355339078555815
20
10.756854251393513
42
-0.19891236539210647
10
-10.100000001928892
20
14.292388119099542
10
-10.100000011151309
20
15.499999980875145
42
-0.41421356639417406
10
-7.5999999959617526
20
17.999999999993292
42
-0.41421356253692171
10
-7.0999999990038987
20
17.499999996666702
10
-7.1000000100070793
20
15.850000003335936
42
0.41421356433102352
10
-6.600000010007534
20
15.350000000005082
10
-5.0999999999999091
20
15.349999999993997
42
0.41421355944086402
10
-4.100000010006398
20
16.349999999999909
10
-4.100000010007534
20
18.500000000001364
42
0.4142135623708752
10
-5.6000000100084435
20
19.999999999995879
10
-16.000000000001364
20
20.000000011868906
42
0.41421355394334719
10
-19.999999976160435
20
16.000000000001364
10
-20.000000000011369
20
5.5999999999971806
42
0.41421356042093821
10
-18.500000000001364
20
4.100000009997018
10
-16.349999999999909
20
4.1000000099938916
42
0.41421356236443752
10
-15.35000000000295
20
5.1000000099952558
10
-15.349999999998545
20
6.6000000000008185
42
0.4142135682269017
10
-15.850000000002638
20
7.1000000099927263
10
-17.499999996671249
20
7.0999999989915352
42
-0.41421356255556863
10
-18.000000000005372
20
7.5999999959617526
42
-0.41421356639177659
10
-15.49999998088424
20
10.100000011144772
10
-14.292388119113184
20
10.100000001904021
42
-0.19891236539259952
10
-10.756854251413372
20
8.6355339078425413
10
-9.0644660940727153
20
6.9431457505022509
42
-0.19891236738021431
10
-7.6000000000108514
20
3.4076118445750581
10
-7.6000000000108514
20
-3.4076118445750558
42
-0.19891236738070148
10
-9.0644660940761277
20
-6.943145750510209
10
-10.756854251419059
20
-8.6355339078505011
42
-0.1989123653921816
10
-14.292388119113184
20
-10.100000001906295
10
-15.49999998088424
20
-10.100000011155148
42
-0.41421356639204299
10
-18.000000000010203
20
-7.5999999959663
42
-0.41421356255157288
10
-17.499999996671249
20
-7.0999999990029039
10
-15.850000003338209
20
-7.100000010000258
42
0.41421356431903622
10
-15.350000000007071
20
-6.6000000100029865
10
-15.350000000009913
20
-5.0999999999999091
42
0.4142135594441938
10
-16.349999999999909
20
-4.1000000100021348
10
-18.500000000001364
20
-4.1000000100029865
42
0.41421356237353901
10
-20.000000000000142
20
-5.6000000100016223
10
-20
20
-34.399999990002925
42
0.41421356237487095
10
-18.500000000001364
20
-35.899999990006251
10
-16.349999999999909
20
-35.899999990006108
42
0.41421355944685767
10
-15.349999999998687
20
-34.900000000000091
10
-15.349999999998545
20
-33.399999990006108
42
0.41421356432303197
10
-15.850000003338209
20
-32.899999990003721
10
-17.499999996671249
20
-32.900000001008465
42
-0.41421356255556863
10
-18.000000000005372
20
-32.400000004038247
42
-0.41421356639177659
10
-15.49999998088424
20
-29.899999988855228
10
-14.292388119113184
20
-29.899999998085178
42
-0.1989123653935187
10
-10.756854251410918
20
-31.364466092155002
10
-9.0644660940752289
20
-33.056854249500262
42
-0.19891236738021431
10
-7.6000000000144041
20
-36.592388155424942
10
-7.6000000000144023
20
-43.407611844575058
42
-0.19891236738095228
10
-9.0644660940820483
20
-46.943145750511107
10
-10.756854251419059
20
-48.635533907850501
42
-0.1989123653921816
10
-14.292388119113184
20
-50.100000001906295
10
-15.49999998088424
20
-50.100000011155146
42
-0.41421356639204299
10
-18.000000000010203
20
-47.5999999959663
42
-0.41421356255157288
10
-17.499999996671249
20
-47.099999999002904
10
-15.850000000002638
20
-47.100000010000258
42
0.41421356823222938
10
-15.350000000003803
20
-46.600000000000819
10
-15.350000000009913
20
-45.100000009999803
42
0.41421356236710138
10
-16.349999999999909
20
-44.100000010004123
10
-18.500000000001364
20
-44.100000010002987
42
0.41421356042005031
10
-20.000000000000142
20
-45.599999999997181
10
-20
20
-56.000000000003638
42
0.41421356237342799
10
-16.000000000001364
20
-60.000000000000142
10
-5.6000000100084435
20
-60.000000000009095
42
0.41421356237131918
10
-4.1000000100071086
20
-58.500000000003638
10
-4.1000000100143552
20
-56.349999999999909
42
0.41421355944086402
10
-5.0999999999999091
20
-55.349999999998687
10
-6.600000010007534
20
-55.350000000000819
42
0.41421356433235546
10
-7.1000000100096372
20
-55.850000003338209
10
-7.099999999000346
20
-57.499999996664428
42
-0.41421356254358133
10
-7.5999999959617526
20
-58.000000000006366
42
-0.41421356639364126
10
-10.100000011154862
20
-55.499999980886514
10
-10.100000001928892
20
-54.292388119104089
42
-0.19891236539207185
10
-8.6355339078544446
20
-50.756854251399197
10
-6.9431457505213583
20
-49.064466094064976
42
-0.19891236738021431
0
LWPOLYLINE
5
102
100
AcDbEntity
8
0
100
AcDbPolyline
90
8
70
1
43
0.0
10
-11.800000000004617
20
17.700000047680078
42
0.41421353444397774
10
-12.300000000007003
20
18.200000000004479
10
-16.000000000001364
20
18.200000047679055
42
0.41421354704628122
10
-18.200000000001637
20
16.000000000001364
10
-18.200000000000927
20
12.300000000002456
42
0.41421356237309503
10
-17.700000000002092
20
11.80000000000291
10
-12.299999237068278
20
11.800000190728404
42
0.41421338520177176
10
-11.80000000000291
20
12.300000000002456
0
LWPOLYLINE
5
103
100
AcDbEntity
8
0
100
AcDbPolyline
90
8
70
1
43
0.0
10
-12.300000000007003
20
-58.199999999996386
42
0.41421353443865006
10
-11.80000000000817
20
-57.700000047684625
10
-11.800000000001347
20
-52.299999999997908
42
0.41421311545800327
10
-12.299999237068278
20
-51.800000000005184
10
-17.700000000002092
20
-51.800000000004616
42
0.41421356236776735
10
-18.200000000001637
20
-52.299999999997908
10
-18.200000000002063
20
-56.000000000003638
42
0.41421356237370044
10
-16.000000000001364
20
-58.19999999999709
0
LWPOLYLINE
5
104
100
AcDbEntity
8
0
100
AcDbPolyline
90
18
70
1
43
0.0
10
11.535536913539172
20
9.4142201380663302
42
0.19891214629493931
10
12.999999999984055
20
12.949751036373982
10
12.999999999998266
20
13.500000000001364
42
-0.4142135623720295
10
15.499999999999545
20
15.999999999993548
10
24.499999999995907
20
15.999999999997101
42
-0.41421356237016482
10
26.999999999984823
20
13.500000000001364
10
26.999999999995907
20
12.949751036373982
42
0.19891214629544071
10
28.464463086440364
20
9.414220138059509
10
30.785536913542128
20
7.0931423619498135
42
-0.19891214629492493
10
32.249999999983601
20
3.5576114636410239
10
32.249999999983601
20
-3.5576114636478451
42
-0.19891214629480675
10
30.785536913542128
20
-7.093142361954361
10
21.767768456761793
20
-16.110926161279828
42
-0.41421406069150413
10
18.232231543206375
20
-16.110926161284375
10
9.2144630864348969
20
-7.0931423619636949
42
-0.19891214629530823
10
7.7499999999855618
20
-3.5576114636478451
10
7.7499999999855618
20
3.557611463641023
42
-0.19891214629528792
10
9.2144630864394443
20
7.0931423619545981
0
LWPOLYLINE
5
105
100
AcDbEntity
8
0
100
AcDbPolyline
90
8
70
1
43
0.0
10
92.299999999997908
20
18.200000000000927
42
0.41421353444397774
10
91.799999999999073
20
17.700000047680078
10
91.799999999982177
20
12.300000000002456
42
0.41421338519910794
10
92.29999923704554
20
11.800000190730771
10
97.699999999992997
20
11.800000000000068
42
0.41421356237309503
10
98.199999999999363
20
12.300000000002456
10
98.199999999994247
20
16.000000000001364
42
0.41421354704537311
10
95.999999999999091
20
18.200000047679623
0
LWPOLYLINE
5
106
100
AcDbEntity
8
0
100
AcDbPolyline
90
8
70
1
43
0.0
10
91.799999999999073
20
-57.700000047684625
42
0.41421353443865006
10
92.299999999997908
20
-58.199999999996379
10
95.999999999999091
20
-58.200000000004337
42
0.41421356237339779
10
98.199999999999363
20
-56.000000000003638
10
98.199999999991832
20
-52.299999999997908
42
0.41421356236776735
10
97.699999999992997
20
-51.800000000005184
10
92.29999923704554
20
-51.799999999999656
42
0.41421311544601597
10
91.799999999998363
20
-52.299999999997908
0
LWPOLYLINE
5
107
100
AcDbEntity
8
0
100
AcDbPolyline
90
58
70
1
43
0.0
10
23.889073838711319
20
-18.232231543233897
42
0.41421406068943234
10
23.889073838717003
20
-21.767768456771783
10
32.906857638038232
20
-30.785536913556356
42
0.19891214629345771
10
36.442388536349881
20
-32.250000000005912
10
43.742893218807239
20
-32.249999999989321
42
-0.19891236737340262
10
44.096446609401028
20
-32.396446609402574
10
47.603553390603409
20
-35.90355339059299
42
-0.19891236737839385
10
47.749999999998636
20
-36.257106781188213
10
47.749999999990962
20
-43.557611463647845
42
0.19891214629589318
10
49.214463086441356
20
-47.093142361957234
10
51.535536913553543
20
-49.414220138063328
42
-0.19891214629468856
10
52.999999999999545
20
-52.94975103637853
10
52.999999999994714
20
-53.500000000003638
42
0.4142135623722959
10
55.499999999999545
20
-56.000000000005912
10
64.499999999995907
20
-55.999999999998096
42
0.4142135623722959
10
66.999999999995907
20
-53.500000000003638
10
66.999999999996476
20
-52.94975103637853
42
-0.19891214629396514
10
68.464463086440901
20
-49.414220138071414
10
70.785536913541463
20
-47.093142361953696
42
0.19891214629463366
10
72.249999999999091
20
-43.557611463647845
10
72.249999999987253
20
-36.257106781188213
42
-0.1989123673967774
10
72.3964466094003
20
-35.90355339058533
10
75.903553390593686
20
-32.396446609395014
42
-0.19891236736121168
10
76.257106781179118
20
-32.249999999996817
10
83.55761146363875
20
-32.250000000004917
42
0.19891214629413229
10
87.093142361943592
20
-30.785536913554097
10
89.41422013805321
20
-28.464463086447722
42
-0.19891214629396547
10
92.949751036367161
20
-27.000000000000455
10
93.499999999999091
20
-27.000000000001734
42
0.41421356237256224
10
95.999999999999091
20
-24.500000000000455
10
95.999999999999375
20
-15.500000000004093
42
0.4142135623720295
10
93.499999999999091
20
-12.999999999994998
10
92.949751036367161
20
-12.99999999999843
42
-0.19891214629480086
10
89.414220138055498
20
-11.535536913545457
10
87.09314236194561
20
-9.2144630864461536
42
0.1989121462932418
10
83.55761146363875
20
-7.7499999999986358
10
76.257106781179118
20
-7.7499999999895053
42
-0.19891236737458448
10
75.903553390601246
20
-7.6035533905837838
10
72.396446609402048
20
-4.0964466094015588
42
-0.19891236738856494
10
72.249999999999091
20
-3.7428932188163344
10
72.249999999983601
20
3.5576114636410239
42
0.19891214629492499
10
70.785536913545002
20
7.0931423619526868
10
68.46446308644235
20
9.4142201380614985
42
-0.19891214629583001
10
66.999999999995907
20
12.949751036373982
10
66.999999999997186
20
13.500000000001364
42
0.4142135623720295
10
64.499999999995907
20
16.000000000001364
10
55.499999999999545
20
15.999999999993548
42
0.4142135623720295
10
52.999999999999545
20
13.500000000001364
10
53.000000000001599
20
12.949751036373984
42
-0.19891214629602577
10
51.535536913545457
20
9.4142201380600454
10
49.214463086442009
20
7.0931423619520331
42
0.19891214629601153
10
47.749999999998636
20
3.5576114636410239
10
47.749999999990173
20
-3.7428932188163344
42
-0.19891236737769988
10
47.603553390595152
20
-4.0964466094033014
10
44.096446609400274
20
-7.6035533905830306
42
-0.19891236737674331
10
43.742893218807239
20
-7.7499999999986358
10
36.442388536349881
20
-7.7500000000000551
42
0.19891214629345777
10
32.906857638040492
20
-9.2144630864504506
0
LWPOLYLINE
5
108
100
AcDbEntity
8
0
100
AcDbPolyline
90
18
70
1
43
0.0
10
12.999999999994712
20
-53.500000000005912
42
0.41421356237309503
10
15.499999999999545
20
-56.000000000010743
10
24.499999999995907
20
-56.000000000007191
42
0.4142135623712303
10
26.999999999995907
20
-53.500000000005912
10
26.999999999987811
20
-52.94975103637853
42
-0.19891214629505155
10
28.464463086440901
20
-49.414220138071414
10
30.785536913548107
20
-47.093142361960346
42
0.19891214629438317
10
32.249999999999091
20
-43.557611463647845
10
32.249999999983601
20
-36.442388536358976
42
0.19891214629445225
10
30.785536913545002
20
-32.906857638056408
10
21.767768456762688
20
-23.889073838726098
42
0.41421406069244598
10
18.232231543206581
20
-23.889073838720378
10
9.2144630864371706
20
-32.906857638052223
42
0.19891214629488432
10
7.7499999999986358
20
-36.442388536358976
10
7.7499999999855618
20
-43.557611463647852
42
0.19891214629530773
10
9.2144630864413557
20
-47.093142361957234
10
11.535536913553535
20
-49.414220138063328
42
-0.19891214629468856
10
12.999999999999545
20
-52.94975103637853
0
CIRCLE
5
109
100
AcDbEntity
8
0
100
AcDbCircle
10
0
20
-40
30
0
40
3.3500000000010743
210
0
220
0
230
-1
0
CIRCLE
5
110
100
AcDbEntity
8
0
100
AcDbCircle
10
-40
20
0
30
0
40
3.3500000000010743
210
0
220
0
230
-1
0
CIRCLE
5
111
100
AcDbEntity
8
0
100
AcDbCircle
10
-40
20
-40
30
0
40
3.3500000000010743
210
0
220
0
230
-1
0
CIRCLE
5
112
100
AcDbEntity
8
0
100
AcDbCircle
10
-80
20
-40
30
0
40
3.3500000000010743
210
0
220
0
230
-1
0
CIRCLE
5
113
100
AcDbEntity
8
0
100
AcDbCircle
10
-80
20
0
30
0
40
3.3500000000010743
210
0
220
0
230
-1
0
CIRCLE
5
114
100
AcDbEntity
8
0
100
AcDbCircle
10
0
20
0
30
0
40
3.3500000000010743
210
0
220
0
230
-1
0
LWPOLYLINE
5
115
100
AcDbEntity
8
0
100
AcDbPolyline
90
18
70
1
43
0.0
10
-3.5576114636501188
20
-7.7499999999986358
10
3.5576114636387492
20
-7.7499999999996287
42
-0.19891214629404802
10
7.093142361946696
20
-9.2144630864450701
10
16.11092616127959
20
-18.232231543236171
42
-0.4142140606901864
10
16.110926161282997
20
-21.767768456778605
10
7.0931423619478338
20
-30.785536913558339
42
-0.19891214629413295
10
3.5576114636387519
20
-32.250000000004917
10
-3.5576114636501206
20
-32.250000000008043
42
-0.19891214629345685
10
-7.0931423619617675
20
-30.785536913556356
10
-9.4142201380782353
20
-28.464463086449996
42
0.19891214629295634
10
-12.949751036380803
20
-27.000000000002871
10
-13.500000000001364
20
-27.000000000001734
42
-0.41421356237309398
10
-16.000000000002643
20
-24.500000000000455
10
-16.000000000002643
20
-15.500000000004093
42
-0.41421356237256224
10
-13.500000000001364
20
-13.000000000007361
10
-12.949751036385351
20
-13.000000000004093
42
0.19891214629413217
10
-9.4142201380737554
20
-11.535536913559035
10
-7.0931423619602629
20
-9.2144630864496957
42
-0.19891214629345777
0
CIRCLE
5
116
100
AcDbEntity
8
0
100
AcDbCircle
10
0
20
-40
30
0
40
3.3500000000010743
210
0
220
0
230
1
0
LWPOLYLINE
5
117
100
AcDbEntity
8
0
100
AcDbPolyline
90
268
70
1
43
0.0
10
-3.4076118445864267
20
-47.599999999999909
10
3.4076118445614156
20
-47.599999999997209
42
-0.19891236738127185
10
6.9431457505056615
20
-49.064466094067029
10
8.6355339078428912
20
-50.756854251401656
42
-0.19891236539115267
10
10.100000001908997
20
-54.292388119104089
10
10.100000011135393
20
-55.499999980886514
42
-0.41421356639257573
10
7.5999999959549314
20
-57.999999999998835
42
-0.41421356254890901
10
7.0999999989915352
20
-57.499999996664428
10
7.1000000099979843
20
-55.850000003338209
42
0.41421356432835321
10
6.6000000099916178
20
-55.350000000001536
10
5.1000000000021828
20
-55.350000000000819
42
0.41421355944086008
10
4.1000000100018452
20
-56.349999999999909
10
4.1000000099916178
20
-58.500000000003638
42
0.41421356237353835
10
5.6000000099993485
20
-60.000000000005969
10
34.399999989991557
20
-60.000000000009095
42
0.41421356237132179
10
35.899999989992885
20
-58.500000000003638
10
35.899999989985645
20
-56.349999999999909
42
0.41421355944085753
10
34.900000000000091
20
-55.35000000000224
10
33.399999989992466
20
-55.350000000000819
42
0.41421356433235806
10
32.899999989986803
20
-55.850000003338209
10
32.900000000999654
20
-57.499999996664428
42
-0.41421356254358133
10
32.400000004038247
20
-58.000000000006366
42
-0.41421356639364126
10
29.899999988845138
20
-55.499999980886514
10
29.899999998074662
20
-54.292388119104089
42
-0.19891236539207185
10
31.364466092148071
20
-50.756854251401712
10
33.056854249482072
20
-49.064466094068408
42
-0.19891236738071577
10
36.592388155413573
20
-47.600000000000762
10
43.407611844561416
20
-47.599999999997216
42
-0.19891236738127174
10
46.943145750505657
20
-49.064466094067029
10
48.635533907842891
20
-50.756854251401656
42
-0.19891236539115267
10
50.100000001908995
20
-54.292388119104089
10
50.100000011135393
20
-55.499999980886514
42
-0.41421356639257573
10
47.599999995954931
20
-57.999999999998835
42
-0.41421356254491326
10
47.099999998998356
20
-57.499999996664428
10
47.100000009997984
20
-55.850000000000364
42
0.41421356822025768
10
46.600000000000819
20
-55.350000000007078
10
45.10000000999753
20
-55.350000000000819
42
0.4142135623730846
10
44.100000009996307
20
-56.349999999999909
10
44.100000009991618
20
-58.500000000003638
42
0.4142135604236038
10
45.600000000001728
20
-60.000000000002423
10
74.400000000000546
20
-60
42
0.41421356042005031
10
75.899999989989055
20
-58.500000000003638
10
75.899999989992466
20
-56.349999999999909
42
0.4142135623730846
10
74.899999989993375
20
-55.349999999998687
10
73.400000000001455
20
-55.350000000000819
42
0.41421356822824401
10
72.899999989994626
20
-55.850000000000364
10
72.900000000996101
20
-57.499999996664428
42
-0.41421356254358133
10
72.400000004038247
20
-58.000000000002814
42
-0.41421356639444046
10
69.89999998884187
20
-55.499999980886514
10
69.899999998074662
20
-54.292388119104089
42
-0.19891236539207185
10
71.364466092148064
20
-50.756854251401712
10
73.056854249482072
20
-49.064466094068408
42
-0.19891236738071577
10
76.592388155413573
20
-47.600000000000762
10
83.407611844561416
20
-47.599999999997216
42
-0.19891236738127174
10
86.943145750505664
20
-49.064466094067029
10
88.635533907845399
20
-50.756854251399147
42
-0.19891236539115256
10
90.100000001912548
20
-54.292388119104089
10
90.100000011135393
20
-55.499999980886514
42
-0.41421356639257573
10
87.599999995954931
20
-57.999999999998835
42
-0.41421356254491326
10
87.099999998998356
20
-57.499999996664428
10
87.100000009997984
20
-55.850000003338209
42
0.41421356432837009
10
86.600000009991618
20
-55.350000000001543
10
85.100000000002183
20
-55.350000000000819
42
0.41421355944086402
10
84.100000009998297
20
-56.349999999999909
10
84.100000009991618
20
-58.500000000003638
42
0.41421356237354079
10
85.600000009999349
20
-60.000000000005976
10
95.999999999999091
20
-60.000000000009095
42
0.41421356237326024
10
99.999999999996859
20
-56.000000000003638
10
100
20
-45.599999999997181
42
0.41421356041960455
10
98.499999999999091
20
-44.100000010001573
10
96.350000000002183
20
-44.100000010002987
42
0.41421356237310025
10
95.350000000000946
20
-45.100000009999803
10
95.350000000000819
20
-46.600000000000819
42
0.4142135682375363
10
95.850000000000364
20
-47.100000009998269
10
97.499999996662154
20
-47.099999999002904
42
-0.41421356255024094
10
97.999999999999829
20
-47.5999999959663
42
-0.41421356639204299
10
95.499999980875145
20
-50.100000011155146
10
94.292388119083625
20
-50.100000001912406
42
-0.19891236539146626
10
90.75685425139902
20
-48.635533907845534
10
89.064466094057693
20
-46.94314575050818
42
-0.19891236738056298
10
87.599999999986835
20
-43.407611844575058
10
87.599999999987546
20
-36.592388155424942
42
-0.19891236737979651
10
89.064466094047887
20
-33.056854249493384
10
90.756854251393094
20
-31.364466092153091
42
-0.19891236539171728
10
94.292388119083625
20
-29.899999998081768
10
95.499999980875145
20
-29.899999988848123
42
-0.41421356639177659
10
98.000000000002387
20
-32.400000004038247
42
-0.41421356255423669
10
97.499999996662154
20
-32.900000001012017
10
95.850000003326841
20
-32.899999990006563
42
0.41421356432170264
10
95.350000000001529
20
-33.399999990006108
10
95.350000000000819
20
-34.900000000000091
42
0.41421355945017835
10
96.350000000002183
20
-35.899999990006968
10
98.499999999999091
20
-35.899999990006108
42
0.41421356237443213
10
99.999999999995595
20
-34.399999990002925
10
100
20
-5.6000000100016223
42
0.41421356237309287
10
98.499999999999091
20
-4.1000000100015761
10
96.350000000002183
20
-4.1000000100029865
42
0.41421355944752136
10
95.349999999993145
20
-5.0999999999999091
10
95.349999999987176
20
-6.6000000100029865
42
0.4142135643176848
10
95.850000003326841
20
-7.1000000099985545
10
97.499999996662154
20
-7.0999999990064566
42
-0.41421356255024094
10
97.999999999999829
20
-7.5999999959663
42
-0.41421356639204299
10
95.499999980875145
20
-10.100000011155148
10
94.292388119083625
20
-10.100000001912406
42
-0.19891236539146637
10
90.75685425139902
20
-8.6355339078455344
10
89.064466094059028
20
-6.9431457505068543
42
-0.19891236737982512
10
87.599999999990814
20
-3.4076118445750576
10
87.599999999987546
20
3.4076118445750563
42
-0.19891236737979651
10
89.064466094047887
20
6.9431457505066154
10
90.756854251395595
20
8.6355339078443958
42
-0.19891236539171728
10
94.292388119083625
20
10.100000001914681
10
95.499999980875145
20
10.100000011148325
42
-0.41421356639177659
10
98.000000000002387
20
7.5999999959617526
42
-0.41421356255423669
10
97.499999996662154
20
7.0999999989879825
10
95.850000000000364
20
7.1000000099934368
42
0.41421356823221511
10
95.349999999996001
20
6.6000000000008185
10
95.350000000000819
20
5.1000000099952558
42
0.41421356236909729
10
96.350000000002183
20
4.1000000100076832
10
98.499999999999091
20
4.1000000100029865
42
0.4142135604204929
10
99.999999999995595
20
5.5999999999971806
10
99.999999988119725
20
16.000000000001364
42
0.41421355394318027
10
95.999999999994543
20
20.000000023832591
10
85.600000009999349
20
19.999999999990905
42
0.41421356237309548
10
84.100000010002844
20
18.500000000001364
10
84.100000009991618
20
16.349999999999909
42
0.41421355944220506
10
85.100000000002183
20
15.349999999993859
10
86.600000009991618
20
15.349999999993997
42
0.41421356432704859
10
87.100000009990453
20
15.850000003335936
10
87.099999998994804
20
17.499999996666702
42
-0.41421356254358133
10
87.599999995954931
20
18.000000000000824
42
-0.41421356639284213
10
90.100000011142498
20
15.499999980875145
10
90.100000001912548
20
14.292388119099542
42
-0.19891236539101417
10
88.635533907840852
20
10.756854251399142
10
86.943145750497749
20
9.064466094068111
42
-0.19891236738015936
10
83.407611844561416
20
7.5999999999953607
10
76.592388155413573
20
7.6000000000020389
42
-0.19891236738071566
10
73.056854249484587
20
9.0644660940686439
10
71.364466092146927
20
10.756854251396026
42
-0.19891236539210647
10
69.899999998074662
20
14.292388119099542
10
69.89999998884187
20
15.499999980875145
42
-0.4142135663949732
10
72.400000004038247
20
17.999999999993292
42
-0.41421356253692171
10
72.900000000996101
20
17.499999996666702
10
72.899999989992921
20
15.850000000000364
42
0.41421356823357175
10
73.400000000001455
20
15.349999999997976
10
74.899999989993375
20
15.350000000000819
42
0.41421356237309048
10
75.899999989994598
20
16.349999999999909
10
75.899999989992466
20
18.500000000001364
42
0.41421356041960888
10
74.400000000000546
20
19.999999999994312
10
45.600000000001728
20
20
42
0.41421356042315549
10
44.100000009991476
20
18.500000000001364
10
44.100000009991618
20
16.349999999999909
42
0.41421356237309048
10
45.10000000999753
20
15.349999999998685
10
46.600000000000819
20
15.350000000000819
42
0.41421356822557109
10
47.100000009990453
20
15.850000000000364
10
47.099999998991251
20
17.499999996666702
42
-0.41421356254358133
10
47.599999995954931
20
17.999999999997272
42
-0.41421356639284213
10
50.100000011138945
20
15.499999980875145
10
50.100000001907148
20
14.292388119099542
42
-0.19891236539177212
10
48.635533907839424
20
10.756854251400576
10
46.943145750497763
20
9.064466094068111
42
-0.19891236738015936
10
43.407611844561416
20
7.5999999999953607
10
36.592388155413573
20
7.5999999999989143
42
-0.19891236737988005
10
33.056854249480878
20
9.0644660940603927
10
31.364466092146934
20
10.756854251396026
42
-0.19891236539210647
10
29.899999998074662
20
14.292388119099542
10
29.899999988848691
20
15.499999980875145
42
-0.41421356639417406
10
32.400000004038247
20
17.999999999993292
42
-0.41421356253692171
10
32.900000000996101
20
17.499999996666702
10
32.899999989988373
20
15.850000003335936
42
0.41421356433102613
10
33.399999989992466
20
15.350000000001533
10
34.900000000000091
20
15.349999999993997
42
0.41421355944086596
10
35.89999998999005
20
16.349999999999909
10
35.899999989992466
20
18.500000000001364
42
0.41421356237087387
10
34.399999989991557
20
19.999999999995882
10
5.6000000099993485
20
19.999999999990905
42
0.41421356237309531
10
4.1000000100028435
20
18.500000000001364
10
4.1000000099916178
20
16.349999999999909
42
0.41421355944219496
10
5.1000000000021828
20
15.34999999999741
10
6.6000000099916178
20
15.349999999993997
42
0.41421356432702711
10
7.1000000099940044
20
15.850000003335936
10
7.0999999989879825
20
17.499999996666702
42
-0.41421356254757707
10
7.5999999959549314
20
17.999999999997272
42
-0.41421356639284213
10
10.100000011138945
20
15.499999980875145
10
10.100000001908997
20
14.292388119099543
42
-0.19891236539101417
10
8.6355339078383437
20
10.756854251401652
10
6.9431457504977594
20
9.064466094068111
42
-0.19891236738015936
10
3.4076118445614152
20
7.5999999999953607
10
-3.4076118445864259
20
7.5999999999989143
42
-0.19891236737988005
10
-6.9431457505191219
20
9.0644660940603927
10
-8.6355339078555815
20
10.756854251393513
42
-0.19891236539210647
10
-10.100000001928892
20
14.292388119099542
10
-10.100000011151309
20
15.499999980875145
42
-0.41421356639417406
10
-7.5999999959617526
20
17.999999999993292
42
-0.41421356253692171
10
-7.0999999990038987
20
17.499999996666702
10
-7.1000000100070793
20
15.850000003335936
42
0.41421356433102158
10
-6.600000010007534
20
15.350000000005084
10
-5.0999999999999091
20
15.349999999993997
42
0.41421355944086269
10
-4.1000000100063971
20
16.349999999999909
10
-4.100000010007534
20
18.500000000001364
42
0.41421356237087431
10
-5.6000000100084435
20
19.999999999995879
10
-16.000000000001364
20
20.000000011868906
42
0.41421355394334752
10
-19.999999976160435
20
16.000000000001364
10
-20.000000000011369
20
5.5999999999971806
42
0.41421356042093865
10
-18.500000000001364
20
4.1000000099970197
10
-16.349999999999909
20
4.1000000099938916
42
0.41421356236443885
10
-15.35000000000295
20
5.1000000099952558
10
-15.349999999998545
20
6.6000000000008185
42
0.41421356822690236
10
-15.850000000002638
20
7.1000000099927272
10
-17.499999996671249
20
7.0999999989915352
42
-0.41421356255556863
10
-18.000000000005372
20
7.5999999959617526
42
-0.41421356639177659
10
-15.49999998088424
20
10.100000011144772
10
-14.292388119113184
20
10.100000001904021
42
-0.19891236539259952
10
-10.756854251413372
20
8.6355339078425413
10
-9.0644660940727171
20
6.9431457505022518
42
-0.19891236738021442
10
-7.6000000000108514
20
3.4076118445750572
10
-7.6000000000108514
20
-3.4076118445750572
42
-0.19891236738070148
10
-9.0644660940761277
20
-6.9431457505102099
10
-10.756854251419059
20
-8.6355339078505011
42
-0.1989123653921816
10
-14.292388119113184
20
-10.100000001906295
10
-15.49999998088424
20
-10.100000011155148
42
-0.41421356639204299
10
-18.000000000010203
20
-7.5999999959663
42
-0.41421356255157288
10
-17.499999996671249
20
-7.0999999990029039
10
-15.850000003338209
20
-7.100000010000258
42
0.41421356431903555
10
-15.350000000007071
20
-6.6000000100029865
10
-15.350000000009913
20
-5.0999999999999091
42
0.41421355944419347
10
-16.349999999999909
20
-4.1000000100021348
10
-18.500000000001364
20
-4.1000000100029865
42
0.41421356237353923
10
-20.000000000000142
20
-5.6000000100016223
10
-20
20
-34.399999990002925
42
0.41421356237487222
10
-18.500000000001364
20
-35.899999990006251
10
-16.349999999999909
20
-35.899999990006108
42
0.41421355944685834
10
-15.349999999998685
20
-34.900000000000091
10
-15.349999999998545
20
-33.399999990006108
42
0.4142135643230333
10
-15.850000003338209
20
-32.899999990003721
10
-17.499999996671249
20
-32.900000001008465
42
-0.41421356255556863
10
-18.000000000005372
20
-32.400000004038247
42
-0.41421356639177659
10
-15.49999998088424
20
-29.899999988855228
10
-14.292388119113184
20
-29.899999998085178
42
-0.1989123653935187
10
-10.756854251410918
20
-31.364466092155002
10
-9.0644660940752289
20
-33.056854249500262
42
-0.19891236738021431
10
-7.6000000000144041
20
-36.592388155424942
10
-7.6000000000144023
20
-43.407611844575058
42
-0.19891236738095228
10
-9.0644660940820483
20
-46.943145750511107
10
-10.756854251419059
20
-48.635533907850501
42
-0.1989123653921816
10
-14.292388119113184
20
-50.100000001906295
10
-15.49999998088424
20
-50.100000011155146
42
-0.41421356639204299
10
-18.000000000010203
20
-47.5999999959663
42
-0.41421356255157288
10
-17.499999996671249
20
-47.099999999002904
10
-15.850000000002638
20
-47.100000010000258
42
0.41421356823222027
10
-15.350000000003801
20
-46.600000000000819
10
-15.350000000009913
20
-45.100000009999803
42
0.41421356236710266
10
-16.349999999999909
20
-44.100000010004123
10
-18.500000000001364
20
-44.100000010002987
42
0.4142135604200507
10
-20.000000000000142
20
-45.599999999997181
10
-20
20
-56.000000000003638
42
0.41421356237342688
10
-16.000000000001364
20
-60.000000000000142
10
-5.6000000100084435
20
-60.000000000009095
42
0.41421356237132195
10
-4.1000000100071112
20
-58.500000000003638
10
-4.1000000100143552
20
-56.349999999999909
42
0.41421355944086208
10
-5.0999999999999091
20
-55.34999999999868
10
-6.600000010007534
20
-55.350000000000819
42
0.41421356433235679
10
-7.100000010009639
20
-55.850000003338209
10
-7.099999999000346
20
-57.499999996664428
42
-0.41421356254358133
10
-7.5999999959617526
20
-58.000000000006366
42
-0.41421356639364126
10
-10.100000011154862
20
-55.499999980886514
10
-10.10000000192889
20
-54.292388119104089
42
-0.19891236539207197
10
-8.6355339078544429
20
-50.756854251399197
10
-6.9431457505213583
20
-49.064466094064976
42
-0.19891236738021431
0
LWPOLYLINE
5
118
100
AcDbEntity
8
0
100
AcDbPolyline
90
8
70
1
43
0.0
10
-11.800000000004617
20
17.700000047680078
42
0.41421353444397385
10
-12.300000000007003
20
18.200000000004476
10
-16.000000000001364
20
18.200000047679051
42
0.41421354704628122
10
-18.200000000001637
20
16.000000000001364
10
-18.200000000000927
20
12.300000000002456
42
0.41421356237309243
10
-17.700000000002092
20
11.80000000000291
10
-12.299999237068278
20
11.800000190728404
42
0.4142133852017692
10
-11.80000000000291
20
12.300000000002456
0
LWPOLYLINE
5
119
100
AcDbEntity
8
0
100
AcDbPolyline
90
8
70
1
43
0.0
10
-12.300000000007003
20
-58.199999999996386
42
0.4142135344386344
10
-11.80000000000817
20
-57.700000047684625
10
-11.800000000001347
20
-52.299999999997908
42
0.41421311545799544
10
-12.299999237068278
20
-51.800000000005184
10
-17.700000000002092
20
-51.800000000004616
42
0.41421356236775952
10
-18.200000000001637
20
-52.299999999997908
10
-18.200000000002063
20
-56.000000000003638
42
0.41421356237369866
10
-16.000000000001364
20
-58.19999999999709
0
LWPOLYLINE
5
120
100
AcDbEntity
8
0
100
AcDbPolyline
90
18
70
1
43
0.0
10
11.535536913539172
20
9.4142201380663302
42
0.1989121462949392
10
12.999999999984055
20
12.94975103637398
10
12.999999999998266
20
13.500000000001364
42
-0.4142135623720295
10
15.499999999999545
20
15.999999999993548
10
24.499999999995907
20
15.999999999997105
42
-0.41421356237016532
10
26.999999999984823
20
13.500000000001364
10
26.999999999995907
20
12.949751036373982
42
0.19891214629544079
10
28.464463086440364
20
9.4142201380595054
10
30.785536913542128
20
7.0931423619498135
42
-0.19891214629492354
10
32.249999999983601
20
3.5576114636410248
10
32.249999999983601
20
-3.5576114636478442
42
-0.19891214629480558
10
30.785536913542128
20
-7.0931423619543601
10
21.767768456761797
20
-16.110926161279828
42
-0.41421406069150452
10
18.232231543206375
20
-16.110926161284375
10
9.2144630864348969
20
-7.0931423619636931
42
-0.19891214629530787
10
7.7499999999855635
20
-3.5576114636478473
10
7.7499999999855653
20
3.557611463641023
42
-0.19891214629528825
10
9.2144630864394461
20
7.0931423619545981
0
CIRCLE
5
121
100
AcDbEntity
8
0
100
AcDbCircle
10
40
20
0
30
0
40
3.3500000000010743
210
0
220
0
230
1
0
CIRCLE
5
122
100
AcDbEntity
8
0
100
AcDbCircle
10
40
20
-40
30
0
40
3.3500000000010743
210
0
220
0
230
1
0
LWPOLYLINE
5
123
100
AcDbEntity
8
0
100
AcDbPolyline
90
8
70
1
43
0.0
10
92.299999999997908
20
18.200000000000927
42
0.41421353444397513
10
91.799999999999073
20
17.700000047680078
10
91.799999999982177
20
12.300000000002456
42
0.41421338519908973
10
92.29999923704554
20
11.800000190730771
10
97.699999999992997
20
11.800000000000068
42
0.41421356237309243
10
98.199999999999363
20
12.300000000002456
10
98.199999999994247
20
16.000000000001364
42
0.41421354704536895
10
95.999999999999091
20
18.200000047679623
0
LWPOLYLINE
5
124
100
AcDbEntity
8
0
100
AcDbPolyline
90
8
70
1
43
0.0
10
91.799999999999073
20
-57.700000047684625
42
0.41421353443866044
10
92.299999999997908
20
-58.199999999996372
10
95.999999999999091
20
-58.200000000004337
42
0.41421356237339896
10
98.199999999999363
20
-56.000000000003638
10
98.199999999991832
20
-52.299999999997908
42
0.41421356236777251
10
97.699999999992997
20
-51.800000000005184
10
92.29999923704554
20
-51.799999999999656
42
0.41421311544601597
10
91.799999999998363
20
-52.299999999997908
0
CIRCLE
5
125
100
AcDbEntity
8
0
100
AcDbCircle
10
80
20
-40
30
0
40
3.3500000000010743
210
0
220
0
230
1
0
CIRCLE
5
126
100
AcDbEntity
8
0
100
AcDbCircle
10
80
20
0
30
0
40
3.3500000000010743
210
0
220
0
230
1
0
LWPOLYLINE
5
127
100
AcDbEntity
8
0
100
AcDbPolyline
90
58
70
1
43
0.0
10
23.889073838711319
20
-18.232231543233897
42
0.41421406068943378
10
23.889073838717003
20
-21.767768456771783
10
32.906857638038232
20
-30.785536913556356
42
0.19891214629345688
10
36.442388536349881
20
-32.250000000005912
10
43.742893218807239
20
-32.249999999989321
42
-0.19891236737340262
10
44.096446609401028
20
-32.396446609402574
10
47.603553390603409
20
-35.90355339059299
42
-0.19891236737839385
10
47.749999999998636
20
-36.257106781188213
10
47.749999999990962
20
-43.557611463647845
42
0.19891214629589302
10
49.214463086441356
20
-47.093142361957234
10
51.535536913553543
20
-49.414220138063328
42
-0.19891214629468856
10
52.999999999999545
20
-52.94975103637853
10
52.999999999994714
20
-53.500000000003638
42
0.41421356237230006
10
55.499999999999545
20
-56.000000000005912
10
64.499999999995907
20
-55.999999999998096
42
0.4142135623722969
10
66.999999999995907
20
-53.500000000003638
10
66.999999999996461
20
-52.949751036378522
42
-0.19891214629396467
10
68.464463086440901
20
-49.414220138071414
10
70.785536913541463
20
-47.093142361953696
42
0.19891214629463366
10
72.249999999999091
20
-43.557611463647845
10
72.249999999987253
20
-36.257106781188213
42
-0.1989123673967774
10
72.3964466094003
20
-35.90355339058533
10
75.903553390593686
20
-32.396446609395014
42
-0.19891236736121168
10
76.257106781179118
20
-32.249999999996817
10
83.55761146363875
20
-32.250000000004917
42
0.19891214629413134
10
87.093142361943592
20
-30.785536913554097
10
89.41422013805321
20
-28.464463086447719
42
-0.19891214629396536
10
92.949751036367161
20
-27.000000000000455
10
93.499999999999091
20
-27.000000000001734
42
0.41421356237256329
10
95.999999999999091
20
-24.500000000000455
10
95.999999999999375
20
-15.500000000004093
42
0.41421356237203311
10
93.499999999999091
20
-12.999999999994998
10
92.949751036367161
20
-12.99999999999843
42
-0.19891214629480086
10
89.414220138055498
20
-11.535536913545457
10
87.09314236194561
20
-9.2144630864461519
42
0.19891214629324047
10
83.55761146363875
20
-7.7499999999986358
10
76.257106781179118
20
-7.7499999999895053
42
-0.19891236737458448
10
75.903553390601246
20
-7.6035533905837838
10
72.396446609402048
20
-4.0964466094015588
42
-0.19891236738856494
10
72.249999999999091
20
-3.7428932188163344
10
72.249999999983601
20
3.5576114636410305
42
0.19891214629492465
10
70.785536913545002
20
7.0931423619526868
10
68.46446308644235
20
9.4142201380614985
42
-0.19891214629583001
10
66.999999999995907
20
12.949751036373982
10
66.999999999997186
20
13.500000000001364
42
0.41421356237202894
10
64.499999999995907
20
16.000000000001364
10
55.499999999999545
20
15.999999999993548
42
0.41421356237202894
10
52.999999999999545
20
13.500000000001364
10
53.000000000001599
20
12.94975103637398
42
-0.19891214629602552
10
51.535536913545457
20
9.4142201380600454
10
49.214463086442009
20
7.093142361952034
42
0.19891214629601114
10
47.749999999998636
20
3.5576114636410239
10
47.749999999990173
20
-3.742893218816338
42
-0.19891236737769813
10
47.603553390595152
20
-4.0964466094033014
10
44.096446609400274
20
-7.6035533905830306
42
-0.19891236737674331
10
43.742893218807239
20
-7.7499999999986358
10
36.442388536349881
20
-7.7500000000000551
42
0.19891214629345733
10
32.906857638040492
20
-9.2144630864504506
0
LWPOLYLINE
5
128
100
AcDbEntity
8
0
100
AcDbPolyline
90
18
70
1
43
0.0
10
12.999999999994712
20
-53.500000000005912
42
0.41421356237309476
10
15.499999999999545
20
-56.000000000010743
10
24.499999999995907
20
-56.000000000007191
42
0.41421356237123241
10
26.999999999995907
20
-53.500000000005912
10
26.999999999987811
20
-52.949751036378522
42
-0.19891214629505108
10
28.464463086440901
20
-49.414220138071414
10
30.785536913548111
20
-47.093142361960332
42
0.19891214629438345
10
32.249999999999091
20
-43.557611463647845
10
32.249999999983601
20
-36.442388536358976
42
0.19891214629445303
10
30.785536913545002
20
-32.906857638056408
10
21.767768456762688
20
-23.889073838726098
42
0.41421406069244748
10
18.232231543206581
20
-23.889073838720378
10
9.2144630864371724
20
-32.906857638052223
42
0.19891214629488482
10
7.7499999999986358
20
-36.442388536358976
10
7.7499999999855635
20
-43.557611463647852
42
0.19891214629530796
10
9.2144630864413557
20
-47.093142361957234
10
11.535536913553537
20
-49.414220138063328
42
-0.19891214629468845
10
12.999999999999545
20
-52.94975103637853
0
CIRCLE
5
129
100
AcDbEntity
8
0
100
AcDbCircle
10
-1.1368683772161603e-11
20
0
30
0
40
3.3500000000010743
210
0
220
0
230
1
0
ENDSEC
0
SECTION
2
OBJECTS
0
DICTIONARY
5
C
100
AcDbDictionary
3
ACAD_GROUP
350
D
3
ACAD_MLINESTYLE
350
17
0
DICTIONARY
5
D
100
AcDbDictionary
0
DICTIONARY
5
1A
330
C
100
AcDbDictionary
0
DICTIONARY
5
17
100
AcDbDictionary
0
ENDSEC
0
EOF
