0
SECTION
2
HEADER
9
$INSUNITS
70
4
9
$ACADVER
1
AC1014
9
$HANDSEED
5
FFFF
0
ENDSEC
0
SECTION
2
TABLES
0
TABLE
2
VPORT
5
8
100
AcDbSymbolTable
0
ENDTAB
0
TABLE
2
LTYPE
5
5
100
AcDbSymbolTable
0
LTYPE
5
14
100
AcDbSymbolTableRecord
100
AcDbLinetypeTableRecord
2
BYBLOCK
70
0
0
LTYPE
5
15
100
AcDbSymbolTableRecord
100
AcDbLinetypeTableRecord
2
BYLAYER
70
0
0
LTYPE
5
16
100
AcDbSymbolTableRecord
100
AcDbLinetypeTableRecord
2
DASHED
70
0
3
Dashed __ __ __ __ __ __ __ __ __ __ __ __ __ _
72
65
73
2
40
0.75
49
0.5
74
0
49
-0.25
74
0
0
ENDTAB
0
TABLE
2
LAYER
5
2
100
AcDbSymbolTable
70
3
0
LAYER
5
50
100
AcDbSymbolTableRecord
100
AcDbLayerTableRecord
2
1
70
0
62
7
6
DASHED
0
LAYER
5
51
100
AcDbSymbolTableRecord
100
AcDbLayerTableRecord
2
0
70
0
62
7
6
CONTINUOUS
0
ENDTAB
0
TABLE
2
STYLE
5
3
100
AcDbSymbolTable
70
1
0
STYLE
5
11
100
AcDbSymbolTableRecord
100
AcDbTextStyleTableRecord
2
STANDARD
70
0
0
ENDTAB
0
TABLE
2
VIEW
5
6
100
AcDbSymbolTable
70
0
0
ENDTAB
0
TABLE
2
UCS
5
7
100
AcDbSymbolTable
70
0
0
ENDTAB
0
TABLE
2
APPID
5
9
100
AcDbSymbolTable
70
2
0
APPID
5
12
100
AcDbSymbolTableRecord
100
AcDbRegAppTableRecord
2
ACAD
70
0
0
ENDTAB
0
TABLE
2
DIMSTYLE
5
A
100
AcDbSymbolTable
70
1
0
ENDTAB
0
TABLE
2
BLOCK_RECORD
5
1
100
AcDbSymbolTable
70
1
0
BLOCK_RECORD
5
1F
100
AcDbSymbolTableRecord
100
AcDbBlockTableRecord
2
*MODEL_SPACE
0
BLOCK_RECORD
5
1B
100
AcDbSymbolTableRecord
100
AcDbBlockTableRecord
2
*PAPER_SPACE
0
ENDTAB
0
ENDSEC
0
SECTION
2
BLOCKS
0
BLOCK
5
20
100
AcDbEntity
100
AcDbBlockBegin
2
*MODEL_SPACE
0
ENDBLK
5
21
100
AcDbEntity
100
AcDbBlockEnd
0
BLOCK
5
1C
100
AcDbEntity
100
AcDbBlockBegin
2
*PAPER_SPACE
0
ENDBLK
5
1D
100
AcDbEntity
100
AcDbBlockEnd
0
ENDSEC
0
SECTION
2
ENTITIES
0
LWPOLYLINE
5
100
100
AcDbEntity
8
0
100
AcDbPolyline
90
320
70
1
43
0.0
10
-18.500000000001364
20
-4.1000000100051173
42
0.41421356237353901
10
-20.000000000000142
20
-5.6000000100016223
10
-20
20
-34.399999990002925
42
0.41421356237487095
10
-18.500000000001364
20
-35.899999990006251
10
-16.349999999999909
20
-35.899999990006108
42
0.41421355944685767
10
-15.349999999998687
20
-34.900000000000091
10
-15.349999999998545
20
-33.399999990006108
42
0.41421356432303197
10
-15.850000003338209
20
-32.899999990003721
10
-17.499999996671249
20
-32.900000001008465
42
-0.41421356255556863
10
-18.000000000005372
20
-32.400000004038247
42
-0.41421356639177659
10
-15.49999998088424
20
-29.899999988855228
10
-14.292388119113184
20
-29.899999998085178
42
-0.1989123653935187
10
-10.756854251410918
20
-31.364466092155002
10
-9.0644660940752289
20
-33.056854249500262
42
-0.19891236738021431
10
-7.6000000000144041
20
-36.592388155424942
10
-7.6000000000144023
20
-43.407611844575058
42
-0.19891236738095228
10
-9.0644660940820483
20
-46.943145750511107
10
-10.756854251419059
20
-48.635533907850501
42
-0.1989123653921816
10
-14.292388119113184
20
-50.100000001906295
10
-15.49999998088424
20
-50.100000011155146
42
-0.41421356639204299
10
-18.000000000010203
20
-47.5999999959663
42
-0.41421356255157288
10
-17.499999996671249
20
-47.099999999002904
10
-15.850000000002638
20
-47.100000010000258
42
0.41421356823222938
10
-15.350000000003803
20
-46.600000000000819
10
-15.350000000009913
20
-45.100000009999803
42
0.41421356236710138
10
-16.349999999999909
20
-44.100000010004123
10
-18.500000000001364
20
-44.100000010002987
42
0.41421356042005031
10
-20.000000000000142
20
-45.599999999997181
10
-20
20
-56.000000000003638
42
0.41421356237342799
10
-16.000000000001364
20
-60.000000000000142
10
-5.6000000100084435
20
-60.000000000009095
42
0.41421356237131918
10
-4.1000000100071086
20
-58.500000000003638
10
-4.1000000100143552
20
-56.349999999999909
42
0.41421355944086402
10
-5.0999999999999091
20
-55.349999999998687
10
-6.600000010007534
20
-55.350000000000819
42
0.41421356433235546
10
-7.1000000100096372
20
-55.850000003338209
10
-7.099999999000346
20
-57.499999996664428
42
-0.41421356254358133
10
-7.5999999959617526
20
-58.000000000006366
42
-0.41421356639364126
10
-10.100000011154862
20
-55.499999980886514
10
-10.100000001928892
20
-54.292388119104089
42
-0.19891236539207185
10
-8.6355339078544446
20
-50.756854251399197
10
-6.9431457505211558
20
-49.064466094065182
42
-0.19891236738021431
10
-3.4076118445864263
20
-47.600000000000193
10
3.4076118445614152
20
-47.600000000000762
42
-0.19891236738127197
10
6.9431457505031506
20
-49.064466094069545
10
8.6355339078428912
20
-50.756854251401656
42
-0.19891236539115267
10
10.100000001908997
20
-54.292388119104089
10
10.100000011135393
20
-55.499999980886514
42
-0.41421356639257573
10
7.5999999959549314
20
-57.999999999998835
42
-0.41421356254491326
10
7.0999999989983564
20
-57.499999996664428
10
7.1000000099979843
20
-55.850000000000364
42
0.41421356822024208
10
6.6000000000008185
20
-55.350000000007071
10
5.1000000099975296
20
-55.350000000000819
42
0.41421356237309503
10
4.1000000099963074
20
-56.349999999999909
10
4.1000000099870704
20
-58.500000000003638
42
0.41421356042138219
10
5.5999999999903594
20
-60.000000000002416
10
34.400000000000546
20
-60
42
0.41421356042005031
10
35.899999989989055
20
-58.500000000003638
10
35.899999989992466
20
-56.349999999999909
42
0.41421356237309503
10
34.899999989988828
20
-55.349999999998687
10
33.399999999990087
20
-55.350000000000819
42
0.41421356822157401
10
32.899999989991073
20
-55.850000000000364
10
32.90000000098928
20
-57.499999996664428
42
-0.41421356253958552
10
32.400000004038247
20
-57.999999999999261
42
-0.41421356639444046
10
29.899999988845423
20
-55.499999980886514
10
29.899999998074662
20
-54.292388119104089
42
-0.19891236539207185
10
31.364466092148071
20
-50.756854251401712
10
33.056854249476331
20
-49.064466094062666
42
-0.19891236738021431
10
36.592388155413573
20
-47.599999999996641
10
43.407611844561416
20
-47.599999999997216
42
-0.19891236738127174
10
46.943145750505657
20
-49.064466094067029
10
48.635533907842891
20
-50.756854251401656
42
-0.19891236539115267
10
50.100000001908995
20
-54.292388119104089
10
50.100000011135393
20
-55.499999980886514
42
-0.41421356639257573
10
47.599999995954931
20
-57.999999999998835
42
-0.41421356254890901
10
47.099999998991535
20
-57.499999996664428
10
47.100000009997984
20
-55.850000003338209
42
0.41421356432835971
10
46.600000009991618
20
-55.350000000001529
10
45.100000000002183
20
-55.350000000000819
42
0.41421355944086402
10
44.10000001000185
20
-56.349999999999909
10
44.100000009991618
20
-58.500000000003638
42
0.41421356237353901
10
45.600000009999349
20
-60.000000000005969
10
74.399999989991557
20
-60.000000000009095
42
0.41421356237131918
10
75.899999989992892
20
-58.500000000003638
10
75.899999989985645
20
-56.349999999999909
42
0.41421355944086402
10
74.900000000000091
20
-55.35000000000224
10
73.399999989992466
20
-55.350000000000819
42
0.41421356433235546
10
72.89999998998681
20
-55.850000003338209
10
72.900000000999654
20
-57.499999996664428
42
-0.41421356254358133
10
72.400000004038247
20
-58.000000000006366
42
-0.41421356639364126
10
69.899999988845138
20
-55.499999980886514
10
69.899999998074662
20
-54.292388119104089
42
-0.19891236539207185
10
71.364466092148064
20
-50.756854251401712
10
73.056854249482072
20
-49.064466094068408
42
-0.19891236738071577
10
76.592388155413573
20
-47.600000000000762
10
83.407611844561416
20
-47.599999999997216
42
-0.19891236738127174
10
86.943145750505664
20
-49.064466094067029
10
88.635533907842898
20
-50.756854251401656
42
-0.19891236539115267
10
90.100000001908995
20
-54.292388119104089
10
90.100000011135393
20
-55.499999980886514
42
-0.41421356639257573
10
87.599999995954931
20
-57.999999999998835
42
-0.41421356254491326
10
87.099999998998356
20
-57.499999996664428
10
87.100000009997984
20
-55.850000000000364
42
0.41421356822024208
10
86.600000000000819
20
-55.350000000007071
10
85.10000000999753
20
-55.350000000000819
42
0.41421356237309503
10
84.100000009996307
20
-56.349999999999909
10
84.100000009991618
20
-58.500000000003638
42
0.41421356042360208
10
85.600000000001728
20
-60.000000000002416
10
114.40000000000055
20
-60
42
0.41421356042005031
10
115.89999998998906
20
-58.500000000003638
10
115.89999998999247
20
-56.349999999999909
42
0.41421356237309503
10
114.89999998999338
20
-55.349999999998687
10
113.40000000000146
20
-55.350000000000819
42
0.41421356822823363
10
112.89999998999463
20
-55.850000000000364
10
112.9000000009961
20
-57.499999996664428
42
-0.41421356254358133
10
112.40000000403825
20
-58.000000000002814
42
-0.41421356639444046
10
109.89999998884187
20
-55.499999980886514
10
109.89999999807468
20
-54.292388119104089
42
-0.19891236539207219
10
111.36446609214808
20
-50.756854251401712
10
113.05685424948207
20
-49.064466094068408
42
-0.19891236738071577
10
116.59238815541357
20
-47.600000000000762
10
123.40761184456142
20
-47.599999999997216
42
-0.19891236738127174
10
126.94314575050566
20
-49.064466094067029
10
128.6355339078454
20
-50.756854251399147
42
-0.19891236539115256
10
130.10000000191255
20
-54.292388119104089
10
130.10000001113539
20
-55.499999980886514
42
-0.41421356639257573
10
127.59999999595493
20
-57.999999999998835
42
-0.41421356254491326
10
127.09999999899836
20
-57.499999996664428
10
127.10000000999798
20
-55.850000003338209
42
0.41421356432835971
10
126.60000000999162
20
-55.350000000001529
10
125.10000000000218
20
-55.350000000000819
42
0.41421355944086402
10
124.1000000099983
20
-56.349999999999909
10
124.10000000999162
20
-58.500000000003638
42
0.41421356237353901
10
125.60000000999935
20
-60.000000000005969
10
135.99999999999909
20
-60.000000000009095
42
0.41421356237326151
10
139.99999999999687
20
-56.000000000003638
10
140
20
-45.599999999997181
42
0.41421356041960627
10
138.49999999999909
20
-44.100000010001565
10
136.35000000000218
20
-44.100000010002987
42
0.41421356237309503
10
135.35000000000096
20
-45.100000009999803
10
135.35000000000082
20
-46.600000000000819
42
0.41421356823755706
10
135.85000000000036
20
-47.100000009998269
10
137.49999999666215
20
-47.099999999002904
42
-0.41421356255024094
10
137.99999999999983
20
-47.5999999959663
42
-0.41421356639204299
10
135.49999998087515
20
-50.100000011155146
10
134.29238811908363
20
-50.100000001912406
42
-0.19891236539146626
10
130.75685425139903
20
-48.635533907845534
10
129.06446609405771
20
-46.94314575050818
42
-0.19891236738056298
10
127.59999999998684
20
-43.407611844575058
10
127.59999999998755
20
-36.592388155424942
42
-0.19891236737979651
10
129.06446609404787
20
-33.056854249493384
10
130.75685425139309
20
-31.364466092153091
42
-0.19891236539171728
10
134.29238811908363
20
-29.899999998081768
10
135.49999998087515
20
-29.899999988848123
42
-0.41421356639177659
10
138.00000000000239
20
-32.400000004038247
42
-0.41421356255423669
10
137.49999999666215
20
-32.900000001012017
10
135.85000000332684
20
-32.899999990006563
42
0.41421356432170009
10
135.35000000000153
20
-33.399999990006108
10
135.35000000000082
20
-34.900000000000091
42
0.41421355945018745
10
136.35000000000218
20
-35.899999990006961
10
138.49999999999909
20
-35.899999990006108
42
0.41421356237442697
10
139.99999999999559
20
-34.399999990002925
10
140
20
-5.6000000100016223
42
0.41421356237309503
10
138.49999999999909
20
-4.1000000100015654
10
136.35000000000218
20
-4.1000000100029865
42
0.41421355944752364
10
135.34999999999314
20
-5.0999999999999091
10
135.34999999998718
20
-6.6000000100029865
42
0.41421356431770429
10
135.85000000332684
20
-7.1000000099985527
10
137.49999999666215
20
-7.0999999990064566
42
-0.41421356255024094
10
137.99999999999983
20
-7.5999999959663
42
-0.41421356639204299
10
135.49999998087515
20
-10.100000011155148
10
134.29238811908363
20
-10.100000001912406
42
-0.19891236539146637
10
130.75685425139903
20
-8.6355339078455327
10
129.06446609405901
20
-6.9431457505068543
42
-0.19891236737982512
10
127.59999999999081
20
-3.4076118445750585
10
127.59999999998755
20
3.4076118445750581
42
-0.19891236737979637
10
129.06446609404787
20
6.9431457505066145
10
130.75685425139559
20
8.6355339078443958
42
-0.19891236539171728
10
134.29238811908363
20
10.100000001914681
10
135.49999998087515
20
10.100000011148325
42
-0.41421356639177659
10
138.00000000000239
20
7.5999999959617526
42
-0.41421356255423669
10
137.49999999666215
20
7.0999999989879825
10
135.85000000000036
20
7.1000000099934368
42
0.41421356823222938
10
135.34999999999599
20
6.6000000000008185
10
135.35000000000082
20
5.1000000099952558
42
0.41421356236909923
10
136.35000000000218
20
4.1000000100076761
10
138.49999999999909
20
4.1000000100029865
42
0.41421356042049423
10
139.99999999999559
20
5.5999999999971806
10
139.99999998811973
20
16.000000000001364
42
0.41421355394318071
10
135.99999999999454
20
20.000000023832598
10
125.60000000999935
20
19.999999999990905
42
0.41421356237309503
10
124.10000001000284
20
18.500000000001364
10
124.10000000999162
20
16.349999999999909
42
0.41421355944219596
10
125.10000000000218
20
15.349999999993855
10
126.60000000999162
20
15.349999999993997
42
0.41421356432702777
10
127.10000000999045
20
15.850000003335936
10
127.0999999989948
20
17.499999996666702
42
-0.41421356254358133
10
127.59999999595493
20
18.000000000000824
42
-0.41421356639284213
10
130.1000000111425
20
15.499999980875145
10
130.10000000191255
20
14.292388119099542
42
-0.19891236539101417
10
128.63553390784085
20
10.756854251399142
10
126.94314575049775
20
9.064466094068111
42
-0.19891236738015936
10
123.40761184456142
20
7.5999999999953607
10
116.59238815541357
20
7.6000000000020318
42
-0.19891236738071613
10
113.05685424948457
20
9.0644660940686439
10
111.36446609214694
20
10.756854251396026
42
-0.19891236539210647
10
109.89999999807466
20
14.292388119099542
10
109.89999998884187
20
15.499999980875145
42
-0.4142135663949732
10
112.40000000403825
20
17.999999999993292
42
-0.41421356253692171
10
112.9000000009961
20
17.499999996666702
10
112.89999998999292
20
15.850000000000364
42
0.41421356823356131
10
113.40000000000146
20
15.349999999997976
10
114.89999998999338
20
15.350000000000819
42
0.41421356237309503
10
115.8999999899946
20
16.349999999999909
10
115.89999998999247
20
18.500000000001364
42
0.41421356041960627
10
114.40000000000055
20
19.999999999994316
10
85.600000000001728
20
20
42
0.41421356042315804
10
84.100000009991476
20
18.500000000001364
10
84.100000009991618
20
16.349999999999909
42
0.41421356237309503
10
85.10000000999753
20
15.349999999998687
10
86.600000000000819
20
15.350000000000819
42
0.41421356822556976
10
87.100000009990453
20
15.850000000000364
10
87.099999998991251
20
17.499999996666702
42
-0.41421356254358133
10
87.599999995954931
20
17.999999999997272
42
-0.41421356639284213
10
90.100000011138945
20
15.499999980875145
10
90.100000001907148
20
14.292388119099542
42
-0.19891236539177246
10
88.635533907839417
20
10.756854251400576
10
86.943145750497749
20
9.064466094068111
42
-0.19891236738015936
10
83.407611844561416
20
7.5999999999953607
10
76.592388155413573
20
7.5999999999989143
42
-0.19891236737988005
10
73.056854249480878
20
9.0644660940603927
10
71.364466092146927
20
10.756854251396026
42
-0.19891236539210647
10
69.899999998074662
20
14.292388119099542
10
69.899999988848691
20
15.499999980875145
42
-0.41421356639417406
10
72.400000004038247
20
17.999999999993292
42
-0.41421356253692171
10
72.900000000996101
20
17.499999996666702
10
72.899999989988373
20
15.850000003335936
42
0.41421356433102352
10
73.399999989992466
20
15.350000000001529
10
74.900000000000091
20
15.349999999993997
42
0.41421355944086402
10
75.89999998999005
20
16.349999999999909
10
75.899999989992466
20
18.500000000001364
42
0.4142135623708752
10
74.399999989991557
20
19.999999999995879
10
45.600000009999349
20
19.999999999990905
42
0.41421356237309503
10
44.100000010002844
20
18.500000000001364
10
44.100000009991618
20
16.349999999999909
42
0.41421355944219596
10
45.100000000002183
20
15.349999999997408
10
46.600000009991618
20
15.349999999993997
42
0.41421356432702777
10
47.100000009994005
20
15.850000003335936
10
47.099999998987983
20
17.499999996666702
42
-0.41421356254757707
10
47.599999995954931
20
17.999999999997272
42
-0.41421356639284213
10
50.100000011138945
20
15.499999980875145
10
50.100000001908995
20
14.292388119099542
42
-0.19891236539101428
10
48.635533907838344
20
10.756854251401652
10
46.943145750497763
20
9.064466094068111
42
-0.19891236738015936
10
43.407611844561416
20
7.5999999999953607
10
36.592388155413573
20
7.5999999999989143
42
-0.19891236737988005
10
33.056854249480878
20
9.0644660940603927
10
31.364466092146934
20
10.756854251396026
42
-0.19891236539210647
10
29.899999998074662
20
14.292388119099542
10
29.899999988845423
20
15.499999980875145
42
-0.4142135663949732
10
32.400000004038247
20
17.999999999993292
42
-0.41421356253292591
10
32.90000000098928
20
17.499999996666702
10
32.899999989992921
20
15.850000000000364
42
0.4142135682269017
10
33.399999999990087
20
15.349999999994424
10
34.899999989988828
20
15.350000000000819
42
0.41421356237309503
10
35.89999998999005
20
16.349999999999909
10
35.899999989992466
20
18.500000000001364
42
0.41421356041960627
10
34.400000000000546
20
19.999999999994316
10
5.5999999999903594
20
20
42
0.41421356042093821
10
4.1000000099914748
20
18.500000000001364
10
4.1000000099870704
20
16.349999999999909
42
0.41421356237309503
10
5.1000000099975296
20
15.349999999998687
10
6.6000000000008185
20
15.350000000000819
42
0.41421356822556976
10
7.1000000099904526
20
15.850000000000364
10
7.0999999989948037
20
17.499999996666702
42
-0.41421356254358133
10
7.5999999959549314
20
18.000000000000824
42
-0.41421356639284213
10
10.100000011142498
20
15.499999980875145
10
10.100000001907146
20
14.292388119099542
42
-0.19891236539177212
10
8.6355339078394238
20
10.756854251400576
10
6.9431457505031506
20
9.0644660940672708
42
-0.19891236738127208
10
3.4076118445614161
20
7.599999999998488
10
-3.4076118445864259
20
7.5999999999989143
42
-0.19891236737988005
10
-6.9431457505191219
20
9.0644660940603927
10
-8.6355339078555815
20
10.756854251393513
42
-0.19891236539210647
10
-10.100000001928892
20
14.292388119099542
10
-10.100000011151309
20
15.499999980875145
42
-0.41421356639417406
10
-7.5999999959617526
20
17.999999999993292
42
-0.41421356253692171
10
-7.0999999990038987
20
17.499999996666702
10
-7.1000000100070793
20
15.850000003335936
42
0.41421356433102352
10
-6.600000010007534
20
15.350000000005082
10
-5.0999999999999091
20
15.349999999993997
42
0.41421355944086402
10
-4.100000010006398
20
16.349999999999909
10
-4.100000010007534
20
18.500000000001364
42
0.4142135623708752
10
-5.6000000100084435
20
19.999999999995879
10
-16.000000000001364
20
20.000000011868906
42
0.41421355394334719
10
-19.999999976160435
20
16.000000000001364
10
-20.000000000011369
20
5.5999999999971806
42
0.41421356042093821
10
-18.500000000001364
20
4.100000009997018
10
-16.349999999999909
20
4.1000000099938916
42
0.41421356236443752
10
-15.35000000000295
20
5.1000000099952558
10
-15.349999999998545
20
6.6000000000008185
42
0.4142135682269017
10
-15.850000000002638
20
7.1000000099927263
10
-17.499999996671249
20
7.0999999989915352
42
-0.41421356255556863
10
-18.000000000005372
20
7.5999999959617526
42
-0.41421356639177659
10
-15.49999998088424
20
10.100000011144772
10
-14.292388119113184
20
10.100000001904021
42
-0.19891236539259952
10
-10.756854251413372
20
8.6355339078425413
10
-9.0644660940727153
20
6.9431457505022509
42
-0.19891236738021431
10
-7.6000000000108514
20
3.4076118445750581
10
-7.6000000000108514
20
-3.4076118445750558
42
-0.19891236738070148
10
-9.0644660940761277
20
-6.943145750510209
10
-10.756854251419059
20
-8.6355339078505011
42
-0.1989123653921816
10
-14.292388119113184
20
-10.100000001906295
10
-15.49999998088424
20
-10.100000011155148
42
-0.41421356639204299
10
-18.000000000010203
20
-7.5999999959663
42
-0.41421356255157288
10
-17.499999996671249
20
-7.0999999990029039
10
-15.850000003338209
20
-7.100000010000258
42
0.41421356431903622
10
-15.350000000007071
20
-6.6000000100029865
10
-15.350000000009913
20
-5.0999999999999091
42
0.4142135594441938
10
-16.349999999999909
20
-4.1000000100021348
0
LWPOLYLINE
5
101
100
AcDbEntity
8
0
100
AcDbPolyline
90
18
70
1
43
0.0
10
52.999999999994714
20
-53.500000000005912
42
0.41421356237309503
10
55.499999999999545
20
-56.000000000010743
10
64.499999999995907
20
-56.000000000007191
42
0.4142135623712303
10
66.999999999995907
20
-53.500000000005912
10
66.999999999987821
20
-52.94975103637853
42
-0.19891214629505155
10
68.464463086440901
20
-49.414220138071414
10
70.785536913548114
20
-47.093142361960346
42
0.198912146294383
10
72.249999999999091
20
-43.557611463647845
10
72.249999999983601
20
-36.442388536358976
42
0.19891214629445225
10
70.785536913545002
20
-32.906857638056408
10
61.767768456762688
20
-23.889073838726098
42
0.41421406069244598
10
58.232231543206581
20
-23.889073838720378
10
49.214463086437171
20
-32.906857638052223
42
0.19891214629488435
10
47.749999999998636
20
-36.442388536358976
10
47.749999999985562
20
-43.557611463647852
42
0.19891214629530773
10
49.214463086441356
20
-47.093142361957234
10
51.535536913553543
20
-49.414220138063328
42
-0.19891214629468856
10
52.999999999999545
20
-52.94975103637853
0
LWPOLYLINE
5
102
100
AcDbEntity
8
0
100
AcDbPolyline
90
58
70
1
43
0.0
10
63.889073838711319
20
-18.232231543233897
42
0.41421406068943234
10
63.889073838717003
20
-21.767768456771783
10
72.906857638038232
20
-30.785536913556356
42
0.19891214629345766
10
76.442388536349881
20
-32.250000000005912
10
83.742893218807239
20
-32.249999999989321
42
-0.19891236737340262
10
84.096446609401028
20
-32.396446609402574
10
87.603553390603409
20
-35.90355339059299
42
-0.19891236737839052
10
87.749999999998636
20
-36.257106781188213
10
87.749999999990962
20
-43.557611463647845
42
0.19891214629589318
10
89.214463086441356
20
-47.093142361957234
10
91.535536913553543
20
-49.414220138063342
42
-0.19891214629468834
10
92.999999999999545
20
-52.94975103637853
10
92.999999999994714
20
-53.500000000003638
42
0.4142135623722959
10
95.499999999999545
20
-56.000000000005912
10
104.49999999999591
20
-55.999999999998096
42
0.4142135623722959
10
106.99999999999591
20
-53.500000000003638
10
106.99999999999648
20
-52.94975103637853
42
-0.19891214629396514
10
108.4644630864409
20
-49.414220138071414
10
110.78553691354146
20
-47.093142361953696
42
0.19891214629463366
10
112.24999999999909
20
-43.557611463647845
10
112.24999999998727
20
-36.257106781188213
42
-0.1989123673967774
10
112.3964466094003
20
-35.90355339058533
10
115.90355339059369
20
-32.396446609395014
42
-0.19891236736121504
10
116.25710678117912
20
-32.249999999996817
10
123.55761146363875
20
-32.250000000004917
42
0.19891214629413229
10
127.09314236194359
20
-30.785536913554097
10
129.4142201380532
20
-28.464463086447722
42
-0.19891214629396547
10
132.94975103636716
20
-27.000000000000455
10
133.49999999999909
20
-27.000000000001734
42
0.41421356237256224
10
135.99999999999909
20
-24.500000000000455
10
135.99999999999937
20
-15.500000000004093
42
0.4142135623720295
10
133.49999999999909
20
-12.999999999994998
10
132.94975103636716
20
-12.99999999999843
42
-0.19891214629480086
10
129.4142201380555
20
-11.535536913545457
10
127.09314236194561
20
-9.2144630864461536
42
0.1989121462932418
10
123.55761146363875
20
-7.7499999999986358
10
116.25710678117912
20
-7.7499999999895053
42
-0.19891236737458448
10
115.90355339060125
20
-7.6035533905837838
10
112.39644660940203
20
-4.0964466094015588
42
-0.19891236738856494
10
112.24999999999909
20
-3.7428932188163344
10
112.2499999999836
20
3.5576114636410239
42
0.19891214629492499
10
110.785536913545
20
7.0931423619526868
10
108.46446308644235
20
9.4142201380614932
42
-0.19891214629583026
10
106.99999999999591
20
12.949751036373982
10
106.99999999999719
20
13.500000000001364
42
0.4142135623720295
10
104.49999999999591
20
16.000000000001364
10
95.499999999999545
20
15.999999999993548
42
0.4142135623720295
10
92.999999999999545
20
13.500000000001364
10
93.000000000001606
20
12.949751036373984
42
-0.19891214629602577
10
91.535536913545457
20
9.4142201380600454
10
89.214463086442009
20
7.0931423619520331
42
0.19891214629601153
10
87.749999999998636
20
3.5576114636410239
10
87.74999999999018
20
-3.7428932188163344
42
-0.19891236737769988
10
87.603553390595152
20
-4.0964466094033014
10
84.096446609400289
20
-7.603553390583027
42
-0.19891236737674653
10
83.742893218807239
20
-7.7499999999986358
10
76.442388536349881
20
-7.7500000000000551
42
0.19891214629345777
10
72.906857638040492
20
-9.2144630864504506
0
LWPOLYLINE
5
103
100
AcDbEntity
8
0
100
AcDbPolyline
90
8
70
1
43
0.0
10
-11.800000000004617
20
17.700000047680078
42
0.41421353444397774
10
-12.300000000007003
20
18.200000000004479
10
-16.000000000001364
20
18.200000047679055
42
0.41421354704628122
10
-18.200000000001637
20
16.000000000001364
10
-18.200000000000927
20
12.300000000002456
42
0.41421356237309503
10
-17.700000000002092
20
11.80000000000291
10
-12.299999237068278
20
11.800000190728404
42
0.41421338520177176
10
-11.80000000000291
20
12.300000000002456
0
LWPOLYLINE
5
104
100
AcDbEntity
8
0
100
AcDbPolyline
90
8
70
1
43
0.0
10
131.79999999999907
20
-57.700000047684625
42
0.41421353443865006
10
132.29999999999791
20
-58.199999999996379
10
135.99999999999909
20
-58.200000000004337
42
0.41421356237339779
10
138.19999999999936
20
-56.000000000003638
10
138.19999999999183
20
-52.299999999997908
42
0.41421356236776735
10
137.699999999993
20
-51.800000000005184
10
132.29999923704554
20
-51.799999999999656
42
0.41421311544601597
10
131.79999999999836
20
-52.299999999997908
0
LWPOLYLINE
5
105
100
AcDbEntity
8
0
100
AcDbPolyline
90
8
70
1
43
0.0
10
132.29999999999791
20
18.200000000000927
42
0.41421353444397774
10
131.79999999999907
20
17.700000047680078
10
131.79999999998219
20
12.300000000002456
42
0.41421338519910794
10
132.29999923704554
20
11.800000190730771
10
137.699999999993
20
11.800000000000068
42
0.41421356237309503
10
138.19999999999936
20
12.300000000002456
10
138.19999999999425
20
16.000000000001364
42
0.41421354704537311
10
135.99999999999909
20
18.200000047679623
0
LWPOLYLINE
5
106
100
AcDbEntity
8
0
100
AcDbPolyline
90
8
70
1
43
0.0
10
-12.300000000007003
20
-58.199999999996386
42
0.41421353443865006
10
-11.80000000000817
20
-57.700000047684625
10
-11.800000000001347
20
-52.299999999997908
42
0.41421311545800327
10
-12.299999237068278
20
-51.800000000005184
10
-17.700000000002092
20
-51.800000000004616
42
0.41421356236776735
10
-18.200000000001637
20
-52.299999999997908
10
-18.200000000002063
20
-56.000000000003638
42
0.41421356237370044
10
-16.000000000001364
20
-58.19999999999709
0
LWPOLYLINE
5
107
100
AcDbEntity
8
0
100
AcDbPolyline
90
18
70
1
43
0.0
10
51.535536913539168
20
9.4142201380663302
42
0.19891214629493947
10
52.999999999984055
20
12.949751036373982
10
52.999999999998266
20
13.500000000001364
42
-0.4142135623720295
10
55.499999999999545
20
15.999999999993548
10
64.499999999995907
20
15.999999999997101
42
-0.41421356237016482
10
66.999999999984823
20
13.500000000001364
10
66.999999999995907
20
12.949751036373982
42
0.19891214629544088
10
68.464463086440361
20
9.414220138059509
10
70.785536913542131
20
7.0931423619498135
42
-0.19891214629492493
10
72.249999999983601
20
3.5576114636410239
10
72.249999999983586
20
-3.5576114636478442
42
-0.19891214629480697
10
70.785536913542131
20
-7.093142361954361
10
61.767768456761793
20
-16.110926161279828
42
-0.41421406069150402
10
58.232231543206375
20
-16.110926161284375
10
49.214463086434897
20
-7.0931423619636949
42
-0.19891214629530823
10
47.749999999985562
20
-3.5576114636478451
10
47.749999999985569
20
3.557611463641023
42
-0.19891214629528803
10
49.214463086439444
20
7.0931423619545981
0
LWPOLYLINE
5
108
100
AcDbEntity
8
0
100
AcDbPolyline
90
58
70
1
43
0.0
10
56.110926161282997
20
-21.767768456778605
42
0.41421406069018579
10
56.110926161279586
20
-18.232231543236171
10
47.093142361946704
20
-9.2144630864450718
42
0.19891214629404885
10
43.55761146363875
20
-7.7499999999986358
10
36.257106781179118
20
-7.7499999999895053
42
-0.19891236737458448
10
35.903553390601246
20
-7.6035533905837838
10
32.396446609402048
20
-4.0964466094015588
42
-0.19891236738856494
10
32.249999999999091
20
-3.7428932188163344
10
32.249999999983601
20
3.5576114636410239
42
0.19891214629492499
10
30.785536913545002
20
7.0931423619526868
10
28.464463086446628
20
9.4142201380657671
42
-0.19891214629540621
10
26.999999999995907
20
12.949751036373982
10
27.000000000000739
20
13.500000000001364
42
0.4142135623720295
10
24.499999999995907
20
16.000000000001364
10
15.499999999999545
20
15.999999999993548
42
0.4142135623720295
10
12.999999999999545
20
13.500000000001364
10
12.999999999992941
20
12.949751036373982
42
-0.19891214629493925
10
11.535536913545457
20
9.4142201380600454
10
9.2144630864420094
20
7.0931423619520331
42
0.19891214629601139
10
7.7499999999986358
20
3.5576114636410239
10
7.74999999998413
20
-3.7428932188163344
42
-0.19891236738438539
10
7.6035533905837838
20
-4.0964466094033014
10
4.0964466094002727
20
-7.6035533905830288
42
-0.19891236737674539
10
3.7428932188072395
20
-7.7499999999986358
10
-3.5576114636501188
20
-7.7500000000000551
42
0.19891214629345777
10
-7.093142361959508
20
-9.2144630864504506
10
-9.4142201380755637
20
-11.535536913557223
42
-0.19891214629413226
10
-12.949751036385351
20
-13.000000000004093
10
-13.500000000001364
20
-13.000000000007361
42
0.41421356237256224
10
-16.000000000001364
20
-15.500000000004093
10
-16.000000000002643
20
-24.500000000000455
42
0.41421356237309503
10
-13.500000000001364
20
-27.000000000000455
10
-12.949751036380803
20
-27.000000000006068
42
-0.19891214629295631
10
-9.4142201380782353
20
-28.464463086449996
10
-7.0931423619617684
20
-30.785536913556356
42
0.19891214629345771
10
-3.5576114636501188
20
-32.250000000005912
10
3.7428932188072395
20
-32.249999999991978
42
-0.19891236737005985
10
4.0964466094010277
20
-32.396446609402574
10
7.6035533905925465
20
-35.903553390592478
42
-0.19891236739176366
10
7.7499999999986358
20
-36.257106781188213
10
7.7499999999956515
20
-43.557611463647845
42
0.19891214629429943
10
9.2144630864413557
20
-47.093142361948139
10
11.53553691355134
20
-49.414220138065524
42
-0.19891214629413248
10
12.999999999999545
20
-52.94975103637853
10
12.999999999998266
20
-53.500000000003638
42
0.4142135623722959
10
15.499999999999545
20
-56.000000000003638
10
24.499999999995907
20
-55.999999999998096
42
0.4142135623722959
10
26.999999999995907
20
-53.500000000003638
10
26.999999999998678
20
-52.94975103637853
42
-0.1989121462955791
10
28.464463086440901
20
-49.414220138071414
10
30.785536913542128
20
-47.093142361954364
42
0.19891214629480697
10
32.249999999999091
20
-43.557611463647845
10
32.249999999999837
20
-36.257106781188213
42
-0.19891236738925627
10
32.3964466094003
20
-35.903553390601246
10
35.903553390599335
20
-32.396446609400662
42
-0.19891236737124171
10
36.257106781179118
20
-32.249999999996817
10
43.55761146363875
20
-32.250000000004917
42
0.19891214629413229
10
47.093142361943592
20
-30.785536913554097
0
CIRCLE
5
109
100
AcDbEntity
8
0
100
AcDbCircle
10
-39.999999999988631
20
-40
30
0
40
3.3500000000010743
210
0
220
0
230
-1
0
CIRCLE
5
110
100
AcDbEntity
8
0
100
AcDbCircle
10
-120
20
0
30
0
40
3.3500000000010743
210
0
220
0
230
-1
0
CIRCLE
5
111
100
AcDbEntity
8
0
100
AcDbCircle
10
-120
20
-40
30
0
40
3.3500000000010743
210
0
220
0
230
-1
0
CIRCLE
5
112
100
AcDbEntity
8
0
100
AcDbCircle
10
-39.999999999988631
20
0
30
0
40
3.3500000000010743
210
0
220
0
230
-1
0
CIRCLE
5
113
100
AcDbEntity
8
0
100
AcDbCircle
10
-80
20
-40
30
0
40
3.3500000000010743
210
0
220
0
230
-1
0
CIRCLE
5
114
100
AcDbEntity
8
0
100
AcDbCircle
10
-80
20
0
30
0
40
3.3500000000010743
210
0
220
0
230
-1
0
CIRCLE
5
115
100
AcDbEntity
8
0
100
AcDbCircle
10
0
20
-40
30
0
40
3.3500000000010743
210
0
220
0
230
-1
0
CIRCLE
5
116
100
AcDbEntity
8
0
100
AcDbCircle
10
0
20
0
30
0
40
3.3500000000010743
210
0
220
0
230
-1
0
LWPOLYLINE
5
117
100
AcDbEntity
8
0
100
AcDbPolyline
90
320
70
1
43
0.0
10
-18.500000000001364
20
-4.1000000100051173
42
0.41421356237353923
10
-20.000000000000142
20
-5.6000000100016223
10
-20
20
-34.399999990002925
42
0.41421356237487222
10
-18.500000000001364
20
-35.899999990006251
10
-16.349999999999909
20
-35.899999990006108
42
0.41421355944685834
10
-15.349999999998685
20
-34.900000000000091
10
-15.349999999998545
20
-33.399999990006108
42
0.4142135643230333
10
-15.850000003338209
20
-32.899999990003721
10
-17.499999996671249
20
-32.900000001008465
42
-0.41421356255556863
10
-18.000000000005372
20
-32.400000004038247
42
-0.41421356639177659
10
-15.49999998088424
20
-29.899999988855228
10
-14.292388119113184
20
-29.899999998085178
42
-0.1989123653935187
10
-10.756854251410918
20
-31.364466092155002
10
-9.0644660940752289
20
-33.056854249500262
42
-0.19891236738021431
10
-7.6000000000144041
20
-36.592388155424942
10
-7.6000000000144023
20
-43.407611844575058
42
-0.19891236738095228
10
-9.0644660940820483
20
-46.943145750511107
10
-10.756854251419059
20
-48.635533907850501
42
-0.1989123653921816
10
-14.292388119113184
20
-50.100000001906295
10
-15.49999998088424
20
-50.100000011155146
42
-0.41421356639204299
10
-18.000000000010203
20
-47.5999999959663
42
-0.41421356255157288
10
-17.499999996671249
20
-47.099999999002904
10
-15.850000000002638
20
-47.100000010000258
42
0.41421356823222027
10
-15.350000000003801
20
-46.600000000000819
10
-15.350000000009913
20
-45.100000009999803
42
0.41421356236710266
10
-16.349999999999909
20
-44.100000010004123
10
-18.500000000001364
20
-44.100000010002987
42
0.4142135604200507
10
-20.000000000000142
20
-45.599999999997181
10
-20
20
-56.000000000003638
42
0.41421356237342688
10
-16.000000000001364
20
-60.000000000000142
10
-5.6000000100084435
20
-60.000000000009095
42
0.41421356237132195
10
-4.1000000100071112
20
-58.500000000003638
10
-4.1000000100143552
20
-56.349999999999909
42
0.41421355944086208
10
-5.0999999999999091
20
-55.34999999999868
10
-6.600000010007534
20
-55.350000000000819
42
0.41421356433235679
10
-7.100000010009639
20
-55.850000003338209
10
-7.099999999000346
20
-57.499999996664428
42
-0.41421356254358133
10
-7.5999999959617526
20
-58.000000000006366
42
-0.41421356639364126
10
-10.100000011154862
20
-55.499999980886514
10
-10.10000000192889
20
-54.292388119104089
42
-0.19891236539207197
10
-8.6355339078544429
20
-50.756854251399197
10
-6.9431457505211567
20
-49.064466094065182
42
-0.19891236738021442
10
-3.407611844586425
20
-47.600000000000193
10
3.4076118445614152
20
-47.600000000000762
42
-0.19891236738127197
10
6.9431457505031506
20
-49.064466094069545
10
8.6355339078428912
20
-50.756854251401656
42
-0.19891236539115267
10
10.100000001908997
20
-54.292388119104089
10
10.100000011135393
20
-55.499999980886514
42
-0.41421356639257573
10
7.5999999959549314
20
-57.999999999998835
42
-0.41421356254491326
10
7.0999999989983564
20
-57.499999996664428
10
7.1000000099979843
20
-55.850000000000364
42
0.41421356822024991
10
6.6000000000008185
20
-55.350000000007071
10
5.1000000099975296
20
-55.350000000000819
42
0.41421356237309048
10
4.1000000099963056
20
-56.349999999999909
10
4.1000000099870704
20
-58.500000000003638
42
0.41421356042138568
10
5.5999999999903594
20
-60.000000000002416
10
34.400000000000546
20
-60
42
0.41421356042005031
10
35.899999989989055
20
-58.500000000003638
10
35.899999989992466
20
-56.349999999999909
42
0.41421356237309115
10
34.899999989988828
20
-55.349999999998687
10
33.399999999990087
20
-55.350000000000819
42
0.41421356822157918
10
32.89999998999108
20
-55.850000000000364
10
32.90000000098928
20
-57.499999996664428
42
-0.41421356253958552
10
32.400000004038247
20
-57.999999999999261
42
-0.41421356639444046
10
29.899999988845423
20
-55.499999980886514
10
29.899999998074662
20
-54.292388119104089
42
-0.19891236539207185
10
31.364466092148071
20
-50.756854251401712
10
33.056854249476331
20
-49.064466094062666
42
-0.19891236738021431
10
36.592388155413573
20
-47.599999999996641
10
43.407611844561416
20
-47.599999999997216
42
-0.19891236738127174
10
46.943145750505657
20
-49.064466094067029
10
48.635533907842891
20
-50.756854251401656
42
-0.19891236539115267
10
50.100000001908995
20
-54.292388119104089
10
50.100000011135393
20
-55.499999980886514
42
-0.41421356639257573
10
47.599999995954931
20
-57.999999999998835
42
-0.41421356254890901
10
47.099999998991535
20
-57.499999996664428
10
47.100000009997984
20
-55.850000003338209
42
0.41421356432836487
10
46.600000009991618
20
-55.350000000001536
10
45.100000000002183
20
-55.350000000000819
42
0.41421355944085619
10
44.100000010001843
20
-56.349999999999909
10
44.100000009991618
20
-58.500000000003638
42
0.41421356237353557
10
45.600000009999349
20
-60.000000000005969
10
74.399999989991557
20
-60.000000000009095
42
0.4142135623713244
10
75.899999989992878
20
-58.500000000003638
10
75.899999989985645
20
-56.349999999999909
42
0.41421355944086141
10
74.900000000000091
20
-55.350000000002233
10
73.399999989992466
20
-55.350000000000819
42
0.41421356433236067
10
72.899999989986796
20
-55.850000003338209
10
72.900000000999654
20
-57.499999996664428
42
-0.41421356254358133
10
72.400000004038247
20
-58.000000000006366
42
-0.41421356639364126
10
69.899999988845138
20
-55.499999980886514
10
69.899999998074662
20
-54.292388119104089
42
-0.19891236539207185
10
71.364466092148064
20
-50.756854251401712
10
73.056854249482072
20
-49.064466094068408
42
-0.19891236738071577
10
76.592388155413573
20
-47.600000000000762
10
83.407611844561416
20
-47.599999999997216
42
-0.19891236738127174
10
86.943145750505664
20
-49.064466094067029
10
88.635533907842898
20
-50.756854251401656
42
-0.19891236539115267
10
90.100000001908995
20
-54.292388119104089
10
90.100000011135393
20
-55.499999980886514
42
-0.41421356639257573
10
87.599999995954931
20
-57.999999999998835
42
-0.41421356254491326
10
87.099999998998356
20
-57.499999996664428
10
87.100000009997984
20
-55.850000000000364
42
0.41421356822024208
10
86.600000000000819
20
-55.350000000007071
10
85.10000000999753
20
-55.350000000000819
42
0.41421356237310025
10
84.100000009996293
20
-56.349999999999909
10
84.100000009991618
20
-58.500000000003638
42
0.4142135604236003
10
85.600000000001742
20
-60.000000000002423
10
114.40000000000055
20
-60
42
0.41421356042005031
10
115.89999998998906
20
-58.500000000003638
10
115.89999998999247
20
-56.349999999999909
42
0.41421356237310025
10
114.89999998999338
20
-55.349999999998701
10
113.40000000000146
20
-55.350000000000819
42
0.41421356822824923
10
112.89999998999463
20
-55.850000000000364
10
112.9000000009961
20
-57.499999996664428
42
-0.41421356254358133
10
112.40000000403825
20
-58.000000000002814
42
-0.41421356639444046
10
109.89999998884187
20
-55.499999980886514
10
109.89999999807466
20
-54.292388119104089
42
-0.19891236539207255
10
111.36446609214808
20
-50.756854251401705
10
113.05685424948207
20
-49.064466094068408
42
-0.19891236738071577
10
116.59238815541357
20
-47.600000000000762
10
123.40761184456142
20
-47.599999999997216
42
-0.19891236738127174
10
126.94314575050566
20
-49.064466094067029
10
128.6355339078454
20
-50.756854251399147
42
-0.19891236539115256
10
130.10000000191255
20
-54.292388119104089
10
130.10000001113539
20
-55.499999980886514
42
-0.41421356639257573
10
127.59999999595493
20
-57.999999999998835
42
-0.41421356254491326
10
127.09999999899836
20
-57.499999996664428
10
127.10000000999798
20
-55.850000003338209
42
0.41421356432837009
10
126.60000000999162
20
-55.350000000001543
10
125.10000000000218
20
-55.350000000000819
42
0.41421355944086402
10
124.1000000099983
20
-56.349999999999909
10
124.10000000999162
20
-58.500000000003638
42
0.41421356237354079
10
125.60000000999935
20
-60.000000000005976
10
135.99999999999909
20
-60.000000000009095
42
0.41421356237326024
10
139.99999999999685
20
-56.000000000003638
10
140
20
-45.599999999997181
42
0.41421356041960455
10
138.49999999999909
20
-44.100000010001573
10
136.35000000000218
20
-44.100000010002987
42
0.41421356237310025
10
135.35000000000093
20
-45.100000009999803
10
135.35000000000082
20
-46.600000000000819
42
0.4142135682375363
10
135.85000000000036
20
-47.100000009998269
10
137.49999999666215
20
-47.099999999002904
42
-0.41421356255024094
10
137.99999999999983
20
-47.5999999959663
42
-0.41421356639204299
10
135.49999998087515
20
-50.100000011155146
10
134.29238811908363
20
-50.100000001912406
42
-0.19891236539146626
10
130.75685425139903
20
-48.635533907845534
10
129.06446609405771
20
-46.94314575050818
42
-0.19891236738056298
10
127.59999999998684
20
-43.407611844575058
10
127.59999999998755
20
-36.592388155424942
42
-0.19891236737979651
10
129.06446609404787
20
-33.056854249493384
10
130.75685425139309
20
-31.364466092153091
42
-0.19891236539171728
10
134.29238811908363
20
-29.899999998081768
10
135.49999998087515
20
-29.899999988848123
42
-0.41421356639177659
10
138.00000000000239
20
-32.400000004038247
42
-0.41421356255423669
10
137.49999999666215
20
-32.900000001012017
10
135.85000000332684
20
-32.899999990006563
42
0.41421356432170264
10
135.35000000000153
20
-33.399999990006108
10
135.35000000000082
20
-34.900000000000091
42
0.41421355945017835
10
136.35000000000218
20
-35.899999990006968
10
138.49999999999909
20
-35.899999990006108
42
0.41421356237443213
10
139.99999999999559
20
-34.399999990002925
10
140
20
-5.6000000100016223
42
0.41421356237309287
10
138.49999999999909
20
-4.1000000100015761
10
136.35000000000218
20
-4.1000000100029865
42
0.41421355944752136
10
135.34999999999314
20
-5.0999999999999091
10
135.34999999998718
20
-6.6000000100029865
42
0.4142135643176848
10
135.85000000332684
20
-7.1000000099985545
10
137.49999999666215
20
-7.0999999990064566
42
-0.41421356255024094
10
137.99999999999983
20
-7.5999999959663
42
-0.41421356639204299
10
135.49999998087515
20
-10.100000011155148
10
134.29238811908363
20
-10.100000001912406
42
-0.19891236539146637
10
130.75685425139903
20
-8.6355339078455344
10
129.06446609405901
20
-6.9431457505068543
42
-0.19891236737982512
10
127.59999999999081
20
-3.4076118445750576
10
127.59999999998755
20
3.4076118445750563
42
-0.19891236737979651
10
129.06446609404787
20
6.9431457505066154
10
130.75685425139559
20
8.6355339078443958
42
-0.19891236539171728
10
134.29238811908363
20
10.100000001914681
10
135.49999998087515
20
10.100000011148325
42
-0.41421356639177659
10
138.00000000000239
20
7.5999999959617526
42
-0.41421356255423669
10
137.49999999666215
20
7.0999999989879825
10
135.85000000000036
20
7.1000000099934368
42
0.41421356823221511
10
135.34999999999602
20
6.6000000000008185
10
135.35000000000082
20
5.1000000099952558
42
0.41421356236909729
10
136.35000000000218
20
4.1000000100076832
10
138.49999999999909
20
4.1000000100029865
42
0.4142135604204929
10
139.99999999999559
20
5.5999999999971806
10
139.99999998811973
20
16.000000000001364
42
0.41421355394318027
10
135.99999999999454
20
20.000000023832591
10
125.60000000999935
20
19.999999999990905
42
0.41421356237309548
10
124.10000001000284
20
18.500000000001364
10
124.10000000999162
20
16.349999999999909
42
0.41421355944220506
10
125.10000000000218
20
15.349999999993859
10
126.60000000999162
20
15.349999999993997
42
0.41421356432704859
10
127.10000000999045
20
15.850000003335936
10
127.0999999989948
20
17.499999996666702
42
-0.41421356254358133
10
127.59999999595493
20
18.000000000000824
42
-0.41421356639284213
10
130.1000000111425
20
15.499999980875145
10
130.10000000191255
20
14.292388119099542
42
-0.19891236539101417
10
128.63553390784085
20
10.756854251399142
10
126.94314575049775
20
9.064466094068111
42
-0.19891236738015936
10
123.40761184456142
20
7.5999999999953607
10
116.59238815541357
20
7.6000000000020362
42
-0.19891236738071635
10
113.05685424948457
20
9.064466094068651
10
111.36446609214694
20
10.756854251396026
42
-0.19891236539210647
10
109.89999999807466
20
14.292388119099542
10
109.89999998884187
20
15.499999980875145
42
-0.4142135663949732
10
112.40000000403825
20
17.999999999993292
42
-0.41421356253692171
10
112.9000000009961
20
17.499999996666702
10
112.89999998999292
20
15.850000000000364
42
0.41421356823356653
10
113.40000000000146
20
15.349999999997967
10
114.89999998999338
20
15.350000000000819
42
0.41421356237310281
10
115.8999999899946
20
16.349999999999909
10
115.89999998999247
20
18.500000000001364
42
0.41421356041960716
10
114.40000000000055
20
19.999999999994319
10
85.600000000001728
20
20
42
0.41421356042315377
10
84.10000000999149
20
18.500000000001364
10
84.100000009991618
20
16.349999999999909
42
0.41421356237310281
10
85.10000000999753
20
15.349999999998696
10
86.600000000000819
20
15.350000000000819
42
0.41421356822558147
10
87.100000009990467
20
15.850000000000364
10
87.099999998991251
20
17.499999996666702
42
-0.41421356254358133
10
87.599999995954931
20
17.999999999997272
42
-0.41421356639284213
10
90.100000011138945
20
15.499999980875145
10
90.100000001907148
20
14.292388119099542
42
-0.19891236539177257
10
88.635533907839417
20
10.756854251400572
10
86.943145750497749
20
9.064466094068111
42
-0.19891236738015936
10
83.407611844561416
20
7.5999999999953607
10
76.592388155413573
20
7.5999999999989143
42
-0.19891236737988005
10
73.056854249480878
20
9.0644660940603927
10
71.364466092146927
20
10.756854251396026
42
-0.19891236539210647
10
69.899999998074662
20
14.292388119099542
10
69.899999988848691
20
15.499999980875145
42
-0.41421356639417406
10
72.400000004038247
20
17.999999999993292
42
-0.41421356253692171
10
72.900000000996101
20
17.499999996666702
10
72.899999989988373
20
15.850000003335936
42
0.41421356433101963
10
73.399999989992466
20
15.350000000001536
10
74.900000000000091
20
15.349999999993997
42
0.41421355944086924
10
75.89999998999005
20
16.349999999999909
10
75.899999989992466
20
18.500000000001364
42
0.4142135623708747
10
74.399999989991557
20
19.999999999995875
10
45.600000009999349
20
19.999999999990905
42
0.41421356237309548
10
44.100000010002844
20
18.500000000001364
10
44.100000009991618
20
16.349999999999909
42
0.4142135594421914
10
45.100000000002183
20
15.349999999997406
10
46.600000009991618
20
15.349999999993997
42
0.41421356432702905
10
47.100000009994005
20
15.850000003335936
10
47.099999998987983
20
17.499999996666702
42
-0.41421356254757707
10
47.599999995954931
20
17.999999999997272
42
-0.41421356639284213
10
50.100000011138945
20
15.499999980875145
10
50.100000001909002
20
14.292388119099542
42
-0.19891236539101442
10
48.635533907838344
20
10.756854251401649
10
46.943145750497763
20
9.064466094068111
42
-0.19891236738015936
10
43.407611844561416
20
7.5999999999953607
10
36.592388155413573
20
7.5999999999989143
42
-0.19891236737988005
10
33.056854249480878
20
9.0644660940603927
10
31.364466092146934
20
10.756854251396026
42
-0.19891236539210647
10
29.899999998074662
20
14.292388119099542
10
29.899999988845423
20
15.499999980875145
42
-0.4142135663949732
10
32.400000004038247
20
17.999999999993292
42
-0.41421356253292591
10
32.90000000098928
20
17.499999996666702
10
32.899999989992921
20
15.850000000000364
42
0.4142135682269017
10
33.399999999990087
20
15.349999999994424
10
34.899999989988828
20
15.350000000000819
42
0.41421356237309698
10
35.89999998999005
20
16.349999999999909
10
35.899999989992466
20
18.500000000001364
42
0.414213560419605
10
34.400000000000553
20
19.999999999994312
10
5.5999999999903594
20
20
42
0.41421356042093843
10
4.1000000099914748
20
18.500000000001364
10
4.1000000099870704
20
16.349999999999909
42
0.41421356237309537
10
5.1000000099975296
20
15.349999999998687
10
6.6000000000008185
20
15.350000000000819
42
0.4142135682255717
10
7.1000000099904517
20
15.850000000000364
10
7.0999999989948037
20
17.499999996666702
42
-0.41421356254358133
10
7.5999999959549314
20
18.000000000000824
42
-0.41421356639284213
10
10.100000011142498
20
15.499999980875145
10
10.100000001907144
20
14.292388119099542
42
-0.19891236539177223
10
8.6355339078394238
20
10.756854251400576
10
6.9431457505031506
20
9.0644660940672708
42
-0.19891236738127208
10
3.4076118445614152
20
7.599999999998488
10
-3.4076118445864259
20
7.5999999999989143
42
-0.19891236737988005
10
-6.9431457505191219
20
9.0644660940603927
10
-8.6355339078555815
20
10.756854251393513
42
-0.19891236539210647
10
-10.100000001928892
20
14.292388119099542
10
-10.100000011151309
20
15.499999980875145
42
-0.41421356639417406
10
-7.5999999959617526
20
17.999999999993292
42
-0.41421356253692171
10
-7.0999999990038987
20
17.499999996666702
10
-7.1000000100070793
20
15.850000003335936
42
0.41421356433102158
10
-6.600000010007534
20
15.350000000005084
10
-5.0999999999999091
20
15.349999999993997
42
0.41421355944086269
10
-4.1000000100063971
20
16.349999999999909
10
-4.100000010007534
20
18.500000000001364
42
0.41421356237087431
10
-5.6000000100084435
20
19.999999999995879
10
-16.000000000001364
20
20.000000011868906
42
0.41421355394334752
10
-19.999999976160435
20
16.000000000001364
10
-20.000000000011369
20
5.5999999999971806
42
0.41421356042093865
10
-18.500000000001364
20
4.1000000099970197
10
-16.349999999999909
20
4.1000000099938916
42
0.41421356236443885
10
-15.35000000000295
20
5.1000000099952558
10
-15.349999999998545
20
6.6000000000008185
42
0.41421356822690236
10
-15.850000000002638
20
7.1000000099927272
10
-17.499999996671249
20
7.0999999989915352
42
-0.41421356255556863
10
-18.000000000005372
20
7.5999999959617526
42
-0.41421356639177659
10
-15.49999998088424
20
10.100000011144772
10
-14.292388119113184
20
10.100000001904021
42
-0.19891236539259952
10
-10.756854251413372
20
8.6355339078425413
10
-9.0644660940727171
20
6.9431457505022518
42
-0.19891236738021442
10
-7.6000000000108514
20
3.4076118445750572
10
-7.6000000000108514
20
-3.4076118445750572
42
-0.19891236738070148
10
-9.0644660940761277
20
-6.9431457505102099
10
-10.756854251419059
20
-8.6355339078505011
42
-0.1989123653921816
10
-14.292388119113184
20
-10.100000001906295
10
-15.49999998088424
20
-10.100000011155148
42
-0.41421356639204299
10
-18.000000000010203
20
-7.5999999959663
42
-0.41421356255157288
10
-17.499999996671249
20
-7.0999999990029039
10
-15.850000003338209
20
-7.100000010000258
42
0.41421356431903555
10
-15.350000000007071
20
-6.6000000100029865
10
-15.350000000009913
20
-5.0999999999999091
42
0.41421355944419347
10
-16.349999999999909
20
-4.1000000100021348
0
CIRCLE
5
118
100
AcDbEntity
8
0
100
AcDbCircle
10
39.999999999988631
20
-40
30
0
40
3.3500000000010743
210
0
220
0
230
1
0
LWPOLYLINE
5
119
100
AcDbEntity
8
0
100
AcDbPolyline
90
18
70
1
43
0.0
10
52.999999999994714
20
-53.500000000005912
42
0.41421356237309503
10
55.499999999999545
20
-56.000000000010743
10
64.499999999995907
20
-56.000000000007191
42
0.41421356237123241
10
66.999999999995907
20
-53.500000000005912
10
66.999999999987821
20
-52.94975103637853
42
-0.19891214629505155
10
68.464463086440901
20
-49.414220138071414
10
70.785536913548114
20
-47.093142361960332
42
0.19891214629438125
10
72.249999999999091
20
-43.557611463647845
10
72.249999999983601
20
-36.442388536358969
42
0.19891214629445159
10
70.785536913545002
20
-32.906857638056408
10
61.767768456762688
20
-23.889073838726098
42
0.41421406069244748
10
58.232231543206581
20
-23.889073838720378
10
49.214463086437171
20
-32.906857638052223
42
0.19891214629488188
10
47.749999999998636
20
-36.442388536358976
10
47.749999999985562
20
-43.557611463647852
42
0.19891214629530696
10
49.214463086441356
20
-47.093142361957234
10
51.535536913553543
20
-49.414220138063328
42
-0.19891214629468856
10
52.999999999999545
20
-52.94975103637853
0
LWPOLYLINE
5
120
100
AcDbEntity
8
0
100
AcDbPolyline
90
58
70
1
43
0.0
10
63.889073838711319
20
-18.232231543233897
42
0.41421406068943378
10
63.889073838717003
20
-21.767768456771783
10
72.906857638038232
20
-30.785536913556356
42
0.19891214629345941
10
76.442388536349881
20
-32.250000000005912
10
83.742893218807239
20
-32.249999999989321
42
-0.19891236737340262
10
84.096446609401028
20
-32.396446609402574
10
87.603553390603409
20
-35.90355339059299
42
-0.19891236737839052
10
87.749999999998636
20
-36.257106781188213
10
87.749999999990962
20
-43.557611463647845
42
0.19891214629589704
10
89.214463086441356
20
-47.093142361957234
10
91.535536913553543
20
-49.414220138063342
42
-0.19891214629468834
10
92.999999999999545
20
-52.94975103637853
10
92.999999999994714
20
-53.500000000003638
42
0.41421356237230006
10
95.499999999999545
20
-56.000000000005912
10
104.49999999999591
20
-55.999999999998096
42
0.41421356237229484
10
106.99999999999591
20
-53.500000000003638
10
106.99999999999648
20
-52.949751036378522
42
-0.19891214629396467
10
108.4644630864409
20
-49.414220138071414
10
110.78553691354146
20
-47.093142361953696
42
0.19891214629463361
10
112.24999999999909
20
-43.557611463647845
10
112.24999999998727
20
-36.257106781188213
42
-0.1989123673967774
10
112.3964466094003
20
-35.90355339058533
10
115.90355339059369
20
-32.396446609395014
42
-0.19891236736121504
10
116.25710678117912
20
-32.249999999996817
10
123.55761146363875
20
-32.250000000004917
42
0.19891214629413134
10
127.09314236194359
20
-30.785536913554097
10
129.4142201380532
20
-28.464463086447719
42
-0.19891214629396536
10
132.94975103636716
20
-27.000000000000455
10
133.49999999999909
20
-27.000000000001734
42
0.41421356237256329
10
135.99999999999909
20
-24.500000000000455
10
135.99999999999937
20
-15.500000000004093
42
0.41421356237203311
10
133.49999999999909
20
-12.999999999994998
10
132.94975103636716
20
-12.99999999999843
42
-0.19891214629480086
10
129.4142201380555
20
-11.535536913545457
10
127.09314236194561
20
-9.2144630864461519
42
0.19891214629324047
10
123.55761146363875
20
-7.7499999999986358
10
116.25710678117912
20
-7.7499999999895053
42
-0.19891236737458448
10
115.90355339060125
20
-7.6035533905837838
10
112.39644660940203
20
-4.0964466094015588
42
-0.19891236738856494
10
112.24999999999909
20
-3.7428932188163344
10
112.2499999999836
20
3.5576114636410305
42
0.19891214629492385
10
110.785536913545
20
7.0931423619526868
10
108.46446308644235
20
9.4142201380614932
42
-0.19891214629583026
10
106.99999999999591
20
12.949751036373982
10
106.99999999999719
20
13.500000000001364
42
0.41421356237202689
10
104.49999999999591
20
16.000000000001364
10
95.499999999999545
20
15.999999999993548
42
0.41421356237202689
10
92.999999999999545
20
13.500000000001364
10
93.000000000001592
20
12.94975103637398
42
-0.19891214629602552
10
91.535536913545457
20
9.4142201380600454
10
89.214463086442009
20
7.093142361952034
42
0.19891214629601076
10
87.749999999998636
20
3.5576114636410239
10
87.74999999999018
20
-3.742893218816338
42
-0.19891236737769813
10
87.603553390595152
20
-4.0964466094033014
10
84.096446609400289
20
-7.603553390583027
42
-0.19891236737674653
10
83.742893218807239
20
-7.7499999999986358
10
76.442388536349881
20
-7.7500000000000551
42
0.19891214629345727
10
72.906857638040492
20
-9.2144630864504506
0
CIRCLE
5
121
100
AcDbEntity
8
0
100
AcDbCircle
10
120
20
0
30
0
40
3.3500000000010743
210
0
220
0
230
1
0
CIRCLE
5
122
100
AcDbEntity
8
0
100
AcDbCircle
10
120
20
-40
30
0
40
3.3500000000010743
210
0
220
0
230
1
0
LWPOLYLINE
5
123
100
AcDbEntity
8
0
100
AcDbPolyline
90
8
70
1
43
0.0
10
-11.800000000004617
20
17.700000047680078
42
0.41421353444397385
10
-12.300000000007003
20
18.200000000004476
10
-16.000000000001364
20
18.200000047679051
42
0.41421354704628122
10
-18.200000000001637
20
16.000000000001364
10
-18.200000000000927
20
12.300000000002456
42
0.41421356237309243
10
-17.700000000002092
20
11.80000000000291
10
-12.299999237068278
20
11.800000190728404
42
0.4142133852017692
10
-11.80000000000291
20
12.300000000002456
0
LWPOLYLINE
5
124
100
AcDbEntity
8
0
100
AcDbPolyline
90
8
70
1
43
0.0
10
131.79999999999907
20
-57.700000047684625
42
0.41421353443866044
10
132.29999999999791
20
-58.199999999996372
10
135.99999999999909
20
-58.200000000004337
42
0.41421356237339896
10
138.19999999999936
20
-56.000000000003638
10
138.19999999999183
20
-52.299999999997908
42
0.41421356236777251
10
137.699999999993
20
-51.800000000005184
10
132.29999923704554
20
-51.799999999999656
42
0.41421311544601597
10
131.79999999999836
20
-52.299999999997908
0
CIRCLE
5
125
100
AcDbEntity
8
0
100
AcDbCircle
10
39.999999999988631
20
0
30
0
40
3.3500000000010743
210
0
220
0
230
1
0
LWPOLYLINE
5
126
100
AcDbEntity
8
0
100
AcDbPolyline
90
8
70
1
43
0.0
10
132.29999999999791
20
18.200000000000927
42
0.41421353444397513
10
131.79999999999907
20
17.700000047680078
10
131.79999999998219
20
12.300000000002456
42
0.41421338519908973
10
132.29999923704554
20
11.800000190730771
10
137.699999999993
20
11.800000000000068
42
0.41421356237309243
10
138.19999999999936
20
12.300000000002456
10
138.19999999999425
20
16.000000000001364
42
0.41421354704536895
10
135.99999999999909
20
18.200000047679623
0
LWPOLYLINE
5
127
100
AcDbEntity
8
0
100
AcDbPolyline
90
8
70
1
43
0.0
10
-12.300000000007003
20
-58.199999999996386
42
0.4142135344386344
10
-11.80000000000817
20
-57.700000047684625
10
-11.800000000001347
20
-52.299999999997908
42
0.41421311545799544
10
-12.299999237068278
20
-51.800000000005184
10
-17.700000000002092
20
-51.800000000004616
42
0.41421356236775952
10
-18.200000000001637
20
-52.299999999997908
10
-18.200000000002063
20
-56.000000000003638
42
0.41421356237369866
10
-16.000000000001364
20
-58.19999999999709
0
CIRCLE
5
128
100
AcDbEntity
8
0
100
AcDbCircle
10
80
20
-40
30
0
40
3.3500000000010743
210
0
220
0
230
1
0
CIRCLE
5
129
100
AcDbEntity
8
0
100
AcDbCircle
10
80
20
0
30
0
40
3.3500000000010743
210
0
220
0
230
1
0
LWPOLYLINE
5
130
100
AcDbEntity
8
0
100
AcDbPolyline
90
18
70
1
43
0.0
10
51.535536913539168
20
9.4142201380663249
42
0.19891214629493931
10
52.999999999984055
20
12.949751036373975
10
52.999999999998266
20
13.500000000001364
42
-0.41421356237202894
10
55.499999999999545
20
15.999999999993548
10
64.499999999995907
20
15.999999999997097
42
-0.41421356237016638
10
66.999999999984823
20
13.500000000001364
10
66.999999999995907
20
12.949751036373982
42
0.19891214629544096
10
68.464463086440361
20
9.4142201380595054
10
70.785536913542131
20
7.0931423619498144
42
-0.19891214629492471
10
72.249999999983601
20
3.5576114636410305
10
72.249999999983601
20
-3.5576114636478451
42
-0.19891214629480813
10
70.785536913542131
20
-7.0931423619543601
10
61.767768456761793
20
-16.110926161279828
42
-0.41421406069150662
10
58.232231543206375
20
-16.110926161284375
10
49.214463086434897
20
-7.0931423619636949
42
-0.19891214629530465
10
47.749999999985562
20
-3.5576114636478473
10
47.749999999985562
20
3.5576114636410239
42
-0.19891214629528711
10
49.214463086439444
20
7.0931423619545981
0
CIRCLE
5
131
100
AcDbEntity
8
0
100
AcDbCircle
10
0
20
-40
30
0
40
3.3500000000010743
210
0
220
0
230
1
0
CIRCLE
5
132
100
AcDbEntity
8
0
100
AcDbCircle
10
0
20
0
30
0
40
3.3500000000010743
210
0
220
0
230
1
0
LWPOLYLINE
5
133
100
AcDbEntity
8
0
100
AcDbPolyline
90
58
70
1
43
0.0
10
56.110926161282997
20
-21.767768456778605
42
0.41421406069018768
10
56.110926161279586
20
-18.232231543236168
10
47.09314236194669
20
-9.2144630864450701
42
0.19891214629404896
10
43.55761146363875
20
-7.7499999999986358
10
36.257106781179118
20
-7.7499999999895053
42
-0.19891236737458448
10
35.903553390601246
20
-7.6035533905837838
10
32.396446609402048
20
-4.0964466094015588
42
-0.19891236738856494
10
32.249999999999091
20
-3.7428932188163344
10
32.249999999983601
20
3.5576114636410248
42
0.19891214629492357
10
30.785536913545002
20
7.0931423619526868
10
28.464463086446628
20
9.4142201380657671
42
-0.19891214629540621
10
26.999999999995907
20
12.949751036373982
10
27.000000000000739
20
13.500000000001364
42
0.41421356237203133
10
24.499999999995907
20
16.000000000001364
10
15.499999999999545
20
15.999999999993548
42
0.4142135623720295
10
12.999999999999545
20
13.500000000001364
10
12.999999999992941
20
12.949751036373982
42
-0.19891214629493925
10
11.535536913545457
20
9.4142201380600454
10
9.2144630864420112
20
7.093142361952034
42
0.1989121462960115
10
7.7499999999986358
20
3.5576114636410234
10
7.7499999999841309
20
-3.7428932188163349
42
-0.19891236738438517
10
7.6035533905837838
20
-4.0964466094033014
10
4.0964466094002718
20
-7.6035533905830288
42
-0.19891236737674514
10
3.7428932188072395
20
-7.7499999999986358
10
-3.5576114636501188
20
-7.7500000000000551
42
0.1989121462934578
10
-7.093142361959508
20
-9.2144630864504506
10
-9.4142201380755655
20
-11.535536913557225
42
-0.19891214629413215
10
-12.949751036385351
20
-13.000000000004093
10
-13.500000000001364
20
-13.000000000007361
42
0.41421356237256224
10
-16.000000000001364
20
-15.500000000004093
10
-16.000000000002643
20
-24.500000000000455
42
0.41421356237309398
10
-13.500000000001364
20
-27.000000000000455
10
-12.949751036380803
20
-27.000000000006068
42
-0.19891214629295631
10
-9.4142201380782353
20
-28.464463086449996
10
-7.0931423619617675
20
-30.785536913556356
42
0.19891214629345691
10
-3.5576114636501184
20
-32.250000000005912
10
3.7428932188072399
20
-32.249999999991978
42
-0.19891236737005952
10
4.0964466094010277
20
-32.396446609402574
10
7.6035533905925465
20
-35.903553390592478
42
-0.1989123673917633
10
7.7499999999986358
20
-36.257106781188213
10
7.7499999999956515
20
-43.557611463647852
42
0.19891214629429899
10
9.2144630864413557
20
-47.093142361948139
10
11.535536913551347
20
-49.414220138065531
42
-0.19891214629413204
10
12.999999999999545
20
-52.94975103637853
10
12.999999999998266
20
-53.500000000003638
42
0.41421356237229767
10
15.499999999999545
20
-56.000000000003638
10
24.499999999995907
20
-55.999999999998096
42
0.4142135623722959
10
26.999999999995907
20
-53.500000000003638
10
26.999999999998678
20
-52.94975103637853
42
-0.1989121462955791
10
28.464463086440901
20
-49.414220138071414
10
30.785536913542128
20
-47.093142361954364
42
0.1989121462948065
10
32.249999999999091
20
-43.557611463647845
10
32.249999999999837
20
-36.257106781188213
42
-0.19891236738925627
10
32.3964466094003
20
-35.903553390601246
10
35.903553390599335
20
-32.396446609400662
42
-0.19891236737124171
10
36.257106781179118
20
-32.249999999996817
10
43.557611463638757
20
-32.250000000004917
42
0.19891214629413168
10
47.093142361943592
20
-30.785536913554097
0
ENDSEC
0
SECTION
2
OBJECTS
0
DICTIONARY
5
C
100
AcDbDictionary
3
ACAD_GROUP
350
D
3
ACAD_MLINESTYLE
350
17
0
DICTIONARY
5
D
100
AcDbDictionary
0
DICTIONARY
5
1A
330
C
100
AcDbDictionary
0
DICTIONARY
5
17
100
AcDbDictionary
0
ENDSEC
0
EOF
