0
SECTION
2
HEADER
9
$INSUNITS
70
4
9
$ACADVER
1
AC1014
9
$HANDSEED
5
FFFF
0
ENDSEC
0
SECTION
2
TABLES
0
TABLE
2
VPORT
5
8
100
AcDbSymbolTable
0
ENDTAB
0
TABLE
2
LTYPE
5
5
100
AcDbSymbolTable
0
LTYPE
5
14
100
AcDbSymbolTableRecord
100
AcDbLinetypeTableRecord
2
BYBLOCK
70
0
0
LTYPE
5
15
100
AcDbSymbolTableRecord
100
AcDbLinetypeTableRecord
2
BYLAYER
70
0
0
LTYPE
5
16
100
AcDbSymbolTableRecord
100
AcDbLinetypeTableRecord
2
DASHED
70
0
3
Dashed __ __ __ __ __ __ __ __ __ __ __ __ __ _
72
65
73
2
40
0.75
49
0.5
74
0
49
-0.25
74
0
0
ENDTAB
0
TABLE
2
LAYER
5
2
100
AcDbSymbolTable
70
3
0
LAYER
5
50
100
AcDbSymbolTableRecord
100
AcDbLayerTableRecord
2
1
70
0
62
7
6
DASHED
0
LAYER
5
51
100
AcDbSymbolTableRecord
100
AcDbLayerTableRecord
2
0
70
0
62
7
6
CONTINUOUS
0
ENDTAB
0
TABLE
2
STYLE
5
3
100
AcDbSymbolTable
70
1
0
STYLE
5
11
100
AcDbSymbolTableRecord
100
AcDbTextStyleTableRecord
2
STANDARD
70
0
0
ENDTAB
0
TABLE
2
VIEW
5
6
100
AcDbSymbolTable
70
0
0
ENDTAB
0
TABLE
2
UCS
5
7
100
AcDbSymbolTable
70
0
0
ENDTAB
0
TABLE
2
APPID
5
9
100
AcDbSymbolTable
70
2
0
APPID
5
12
100
AcDbSymbolTableRecord
100
AcDbRegAppTableRecord
2
ACAD
70
0
0
ENDTAB
0
TABLE
2
DIMSTYLE
5
A
100
AcDbSymbolTable
70
1
0
ENDTAB
0
TABLE
2
BLOCK_RECORD
5
1
100
AcDbSymbolTable
70
1
0
BLOCK_RECORD
5
1F
100
AcDbSymbolTableRecord
100
AcDbBlockTableRecord
2
*MODEL_SPACE
0
BLOCK_RECORD
5
1B
100
AcDbSymbolTableRecord
100
AcDbBlockTableRecord
2
*PAPER_SPACE
0
ENDTAB
0
ENDSEC
0
SECTION
2
BLOCKS
0
BLOCK
5
20
100
AcDbEntity
100
AcDbBlockBegin
2
*MODEL_SPACE
0
ENDBLK
5
21
100
AcDbEntity
100
AcDbBlockEnd
0
BLOCK
5
1C
100
AcDbEntity
100
AcDbBlockBegin
2
*PAPER_SPACE
0
ENDBLK
5
1D
100
AcDbEntity
100
AcDbBlockEnd
0
ENDSEC
0
SECTION
2
ENTITIES
0
LWPOLYLINE
5
100
100
AcDbEntity
8
0
100
AcDbPolyline
90
208
70
1
43
0.0
10
-22.500042841663838
20
-14.499950543378191
42
0.41421399997804553
10
-22.000043841662773
20
-14.999949543341359
42
-0.41421399999369574
10
-21.50004484173644
20
-15.499948543313735
10
-21.500044841737754
20
-29.500060543352333
42
-0.41421399995606872
10
-22.000043841664478
20
-30.00005954335068
42
0.4142140000160055
10
-22.500042841665277
20
-30.500058543287309
10
-22.49993573161305
20
-38.699916180084415
42
0.41421356237309503
10
-21.99993573161521
20
-39.1999161800873
10
-20.999974434992055
20
-39.199916180089076
10
-20.999974434991486
20
-39.69991618008919
42
0.41421356237586987
10
-20.699974434992896
20
-39.999916180090324
10
-16.799974434993032
20
-39.999916180097443
42
0.41421356237365003
10
-16.499974434991262
20
-39.699916180097148
10
-16.499974434985347
20
-34.949796841296461
10
-12.392798726509113
20
-34.949796841303851
10
-9.4998644139133148
20
-37.842731153908744
10
-9.4998644139349153
20
-41.877026606604204
42
0.16015103687813947
10
-9.4998644139455113
20
-48.122872413613436
10
-9.4998644139377575
20
-52.15710120630888
10
-12.392798726542651
20
-55.050035518902973
10
-16.499974435018885
20
-55.050035518896721
10
-16.499974435011495
20
-50.299916180097171
42
0.41421356237475992
10
-16.799974435010085
20
-49.999916180097173
10
-20.699974435010517
20
-49.999916180090622
42
0.41421356237475992
10
-20.99997443501108
20
-50.299916180088644
10
-20.99997443501195
20
-50.799916180088758
10
-22.000083085015376
20
-50.799916180087621
42
0.41421356237242907
10
-22.500083085016556
20
-51.299916180087166
10
-22.500042841807044
20
-62.500013144361901
42
0.41421141930942179
10
-17.500061134047655
20
-67.499994852122398
10
-6.2999507004695943
20
-67.500035095382032
42
0.41421356237342799
10
-5.7999507004699957
20
-67.000035095380781
10
-5.7999507004717543
20
-65.999926445376786
10
-5.2999507004716406
20
-65.999926445376218
42
0.41421356237309503
10
-4.9999507004711319
20
-65.699926445375922
10
-4.9999507004781663
20
-61.799926445376059
42
0.4142135623708752
10
-5.2999507004784618
20
-61.499926445377255
10
-10.050070039278012
20
-61.499926445383721
10
-10.050070039284265
20
-57.392750736908624
10
-7.1571357266890345
20
-54.499816424304299
10
-3.1229069339934767
20
-54.499816424311689
42
0.16015103687824456
10
3.1229388730023055
20
-54.499816424262576
10
7.1572343257111015
20
-54.49981642428213
10
10.050168638315427
20
-57.39275073687736
10
10.050168638321679
20
-61.499926445352457
10
5.3000492995209925
20
-61.499926445359847
42
0.4142135623708752
10
5.0000492995230772
20
-61.799926445360711
10
5.0000492995280865
20
-65.699926445360575
42
0.4142135623708752
10
5.3000492995278137
20
-65.999926445360643
10
5.8000492995279274
20
-65.999926445359165
10
5.8000492995296327
20
-66.999887741982889
42
0.41421356237475992
10
6.3000492995337254
20
-67.499887741981468
10
14.499906936329694
20
-67.499994852033751
42
0.41421399997971042
10
14.999905936294002
20
-66.999995852033294
42
-0.41421399999469466
10
15.499904936266944
20
-66.499996852105824
10
29.500016936305542
20
-66.499996852105994
42
-0.41421399995706765
10
30.000015936303889
20
-66.999995852034431
42
0.4142140000160055
10
30.50001493623995
20
-67.499994852035798
10
38.699872573037624
20
-67.499887741984708
42
0.41421356237509294
10
39.199872573040878
20
-66.999887741985162
10
39.199872573041716
20
-65.999926445361439
10
39.69987257304183
20
-65.999926445362576
42
0.41421356237531493
10
39.999872573042836
20
-65.699926445363417
10
39.999872573049515
20
-61.799926445362985
42
0.41421356237531493
10
39.699872573050357
20
-61.499926445362419
10
34.949753234250238
20
-61.499926445354731
10
34.949753234256491
20
-57.392750736880203
10
37.842687546862521
20
-54.499816424284973
10
41.876982999556844
20
-54.499816424304868
42
0.16015103687815377
10
48.122828806567057
20
-54.499816424314382
10
52.15705759926152
20
-54.499816424308278
10
55.049991911857887
20
-57.392750736914309
10
55.049991911850498
20
-61.499926445388837
10
50.299872573050379
20
-61.499926445382016
42
0.41421356237198514
10
49.999872573049174
20
-61.799926445380606
10
49.999872573043262
20
-65.69992644538047
42
0.41421356237420498
10
50.299872573042421
20
-65.999926445381348
10
50.799872573042535
20
-65.999926445382471
10
50.799872573040261
20
-67.000035095386465
42
0.41421356237143014
10
51.299872573040375
20
-67.50003509538638
10
62.49996953731511
20
-67.499994852177565
42
0.41421141930932193
10
67.499951245076375
20
-62.500013144418176
10
67.499991488335809
20
-51.299902710839547
42
0.41421356237276202
10
66.999991488335127
20
-50.799902710840513
10
65.999882838331132
20
-50.799902710842275
10
65.999882838330564
20
-50.299902710842161
42
0.41421356237309503
10
65.6998828383297
20
-49.999902710842541
10
61.799882838329836
20
-49.999902710848687
42
0.41421356237309503
10
61.499882838330215
20
-50.299902710849551
10
61.499882838337498
20
-55.050022049648533
10
57.39270712986297
20
-55.050022049654785
10
54.499772817258076
20
-52.157087737060124
10
54.499772817264898
20
-48.122858944363998
42
0.1601510368781757
10
54.499772817255796
20
-41.877013137355647
10
54.499772817235907
20
-37.842717684659419
10
57.392707129831706
20
-34.949783372055094
10
61.499882838306235
20
-34.949783372048842
10
61.499882838313624
20
-39.69990271084896
42
0.41421356237198514
10
61.799882838314488
20
-39.999902710847891
10
65.699882838314352
20
-39.999902710842434
42
0.41421356237032025
10
65.999882838313724
20
-39.69990271084157
10
65.999882838313511
20
-39.199902710841457
10
66.999844134937234
20
-39.19990271084032
42
0.41421356237475992
10
67.499844134935813
20
-38.699902710836795
10
67.499951244987528
20
-30.500045074039122
42
0.41421399997704661
10
66.999952244987071
20
-30.000046074076518
42
-0.41421399999536063
10
66.499953245059032
20
-29.500047074103009
10
66.499953245059658
20
-15.499935074066116
42
-0.41421399995806663
10
66.999952244988208
20
-14.999936074067078
42
0.41421400001533953
10
67.499951244989319
20
-14.499937074130003
10
67.499844134937916
20
-6.3000794373328972
42
0.41421356237442697
10
66.999844134937803
20
-5.8000794373298881
10
65.999882838314647
20
-5.8000794373282361
10
65.999882838315216
20
-5.3000794373281224
42
0.41421356237420498
10
65.699882838316626
20
-5.0000794373266721
10
61.799882838316762
20
-5.0000794373210056
42
0.41421356237420498
10
61.499882838315557
20
-5.3000794373213012
10
61.499882838308508
20
-10.050198776120851
10
57.392707129832843
20
-10.050198776112325
10
54.49977281723875
20
-7.1572644635079996
10
54.499772817258076
20
-3.1229690108125396
42
0.16015103687809845
10
54.499772817268678
20
3.1228767961957598
10
54.499772817262055
20
7.1571055888921364
10
57.392707129866949
20
10.05003990148623
10
61.499882838341478
20
10.050039901479408
10
61.499882838334656
20
5.2999205626787216
42
0.41421356237475992
10
61.799882838334952
20
4.999920562678728
10
65.699882838334815
20
4.9999205626738785
42
0.41421356237420498
10
65.999882838334685
20
5.2999205626736057
10
65.999882838335111
20
5.7999205626725825
10
66.999991488338537
20
5.7999205626703088
42
0.41421356237342799
10
67.499991488339845
20
6.299920562669854
10
67.499951245131911
20
17.500017526945157
42
0.4142114193094551
10
62.499969537370816
20
22.499999234705534
10
51.299859103792755
20
22.500039477964151
42
0.41421356237342799
10
50.799859103793601
20
22.0000394779629
10
50.799859103794915
20
20.999930827959474
10
50.299859103794802
20
20.999930827960043
42
0.41421356237143014
10
49.999859103794734
20
20.699930827959179
10
49.999859103801896
20
16.799930827958747
42
0.41421356237143014
10
50.299859103801623
20
16.499930827960263
10
55.049978442600036
20
16.499930827967546
10
55.049978442606857
20
12.392755119491312
10
52.157044130011627
20
9.4998208068869872
10
48.122815337316638
20
9.4998208068926715
42
0.16015103687803917
10
41.8769695302949
20
9.4998208069242764
10
37.842674077612628
20
9.4998208068648182
10
34.949739765007735
20
12.39275511945948
10
34.949739765000913
20
16.499930827935145
10
39.699859103802169
20
16.499930827943672
42
0.41421356237365003
10
39.99985910380191
20
16.799930827943399
10
39.999859103795643
20
20.699930827943831
42
0.41421356237309503
10
39.699859103795347
20
20.999930827943007
10
39.199859103795234
20
20.999930827941853
10
39.199859103793528
20
21.999892124565008
42
0.41421356237509294
10
38.699859103789436
20
22.499892124564163
10
30.500001466991762
20
22.499999234616439
42
0.41421399997837849
10
30.000002467029855
20
22.00000023461655
42
-0.41421399999502762
10
29.500003467056786
20
21.500001234689524
10
15.499891467019893
20
21.500001234689631
42
-0.41421399995640168
10
14.99989246701851
20
22.00000023461655
42
0.41421400001434061
10
14.499893467083211
20
22.4999992346171
10
6.3000358302861059
20
22.499892124567396
42
0.4142135623757589
10
5.8000358302829724
20
21.999892124567282
10
5.8000358302803079
20
20.999930827944695
10
5.3000358302801942
20
20.999930827945263
42
0.41421356237365003
10
5.0000358302808934
20
20.699930827945536
10
5.0000358302736458
20
16.799930827945104
42
0.41421356237309503
10
5.300035830273373
20
16.499930827946248
10
10.050155169073491
20
16.499930827937419
10
10.050155169067239
20
12.392755119462322
10
7.1572208564606399
20
9.4998208068665235
10
3.1229254037668857
20
9.4998208068875574
42
0.1601510368781264
10
-3.1229204032434259
20
9.4998208068973859
10
-7.1571491959377909
20
9.4998208068909662
10
-10.050083508533021
20
12.392755119496996
10
-10.0500835085262
20
16.499930827972094
10
-5.2999641697266497
20
16.499930827964135
42
0.41421356237143014
10
-4.9999641697260166
20
16.799930827963863
10
-4.9999641697195329
20
20.699930827964295
42
0.41421356237254009
10
-5.2999641697198285
20
20.999930827964359
10
-5.7999641697193738
20
20.999930827965159
10
-5.7999641697171
20
22.000039477969153
42
0.41421356237209606
10
-6.2999641697166453
20
22.500039477969196
10
-17.500061133992517
20
22.499999234760253
42
0.41421141930925531
10
-22.500042841751757
20
17.500017527000864
10
-22.500083085010942
20
6.2999070934216661
42
0.41421356237409396
10
-22.00008308501026
20
5.7999070934225117
10
-20.999974435007402
20
5.7999070934243946
10
-20.999974435006266
20
5.2999070934242809
42
0.41421356237365003
10
-20.699974435006538
20
4.999907093424536
10
-16.799974435006106
20
4.9999070934308065
42
0.41421356237309503
10
-16.49997443500693
20
5.2999070934311021
10
-16.499974435013769
20
10.05002643223122
10
-12.392798726537535
20
10.050026432237473
10
-9.49986441393321
20
7.1570921196422432
10
-9.499864413940033
20
3.1228633269466854
42
0.16015103687820317
10
-9.4998644139317054
20
-3.122982480061931
10
-9.4998644139110411
20
-7.1572779327573244
10
-12.39279872650684
20
-10.050212245363355
10
-16.499974434983073
20
-10.050212245369607
10
-16.499974434989895
20
-5.3000929065689206
42
0.41421356237254009
10
-16.799974434990759
20
-5.000092906568856
10
-20.699974434991191
20
-5.0000929065754462
42
0.41421356236865531
10
-20.999974434989426
20
-5.3000929065757418
10
-20.999974434989213
20
-5.8000929065752871
10
-21.999935731612936
20
-5.8000929065769924
42
0.41421356237475992
10
-22.499935731612535
20
-6.3000929065805167
0
LWPOLYLINE
5
101
100
AcDbEntity
8
0
100
AcDbPolyline
90
144
70
1
43
0.0
10
34.794759367733327
20
-1.3671291178735108
42
0.33945399999745285
10
34.826543304167316
20
-1.6085516350283504
10
34.941358074552255
20
-1.7233644053930854
42
-0.1989120004172806
10
34.999935957330194
20
-1.8647841225384809
10
34.999935957332013
20
-3.7573923372957552
42
0.19891300002588772
10
35.878615200035732
20
-5.8787110946377403
10
39.121250714711664
20
-9.1213426093997896
42
0.19891200000114423
10
41.242564472042318
20
-10.000019852030142
10
43.135165686833261
20
-10.000019852019639
42
-0.19891199957793454
10
43.276591404042072
20
-10.058597734826984
10
43.391398174456413
20
-10.173412505213264
42
0.33945400013710225
10
43.632822691542984
20
-10.205196441626228
10
44.835274286644164
20
-9.5109618301835681
42
-0.26794899980483933
10
45.135276686641021
20
-9.5109618301227208
10
46.367009223171749
20
-10.222103407848522
42
0.33945599993910203
10
46.6084337403435
20
-10.190319471420747
10
46.740146476939429
20
-10.058597734866533
42
-0.19891399993530851
10
46.881572194042747
20
-10.000019852020987
10
51.777360402493855
20
-10.000019852023286
42
-0.19891199998382361
10
53.89867115984292
20
-10.878695094610539
10
55.141321674525443
20
-12.121338609352961
42
0.19891199999152584
10
57.262632431846328
20
-13.00001385200466
10
60.499884957399672
20
-13.000013852020819
42
-0.4142139979258771
10
63.499878936251797
20
-16.000007851994837
10
63.499878936251228
20
-28.999981851962957
42
-0.4142140005896226
10
60.499884936277226
20
-31.999975858098782
10
57.26263241072445
20
-31.999975858113316
42
0.1989120000215471
10
55.14132165337643
20
-32.878651100809442
10
53.898671138699839
20
-34.121294615454346
42
-0.19891200000032461
10
51.777360381279891
20
-34.999969858113602
10
46.881572172926553
20
-34.999969858119137
42
-0.19891399975701618
10
46.7401464557813
20
-34.941391975320585
10
46.608433719159166
20
-34.809670238726085
42
0.33945600017514294
10
46.367009202079963
20
-34.777886302321207
10
45.135276665478884
20
-35.48902788006545
42
-0.26794900013611822
10
44.835274265482347
20
-35.489027880023286
10
43.632822670446103
20
-34.794793268505941
42
0.33945399991935299
10
43.391398153281372
20
-34.826577204925954
10
43.276591382920408
20
-34.941391975289434
42
-0.19891200003527054
10
43.135165665780164
20
-34.999969858127038
10
41.242564450930104
20
-34.999969858118334
42
0.19891200002803947
10
39.121250693582326
20
-35.878645100832436
10
35.878615178925202
20
-39.121280615523233
42
0.19891299999603851
10
34.999935936290804
20
-41.242595372838764
10
34.999935936246835
20
-43.135207587622517
42
-0.19891199986038657
10
34.9413580533935
20
-43.276625304839158
10
34.826543283003843
20
-43.391440075145624
42
0.33945400007411647
10
34.794759346594304
20
-43.632856592339621
10
35.488993958138259
20
-44.835308187440873
42
-0.26794900013579492
10
35.488993958096778
20
-45.135310587438447
10
34.777852380376544
20
-46.367043123967164
42
0.33945400034378848
10
34.80963631689923
20
-46.608459641139973
10
34.941358053414874
20
-46.740180377693278
42
-0.19891199971298429
10
34.999935936299302
20
-46.881599094838862
10
34.999935936247873
20
-51.777394303226174
42
-0.19891200001026682
10
34.121256693610505
20
-53.89871306054151
10
32.878621178909384
20
-55.141347575303712
42
0.19891200001665812
10
31.999941936316297
20
-57.262666332644017
10
31.999941936298146
20
-60.49991885812176
42
-0.41421399999319619
10
28.999947936325157
20
-63.499912858148747
10
15.999973936247329
20
-63.499912858147489
42
-0.41421400061237634
10
12.999979936319946
20
-60.499918852073051
10
12.999979936255386
20
-57.262666326586213
42
0.19891200001038403
10
12.121300693612117
20
-55.141347569274153
10
10.878665178908202
20
-53.898713054514751
42
-0.19891200001665665
10
9.999985936307473
20
-51.777394297176329
10
9.9999859362391312
20
-46.881599088794701
42
-0.19891199989788491
10
10.058563819099621
20
-46.74018037157748
10
10.190285555690366
20
-46.608459635069721
42
0.3394540000674211
10
10.222069492098825
20
-46.36704311787814
10
9.5109279143551415
20
-45.135310581375805
42
-0.26794900013713646
10
9.5109279143968148
20
-44.835308181379155
10
10.205162525916762
20
-43.632856586250455
42
0.33945399999640247
10
10.173378589487099
20
-43.391440069085803
10
10.058563819084947
20
-43.276625298725328
42
-0.19891200033054532
10
9.9999859362935499
20
-43.135207581577788
10
9.9999859362907255
20
-41.242595366825299
42
0.19891300002634235
10
9.1213066935875844
20
-39.121280609479655
10
5.878671178896866
20
-35.87864509470478
42
0.1989120000152664
10
3.7573554214804976
20
-34.999969852087382
10
1.8647542066941014
20
-34.999969852063117
42
-0.19891199977379045
10
1.7233334895811501
20
-34.941391969290734
10
1.6085197191716816
20
-34.826577198853101
42
0.33945400036000289
10
1.3670992020804738
20
-34.794793262491005
10
0.16464560698290778
20
-35.489027873937204
42
-0.26794899981455383
10
-0.13535279301708783
20
-35.489027873993358
10
-1.3670873295455976
20
-34.777886296283214
42
0.33945599988871838
10
-1.608509846718593
20
-34.809670232694508
10
-1.740224583313807
20
-34.941391969270356
42
-0.19891400005271542
10
-1.8816473004181944
20
-34.999969852096356
10
-6.7774395088702022
20
-34.999969852114852
42
-0.19891199999121664
10
-8.8987532662200053
20
-34.121294609507061
10
-10.14139878090532
20
-32.878651094744669
42
0.19891200000961476
10
-12.262712538322944
20
-31.99997585211257
10
-15.499963063801374
20
-31.999975852096437
42
-0.41421400001644948
10
-18.499957063727376
20
-28.999981852122687
10
-18.499957063825715
20
-16.000007852143767
42
-0.41421400000274167
10
-15.49996306375192
20
-13.000013852117151
10
-12.262712538301912
20
-13.000013852123402
42
0.198911999991398
10
-10.141398780953903
20
-12.121338609509015
10
-8.8987532662728235
20
-10.878695094741257
42
-0.19891200000948256
10
-6.7774395088582642
20
-10.000019852104069
10
-1.8816473005068701
20
-10.000019852079218
42
-0.19891399987855313
10
-1.7402245833576016
20
-10.058597734896079
10
-1.6085098467374337
20
-10.190319471476528
42
0.33945600011237903
10
-1.3670873296582986
20
-10.222103407895023
10
-0.13535279306008921
20
-9.5109618302491494
42
-0.26794899981492426
10
0.16464560694115415
20
-9.5109618301927057
10
1.3670992019751793
20
-10.205196441761473
42
0.33945400013206256
10
1.6085197191427834
20
-10.173412505289525
10
1.7233334894966637
20
-10.058597734961719
42
-0.19891199980624771
10
1.8647542066435108
20
-10.000019852090078
10
3.7573554215117611
20
-10.000019852110427
42
0.19891199999956743
10
5.8786711788411186
20
-9.1213426094833086
10
9.1213066934989229
20
-5.8787110946900611
42
0.19891299995318318
10
9.9999859362329637
20
-3.7573923373776092
10
9.9999859361635099
20
-1.8647841225913453
42
-0.1989119999267675
10
10.058563819029684
20
-1.723364405377291
10
10.173378589392428
20
-1.6085516350659645
42
0.33945399994828379
10
10.205162525829666
20
-1.3671291178767171
10
9.5109279248831005
20
-0.16467951668054853
42
-0.26794900015077333
10
9.5109279249271292
20
0.13531888332126463
10
10.222069502618751
20
1.3670494198566985
42
0.339454000223117
10
10.190285566123887
20
1.6084719370234348
10
10.058563829594355
20
1.7401906735777504
42
-0.19891199980363622
10
9.9999859467240064
20
1.8816113907234921
10
9.9999859467962402
20
6.7774055991071691
42
-0.19891199997931516
10
10.878665189414061
20
8.8987213565244385
10
12.121300704093869
20
10.141359871184363
42
0.19891200000739553
10
12.99997994670824
20
12.262675628527971
10
12.999979946724364
20
15.499929154005372
42
-0.41421399999302971
10
15.99997394669856
20
18.499923154032999
10
28.999947946776388
20
18.499923154029716
42
-0.41421400001650494
10
31.999941946702961
20
15.499929154055962
10
31.999941946787089
20
12.26267562857231
42
0.19891200000335554
10
32.878621189412179
20
10.141359871257524
10
34.121256704095991
20
8.8987213565015573
42
-0.19891200000761181
10
34.999935946716725
20
6.777405599160601
10
34.999935946798175
20
1.881611390774083
42
-0.19891199995803979
10
34.941358063923808
20
1.740190673560114
10
34.809636327362341
20
1.608471937049103
42
0.33945399994357789
10
34.777852390924167
20
1.3670494198606282
10
35.488993968671267
20
0.13531888336215828
42
-0.26794900014703327
10
35.488993968627057
20
-0.16467951663780681
0
LWPOLYLINE
5
102
100
AcDbEntity
8
0
100
AcDbPolyline
90
64
70
1
43
0.0
10
4.9825771827578453
20
-45.416960269544063
42
0.3877944912285643
10
5.3940109316174816
20
-45.951064722792083
10
7.3696287696693776
20
-46.299420224727086
42
-0.43389208222677145
10
7.7683245889104571
20
-46.911282166741401
42
-0.075870455319008934
10
6.8445412165211161
20
-49.141484657232525
42
-0.43389208223295717
10
6.1299685953056828
20
-49.29221408831738
10
4.4866741533581944
20
-48.141561762581659
42
0.38779449124067927
10
3.8180774627079286
20
-48.228301384178273
42
-0.041772577434982229
10
3.2283547722007233
20
-48.818023021923068
42
0.38779449124285331
10
3.1416139570056245
20
-49.486619557718264
10
4.2922633491122895
20
-51.12991605380153
42
-0.43389208223712544
10
4.1415326423528134
20
-51.844488405919648
42
-0.075870076549493626
10
1.9113402049802488
20
-52.768264917708876
42
-0.43389208223434045
10
1.2994783741208993
20
-52.36956892785372
10
0.95112342306549635
20
-50.393950992699956
42
0.38779449123700399
10
0.41701908452200542
20
-49.982517094901404
42
-0.041773159984502997
10
-0.41698558813317543
20
-49.982517225264978
42
0.38779449123287535
10
-0.95108979807370342
20
-50.393951289977977
10
-1.2994441316495398
20
-52.369569334025392
42
-0.43389208222899511
10
-1.9113058378834227
20
-52.768265515102811
42
-0.075869938098692552
10
-4.1414947951534948
20
-51.844491980898525
42
-0.43389208223334658
10
-4.2922261187264148
20
-51.12991975888135
10
-3.141578145128392
20
-49.48662226953445
42
0.38779449123879728
10
-3.2283195374485274
20
-48.818025808607928
42
-0.041773112339551145
10
-3.8180496323975577
20
-48.228296524989773
42
0.38779449124357196
10
-4.4866462126525306
20
-48.14155605247511
10
-6.1299421189833394
20
-49.292206286828026
42
-0.43389208223820613
10
-6.8445145483674601
20
-49.141475946318963
42
-0.075870154224598904
10
-7.7682927936363111
20
-46.911281582652968
42
-0.43389208223102815
10
-7.3695969283725606
20
-46.299419670613048
10
-5.3939790641447871
20
-45.951064317268333
42
0.38779449123546933
10
-4.9825452751160366
20
-45.416959894949535
42
-0.041773258557319851
10
-4.9825454111420928
20
-44.582953261156071
42
0.3877944912385401
10
-5.3939793743986444
20
-44.048848973048422
10
-7.369597352258543
20
-43.700494264159474
42
-0.43389208223161724
10
-7.7682934171238429
20
-43.088632482173594
42
-0.075870157155777412
10
-6.8445158510665305
20
-40.858437737375269
42
-0.43389208223033016
10
-6.1299434690965899
20
-40.707707172099958
10
-4.4866472007913671
20
-41.858356889543415
42
0.38779449123300719
10
-3.8180506478326053
20
-41.771616206719742
42
-0.041772877283948733
10
-3.228324321952484
20
-41.181889767678221
42
0.38779449123972731
10
-3.1415837674643661
20
-40.513293198055031
10
-4.2922338003129825
20
-38.869997150611923
42
-0.43389208223321751
10
-4.1415033721968442
20
-38.155424739692158
42
-0.07587042709162338
10
-1.9113004648898539
20
-37.231644693691294
42
-0.43389208222897896
10
-1.2994390344116793
20
-37.630341297981296
10
-0.95108606727421829
20
-39.605959582975174
42
0.38779449123581633
10
-0.41698214190581562
20
-40.017394017099662
42
-0.041772908489432006
10
0.41701752712417728
20
-40.017394305542105
42
0.38779449123370285
10
0.95112173706604985
20
-39.605960240810923
10
1.2994760706407036
20
-37.630342196760559
42
-0.43389208222899589
10
1.9113377768841711
20
-37.231646015647904
42
-0.075870207143755072
10
4.1415340579690705
20
-38.155423981410792
42
-0.43389208222813996
10
4.2922646169345988
20
-38.869996364709785
10
3.1416148849820047
20
-40.513292622861741
42
0.38779449123215981
10
3.2283555618986832
20
-41.18188917658447
42
-0.041772158525066043
10
3.8180727303099986
20
-41.771604549755125
42
0.38779449124015464
10
4.4866695481140253
20
-41.858343191261788
10
6.129962303311145
20
-40.707688456630251
42
-0.43389208223466069
10
6.8445351454872778
20
-40.858416840224088
42
-0.075871620465010545
10
7.7683306439953608
20
-43.088653974194628
42
-0.43389208223294518
10
7.3696328863479312
20
-43.700514653133723
10
5.3940139447297497
20
-44.04886389621538
42
0.38779449123740073
10
4.9825785038055104
20
-44.582967046039784
42
-0.04177258451992228
0
LWPOLYLINE
5
103
100
AcDbEntity
8
0
100
AcDbPolyline
90
64
70
1
43
0.0
10
49.98245364708783
20
-0.41704435617417868
42
0.38779449122935417
10
50.393887395948866
20
-0.95114880942239033
10
52.369505234000641
20
-1.299504311358985
42
-0.43389208222551801
10
52.768201053240738
20
-1.9113662533716744
42
-0.075870455318967842
10
51.844417680851286
20
-4.1415687438635089
42
-0.43389208223322628
10
51.129845059636111
20
-4.292298174947959
10
49.486550617689318
20
-3.1416458492128641
42
0.38779449124060589
10
48.817953927038062
20
-3.2283854708100734
42
-0.041772577434898595
10
48.228231236532018
20
-3.8181071085550444
42
0.38779449124403231
10
48.141490421334829
20
-4.4867036443488795
10
49.292139813442581
20
-6.1300001404323545
42
-0.43389208223487746
10
49.141409106683973
20
-6.8445724925509053
42
-0.075870076549528362
10
46.911216669309333
20
-7.7683490043398713
42
-0.43389208223338277
10
46.299354838451464
20
-7.3696530144844541
10
45.950999887396051
20
-5.394035079330024
42
0.38779449123770543
10
45.416895548852111
20
-4.9826011815334379
42
-0.041773159984451282
10
44.582890876197816
20
-4.9826013118983461
42
0.38779449123397858
10
44.048786666257101
20
-5.3940353766080884
10
43.700432332681522
20
-7.3696534206558182
42
-0.43389208222935899
10
43.088570626446497
20
-7.7683496017336378
42
-0.075869938098695452
10
40.85838166917712
20
-6.8445760675301806
42
-0.43389208223320513
10
40.707650345605337
20
-6.1300038455122552
10
41.8582983192033
20
-4.4867063561650866
42
0.387794491238312
10
41.771556926881075
20
-3.8181098952386434
42
-0.041773112339586402
10
41.181826831931673
20
-3.228380611621136
42
0.38779449124326648
10
40.513230251678287
20
-3.1416401391047399
10
38.869934345346522
20
-4.2922903734587292
42
-0.43389208223557846
10
38.155361915962914
20
-4.1415600329490196
42
-0.075870154224705888
10
37.231583670693546
20
-1.9113656692820788
42
-0.4338920822307118
10
37.630279535958465
20
-1.2995037572425718
10
39.605897400186336
20
-0.95114840389896926
42
0.38779449123604193
10
40.017331189214431
20
-0.41704398157955513
42
-0.04177325855738391
10
40.017331053188663
20
0.41696265221384821
42
0.38779449123657128
10
39.605897089931915
20
0.95106694032041128
10
37.630279112071918
20
1.2994216492093487
42
-0.43389208223202713
10
37.231583047206364
20
1.9112834311958431
42
-0.075870157155797396
10
38.15536061326398
20
4.1414781759924155
42
-0.43389208223004305
10
38.869932995233675
20
4.29220874127037
10
40.513229263540325
20
3.1415590238259483
42
0.38779449123134418
10
41.181825816497565
20
3.2282997066484933
42
-0.041772877284063287
10
41.771552142379335
20
3.8180261456902373
42
0.38779449123882326
10
41.858292696866698
20
4.4866227153150877
10
40.707642664019588
20
6.1299187627586296
42
-0.43389208223379117
10
40.858373092135302
20
6.8444911736766523
42
-0.075870427091608753
10
43.088575999440508
20
7.7682712196789074
42
-0.43389208222965775
10
43.700437429919958
20
7.3695746153882578
10
44.048790397056337
20
5.3939563303941895
42
0.38779449123551796
10
44.582894322424295
20
4.9825218962687483
42
-0.041772908489450686
10
45.416893991454586
20
4.9825216078250225
42
0.38779449123322357
10
45.950998201397432
20
5.3939556725583904
10
46.299352534971732
20
7.3695737166094899
42
-0.43389208222969672
10
46.911214241215859
20
7.7682698977208453
42
-0.075870207143671445
10
49.141410522299125
20
6.8444919319580935
42
-0.43389208222841924
10
49.29214108126618
20
6.1299195486590863
10
48.141491349311423
20
4.4866232905076231
42
0.38779449123062626
10
48.228232026228788
20
3.8180267367838017
42
-0.0417721585249754
10
48.817949194638842
20
3.2283113636132783
42
0.38779449124152648
10
49.486546012445622
20
3.1415727221082781
10
51.129838767641907
20
4.2922274567393801
42
-0.43389208223419906
10
51.844411609817683
20
4.1414990731449652
42
-0.075871620464926473
10
52.76820710832591
20
1.9112619391748733
42
-0.43389208223228437
10
52.369509350678541
20
1.299401260235872
10
50.393890409059736
20
0.95105201715341536
42
0.38779449123683218
10
49.982454968135272
20
0.41694886732950798
42
-0.0417725845198322
0
LWPOLYLINE
5
104
100
AcDbEntity
8
0
100
AcDbPolyline
90
64
70
1
43
0.0
10
49.982419961457829
20
-45.416916198674869
42
0.38779449122899634
10
50.393853710318204
20
-45.951020651923017
10
52.36947154837079
20
-46.299376153857224
42
-0.43389208222578035
10
52.768167367607859
20
-46.911238095871411
42
-0.075870455318426733
10
51.844383995221442
20
-49.141440586361931
42
-0.43389208223346432
10
51.129811374004646
20
-49.292170017446317
10
49.48651693205818
20
-48.141517691711897
42
0.3877944912398249
10
48.817920241405737
20
-48.228257313307722
42
-0.041772577434569844
10
48.228197550904859
20
-48.817978951057491
42
0.38779449124241955
10
48.141456735704267
20
-49.486575486848878
10
49.292106127812197
20
-51.129871982931604
42
-0.43389208223837678
10
49.141375421048998
20
-51.844444335044159
42
-0.075870076549309606
10
46.911182983679574
20
-52.768220846838567
42
-0.43389208223389064
10
46.299321152820426
20
-52.369524856984036
10
45.950966201766619
20
-50.393906921831331
42
0.38779449123911774
10
45.41686186321936
20
-49.982473024028415
42
-0.041773159984423033
10
44.582857190566216
20
-49.982473154402378
42
0.38779449123419502
10
44.048752980625423
20
-50.393907219109302
10
43.700398647052552
20
-52.3695252631559
42
-0.4338920822303548
10
43.088536940817647
20
-52.768221444225176
42
-0.075869938098890533
10
40.858347983547517
20
-51.844447910029956
42
-0.43389208223471876
10
40.707616659974207
20
-51.129875688011239
10
41.85826463357273
20
-49.486578198665825
42
0.38779449123815563
10
41.771523241253696
20
-48.817981737736204
42
-0.041773112339934838
10
41.181793146299881
20
-48.22825245412325
42
0.38779449124401749
10
40.513196566047476
20
-48.141511981605625
10
38.869900659715718
20
-49.292162215957191
42
-0.43389208223561404
10
38.155328230336082
20
-49.141431875448191
42
-0.075870154225220421
10
37.231549985063324
20
-46.911237511782744
42
-0.43389208223061232
10
37.630245850328429
20
-46.29937559974195
10
39.605863714555767
20
-45.951020246398002
42
0.38779449123670345
10
40.017297503584999
20
-45.416915824080242
42
-0.041773258557822879
10
40.017297367559557
20
-44.582909190287587
42
0.38779449123964438
10
39.605863404300592
20
-44.048804902177601
10
37.63024542644014
20
-43.700450193290628
42
-0.43389208223181819
10
37.23154936157335
20
-43.088588411302581
42
-0.075870157156280454
10
38.1553269276327
20
-40.858393666505826
42
-0.433892082229271
10
38.869899309602765
20
-40.707663101230779
10
40.513195577908618
20
-41.858312818673085
42
0.38779449123348775
10
41.18179213086502
20
-41.771572135849439
42
-0.04177287728437102
10
41.771518456751565
20
-41.181845696812729
42
0.3877944912385925
10
41.85825901123556
20
-40.513249127184508
10
40.707608978387874
20
-38.869953079741947
42
-0.43389208223206804
10
40.858339406499582
20
-38.155380668816527
42
-0.075870427091833295
10
43.088542313810578
20
-37.231600622820849
42
-0.43389208222915832
10
43.700403744288437
20
-37.630297227111711
10
44.04875671142463
20
-39.605915512105412
42
0.38779449123589221
10
44.582860636792105
20
-40.01734994622619
42
-0.041772908489533654
10
45.416860305824642
20
-40.017350234679149
42
0.3877944912330476
10
45.950964515765605
20
-39.605916169941658
10
46.2993188493421
20
-37.630298125891812
42
-0.43389208222964748
10
46.911180555587165
20
-37.231601944771185
42
-0.07587020714346733
10
49.141376836669423
20
-38.155379910541811
42
-0.43389208222777881
10
49.292107395634694
20
-38.869952293840441
10
48.141457663680853
20
-40.513248551992547
42
0.38779449123296461
10
48.228198340600734
20
-41.181845105712611
42
-0.041772158524686014
10
48.817915509007349
20
-41.771560478888496
42
0.38779449124084014
10
49.486512326814598
20
-41.858299120392061
10
51.12980508201111
20
-40.707644385760453
42
-0.43389208223602804
10
51.84437792419029
20
-40.858372769353288
42
-0.075871620464397979
10
52.768173422695654
20
-43.08860990332424
42
-0.43389208223371306
10
52.369475665047247
20
-43.700470582264529
10
50.393856723428598
20
-44.048819825347323
42
0.38779449123642756
10
49.982421282504824
20
-44.582922975170611
42
-0.04177258451939278
0
LWPOLYLINE
5
105
100
AcDbEntity
8
0
100
AcDbPolyline
90
64
70
1
43
0.0
10
4.9825612133878057
20
-0.41700450414395629
42
0.38779449122824294
10
5.3939949622479588
20
-0.9511089573918039
10
7.369612800300489
20
-1.2994644593285281
42
-0.433892082226013
10
7.7683086195412923
20
-1.9113264013411844
42
-0.075870455319050248
10
6.8445252471504991
20
-4.1415288918326381
42
-0.43389208223209669
10
6.1299526259359549
20
-4.2922583229169256
10
4.4866581839892206
20
-3.1416059971820687
42
0.3877944912415936
10
3.8180614933384733
20
-3.2283456187792292
42
-0.041772577434948867
10
3.2283388028317002
20
-3.8180672565234151
42
0.38779449124293308
10
3.1415979876355138
20
-4.4866637923175379
10
4.2922473797427481
20
-6.1299602884013735
42
-0.43389208223683812
10
4.1415166729842419
20
-6.8445326405201534
42
-0.075870076549535162
10
1.9113242356100764
20
-7.7683091523084382
42
-0.43389208223360703
10
1.2994624047519254
20
-7.3696131624529926
10
0.95110745369822791
20
-5.3939952273003655
42
0.38779449123758658
10
0.4170031151513926
20
-4.9825613295019995
42
-0.041773159984420369
10
-0.4170015575021449
20
-4.9825614598653445
42
0.38779449123360488
10
-0.95110576744335962
20
-5.3939955245784654
10
-1.2994601010181124
20
-7.3696135686260744
42
-0.43389208222961512
10
-1.91132180725357
20
-7.7683097497027864
42
-0.075869938098636167
10
-4.1415107645223568
20
-6.8445362154996978
42
-0.43389208223534748
10
-4.2922420880954313
20
-6.1299639934801942
10
-3.1415941144979342
20
-4.4866665041342912
42
0.38779449123806975
10
-3.2283355068174888
20
-3.8180700432078609
42
-0.041773112339591738
10
-3.8180656017669579
20
-3.228340759589007
42
0.38779449124164755
10
-4.4866621820208827
20
-3.1416002870744593
10
-6.1299580883535363
20
-4.2922505214285565
42
-0.43389208223743053
10
-6.8445305177368319
20
-4.1415201809177855
42
-0.075870154224570552
10
-7.7683087630063206
20
-1.9113258172527847
42
-0.43389208223167364
10
-7.3696128977409803
20
-1.2994639052122308
10
-5.3939950335126241
20
-0.95110855186874232
42
0.38779449123488557
10
-4.9825612444844927
20
-0.41700412954931998
42
-0.041773258557288598
10
-4.9825613805104974
20
0.41700250424351948
42
0.38779449123931875
10
-5.3939953437691113
20
0.95110679235237461
10
-7.3696133216277291
20
1.2994615012394795
42
-0.43389208223223863
10
-7.7683093864927173
20
1.9113232832259686
42
-0.075870157155772278
10
-6.8445318204353374
20
4.1415180280242128
42
-0.43389208222977321
10
-6.1299594384664102
20
4.2922485933011849
10
-4.486663170160341
20
3.1415988758561753
42
0.38779449123186288
10
-3.8180666172014899
20
3.2283395586792762
42
-0.041772877284001232
10
-3.2283402913206554
20
3.8180659977215683
42
0.38779449123998894
10
-3.1415997368323909
20
4.4866625673448297
10
-4.292249769682412
20
6.129958614789456
42
-0.43389208223367559
10
-4.1415193415638241
20
6.8445310257082914
42
-0.075870427091571005
10
-1.9113164342586959
20
7.768311071710067
42
-0.43389208222899289
10
-1.2994550037806358
20
7.3696144674186659
10
-0.95110203664432902
20
5.3939961824232796
42
0.38779449123393911
10
-0.41699811127534242
20
4.9825617483002782
42
-0.041772908489453357
10
0.41700155775514935
20
4.9825614598579815
42
0.38779449123338028
10
0.95110576769697863
20
5.3939955245892506
10
1.299460101271146
20
7.3696135686383659
42
-0.43389208222922104
10
1.9113218075151062
20
7.7683097497518503
42
-0.075870207143767021
10
4.1415180886008383
20
6.8445317839896633
42
-0.43389208222700448
10
4.2922486475657928
20
6.1299594006912193
10
3.1415989156124624
20
4.48666314253785
42
0.38779449123178428
10
3.2283395925299931
20
3.818066588814788
42
-0.041772158524988973
10
3.8180567609402627
20
3.2283512156453584
42
0.38779449124057741
10
4.4866535787450506
20
3.1416125741383705
10
6.1299463339419162
20
4.2922673087697056
42
-0.4338920822341969
10
6.8445191761183164
20
4.141538925176425
42
-0.075871620465027073
10
7.7683146746279235
20
1.9113017912057653
42
-0.43389208223429471
10
7.3696169169780639
20
1.2994411122656309
10
5.3939979753602074
20
0.95109186918421074
42
0.38779449123688531
10
4.9825625344353828
20
0.41698871936031967
42
-0.041772584519936408
0
LWPOLYLINE
5
106
100
AcDbEntity
8
0
100
AcDbPolyline
90
8
70
1
43
0.0
10
-12.49996906375624
20
-58.49992285208657
42
0.41421400000018882
10
-13.499967063758049
20
-57.499924852087602
10
-19.499955063710672
20
-57.499924852096072
42
0.41421400002666092
10
-20.499953063683733
20
-58.499922852125223
10
-20.499953063754628
20
-62.499914852103871
42
0.41421399999785791
10
-17.499959063770802
20
-65.499908852099793
10
-13.499967063745544
20
-65.499908852139711
42
0.41421399995556918
10
-12.499969063672438
20
-64.499910852111952
0
LWPOLYLINE
5
107
100
AcDbEntity
8
0
100
AcDbPolyline
90
8
70
1
43
0.0
10
-12.499969063876748
20
19.49992114791371
42
0.41421400000002229
10
-13.499967063877989
20
20.499919147912674
10
-17.499959063882216
20
20.499919147858222
42
0.41421400001644948
10
-20.499953063799694
20
17.499925147874364
10
-20.499953063820364
20
13.499933147849106
42
0.41421399997787905
10
-19.49995506389314
20
12.499935147849897
10
-13.499967063866052
20
12.499935147858736
42
0.41421399995623515
10
-12.499969063794083
20
13.499933147887759
0
LWPOLYLINE
5
108
100
AcDbEntity
8
0
100
AcDbPolyline
90
8
70
1
43
0.0
10
58.4998889361691
20
20.499919148023274
42
0.41421399999935632
10
57.499890936170949
20
19.499921148021713
10
57.499890936179547
20
13.499933147969614
42
0.41421399999669256
10
58.499888936108277
20
12.499935147995984
10
64.499876936132523
20
12.499935147981198
42
0.41421400000818043
10
65.499874936132869
20
13.499933148007699
10
65.499874936179111
20
17.499925147986346
42
0.41421399999275221
10
62.499880936196064
20
20.499919148003301
0
LWPOLYLINE
5
109
100
AcDbEntity
8
0
100
AcDbPolyline
90
8
70
1
43
0.0
10
58.49988893628904
20
-57.499924851975869
42
0.4142139999995228
10
57.499890936291457
20
-58.499922851978567
10
57.499890936299927
20
-64.499910852030098
42
0.41421399999702552
10
58.499888936228785
20
-65.499908852002022
10
62.499880936305772
20
-65.49990885197559
42
0.41421399999791347
10
65.499874936301694
20
-62.499914851992457
10
65.499874936243842
20
-58.49992285196663
42
0.414213999997192
10
64.49987693631499
20
-57.499924851993001
0
LWPOLYLINE
5
110
100
AcDbEntity
8
0
100
AcDbPolyline
90
208
70
1
43
0.0
10
-22.500042841663838
20
-14.499950543378191
42
0.41421399997803776
10
-22.000043841662773
20
-14.999949543341359
42
-0.41421399999369574
10
-21.50004484173644
20
-15.499948543313735
10
-21.500044841737754
20
-29.500060543352333
42
-0.41421399995606872
10
-22.000043841664478
20
-30.00005954335068
42
0.41421400001600811
10
-22.500042841665284
20
-30.500058543287309
10
-22.49993573161305
20
-38.699916180084415
42
0.41421356237308982
10
-21.99993573161521
20
-39.1999161800873
10
-20.999974434992055
20
-39.199916180089076
10
-20.999974434991486
20
-39.69991618008919
42
0.41421356237587426
10
-20.699974434992896
20
-39.999916180090324
10
-16.799974434993032
20
-39.999916180097443
42
0.41421356237365653
10
-16.499974434991266
20
-39.699916180097148
10
-16.499974434985347
20
-34.949796841296461
10
-12.392798726509113
20
-34.949796841303851
10
-9.4998644139133148
20
-37.842731153908744
10
-9.4998644139349153
20
-41.877026606604204
42
0.16015103687813909
10
-9.4998644139455113
20
-48.122872413613436
10
-9.4998644139377575
20
-52.15710120630888
10
-12.392798726542651
20
-55.050035518902973
10
-16.499974435018885
20
-55.050035518896721
10
-16.499974435011495
20
-50.299916180097171
42
0.41421356237475776
10
-16.799974435010085
20
-49.999916180097173
10
-20.699974435010517
20
-49.999916180090622
42
0.4142135623747773
10
-20.99997443501108
20
-50.299916180088644
10
-20.99997443501195
20
-50.799916180088758
10
-22.000083085015376
20
-50.799916180087621
42
0.41421356237241869
10
-22.500083085016556
20
-51.299916180087166
10
-22.500042841807044
20
-62.500013144361901
42
0.4142114193094214
10
-17.500061134047655
20
-67.499994852122413
10
-6.2999507004695943
20
-67.500035095382032
42
0.41421356237342605
10
-5.7999507004699993
20
-67.000035095380781
10
-5.7999507004717543
20
-65.999926445376786
10
-5.2999507004716406
20
-65.999926445376218
42
0.41421356237309176
10
-4.9999507004711354
20
-65.699926445375922
10
-4.9999507004781663
20
-61.799926445376059
42
0.41421356237087625
10
-5.2999507004784618
20
-61.499926445377255
10
-10.050070039278012
20
-61.499926445383721
10
-10.050070039284265
20
-57.392750736908624
10
-7.1571357266890345
20
-54.499816424304299
10
-3.1229069339934767
20
-54.499816424311689
42
0.1601510368782412
10
3.1229388730023078
20
-54.499816424262576
10
7.1572343257111015
20
-54.49981642428213
10
10.050168638315427
20
-57.39275073687736
10
10.050168638321679
20
-61.499926445352457
10
5.3000492995209925
20
-61.499926445359847
42
0.41421356237087303
10
5.000049299523079
20
-61.799926445360711
10
5.0000492995280865
20
-65.699926445360575
42
0.41421356237087303
10
5.3000492995278137
20
-65.999926445360643
10
5.8000492995279274
20
-65.999926445359165
10
5.8000492995296327
20
-66.999887741982889
42
0.41421356237476836
10
6.3000492995337254
20
-67.499887741981468
10
14.499906936329694
20
-67.499994852033751
42
0.41421399997971436
10
14.999905936294002
20
-66.999995852033294
42
-0.41421399999469466
10
15.499904936266944
20
-66.499996852105824
10
29.500016936305542
20
-66.499996852105994
42
-0.41421399995706765
10
30.000015936303889
20
-66.999995852034431
42
0.41421400001601072
10
30.50001493623995
20
-67.499994852035798
10
38.699872573037624
20
-67.499887741984708
42
0.41421356237509555
10
39.199872573040885
20
-66.999887741985162
10
39.199872573041716
20
-65.999926445361439
10
39.69987257304183
20
-65.999926445362576
42
0.41421356237529761
10
39.999872573042836
20
-65.699926445363417
10
39.999872573049515
20
-61.799926445362985
42
0.41421356237531493
10
39.699872573050357
20
-61.499926445362419
10
34.949753234250238
20
-61.499926445354731
10
34.949753234256491
20
-57.392750736880203
10
37.842687546862521
20
-54.499816424284973
10
41.876982999556844
20
-54.499816424304868
42
0.16015103687815188
10
48.122828806567043
20
-54.499816424314382
10
52.15705759926152
20
-54.499816424308278
10
55.049991911857887
20
-57.392750736914309
10
55.049991911850498
20
-61.499926445388837
10
50.299872573050379
20
-61.499926445382016
42
0.41421356237200246
10
49.999872573049174
20
-61.799926445380606
10
49.999872573043262
20
-65.69992644538047
42
0.41421356237420498
10
50.299872573042421
20
-65.999926445381348
10
50.799872573042535
20
-65.999926445382471
10
50.799872573040261
20
-67.000035095386465
42
0.41421356237143014
10
51.299872573040375
20
-67.50003509538638
10
62.49996953731511
20
-67.499994852177565
42
0.41421141930932243
10
67.499951245076375
20
-62.500013144418176
10
67.499991488335809
20
-51.299902710839547
42
0.41421356237276202
10
66.999991488335127
20
-50.799902710840513
10
65.999882838331132
20
-50.799902710842275
10
65.999882838330564
20
-50.299902710842161
42
0.41421356237307771
10
65.6998828383297
20
-49.999902710842541
10
61.799882838329836
20
-49.999902710848687
42
0.41421356237307771
10
61.499882838330215
20
-50.299902710849551
10
61.499882838337498
20
-55.050022049648533
10
57.39270712986297
20
-55.050022049654785
10
54.499772817258076
20
-52.157087737060124
10
54.499772817264898
20
-48.122858944363998
42
0.16015103687817511
10
54.499772817255796
20
-41.877013137355647
10
54.499772817235907
20
-37.842717684659419
10
57.392707129831706
20
-34.949783372055094
10
61.499882838306235
20
-34.949783372048842
10
61.499882838313624
20
-39.69990271084896
42
0.41421356237199813
10
61.799882838314488
20
-39.999902710847884
10
65.699882838314352
20
-39.999902710842434
42
0.41421356237032453
10
65.999882838313724
20
-39.69990271084157
10
65.999882838313511
20
-39.199902710841457
10
66.999844134937234
20
-39.19990271084032
42
0.41421356237476775
10
67.499844134935813
20
-38.699902710836795
10
67.499951244987528
20
-30.500045074039122
42
0.41421399997704139
10
66.999952244987071
20
-30.000046074076518
42
-0.41421399999536063
10
66.499953245059032
20
-29.500047074103009
10
66.499953245059658
20
-15.499935074066116
42
-0.41421399995806663
10
66.999952244988208
20
-14.999936074067078
42
0.41421400001535125
10
67.499951244989319
20
-14.499937074130003
10
67.499844134937916
20
-6.3000794373328972
42
0.41421356237443346
10
66.999844134937803
20
-5.8000794373298952
10
65.999882838314647
20
-5.8000794373282361
10
65.999882838315216
20
-5.3000794373281224
42
0.41421356237420826
10
65.699882838316626
20
-5.0000794373266686
10
61.799882838316762
20
-5.0000794373210056
42
0.41421356237420387
10
61.499882838315557
20
-5.3000794373213012
10
61.499882838308508
20
-10.050198776120851
10
57.392707129832843
20
-10.050198776112325
10
54.49977281723875
20
-7.1572644635079996
10
54.499772817258076
20
-3.1229690108125401
42
0.16015103687809812
10
54.499772817268678
20
3.1228767961957611
10
54.499772817262055
20
7.1571055888921364
10
57.392707129866949
20
10.05003990148623
10
61.499882838341478
20
10.050039901479408
10
61.499882838334656
20
5.2999205626787216
42
0.41421356237476104
10
61.799882838334952
20
4.9999205626787271
10
65.699882838334815
20
4.9999205626738785
42
0.41421356237420498
10
65.999882838334685
20
5.2999205626736057
10
65.999882838335111
20
5.7999205626725825
10
66.999991488338537
20
5.7999205626703088
42
0.41421356237342605
10
67.499991488339845
20
6.299920562669854
10
67.499951245131911
20
17.500017526945157
42
0.41421141930945404
10
62.499969537370816
20
22.499999234705534
10
51.299859103792755
20
22.500039477964151
42
0.41421356237342799
10
50.799859103793601
20
22.0000394779629
10
50.799859103794915
20
20.999930827959474
10
50.299859103794802
20
20.999930827960043
42
0.41421356237142148
10
49.999859103794726
20
20.699930827959179
10
49.999859103801896
20
16.799930827958747
42
0.41421356237144097
10
50.299859103801623
20
16.49993082796027
10
55.049978442600036
20
16.499930827967546
10
55.049978442606857
20
12.392755119491312
10
52.157044130011627
20
9.4998208068869872
10
48.122815337316638
20
9.4998208068926697
42
0.1601510368780395
10
41.876969530294907
20
9.49982080692428
10
37.842674077612628
20
9.4998208068648182
10
34.949739765007735
20
12.39275511945948
10
34.949739765000913
20
16.499930827935145
10
39.699859103802169
20
16.499930827943672
42
0.4142135623736522
10
39.99985910380191
20
16.799930827943399
10
39.999859103795643
20
20.699930827943831
42
0.41421356237308637
10
39.699859103795347
20
20.999930827943007
10
39.199859103795234
20
20.999930827941853
10
39.199859103793528
20
21.999892124565008
42
0.41421356237509294
10
38.699859103789436
20
22.499892124564163
10
30.500001466991762
20
22.499999234616439
42
0.41421399997836289
10
30.000002467029855
20
22.00000023461655
42
-0.41421399999502762
10
29.500003467056786
20
21.500001234689524
10
15.499891467019893
20
21.500001234689631
42
-0.41421399995640168
10
14.99989246701851
20
22.00000023461655
42
0.41421400001433023
10
14.499893467083211
20
22.4999992346171
10
6.3000358302861059
20
22.499892124567396
42
0.41421356237575629
10
5.800035830282968
20
21.999892124567282
10
5.8000358302803079
20
20.999930827944695
10
5.3000358302801942
20
20.999930827945263
42
0.41421356237365653
10
5.0000358302808952
20
20.699930827945536
10
5.0000358302736458
20
16.799930827945104
42
0.41421356237309825
10
5.300035830273373
20
16.499930827946248
10
10.050155169073491
20
16.499930827937419
10
10.050155169067239
20
12.392755119462322
10
7.1572208564606399
20
9.4998208068665235
10
3.1229254037668852
20
9.4998208068875556
42
0.16015103687812637
10
-3.1229204032434286
20
9.4998208068973859
10
-7.1571491959377909
20
9.4998208068909662
10
-10.050083508533021
20
12.392755119496996
10
-10.0500835085262
20
16.499930827972094
10
-5.2999641697266497
20
16.499930827964135
42
0.41421356237143558
10
-4.9999641697260158
20
16.799930827963863
10
-4.9999641697195329
20
20.699930827964295
42
0.41421356237253248
10
-5.2999641697198285
20
20.999930827964359
10
-5.7999641697193738
20
20.999930827965159
10
-5.7999641697171
20
22.000039477969153
42
0.41421356237209545
10
-6.2999641697166453
20
22.500039477969196
10
-17.500061133992517
20
22.499999234760253
42
0.41421141930925481
10
-22.500042841751757
20
17.500017527000864
10
-22.500083085010942
20
6.2999070934216661
42
0.41421356237409462
10
-22.00008308501026
20
5.7999070934225108
10
-20.999974435007402
20
5.7999070934243946
10
-20.999974435006266
20
5.2999070934242809
42
0.41421356237364354
10
-20.699974435006538
20
4.9999070934245342
10
-16.799974435006106
20
4.9999070934308065
42
0.41421356237309398
10
-16.49997443500693
20
5.2999070934311021
10
-16.499974435013769
20
10.05002643223122
10
-12.392798726537535
20
10.050026432237473
10
-9.49986441393321
20
7.1570921196422432
10
-9.4998644139400312
20
3.1228633269466854
42
0.16015103687820317
10
-9.4998644139317072
20
-3.1229824800619319
10
-9.4998644139110411
20
-7.1572779327573244
10
-12.39279872650684
20
-10.050212245363355
10
-16.499974434983073
20
-10.050212245369607
10
-16.499974434989895
20
-5.3000929065689206
42
0.41421356237254009
10
-16.799974434990759
20
-5.000092906568856
10
-20.699974434991191
20
-5.0000929065754462
42
0.4142135623686477
10
-20.999974434989426
20
-5.3000929065757418
10
-20.999974434989213
20
-5.8000929065752871
10
-21.999935731612936
20
-5.8000929065769924
42
0.41421356237476448
10
-22.499935731612535
20
-6.3000929065805167
0
LWPOLYLINE
5
111
100
AcDbEntity
8
0
100
AcDbPolyline
90
144
70
1
43
0.0
10
34.794759367733327
20
-1.3671291178735101
42
0.33945399999745329
10
34.826543304167316
20
-1.6085516350283502
10
34.941358074552255
20
-1.7233644053930861
42
-0.19891200041728904
10
34.999935957330194
20
-1.8647841225384805
10
34.999935957332013
20
-3.7573923372957552
42
0.19891300002588774
10
35.878615200035732
20
-5.8787110946377421
10
39.121250714711664
20
-9.1213426093997896
42
0.19891200000114423
10
41.242564472042318
20
-10.000019852030142
10
43.135165686833261
20
-10.000019852019637
42
-0.19891199957796235
10
43.276591404042072
20
-10.058597734826984
10
43.391398174456413
20
-10.173412505213264
42
0.3394540001371007
10
43.632822691542984
20
-10.20519644162623
10
44.835274286644164
20
-9.5109618301835699
42
-0.26794899980483244
10
45.135276686641021
20
-9.5109618301227208
10
46.367009223171749
20
-10.222103407848522
42
0.33945599993909109
10
46.608433740343493
20
-10.190319471420748
10
46.740146476939415
20
-10.058597734866535
42
-0.19891399993532211
10
46.881572194042754
20
-10.000019852020987
10
51.777360402493855
20
-10.000019852023293
42
-0.198911999983822
10
53.89867115984292
20
-10.878695094610539
10
55.141321674525443
20
-12.121338609352961
42
0.19891199999152584
10
57.262632431846328
20
-13.00001385200466
10
60.499884957399672
20
-13.000013852020826
42
-0.41421399792587815
10
63.499878936251797
20
-16.000007851994837
10
63.499878936251228
20
-28.999981851962957
42
-0.41421400058962554
10
60.499884936277226
20
-31.999975858098782
10
57.26263241072445
20
-31.999975858113316
42
0.1989120000215471
10
55.14132165337643
20
-32.878651100809442
10
53.898671138699839
20
-34.121294615454346
42
-0.19891200000032219
10
51.777360381279891
20
-34.999969858113602
10
46.881572172926553
20
-34.99996985811913
42
-0.1989139997570358
10
46.7401464557813
20
-34.941391975320585
10
46.608433719159166
20
-34.809670238726085
42
0.3394560001751537
10
46.367009202079956
20
-34.777886302321207
10
45.135276665478884
20
-35.48902788006545
42
-0.26794900013612022
10
44.835274265482347
20
-35.489027880023286
10
43.632822670446103
20
-34.794793268505941
42
0.33945399991935299
10
43.391398153281372
20
-34.826577204925954
10
43.276591382920401
20
-34.941391975289434
42
-0.19891200003531823
10
43.135165665780164
20
-34.999969858127031
10
41.242564450930104
20
-34.999969858118334
42
0.19891200002803916
10
39.121250693582333
20
-35.878645100832436
10
35.878615178925202
20
-39.121280615523233
42
0.19891299999603851
10
34.999935936290804
20
-41.242595372838764
10
34.999935936246835
20
-43.135207587622517
42
-0.19891199986038657
10
34.9413580533935
20
-43.276625304839158
10
34.826543283003843
20
-43.391440075145624
42
0.33945400007411647
10
34.794759346594304
20
-43.632856592339621
10
35.488993958138259
20
-44.835308187440873
42
-0.26794900013582074
10
35.488993958096771
20
-45.135310587438447
10
34.777852380376544
20
-46.367043123967164
42
0.33945400034378848
10
34.80963631689923
20
-46.608459641139973
10
34.941358053414874
20
-46.740180377693278
42
-0.19891199971299178
10
34.999935936299302
20
-46.881599094838862
10
34.999935936247873
20
-51.777394303226174
42
-0.19891200001026485
10
34.121256693610505
20
-53.89871306054151
10
32.878621178909384
20
-55.141347575303712
42
0.19891200001665812
10
31.999941936316297
20
-57.262666332644017
10
31.999941936298146
20
-60.49991885812176
42
-0.41421399999319441
10
28.999947936325157
20
-63.499912858148747
10
15.999973936247329
20
-63.499912858147496
42
-0.41421400061237723
10
12.999979936319946
20
-60.499918852073051
10
12.999979936255386
20
-57.262666326586213
42
0.19891200001038403
10
12.121300693612117
20
-55.141347569274153
10
10.878665178908198
20
-53.898713054514751
42
-0.1989120000166571
10
9.999985936307473
20
-51.777394297176329
10
9.9999859362391312
20
-46.881599088794701
42
-0.19891199989788283
10
10.058563819099621
20
-46.74018037157748
10
10.190285555690366
20
-46.608459635069721
42
0.3394540000674211
10
10.222069492098825
20
-46.36704311787814
10
9.5109279143551415
20
-45.135310581375805
42
-0.26794900013712858
10
9.5109279143968148
20
-44.835308181379155
10
10.205162525916762
20
-43.632856586250455
42
0.33945399999640247
10
10.173378589487099
20
-43.391440069085803
10
10.058563819084947
20
-43.276625298725335
42
-0.19891200033050388
10
9.9999859362935481
20
-43.135207581577788
10
9.9999859362907255
20
-41.242595366825299
42
0.19891300002634227
10
9.1213066935875862
20
-39.121280609479655
10
5.878671178896866
20
-35.87864509470478
42
0.1989120000152664
10
3.7573554214804976
20
-34.999969852087382
10
1.8647542066941016
20
-34.999969852063117
42
-0.19891199977378135
10
1.7233334895811501
20
-34.941391969290734
10
1.6085197191716816
20
-34.826577198853101
42
0.33945400036000423
10
1.3670992020804726
20
-34.794793262491005
10
0.16464560698290778
20
-35.489027873937204
42
-0.26794899981454717
10
-0.13535279301708686
20
-35.489027873993365
10
-1.3670873295455976
20
-34.777886296283214
42
0.33945599988871861
10
-1.6085098467185932
20
-34.809670232694508
10
-1.740224583313805
20
-34.941391969270356
42
-0.19891400005273505
10
-1.8816473004181935
20
-34.999969852096356
10
-6.7774395088702022
20
-34.999969852114852
42
-0.19891199999121376
10
-8.8987532662200035
20
-34.121294609507061
10
-10.14139878090532
20
-32.878651094744669
42
0.19891200000961476
10
-12.262712538322944
20
-31.99997585211257
10
-15.499963063801374
20
-31.999975852096441
42
-0.41421400001645009
10
-18.499957063727376
20
-28.999981852122687
10
-18.499957063825715
20
-16.000007852143767
42
-0.41421400000274167
10
-15.49996306375192
20
-13.000013852117151
10
-12.262712538301912
20
-13.000013852123402
42
0.19891199999139814
10
-10.141398780953901
20
-12.121338609509015
10
-8.8987532662728253
20
-10.878695094741257
42
-0.19891200000948187
10
-6.777439508858266
20
-10.000019852104067
10
-1.8816473005068701
20
-10.000019852079218
42
-0.19891399987854655
10
-1.7402245833576016
20
-10.058597734896079
10
-1.6085098467374337
20
-10.190319471476528
42
0.33945600011237903
10
-1.3670873296582986
20
-10.222103407895023
10
-0.13535279306008938
20
-9.5109618302491477
42
-0.26794899981492604
10
0.16464560694115393
20
-9.5109618301927057
10
1.3670992019751793
20
-10.205196441761473
42
0.33945400013206234
10
1.6085197191427829
20
-10.173412505289525
10
1.723333489496663
20
-10.058597734961715
42
-0.19891199980624666
10
1.8647542066435112
20
-10.000019852090078
10
3.7573554215117611
20
-10.000019852110427
42
0.19891199999956743
10
5.8786711788411186
20
-9.1213426094833086
10
9.1213066934989229
20
-5.8787110946900611
42
0.19891299995318318
10
9.9999859362329637
20
-3.7573923373776088
10
9.9999859361635082
20
-1.8647841225913453
42
-0.19891199992677674
10
10.058563819029684
20
-1.723364405377291
10
10.173378589392428
20
-1.6085516350659645
42
0.3394539999482834
10
10.205162525829666
20
-1.3671291178767173
10
9.5109279248830987
20
-0.16467951668054898
42
-0.26794900015077322
10
9.5109279249271292
20
0.1353188833212646
10
10.222069502618751
20
1.3670494198566985
42
0.33945400022311728
10
10.190285566123887
20
1.608471937023435
10
10.058563829594355
20
1.7401906735777508
42
-0.19891199980363436
10
9.9999859467240064
20
1.8816113907234924
10
9.9999859467962384
20
6.7774055991071691
42
-0.1989119999793148
10
10.878665189414061
20
8.8987213565244385
10
12.121300704093869
20
10.141359871184363
42
0.19891200000739553
10
12.99997994670824
20
12.262675628527971
10
12.999979946724364
20
15.499929154005372
42
-0.41421399999302883
10
15.99997394669856
20
18.499923154032999
10
28.999947946776388
20
18.499923154029716
42
-0.4142140000165041
10
31.999941946702961
20
15.499929154055962
10
31.999941946787089
20
12.26267562857231
42
0.19891200000335554
10
32.878621189412179
20
10.141359871257524
10
34.121256704095991
20
8.898721356501559
42
-0.19891200000761203
10
34.999935946716725
20
6.7774055991606019
10
34.999935946798175
20
1.8816113907740828
42
-0.19891199995804995
10
34.941358063923808
20
1.740190673560114
10
34.809636327362341
20
1.608471937049103
42
0.33945399994357817
10
34.777852390924167
20
1.3670494198606278
10
35.488993968671267
20
0.13531888336215769
42
-0.26794900014702572
10
35.488993968627057
20
-0.16467951663780739
0
LWPOLYLINE
5
112
100
AcDbEntity
8
0
100
AcDbPolyline
90
64
70
1
43
0.0
10
4.9825771827578453
20
-45.416960269544063
42
0.3877944912285643
10
5.3940109316174816
20
-45.951064722792083
10
7.3696287696693785
20
-46.299420224727079
42
-0.43389208222678127
10
7.7683245889104615
20
-46.911282166741387
42
-0.075870455319007921
10
6.8445412165211161
20
-49.141484657232525
42
-0.43389208223295672
10
6.1299685953056837
20
-49.29221408831738
10
4.4866741533581944
20
-48.141561762581659
42
0.38779449124067883
10
3.8180774627079228
20
-48.228301384178273
42
-0.041772577434978336
10
3.2283547722007242
20
-48.818023021923061
42
0.38779449124285703
10
3.1416139570056245
20
-49.486619557718264
10
4.2922633491122903
20
-51.129916053801537
42
-0.433892082237123
10
4.1415326423528178
20
-51.844488405919648
42
-0.075870076549494972
10
1.911340204980251
20
-52.768264917708869
42
-0.43389208223435011
10
1.2994783741208993
20
-52.36956892785372
10
0.95112342306549635
20
-50.393950992699956
42
0.38779449123700405
10
0.41701908452200404
20
-49.982517094901404
42
-0.041773159984497994
10
-0.4169855881331746
20
-49.982517225264978
42
0.38779449123287579
10
-0.95108979807370331
20
-50.393951289977977
10
-1.2994441316495411
20
-52.369569334025392
42
-0.43389208222899461
10
-1.9113058378834256
20
-52.768265515102811
42
-0.075869938098692552
10
-4.1414947951535046
20
-51.844491980898546
42
-0.43389208223334252
10
-4.2922261187264157
20
-51.12991975888135
10
-3.141578145128392
20
-49.48662226953445
42
0.38779449123879778
10
-3.2283195374485256
20
-48.818025808607921
42
-0.041773112339543915
10
-3.8180496323975586
20
-48.228296524989773
42
0.38779449124357079
10
-4.4866462126525288
20
-48.14155605247511
10
-6.1299421189833385
20
-49.292206286828026
42
-0.43389208223820558
10
-6.8445145483674663
20
-49.141475946318963
42
-0.075870154224597128
10
-7.7682927936363155
20
-46.911281582652975
42
-0.4338920822310397
10
-7.3695969283725606
20
-46.299419670613048
10
-5.3939790641447871
20
-45.951064317268333
42
0.38779449123546933
10
-4.9825452751160357
20
-45.416959894949542
42
-0.04177325855731974
10
-4.9825454111420928
20
-44.582953261156078
42
0.3877944912385452
10
-5.3939793743986444
20
-44.048848973048422
10
-7.3695973522585421
20
-43.700494264159474
42
-0.43389208223162296
10
-7.7682934171238474
20
-43.088632482173601
42
-0.075870157155779647
10
-6.8445158510665296
20
-40.858437737375269
42
-0.43389208223031372
10
-6.1299434690965917
20
-40.707707172099958
10
-4.4866472007913671
20
-41.858356889543415
42
0.38779449123300291
10
-3.8180506478326173
20
-41.771616206719756
42
-0.041772877283945735
10
-3.2283243219524831
20
-41.181889767678221
42
0.38779449123972709
10
-3.1415837674643661
20
-40.513293198055031
10
-4.2922338003129834
20
-38.869997150611923
42
-0.43389208223322184
10
-4.1415033721968468
20
-38.155424739692158
42
-0.075870427091620368
10
-1.9113004648898517
20
-37.231644693691294
42
-0.43389208222898246
10
-1.2994390344116791
20
-37.630341297981296
10
-0.95108606727421829
20
-39.605959582975174
42
0.38779449123581594
10
-0.41698214190581667
20
-40.017394017099662
42
-0.041772908489432783
10
0.41701752712417411
20
-40.017394305542105
42
0.38779449123370463
10
0.95112173706604985
20
-39.605960240810923
10
1.2994760706407056
20
-37.630342196760559
42
-0.43389208222899039
10
1.9113377768841735
20
-37.231646015647904
42
-0.075870207143751728
10
4.1415340579690625
20
-38.155423981410792
42
-0.43389208222815173
10
4.2922646169345988
20
-38.869996364709785
10
3.1416148849820047
20
-40.513292622861741
42
0.38779449123215931
10
3.2283555618986832
20
-41.181889176584463
42
-0.04177215852506571
10
3.8180727303099991
20
-41.771604549755125
42
0.38779449124015447
10
4.4866695481140253
20
-41.858343191261788
10
6.129962303311145
20
-40.707688456630251
42
-0.43389208223464465
10
6.844535145487276
20
-40.858416840224088
42
-0.075871620465008199
10
7.7683306439953643
20
-43.088653974194614
42
-0.43389208223294168
10
7.3696328863479321
20
-43.700514653133723
10
5.3940139447297497
20
-44.04886389621538
42
0.38779449123740078
10
4.9825785038055086
20
-44.582967046039784
42
-0.04177258451992228
0
LWPOLYLINE
5
113
100
AcDbEntity
8
0
100
AcDbPolyline
90
64
70
1
43
0.0
10
49.98245364708783
20
-0.41704435617417857
42
0.38779449122935417
10
50.393887395948866
20
-0.95114880942239055
10
52.369505234000641
20
-1.2995043113589853
42
-0.43389208222551789
10
52.768201053240738
20
-1.9113662533716849
42
-0.075870455318969285
10
51.844417680851286
20
-4.1415687438635072
42
-0.433892082233232
10
51.129845059636111
20
-4.2922981749479607
10
49.486550617689318
20
-3.1416458492128641
42
0.38779449124060617
10
48.817953927038062
20
-3.2283854708100712
42
-0.041772577434899379
10
48.228231236532018
20
-3.8181071085550418
42
0.38779449124403359
10
48.141490421334829
20
-4.4867036443488804
10
49.292139813442581
20
-6.1300001404323545
42
-0.43389208223489317
10
49.141409106683966
20
-6.8445724925509079
42
-0.075870076549528806
10
46.911216669309333
20
-7.7683490043398598
42
-0.43389208223339593
10
46.299354838451478
20
-7.3696530144844585
10
45.950999887396051
20
-5.394035079330024
42
0.38779449123770543
10
45.416895548852111
20
-4.982601181533437
42
-0.041773159984452288
10
44.582890876197816
20
-4.9826013118983461
42
0.38779449123397858
10
44.048786666257101
20
-5.3940353766080884
10
43.700432332681522
20
-7.3696534206558182
42
-0.43389208222934594
10
43.088570626446511
20
-7.768349601733636
42
-0.075869938098694897
10
40.858381669177135
20
-6.8445760675301806
42
-0.43389208223320214
10
40.707650345605337
20
-6.1300038455122552
10
41.8582983192033
20
-4.4867063561650866
42
0.38779449123830745
10
41.77155692688109
20
-3.8181098952386519
42
-0.04177311233958006
10
41.181826831931673
20
-3.2283806116211391
42
0.38779449124326787
10
40.513230251678287
20
-3.1416401391047404
10
38.869934345346522
20
-4.2922903734587292
42
-0.43389208223558018
10
38.155361915962914
20
-4.1415600329490188
42
-0.075870154224705097
10
37.231583670693546
20
-1.9113656692820771
42
-0.43389208223071041
10
37.630279535958465
20
-1.2995037572425718
10
39.605897400186336
20
-0.95114840389896926
42
0.38779449123604198
10
40.017331189214431
20
-0.41704398157955336
42
-0.041773258557373898
10
40.017331053188663
20
0.41696265221384726
42
0.38779449123657184
10
39.605897089931915
20
0.95106694032041128
10
37.630279112071918
20
1.2994216492093469
42
-0.43389208223202314
10
37.231583047206371
20
1.9112834311958469
42
-0.075870157155798965
10
38.155360613263973
20
4.1414781759924173
42
-0.43389208223003928
10
38.869932995233675
20
4.29220874127037
10
40.513229263540325
20
3.1415590238259483
42
0.38779449123134418
10
41.181825816497565
20
3.2282997066484946
42
-0.041772877284049277
10
41.771552142379313
20
3.8180261456902347
42
0.38779449123883192
10
41.858292696866698
20
4.4866227153150868
10
40.707642664019588
20
6.1299187627586278
42
-0.43389208223379949
10
40.858373092135302
20
6.8444911736766532
42
-0.07587042709160853
10
43.088575999440508
20
7.7682712196789074
42
-0.43389208222965386
10
43.700437429919958
20
7.3695746153882631
10
44.048790397056337
20
5.3939563303941895
42
0.38779449123551796
10
44.582894322424302
20
4.9825218962687501
42
-0.041772908489450242
10
45.416893991454586
20
4.9825216078250225
42
0.38779449123322357
10
45.950998201397432
20
5.3939556725583904
10
46.299352534971739
20
7.369573716609489
42
-0.43389208222968928
10
46.911214241215845
20
7.7682698977208444
42
-0.075870207143668086
10
49.141410522299118
20
6.8444919319580872
42
-0.43389208222841102
10
49.29214108126618
20
6.1299195486590863
10
48.141491349311423
20
4.4866232905076231
42
0.38779449123062559
10
48.228232026228788
20
3.818026736783807
42
-0.041772158524973402
10
48.817949194638842
20
3.2283113636132788
42
0.38779449124152215
10
49.486546012445615
20
3.1415727221082768
10
51.129838767641907
20
4.2922274567393917
42
-0.43389208223419529
10
51.844411609817683
20
4.1414990731449706
42
-0.075871620464926362
10
52.76820710832591
20
1.9112619391748749
42
-0.43389208223228437
10
52.369509350678541
20
1.2994012602358724
10
50.393890409059736
20
0.95105201715341536
42
0.38779449123683446
10
49.982454968135258
20
0.41694886732950515
42
-0.041772584519839201
0
LWPOLYLINE
5
114
100
AcDbEntity
8
0
100
AcDbPolyline
90
64
70
1
43
0.0
10
49.982419961457829
20
-45.416916198674869
42
0.38779449122899634
10
50.393853710318204
20
-45.951020651923017
10
52.36947154837079
20
-46.299376153857217
42
-0.4338920822257859
10
52.768167367607866
20
-46.911238095871411
42
-0.075870455318423374
10
51.844383995221442
20
-49.141440586361931
42
-0.43389208223345671
10
51.129811374004646
20
-49.292170017446317
10
49.48651693205818
20
-48.141517691711897
42
0.3877944912398249
10
48.817920241405758
20
-48.228257313307708
42
-0.041772577434578739
10
48.228197550904859
20
-48.817978951057491
42
0.38779449124241955
10
48.141456735704267
20
-49.486575486848878
10
49.292106127812204
20
-51.12987198293159
42
-0.43389208223838427
10
49.141375421048998
20
-51.844444335044166
42
-0.075870076549307608
10
46.911182983679574
20
-52.768220846838567
42
-0.43389208223387871
10
46.299321152820426
20
-52.369524856984029
10
45.950966201766619
20
-50.393906921831331
42
0.38779449123911774
10
45.416861863219353
20
-49.982473024028408
42
-0.041773159984408691
10
44.582857190566216
20
-49.982473154402378
42
0.38779449123419502
10
44.048752980625423
20
-50.393907219109302
10
43.700398647052552
20
-52.3695252631559
42
-0.43389208223036552
10
43.088536940817647
20
-52.768221444225176
42
-0.075869938098890644
10
40.858347983547517
20
-51.844447910029956
42
-0.43389208223470688
10
40.707616659974207
20
-51.129875688011246
10
41.85826463357273
20
-49.486578198665825
42
0.38779449123815563
10
41.771523241253696
20
-48.817981737736204
42
-0.041773112339927164
10
41.181793146299881
20
-48.22825245412325
42
0.38779449124401749
10
40.513196566047476
20
-48.141511981605625
10
38.869900659715718
20
-49.292162215957177
42
-0.43389208223561782
10
38.155328230336082
20
-49.141431875448191
42
-0.075870154225219977
10
37.231549985063317
20
-46.911237511782758
42
-0.43389208223062453
10
37.630245850328429
20
-46.29937559974195
10
39.605863714555767
20
-45.951020246398002
42
0.38779449123670345
10
40.017297503585006
20
-45.416915824080242
42
-0.041773258557815204
10
40.017297367559557
20
-44.582909190287587
42
0.38779449123964438
10
39.605863404300592
20
-44.048804902177601
10
37.63024542644014
20
-43.700450193290628
42
-0.43389208223181563
10
37.231549361573357
20
-43.088588411302588
42
-0.075870157156279996
10
38.155326927632686
20
-40.858393666505826
42
-0.43389208222927844
10
38.869899309602765
20
-40.707663101230779
10
40.513195577908618
20
-41.858312818673085
42
0.38779449123348775
10
41.181792130865006
20
-41.771572135849446
42
-0.041772877284379478
10
41.771518456751565
20
-41.181845696812729
42
0.38779449123858828
10
41.85825901123556
20
-40.513249127184523
10
40.707608978387874
20
-38.869953079741947
42
-0.43389208223207637
10
40.858339406499589
20
-38.15538066881652
42
-0.075870427091835863
10
43.088542313810564
20
-37.231600622820849
42
-0.43389208222915343
10
43.700403744288437
20
-37.630297227111711
10
44.04875671142463
20
-39.605915512105412
42
0.38779449123589221
10
44.582860636792105
20
-40.017349946226176
42
-0.041772908489550335
10
45.416860305824642
20
-40.017350234679149
42
0.3877944912330476
10
45.950964515765605
20
-39.605916169941658
10
46.299318849342114
20
-37.630298125891819
42
-0.43389208222965714
10
46.911180555587144
20
-37.231601944771185
42
-0.075870207143469107
10
49.141376836669401
20
-38.155379910541811
42
-0.43389208222779224
10
49.292107395634694
20
-38.869952293840441
10
48.141457663680853
20
-40.513248551992547
42
0.38779449123296461
10
48.228198340600741
20
-41.181845105712618
42
-0.041772158524680233
10
48.817915509007356
20
-41.771560478888496
42
0.38779449124083687
10
49.486512326814598
20
-41.858299120392061
10
51.129805082011103
20
-40.707644385760453
42
-0.43389208223603076
10
51.84437792419029
20
-40.858372769353288
42
-0.075871620464400324
10
52.768173422695654
20
-43.088609903324233
42
-0.43389208223370368
10
52.369475665047247
20
-43.700470582264529
10
50.393856723428598
20
-44.048819825347323
42
0.38779449123643273
10
49.982421282504824
20
-44.582922975170618
42
-0.041772584519391004
0
LWPOLYLINE
5
115
100
AcDbEntity
8
0
100
AcDbPolyline
90
64
70
1
43
0.0
10
4.9825612133878057
20
-0.41700450414395623
42
0.387794491228243
10
5.3939949622479588
20
-0.95110895739180401
10
7.369612800300489
20
-1.2994644593285281
42
-0.433892082226013
10
7.7683086195412905
20
-1.9113264013411819
42
-0.075870455319051469
10
6.8445252471505
20
-4.1415288918326372
42
-0.4338920822320963
10
6.1299526259359549
20
-4.2922583229169256
10
4.4866581839892206
20
-3.1416059971820687
42
0.3877944912415936
10
3.8180614933384716
20
-3.2283456187792314
42
-0.041772577434950421
10
3.228338802831701
20
-3.8180672565234142
42
0.38779449124293375
10
3.1415979876355133
20
-4.4866637923175379
10
4.2922473797427489
20
-6.1299602884013735
42
-0.43389208223683906
10
4.1415166729842472
20
-6.8445326405201516
42
-0.075870076549535509
10
1.9113242356100744
20
-7.7683091523084391
42
-0.4338920822336072
10
1.2994624047519256
20
-7.3696131624529917
10
0.95110745369822791
20
-5.3939952273003655
42
0.38779449123758664
10
0.41700311515138805
20
-4.9825613295019995
42
-0.041773159984419141
10
-0.41700155750214185
20
-4.9825614598653454
42
0.38779449123360676
10
-0.9511057674433594
20
-5.3939955245784654
10
-1.2994601010181126
20
-7.3696135686260744
42
-0.43389208222961378
10
-1.9113218072535709
20
-7.7683097497027873
42
-0.075869938098635722
10
-4.1415107645223568
20
-6.8445362154996996
42
-0.4338920822353482
10
-4.2922420880954313
20
-6.1299639934801942
10
-3.1415941144979342
20
-4.4866665041342912
42
0.38779449123806975
10
-3.2283355068174888
20
-3.8180700432078627
42
-0.041773112339591738
10
-3.818065601766957
20
-3.2283407595890097
42
0.38779449124164922
10
-4.4866621820208827
20
-3.1416002870744593
10
-6.1299580883535381
20
-4.2922505214285565
42
-0.43389208223742914
10
-6.844530517736831
20
-4.1415201809177855
42
-0.075870154224570552
10
-7.7683087630063223
20
-1.9113258172527856
42
-0.43389208223167536
10
-7.3696128977409803
20
-1.2994639052122308
10
-5.3939950335126241
20
-0.95110855186874232
42
0.38779449123488535
10
-4.9825612444844936
20
-0.41700412954932164
42
-0.041773258557289264
10
-4.9825613805104974
20
0.41700250424352081
42
0.38779449123931797
10
-5.3939953437691113
20
0.95110679235237461
10
-7.3696133216277291
20
1.2994615012394795
42
-0.43389208223223757
10
-7.76830938649272
20
1.9113232832259639
42
-0.075870157155772389
10
-6.8445318204353391
20
4.1415180280242119
42
-0.43389208222977232
10
-6.1299594384664102
20
4.2922485933011849
10
-4.486663170160341
20
3.1415988758561753
42
0.38779449123186288
10
-3.8180666172014899
20
3.2283395586792758
42
-0.041772877283999893
10
-3.2283402913206545
20
3.8180659977215683
42
0.38779449123998827
10
-3.1415997368323905
20
4.4866625673448297
10
-4.292249769682412
20
6.1299586147894551
42
-0.43389208223367703
10
-4.1415193415638276
20
6.8445310257082914
42
-0.075870427091569673
10
-1.9113164342586981
20
7.7683110717100678
42
-0.433892082228995
10
-1.2994550037806358
20
7.3696144674186659
10
-0.95110203664432902
20
5.3939961824232796
42
0.38779449123393916
10
-0.41699811127533892
20
4.9825617483002791
42
-0.041772908489453579
10
0.41700155775514836
20
4.9825614598579824
42
0.38779449123338089
10
0.95110576769697863
20
5.3939955245892506
10
1.2994601012711455
20
7.3696135686383659
42
-0.43389208222922249
10
1.9113218075150993
20
7.7683097497518503
42
-0.075870207143767465
10
4.1415180886008383
20
6.844531783989666
42
-0.43389208222700415
10
4.2922486475657928
20
6.1299594006912184
10
3.1415989156124624
20
4.48666314253785
42
0.38779449123178428
10
3.2283395925299905
20
3.8180665888147898
42
-0.041772158524986412
10
3.8180567609402614
20
3.2283512156453593
42
0.3877944912405783
10
4.4866535787450506
20
3.1416125741383705
10
6.1299463339419162
20
4.2922673087697047
42
-0.43389208223419695
10
6.844519176118312
20
4.141538925176425
42
-0.075871620465028197
10
7.7683146746279235
20
1.9113017912057664
42
-0.43389208223429687
10
7.3696169169780639
20
1.2994411122656304
10
5.3939979753602074
20
0.95109186918421074
42
0.38779449123688531
10
4.9825625344353828
20
0.41698871936032178
42
-0.041772584519936519
0
LWPOLYLINE
5
116
100
AcDbEntity
8
0
100
AcDbPolyline
90
8
70
1
43
0.0
10
-12.49996906375624
20
-58.49992285208657
42
0.41421400000018299
10
-13.499967063758049
20
-57.499924852087602
10
-19.499955063710672
20
-57.499924852096072
42
0.41421400002665831
10
-20.499953063683733
20
-58.499922852125223
10
-20.499953063754628
20
-62.499914852103871
42
0.41421399999785469
10
-17.499959063770802
20
-65.499908852099793
10
-13.499967063745544
20
-65.499908852139711
42
0.41421399995556918
10
-12.499969063672438
20
-64.499910852111952
0
LWPOLYLINE
5
117
100
AcDbEntity
8
0
100
AcDbPolyline
90
8
70
1
43
0.0
10
-12.499969063876748
20
19.49992114791371
42
0.41421400000002034
10
-13.499967063877989
20
20.499919147912674
10
-17.499959063882216
20
20.499919147858222
42
0.41421400001644898
10
-20.499953063799694
20
17.499925147874364
10
-20.499953063820357
20
13.499933147849106
42
0.41421399997787905
10
-19.49995506389314
20
12.499935147849897
10
-13.499967063866052
20
12.499935147858736
42
0.41421399995623515
10
-12.499969063794083
20
13.499933147887759
0
LWPOLYLINE
5
118
100
AcDbEntity
8
0
100
AcDbPolyline
90
8
70
1
43
0.0
10
58.4998889361691
20
20.49991914802327
42
0.4142139999993531
10
57.499890936170942
20
19.499921148021713
10
57.499890936179547
20
13.499933147969614
42
0.41421399999668734
10
58.499888936108277
20
12.499935147995984
10
64.499876936132523
20
12.499935147981198
42
0.41421400000817843
10
65.499874936132869
20
13.499933148007699
10
65.499874936179111
20
17.499925147986346
42
0.41421399999274938
10
62.499880936196064
20
20.499919148003301
0
LWPOLYLINE
5
119
100
AcDbEntity
8
0
100
AcDbPolyline
90
8
70
1
43
0.0
10
58.49988893628904
20
-57.499924851975869
42
0.41421399999951503
10
57.49989093629145
20
-58.499922851978567
10
57.499890936299927
20
-64.499910852030098
42
0.41421399999702291
10
58.499888936228785
20
-65.499908852002022
10
62.499880936305772
20
-65.49990885197559
42
0.41421399999791253
10
65.499874936301694
20
-62.499914851992457
10
65.499874936243842
20
-58.49992285196663
42
0.41421399999718422
10
64.49987693631499
20
-57.499924851993001
0
ENDSEC
0
SECTION
2
OBJECTS
0
DICTIONARY
5
C
100
AcDbDictionary
3
ACAD_GROUP
350
D
3
ACAD_MLINESTYLE
350
17
0
DICTIONARY
5
D
100
AcDbDictionary
0
DICTIONARY
5
1A
330
C
100
AcDbDictionary
0
DICTIONARY
5
17
100
AcDbDictionary
0
ENDSEC
0
EOF
