0
SECTION
2
HEADER
9
$INSUNITS
70
4
9
$ACADVER
1
AC1014
9
$HANDSEED
5
FFFF
0
ENDSEC
0
SECTION
2
TABLES
0
TABLE
2
VPORT
5
8
100
AcDbSymbolTable
0
ENDTAB
0
TABLE
2
LTYPE
5
5
100
AcDbSymbolTable
0
LTYPE
5
14
100
AcDbSymbolTableRecord
100
AcDbLinetypeTableRecord
2
BYBLOCK
70
0
0
LTYPE
5
15
100
AcDbSymbolTableRecord
100
AcDbLinetypeTableRecord
2
BYLAYER
70
0
0
LTYPE
5
16
100
AcDbSymbolTableRecord
100
AcDbLinetypeTableRecord
2
DASHED
70
0
3
Dashed __ __ __ __ __ __ __ __ __ __ __ __ __ _
72
65
73
2
40
0.75
49
0.5
74
0
49
-0.25
74
0
0
ENDTAB
0
TABLE
2
LAYER
5
2
100
AcDbSymbolTable
70
3
0
LAYER
5
50
100
AcDbSymbolTableRecord
100
AcDbLayerTableRecord
2
1
70
0
62
7
6
DASHED
0
LAYER
5
51
100
AcDbSymbolTableRecord
100
AcDbLayerTableRecord
2
0
70
0
62
7
6
CONTINUOUS
0
ENDTAB
0
TABLE
2
STYLE
5
3
100
AcDbSymbolTable
70
1
0
STYLE
5
11
100
AcDbSymbolTableRecord
100
AcDbTextStyleTableRecord
2
STANDARD
70
0
0
ENDTAB
0
TABLE
2
VIEW
5
6
100
AcDbSymbolTable
70
0
0
ENDTAB
0
TABLE
2
UCS
5
7
100
AcDbSymbolTable
70
0
0
ENDTAB
0
TABLE
2
APPID
5
9
100
AcDbSymbolTable
70
2
0
APPID
5
12
100
AcDbSymbolTableRecord
100
AcDbRegAppTableRecord
2
ACAD
70
0
0
ENDTAB
0
TABLE
2
DIMSTYLE
5
A
100
AcDbSymbolTable
70
1
0
ENDTAB
0
TABLE
2
BLOCK_RECORD
5
1
100
AcDbSymbolTable
70
1
0
BLOCK_RECORD
5
1F
100
AcDbSymbolTableRecord
100
AcDbBlockTableRecord
2
*MODEL_SPACE
0
BLOCK_RECORD
5
1B
100
AcDbSymbolTableRecord
100
AcDbBlockTableRecord
2
*PAPER_SPACE
0
ENDTAB
0
ENDSEC
0
SECTION
2
BLOCKS
0
BLOCK
5
20
100
AcDbEntity
100
AcDbBlockBegin
2
*MODEL_SPACE
0
ENDBLK
5
21
100
AcDbEntity
100
AcDbBlockEnd
0
BLOCK
5
1C
100
AcDbEntity
100
AcDbBlockBegin
2
*PAPER_SPACE
0
ENDBLK
5
1D
100
AcDbEntity
100
AcDbBlockEnd
0
ENDSEC
0
SECTION
2
ENTITIES
0
LWPOLYLINE
5
100
100
AcDbEntity
8
0
100
AcDbPolyline
90
38
70
1
43
0.0
10
-0.45211668569359098
20
-42.074886876660003
10
3.5478833143063992
20
-42.074886876660003
10
3.8978833143063998
20
-41.724886876660001
10
7.1978833143064103
20
-41.724886876660001
10
7.5478833143063992
20
-42.074886876659995
10
11.5478833143064
20
-42.074886876659995
10
13.047883314306411
20
-40.574886876659988
10
13.047883314306407
20
-36.007343020590703
42
0.31529878887897861
10
12.718893385969253
20
-35.53749671019775
10
11.77687324264358
20
-35.194629417948057
42
-0.31529878887899287
10
11.447883314306397
20
-34.724783107555098
10
11.447883314306397
20
-34.1142745679998
42
0.3563939586926041
10
11.047883314306382
20
-33.624376619443169
42
-0.35639395869259943
10
9.0478833143063948
20
-31.17488687665999
10
9.0478833143063948
20
-23.974886876659951
42
-0.35639395869260027
10
11.047883314306388
20
-21.52539713387678
42
0.35639395869260387
10
11.447883314306395
20
-21.035499185320145
10
11.447883314306392
20
-20.056382334282322
42
0.26794919243112408
10
11.197883314306392
20
-19.623369632390101
10
10.247883314306394
20
-19.074886876659956
10
-7.1521166856935992
20
-19.074886876659964
10
-8.1021166856935984
20
-19.623369632390112
42
0.26794919243111825
10
-8.3521166856935984
20
-20.056382334282329
10
-8.3521166856936002
20
-21.035499185320155
42
0.35639395869260004
10
-7.952116685693599
20
-21.525397133876783
42
-0.35639395869260065
10
-5.9521166856935981
20
-23.974886876659962
10
-5.9521166856935963
20
-31.174886876660004
42
-0.35639395869259871
10
-7.9521166856935785
20
-33.624376619443183
42
0.3563939586926127
10
-8.3521166856935931
20
-34.114274567999807
10
-8.3521166856935931
20
-34.724783107555112
42
-0.31529878887900842
10
-8.6811066140308046
20
-35.194629417948072
10
-9.6231267573563919
20
-35.537496710197807
42
0.31529878887898666
10
-9.9521166856935945
20
-36.007343020590703
10
-9.9521166856935928
20
-40.574886876660003
10
-8.452116685693591
20
-42.074886876659995
10
-4.4521166856935928
20
-42.074886876660003
10
-4.1021166856935931
20
-41.724886876660001
10
-0.80211668569359018
20
-41.724886876660001
0
ENDSEC
0
SECTION
2
OBJECTS
0
DICTIONARY
5
C
100
AcDbDictionary
3
ACAD_GROUP
350
D
3
ACAD_MLINESTYLE
350
17
0
DICTIONARY
5
D
100
AcDbDictionary
0
DICTIONARY
5
1A
330
C
100
AcDbDictionary
0
DICTIONARY
5
17
100
AcDbDictionary
0
ENDSEC
0
EOF
